<?xml version="1.0" encoding="UTF-8" standalone="no"?><svg xmlns="http://www.w3.org/2000/svg" xmlns:xlink="http://www.w3.org/1999/xlink" contentStyleType="text/css" height="424px" preserveAspectRatio="none" style="width:703px;height:424px;background:#FFFFFF;" version="1.1" viewBox="0 0 703 424" width="703px" zoomAndPan="magnify"><defs/><g><!--MD5=[18ee6c6b0c8d99feca35273ccb20e692]
class TcpClientAGVDigitalTwin--><g id="elem_TcpClientAGVDigitalTwin"><rect codeLine="3" fill="#F1F1F1" height="96.8906" id="TcpClientAGVDigitalTwin" rx="2.5" ry="2.5" style="stroke:#181818;stroke-width:0.5;" width="334" x="7" y="180"/><ellipse cx="79.25" cy="196" fill="#ADD1B2" rx="11" ry="11" style="stroke:#181818;stroke-width:1.0;"/><path d="M81.5938,191.6719 C80.6563,191.2344 80.0625,191.0938 79.1875,191.0938 C76.5625,191.0938 74.5625,193.1719 74.5625,195.8906 L74.5625,197.0156 C74.5625,199.5938 76.6719,201.4844 79.5625,201.4844 C80.7813,201.4844 81.9375,201.1875 82.6875,200.6406 C83.2656,200.2344 83.5938,199.7813 83.5938,199.3906 C83.5938,198.9375 83.2031,198.5469 82.7344,198.5469 C82.5156,198.5469 82.3125,198.625 82.125,198.8125 C81.6719,199.2969 81.6719,199.2969 81.4844,199.3906 C81.0625,199.6563 80.375,199.7813 79.6094,199.7813 C77.5625,199.7813 76.2656,198.6875 76.2656,196.9844 L76.2656,195.8906 C76.2656,194.1094 77.5156,192.7969 79.25,192.7969 C79.8281,192.7969 80.4375,192.9531 80.9063,193.2031 C81.3906,193.4844 81.5625,193.7031 81.6563,194.1094 C81.7188,194.5156 81.75,194.6406 81.8906,194.7656 C82.0313,194.9063 82.2656,195.0156 82.4844,195.0156 C82.75,195.0156 83.0156,194.875 83.1875,194.6563 C83.2969,194.5 83.3281,194.3125 83.3281,193.8906 L83.3281,192.4688 C83.3281,192.0313 83.3125,191.9063 83.2188,191.75 C83.0625,191.4844 82.7813,191.3438 82.4844,191.3438 C82.1875,191.3438 81.9844,191.4375 81.7656,191.75 L81.5938,191.6719 Z " fill="#000000"/><text fill="#000000" font-family="sans-serif" font-size="14" lengthAdjust="spacing" textLength="181" x="99.75" y="200.8467">TcpClientAGVDigitalTwin</text><line style="stroke:#181818;stroke-width:0.5;" x1="8" x2="340" y1="212" y2="212"/><text fill="#000000" font-family="sans-serif" font-size="14" lengthAdjust="spacing" textLength="147" x="13" y="228.9951">+parsing methods...</text><text fill="#000000" font-family="sans-serif" font-size="14" lengthAdjust="spacing" textLength="275" x="13" y="245.292">+building data transferece methods...</text><line style="stroke:#181818;stroke-width:0.5;" x1="8" x2="340" y1="252.5938" y2="252.5938"/><text fill="#000000" font-family="sans-serif" font-size="14" lengthAdjust="spacing" textLength="322" x="13" y="269.5889">+buildStateChangeRequestPacket(agvstate)</text></g><!--MD5=[a0bb9c9a69fd6c0bea204d88084df07e]
class TcpClientAGVDigitalTwinThread--><g id="elem_TcpClientAGVDigitalTwinThread"><rect codeLine="9" fill="#F1F1F1" height="48" id="TcpClientAGVDigitalTwinThread" rx="2.5" ry="2.5" style="stroke:#181818;stroke-width:0.5;" width="263" x="50.5" y="39.5"/><ellipse cx="65.5" cy="55.5" fill="#ADD1B2" rx="11" ry="11" style="stroke:#181818;stroke-width:1.0;"/><path d="M67.8438,51.1719 C66.9063,50.7344 66.3125,50.5938 65.4375,50.5938 C62.8125,50.5938 60.8125,52.6719 60.8125,55.3906 L60.8125,56.5156 C60.8125,59.0938 62.9219,60.9844 65.8125,60.9844 C67.0313,60.9844 68.1875,60.6875 68.9375,60.1406 C69.5156,59.7344 69.8438,59.2813 69.8438,58.8906 C69.8438,58.4375 69.4531,58.0469 68.9844,58.0469 C68.7656,58.0469 68.5625,58.125 68.375,58.3125 C67.9219,58.7969 67.9219,58.7969 67.7344,58.8906 C67.3125,59.1563 66.625,59.2813 65.8594,59.2813 C63.8125,59.2813 62.5156,58.1875 62.5156,56.4844 L62.5156,55.3906 C62.5156,53.6094 63.7656,52.2969 65.5,52.2969 C66.0781,52.2969 66.6875,52.4531 67.1563,52.7031 C67.6406,52.9844 67.8125,53.2031 67.9063,53.6094 C67.9688,54.0156 68,54.1406 68.1406,54.2656 C68.2813,54.4063 68.5156,54.5156 68.7344,54.5156 C69,54.5156 69.2656,54.375 69.4375,54.1563 C69.5469,54 69.5781,53.8125 69.5781,53.3906 L69.5781,51.9688 C69.5781,51.5313 69.5625,51.4063 69.4688,51.25 C69.3125,50.9844 69.0313,50.8438 68.7344,50.8438 C68.4375,50.8438 68.2344,50.9375 68.0156,51.25 L67.8438,51.1719 Z " fill="#000000"/><text fill="#000000" font-family="sans-serif" font-size="14" lengthAdjust="spacing" textLength="231" x="79.5" y="60.3467">TcpClientAGVDigitalTwinThread</text><line style="stroke:#181818;stroke-width:0.5;" x1="51.5" x2="312.5" y1="71.5" y2="71.5"/><line style="stroke:#181818;stroke-width:0.5;" x1="51.5" x2="312.5" y1="79.5" y2="79.5"/></g><!--MD5=[d7724097116ffcb6ea40e9e893263eea]
class TcpServerAGVManager--><g id="elem_TcpServerAGVManager"><rect codeLine="13" fill="#F1F1F1" height="113.1875" id="TcpServerAGVManager" rx="2.5" ry="2.5" style="stroke:#181818;stroke-width:0.5;" width="287" x="356.5" y="7"/><ellipse cx="412.75" cy="23" fill="#ADD1B2" rx="11" ry="11" style="stroke:#181818;stroke-width:1.0;"/><path d="M415.0938,18.6719 C414.1563,18.2344 413.5625,18.0938 412.6875,18.0938 C410.0625,18.0938 408.0625,20.1719 408.0625,22.8906 L408.0625,24.0156 C408.0625,26.5938 410.1719,28.4844 413.0625,28.4844 C414.2813,28.4844 415.4375,28.1875 416.1875,27.6406 C416.7656,27.2344 417.0938,26.7813 417.0938,26.3906 C417.0938,25.9375 416.7031,25.5469 416.2344,25.5469 C416.0156,25.5469 415.8125,25.625 415.625,25.8125 C415.1719,26.2969 415.1719,26.2969 414.9844,26.3906 C414.5625,26.6563 413.875,26.7813 413.1094,26.7813 C411.0625,26.7813 409.7656,25.6875 409.7656,23.9844 L409.7656,22.8906 C409.7656,21.1094 411.0156,19.7969 412.75,19.7969 C413.3281,19.7969 413.9375,19.9531 414.4063,20.2031 C414.8906,20.4844 415.0625,20.7031 415.1563,21.1094 C415.2188,21.5156 415.25,21.6406 415.3906,21.7656 C415.5313,21.9063 415.7656,22.0156 415.9844,22.0156 C416.25,22.0156 416.5156,21.875 416.6875,21.6563 C416.7969,21.5 416.8281,21.3125 416.8281,20.8906 L416.8281,19.4688 C416.8281,19.0313 416.8125,18.9063 416.7188,18.75 C416.5625,18.4844 416.2813,18.3438 415.9844,18.3438 C415.6875,18.3438 415.4844,18.4375 415.2656,18.75 L415.0938,18.6719 Z " fill="#000000"/><text fill="#000000" font-family="sans-serif" font-size="14" lengthAdjust="spacing" textLength="166" x="433.25" y="27.8467">TcpServerAGVManager</text><line style="stroke:#181818;stroke-width:0.5;" x1="357.5" x2="642.5" y1="39" y2="39"/><text fill="#000000" font-family="sans-serif" font-size="14" lengthAdjust="spacing" textLength="147" x="362.5" y="55.9951">+parsing methods...</text><text fill="#000000" font-family="sans-serif" font-size="14" lengthAdjust="spacing" textLength="275" x="362.5" y="72.292">+building data transferece methods...</text><line style="stroke:#181818;stroke-width:0.5;" x1="357.5" x2="642.5" y1="79.5938" y2="79.5938"/><text fill="#000000" font-family="sans-serif" font-size="14" lengthAdjust="spacing" textLength="218" x="362.5" y="96.5889">+parseAgvId(packetReceived)</text><text fill="#000000" font-family="sans-serif" font-size="14" lengthAdjust="spacing" textLength="245" x="362.5" y="112.8857">+parseAgvState(packetReceived)</text></g><!--MD5=[245a0f4990a869e77cf31f607fa8d74f]
class TcpServerAGVManagerThread--><g id="elem_TcpServerAGVManagerThread"><rect codeLine="20" fill="#F1F1F1" height="48" id="TcpServerAGVManagerThread" rx="2.5" ry="2.5" style="stroke:#181818;stroke-width:0.5;" width="248" x="376" y="204.5"/><ellipse cx="391" cy="220.5" fill="#ADD1B2" rx="11" ry="11" style="stroke:#181818;stroke-width:1.0;"/><path d="M393.3438,216.1719 C392.4063,215.7344 391.8125,215.5938 390.9375,215.5938 C388.3125,215.5938 386.3125,217.6719 386.3125,220.3906 L386.3125,221.5156 C386.3125,224.0938 388.4219,225.9844 391.3125,225.9844 C392.5313,225.9844 393.6875,225.6875 394.4375,225.1406 C395.0156,224.7344 395.3438,224.2813 395.3438,223.8906 C395.3438,223.4375 394.9531,223.0469 394.4844,223.0469 C394.2656,223.0469 394.0625,223.125 393.875,223.3125 C393.4219,223.7969 393.4219,223.7969 393.2344,223.8906 C392.8125,224.1563 392.125,224.2813 391.3594,224.2813 C389.3125,224.2813 388.0156,223.1875 388.0156,221.4844 L388.0156,220.3906 C388.0156,218.6094 389.2656,217.2969 391,217.2969 C391.5781,217.2969 392.1875,217.4531 392.6563,217.7031 C393.1406,217.9844 393.3125,218.2031 393.4063,218.6094 C393.4688,219.0156 393.5,219.1406 393.6406,219.2656 C393.7813,219.4063 394.0156,219.5156 394.2344,219.5156 C394.5,219.5156 394.7656,219.375 394.9375,219.1563 C395.0469,219 395.0781,218.8125 395.0781,218.3906 L395.0781,216.9688 C395.0781,216.5313 395.0625,216.4063 394.9688,216.25 C394.8125,215.9844 394.5313,215.8438 394.2344,215.8438 C393.9375,215.8438 393.7344,215.9375 393.5156,216.25 L393.3438,216.1719 Z " fill="#000000"/><text fill="#000000" font-family="sans-serif" font-size="14" lengthAdjust="spacing" textLength="216" x="405" y="225.3467">TcpServerAGVManagerThread</text><line style="stroke:#181818;stroke-width:0.5;" x1="377" x2="623" y1="236.5" y2="236.5"/><line style="stroke:#181818;stroke-width:0.5;" x1="377" x2="623" y1="244.5" y2="244.5"/></g><!--MD5=[708e328039b60d50c6285936843ac334]
class OrderRepository--><g id="elem_OrderRepository"><rect codeLine="24" fill="#F1F1F1" height="80.5938" id="OrderRepository" rx="2.5" ry="2.5" style="stroke:#181818;stroke-width:0.5;" width="393" x="303.5" y="337"/><ellipse cx="435.75" cy="353" fill="#ADD1B2" rx="11" ry="11" style="stroke:#181818;stroke-width:1.0;"/><path d="M438.0938,348.6719 C437.1563,348.2344 436.5625,348.0938 435.6875,348.0938 C433.0625,348.0938 431.0625,350.1719 431.0625,352.8906 L431.0625,354.0156 C431.0625,356.5938 433.1719,358.4844 436.0625,358.4844 C437.2813,358.4844 438.4375,358.1875 439.1875,357.6406 C439.7656,357.2344 440.0938,356.7813 440.0938,356.3906 C440.0938,355.9375 439.7031,355.5469 439.2344,355.5469 C439.0156,355.5469 438.8125,355.625 438.625,355.8125 C438.1719,356.2969 438.1719,356.2969 437.9844,356.3906 C437.5625,356.6563 436.875,356.7813 436.1094,356.7813 C434.0625,356.7813 432.7656,355.6875 432.7656,353.9844 L432.7656,352.8906 C432.7656,351.1094 434.0156,349.7969 435.75,349.7969 C436.3281,349.7969 436.9375,349.9531 437.4063,350.2031 C437.8906,350.4844 438.0625,350.7031 438.1563,351.1094 C438.2188,351.5156 438.25,351.6406 438.3906,351.7656 C438.5313,351.9063 438.7656,352.0156 438.9844,352.0156 C439.25,352.0156 439.5156,351.875 439.6875,351.6563 C439.7969,351.5 439.8281,351.3125 439.8281,350.8906 L439.8281,349.4688 C439.8281,349.0313 439.8125,348.9063 439.7188,348.75 C439.5625,348.4844 439.2813,348.3438 438.9844,348.3438 C438.6875,348.3438 438.4844,348.4375 438.2656,348.75 L438.0938,348.6719 Z " fill="#000000"/><text fill="#000000" font-family="sans-serif" font-size="14" lengthAdjust="spacing" textLength="120" x="456.25" y="357.8467">OrderRepository</text><line style="stroke:#181818;stroke-width:0.5;" x1="304.5" x2="695.5" y1="369" y2="369"/><line style="stroke:#181818;stroke-width:0.5;" x1="304.5" x2="695.5" y1="377" y2="377"/><text fill="#000000" font-family="sans-serif" font-size="14" lengthAdjust="spacing" textLength="381" x="309.5" y="393.9951">+findOrdersByStateAndDateDescending(orderState)</text><text fill="#000000" font-family="sans-serif" font-size="14" lengthAdjust="spacing" textLength="53" x="309.5" y="410.292">+save()</text></g><!--MD5=[e71a6d92d42ba370bd2d28424c2cab55]
link TcpClientAGVDigitalTwinThread to TcpClientAGVDigitalTwin--><g id="link_TcpClientAGVDigitalTwinThread_TcpClientAGVDigitalTwin"><path codeLine="31" d="M180.871,87.508 C179.763,110.072 178.035,145.28 176.589,174.74 " fill="none" id="TcpClientAGVDigitalTwinThread-to-TcpClientAGVDigitalTwin" style="stroke:#181818;stroke-width:1.0;"/><polygon fill="#181818" points="176.341,179.792,180.7784,170.9994,176.5867,174.798,172.7881,170.6063,176.341,179.792" style="stroke:#181818;stroke-width:1.0;"/></g><!--MD5=[9cb19ad990d30361a685a9b3a3ddf897]
link TcpServerAGVManager to TcpServerAGVManagerThread--><g id="link_TcpServerAGVManager_TcpServerAGVManagerThread"><path codeLine="33" d="M500,120.139 C500,146.778 500,177.53 500,199.275 " fill="none" id="TcpServerAGVManager-to-TcpServerAGVManagerThread" style="stroke:#181818;stroke-width:1.0;"/><polygon fill="#181818" points="500,204.325,504,195.325,500,199.325,496,195.325,500,204.325" style="stroke:#181818;stroke-width:1.0;"/></g><!--MD5=[f660f071de13e62dfb559cc1bb1d0d84]
link TcpClientAGVDigitalTwinThread to TcpServerAGVManagerThread--><g id="link_TcpClientAGVDigitalTwinThread_TcpServerAGVManagerThread"><path codeLine="35" d="M226.887,87.508 C285.871,117.742 389.138,170.675 450.385,202.068 " fill="none" id="TcpClientAGVDigitalTwinThread-to-TcpServerAGVManagerThread" style="stroke:#181818;stroke-width:1.0;"/><polygon fill="#181818" points="455.085,204.477,448.8991,196.8131,450.6351,202.197,445.2512,203.933,455.085,204.477" style="stroke:#181818;stroke-width:1.0;"/></g><!--MD5=[327ceb83330e43b60835048e3f32e1ac]
link TcpServerAGVManagerThread to OrderRepository--><g id="link_TcpServerAGVManagerThread_OrderRepository"><path codeLine="37" d="M500,252.793 C500,273.968 500,305.793 500,331.8608 " fill="none" id="TcpServerAGVManagerThread-to-OrderRepository" style="stroke:#181818;stroke-width:1.0;"/><polygon fill="#181818" points="500,336.9927,504,327.9927,500,331.9927,496,327.9927,500,336.9927" style="stroke:#181818;stroke-width:1.0;"/></g><!--MD5=[4e7d93b531fd200244d24864950c756d]
@startuml
skinparam classAttributeIconSize 0

Class "TcpClientAGVDigitalTwin"{
+parsing methods...
+building data transferece methods...
+buildStateChangeRequestPacket(agvstate)
}

Class "TcpClientAGVDigitalTwinThread"{
       
}

Class "TcpServerAGVManager"{
+parsing methods...
+building data transferece methods...
+parseAgvId(packetReceived)
+parseAgvState(packetReceived)
}

Class "TcpServerAGVManagerThread"{

}

Class "OrderRepository"{
+findOrdersByStateAndDateDescending(orderState)
+save()
}



"TcpClientAGVDigitalTwinThread"  - ->  "TcpClientAGVDigitalTwin" 

"TcpServerAGVManager"  - ->  "TcpServerAGVManagerThread" 

"TcpClientAGVDigitalTwinThread" - -> "TcpServerAGVManagerThread"

"TcpServerAGVManagerThread" - -> "OrderRepository"
@enduml

PlantUML version 1.2022.6beta4(Unknown compile time)
(GPL source distribution)
Java Runtime: Java(TM) SE Runtime Environment
JVM: Java HotSpot(TM) 64-Bit Server VM
Default Encoding: UTF-8
Language: en
Country: US
--></g></svg>