<?xml version="1.0" encoding="UTF-8" standalone="no"?><svg xmlns="http://www.w3.org/2000/svg" xmlns:xlink="http://www.w3.org/1999/xlink" contentScriptType="application/ecmascript" contentStyleType="text/css" height="944px" preserveAspectRatio="none" style="width:471px;height:944px;" version="1.1" viewBox="0 0 471 944" width="471px" zoomAndPan="magnify">
    <defs>
        <filter height="300%" id="f1if4j4f3z4sdv" width="300%" x="-1" y="-1">
            <feGaussianBlur result="blurOut" stdDeviation="2.0" />
            <feColorMatrix in="blurOut" result="blurOut2" type="matrix" values="0 0 0 0 0 0 0 0 0 0 0 0 0 0 0 0 0 0 .4 0" />
            <feOffset dx="4.0" dy="4.0" in="blurOut2" result="blurOut3" />
            <feBlend in="SourceGraphic" in2="blurOut3" mode="normal" />
        </filter>
    </defs>
    <g>
        <!--class UI-->
        <rect fill="#FEFECE" filter="url(#f1if4j4f3z4sdv)" height="61.8359" id="UI" style="stroke: #A80036; stroke-width: 1.5;" width="202" x="123.5" y="8" />
        <ellipse cx="138.5" cy="24" fill="#ADD1B2" rx="11" ry="11" style="stroke: #A80036; stroke-width: 1.0;" />
        <path d="M141.2656,19.875 Q141.4219,19.6563 141.6094,19.5469 Q141.7969,19.4375 142.0156,19.4375 Q142.3906,19.4375 142.625,19.6953 Q142.8594,19.9531 142.8594,20.5625 L142.8594,22.0156 Q142.8594,22.625 142.625,22.8906 Q142.3906,23.1563 142.0156,23.1563 Q141.6719,23.1563 141.4688,22.9531 Q141.2656,22.7656 141.1563,22.25 Q141.1094,21.8906 140.9219,21.7031 Q140.5938,21.3281 139.9844,21.1094 Q139.375,20.8906 138.75,20.8906 Q137.9844,20.8906 137.3516,21.2188 Q136.7188,21.5469 136.2266,22.2969 Q135.7344,23.0469 135.7344,24.0781 L135.7344,25.1719 Q135.7344,26.4063 136.625,27.2266 Q137.5156,28.0469 139.1094,28.0469 Q140.0469,28.0469 140.7031,27.7969 Q141.0938,27.6406 141.5156,27.2031 Q141.7813,26.9375 141.9297,26.8594 Q142.0781,26.7813 142.2813,26.7813 Q142.6094,26.7813 142.8672,27.0391 Q143.125,27.2969 143.125,27.6406 Q143.125,27.9844 142.7813,28.3906 Q142.2813,28.9688 141.4844,29.2969 Q140.4063,29.75 139.1094,29.75 Q137.5938,29.75 136.3906,29.125 Q135.4063,28.625 134.7188,27.5547 Q134.0313,26.4844 134.0313,25.2031 L134.0313,24.0469 Q134.0313,22.7188 134.6484,21.5703 Q135.2656,20.4219 136.3594,19.8047 Q137.4531,19.1875 138.6875,19.1875 Q139.4219,19.1875 140.0703,19.3516 Q140.7188,19.5156 141.2656,19.875 Z " /><text fill="#000000" font-family="sans-serif" font-size="12" lengthAdjust="spacingAndGlyphs" textLength="170" x="152.5" y="28.9102">CheckCustomerOpenOrdersUI</text>
        <line style="stroke: #A80036; stroke-width: 1.5;" x1="124.5" x2="324.5" y1="40" y2="40" />
        <line style="stroke: #A80036; stroke-width: 1.5;" x1="124.5" x2="324.5" y1="48" y2="48" /><text fill="#000000" font-family="sans-serif" font-size="11" lengthAdjust="spacingAndGlyphs" textLength="30" x="129.5" y="63.4189">+run()</text>
        <!--class CTRL-->
        <rect fill="#FEFECE" filter="url(#f1if4j4f3z4sdv)" height="89.5078" id="CTRL" style="stroke: #A80036; stroke-width: 1.5;" width="352" x="48.5" y="131" />
        <ellipse cx="114.25" cy="147" fill="#ADD1B2" rx="11" ry="11" style="stroke: #A80036; stroke-width: 1.0;" />
        <path d="M117.0156,142.875 Q117.1719,142.6563 117.3594,142.5469 Q117.5469,142.4375 117.7656,142.4375 Q118.1406,142.4375 118.375,142.6953 Q118.6094,142.9531 118.6094,143.5625 L118.6094,145.0156 Q118.6094,145.625 118.375,145.8906 Q118.1406,146.1563 117.7656,146.1563 Q117.4219,146.1563 117.2188,145.9531 Q117.0156,145.7656 116.9063,145.25 Q116.8594,144.8906 116.6719,144.7031 Q116.3438,144.3281 115.7344,144.1094 Q115.125,143.8906 114.5,143.8906 Q113.7344,143.8906 113.1016,144.2188 Q112.4688,144.5469 111.9766,145.2969 Q111.4844,146.0469 111.4844,147.0781 L111.4844,148.1719 Q111.4844,149.4063 112.375,150.2266 Q113.2656,151.0469 114.8594,151.0469 Q115.7969,151.0469 116.4531,150.7969 Q116.8438,150.6406 117.2656,150.2031 Q117.5313,149.9375 117.6797,149.8594 Q117.8281,149.7813 118.0313,149.7813 Q118.3594,149.7813 118.6172,150.0391 Q118.875,150.2969 118.875,150.6406 Q118.875,150.9844 118.5313,151.3906 Q118.0313,151.9688 117.2344,152.2969 Q116.1563,152.75 114.8594,152.75 Q113.3438,152.75 112.1406,152.125 Q111.1563,151.625 110.4688,150.5547 Q109.7813,149.4844 109.7813,148.2031 L109.7813,147.0469 Q109.7813,145.7188 110.3984,144.5703 Q111.0156,143.4219 112.1094,142.8047 Q113.2031,142.1875 114.4375,142.1875 Q115.1719,142.1875 115.8203,142.3516 Q116.4688,142.5156 117.0156,142.875 Z " /><text fill="#000000" font-family="sans-serif" font-size="12" lengthAdjust="spacingAndGlyphs" textLength="212" x="134.75" y="151.9102">CheckCustomerOpenOrdersController</text>
        <line style="stroke: #A80036; stroke-width: 1.5;" x1="49.5" x2="399.5" y1="163" y2="163" /><text fill="#000000" font-family="sans-serif" font-size="11" lengthAdjust="spacingAndGlyphs" textLength="109" x="54.5" y="178.4189">+getListProductOrders</text>
        <line style="stroke: #A80036; stroke-width: 1.5;" x1="49.5" x2="399.5" y1="184.8359" y2="184.8359" /><text fill="#000000" font-family="sans-serif" font-size="11" lengthAdjust="spacingAndGlyphs" textLength="92" x="54.5" y="200.2549">+getCustomerList()</text><text fill="#000000" font-family="sans-serif" font-size="11" lengthAdjust="spacingAndGlyphs" textLength="340" x="54.5" y="214.0908">+checkCustomerHasProductOrders(Customer,Iterable&lt;ProductOrder&gt;)</text>
        <!--class PCON-->
        <rect fill="#FEFECE" filter="url(#f1if4j4f3z4sdv)" height="89.5078" id="PCON" style="stroke: #A80036; stroke-width: 1.5;" width="160" x="144.5" y="299" />
        <ellipse cx="168.95" cy="315" fill="#ADD1B2" rx="11" ry="11" style="stroke: #A80036; stroke-width: 1.0;" />
        <path d="M171.7156,310.875 Q171.8719,310.6563 172.0594,310.5469 Q172.2469,310.4375 172.4656,310.4375 Q172.8406,310.4375 173.075,310.6953 Q173.3094,310.9531 173.3094,311.5625 L173.3094,313.0156 Q173.3094,313.625 173.075,313.8906 Q172.8406,314.1563 172.4656,314.1563 Q172.1219,314.1563 171.9188,313.9531 Q171.7156,313.7656 171.6063,313.25 Q171.5594,312.8906 171.3719,312.7031 Q171.0438,312.3281 170.4344,312.1094 Q169.825,311.8906 169.2,311.8906 Q168.4344,311.8906 167.8016,312.2188 Q167.1688,312.5469 166.6766,313.2969 Q166.1844,314.0469 166.1844,315.0781 L166.1844,316.1719 Q166.1844,317.4063 167.075,318.2266 Q167.9656,319.0469 169.5594,319.0469 Q170.4969,319.0469 171.1531,318.7969 Q171.5438,318.6406 171.9656,318.2031 Q172.2313,317.9375 172.3797,317.8594 Q172.5281,317.7813 172.7313,317.7813 Q173.0594,317.7813 173.3172,318.0391 Q173.575,318.2969 173.575,318.6406 Q173.575,318.9844 173.2313,319.3906 Q172.7313,319.9688 171.9344,320.2969 Q170.8563,320.75 169.5594,320.75 Q168.0438,320.75 166.8406,320.125 Q165.8563,319.625 165.1688,318.5547 Q164.4813,317.4844 164.4813,316.2031 L164.4813,315.0469 Q164.4813,313.7188 165.0984,312.5703 Q165.7156,311.4219 166.8094,310.8047 Q167.9031,310.1875 169.1375,310.1875 Q169.8719,310.1875 170.5203,310.3516 Q171.1688,310.5156 171.7156,310.875 Z " /><text fill="#000000" font-family="sans-serif" font-size="12" lengthAdjust="spacingAndGlyphs" textLength="107" x="185.05" y="319.9102">PersistenceContext</text>
        <line style="stroke: #A80036; stroke-width: 1.5;" x1="145.5" x2="303.5" y1="331" y2="331" /><text fill="#000000" font-family="sans-serif" font-size="11" lengthAdjust="spacingAndGlyphs" textLength="84" x="150.5" y="346.4189">-Logger LOGGER</text><text fill="#000000" font-family="sans-serif" font-size="11" lengthAdjust="spacingAndGlyphs" textLength="148" x="150.5" y="360.2549">-RepositoryFactory theFactory</text>
        <line style="stroke: #A80036; stroke-width: 1.5;" x1="145.5" x2="303.5" y1="366.6719" y2="366.6719" /><text fill="#000000" font-family="sans-serif" font-size="11" lengthAdjust="spacingAndGlyphs" textLength="71" x="150.5" y="382.0908">+repositories()</text>
        <!--class ORDER-->
        <rect fill="#FEFECE" filter="url(#f1if4j4f3z4sdv)" height="158.6875" id="ORDER" style="stroke: #A80036; stroke-width: 1.5;" width="141" x="6" y="775" />
        <ellipse cx="56.75" cy="791" fill="#ADD1B2" rx="11" ry="11" style="stroke: #A80036; stroke-width: 1.0;" />
        <path d="M59.5156,786.875 Q59.6719,786.6563 59.8594,786.5469 Q60.0469,786.4375 60.2656,786.4375 Q60.6406,786.4375 60.875,786.6953 Q61.1094,786.9531 61.1094,787.5625 L61.1094,789.0156 Q61.1094,789.625 60.875,789.8906 Q60.6406,790.1563 60.2656,790.1563 Q59.9219,790.1563 59.7188,789.9531 Q59.5156,789.7656 59.4063,789.25 Q59.3594,788.8906 59.1719,788.7031 Q58.8438,788.3281 58.2344,788.1094 Q57.625,787.8906 57,787.8906 Q56.2344,787.8906 55.6016,788.2188 Q54.9688,788.5469 54.4766,789.2969 Q53.9844,790.0469 53.9844,791.0781 L53.9844,792.1719 Q53.9844,793.4063 54.875,794.2266 Q55.7656,795.0469 57.3594,795.0469 Q58.2969,795.0469 58.9531,794.7969 Q59.3438,794.6406 59.7656,794.2031 Q60.0313,793.9375 60.1797,793.8594 Q60.3281,793.7813 60.5313,793.7813 Q60.8594,793.7813 61.1172,794.0391 Q61.375,794.2969 61.375,794.6406 Q61.375,794.9844 61.0313,795.3906 Q60.5313,795.9688 59.7344,796.2969 Q58.6563,796.75 57.3594,796.75 Q55.8438,796.75 54.6406,796.125 Q53.6563,795.625 52.9688,794.5547 Q52.2813,793.4844 52.2813,792.2031 L52.2813,791.0469 Q52.2813,789.7188 52.8984,788.5703 Q53.5156,787.4219 54.6094,786.8047 Q55.7031,786.1875 56.9375,786.1875 Q57.6719,786.1875 58.3203,786.3516 Q58.9688,786.5156 59.5156,786.875 Z " /><text fill="#000000" font-family="sans-serif" font-size="12" lengthAdjust="spacingAndGlyphs" textLength="31" x="77.25" y="795.9102">Order</text>
        <line style="stroke: #A80036; stroke-width: 1.5;" x1="7" x2="146" y1="807" y2="807" /><text fill="#000000" font-family="sans-serif" font-size="11" lengthAdjust="spacingAndGlyphs" textLength="26" x="12" y="822.4189">-int id</text><text fill="#000000" font-family="sans-serif" font-size="11" lengthAdjust="spacingAndGlyphs" textLength="50" x="12" y="836.2549">-Date date</text><text fill="#000000" font-family="sans-serif" font-size="11" lengthAdjust="spacingAndGlyphs" textLength="74" x="12" y="850.0908">-int customer id</text><text fill="#000000" font-family="sans-serif" font-size="11" lengthAdjust="spacingAndGlyphs" textLength="117" x="12" y="863.9268">-Address billingAddress</text><text fill="#000000" font-family="sans-serif" font-size="11" lengthAdjust="spacingAndGlyphs" textLength="129" x="12" y="877.7627">-Address deliveryAddress</text><text fill="#000000" font-family="sans-serif" font-size="11" lengthAdjust="spacingAndGlyphs" textLength="96" x="12" y="891.5986">-double totalAmount</text><text fill="#000000" font-family="sans-serif" font-size="11" lengthAdjust="spacingAndGlyphs" textLength="78" x="12" y="905.4346">-String payCode</text><text fill="#000000" font-family="sans-serif" font-size="11" lengthAdjust="spacingAndGlyphs" textLength="56" x="12" y="919.2705">-State state</text>
        <line style="stroke: #A80036; stroke-width: 1.5;" x1="7" x2="146" y1="925.6875" y2="925.6875" />
        <!--class ORDERREPO-->
        <rect fill="#FEFECE" filter="url(#f1if4j4f3z4sdv)" height="48" id="ORDERREPO" style="stroke: #A80036; stroke-width: 1.5;" width="122" x="74.5" y="642" />
        <ellipse cx="89.5" cy="658" fill="#ADD1B2" rx="11" ry="11" style="stroke: #A80036; stroke-width: 1.0;" />
        <path d="M92.2656,653.875 Q92.4219,653.6563 92.6094,653.5469 Q92.7969,653.4375 93.0156,653.4375 Q93.3906,653.4375 93.625,653.6953 Q93.8594,653.9531 93.8594,654.5625 L93.8594,656.0156 Q93.8594,656.625 93.625,656.8906 Q93.3906,657.1563 93.0156,657.1563 Q92.6719,657.1563 92.4688,656.9531 Q92.2656,656.7656 92.1563,656.25 Q92.1094,655.8906 91.9219,655.7031 Q91.5938,655.3281 90.9844,655.1094 Q90.375,654.8906 89.75,654.8906 Q88.9844,654.8906 88.3516,655.2188 Q87.7188,655.5469 87.2266,656.2969 Q86.7344,657.0469 86.7344,658.0781 L86.7344,659.1719 Q86.7344,660.4063 87.625,661.2266 Q88.5156,662.0469 90.1094,662.0469 Q91.0469,662.0469 91.7031,661.7969 Q92.0938,661.6406 92.5156,661.2031 Q92.7813,660.9375 92.9297,660.8594 Q93.0781,660.7813 93.2813,660.7813 Q93.6094,660.7813 93.8672,661.0391 Q94.125,661.2969 94.125,661.6406 Q94.125,661.9844 93.7813,662.3906 Q93.2813,662.9688 92.4844,663.2969 Q91.4063,663.75 90.1094,663.75 Q88.5938,663.75 87.3906,663.125 Q86.4063,662.625 85.7188,661.5547 Q85.0313,660.4844 85.0313,659.2031 L85.0313,658.0469 Q85.0313,656.7188 85.6484,655.5703 Q86.2656,654.4219 87.3594,653.8047 Q88.4531,653.1875 89.6875,653.1875 Q90.4219,653.1875 91.0703,653.3516 Q91.7188,653.5156 92.2656,653.875 Z " /><text fill="#000000" font-family="sans-serif" font-size="12" lengthAdjust="spacingAndGlyphs" textLength="90" x="103.5" y="662.9102">OrderRepository</text>
        <line style="stroke: #A80036; stroke-width: 1.5;" x1="75.5" x2="195.5" y1="674" y2="674" />
        <line style="stroke: #A80036; stroke-width: 1.5;" x1="75.5" x2="195.5" y1="682" y2="682" />
        <!--class CUST-->
        <rect fill="#FEFECE" filter="url(#f1if4j4f3z4sdv)" height="117.1797" id="CUST" style="stroke: #A80036; stroke-width: 1.5;" width="156" x="237.5" y="796" />
        <ellipse cx="283.75" cy="812" fill="#ADD1B2" rx="11" ry="11" style="stroke: #A80036; stroke-width: 1.0;" />
        <path d="M286.5156,807.875 Q286.6719,807.6563 286.8594,807.5469 Q287.0469,807.4375 287.2656,807.4375 Q287.6406,807.4375 287.875,807.6953 Q288.1094,807.9531 288.1094,808.5625 L288.1094,810.0156 Q288.1094,810.625 287.875,810.8906 Q287.6406,811.1563 287.2656,811.1563 Q286.9219,811.1563 286.7188,810.9531 Q286.5156,810.7656 286.4063,810.25 Q286.3594,809.8906 286.1719,809.7031 Q285.8438,809.3281 285.2344,809.1094 Q284.625,808.8906 284,808.8906 Q283.2344,808.8906 282.6016,809.2188 Q281.9688,809.5469 281.4766,810.2969 Q280.9844,811.0469 280.9844,812.0781 L280.9844,813.1719 Q280.9844,814.4063 281.875,815.2266 Q282.7656,816.0469 284.3594,816.0469 Q285.2969,816.0469 285.9531,815.7969 Q286.3438,815.6406 286.7656,815.2031 Q287.0313,814.9375 287.1797,814.8594 Q287.3281,814.7813 287.5313,814.7813 Q287.8594,814.7813 288.1172,815.0391 Q288.375,815.2969 288.375,815.6406 Q288.375,815.9844 288.0313,816.3906 Q287.5313,816.9688 286.7344,817.2969 Q285.6563,817.75 284.3594,817.75 Q282.8438,817.75 281.6406,817.125 Q280.6563,816.625 279.9688,815.5547 Q279.2813,814.4844 279.2813,813.2031 L279.2813,812.0469 Q279.2813,810.7188 279.8984,809.5703 Q280.5156,808.4219 281.6094,807.8047 Q282.7031,807.1875 283.9375,807.1875 Q284.6719,807.1875 285.3203,807.3516 Q285.9688,807.5156 286.5156,807.875 Z " /><text fill="#000000" font-family="sans-serif" font-size="12" lengthAdjust="spacingAndGlyphs" textLength="55" x="304.25" y="816.9102">Customer</text>
        <line style="stroke: #A80036; stroke-width: 1.5;" x1="238.5" x2="392.5" y1="828" y2="828" /><text fill="#000000" font-family="sans-serif" font-size="11" lengthAdjust="spacingAndGlyphs" textLength="63" x="243.5" y="843.4189">-Name name;</text><text fill="#000000" font-family="sans-serif" font-size="11" lengthAdjust="spacingAndGlyphs" textLength="42" x="243.5" y="857.2549">-Vat vat;</text><text fill="#000000" font-family="sans-serif" font-size="11" lengthAdjust="spacingAndGlyphs" textLength="87" x="243.5" y="871.0908">-Date dateOfBirth;</text><text fill="#000000" font-family="sans-serif" font-size="11" lengthAdjust="spacingAndGlyphs" textLength="144" x="243.5" y="884.9268">-PhoneNumber phoneNumber;</text><text fill="#000000" font-family="sans-serif" font-size="11" lengthAdjust="spacingAndGlyphs" textLength="92" x="243.5" y="898.7627">-Address address;</text>
        <line style="stroke: #A80036; stroke-width: 1.5;" x1="238.5" x2="392.5" y1="905.1797" y2="905.1797" />
        <!--class CUSTREPO-->
        <rect fill="#FEFECE" filter="url(#f1if4j4f3z4sdv)" height="61.8359" id="CUSTREPO" style="stroke: #A80036; stroke-width: 1.5;" width="146" x="231.5" y="635" />
        <ellipse cx="246.5" cy="651" fill="#ADD1B2" rx="11" ry="11" style="stroke: #A80036; stroke-width: 1.0;" />
        <path d="M249.2656,646.875 Q249.4219,646.6563 249.6094,646.5469 Q249.7969,646.4375 250.0156,646.4375 Q250.3906,646.4375 250.625,646.6953 Q250.8594,646.9531 250.8594,647.5625 L250.8594,649.0156 Q250.8594,649.625 250.625,649.8906 Q250.3906,650.1563 250.0156,650.1563 Q249.6719,650.1563 249.4688,649.9531 Q249.2656,649.7656 249.1563,649.25 Q249.1094,648.8906 248.9219,648.7031 Q248.5938,648.3281 247.9844,648.1094 Q247.375,647.8906 246.75,647.8906 Q245.9844,647.8906 245.3516,648.2188 Q244.7188,648.5469 244.2266,649.2969 Q243.7344,650.0469 243.7344,651.0781 L243.7344,652.1719 Q243.7344,653.4063 244.625,654.2266 Q245.5156,655.0469 247.1094,655.0469 Q248.0469,655.0469 248.7031,654.7969 Q249.0938,654.6406 249.5156,654.2031 Q249.7813,653.9375 249.9297,653.8594 Q250.0781,653.7813 250.2813,653.7813 Q250.6094,653.7813 250.8672,654.0391 Q251.125,654.2969 251.125,654.6406 Q251.125,654.9844 250.7813,655.3906 Q250.2813,655.9688 249.4844,656.2969 Q248.4063,656.75 247.1094,656.75 Q245.5938,656.75 244.3906,656.125 Q243.4063,655.625 242.7188,654.5547 Q242.0313,653.4844 242.0313,652.2031 L242.0313,651.0469 Q242.0313,649.7188 242.6484,648.5703 Q243.2656,647.4219 244.3594,646.8047 Q245.4531,646.1875 246.6875,646.1875 Q247.4219,646.1875 248.0703,646.3516 Q248.7188,646.5156 249.2656,646.875 Z " /><text fill="#000000" font-family="sans-serif" font-size="12" lengthAdjust="spacingAndGlyphs" textLength="114" x="260.5" y="655.9102">CustomerRepository</text>
        <line style="stroke: #A80036; stroke-width: 1.5;" x1="232.5" x2="376.5" y1="667" y2="667" />
        <line style="stroke: #A80036; stroke-width: 1.5;" x1="232.5" x2="376.5" y1="675" y2="675" /><text fill="#000000" font-family="sans-serif" font-size="11" lengthAdjust="spacingAndGlyphs" textLength="92" x="237.5" y="690.4189">+getCustomerList()</text>
        <!--class REPOFAC-->
        <rect fill="#FEFECE" filter="url(#f1if4j4f3z4sdv)" height="89.5078" id="REPOFAC" style="stroke: #A80036; stroke-width: 1.5;" width="130" x="159.5" y="467" />
        <ellipse cx="174.5" cy="483" fill="#ADD1B2" rx="11" ry="11" style="stroke: #A80036; stroke-width: 1.0;" />
        <path d="M177.2656,478.875 Q177.4219,478.6563 177.6094,478.5469 Q177.7969,478.4375 178.0156,478.4375 Q178.3906,478.4375 178.625,478.6953 Q178.8594,478.9531 178.8594,479.5625 L178.8594,481.0156 Q178.8594,481.625 178.625,481.8906 Q178.3906,482.1563 178.0156,482.1563 Q177.6719,482.1563 177.4688,481.9531 Q177.2656,481.7656 177.1563,481.25 Q177.1094,480.8906 176.9219,480.7031 Q176.5938,480.3281 175.9844,480.1094 Q175.375,479.8906 174.75,479.8906 Q173.9844,479.8906 173.3516,480.2188 Q172.7188,480.5469 172.2266,481.2969 Q171.7344,482.0469 171.7344,483.0781 L171.7344,484.1719 Q171.7344,485.4063 172.625,486.2266 Q173.5156,487.0469 175.1094,487.0469 Q176.0469,487.0469 176.7031,486.7969 Q177.0938,486.6406 177.5156,486.2031 Q177.7813,485.9375 177.9297,485.8594 Q178.0781,485.7813 178.2813,485.7813 Q178.6094,485.7813 178.8672,486.0391 Q179.125,486.2969 179.125,486.6406 Q179.125,486.9844 178.7813,487.3906 Q178.2813,487.9688 177.4844,488.2969 Q176.4063,488.75 175.1094,488.75 Q173.5938,488.75 172.3906,488.125 Q171.4063,487.625 170.7188,486.5547 Q170.0313,485.4844 170.0313,484.2031 L170.0313,483.0469 Q170.0313,481.7188 170.6484,480.5703 Q171.2656,479.4219 172.3594,478.8047 Q173.4531,478.1875 174.6875,478.1875 Q175.4219,478.1875 176.0703,478.3516 Q176.7188,478.5156 177.2656,478.875 Z " /><text fill="#000000" font-family="sans-serif" font-size="12" lengthAdjust="spacingAndGlyphs" textLength="98" x="188.5" y="487.9102">RepositoryFactory</text>
        <line style="stroke: #A80036; stroke-width: 1.5;" x1="160.5" x2="288.5" y1="499" y2="499" />
        <line style="stroke: #A80036; stroke-width: 1.5;" x1="160.5" x2="288.5" y1="507" y2="507" /><text fill="#000000" font-family="sans-serif" font-size="11" lengthAdjust="spacingAndGlyphs" textLength="100" x="165.5" y="522.4189">+getCustomerRepo()</text><text fill="#000000" font-family="sans-serif" font-size="11" lengthAdjust="spacingAndGlyphs" textLength="82" x="165.5" y="536.2549">+getOrderRepo()</text><text fill="#000000" font-family="sans-serif" font-size="11" lengthAdjust="spacingAndGlyphs" textLength="91" x="165.5" y="550.0908">+getProductRepo()</text>
        <!--link UI to CTRL-->
        <path d="M224.5,70.297 C224.5,86.64 224.5,107.215 224.5,125.791 " fill="none" id="UI-CTRL" style="stroke: #A80036; stroke-width: 1.0; stroke-dasharray: 7.0,7.0;" />
        <polygon fill="#A80036" points="224.5,130.973,228.5,121.973,224.5,125.973,220.5,121.973,224.5,130.973" style="stroke: #A80036; stroke-width: 1.0;" />
        <!--link CTRL to PCON-->
        <path d="M224.5,221.049 C224.5,243.374 224.5,270.56 224.5,293.594 " fill="none" id="CTRL-PCON" style="stroke: #A80036; stroke-width: 1.0;" />
        <polygon fill="#A80036" points="224.5,298.745,228.5,289.745,224.5,293.745,220.5,289.745,224.5,298.745" style="stroke: #A80036; stroke-width: 1.0;" /><text fill="#000000" font-family="sans-serif" font-size="13" lengthAdjust="spacingAndGlyphs" textLength="28" x="225.5" y="265.4951">uses</text><text fill="#000000" font-family="sans-serif" font-size="13" lengthAdjust="spacingAndGlyphs" textLength="7" x="217.0078" y="242.0635">1</text><text fill="#000000" font-family="sans-serif" font-size="13" lengthAdjust="spacingAndGlyphs" textLength="7" x="216.9641" y="288.15">1</text>
        <!--link CTRL to CUST-->
        <path d="M337.144,221.105 C385.236,247.964 430.5,287.883 430.5,343 C430.5,343 430.5,343 430.5,667 C430.5,713.423 404.365,757.968 377.014,791.876 " fill="none" id="CTRL-CUST" style="stroke: #A80036; stroke-width: 1.0;" />
        <polygon fill="#A80036" points="373.674,795.958,382.4685,791.5245,376.8398,792.0879,376.2764,786.4592,373.674,795.958" style="stroke: #A80036; stroke-width: 1.0;" /><text fill="#000000" font-family="sans-serif" font-size="13" lengthAdjust="spacingAndGlyphs" textLength="28" x="431.5" y="517.4951">uses</text><text fill="#000000" font-family="sans-serif" font-size="13" lengthAdjust="spacingAndGlyphs" textLength="7" x="345.4924" y="242.1273">1</text>
        <!--link CTRL to ORDER-->
        <path d="M114.386,221.012 C66.6638,247.981 21.5,288.027 21.5,343 C21.5,343 21.5,343 21.5,667 C21.5,701.446 30.2384,738.063 40.749,769.647 " fill="none" id="CTRL-ORDER" style="stroke: #A80036; stroke-width: 1.0;" />
        <polygon fill="#A80036" points="42.45,774.672,43.3537,764.8647,40.8471,769.9359,35.7759,767.4293,42.45,774.672" style="stroke: #A80036; stroke-width: 1.0;" /><text fill="#000000" font-family="sans-serif" font-size="13" lengthAdjust="spacingAndGlyphs" textLength="28" x="22.5" y="517.4951">uses</text><text fill="#000000" font-family="sans-serif" font-size="13" lengthAdjust="spacingAndGlyphs" textLength="7" x="91.409" y="242.0213">1</text>
        <!--link PCON to REPOFAC-->
        <path d="M224.5,389.049 C224.5,411.374 224.5,438.56 224.5,461.594 " fill="none" id="PCON-REPOFAC" style="stroke: #A80036; stroke-width: 1.0;" />
        <polygon fill="#A80036" points="224.5,466.745,228.5,457.745,224.5,461.745,220.5,457.745,224.5,466.745" style="stroke: #A80036; stroke-width: 1.0;" /><text fill="#000000" font-family="sans-serif" font-size="13" lengthAdjust="spacingAndGlyphs" textLength="43" x="225.5" y="433.4951">creates</text><text fill="#000000" font-family="sans-serif" font-size="13" lengthAdjust="spacingAndGlyphs" textLength="7" x="217.0078" y="410.0635">1</text><text fill="#000000" font-family="sans-serif" font-size="13" lengthAdjust="spacingAndGlyphs" textLength="7" x="216.9641" y="456.15">1</text>
        <!--link REPOFAC to CUSTREPO-->
        <path d="M247.854,557.373 C260.082,580.607 274.837,608.64 286.221,630.271 " fill="none" id="REPOFAC-CUSTREPO" style="stroke: #A80036; stroke-width: 1.0;" />
        <polygon fill="#A80036" points="288.597,634.785,287.9425,624.9579,286.2671,630.361,280.8641,628.6857,288.597,634.785" style="stroke: #A80036; stroke-width: 1.0;" /><text fill="#000000" font-family="sans-serif" font-size="13" lengthAdjust="spacingAndGlyphs" textLength="36" x="273.5" y="601.4951">stores</text><text fill="#000000" font-family="sans-serif" font-size="13" lengthAdjust="spacingAndGlyphs" textLength="7" x="243.5219" y="578.0968">1</text><text fill="#000000" font-family="sans-serif" font-size="13" lengthAdjust="spacingAndGlyphs" textLength="7" x="277.5951" y="624.2452">1</text>
        <!--link REPOFAC to ORDERREPO-->
        <path d="M198.518,557.373 C183.318,583.333 164.61,615.284 151.542,637.602 " fill="none" id="REPOFAC-ORDERREPO" style="stroke: #A80036; stroke-width: 1.0;" />
        <polygon fill="#A80036" points="149.007,641.933,157.0074,636.1889,151.5342,637.6187,150.1044,632.1455,149.007,641.933" style="stroke: #A80036; stroke-width: 1.0;" /><text fill="#000000" font-family="sans-serif" font-size="13" lengthAdjust="spacingAndGlyphs" textLength="36" x="181.5" y="601.4951">stores</text><text fill="#000000" font-family="sans-serif" font-size="13" lengthAdjust="spacingAndGlyphs" textLength="7" x="187.5564" y="578.0968">1</text><text fill="#000000" font-family="sans-serif" font-size="13" lengthAdjust="spacingAndGlyphs" textLength="7" x="144.5713" y="631.256">1</text>
        <!--link ORDERREPO to ORDER-->
        <path d="M128.147,690.243 C121.781,710.366 112.173,740.738 102.9633,769.849 " fill="none" id="ORDERREPO-ORDER" style="stroke: #A80036; stroke-width: 1.0;" />
        <polygon fill="#A80036" points="101.3697,774.887,107.8966,767.5114,102.8769,770.1196,100.2688,765.0999,101.3697,774.887" style="stroke: #A80036; stroke-width: 1.0;" /><text fill="#000000" font-family="sans-serif" font-size="13" lengthAdjust="spacingAndGlyphs" textLength="36" x="117.5" y="741.4951">stores</text><text fill="#000000" font-family="sans-serif" font-size="13" lengthAdjust="spacingAndGlyphs" textLength="7" x="118.5016" y="711.6402">1</text><text fill="#000000" font-family="sans-serif" font-size="13" lengthAdjust="spacingAndGlyphs" textLength="5" x="98.5018" y="764.0631">*</text>
        <!--link CUSTREPO to CUST-->
        <path d="M306.292,697.38 C307.777,722.559 309.937,759.187 311.792,790.637 " fill="none" id="CUSTREPO-CUST" style="stroke: #A80036; stroke-width: 1.0;" />
        <polygon fill="#A80036" points="312.087,795.637,315.5504,786.4172,311.7927,790.6457,307.5642,786.888,312.087,795.637" style="stroke: #A80036; stroke-width: 1.0;" /><text fill="#000000" font-family="sans-serif" font-size="13" lengthAdjust="spacingAndGlyphs" textLength="36" x="310.5" y="741.4951">stores</text><text fill="#000000" font-family="sans-serif" font-size="13" lengthAdjust="spacingAndGlyphs" textLength="7" x="298.9664" y="718.4311">1</text><text fill="#000000" font-family="sans-serif" font-size="13" lengthAdjust="spacingAndGlyphs" textLength="5" x="306.3664" y="784.9937">*</text>
        <!--
@startuml
skinparam classAttributeIconSize 0

class "CheckCustomerOpenOrdersUI" as UI {
  +run()
}

class "CheckCustomerOpenOrdersController" as CTRL {
  +getCustomerList()
  +getListProductOrders
  +checkCustomerHasProductOrders(Customer,Iterable<ProductOrder>)
}

class "PersistenceContext" as PCON {
  -Logger LOGGER
  -RepositoryFactory theFactory
  +repositories()
}

class "Order" as ORDER {
  -int id
  -Date date
  -int customer id
  -Address billingAddress
  -Address deliveryAddress
  -double totalAmount
  -String payCode
  -State state
}

class "OrderRepository" as ORDERREPO {

}

class "Customer" as CUST {
  -Name name;
  -Vat vat;
  -Date dateOfBirth;
  -PhoneNumber phoneNumber;
  -Address address;
}

class "CustomerRepository" as CUSTREPO {
  +getCustomerList()
}


class "RepositoryFactory" as REPOFAC {
  +getCustomerRepo()
  +getOrderRepo()
  +getProductRepo()

}




UI ..> CTRL

CTRL "1" - -> "1" PCON : uses
CTRL "1" - -> CUST : uses
CTRL "1" - -> ORDER : uses

PCON "1" - -> "1" REPOFAC : creates

REPOFAC "1" - -> "1" CUSTREPO : stores
REPOFAC "1" - -> "1" ORDERREPO : stores

ORDERREPO "1" - -> "*" ORDER : stores
CUSTREPO "1" - -> "*" CUST : stores







@enduml

PlantUML version 1.2018.14(Fri Dec 21 16:33:16 GMT 2018)
(GPL source distribution)
Java Runtime: Java(TM) SE Runtime Environment
JVM: Java HotSpot(TM) 64-Bit Server VM
Java Version: 1.8.0_321-b07
Operating System: Windows 10
OS Version: 10.0
Default Encoding: Cp1252
Language: pt
Country: PT
-->
    </g>
</svg>