<?xml version="1.0" encoding="UTF-8" standalone="no"?><svg xmlns="http://www.w3.org/2000/svg" xmlns:xlink="http://www.w3.org/1999/xlink" contentStyleType="text/css" height="1382px" preserveAspectRatio="none" style="width:803px;height:1382px;background:#FFFFFF;" version="1.1" viewBox="0 0 803 1382" width="803px" zoomAndPan="magnify"><defs/><g><!--MD5=[6d811b8a6b2f63a89036cefdc23987ec]
class WarehouseUI--><g id="elem_WarehouseUI"><rect codeLine="3" fill="#F1F1F1" height="48" id="WarehouseUI" rx="2.5" ry="2.5" style="stroke:#181818;stroke-width:0.5;" width="117" x="462.5" y="7"/><ellipse cx="477.5" cy="23" fill="#ADD1B2" rx="11" ry="11" style="stroke:#181818;stroke-width:1.0;"/><path d="M479.5,19.5 Q479.7031,19 479.9375,18.75 Q480.1719,18.5 480.4375,18.5 Q480.9063,18.5 481.2031,18.7813 Q481.5,19.0625 481.5,19.7188 L481.5,21.2813 Q481.5,21.9375 481.2188,22.2188 Q480.9375,22.5 480.5,22.5 Q480.1094,22.5 479.8594,22.3281 Q479.6094,22.1563 479.5,21.7031 Q479.4531,21.3906 479.2813,21.2188 Q478.9688,20.8906 478.4063,20.7031 Q477.8438,20.5 477.2813,20.5 Q476.5781,20.5 475.9844,20.7813 Q475.4063,21.0625 474.9531,21.6875 Q474.5,22.3125 474.5,23.1719 L474.5,24.0938 Q474.5,25.125 475.3438,25.8125 Q476.1875,26.5 477.6875,26.5 Q478.5781,26.5 479.2031,26.2969 Q479.5625,26.1875 479.9688,25.8281 Q480.2344,25.625 480.375,25.5625 Q480.5156,25.5 480.6875,25.5 Q481.0156,25.5 481.25,25.7656 Q481.5,26.0156 481.5,26.375 Q481.5,26.7188 481.1563,27.125 Q480.6563,27.7188 479.8594,28.0469 Q478.8125,28.5 477.5313,28.5 Q476.0313,28.5 474.8281,27.9063 Q473.8594,27.4375 473.1719,26.4219 Q472.5,25.4063 472.5,24.2031 L472.5,23.1094 Q472.5,21.8594 473.0938,20.7656 Q473.7031,19.6719 474.75,19.0938 Q475.8125,18.5 477,18.5 Q477.7188,18.5 478.3438,18.75 Q478.9688,19 479.5,19.5 Z " fill="#000000"/><text fill="#000000" font-family="sans-serif" font-size="14" lengthAdjust="spacing" textLength="85" x="491.5" y="28.7285">WarehouseUI</text><line style="stroke:#181818;stroke-width:0.5;" x1="463.5" x2="578.5" y1="39" y2="39"/><line style="stroke:#181818;stroke-width:0.5;" x1="463.5" x2="578.5" y1="47" y2="47"/></g><!--MD5=[c14f785e02de9107198a00677a841b02]
class WarehouseController--><g id="elem_WarehouseController"><rect codeLine="6" fill="#F1F1F1" height="224.0938" id="WarehouseController" rx="2.5" ry="2.5" style="stroke:#181818;stroke-width:0.5;" width="202" x="420" y="116"/><ellipse cx="450.75" cy="132" fill="#ADD1B2" rx="11" ry="11" style="stroke:#181818;stroke-width:1.0;"/><path d="M452.75,128.5 Q452.9531,128 453.1875,127.75 Q453.4219,127.5 453.6875,127.5 Q454.1563,127.5 454.4531,127.7813 Q454.75,128.0625 454.75,128.7188 L454.75,130.2813 Q454.75,130.9375 454.4688,131.2188 Q454.1875,131.5 453.75,131.5 Q453.3594,131.5 453.1094,131.3281 Q452.8594,131.1563 452.75,130.7031 Q452.7031,130.3906 452.5313,130.2188 Q452.2188,129.8906 451.6563,129.7031 Q451.0938,129.5 450.5313,129.5 Q449.8281,129.5 449.2344,129.7813 Q448.6563,130.0625 448.2031,130.6875 Q447.75,131.3125 447.75,132.1719 L447.75,133.0938 Q447.75,134.125 448.5938,134.8125 Q449.4375,135.5 450.9375,135.5 Q451.8281,135.5 452.4531,135.2969 Q452.8125,135.1875 453.2188,134.8281 Q453.4844,134.625 453.625,134.5625 Q453.7656,134.5 453.9375,134.5 Q454.2656,134.5 454.5,134.7656 Q454.75,135.0156 454.75,135.375 Q454.75,135.7188 454.4063,136.125 Q453.9063,136.7188 453.1094,137.0469 Q452.0625,137.5 450.7813,137.5 Q449.2813,137.5 448.0781,136.9063 Q447.1094,136.4375 446.4219,135.4219 Q445.75,134.4063 445.75,133.2031 L445.75,132.1094 Q445.75,130.8594 446.3438,129.7656 Q446.9531,128.6719 448,128.0938 Q449.0625,127.5 450.25,127.5 Q450.9688,127.5 451.5938,127.75 Q452.2188,128 452.75,128.5 Z " fill="#000000"/><text fill="#000000" font-family="sans-serif" font-size="14" lengthAdjust="spacing" textLength="135" x="468.25" y="137.7285">WarehouseController</text><line style="stroke:#181818;stroke-width:0.5;" x1="421" x2="621" y1="148" y2="148"/><line style="stroke:#181818;stroke-width:0.5;" x1="421" x2="621" y1="156" y2="156"/><text fill="#000000" font-family="sans-serif" font-size="14" lengthAdjust="spacing" textLength="175" x="426" y="174.5332">+buildWarehouse(fileName)</text><text fill="#000000" font-family="sans-serif" font-size="14" lengthAdjust="spacing" textLength="190" x="426" y="192.1426">+saveWarehouse(warehouse)</text><text fill="#000000" font-family="sans-serif" font-size="14" lengthAdjust="spacing" textLength="185" x="426" y="209.752">+deletePreviousWarehouse()</text><text fill="#000000" font-family="sans-serif" font-size="14" lengthAdjust="spacing" textLength="137" x="426" y="227.3613">+alreadyInDatabase()</text><text fill="#000000" font-family="sans-serif" font-size="14" lengthAdjust="spacing" textLength="114" x="426" y="244.9707">+findWarehouse()</text><text fill="#000000" font-family="sans-serif" font-size="14" lengthAdjust="spacing" textLength="98" x="426" y="262.5801">+buildShelves()</text><text fill="#000000" font-family="sans-serif" font-size="14" lengthAdjust="spacing" textLength="4" x="426" y="280.1895"> </text><text fill="#000000" font-family="sans-serif" font-size="14" lengthAdjust="spacing" textLength="92" x="426" y="297.7988">+repositories()</text><text fill="#000000" font-family="sans-serif" font-size="14" lengthAdjust="spacing" textLength="94" x="426" y="315.4082">+warehouses()</text><text fill="#000000" font-family="sans-serif" font-size="14" lengthAdjust="spacing" textLength="121" x="426" y="333.0176">+saveWarehouse()</text></g><!--MD5=[c5149b4909ffd2688ff51a939867f774]
class Warehouse--><g id="elem_Warehouse"><rect codeLine="22" fill="#F1F1F1" height="188.875" id="Warehouse" rx="2.5" ry="2.5" style="stroke:#181818;stroke-width:0.5;" width="157" x="390.5" y="597"/><ellipse cx="428.9" cy="613" fill="#ADD1B2" rx="11" ry="11" style="stroke:#181818;stroke-width:1.0;"/><path d="M430.9,609.5 Q431.1031,609 431.3375,608.75 Q431.5719,608.5 431.8375,608.5 Q432.3063,608.5 432.6031,608.7813 Q432.9,609.0625 432.9,609.7188 L432.9,611.2813 Q432.9,611.9375 432.6188,612.2188 Q432.3375,612.5 431.9,612.5 Q431.5094,612.5 431.2594,612.3281 Q431.0094,612.1563 430.9,611.7031 Q430.8531,611.3906 430.6813,611.2188 Q430.3688,610.8906 429.8063,610.7031 Q429.2438,610.5 428.6813,610.5 Q427.9781,610.5 427.3844,610.7813 Q426.8063,611.0625 426.3531,611.6875 Q425.9,612.3125 425.9,613.1719 L425.9,614.0938 Q425.9,615.125 426.7438,615.8125 Q427.5875,616.5 429.0875,616.5 Q429.9781,616.5 430.6031,616.2969 Q430.9625,616.1875 431.3688,615.8281 Q431.6344,615.625 431.775,615.5625 Q431.9156,615.5 432.0875,615.5 Q432.4156,615.5 432.65,615.7656 Q432.9,616.0156 432.9,616.375 Q432.9,616.7188 432.5563,617.125 Q432.0563,617.7188 431.2594,618.0469 Q430.2125,618.5 428.9313,618.5 Q427.4313,618.5 426.2281,617.9063 Q425.2594,617.4375 424.5719,616.4219 Q423.9,615.4063 423.9,614.2031 L423.9,613.1094 Q423.9,611.8594 424.4938,610.7656 Q425.1031,609.6719 426.15,609.0938 Q427.2125,608.5 428.4,608.5 Q429.1188,608.5 429.7438,608.75 Q430.3688,609 430.9,609.5 Z " fill="#000000"/><text fill="#000000" font-family="sans-serif" font-size="14" lengthAdjust="spacing" textLength="73" x="448.1" y="618.7285">Warehouse</text><line style="stroke:#181818;stroke-width:0.5;" x1="391.5" x2="546.5" y1="629" y2="629"/><text fill="#000000" font-family="sans-serif" font-size="14" lengthAdjust="spacing" textLength="101" x="396.5" y="647.5332">-String jsonPath</text><text fill="#000000" font-family="sans-serif" font-size="14" lengthAdjust="spacing" textLength="81" x="396.5" y="665.1426">-String name</text><text fill="#000000" font-family="sans-serif" font-size="14" lengthAdjust="spacing" textLength="93" x="396.5" y="682.752">-Double length</text><text fill="#000000" font-family="sans-serif" font-size="14" lengthAdjust="spacing" textLength="85" x="396.5" y="700.3613">-square width</text><text fill="#000000" font-family="sans-serif" font-size="14" lengthAdjust="spacing" textLength="69" x="396.5" y="717.9707">-String unit</text><text fill="#000000" font-family="sans-serif" font-size="14" lengthAdjust="spacing" textLength="106" x="396.5" y="735.5801">-List&lt;Aisle&gt; aisle</text><text fill="#000000" font-family="sans-serif" font-size="14" lengthAdjust="spacing" textLength="145" x="396.5" y="753.1895">-List&lt;Aisle&gt; AGVDocks</text><line style="stroke:#181818;stroke-width:0.5;" x1="391.5" x2="546.5" y1="760.2656" y2="760.2656"/><text fill="#000000" font-family="sans-serif" font-size="14" lengthAdjust="spacing" textLength="67" x="396.5" y="778.7988">+toString()</text></g><!--MD5=[0a2f0ce5c49321e9082933c32b514ce4]
class Aisle--><g id="elem_Aisle"><rect codeLine="33" fill="#F1F1F1" height="153.6563" id="Aisle" rx="2.5" ry="2.5" style="stroke:#181818;stroke-width:0.5;" width="133" x="365.5" y="864"/><ellipse cx="412.75" cy="880" fill="#ADD1B2" rx="11" ry="11" style="stroke:#181818;stroke-width:1.0;"/><path d="M414.75,876.5 Q414.9531,876 415.1875,875.75 Q415.4219,875.5 415.6875,875.5 Q416.1563,875.5 416.4531,875.7813 Q416.75,876.0625 416.75,876.7188 L416.75,878.2813 Q416.75,878.9375 416.4688,879.2188 Q416.1875,879.5 415.75,879.5 Q415.3594,879.5 415.1094,879.3281 Q414.8594,879.1563 414.75,878.7031 Q414.7031,878.3906 414.5313,878.2188 Q414.2188,877.8906 413.6563,877.7031 Q413.0938,877.5 412.5313,877.5 Q411.8281,877.5 411.2344,877.7813 Q410.6563,878.0625 410.2031,878.6875 Q409.75,879.3125 409.75,880.1719 L409.75,881.0938 Q409.75,882.125 410.5938,882.8125 Q411.4375,883.5 412.9375,883.5 Q413.8281,883.5 414.4531,883.2969 Q414.8125,883.1875 415.2188,882.8281 Q415.4844,882.625 415.625,882.5625 Q415.7656,882.5 415.9375,882.5 Q416.2656,882.5 416.5,882.7656 Q416.75,883.0156 416.75,883.375 Q416.75,883.7188 416.4063,884.125 Q415.9063,884.7188 415.1094,885.0469 Q414.0625,885.5 412.7813,885.5 Q411.2813,885.5 410.0781,884.9063 Q409.1094,884.4375 408.4219,883.4219 Q407.75,882.4063 407.75,881.2031 L407.75,880.1094 Q407.75,878.8594 408.3438,877.7656 Q408.9531,876.6719 410,876.0938 Q411.0625,875.5 412.25,875.5 Q412.9688,875.5 413.5938,875.75 Q414.2188,876 414.75,876.5 Z " fill="#000000"/><text fill="#000000" font-family="sans-serif" font-size="14" lengthAdjust="spacing" textLength="30" x="433.25" y="885.7285">Aisle</text><line style="stroke:#181818;stroke-width:0.5;" x1="366.5" x2="497.5" y1="896" y2="896"/><text fill="#000000" font-family="sans-serif" font-size="14" lengthAdjust="spacing" textLength="80" x="371.5" y="914.5332">-Begin begin</text><text fill="#000000" font-family="sans-serif" font-size="14" lengthAdjust="spacing" textLength="58" x="371.5" y="932.1426">-End end</text><text fill="#000000" font-family="sans-serif" font-size="14" lengthAdjust="spacing" textLength="83" x="371.5" y="949.752">-Depth depth</text><text fill="#000000" font-family="sans-serif" font-size="14" lengthAdjust="spacing" textLength="121" x="371.5" y="967.3613">-String accessibility</text><text fill="#000000" font-family="sans-serif" font-size="14" lengthAdjust="spacing" textLength="103" x="371.5" y="984.9707">-List&lt;Row&gt; rows</text><line style="stroke:#181818;stroke-width:0.5;" x1="366.5" x2="497.5" y1="992.0469" y2="992.0469"/><text fill="#000000" font-family="sans-serif" font-size="14" lengthAdjust="spacing" textLength="67" x="371.5" y="1010.5801">+toString()</text></g><!--MD5=[05aedcff764caeeb5d443618a4d90de7]
class Row--><g id="elem_Row"><rect codeLine="42" fill="#F1F1F1" height="136.0469" id="Row" rx="2.5" ry="2.5" style="stroke:#181818;stroke-width:0.5;" width="163" x="106.5" y="873"/><ellipse cx="170.25" cy="889" fill="#ADD1B2" rx="11" ry="11" style="stroke:#181818;stroke-width:1.0;"/><path d="M172.25,885.5 Q172.4531,885 172.6875,884.75 Q172.9219,884.5 173.1875,884.5 Q173.6563,884.5 173.9531,884.7813 Q174.25,885.0625 174.25,885.7188 L174.25,887.2813 Q174.25,887.9375 173.9688,888.2188 Q173.6875,888.5 173.25,888.5 Q172.8594,888.5 172.6094,888.3281 Q172.3594,888.1563 172.25,887.7031 Q172.2031,887.3906 172.0313,887.2188 Q171.7188,886.8906 171.1563,886.7031 Q170.5938,886.5 170.0313,886.5 Q169.3281,886.5 168.7344,886.7813 Q168.1563,887.0625 167.7031,887.6875 Q167.25,888.3125 167.25,889.1719 L167.25,890.0938 Q167.25,891.125 168.0938,891.8125 Q168.9375,892.5 170.4375,892.5 Q171.3281,892.5 171.9531,892.2969 Q172.3125,892.1875 172.7188,891.8281 Q172.9844,891.625 173.125,891.5625 Q173.2656,891.5 173.4375,891.5 Q173.7656,891.5 174,891.7656 Q174.25,892.0156 174.25,892.375 Q174.25,892.7188 173.9063,893.125 Q173.4063,893.7188 172.6094,894.0469 Q171.5625,894.5 170.2813,894.5 Q168.7813,894.5 167.5781,893.9063 Q166.6094,893.4375 165.9219,892.4219 Q165.25,891.4063 165.25,890.2031 L165.25,889.1094 Q165.25,887.8594 165.8438,886.7656 Q166.4531,885.6719 167.5,885.0938 Q168.5625,884.5 169.75,884.5 Q170.4688,884.5 171.0938,884.75 Q171.7188,885 172.25,885.5 Z " fill="#000000"/><text fill="#000000" font-family="sans-serif" font-size="14" lengthAdjust="spacing" textLength="27" x="190.75" y="894.7285">Row</text><line style="stroke:#181818;stroke-width:0.5;" x1="107.5" x2="268.5" y1="905" y2="905"/><text fill="#000000" font-family="sans-serif" font-size="14" lengthAdjust="spacing" textLength="80" x="112.5" y="923.5332">-Begin begin</text><text fill="#000000" font-family="sans-serif" font-size="14" lengthAdjust="spacing" textLength="58" x="112.5" y="941.1426">-End end</text><text fill="#000000" font-family="sans-serif" font-size="14" lengthAdjust="spacing" textLength="151" x="112.5" y="958.752">-Integer numberShelves</text><text fill="#000000" font-family="sans-serif" font-size="14" lengthAdjust="spacing" textLength="138" x="112.5" y="976.3613">-List&lt;Shelve&gt; shelves</text><line style="stroke:#181818;stroke-width:0.5;" x1="107.5" x2="268.5" y1="983.4375" y2="983.4375"/><text fill="#000000" font-family="sans-serif" font-size="14" lengthAdjust="spacing" textLength="67" x="112.5" y="1001.9707">+toString()</text></g><!--MD5=[06081a5d508790fd32eda4878a7f2299]
class Shelve--><g id="elem_Shelve"><rect codeLine="50" fill="#F1F1F1" height="83.2188" id="Shelve" rx="2.5" ry="2.5" style="stroke:#181818;stroke-width:0.5;" width="114" x="9" y="1105"/><ellipse cx="41.55" cy="1121" fill="#ADD1B2" rx="11" ry="11" style="stroke:#181818;stroke-width:1.0;"/><path d="M43.55,1117.5 Q43.7531,1117 43.9875,1116.75 Q44.2219,1116.5 44.4875,1116.5 Q44.9563,1116.5 45.2531,1116.7813 Q45.55,1117.0625 45.55,1117.7188 L45.55,1119.2813 Q45.55,1119.9375 45.2688,1120.2188 Q44.9875,1120.5 44.55,1120.5 Q44.1594,1120.5 43.9094,1120.3281 Q43.6594,1120.1563 43.55,1119.7031 Q43.5031,1119.3906 43.3313,1119.2188 Q43.0188,1118.8906 42.4563,1118.7031 Q41.8938,1118.5 41.3313,1118.5 Q40.6281,1118.5 40.0344,1118.7813 Q39.4563,1119.0625 39.0031,1119.6875 Q38.55,1120.3125 38.55,1121.1719 L38.55,1122.0938 Q38.55,1123.125 39.3938,1123.8125 Q40.2375,1124.5 41.7375,1124.5 Q42.6281,1124.5 43.2531,1124.2969 Q43.6125,1124.1875 44.0188,1123.8281 Q44.2844,1123.625 44.425,1123.5625 Q44.5656,1123.5 44.7375,1123.5 Q45.0656,1123.5 45.3,1123.7656 Q45.55,1124.0156 45.55,1124.375 Q45.55,1124.7188 45.2063,1125.125 Q44.7063,1125.7188 43.9094,1126.0469 Q42.8625,1126.5 41.5813,1126.5 Q40.0813,1126.5 38.8781,1125.9063 Q37.9094,1125.4375 37.2219,1124.4219 Q36.55,1123.4063 36.55,1122.2031 L36.55,1121.1094 Q36.55,1119.8594 37.1438,1118.7656 Q37.7531,1117.6719 38.8,1117.0938 Q39.8625,1116.5 41.05,1116.5 Q41.7688,1116.5 42.3938,1116.75 Q43.0188,1117 43.55,1117.5 Z " fill="#000000"/><text fill="#000000" font-family="sans-serif" font-size="14" lengthAdjust="spacing" textLength="43" x="59.45" y="1126.7285">Shelve</text><line style="stroke:#181818;stroke-width:0.5;" x1="10" x2="122" y1="1137" y2="1137"/><text fill="#000000" font-family="sans-serif" font-size="14" lengthAdjust="spacing" textLength="102" x="15" y="1155.5332">-Integer position</text><text fill="#000000" font-family="sans-serif" font-size="14" lengthAdjust="spacing" textLength="86" x="15" y="1173.1426">-List&lt;Bin&gt; bin</text><line style="stroke:#181818;stroke-width:0.5;" x1="10" x2="122" y1="1180.2188" y2="1180.2188"/></g><!--MD5=[2038ae133c03a210330ad60522e564cb]
class Bin--><g id="elem_Bin"><rect codeLine="55" fill="#F1F1F1" height="100.8281" id="Bin" rx="2.5" ry="2.5" style="stroke:#181818;stroke-width:0.5;" width="118" x="7" y="1275"/><ellipse cx="51.75" cy="1291" fill="#ADD1B2" rx="11" ry="11" style="stroke:#181818;stroke-width:1.0;"/><path d="M53.75,1287.5 Q53.9531,1287 54.1875,1286.75 Q54.4219,1286.5 54.6875,1286.5 Q55.1563,1286.5 55.4531,1286.7813 Q55.75,1287.0625 55.75,1287.7188 L55.75,1289.2813 Q55.75,1289.9375 55.4688,1290.2188 Q55.1875,1290.5 54.75,1290.5 Q54.3594,1290.5 54.1094,1290.3281 Q53.8594,1290.1563 53.75,1289.7031 Q53.7031,1289.3906 53.5313,1289.2188 Q53.2188,1288.8906 52.6563,1288.7031 Q52.0938,1288.5 51.5313,1288.5 Q50.8281,1288.5 50.2344,1288.7813 Q49.6563,1289.0625 49.2031,1289.6875 Q48.75,1290.3125 48.75,1291.1719 L48.75,1292.0938 Q48.75,1293.125 49.5938,1293.8125 Q50.4375,1294.5 51.9375,1294.5 Q52.8281,1294.5 53.4531,1294.2969 Q53.8125,1294.1875 54.2188,1293.8281 Q54.4844,1293.625 54.625,1293.5625 Q54.7656,1293.5 54.9375,1293.5 Q55.2656,1293.5 55.5,1293.7656 Q55.75,1294.0156 55.75,1294.375 Q55.75,1294.7188 55.4063,1295.125 Q54.9063,1295.7188 54.1094,1296.0469 Q53.0625,1296.5 51.7813,1296.5 Q50.2813,1296.5 49.0781,1295.9063 Q48.1094,1295.4375 47.4219,1294.4219 Q46.75,1293.4063 46.75,1292.2031 L46.75,1291.1094 Q46.75,1289.8594 47.3438,1288.7656 Q47.9531,1287.6719 49,1287.0938 Q50.0625,1286.5 51.25,1286.5 Q51.9688,1286.5 52.5938,1286.75 Q53.2188,1287 53.75,1287.5 Z " fill="#000000"/><text fill="#000000" font-family="sans-serif" font-size="14" lengthAdjust="spacing" textLength="20" x="72.25" y="1296.7285">Bin</text><line style="stroke:#181818;stroke-width:0.5;" x1="8" x2="124" y1="1307" y2="1307"/><text fill="#000000" font-family="sans-serif" font-size="14" lengthAdjust="spacing" textLength="106" x="13" y="1325.5332">-Product product</text><line style="stroke:#181818;stroke-width:0.5;" x1="8" x2="124" y1="1332.6094" y2="1332.6094"/><text fill="#000000" font-family="sans-serif" font-size="14" lengthAdjust="spacing" textLength="101" x="13" y="1351.1426">+sameAs(other)</text><text fill="#000000" font-family="sans-serif" font-size="14" lengthAdjust="spacing" textLength="63" x="13" y="1368.752">+identity()</text></g><!--MD5=[47ef0dfe59fd373997f8a6206ed8b282]
class Begin--><g id="elem_Begin"><rect codeLine="61" fill="#F1F1F1" height="100.8281" id="Begin" rx="2.5" ry="2.5" style="stroke:#181818;stroke-width:0.5;" width="127" x="158.5" y="1096"/><ellipse cx="200.05" cy="1112" fill="#ADD1B2" rx="11" ry="11" style="stroke:#181818;stroke-width:1.0;"/><path d="M202.05,1108.5 Q202.2531,1108 202.4875,1107.75 Q202.7219,1107.5 202.9875,1107.5 Q203.4563,1107.5 203.7531,1107.7813 Q204.05,1108.0625 204.05,1108.7188 L204.05,1110.2813 Q204.05,1110.9375 203.7688,1111.2188 Q203.4875,1111.5 203.05,1111.5 Q202.6594,1111.5 202.4094,1111.3281 Q202.1594,1111.1563 202.05,1110.7031 Q202.0031,1110.3906 201.8313,1110.2188 Q201.5188,1109.8906 200.9563,1109.7031 Q200.3938,1109.5 199.8313,1109.5 Q199.1281,1109.5 198.5344,1109.7813 Q197.9563,1110.0625 197.5031,1110.6875 Q197.05,1111.3125 197.05,1112.1719 L197.05,1113.0938 Q197.05,1114.125 197.8938,1114.8125 Q198.7375,1115.5 200.2375,1115.5 Q201.1281,1115.5 201.7531,1115.2969 Q202.1125,1115.1875 202.5188,1114.8281 Q202.7844,1114.625 202.925,1114.5625 Q203.0656,1114.5 203.2375,1114.5 Q203.5656,1114.5 203.8,1114.7656 Q204.05,1115.0156 204.05,1115.375 Q204.05,1115.7188 203.7063,1116.125 Q203.2063,1116.7188 202.4094,1117.0469 Q201.3625,1117.5 200.0813,1117.5 Q198.5813,1117.5 197.3781,1116.9063 Q196.4094,1116.4375 195.7219,1115.4219 Q195.05,1114.4063 195.05,1113.2031 L195.05,1112.1094 Q195.05,1110.8594 195.6438,1109.7656 Q196.2531,1108.6719 197.3,1108.0938 Q198.3625,1107.5 199.55,1107.5 Q200.2688,1107.5 200.8938,1107.75 Q201.5188,1108 202.05,1108.5 Z " fill="#000000"/><text fill="#000000" font-family="sans-serif" font-size="14" lengthAdjust="spacing" textLength="36" x="219.95" y="1117.7285">Begin</text><line style="stroke:#181818;stroke-width:0.5;" x1="159.5" x2="284.5" y1="1128" y2="1128"/><text fill="#000000" font-family="sans-serif" font-size="14" lengthAdjust="spacing" textLength="109" x="164.5" y="1146.5332">-int lSquareBegin</text><text fill="#000000" font-family="sans-serif" font-size="14" lengthAdjust="spacing" textLength="115" x="164.5" y="1164.1426">-int wSquareBegin</text><line style="stroke:#181818;stroke-width:0.5;" x1="159.5" x2="284.5" y1="1171.2188" y2="1171.2188"/><text fill="#000000" font-family="sans-serif" font-size="14" lengthAdjust="spacing" textLength="67" x="164.5" y="1189.752">+toString()</text></g><!--MD5=[b5cffc0c85435f5848b9ffcad0969c85]
class End--><g id="elem_End"><rect codeLine="66" fill="#F1F1F1" height="100.8281" id="End" rx="2.5" ry="2.5" style="stroke:#181818;stroke-width:0.5;" width="116" x="321" y="1096"/><ellipse cx="362.55" cy="1112" fill="#ADD1B2" rx="11" ry="11" style="stroke:#181818;stroke-width:1.0;"/><path d="M364.55,1108.5 Q364.7531,1108 364.9875,1107.75 Q365.2219,1107.5 365.4875,1107.5 Q365.9563,1107.5 366.2531,1107.7813 Q366.55,1108.0625 366.55,1108.7188 L366.55,1110.2813 Q366.55,1110.9375 366.2688,1111.2188 Q365.9875,1111.5 365.55,1111.5 Q365.1594,1111.5 364.9094,1111.3281 Q364.6594,1111.1563 364.55,1110.7031 Q364.5031,1110.3906 364.3313,1110.2188 Q364.0188,1109.8906 363.4563,1109.7031 Q362.8938,1109.5 362.3313,1109.5 Q361.6281,1109.5 361.0344,1109.7813 Q360.4563,1110.0625 360.0031,1110.6875 Q359.55,1111.3125 359.55,1112.1719 L359.55,1113.0938 Q359.55,1114.125 360.3938,1114.8125 Q361.2375,1115.5 362.7375,1115.5 Q363.6281,1115.5 364.2531,1115.2969 Q364.6125,1115.1875 365.0188,1114.8281 Q365.2844,1114.625 365.425,1114.5625 Q365.5656,1114.5 365.7375,1114.5 Q366.0656,1114.5 366.3,1114.7656 Q366.55,1115.0156 366.55,1115.375 Q366.55,1115.7188 366.2063,1116.125 Q365.7063,1116.7188 364.9094,1117.0469 Q363.8625,1117.5 362.5813,1117.5 Q361.0813,1117.5 359.8781,1116.9063 Q358.9094,1116.4375 358.2219,1115.4219 Q357.55,1114.4063 357.55,1113.2031 L357.55,1112.1094 Q357.55,1110.8594 358.1438,1109.7656 Q358.7531,1108.6719 359.8,1108.0938 Q360.8625,1107.5 362.05,1107.5 Q362.7688,1107.5 363.3938,1107.75 Q364.0188,1108 364.55,1108.5 Z " fill="#000000"/><text fill="#000000" font-family="sans-serif" font-size="14" lengthAdjust="spacing" textLength="25" x="382.45" y="1117.7285">End</text><line style="stroke:#181818;stroke-width:0.5;" x1="322" x2="436" y1="1128" y2="1128"/><text fill="#000000" font-family="sans-serif" font-size="14" lengthAdjust="spacing" textLength="98" x="327" y="1146.5332">-int lSquareEnd</text><text fill="#000000" font-family="sans-serif" font-size="14" lengthAdjust="spacing" textLength="104" x="327" y="1164.1426">-int wSquareEnd</text><line style="stroke:#181818;stroke-width:0.5;" x1="322" x2="436" y1="1171.2188" y2="1171.2188"/><text fill="#000000" font-family="sans-serif" font-size="14" lengthAdjust="spacing" textLength="67" x="327" y="1189.752">+toString()</text></g><!--MD5=[cfd0138e5346ce60abb87771726e7b9e]
class Depth--><g id="elem_Depth"><rect codeLine="71" fill="#F1F1F1" height="100.8281" id="Depth" rx="2.5" ry="2.5" style="stroke:#181818;stroke-width:0.5;" width="129" x="472.5" y="1096"/><ellipse cx="514.05" cy="1112" fill="#ADD1B2" rx="11" ry="11" style="stroke:#181818;stroke-width:1.0;"/><path d="M516.05,1108.5 Q516.2531,1108 516.4875,1107.75 Q516.7219,1107.5 516.9875,1107.5 Q517.4563,1107.5 517.7531,1107.7813 Q518.05,1108.0625 518.05,1108.7188 L518.05,1110.2813 Q518.05,1110.9375 517.7688,1111.2188 Q517.4875,1111.5 517.05,1111.5 Q516.6594,1111.5 516.4094,1111.3281 Q516.1594,1111.1563 516.05,1110.7031 Q516.0031,1110.3906 515.8313,1110.2188 Q515.5188,1109.8906 514.9563,1109.7031 Q514.3938,1109.5 513.8313,1109.5 Q513.1281,1109.5 512.5344,1109.7813 Q511.9562,1110.0625 511.5031,1110.6875 Q511.05,1111.3125 511.05,1112.1719 L511.05,1113.0938 Q511.05,1114.125 511.8937,1114.8125 Q512.7375,1115.5 514.2375,1115.5 Q515.1281,1115.5 515.7531,1115.2969 Q516.1125,1115.1875 516.5188,1114.8281 Q516.7844,1114.625 516.925,1114.5625 Q517.0656,1114.5 517.2375,1114.5 Q517.5656,1114.5 517.8,1114.7656 Q518.05,1115.0156 518.05,1115.375 Q518.05,1115.7188 517.7063,1116.125 Q517.2063,1116.7188 516.4094,1117.0469 Q515.3625,1117.5 514.0813,1117.5 Q512.5813,1117.5 511.3781,1116.9063 Q510.4094,1116.4375 509.7219,1115.4219 Q509.05,1114.4063 509.05,1113.2031 L509.05,1112.1094 Q509.05,1110.8594 509.6437,1109.7656 Q510.2531,1108.6719 511.3,1108.0938 Q512.3625,1107.5 513.55,1107.5 Q514.2688,1107.5 514.8938,1107.75 Q515.5188,1108 516.05,1108.5 Z " fill="#000000"/><text fill="#000000" font-family="sans-serif" font-size="14" lengthAdjust="spacing" textLength="38" x="533.95" y="1117.7285">Depth</text><line style="stroke:#181818;stroke-width:0.5;" x1="473.5" x2="600.5" y1="1128" y2="1128"/><text fill="#000000" font-family="sans-serif" font-size="14" lengthAdjust="spacing" textLength="111" x="478.5" y="1146.5332">-int lSquareDepth</text><text fill="#000000" font-family="sans-serif" font-size="14" lengthAdjust="spacing" textLength="117" x="478.5" y="1164.1426">-int wSquareDepth</text><line style="stroke:#181818;stroke-width:0.5;" x1="473.5" x2="600.5" y1="1171.2188" y2="1171.2188"/><text fill="#000000" font-family="sans-serif" font-size="14" lengthAdjust="spacing" textLength="67" x="478.5" y="1189.752">+toString()</text></g><!--MD5=[162ff44b580e372d14088e0d26d93db2]
class JsonParser--><g id="elem_JsonParser"><rect codeLine="81" fill="#F1F1F1" height="65.6094" id="JsonParser" rx="2.5" ry="2.5" style="stroke:#181818;stroke-width:0.5;" width="142" x="295" y="435.5"/><ellipse cx="327.55" cy="451.5" fill="#ADD1B2" rx="11" ry="11" style="stroke:#181818;stroke-width:1.0;"/><path d="M329.55,448 Q329.7531,447.5 329.9875,447.25 Q330.2219,447 330.4875,447 Q330.9563,447 331.2531,447.2813 Q331.55,447.5625 331.55,448.2188 L331.55,449.7813 Q331.55,450.4375 331.2688,450.7188 Q330.9875,451 330.55,451 Q330.1594,451 329.9094,450.8281 Q329.6594,450.6563 329.55,450.2031 Q329.5031,449.8906 329.3313,449.7188 Q329.0188,449.3906 328.4563,449.2031 Q327.8938,449 327.3313,449 Q326.6281,449 326.0344,449.2813 Q325.4563,449.5625 325.0031,450.1875 Q324.55,450.8125 324.55,451.6719 L324.55,452.5938 Q324.55,453.625 325.3938,454.3125 Q326.2375,455 327.7375,455 Q328.6281,455 329.2531,454.7969 Q329.6125,454.6875 330.0188,454.3281 Q330.2844,454.125 330.425,454.0625 Q330.5656,454 330.7375,454 Q331.0656,454 331.3,454.2656 Q331.55,454.5156 331.55,454.875 Q331.55,455.2188 331.2063,455.625 Q330.7063,456.2188 329.9094,456.5469 Q328.8625,457 327.5813,457 Q326.0813,457 324.8781,456.4063 Q323.9094,455.9375 323.2219,454.9219 Q322.55,453.9063 322.55,452.7031 L322.55,451.6094 Q322.55,450.3594 323.1438,449.2656 Q323.7531,448.1719 324.8,447.5938 Q325.8625,447 327.05,447 Q327.7688,447 328.3938,447.25 Q329.0188,447.5 329.55,448 Z " fill="#000000"/><text fill="#000000" font-family="sans-serif" font-size="14" lengthAdjust="spacing" textLength="71" x="345.45" y="457.2285">JsonParser</text><line style="stroke:#181818;stroke-width:0.5;" x1="296" x2="436" y1="467.5" y2="467.5"/><line style="stroke:#181818;stroke-width:0.5;" x1="296" x2="436" y1="475.5" y2="475.5"/><text fill="#000000" font-family="sans-serif" font-size="14" lengthAdjust="spacing" textLength="130" x="301" y="494.0332">+readJson(fileName)</text></g><!--MD5=[e8c189551b7885b999ad7cefb30fc2a3]
class PersistenceContext--><g id="elem_PersistenceContext"><rect codeLine="85" fill="#F1F1F1" height="100.8281" id="PersistenceContext" rx="2.5" ry="2.5" style="stroke:#181818;stroke-width:0.5;" width="205" x="591.5" y="418"/><ellipse cx="629.45" cy="434" fill="#ADD1B2" rx="11" ry="11" style="stroke:#181818;stroke-width:1.0;"/><path d="M631.45,430.5 Q631.6531,430 631.8875,429.75 Q632.1219,429.5 632.3875,429.5 Q632.8563,429.5 633.1531,429.7813 Q633.45,430.0625 633.45,430.7188 L633.45,432.2813 Q633.45,432.9375 633.1688,433.2188 Q632.8875,433.5 632.45,433.5 Q632.0594,433.5 631.8094,433.3281 Q631.5594,433.1563 631.45,432.7031 Q631.4031,432.3906 631.2313,432.2188 Q630.9188,431.8906 630.3563,431.7031 Q629.7938,431.5 629.2313,431.5 Q628.5281,431.5 627.9344,431.7813 Q627.3563,432.0625 626.9031,432.6875 Q626.45,433.3125 626.45,434.1719 L626.45,435.0938 Q626.45,436.125 627.2938,436.8125 Q628.1375,437.5 629.6375,437.5 Q630.5281,437.5 631.1531,437.2969 Q631.5125,437.1875 631.9188,436.8281 Q632.1844,436.625 632.325,436.5625 Q632.4656,436.5 632.6375,436.5 Q632.9656,436.5 633.2,436.7656 Q633.45,437.0156 633.45,437.375 Q633.45,437.7188 633.1063,438.125 Q632.6063,438.7188 631.8094,439.0469 Q630.7625,439.5 629.4813,439.5 Q627.9813,439.5 626.7781,438.9063 Q625.8094,438.4375 625.1219,437.4219 Q624.45,436.4063 624.45,435.2031 L624.45,434.1094 Q624.45,432.8594 625.0438,431.7656 Q625.6531,430.6719 626.7,430.0938 Q627.7625,429.5 628.95,429.5 Q629.6688,429.5 630.2938,429.75 Q630.9188,430 631.45,430.5 Z " fill="#000000"/><text fill="#000000" font-family="sans-serif" font-size="14" lengthAdjust="spacing" textLength="122" x="648.55" y="439.7285">PersistenceContext</text><line style="stroke:#181818;stroke-width:0.5;" x1="592.5" x2="795.5" y1="450" y2="450"/><text fill="#000000" font-family="sans-serif" font-size="14" lengthAdjust="spacing" textLength="114" x="597.5" y="468.5332">-Logger LOGGER</text><text fill="#000000" font-family="sans-serif" font-size="14" lengthAdjust="spacing" textLength="193" x="597.5" y="486.1426">-RepositoryFactory theFactory</text><line style="stroke:#181818;stroke-width:0.5;" x1="592.5" x2="795.5" y1="493.2188" y2="493.2188"/><text fill="#000000" font-family="sans-serif" font-size="14" lengthAdjust="spacing" textLength="92" x="597.5" y="511.752">+repositories()</text></g><!--MD5=[48590afff58a68e2fcba47824d6f8a11]
class RepositoryFactory--><g id="elem_RepositoryFactory"><rect codeLine="91" fill="#F1F1F1" height="83.2188" id="RepositoryFactory" rx="2.5" ry="2.5" style="stroke:#181818;stroke-width:0.5;" width="148" x="620" y="650"/><ellipse cx="635" cy="666" fill="#ADD1B2" rx="11" ry="11" style="stroke:#181818;stroke-width:1.0;"/><path d="M637,662.5 Q637.2031,662 637.4375,661.75 Q637.6719,661.5 637.9375,661.5 Q638.4063,661.5 638.7031,661.7813 Q639,662.0625 639,662.7188 L639,664.2813 Q639,664.9375 638.7188,665.2188 Q638.4375,665.5 638,665.5 Q637.6094,665.5 637.3594,665.3281 Q637.1094,665.1563 637,664.7031 Q636.9531,664.3906 636.7813,664.2188 Q636.4688,663.8906 635.9063,663.7031 Q635.3438,663.5 634.7813,663.5 Q634.0781,663.5 633.4844,663.7813 Q632.9063,664.0625 632.4531,664.6875 Q632,665.3125 632,666.1719 L632,667.0938 Q632,668.125 632.8438,668.8125 Q633.6875,669.5 635.1875,669.5 Q636.0781,669.5 636.7031,669.2969 Q637.0625,669.1875 637.4688,668.8281 Q637.7344,668.625 637.875,668.5625 Q638.0156,668.5 638.1875,668.5 Q638.5156,668.5 638.75,668.7656 Q639,669.0156 639,669.375 Q639,669.7188 638.6563,670.125 Q638.1563,670.7188 637.3594,671.0469 Q636.3125,671.5 635.0313,671.5 Q633.5313,671.5 632.3281,670.9063 Q631.3594,670.4375 630.6719,669.4219 Q630,668.4063 630,667.2031 L630,666.1094 Q630,664.8594 630.5938,663.7656 Q631.2031,662.6719 632.25,662.0938 Q633.3125,661.5 634.5,661.5 Q635.2188,661.5 635.8438,661.75 Q636.4688,662 637,662.5 Z " fill="#000000"/><text fill="#000000" font-family="sans-serif" font-size="14" lengthAdjust="spacing" textLength="116" x="649" y="671.7285">RepositoryFactory</text><line style="stroke:#181818;stroke-width:0.5;" x1="621" x2="767" y1="682" y2="682"/><line style="stroke:#181818;stroke-width:0.5;" x1="621" x2="767" y1="690" y2="690"/><text fill="#000000" font-family="sans-serif" font-size="14" lengthAdjust="spacing" textLength="130" x="626" y="708.5332">+warehouse(autoTx)</text><text fill="#000000" font-family="sans-serif" font-size="14" lengthAdjust="spacing" textLength="87" x="626" y="726.1426">+warehouse()</text></g><!--MD5=[bf4d0c028d0f251e49ce9c9f9f101ed4]
class WarehouseRepository--><g id="elem_WarehouseRepository"><rect codeLine="96" fill="#F1F1F1" height="65.6094" id="WarehouseRepository" rx="2.5" ry="2.5" style="stroke:#181818;stroke-width:0.5;" width="173" x="570.5" y="908"/><ellipse cx="585.5" cy="924" fill="#ADD1B2" rx="11" ry="11" style="stroke:#181818;stroke-width:1.0;"/><path d="M587.5,920.5 Q587.7031,920 587.9375,919.75 Q588.1719,919.5 588.4375,919.5 Q588.9063,919.5 589.2031,919.7813 Q589.5,920.0625 589.5,920.7188 L589.5,922.2813 Q589.5,922.9375 589.2188,923.2188 Q588.9375,923.5 588.5,923.5 Q588.1094,923.5 587.8594,923.3281 Q587.6094,923.1563 587.5,922.7031 Q587.4531,922.3906 587.2813,922.2188 Q586.9688,921.8906 586.4063,921.7031 Q585.8438,921.5 585.2813,921.5 Q584.5781,921.5 583.9844,921.7813 Q583.4063,922.0625 582.9531,922.6875 Q582.5,923.3125 582.5,924.1719 L582.5,925.0938 Q582.5,926.125 583.3438,926.8125 Q584.1875,927.5 585.6875,927.5 Q586.5781,927.5 587.2031,927.2969 Q587.5625,927.1875 587.9688,926.8281 Q588.2344,926.625 588.375,926.5625 Q588.5156,926.5 588.6875,926.5 Q589.0156,926.5 589.25,926.7656 Q589.5,927.0156 589.5,927.375 Q589.5,927.7188 589.1563,928.125 Q588.6563,928.7188 587.8594,929.0469 Q586.8125,929.5 585.5313,929.5 Q584.0313,929.5 582.8281,928.9063 Q581.8594,928.4375 581.1719,927.4219 Q580.5,926.4063 580.5,925.2031 L580.5,924.1094 Q580.5,922.8594 581.0938,921.7656 Q581.7031,920.6719 582.75,920.0938 Q583.8125,919.5 585,919.5 Q585.7188,919.5 586.3438,919.75 Q586.9688,920 587.5,920.5 Z " fill="#000000"/><text fill="#000000" font-family="sans-serif" font-size="14" lengthAdjust="spacing" textLength="141" x="599.5" y="929.7285">WarehouseRepository</text><line style="stroke:#181818;stroke-width:0.5;" x1="571.5" x2="742.5" y1="940" y2="940"/><line style="stroke:#181818;stroke-width:0.5;" x1="571.5" x2="742.5" y1="948" y2="948"/><text fill="#000000" font-family="sans-serif" font-size="14" lengthAdjust="spacing" textLength="152" x="576.5" y="966.5332">+findById(Long number)</text></g><!--MD5=[0c133e85b70bbf487f5f985c457e90dc]
link WarehouseUI to WarehouseController--><g id="link_WarehouseUI_WarehouseController"><path codeLine="101" d="M521,55.13 C521,69.61 521,89.47 521,110.56 " fill="none" id="WarehouseUI-to-WarehouseController" style="stroke:#181818;stroke-width:1.0;stroke-dasharray:7.0,7.0;"/><polygon fill="#181818" points="521,115.66,525,106.66,521,110.66,517,106.66,521,115.66" style="stroke:#181818;stroke-width:1.0;"/></g><!--MD5=[7d10049d7f3898c52b95f1d750e4cc10]
link WarehouseController to JsonParser--><g id="link_WarehouseController_JsonParser"><path codeLine="102" d="M448.72,340.22 C427.47,372.92 405.69,406.42 389.82,430.84 " fill="none" id="WarehouseController-to-JsonParser" style="stroke:#181818;stroke-width:1.0;stroke-dasharray:7.0,7.0;"/><polygon fill="#181818" points="386.93,435.3,395.1957,429.9449,389.6605,431.1114,388.4939,425.5761,386.93,435.3" style="stroke:#181818;stroke-width:1.0;"/></g><!--MD5=[b9eeab7c35e16b2928b1061e42822c1f]
link JsonParser to Warehouse--><g id="link_JsonParser_Warehouse"><path codeLine="103" d="M351.22,501.6 C344.39,521.08 339.48,546.12 348,567 C356.7,588.31 371.05,607.94 386.88,624.98 " fill="none" id="JsonParser-to-Warehouse" style="stroke:#181818;stroke-width:1.0;"/><polygon fill="#181818" points="390.5,628.8,387.207,619.518,387.0585,625.1729,381.4036,625.0244,390.5,628.8" style="stroke:#181818;stroke-width:1.0;"/><text fill="#000000" font-family="sans-serif" font-size="13" lengthAdjust="spacing" textLength="145" x="349" y="563.4951">reads and saves the path</text><text fill="#000000" font-family="sans-serif" font-size="13" lengthAdjust="spacing" textLength="7" x="340.9639" y="522.4822">1</text><text fill="#000000" font-family="sans-serif" font-size="13" lengthAdjust="spacing" textLength="5" x="377.5266" y="619.359">*</text></g><!--MD5=[8e30de69f95fb92b10aa949696d889b2]
link Warehouse to Aisle--><g id="link_Warehouse_Aisle"><path codeLine="105" d="M435.32,786.16 C432.74,796.13 430.55,806.2 429,816 C426.83,829.73 425.95,844.43 425.84,858.73 " fill="none" id="Warehouse-to-Aisle" style="stroke:#181818;stroke-width:1.0;"/><polygon fill="#181818" points="425.83,863.97,429.83,854.97,425.83,858.97,421.83,854.97,425.83,863.97" style="stroke:#181818;stroke-width:1.0;"/><text fill="#000000" font-family="sans-serif" font-size="13" lengthAdjust="spacing" textLength="49" x="430" y="830.4951">contains</text><text fill="#000000" font-family="sans-serif" font-size="13" lengthAdjust="spacing" textLength="7" x="425.5896" y="807.2117">1</text><text fill="#000000" font-family="sans-serif" font-size="13" lengthAdjust="spacing" textLength="20" x="404.2383" y="853.1292">0..*</text></g><!--MD5=[263aeadab30a0eb6f66e642329d33bf7]
reverse link Row to Aisle--><g id="link_Row_Aisle"><path codeLine="106" d="M274.74,941 C304.59,941 337.52,941 365.5,941 " fill="none" id="Row-backto-Aisle" style="stroke:#181818;stroke-width:1.0;"/><polygon fill="#181818" points="269.59,941,278.59,945,274.59,941,278.59,937,269.59,941" style="stroke:#181818;stroke-width:1.0;"/><text fill="#000000" font-family="sans-serif" font-size="13" lengthAdjust="spacing" textLength="49" x="293" y="934.4951">contains</text><text fill="#000000" font-family="sans-serif" font-size="13" lengthAdjust="spacing" textLength="20" x="277.461" y="937.8207">0..*</text><text fill="#000000" font-family="sans-serif" font-size="13" lengthAdjust="spacing" textLength="7" x="350.4063" y="937.6103">1</text></g><!--MD5=[97ee229bb5f7d7c99854ebd87dce7a31]
link Row to Shelve--><g id="link_Row_Shelve"><path codeLine="107" d="M129.96,1009.15 C120.61,1021.62 111.54,1034.86 104,1048 C94.66,1064.28 86.67,1083.29 80.46,1100.18 " fill="none" id="Row-to-Shelve" style="stroke:#181818;stroke-width:1.0;"/><polygon fill="#181818" points="78.76,1104.89,85.5827,1097.7872,80.4607,1100.1881,78.0597,1095.0661,78.76,1104.89" style="stroke:#181818;stroke-width:1.0;"/><text fill="#000000" font-family="sans-serif" font-size="13" lengthAdjust="spacing" textLength="49" x="105" y="1062.4951">contains</text><text fill="#000000" font-family="sans-serif" font-size="13" lengthAdjust="spacing" textLength="7" x="116.6137" y="1030.5138">1</text><text fill="#000000" font-family="sans-serif" font-size="13" lengthAdjust="spacing" textLength="20" x="59.2171" y="1094.1795">0..*</text></g><!--MD5=[1896105a5448dc1adff7dc703837c86b]
link Shelve to Bin--><g id="link_Shelve_Bin"><path codeLine="108" d="M66,1188.11 C66,1212.32 66,1243.37 66,1269.72 " fill="none" id="Shelve-to-Bin" style="stroke:#181818;stroke-width:1.0;"/><polygon fill="#181818" points="66,1274.93,70,1265.93,66,1269.93,62,1265.93,66,1274.93" style="stroke:#181818;stroke-width:1.0;"/><text fill="#000000" font-family="sans-serif" font-size="13" lengthAdjust="spacing" textLength="49" x="67" y="1241.4951">contains</text><text fill="#000000" font-family="sans-serif" font-size="13" lengthAdjust="spacing" textLength="7" x="58.4203" y="1209.8328">1</text><text fill="#000000" font-family="sans-serif" font-size="13" lengthAdjust="spacing" textLength="20" x="44.5938" y="1264.2255">0..*</text></g><!--MD5=[aa56d6553f01f4e0334290b5ed5c5b56]
link Aisle to Begin--><g id="link_Aisle_Begin"><path codeLine="110" d="M365.35,1012.79 C348.23,1030.44 329.65,1049.13 312,1066 C302.95,1074.65 293.2,1083.61 283.57,1092.26 " fill="none" id="Aisle-to-Begin" style="stroke:#181818;stroke-width:1.0;"/><polygon fill="#181818" points="279.74,1095.69,289.1177,1092.6803,283.4699,1092.3602,283.7901,1086.7124,279.74,1095.69" style="stroke:#181818;stroke-width:1.0;"/><text fill="#000000" font-family="sans-serif" font-size="13" lengthAdjust="spacing" textLength="49" x="330" y="1062.4951">contains</text><text fill="#000000" font-family="sans-serif" font-size="13" lengthAdjust="spacing" textLength="7" x="350.6773" y="1017.3002">1</text><text fill="#000000" font-family="sans-serif" font-size="13" lengthAdjust="spacing" textLength="7" x="280.0285" y="1085.3177">1</text></g><!--MD5=[cf1a9f94a03f61cb570fbaacb8fdae56]
link Aisle to End--><g id="link_Aisle_End"><path codeLine="111" d="M414.97,1018.26 C411.21,1034.09 407.11,1050.62 403,1066 C400.87,1073.96 398.5,1082.32 396.09,1090.52 " fill="none" id="Aisle-to-End" style="stroke:#181818;stroke-width:1.0;"/><polygon fill="#181818" points="394.59,1095.6,400.9706,1088.0975,396.0031,1090.8039,393.2968,1085.8364,394.59,1095.6" style="stroke:#181818;stroke-width:1.0;"/><text fill="#000000" font-family="sans-serif" font-size="13" lengthAdjust="spacing" textLength="49" x="409" y="1062.4951">contains</text><text fill="#000000" font-family="sans-serif" font-size="13" lengthAdjust="spacing" textLength="7" x="406.2057" y="1039.112">1</text><text fill="#000000" font-family="sans-serif" font-size="13" lengthAdjust="spacing" textLength="7" x="389.2146" y="1085.2156">1</text></g><!--MD5=[2e67177fef6f497fb9de9cdd0f28a5ed]
link Aisle to Depth--><g id="link_Aisle_Depth"><path codeLine="112" d="M471.25,1018.07 C483.76,1042.31 497.34,1068.63 508.89,1091.02 " fill="none" id="Aisle-to-Depth" style="stroke:#181818;stroke-width:1.0;"/><polygon fill="#181818" points="511.33,1095.74,510.7446,1085.9086,509.0313,1091.2997,503.6402,1089.5864,511.33,1095.74" style="stroke:#181818;stroke-width:1.0;"/><text fill="#000000" font-family="sans-serif" font-size="13" lengthAdjust="spacing" textLength="49" x="495" y="1062.4951">contains</text><text fill="#000000" font-family="sans-serif" font-size="13" lengthAdjust="spacing" textLength="7" x="467.434" y="1039.1726">1</text><text fill="#000000" font-family="sans-serif" font-size="13" lengthAdjust="spacing" textLength="7" x="500.228" y="1085.0088">1</text></g><!--MD5=[ece62859423391626876163788d1a479]
link Row to Begin--><g id="link_Row_Begin"><path codeLine="114" d="M164.38,1009.06 C160.96,1027.74 160.25,1047.87 166,1066 C168.75,1074.69 172.84,1083.25 177.57,1091.35 " fill="none" id="Row-to-Begin" style="stroke:#181818;stroke-width:1.0;"/><polygon fill="#181818" points="180.26,1095.8,179.0356,1086.0275,177.677,1091.5188,172.1857,1090.1603,180.26,1095.8" style="stroke:#181818;stroke-width:1.0;"/><text fill="#000000" font-family="sans-serif" font-size="13" lengthAdjust="spacing" textLength="49" x="167" y="1062.4951">contains</text><text fill="#000000" font-family="sans-serif" font-size="13" lengthAdjust="spacing" textLength="7" x="154.5833" y="1030.4145">1</text><text fill="#000000" font-family="sans-serif" font-size="13" lengthAdjust="spacing" textLength="7" x="166.8981" y="1085.0772">1</text></g><!--MD5=[8dc90faa7b4c4ca2e65ecaba988ef0e7]
link Row to End--><g id="link_Row_End"><path codeLine="115" d="M217.64,1009.06 C228.28,1028.75 241.54,1049.42 257,1066 C257.08,1066.09 286.55,1085.29 316.5,1104.8 " fill="none" id="Row-to-End" style="stroke:#181818;stroke-width:1.0;"/><polygon fill="#181818" points="320.92,1107.68,315.552,1099.4226,316.7271,1104.9561,311.1937,1106.1312,320.92,1107.68" style="stroke:#181818;stroke-width:1.0;"/><text fill="#000000" font-family="sans-serif" font-size="13" lengthAdjust="spacing" textLength="49" x="258" y="1062.4951">contains</text><text fill="#000000" font-family="sans-serif" font-size="13" lengthAdjust="spacing" textLength="7" x="213.3357" y="1030.4145">1</text><text fill="#000000" font-family="sans-serif" font-size="13" lengthAdjust="spacing" textLength="7" x="306.0301" y="1099.2098">1</text></g><!--MD5=[dce0c02e398107f791a51e0f14f1f357]
link WarehouseController to PersistenceContext--><g id="link_WarehouseController_PersistenceContext"><path codeLine="118" d="M601.68,340.22 C620.17,365.72 639.03,391.72 654.84,413.51 " fill="none" id="WarehouseController-to-PersistenceContext" style="stroke:#181818;stroke-width:1.0;"/><polygon fill="#181818" points="657.96,417.81,655.9358,408.1714,655.0336,413.7559,649.4491,412.8537,657.96,417.81" style="stroke:#181818;stroke-width:1.0;"/><text fill="#000000" font-family="sans-serif" font-size="13" lengthAdjust="spacing" textLength="43" x="635" y="384.4951">creates</text><text fill="#000000" font-family="sans-serif" font-size="13" lengthAdjust="spacing" textLength="7" x="599.6243" y="361.425">1</text><text fill="#000000" font-family="sans-serif" font-size="13" lengthAdjust="spacing" textLength="7" x="645.3997" y="407.0886">1</text></g><!--MD5=[754b775031405e096442b27febffa290]
link PersistenceContext to RepositoryFactory--><g id="link_PersistenceContext_RepositoryFactory"><path codeLine="121" d="M694,519.1 C694,556.7 694,607.98 694,644.64 " fill="none" id="PersistenceContext-to-RepositoryFactory" style="stroke:#181818;stroke-width:1.0;"/><polygon fill="#181818" points="694,649.94,698,640.94,694,644.94,690,640.94,694,649.94" style="stroke:#181818;stroke-width:1.0;"/><text fill="#000000" font-family="sans-serif" font-size="13" lengthAdjust="spacing" textLength="43" x="695" y="563.4951">creates</text><text fill="#000000" font-family="sans-serif" font-size="13" lengthAdjust="spacing" textLength="7" x="686.5297" y="540.5047">1</text><text fill="#000000" font-family="sans-serif" font-size="13" lengthAdjust="spacing" textLength="7" x="686.4203" y="639.2377">1</text></g><!--MD5=[1e897a22714a6b830b517dbc62a38d7f]
link RepositoryFactory to WarehouseRepository--><g id="link_RepositoryFactory_WarehouseRepository"><path codeLine="124" d="M687.93,733.09 C680.9,780.1 669.42,856.91 662.6,902.54 " fill="none" id="RepositoryFactory-to-WarehouseRepository" style="stroke:#181818;stroke-width:1.0;"/><polygon fill="#181818" points="661.83,907.68,667.1232,899.3744,662.5731,902.7355,659.212,898.1855,661.83,907.68" style="stroke:#181818;stroke-width:1.0;"/><text fill="#000000" font-family="sans-serif" font-size="13" lengthAdjust="spacing" textLength="43" x="676" y="830.4951">creates</text><text fill="#000000" font-family="sans-serif" font-size="13" lengthAdjust="spacing" textLength="7" x="679.345" y="754.8095">1</text><text fill="#000000" font-family="sans-serif" font-size="13" lengthAdjust="spacing" textLength="7" x="655.0918" y="897.1133">1</text></g><!--MD5=[cb687ce39c8d40f9490a793099138230]
link WarehouseController to Warehouse--><g id="link_WarehouseController_Warehouse"><path codeLine="126" d="M518.61,340.27 C515.98,406.44 510.48,491.87 499,567 C497.77,575.04 496.28,583.32 494.61,591.61 " fill="none" id="WarehouseController-to-Warehouse" style="stroke:#181818;stroke-width:1.0;"/><polygon fill="#181818" points="493.56,596.77,499.2834,588.7549,494.5626,591.8716,491.4459,587.1507,493.56,596.77" style="stroke:#181818;stroke-width:1.0;"/><text fill="#000000" font-family="sans-serif" font-size="13" lengthAdjust="spacing" textLength="33" x="516" y="473.9951">saves</text><text fill="#000000" font-family="sans-serif" font-size="13" lengthAdjust="spacing" textLength="7" x="511.2327" y="361.4782">1</text><text fill="#000000" font-family="sans-serif" font-size="13" lengthAdjust="spacing" textLength="20" x="474.7203" y="586.0978">1..*</text></g><!--MD5=[9a94bafc6fa12ebd5df8586d4706d7bc]
link Warehouse to WarehouseRepository--><g id="link_Warehouse_WarehouseRepository"><path codeLine="128" d="M505.17,786.33 C513.47,802.94 523.11,819.53 534,834 C554.27,860.94 582.44,885.84 606.71,904.73 " fill="none" id="Warehouse-to-WarehouseRepository" style="stroke:#181818;stroke-width:1.0;"/><polygon fill="#181818" points="610.88,907.94,606.2033,899.2723,606.9233,904.8832,601.3124,905.6031,610.88,907.94" style="stroke:#181818;stroke-width:1.0;"/><text fill="#000000" font-family="sans-serif" font-size="13" lengthAdjust="spacing" textLength="129" x="535" y="830.4951">saves path to JSON in</text><text fill="#000000" font-family="sans-serif" font-size="13" lengthAdjust="spacing" textLength="7" x="500.5692" y="807.3942">1</text><text fill="#000000" font-family="sans-serif" font-size="13" lengthAdjust="spacing" textLength="7" x="593.6459" y="897.043">1</text></g><!--MD5=[34df9942cf5c282c5f07dcf1b3afb05b]
@startuml
skinparam classAttributeIconSize 0

Class "WarehouseUI"{
}

Class "WarehouseController"{
+buildWarehouse(fileName)
+saveWarehouse(warehouse)
+deletePreviousWarehouse()
+alreadyInDatabase()
+findWarehouse()
+buildShelves()

+repositories()
+warehouses()
+saveWarehouse()
}




class "Warehouse"{
     -String jsonPath
     -String name
     -Double length
     -square width
     -String unit
     -List<Aisle> aisle
     -List<Aisle> AGVDocks
     +toString()
}

class "Aisle"{
     -Begin begin
     -End end
     -Depth depth
     -String accessibility
     -List<Row> rows
     +toString()
}

class "Row"{
     -Begin begin
     -End end
     -Integer numberShelves
     -List<Shelve> shelves
     +toString()
}

class "Shelve"{
     -Integer position
     -List<Bin> bin
}

class "Bin"{
     -Product product
     +sameAs(other)
     +identity()
}

class "Begin"{
     -int lSquareBegin
     -int wSquareBegin
     +toString()
}
class "End"{
     -int lSquareEnd
     -int wSquareEnd
     +toString()
}
class "Depth"{
     -int lSquareDepth
     -int wSquareDepth
     +toString()
}





class JsonParser {
+readJson(fileName)
}

class PersistenceContext {
-Logger LOGGER
-RepositoryFactory theFactory
+repositories()
}

class RepositoryFactory{
+warehouse(autoTx)
+warehouse()
}

class WarehouseRepository{
+findById(Long number)
}


WarehouseUI ..> WarehouseController
WarehouseController..> JsonParser
JsonParser "1" - -> "*" Warehouse : reads and saves the path

Aisle "0..*" <-u- "1" Warehouse : contains
Row "0..*" <-r- "1" Aisle : contains
Shelve "0..*" <-u- "1" Row : contains
Bin "0..*" <-u- "1" Shelve : contains

Begin "1" <-u- "1" Aisle : contains
End "1" <-u- "1" Aisle : contains
Depth "1" <-u- "1" Aisle : contains

Begin "1" <-l- "1" Row : contains
End "1" <-l- "1" Row : contains


"WarehouseController" "1" - -> "1" "PersistenceContext" :creates


"PersistenceContext" "1" - -> "1" "RepositoryFactory" :creates


"RepositoryFactory" "1" - -> "1" "WarehouseRepository"  :creates

"WarehouseController" "1" - -> "1..*" "Warehouse" :saves

"Warehouse" "1" - -> "1" "WarehouseRepository" : saves path to JSON in

@enduml

PlantUML version 1.2022.4(Sat Apr 09 15:29:17 CEST 2022)
(GPL source distribution)
Java Runtime: OpenJDK Runtime Environment
JVM: OpenJDK 64-Bit Server VM
Default Encoding: Cp1252
Language: pt
Country: PT
--></g></svg>