<?xml version="1.0" encoding="UTF-8" standalone="no"?><svg xmlns="http://www.w3.org/2000/svg" xmlns:xlink="http://www.w3.org/1999/xlink" contentStyleType="text/css" height="944px" preserveAspectRatio="none" style="width:1565px;height:944px;background:#FFFFFF;" version="1.1" viewBox="0 0 1565 944" width="1565px" zoomAndPan="magnify"><defs/><g><rect fill="#FFFFFF" height="760.4141" style="stroke:#181818;stroke-width:1.0;" width="10" x="70.5" y="92.6094"/><rect fill="#FFFFFF" height="751.4141" style="stroke:#181818;stroke-width:1.0;" width="10" x="304.5" y="92.6094"/><rect fill="#FFFFFF" height="607.6563" style="stroke:#181818;stroke-width:1.0;" width="10" x="540.5" y="206.0156"/><rect fill="#FFFFFF" height="136.6641" style="stroke:#181818;stroke-width:1.0;" width="10" x="715.5" y="246.3672"/><rect fill="#FFFFFF" height="30.3516" style="stroke:#181818;stroke-width:1.0;" width="10" x="865.5" y="322.3281"/><rect fill="#FFFFFF" height="30" style="stroke:#181818;stroke-width:1.0;" width="10" x="865.5" y="413.3828"/><rect fill="#FFFFFF" height="30" style="stroke:#181818;stroke-width:1.0;" width="10" x="865.5" y="473.7344"/><rect fill="#FFFFFF" height="75.2188" style="stroke:#181818;stroke-width:1.0;" width="10" x="1067.5" y="574.4375"/><rect fill="#FFFFFF" height="72.9609" style="stroke:#181818;stroke-width:1.0;" width="10" x="1288.5" y="680.0078"/><rect fill="#FFFFFF" height="30.3516" style="stroke:#181818;stroke-width:1.0;" width="10" x="1474.5" y="783.3203"/><line style="stroke:#181818;stroke-width:0.5;stroke-dasharray:5.0,5.0;" x1="75" x2="75" y1="82.6094" y2="862.0234"/><line style="stroke:#181818;stroke-width:0.5;stroke-dasharray:5.0,5.0;" x1="309.5" x2="309.5" y1="82.6094" y2="862.0234"/><line style="stroke:#181818;stroke-width:0.5;stroke-dasharray:5.0,5.0;" x1="545" x2="545" y1="82.6094" y2="862.0234"/><line style="stroke:#181818;stroke-width:0.5;stroke-dasharray:5.0,5.0;" x1="720" x2="720" y1="245.3203" y2="862.0234"/><line style="stroke:#181818;stroke-width:0.5;stroke-dasharray:5.0,5.0;" x1="870" x2="870" y1="82.6094" y2="862.0234"/><line style="stroke:#181818;stroke-width:0.5;stroke-dasharray:5.0,5.0;" x1="1072" x2="1072" y1="573.3906" y2="862.0234"/><line style="stroke:#181818;stroke-width:0.5;stroke-dasharray:5.0,5.0;" x1="1293" x2="1293" y1="616" y2="862.0234"/><line style="stroke:#181818;stroke-width:0.5;stroke-dasharray:5.0,5.0;" x1="1479" x2="1479" y1="719.3125" y2="862.0234"/><text fill="#000000" font-family="sans-serif" font-size="14" lengthAdjust="spacing" textLength="135" x="5" y="79.5332">WarehouseEmployee</text><ellipse cx="75.5" cy="13.5" fill="#E2E2F0" rx="8" ry="8" style="stroke:#181818;stroke-width:0.5;"/><path d="M75.5,21.5 L75.5,48.5 M62.5,29.5 L88.5,29.5 M75.5,48.5 L62.5,63.5 M75.5,48.5 L88.5,63.5 " fill="none" style="stroke:#181818;stroke-width:0.5;"/><text fill="#000000" font-family="sans-serif" font-size="14" lengthAdjust="spacing" textLength="135" x="5" y="875.5566">WarehouseEmployee</text><ellipse cx="75.5" cy="887.1328" fill="#E2E2F0" rx="8" ry="8" style="stroke:#181818;stroke-width:0.5;"/><path d="M75.5,895.1328 L75.5,922.1328 M62.5,903.1328 L88.5,903.1328 M75.5,922.1328 L62.5,937.1328 M75.5,922.1328 L88.5,937.1328 " fill="none" style="stroke:#181818;stroke-width:0.5;"/><rect fill="#E2E2F0" height="31.6094" rx="2.5" ry="2.5" style="stroke:#181818;stroke-width:0.5;" width="198" x="210.5" y="50"/><text fill="#000000" font-family="sans-serif" font-size="14" lengthAdjust="spacing" textLength="184" x="217.5" y="71.5332">WarehouseUI &lt;presentation&gt;</text><rect fill="#E2E2F0" height="31.6094" rx="2.5" ry="2.5" style="stroke:#181818;stroke-width:0.5;" width="198" x="210.5" y="861.0234"/><text fill="#000000" font-family="sans-serif" font-size="14" lengthAdjust="spacing" textLength="184" x="217.5" y="882.5566">WarehouseUI &lt;presentation&gt;</text><rect fill="#E2E2F0" height="31.6094" rx="2.5" ry="2.5" style="stroke:#181818;stroke-width:0.5;" width="241" x="425" y="50"/><text fill="#000000" font-family="sans-serif" font-size="14" lengthAdjust="spacing" textLength="227" x="432" y="71.5332">:WarehouseController &lt;application&gt;</text><rect fill="#E2E2F0" height="31.6094" rx="2.5" ry="2.5" style="stroke:#181818;stroke-width:0.5;" width="241" x="425" y="861.0234"/><text fill="#000000" font-family="sans-serif" font-size="14" lengthAdjust="spacing" textLength="227" x="432" y="882.5566">:WarehouseController &lt;application&gt;</text><rect fill="#E2E2F0" height="31.6094" rx="2.5" ry="2.5" style="stroke:#181818;stroke-width:0.5;" width="89" x="676" y="861.0234"/><text fill="#000000" font-family="sans-serif" font-size="14" lengthAdjust="spacing" textLength="75" x="683" y="882.5566">:JsonParser</text><rect fill="#E2E2F0" height="31.6094" rx="2.5" ry="2.5" style="stroke:#181818;stroke-width:0.5;" width="155" x="793" y="50"/><text fill="#000000" font-family="sans-serif" font-size="14" lengthAdjust="spacing" textLength="141" x="800" y="71.5332">:Warehouse&lt;Domain&gt;</text><rect fill="#E2E2F0" height="31.6094" rx="2.5" ry="2.5" style="stroke:#181818;stroke-width:0.5;" width="155" x="793" y="861.0234"/><text fill="#000000" font-family="sans-serif" font-size="14" lengthAdjust="spacing" textLength="141" x="800" y="882.5566">:Warehouse&lt;Domain&gt;</text><rect fill="#E2E2F0" height="31.6094" rx="2.5" ry="2.5" style="stroke:#181818;stroke-width:0.5;" width="229" x="958" y="861.0234"/><text fill="#000000" font-family="sans-serif" font-size="14" lengthAdjust="spacing" textLength="215" x="965" y="882.5566">:PersistenceContext&lt;persistence&gt;</text><rect fill="#E2E2F0" height="31.6094" rx="2.5" ry="2.5" style="stroke:#181818;stroke-width:0.5;" width="193" x="1197" y="861.0234"/><text fill="#000000" font-family="sans-serif" font-size="14" lengthAdjust="spacing" textLength="179" x="1204" y="882.5566">:RepositoryFactory&lt;factory&gt;</text><rect fill="#E2E2F0" height="31.6094" rx="2.5" ry="2.5" style="stroke:#181818;stroke-width:0.5;" width="159" x="1400" y="861.0234"/><text fill="#000000" font-family="sans-serif" font-size="14" lengthAdjust="spacing" textLength="145" x="1407" y="882.5566">:WarehouseRepository</text><rect fill="#FFFFFF" height="760.4141" style="stroke:#181818;stroke-width:1.0;" width="10" x="70.5" y="92.6094"/><rect fill="#FFFFFF" height="751.4141" style="stroke:#181818;stroke-width:1.0;" width="10" x="304.5" y="92.6094"/><rect fill="#FFFFFF" height="607.6563" style="stroke:#181818;stroke-width:1.0;" width="10" x="540.5" y="206.0156"/><rect fill="#FFFFFF" height="136.6641" style="stroke:#181818;stroke-width:1.0;" width="10" x="715.5" y="246.3672"/><rect fill="#FFFFFF" height="30.3516" style="stroke:#181818;stroke-width:1.0;" width="10" x="865.5" y="322.3281"/><rect fill="#FFFFFF" height="30" style="stroke:#181818;stroke-width:1.0;" width="10" x="865.5" y="413.3828"/><rect fill="#FFFFFF" height="30" style="stroke:#181818;stroke-width:1.0;" width="10" x="865.5" y="473.7344"/><rect fill="#FFFFFF" height="75.2188" style="stroke:#181818;stroke-width:1.0;" width="10" x="1067.5" y="574.4375"/><rect fill="#FFFFFF" height="72.9609" style="stroke:#181818;stroke-width:1.0;" width="10" x="1288.5" y="680.0078"/><rect fill="#FFFFFF" height="30.3516" style="stroke:#181818;stroke-width:1.0;" width="10" x="1474.5" y="783.3203"/><polygon fill="#181818" points="292.5,110.9609,302.5,114.9609,292.5,118.9609,296.5,114.9609" style="stroke:#181818;stroke-width:1.0;"/><line style="stroke:#181818;stroke-width:1.0;" x1="80.5" x2="298.5" y1="114.9609" y2="114.9609"/><text fill="#000000" font-family="sans-serif" font-size="13" font-weight="bold" lengthAdjust="spacing" textLength="7" x="87.5" y="110.1045">1</text><text fill="#000000" font-family="sans-serif" font-size="13" lengthAdjust="spacing" textLength="184" x="98.5" y="110.1045">Set up Warehouse Plant Option</text><polygon fill="#181818" points="91.5,141.3125,81.5,145.3125,91.5,149.3125,87.5,145.3125" style="stroke:#181818;stroke-width:1.0;"/><line style="stroke:#181818;stroke-width:1.0;" x1="85.5" x2="303.5" y1="145.3125" y2="145.3125"/><text fill="#000000" font-family="sans-serif" font-size="13" font-weight="bold" lengthAdjust="spacing" textLength="7" x="97.5" y="140.4561">2</text><text fill="#000000" font-family="sans-serif" font-size="13" lengthAdjust="spacing" textLength="142" x="108.5" y="140.4561">asks the name of the file</text><polygon fill="#181818" points="292.5,171.6641,302.5,175.6641,292.5,179.6641,296.5,175.6641" style="stroke:#181818;stroke-width:1.0;"/><line style="stroke:#181818;stroke-width:1.0;" x1="80.5" x2="298.5" y1="175.6641" y2="175.6641"/><text fill="#000000" font-family="sans-serif" font-size="13" font-weight="bold" lengthAdjust="spacing" textLength="7" x="87.5" y="170.8076">3</text><text fill="#000000" font-family="sans-serif" font-size="13" lengthAdjust="spacing" textLength="116" x="98.5" y="170.8076">introduces file name</text><polygon fill="#181818" points="528.5,202.0156,538.5,206.0156,528.5,210.0156,532.5,206.0156" style="stroke:#181818;stroke-width:1.0;"/><line style="stroke:#181818;stroke-width:1.0;" x1="314.5" x2="534.5" y1="206.0156" y2="206.0156"/><text fill="#000000" font-family="sans-serif" font-size="13" font-weight="bold" lengthAdjust="spacing" textLength="7" x="321.5" y="201.1592">4</text><text fill="#000000" font-family="sans-serif" font-size="13" lengthAdjust="spacing" textLength="179" x="332.5" y="201.1592">buildWarehousePlant(filename)</text><polygon fill="#181818" points="664,232.3672,674,236.3672,664,240.3672,668,236.3672" style="stroke:#181818;stroke-width:1.0;"/><line style="stroke:#181818;stroke-width:1.0;" x1="550.5" x2="670" y1="236.3672" y2="236.3672"/><text fill="#000000" font-family="sans-serif" font-size="13" font-weight="bold" lengthAdjust="spacing" textLength="7" x="557.5" y="231.5107">5</text><text fill="#000000" font-family="sans-serif" font-size="13" lengthAdjust="spacing" textLength="36" x="568.5" y="231.5107">create</text><rect fill="#E2E2F0" height="31.6094" rx="2.5" ry="2.5" style="stroke:#181818;stroke-width:0.5;" width="89" x="676" y="214.0156"/><text fill="#000000" font-family="sans-serif" font-size="14" lengthAdjust="spacing" textLength="75" x="683" y="235.5488">:JsonParser</text><line style="stroke:#181818;stroke-width:1.0;" x1="725.5" x2="767.5" y1="278.9766" y2="278.9766"/><line style="stroke:#181818;stroke-width:1.0;" x1="767.5" x2="767.5" y1="278.9766" y2="291.9766"/><line style="stroke:#181818;stroke-width:1.0;" x1="726.5" x2="767.5" y1="291.9766" y2="291.9766"/><polygon fill="#181818" points="736.5,287.9766,726.5,291.9766,736.5,295.9766,732.5,291.9766" style="stroke:#181818;stroke-width:1.0;"/><text fill="#000000" font-family="sans-serif" font-size="13" font-weight="bold" lengthAdjust="spacing" textLength="7" x="732.5" y="274.1201">6</text><text fill="#000000" font-family="sans-serif" font-size="13" lengthAdjust="spacing" textLength="110" x="743.5" y="274.1201">readJson(fileName)</text><polygon fill="#181818" points="853.5,318.3281,863.5,322.3281,853.5,326.3281,857.5,322.3281" style="stroke:#181818;stroke-width:1.0;"/><line style="stroke:#181818;stroke-width:1.0;" x1="725.5" x2="859.5" y1="322.3281" y2="322.3281"/><text fill="#000000" font-family="sans-serif" font-size="13" font-weight="bold" lengthAdjust="spacing" textLength="7" x="732.5" y="317.4717">7</text><text fill="#000000" font-family="sans-serif" font-size="13" lengthAdjust="spacing" textLength="110" x="743.5" y="317.4717">fromJson(fileName)</text><polygon fill="#181818" points="736.5,348.6797,726.5,352.6797,736.5,356.6797,732.5,352.6797" style="stroke:#181818;stroke-width:1.0;"/><line style="stroke:#181818;stroke-width:1.0;" x1="730.5" x2="869.5" y1="352.6797" y2="352.6797"/><text fill="#000000" font-family="sans-serif" font-size="13" font-weight="bold" lengthAdjust="spacing" textLength="7" x="742.5" y="347.8232">8</text><text fill="#000000" font-family="sans-serif" font-size="13" lengthAdjust="spacing" textLength="62" x="753.5" y="347.8232">warehouse</text><polygon fill="#181818" points="561.5,379.0313,551.5,383.0313,561.5,387.0313,557.5,383.0313" style="stroke:#181818;stroke-width:1.0;"/><line style="stroke:#181818;stroke-width:1.0;" x1="555.5" x2="719.5" y1="383.0313" y2="383.0313"/><text fill="#000000" font-family="sans-serif" font-size="13" font-weight="bold" lengthAdjust="spacing" textLength="7" x="567.5" y="378.1748">9</text><text fill="#000000" font-family="sans-serif" font-size="13" lengthAdjust="spacing" textLength="62" x="578.5" y="378.1748">warehouse</text><polygon fill="#181818" points="853.5,409.3828,863.5,413.3828,853.5,417.3828,857.5,413.3828" style="stroke:#181818;stroke-width:1.0;"/><line style="stroke:#181818;stroke-width:1.0;" x1="550.5" x2="859.5" y1="413.3828" y2="413.3828"/><text fill="#000000" font-family="sans-serif" font-size="13" font-weight="bold" lengthAdjust="spacing" textLength="14" x="557.5" y="408.5264">10</text><text fill="#000000" font-family="sans-serif" font-size="13" lengthAdjust="spacing" textLength="80" x="575.5" y="408.5264">buildShelves()</text><polygon fill="#181818" points="853.5,469.7344,863.5,473.7344,853.5,477.7344,857.5,473.7344" style="stroke:#181818;stroke-width:1.0;"/><line style="stroke:#181818;stroke-width:1.0;" x1="550.5" x2="859.5" y1="473.7344" y2="473.7344"/><text fill="#000000" font-family="sans-serif" font-size="13" font-weight="bold" lengthAdjust="spacing" textLength="14" x="557.5" y="468.8779">11</text><text fill="#000000" font-family="sans-serif" font-size="13" lengthAdjust="spacing" textLength="80" x="575.5" y="468.8779">setJsonPath()</text><polygon fill="#181818" points="561.5,530.0859,551.5,534.0859,561.5,538.0859,557.5,534.0859" style="stroke:#181818;stroke-width:1.0;"/><line style="stroke:#181818;stroke-width:1.0;" x1="555.5" x2="869.5" y1="534.0859" y2="534.0859"/><text fill="#000000" font-family="sans-serif" font-size="13" font-weight="bold" lengthAdjust="spacing" textLength="14" x="567.5" y="529.2295">12</text><text fill="#000000" font-family="sans-serif" font-size="13" lengthAdjust="spacing" textLength="62" x="585.5" y="529.2295">warehouse</text><polygon fill="#181818" points="946,560.4375,956,564.4375,946,568.4375,950,564.4375" style="stroke:#181818;stroke-width:1.0;"/><line style="stroke:#181818;stroke-width:1.0;" x1="550.5" x2="952" y1="564.4375" y2="564.4375"/><text fill="#000000" font-family="sans-serif" font-size="13" font-weight="bold" lengthAdjust="spacing" textLength="14" x="557.5" y="559.5811">13</text><text fill="#000000" font-family="sans-serif" font-size="13" lengthAdjust="spacing" textLength="75" x="575.5" y="559.5811">repositories()</text><rect fill="#E2E2F0" height="31.6094" rx="2.5" ry="2.5" style="stroke:#181818;stroke-width:0.5;" width="229" x="958" y="542.0859"/><text fill="#000000" font-family="sans-serif" font-size="14" lengthAdjust="spacing" textLength="215" x="965" y="563.6191">:PersistenceContext&lt;persistence&gt;</text><polygon fill="#181818" points="1185,603.0469,1195,607.0469,1185,611.0469,1189,607.0469" style="stroke:#181818;stroke-width:1.0;"/><line style="stroke:#181818;stroke-width:1.0;" x1="1077.5" x2="1191" y1="607.0469" y2="607.0469"/><text fill="#000000" font-family="sans-serif" font-size="13" font-weight="bold" lengthAdjust="spacing" textLength="14" x="1084.5" y="602.1904">14</text><text fill="#000000" font-family="sans-serif" font-size="13" lengthAdjust="spacing" textLength="36" x="1102.5" y="602.1904">create</text><rect fill="#E2E2F0" height="31.6094" rx="2.5" ry="2.5" style="stroke:#181818;stroke-width:0.5;" width="193" x="1197" y="584.6953"/><text fill="#000000" font-family="sans-serif" font-size="14" lengthAdjust="spacing" textLength="179" x="1204" y="606.2285">:RepositoryFactory&lt;factory&gt;</text><polygon fill="#181818" points="561.5,645.6563,551.5,649.6563,561.5,653.6563,557.5,649.6563" style="stroke:#181818;stroke-width:1.0;"/><line style="stroke:#181818;stroke-width:1.0;" x1="555.5" x2="1071.5" y1="649.6563" y2="649.6563"/><text fill="#000000" font-family="sans-serif" font-size="13" font-weight="bold" lengthAdjust="spacing" textLength="14" x="567.5" y="644.7998">15</text><text fill="#000000" font-family="sans-serif" font-size="13" lengthAdjust="spacing" textLength="39" x="585.5" y="644.7998">factory</text><polygon fill="#181818" points="1276.5,676.0078,1286.5,680.0078,1276.5,684.0078,1280.5,680.0078" style="stroke:#181818;stroke-width:1.0;"/><line style="stroke:#181818;stroke-width:1.0;" x1="550.5" x2="1282.5" y1="680.0078" y2="680.0078"/><text fill="#000000" font-family="sans-serif" font-size="13" font-weight="bold" lengthAdjust="spacing" textLength="14" x="557.5" y="675.1514">16</text><text fill="#000000" font-family="sans-serif" font-size="13" lengthAdjust="spacing" textLength="77" x="575.5" y="675.1514">warehouses()</text><polygon fill="#181818" points="1388,706.3594,1398,710.3594,1388,714.3594,1392,710.3594" style="stroke:#181818;stroke-width:1.0;"/><line style="stroke:#181818;stroke-width:1.0;" x1="1298.5" x2="1394" y1="710.3594" y2="710.3594"/><text fill="#000000" font-family="sans-serif" font-size="13" font-weight="bold" lengthAdjust="spacing" textLength="14" x="1305.5" y="705.5029">17</text><text fill="#000000" font-family="sans-serif" font-size="13" lengthAdjust="spacing" textLength="36" x="1323.5" y="705.5029">create</text><rect fill="#E2E2F0" height="31.6094" rx="2.5" ry="2.5" style="stroke:#181818;stroke-width:0.5;" width="159" x="1400" y="688.0078"/><text fill="#000000" font-family="sans-serif" font-size="14" lengthAdjust="spacing" textLength="145" x="1407" y="709.541">:WarehouseRepository</text><polygon fill="#181818" points="561.5,748.9688,551.5,752.9688,561.5,756.9688,557.5,752.9688" style="stroke:#181818;stroke-width:1.0;"/><line style="stroke:#181818;stroke-width:1.0;" x1="555.5" x2="1292.5" y1="752.9688" y2="752.9688"/><text fill="#000000" font-family="sans-serif" font-size="13" font-weight="bold" lengthAdjust="spacing" textLength="14" x="567.5" y="748.1123">18</text><text fill="#000000" font-family="sans-serif" font-size="13" lengthAdjust="spacing" textLength="124" x="585.5" y="748.1123">warehouseRepository</text><polygon fill="#181818" points="1462.5,779.3203,1472.5,783.3203,1462.5,787.3203,1466.5,783.3203" style="stroke:#181818;stroke-width:1.0;"/><line style="stroke:#181818;stroke-width:1.0;" x1="550.5" x2="1468.5" y1="783.3203" y2="783.3203"/><text fill="#000000" font-family="sans-serif" font-size="13" font-weight="bold" lengthAdjust="spacing" textLength="14" x="557.5" y="778.4639">19</text><text fill="#000000" font-family="sans-serif" font-size="13" lengthAdjust="spacing" textLength="96" x="575.5" y="778.4639">save(warehouse)</text><polygon fill="#181818" points="325.5,809.6719,315.5,813.6719,325.5,817.6719,321.5,813.6719" style="stroke:#181818;stroke-width:1.0;"/><line style="stroke:#181818;stroke-width:1.0;" x1="319.5" x2="544.5" y1="813.6719" y2="813.6719"/><text fill="#000000" font-family="sans-serif" font-size="13" font-weight="bold" lengthAdjust="spacing" textLength="14" x="331.5" y="808.8154">20</text><text fill="#000000" font-family="sans-serif" font-size="13" lengthAdjust="spacing" textLength="184" x="349.5" y="808.8154">confirmation is show to the user</text><polygon fill="#181818" points="91.5,840.0234,81.5,844.0234,91.5,848.0234,87.5,844.0234" style="stroke:#181818;stroke-width:1.0;"/><line style="stroke:#181818;stroke-width:1.0;" x1="85.5" x2="308.5" y1="844.0234" y2="844.0234"/><text fill="#000000" font-family="sans-serif" font-size="13" font-weight="bold" lengthAdjust="spacing" textLength="14" x="97.5" y="839.167">21</text><text fill="#000000" font-family="sans-serif" font-size="13" lengthAdjust="spacing" textLength="182" x="115.5" y="839.167">presents the user with the plant</text><!--MD5=[fa9b5c2aa70b5b9d0bdb2e928cb7e59f]
@startuml
autonumber
actor "WarehouseEmployee" as SC

participant  "WarehouseUI <presentation>" as SYS
participant ":WarehouseController <application>" as CTRL
participant ":JsonParser" as CSB
participant ":Warehouse<Domain>" as CUS
participant ":PersistenceContext<persistence>" as PC
participant ":RepositoryFactory<factory>" as RF
participant ":WarehouseRepository" as CR




activate SC
activate SYS

SC-> SYS: Set up Warehouse Plant Option

SYS-> SC: asks the name of the file

SC-> SYS: introduces file name

SYS-> CTRL : buildWarehousePlant(filename)

activate CTRL
CTRL-> CSB **: create

activate CSB
CSB-> CSB: readJson(fileName)

CSB -> CUS : fromJson(fileName)
activate CUS

CUS -> CSB: warehouse
deactivate CUS

CSB -> CTRL: warehouse

deactivate CSB
CTRL->CUS: buildShelves()
activate CUS
deactivate CUS
CTRL->CUS: setJsonPath()
activate CUS
deactivate CUS
CUS -> CTRL: warehouse
deactivate CUS


CTRL-> PC**: repositories()
activate PC
PC-> RF**: create
PC-> CTRL: factory
deactivate PC

CTRL-> RF: warehouses()
activate RF
RF->CR**: create

RF->CTRL: warehouseRepository
deactivate RF
CTRL->CR: save(warehouse)

deactivate PC
activate CR

CTRL -> SYS: confirmation is show to the user
deactivate CR
deactivate CTRL

SYS-> SC: presents the user with the plant
deactivate SYS
@enduml

PlantUML version 1.2022.4(Sat Apr 09 15:29:17 CEST 2022)
(GPL source distribution)
Java Runtime: OpenJDK Runtime Environment
JVM: OpenJDK 64-Bit Server VM
Default Encoding: Cp1252
Language: pt
Country: PT
--></g></svg>