<?xml version="1.0" encoding="UTF-8" standalone="no"?><svg xmlns="http://www.w3.org/2000/svg" xmlns:xlink="http://www.w3.org/1999/xlink" contentStyleType="text/css" height="275.4px" preserveAspectRatio="none" style="width:307px;height:275px;background:#FFFFFF;" version="1.1" viewBox="0 0 307 275" width="307.8px" zoomAndPan="magnify"><defs/><g><rect fill="#FFFFFF" height="110.1656" style="stroke:#181818;stroke-width:0.9;" width="9" x="65.25" y="83.3484"/><rect fill="#FFFFFF" height="27.3164" style="stroke:#181818;stroke-width:0.9;" width="9" x="269.55" y="103.4648"/><rect fill="#FFFFFF" height="27.3164" style="stroke:#181818;stroke-width:0.9;" width="9" x="269.55" y="158.0977"/><line style="stroke:#181818;stroke-width:0.45;stroke-dasharray:5.0,5.0;" x1="69.3" x2="69.3" y1="74.3484" y2="201.6141"/><line style="stroke:#181818;stroke-width:0.45;stroke-dasharray:5.0,5.0;" x1="274.05" x2="274.05" y1="74.3484" y2="201.6141"/><text fill="#000000" font-family="sans-serif" font-size="12.6" lengthAdjust="spacing" textLength="125.1" x="4.5" y="71.5799">Warehouse Employee</text><ellipse cx="69.75" cy="12.15" fill="#E2E2F0" rx="7.2" ry="7.2" style="stroke:#181818;stroke-width:0.45;"/><path d="M69.75,19.35 L69.75,43.65 M58.05,26.55 L81.45,26.55 M69.75,43.65 L58.05,57.15 M69.75,43.65 L81.45,57.15 " fill="none" style="stroke:#181818;stroke-width:0.45;"/><text fill="#000000" font-family="sans-serif" font-size="12.6" lengthAdjust="spacing" textLength="125.1" x="4.5" y="213.7939">Warehouse Employee</text><ellipse cx="69.75" cy="224.2125" fill="#E2E2F0" rx="7.2" ry="7.2" style="stroke:#181818;stroke-width:0.45;"/><path d="M69.75,231.4125 L69.75,255.7125 M58.05,238.6125 L81.45,238.6125 M69.75,255.7125 L58.05,269.2125 M69.75,255.7125 L81.45,269.2125 " fill="none" style="stroke:#181818;stroke-width:0.45;"/><rect fill="#E2E2F0" height="28.4484" rx="2.25" ry="2.25" style="stroke:#181818;stroke-width:0.45;" width="57.6" x="245.25" y="45"/><text fill="#000000" font-family="sans-serif" font-size="12.6" lengthAdjust="spacing" textLength="45" x="251.55" y="64.3799">:System</text><rect fill="#E2E2F0" height="28.4484" rx="2.25" ry="2.25" style="stroke:#181818;stroke-width:0.45;" width="57.6" x="245.25" y="200.7141"/><text fill="#000000" font-family="sans-serif" font-size="12.6" lengthAdjust="spacing" textLength="45" x="251.55" y="220.0939">:System</text><rect fill="#FFFFFF" height="110.1656" style="stroke:#181818;stroke-width:0.9;" width="9" x="65.25" y="83.3484"/><rect fill="#FFFFFF" height="27.3164" style="stroke:#181818;stroke-width:0.9;" width="9" x="269.55" y="103.4648"/><rect fill="#FFFFFF" height="27.3164" style="stroke:#181818;stroke-width:0.9;" width="9" x="269.55" y="158.0977"/><polygon fill="#181818" points="258.75,99.8648,267.75,103.4648,258.75,107.0648,262.35,103.4648" style="stroke:#181818;stroke-width:0.9;"/><line style="stroke:#181818;stroke-width:0.9;" x1="74.25" x2="264.15" y1="103.4648" y2="103.4648"/><text fill="#000000" font-family="sans-serif" font-size="11.7" font-weight="bold" lengthAdjust="spacing" textLength="6.3" x="80.55" y="99.094">1</text><text fill="#000000" font-family="sans-serif" font-size="11.7" lengthAdjust="spacing" textLength="122.4" x="90.45" y="99.094">Set up warehouse plant</text><polygon fill="#181818" points="84.15,127.1813,75.15,130.7813,84.15,134.3813,80.55,130.7813" style="stroke:#181818;stroke-width:0.9;"/><line style="stroke:#181818;stroke-width:0.9;stroke-dasharray:2.0,2.0;" x1="78.75" x2="273.15" y1="130.7813" y2="130.7813"/><text fill="#000000" font-family="sans-serif" font-size="11.7" font-weight="bold" lengthAdjust="spacing" textLength="6.3" x="89.55" y="126.4104">2</text><text fill="#000000" font-family="sans-serif" font-size="11.7" lengthAdjust="spacing" textLength="127.8" x="99.45" y="126.4104">asks the name of the file</text><polygon fill="#181818" points="258.75,154.4977,267.75,158.0977,258.75,161.6977,262.35,158.0977" style="stroke:#181818;stroke-width:0.9;"/><line style="stroke:#181818;stroke-width:0.9;" x1="74.25" x2="264.15" y1="158.0977" y2="158.0977"/><text fill="#000000" font-family="sans-serif" font-size="11.7" font-weight="bold" lengthAdjust="spacing" textLength="6.3" x="80.55" y="153.7269">3</text><text fill="#000000" font-family="sans-serif" font-size="11.7" lengthAdjust="spacing" textLength="104.4" x="90.45" y="153.7269">introduces file name</text><polygon fill="#181818" points="84.15,181.8141,75.15,185.4141,84.15,189.0141,80.55,185.4141" style="stroke:#181818;stroke-width:0.9;"/><line style="stroke:#181818;stroke-width:0.9;" x1="78.75" x2="273.15" y1="185.4141" y2="185.4141"/><text fill="#000000" font-family="sans-serif" font-size="11.7" font-weight="bold" lengthAdjust="spacing" textLength="6.3" x="89.55" y="181.0433">4</text><text fill="#000000" font-family="sans-serif" font-size="11.7" lengthAdjust="spacing" textLength="163.8" x="99.45" y="181.0433">presents the user with the plant</text><!--MD5=[228ac755e6495ac072a5b3d91fa55689]
@startuml
autonumber
actor "Warehouse Employee" as MEDLT

activate MEDLT
MEDLT-> ":System" : Set up warehouse plant

activate ":System"
":System" - -> MEDLT : asks the name of the file

deactivate ":System"


MEDLT-> ":System" : introduces file name

activate ":System"

":System" -> MEDLT : presents the user with the plant
deactivate ":System"

@enduml

PlantUML version 1.2022.4(Sat Apr 09 15:29:17 CEST 2022)
(GPL source distribution)
Java Runtime: OpenJDK Runtime Environment
JVM: OpenJDK 64-Bit Server VM
Default Encoding: Cp1252
Language: pt
Country: PT
--></g></svg>