<?xml version="1.0" encoding="UTF-8" standalone="no"?><svg xmlns="http://www.w3.org/2000/svg" xmlns:xlink="http://www.w3.org/1999/xlink" contentStyleType="text/css" height="830px" preserveAspectRatio="none" style="width:505px;height:830px;background:#FFFFFF;" version="1.1" viewBox="0 0 505 830" width="505px" zoomAndPan="magnify"><defs/><g><rect fill="#FFFFFF" height="646.3828" style="stroke:#181818;stroke-width:1.0;" width="10" x="107.5" y="92.6094"/><rect fill="#FFFFFF" height="30.3516" style="stroke:#181818;stroke-width:1.0;" width="10" x="432.5" y="114.9609"/><rect fill="#FFFFFF" height="528.9766" style="stroke:#181818;stroke-width:1.0;" width="10" x="432.5" y="201.0156"/><rect height="356.2188" style="stroke:#000000;stroke-width:1.5;fill:none;" width="489.5" x="10" y="160.3125"/><rect height="172.1094" style="stroke:#000000;stroke-width:1.5;fill:none;" width="469.5" x="20" y="337.4219"/><rect height="79.0547" style="stroke:#000000;stroke-width:1.5;fill:none;" width="449.5" x="30" y="423.4766"/><rect height="170.1094" style="stroke:#000000;stroke-width:1.5;fill:none;" width="449.5" x="30" y="530.5313"/><line style="stroke:#181818;stroke-width:0.5;fill:none;stroke-dasharray:5.0,5.0;" x1="112" x2="112" y1="82.6094" y2="747.9922"/><line style="stroke:#181818;stroke-width:0.5;fill:none;stroke-dasharray:5.0,5.0;" x1="437.5" x2="437.5" y1="82.6094" y2="747.9922"/><text fill="#000000" font-family="sans-serif" font-size="14" lengthAdjust="spacing" textLength="139" x="40" y="79.5332">Warehouse Employee</text><ellipse cx="112.5" cy="13.5" fill="#E2E2F0" rx="8" ry="8" style="stroke:#181818;stroke-width:0.5;"/><path d="M112.5,21.5 L112.5,48.5 M99.5,29.5 L125.5,29.5 M112.5,48.5 L99.5,63.5 M112.5,48.5 L125.5,63.5 " fill="none" style="stroke:#181818;stroke-width:0.5;"/><text fill="#000000" font-family="sans-serif" font-size="14" lengthAdjust="spacing" textLength="139" x="40" y="761.5254">Warehouse Employee</text><ellipse cx="112.5" cy="773.1016" fill="#E2E2F0" rx="8" ry="8" style="stroke:#181818;stroke-width:0.5;"/><path d="M112.5,781.1016 L112.5,808.1016 M99.5,789.1016 L125.5,789.1016 M112.5,808.1016 L99.5,823.1016 M112.5,808.1016 L125.5,823.1016 " fill="none" style="stroke:#181818;stroke-width:0.5;"/><rect fill="#E2E2F0" height="31.6094" rx="2.5" ry="2.5" style="stroke:#181818;stroke-width:0.5;" width="64" x="405.5" y="50"/><text fill="#000000" font-family="sans-serif" font-size="14" lengthAdjust="spacing" textLength="50" x="412.5" y="71.5332">:System</text><rect fill="#E2E2F0" height="31.6094" rx="2.5" ry="2.5" style="stroke:#181818;stroke-width:0.5;" width="64" x="405.5" y="746.9922"/><text fill="#000000" font-family="sans-serif" font-size="14" lengthAdjust="spacing" textLength="50" x="412.5" y="768.5254">:System</text><rect fill="#FFFFFF" height="646.3828" style="stroke:#181818;stroke-width:1.0;" width="10" x="107.5" y="92.6094"/><rect fill="#FFFFFF" height="30.3516" style="stroke:#181818;stroke-width:1.0;" width="10" x="432.5" y="114.9609"/><rect fill="#FFFFFF" height="528.9766" style="stroke:#181818;stroke-width:1.0;" width="10" x="432.5" y="201.0156"/><polygon fill="#181818" points="420.5,110.9609,430.5,114.9609,420.5,118.9609,424.5,114.9609" style="stroke:#181818;stroke-width:1.0;"/><line style="stroke:#181818;stroke-width:1.0;" x1="117.5" x2="426.5" y1="114.9609" y2="114.9609"/><text fill="#000000" font-family="sans-serif" font-size="13" font-weight="bold" lengthAdjust="spacing" textLength="7" x="124.5" y="110.1045">1</text><text fill="#000000" font-family="sans-serif" font-size="13" lengthAdjust="spacing" textLength="106" x="135.5" y="110.1045">Define new Survey</text><polygon fill="#181818" points="128.5,141.3125,118.5,145.3125,128.5,149.3125,124.5,145.3125" style="stroke:#181818;stroke-width:1.0;"/><line style="stroke:#181818;stroke-width:1.0;stroke-dasharray:2.0,2.0;" x1="122.5" x2="436.5" y1="145.3125" y2="145.3125"/><text fill="#000000" font-family="sans-serif" font-size="13" font-weight="bold" lengthAdjust="spacing" textLength="7" x="134.5" y="140.4561">2</text><text fill="#000000" font-family="sans-serif" font-size="13" lengthAdjust="spacing" textLength="280" x="145.5" y="140.4561">Asks to select between inputting or importing txt</text><path d="M10,160.3125 L71,160.3125 L71,168.6641 L61,178.6641 L10,178.6641 L10,160.3125 " fill="#EEEEEE" style="stroke:#000000;stroke-width:1.5;"/><rect fill="none" height="356.2188" style="stroke:#000000;stroke-width:1.5;" width="489.5" x="10" y="160.3125"/><text fill="#000000" font-family="sans-serif" font-size="13" font-weight="bold" lengthAdjust="spacing" textLength="16" x="25" y="174.8076">alt</text><polygon fill="#181818" points="420.5,197.0156,430.5,201.0156,420.5,205.0156,424.5,201.0156" style="stroke:#181818;stroke-width:1.0;"/><line style="stroke:#181818;stroke-width:1.0;" x1="117.5" x2="426.5" y1="201.0156" y2="201.0156"/><text fill="#000000" font-family="sans-serif" font-size="13" font-weight="bold" lengthAdjust="spacing" textLength="7" x="124.5" y="196.1592">3</text><text fill="#000000" font-family="sans-serif" font-size="13" lengthAdjust="spacing" textLength="201" x="135.5" y="196.1592">selects inputting all the information</text><polygon fill="#181818" points="128.5,227.3672,118.5,231.3672,128.5,235.3672,124.5,231.3672" style="stroke:#181818;stroke-width:1.0;"/><line style="stroke:#181818;stroke-width:1.0;" x1="122.5" x2="431.5" y1="231.3672" y2="231.3672"/><text fill="#000000" font-family="sans-serif" font-size="13" font-weight="bold" lengthAdjust="spacing" textLength="7" x="134.5" y="226.5107">4</text><text fill="#000000" font-family="sans-serif" font-size="13" lengthAdjust="spacing" textLength="179" x="145.5" y="226.5107">asks survey related information</text><polygon fill="#181818" points="420.5,257.7188,430.5,261.7188,420.5,265.7188,424.5,261.7188" style="stroke:#181818;stroke-width:1.0;"/><line style="stroke:#181818;stroke-width:1.0;" x1="117.5" x2="426.5" y1="261.7188" y2="261.7188"/><text fill="#000000" font-family="sans-serif" font-size="13" font-weight="bold" lengthAdjust="spacing" textLength="7" x="124.5" y="256.8623">5</text><text fill="#000000" font-family="sans-serif" font-size="13" lengthAdjust="spacing" textLength="190" x="135.5" y="256.8623">inserts survey related information</text><polygon fill="#181818" points="128.5,288.0703,118.5,292.0703,128.5,296.0703,124.5,292.0703" style="stroke:#181818;stroke-width:1.0;"/><line style="stroke:#181818;stroke-width:1.0;" x1="122.5" x2="431.5" y1="292.0703" y2="292.0703"/><text fill="#000000" font-family="sans-serif" font-size="13" font-weight="bold" lengthAdjust="spacing" textLength="7" x="134.5" y="287.2139">6</text><text fill="#000000" font-family="sans-serif" font-size="13" lengthAdjust="spacing" textLength="219" x="145.5" y="287.2139">asks questionnaire related information</text><polygon fill="#181818" points="420.5,318.4219,430.5,322.4219,420.5,326.4219,424.5,322.4219" style="stroke:#181818;stroke-width:1.0;"/><line style="stroke:#181818;stroke-width:1.0;" x1="117.5" x2="426.5" y1="322.4219" y2="322.4219"/><text fill="#000000" font-family="sans-serif" font-size="13" font-weight="bold" lengthAdjust="spacing" textLength="7" x="124.5" y="317.5654">7</text><text fill="#000000" font-family="sans-serif" font-size="13" lengthAdjust="spacing" textLength="230" x="135.5" y="317.5654">inserts questionnaire related information</text><path d="M20,337.4219 L93,337.4219 L93,345.7734 L83,355.7734 L20,355.7734 L20,337.4219 " fill="#EEEEEE" style="stroke:#000000;stroke-width:1.5;"/><rect fill="none" height="172.1094" style="stroke:#000000;stroke-width:1.5;" width="469.5" x="20" y="337.4219"/><text fill="#000000" font-family="sans-serif" font-size="13" font-weight="bold" lengthAdjust="spacing" textLength="28" x="35" y="351.917">loop</text><text fill="#000000" font-family="sans-serif" font-size="11" font-weight="bold" lengthAdjust="spacing" textLength="249" x="108" y="350.8408">[while doesn't want to define more sections]</text><polygon fill="#181818" points="128.5,374.125,118.5,378.125,128.5,382.125,124.5,378.125" style="stroke:#181818;stroke-width:1.0;"/><line style="stroke:#181818;stroke-width:1.0;" x1="122.5" x2="431.5" y1="378.125" y2="378.125"/><text fill="#000000" font-family="sans-serif" font-size="13" font-weight="bold" lengthAdjust="spacing" textLength="7" x="134.5" y="373.2686">8</text><text fill="#000000" font-family="sans-serif" font-size="13" lengthAdjust="spacing" textLength="184" x="145.5" y="373.2686">asks section related information</text><polygon fill="#181818" points="420.5,404.4766,430.5,408.4766,420.5,412.4766,424.5,408.4766" style="stroke:#181818;stroke-width:1.0;"/><line style="stroke:#181818;stroke-width:1.0;" x1="117.5" x2="426.5" y1="408.4766" y2="408.4766"/><text fill="#000000" font-family="sans-serif" font-size="13" font-weight="bold" lengthAdjust="spacing" textLength="7" x="124.5" y="403.6201">9</text><text fill="#000000" font-family="sans-serif" font-size="13" lengthAdjust="spacing" textLength="195" x="135.5" y="403.6201">inserts section related information</text><path d="M30,423.4766 L103,423.4766 L103,431.8281 L93,441.8281 L30,441.8281 L30,423.4766 " fill="#EEEEEE" style="stroke:#000000;stroke-width:1.5;"/><rect fill="none" height="79.0547" style="stroke:#000000;stroke-width:1.5;" width="449.5" x="30" y="423.4766"/><text fill="#000000" font-family="sans-serif" font-size="13" font-weight="bold" lengthAdjust="spacing" textLength="28" x="45" y="437.9717">loop</text><text fill="#000000" font-family="sans-serif" font-size="11" font-weight="bold" lengthAdjust="spacing" textLength="257" x="118" y="436.8955">[while doesn't want to define more questions]</text><polygon fill="#181818" points="128.5,460.1797,118.5,464.1797,128.5,468.1797,124.5,464.1797" style="stroke:#181818;stroke-width:1.0;"/><line style="stroke:#181818;stroke-width:1.0;" x1="122.5" x2="431.5" y1="464.1797" y2="464.1797"/><text fill="#000000" font-family="sans-serif" font-size="13" font-weight="bold" lengthAdjust="spacing" textLength="14" x="134.5" y="459.3232">10</text><text fill="#000000" font-family="sans-serif" font-size="13" lengthAdjust="spacing" textLength="191" x="152.5" y="459.3232">asks question related information</text><polygon fill="#181818" points="420.5,490.5313,430.5,494.5313,420.5,498.5313,424.5,494.5313" style="stroke:#181818;stroke-width:1.0;"/><line style="stroke:#181818;stroke-width:1.0;" x1="117.5" x2="426.5" y1="494.5313" y2="494.5313"/><text fill="#000000" font-family="sans-serif" font-size="13" font-weight="bold" lengthAdjust="spacing" textLength="14" x="124.5" y="489.6748">11</text><text fill="#000000" font-family="sans-serif" font-size="13" lengthAdjust="spacing" textLength="202" x="142.5" y="489.6748">inserts question related information</text><path d="M30,530.5313 L91,530.5313 L91,538.8828 L81,548.8828 L30,548.8828 L30,530.5313 " fill="#EEEEEE" style="stroke:#000000;stroke-width:1.5;"/><rect fill="none" height="170.1094" style="stroke:#000000;stroke-width:1.5;" width="449.5" x="30" y="530.5313"/><text fill="#000000" font-family="sans-serif" font-size="13" font-weight="bold" lengthAdjust="spacing" textLength="16" x="45" y="545.0264">alt</text><polygon fill="#181818" points="420.5,567.2344,430.5,571.2344,420.5,575.2344,424.5,571.2344" style="stroke:#181818;stroke-width:1.0;"/><line style="stroke:#181818;stroke-width:1.0;" x1="117.5" x2="426.5" y1="571.2344" y2="571.2344"/><text fill="#000000" font-family="sans-serif" font-size="13" font-weight="bold" lengthAdjust="spacing" textLength="14" x="124.5" y="566.3779">12</text><text fill="#000000" font-family="sans-serif" font-size="13" lengthAdjust="spacing" textLength="128" x="142.5" y="566.3779">selects to import a file</text><polygon fill="#181818" points="128.5,597.5859,118.5,601.5859,128.5,605.5859,124.5,601.5859" style="stroke:#181818;stroke-width:1.0;"/><line style="stroke:#181818;stroke-width:1.0;" x1="122.5" x2="431.5" y1="601.5859" y2="601.5859"/><text fill="#000000" font-family="sans-serif" font-size="13" font-weight="bold" lengthAdjust="spacing" textLength="14" x="134.5" y="596.7295">13</text><text fill="#000000" font-family="sans-serif" font-size="13" lengthAdjust="spacing" textLength="179" x="152.5" y="596.7295">asks survey related information</text><polygon fill="#181818" points="420.5,627.9375,430.5,631.9375,420.5,635.9375,424.5,631.9375" style="stroke:#181818;stroke-width:1.0;"/><line style="stroke:#181818;stroke-width:1.0;" x1="117.5" x2="426.5" y1="631.9375" y2="631.9375"/><text fill="#000000" font-family="sans-serif" font-size="13" font-weight="bold" lengthAdjust="spacing" textLength="14" x="124.5" y="627.0811">14</text><text fill="#000000" font-family="sans-serif" font-size="13" lengthAdjust="spacing" textLength="190" x="142.5" y="627.0811">inserts survey related information</text><polygon fill="#181818" points="128.5,658.2891,118.5,662.2891,128.5,666.2891,124.5,662.2891" style="stroke:#181818;stroke-width:1.0;"/><line style="stroke:#181818;stroke-width:1.0;" x1="122.5" x2="431.5" y1="662.2891" y2="662.2891"/><text fill="#000000" font-family="sans-serif" font-size="13" font-weight="bold" lengthAdjust="spacing" textLength="14" x="134.5" y="657.4326">15</text><text fill="#000000" font-family="sans-serif" font-size="13" lengthAdjust="spacing" textLength="135" x="152.5" y="657.4326">asks the path of the file</text><polygon fill="#181818" points="420.5,688.6406,430.5,692.6406,420.5,696.6406,424.5,692.6406" style="stroke:#181818;stroke-width:1.0;"/><line style="stroke:#181818;stroke-width:1.0;" x1="117.5" x2="426.5" y1="692.6406" y2="692.6406"/><text fill="#000000" font-family="sans-serif" font-size="13" font-weight="bold" lengthAdjust="spacing" textLength="14" x="124.5" y="687.7842">16</text><text fill="#000000" font-family="sans-serif" font-size="13" lengthAdjust="spacing" textLength="146" x="142.5" y="687.7842">inserts the path of the file</text><polygon fill="#181818" points="128.5,725.9922,118.5,729.9922,128.5,733.9922,124.5,729.9922" style="stroke:#181818;stroke-width:1.0;"/><line style="stroke:#181818;stroke-width:1.0;" x1="122.5" x2="436.5" y1="729.9922" y2="729.9922"/><text fill="#000000" font-family="sans-serif" font-size="13" font-weight="bold" lengthAdjust="spacing" textLength="14" x="134.5" y="725.1357">17</text><text fill="#000000" font-family="sans-serif" font-size="13" lengthAdjust="spacing" textLength="160" x="152.5" y="725.1357">presents the survey created</text><!--MD5=[3c5b273c3d3253aed69386a908bc5089]
@startuml
autonumber
actor "Warehouse Employee" as MEDLT

activate MEDLT
MEDLT-> ":System" : Define new Survey

activate ":System"
":System" - -> MEDLT : Asks to select between inputting or importing txt

deactivate ":System"

alt
MEDLT-> ":System" : selects inputting all the information
activate ":System"


":System" -> MEDLT : asks survey related information

MEDLT-> ":System" : inserts survey related information


":System" -> MEDLT : asks questionnaire related information

MEDLT-> ":System" : inserts questionnaire related information

loop while doesn't want to define more sections

":System" -> MEDLT : asks section related information

MEDLT-> ":System" : inserts section related information

loop while doesn't want to define more questions
":System" -> MEDLT : asks question related information

MEDLT-> ":System" : inserts question related information

end loop
end loop

end alt

alt
MEDLT-> ":System" : selects to import a file

":System" -> MEDLT : asks survey related information

MEDLT-> ":System" : inserts survey related information

":System" -> MEDLT : asks the path of the file

MEDLT-> ":System" : inserts the path of the file


end alt



":System" -> MEDLT : presents the survey created
deactivate ":System"
@enduml

PlantUML version 1.2022.4(Sat Apr 09 14:29:17 BST 2022)
(GPL source distribution)
Java Runtime: OpenJDK Runtime Environment
JVM: OpenJDK 64-Bit Server VM
Default Encoding: Cp1252
Language: pt
Country: PT
--></g></svg>