<?xml version="1.0" encoding="UTF-8" standalone="no"?><svg xmlns="http://www.w3.org/2000/svg" xmlns:xlink="http://www.w3.org/1999/xlink" contentScriptType="application/ecmascript" contentStyleType="text/css" height="1338px" preserveAspectRatio="none" style="width:666px;height:1338px;" version="1.1" viewBox="0 0 666 1338" width="666px" zoomAndPan="magnify">
    <defs>
        <filter height="300%" id="f2lfck4983zm6" width="300%" x="-1" y="-1">
            <feGaussianBlur result="blurOut" stdDeviation="2.0" />
            <feColorMatrix in="blurOut" result="blurOut2" type="matrix" values="0 0 0 0 0 0 0 0 0 0 0 0 0 0 0 0 0 0 .4 0" />
            <feOffset dx="4.0" dy="4.0" in="blurOut2" result="blurOut3" />
            <feBlend in="SourceGraphic" in2="blurOut3" mode="normal" />
        </filter>
    </defs>
    <g>
        <!--class UI-->
        <rect fill="#FEFECE" filter="url(#f2lfck4983zm6)" height="61.8359" id="UI" style="stroke: #A80036; stroke-width: 1.5;" width="154" x="441" y="8" />
        <ellipse cx="456" cy="24" fill="#ADD1B2" rx="11" ry="11" style="stroke: #A80036; stroke-width: 1.0;" />
        <path d="M458.7656,19.875 Q458.9219,19.6563 459.1094,19.5469 Q459.2969,19.4375 459.5156,19.4375 Q459.8906,19.4375 460.125,19.6953 Q460.3594,19.9531 460.3594,20.5625 L460.3594,22.0156 Q460.3594,22.625 460.125,22.8906 Q459.8906,23.1563 459.5156,23.1563 Q459.1719,23.1563 458.9688,22.9531 Q458.7656,22.7656 458.6563,22.25 Q458.6094,21.8906 458.4219,21.7031 Q458.0938,21.3281 457.4844,21.1094 Q456.875,20.8906 456.25,20.8906 Q455.4844,20.8906 454.8516,21.2188 Q454.2188,21.5469 453.7266,22.2969 Q453.2344,23.0469 453.2344,24.0781 L453.2344,25.1719 Q453.2344,26.4063 454.125,27.2266 Q455.0156,28.0469 456.6094,28.0469 Q457.5469,28.0469 458.2031,27.7969 Q458.5938,27.6406 459.0156,27.2031 Q459.2813,26.9375 459.4297,26.8594 Q459.5781,26.7813 459.7813,26.7813 Q460.1094,26.7813 460.3672,27.0391 Q460.625,27.2969 460.625,27.6406 Q460.625,27.9844 460.2813,28.3906 Q459.7813,28.9688 458.9844,29.2969 Q457.9063,29.75 456.6094,29.75 Q455.0938,29.75 453.8906,29.125 Q452.9063,28.625 452.2188,27.5547 Q451.5313,26.4844 451.5313,25.2031 L451.5313,24.0469 Q451.5313,22.7188 452.1484,21.5703 Q452.7656,20.4219 453.8594,19.8047 Q454.9531,19.1875 456.1875,19.1875 Q456.9219,19.1875 457.5703,19.3516 Q458.2188,19.5156 458.7656,19.875 Z " /><text fill="#000000" font-family="sans-serif" font-size="12" lengthAdjust="spacingAndGlyphs" textLength="122" x="470" y="28.9102">CreateProductOrderUI</text>
        <line style="stroke: #A80036; stroke-width: 1.5;" x1="442" x2="594" y1="40" y2="40" />
        <line style="stroke: #A80036; stroke-width: 1.5;" x1="442" x2="594" y1="48" y2="48" /><text fill="#000000" font-family="sans-serif" font-size="11" lengthAdjust="spacingAndGlyphs" textLength="30" x="447" y="63.4189">+run()</text>
        <!--class CTRL-->
        <rect fill="#FEFECE" filter="url(#f2lfck4983zm6)" height="48" id="CTRL" style="stroke: #A80036; stroke-width: 1.5;" width="196" x="420" y="131" />
        <ellipse cx="435" cy="147" fill="#ADD1B2" rx="11" ry="11" style="stroke: #A80036; stroke-width: 1.0;" />
        <path d="M437.7656,142.875 Q437.9219,142.6563 438.1094,142.5469 Q438.2969,142.4375 438.5156,142.4375 Q438.8906,142.4375 439.125,142.6953 Q439.3594,142.9531 439.3594,143.5625 L439.3594,145.0156 Q439.3594,145.625 439.125,145.8906 Q438.8906,146.1563 438.5156,146.1563 Q438.1719,146.1563 437.9688,145.9531 Q437.7656,145.7656 437.6563,145.25 Q437.6094,144.8906 437.4219,144.7031 Q437.0938,144.3281 436.4844,144.1094 Q435.875,143.8906 435.25,143.8906 Q434.4844,143.8906 433.8516,144.2188 Q433.2188,144.5469 432.7266,145.2969 Q432.2344,146.0469 432.2344,147.0781 L432.2344,148.1719 Q432.2344,149.4063 433.125,150.2266 Q434.0156,151.0469 435.6094,151.0469 Q436.5469,151.0469 437.2031,150.7969 Q437.5938,150.6406 438.0156,150.2031 Q438.2813,149.9375 438.4297,149.8594 Q438.5781,149.7813 438.7813,149.7813 Q439.1094,149.7813 439.3672,150.0391 Q439.625,150.2969 439.625,150.6406 Q439.625,150.9844 439.2813,151.3906 Q438.7813,151.9688 437.9844,152.2969 Q436.9063,152.75 435.6094,152.75 Q434.0938,152.75 432.8906,152.125 Q431.9063,151.625 431.2188,150.5547 Q430.5313,149.4844 430.5313,148.2031 L430.5313,147.0469 Q430.5313,145.7188 431.1484,144.5703 Q431.7656,143.4219 432.8594,142.8047 Q433.9531,142.1875 435.1875,142.1875 Q435.9219,142.1875 436.5703,142.3516 Q437.2188,142.5156 437.7656,142.875 Z " /><text fill="#000000" font-family="sans-serif" font-size="12" lengthAdjust="spacingAndGlyphs" textLength="164" x="449" y="151.9102">CreateProductOrderController</text>
        <line style="stroke: #A80036; stroke-width: 1.5;" x1="421" x2="615" y1="163" y2="163" />
        <line style="stroke: #A80036; stroke-width: 1.5;" x1="421" x2="615" y1="171" y2="171" />
        <!--class PCON-->
        <rect fill="#FEFECE" filter="url(#f2lfck4983zm6)" height="89.5078" id="PCON" style="stroke: #A80036; stroke-width: 1.5;" width="160" x="258" y="257" />
        <ellipse cx="282.45" cy="273" fill="#ADD1B2" rx="11" ry="11" style="stroke: #A80036; stroke-width: 1.0;" />
        <path d="M285.2156,268.875 Q285.3719,268.6563 285.5594,268.5469 Q285.7469,268.4375 285.9656,268.4375 Q286.3406,268.4375 286.575,268.6953 Q286.8094,268.9531 286.8094,269.5625 L286.8094,271.0156 Q286.8094,271.625 286.575,271.8906 Q286.3406,272.1563 285.9656,272.1563 Q285.6219,272.1563 285.4188,271.9531 Q285.2156,271.7656 285.1063,271.25 Q285.0594,270.8906 284.8719,270.7031 Q284.5438,270.3281 283.9344,270.1094 Q283.325,269.8906 282.7,269.8906 Q281.9344,269.8906 281.3016,270.2188 Q280.6688,270.5469 280.1766,271.2969 Q279.6844,272.0469 279.6844,273.0781 L279.6844,274.1719 Q279.6844,275.4063 280.575,276.2266 Q281.4656,277.0469 283.0594,277.0469 Q283.9969,277.0469 284.6531,276.7969 Q285.0438,276.6406 285.4656,276.2031 Q285.7313,275.9375 285.8797,275.8594 Q286.0281,275.7813 286.2313,275.7813 Q286.5594,275.7813 286.8172,276.0391 Q287.075,276.2969 287.075,276.6406 Q287.075,276.9844 286.7313,277.3906 Q286.2313,277.9688 285.4344,278.2969 Q284.3563,278.75 283.0594,278.75 Q281.5438,278.75 280.3406,278.125 Q279.3563,277.625 278.6688,276.5547 Q277.9813,275.4844 277.9813,274.2031 L277.9813,273.0469 Q277.9813,271.7188 278.5984,270.5703 Q279.2156,269.4219 280.3094,268.8047 Q281.4031,268.1875 282.6375,268.1875 Q283.3719,268.1875 284.0203,268.3516 Q284.6688,268.5156 285.2156,268.875 Z " /><text fill="#000000" font-family="sans-serif" font-size="12" lengthAdjust="spacingAndGlyphs" textLength="107" x="298.55" y="277.9102">PersistenceContext</text>
        <line style="stroke: #A80036; stroke-width: 1.5;" x1="259" x2="417" y1="289" y2="289" /><text fill="#000000" font-family="sans-serif" font-size="11" lengthAdjust="spacingAndGlyphs" textLength="84" x="264" y="304.4189">-Logger LOGGER</text><text fill="#000000" font-family="sans-serif" font-size="11" lengthAdjust="spacingAndGlyphs" textLength="148" x="264" y="318.2549">-RepositoryFactory theFactory</text>
        <line style="stroke: #A80036; stroke-width: 1.5;" x1="259" x2="417" y1="324.6719" y2="324.6719" /><text fill="#000000" font-family="sans-serif" font-size="11" lengthAdjust="spacingAndGlyphs" textLength="71" x="264" y="340.0908">+repositories()</text>
        <!--class ORDER-->
        <rect fill="#FEFECE" filter="url(#f2lfck4983zm6)" height="158.6875" id="ORDER" style="stroke: #A80036; stroke-width: 1.5;" width="141" x="447.5" y="807" />
        <ellipse cx="498.25" cy="823" fill="#ADD1B2" rx="11" ry="11" style="stroke: #A80036; stroke-width: 1.0;" />
        <path d="M501.0156,818.875 Q501.1719,818.6563 501.3594,818.5469 Q501.5469,818.4375 501.7656,818.4375 Q502.1406,818.4375 502.375,818.6953 Q502.6094,818.9531 502.6094,819.5625 L502.6094,821.0156 Q502.6094,821.625 502.375,821.8906 Q502.1406,822.1563 501.7656,822.1563 Q501.4219,822.1563 501.2188,821.9531 Q501.0156,821.7656 500.9063,821.25 Q500.8594,820.8906 500.6719,820.7031 Q500.3438,820.3281 499.7344,820.1094 Q499.125,819.8906 498.5,819.8906 Q497.7344,819.8906 497.1016,820.2188 Q496.4688,820.5469 495.9766,821.2969 Q495.4844,822.0469 495.4844,823.0781 L495.4844,824.1719 Q495.4844,825.4063 496.375,826.2266 Q497.2656,827.0469 498.8594,827.0469 Q499.7969,827.0469 500.4531,826.7969 Q500.8438,826.6406 501.2656,826.2031 Q501.5313,825.9375 501.6797,825.8594 Q501.8281,825.7813 502.0313,825.7813 Q502.3594,825.7813 502.6172,826.0391 Q502.875,826.2969 502.875,826.6406 Q502.875,826.9844 502.5313,827.3906 Q502.0313,827.9688 501.2344,828.2969 Q500.1563,828.75 498.8594,828.75 Q497.3438,828.75 496.1406,828.125 Q495.1563,827.625 494.4688,826.5547 Q493.7813,825.4844 493.7813,824.2031 L493.7813,823.0469 Q493.7813,821.7188 494.3984,820.5703 Q495.0156,819.4219 496.1094,818.8047 Q497.2031,818.1875 498.4375,818.1875 Q499.1719,818.1875 499.8203,818.3516 Q500.4688,818.5156 501.0156,818.875 Z " /><text fill="#000000" font-family="sans-serif" font-size="12" lengthAdjust="spacingAndGlyphs" textLength="31" x="518.75" y="827.9102">Order</text>
        <line style="stroke: #A80036; stroke-width: 1.5;" x1="448.5" x2="587.5" y1="839" y2="839" /><text fill="#000000" font-family="sans-serif" font-size="11" lengthAdjust="spacingAndGlyphs" textLength="26" x="453.5" y="854.4189">-int id</text><text fill="#000000" font-family="sans-serif" font-size="11" lengthAdjust="spacingAndGlyphs" textLength="50" x="453.5" y="868.2549">-Date date</text><text fill="#000000" font-family="sans-serif" font-size="11" lengthAdjust="spacingAndGlyphs" textLength="74" x="453.5" y="882.0908">-int customer id</text><text fill="#000000" font-family="sans-serif" font-size="11" lengthAdjust="spacingAndGlyphs" textLength="117" x="453.5" y="895.9268">-Address billingAddress</text><text fill="#000000" font-family="sans-serif" font-size="11" lengthAdjust="spacingAndGlyphs" textLength="129" x="453.5" y="909.7627">-Address deliveryAddress</text><text fill="#000000" font-family="sans-serif" font-size="11" lengthAdjust="spacingAndGlyphs" textLength="96" x="453.5" y="923.5986">-double totalAmount</text><text fill="#000000" font-family="sans-serif" font-size="11" lengthAdjust="spacingAndGlyphs" textLength="78" x="453.5" y="937.4346">-String payCode</text><text fill="#000000" font-family="sans-serif" font-size="11" lengthAdjust="spacingAndGlyphs" textLength="56" x="453.5" y="951.2705">-State state</text>
        <line style="stroke: #A80036; stroke-width: 1.5;" x1="448.5" x2="587.5" y1="957.6875" y2="957.6875" />
        <!--class ORDERREPO-->
        <rect fill="#FEFECE" filter="url(#f2lfck4983zm6)" height="48" id="ORDERREPO" style="stroke: #A80036; stroke-width: 1.5;" width="122" x="343" y="630" />
        <ellipse cx="358" cy="646" fill="#ADD1B2" rx="11" ry="11" style="stroke: #A80036; stroke-width: 1.0;" />
        <path d="M360.7656,641.875 Q360.9219,641.6563 361.1094,641.5469 Q361.2969,641.4375 361.5156,641.4375 Q361.8906,641.4375 362.125,641.6953 Q362.3594,641.9531 362.3594,642.5625 L362.3594,644.0156 Q362.3594,644.625 362.125,644.8906 Q361.8906,645.1563 361.5156,645.1563 Q361.1719,645.1563 360.9688,644.9531 Q360.7656,644.7656 360.6563,644.25 Q360.6094,643.8906 360.4219,643.7031 Q360.0938,643.3281 359.4844,643.1094 Q358.875,642.8906 358.25,642.8906 Q357.4844,642.8906 356.8516,643.2188 Q356.2188,643.5469 355.7266,644.2969 Q355.2344,645.0469 355.2344,646.0781 L355.2344,647.1719 Q355.2344,648.4063 356.125,649.2266 Q357.0156,650.0469 358.6094,650.0469 Q359.5469,650.0469 360.2031,649.7969 Q360.5938,649.6406 361.0156,649.2031 Q361.2813,648.9375 361.4297,648.8594 Q361.5781,648.7813 361.7813,648.7813 Q362.1094,648.7813 362.3672,649.0391 Q362.625,649.2969 362.625,649.6406 Q362.625,649.9844 362.2813,650.3906 Q361.7813,650.9688 360.9844,651.2969 Q359.9063,651.75 358.6094,651.75 Q357.0938,651.75 355.8906,651.125 Q354.9063,650.625 354.2188,649.5547 Q353.5313,648.4844 353.5313,647.2031 L353.5313,646.0469 Q353.5313,644.7188 354.1484,643.5703 Q354.7656,642.4219 355.8594,641.8047 Q356.9531,641.1875 358.1875,641.1875 Q358.9219,641.1875 359.5703,641.3516 Q360.2188,641.5156 360.7656,641.875 Z " /><text fill="#000000" font-family="sans-serif" font-size="12" lengthAdjust="spacingAndGlyphs" textLength="90" x="372" y="650.9102">OrderRepository</text>
        <line style="stroke: #A80036; stroke-width: 1.5;" x1="344" x2="464" y1="662" y2="662" />
        <line style="stroke: #A80036; stroke-width: 1.5;" x1="344" x2="464" y1="670" y2="670" />
        <!--class CUST-->
        <rect fill="#FEFECE" filter="url(#f2lfck4983zm6)" height="117.1797" id="CUST" style="stroke: #A80036; stroke-width: 1.5;" width="156" x="6" y="828" />
        <ellipse cx="52.25" cy="844" fill="#ADD1B2" rx="11" ry="11" style="stroke: #A80036; stroke-width: 1.0;" />
        <path d="M55.0156,839.875 Q55.1719,839.6563 55.3594,839.5469 Q55.5469,839.4375 55.7656,839.4375 Q56.1406,839.4375 56.375,839.6953 Q56.6094,839.9531 56.6094,840.5625 L56.6094,842.0156 Q56.6094,842.625 56.375,842.8906 Q56.1406,843.1563 55.7656,843.1563 Q55.4219,843.1563 55.2188,842.9531 Q55.0156,842.7656 54.9063,842.25 Q54.8594,841.8906 54.6719,841.7031 Q54.3438,841.3281 53.7344,841.1094 Q53.125,840.8906 52.5,840.8906 Q51.7344,840.8906 51.1016,841.2188 Q50.4688,841.5469 49.9766,842.2969 Q49.4844,843.0469 49.4844,844.0781 L49.4844,845.1719 Q49.4844,846.4063 50.375,847.2266 Q51.2656,848.0469 52.8594,848.0469 Q53.7969,848.0469 54.4531,847.7969 Q54.8438,847.6406 55.2656,847.2031 Q55.5313,846.9375 55.6797,846.8594 Q55.8281,846.7813 56.0313,846.7813 Q56.3594,846.7813 56.6172,847.0391 Q56.875,847.2969 56.875,847.6406 Q56.875,847.9844 56.5313,848.3906 Q56.0313,848.9688 55.2344,849.2969 Q54.1563,849.75 52.8594,849.75 Q51.3438,849.75 50.1406,849.125 Q49.1563,848.625 48.4688,847.5547 Q47.7813,846.4844 47.7813,845.2031 L47.7813,844.0469 Q47.7813,842.7188 48.3984,841.5703 Q49.0156,840.4219 50.1094,839.8047 Q51.2031,839.1875 52.4375,839.1875 Q53.1719,839.1875 53.8203,839.3516 Q54.4688,839.5156 55.0156,839.875 Z " /><text fill="#000000" font-family="sans-serif" font-size="12" lengthAdjust="spacingAndGlyphs" textLength="55" x="72.75" y="848.9102">Customer</text>
        <line style="stroke: #A80036; stroke-width: 1.5;" x1="7" x2="161" y1="860" y2="860" /><text fill="#000000" font-family="sans-serif" font-size="11" lengthAdjust="spacingAndGlyphs" textLength="63" x="12" y="875.4189">-Name name;</text><text fill="#000000" font-family="sans-serif" font-size="11" lengthAdjust="spacingAndGlyphs" textLength="42" x="12" y="889.2549">-Vat vat;</text><text fill="#000000" font-family="sans-serif" font-size="11" lengthAdjust="spacingAndGlyphs" textLength="87" x="12" y="903.0908">-Date dateOfBirth;</text><text fill="#000000" font-family="sans-serif" font-size="11" lengthAdjust="spacingAndGlyphs" textLength="144" x="12" y="916.9268">-PhoneNumber phoneNumber;</text><text fill="#000000" font-family="sans-serif" font-size="11" lengthAdjust="spacingAndGlyphs" textLength="92" x="12" y="930.7627">-Address address;</text>
        <line style="stroke: #A80036; stroke-width: 1.5;" x1="7" x2="161" y1="937.1797" y2="937.1797" />
        <!--class CUSTREPO-->
        <rect fill="#FEFECE" filter="url(#f2lfck4983zm6)" height="61.8359" id="CUSTREPO" style="stroke: #A80036; stroke-width: 1.5;" width="146" x="59" y="623" />
        <ellipse cx="74" cy="639" fill="#ADD1B2" rx="11" ry="11" style="stroke: #A80036; stroke-width: 1.0;" />
        <path d="M76.7656,634.875 Q76.9219,634.6563 77.1094,634.5469 Q77.2969,634.4375 77.5156,634.4375 Q77.8906,634.4375 78.125,634.6953 Q78.3594,634.9531 78.3594,635.5625 L78.3594,637.0156 Q78.3594,637.625 78.125,637.8906 Q77.8906,638.1563 77.5156,638.1563 Q77.1719,638.1563 76.9688,637.9531 Q76.7656,637.7656 76.6563,637.25 Q76.6094,636.8906 76.4219,636.7031 Q76.0938,636.3281 75.4844,636.1094 Q74.875,635.8906 74.25,635.8906 Q73.4844,635.8906 72.8516,636.2188 Q72.2188,636.5469 71.7266,637.2969 Q71.2344,638.0469 71.2344,639.0781 L71.2344,640.1719 Q71.2344,641.4063 72.125,642.2266 Q73.0156,643.0469 74.6094,643.0469 Q75.5469,643.0469 76.2031,642.7969 Q76.5938,642.6406 77.0156,642.2031 Q77.2813,641.9375 77.4297,641.8594 Q77.5781,641.7813 77.7813,641.7813 Q78.1094,641.7813 78.3672,642.0391 Q78.625,642.2969 78.625,642.6406 Q78.625,642.9844 78.2813,643.3906 Q77.7813,643.9688 76.9844,644.2969 Q75.9063,644.75 74.6094,644.75 Q73.0938,644.75 71.8906,644.125 Q70.9063,643.625 70.2188,642.5547 Q69.5313,641.4844 69.5313,640.2031 L69.5313,639.0469 Q69.5313,637.7188 70.1484,636.5703 Q70.7656,635.4219 71.8594,634.8047 Q72.9531,634.1875 74.1875,634.1875 Q74.9219,634.1875 75.5703,634.3516 Q76.2188,634.5156 76.7656,634.875 Z " /><text fill="#000000" font-family="sans-serif" font-size="12" lengthAdjust="spacingAndGlyphs" textLength="114" x="88" y="643.9102">CustomerRepository</text>
        <line style="stroke: #A80036; stroke-width: 1.5;" x1="60" x2="204" y1="655" y2="655" />
        <line style="stroke: #A80036; stroke-width: 1.5;" x1="60" x2="204" y1="663" y2="663" /><text fill="#000000" font-family="sans-serif" font-size="11" lengthAdjust="spacingAndGlyphs" textLength="92" x="65" y="678.4189">+getCustomerList()</text>
        <!--class PROD-->
        <rect fill="#FEFECE" filter="url(#f2lfck4983zm6)" height="48" id="PROD" style="stroke: #A80036; stroke-width: 1.5;" width="74" x="462" y="1161.5" />
        <ellipse cx="477" cy="1177.5" fill="#ADD1B2" rx="11" ry="11" style="stroke: #A80036; stroke-width: 1.0;" />
        <path d="M479.7656,1173.375 Q479.9219,1173.1563 480.1094,1173.0469 Q480.2969,1172.9375 480.5156,1172.9375 Q480.8906,1172.9375 481.125,1173.1953 Q481.3594,1173.4531 481.3594,1174.0625 L481.3594,1175.5156 Q481.3594,1176.125 481.125,1176.3906 Q480.8906,1176.6563 480.5156,1176.6563 Q480.1719,1176.6563 479.9688,1176.4531 Q479.7656,1176.2656 479.6563,1175.75 Q479.6094,1175.3906 479.4219,1175.2031 Q479.0938,1174.8281 478.4844,1174.6094 Q477.875,1174.3906 477.25,1174.3906 Q476.4844,1174.3906 475.8516,1174.7188 Q475.2188,1175.0469 474.7266,1175.7969 Q474.2344,1176.5469 474.2344,1177.5781 L474.2344,1178.6719 Q474.2344,1179.9063 475.125,1180.7266 Q476.0156,1181.5469 477.6094,1181.5469 Q478.5469,1181.5469 479.2031,1181.2969 Q479.5938,1181.1406 480.0156,1180.7031 Q480.2813,1180.4375 480.4297,1180.3594 Q480.5781,1180.2813 480.7813,1180.2813 Q481.1094,1180.2813 481.3672,1180.5391 Q481.625,1180.7969 481.625,1181.1406 Q481.625,1181.4844 481.2813,1181.8906 Q480.7813,1182.4688 479.9844,1182.7969 Q478.9063,1183.25 477.6094,1183.25 Q476.0938,1183.25 474.8906,1182.625 Q473.9063,1182.125 473.2188,1181.0547 Q472.5313,1179.9844 472.5313,1178.7031 L472.5313,1177.5469 Q472.5313,1176.2188 473.1484,1175.0703 Q473.7656,1173.9219 474.8594,1173.3047 Q475.9531,1172.6875 477.1875,1172.6875 Q477.9219,1172.6875 478.5703,1172.8516 Q479.2188,1173.0156 479.7656,1173.375 Z " /><text fill="#000000" font-family="sans-serif" font-size="12" lengthAdjust="spacingAndGlyphs" textLength="42" x="491" y="1182.4102">Product</text>
        <line style="stroke: #A80036; stroke-width: 1.5;" x1="463" x2="535" y1="1193.5" y2="1193.5" />
        <line style="stroke: #A80036; stroke-width: 1.5;" x1="463" x2="535" y1="1201.5" y2="1201.5" />
        <!--class PRODREPO-->
        <rect fill="#FEFECE" filter="url(#f2lfck4983zm6)" height="61.8359" id="PRODREPO" style="stroke: #A80036; stroke-width: 1.5;" width="133" x="239.5" y="715" />
        <ellipse cx="254.5" cy="731" fill="#ADD1B2" rx="11" ry="11" style="stroke: #A80036; stroke-width: 1.0;" />
        <path d="M257.2656,726.875 Q257.4219,726.6563 257.6094,726.5469 Q257.7969,726.4375 258.0156,726.4375 Q258.3906,726.4375 258.625,726.6953 Q258.8594,726.9531 258.8594,727.5625 L258.8594,729.0156 Q258.8594,729.625 258.625,729.8906 Q258.3906,730.1563 258.0156,730.1563 Q257.6719,730.1563 257.4688,729.9531 Q257.2656,729.7656 257.1563,729.25 Q257.1094,728.8906 256.9219,728.7031 Q256.5938,728.3281 255.9844,728.1094 Q255.375,727.8906 254.75,727.8906 Q253.9844,727.8906 253.3516,728.2188 Q252.7188,728.5469 252.2266,729.2969 Q251.7344,730.0469 251.7344,731.0781 L251.7344,732.1719 Q251.7344,733.4063 252.625,734.2266 Q253.5156,735.0469 255.1094,735.0469 Q256.0469,735.0469 256.7031,734.7969 Q257.0938,734.6406 257.5156,734.2031 Q257.7813,733.9375 257.9297,733.8594 Q258.0781,733.7813 258.2813,733.7813 Q258.6094,733.7813 258.8672,734.0391 Q259.125,734.2969 259.125,734.6406 Q259.125,734.9844 258.7813,735.3906 Q258.2813,735.9688 257.4844,736.2969 Q256.4063,736.75 255.1094,736.75 Q253.5938,736.75 252.3906,736.125 Q251.4063,735.625 250.7188,734.5547 Q250.0313,733.4844 250.0313,732.2031 L250.0313,731.0469 Q250.0313,729.7188 250.6484,728.5703 Q251.2656,727.4219 252.3594,726.8047 Q253.4531,726.1875 254.6875,726.1875 Q255.4219,726.1875 256.0703,726.3516 Q256.7188,726.5156 257.2656,726.875 Z " /><text fill="#000000" font-family="sans-serif" font-size="12" lengthAdjust="spacingAndGlyphs" textLength="101" x="268.5" y="735.9102">ProductRepository</text>
        <line style="stroke: #A80036; stroke-width: 1.5;" x1="240.5" x2="371.5" y1="747" y2="747" />
        <line style="stroke: #A80036; stroke-width: 1.5;" x1="240.5" x2="371.5" y1="755" y2="755" /><text fill="#000000" font-family="sans-serif" font-size="11" lengthAdjust="spacingAndGlyphs" textLength="83" x="245.5" y="770.4189">+getProductList()</text>
        <!--class REPOFAC-->
        <rect fill="#FEFECE" filter="url(#f2lfck4983zm6)" height="89.5078" id="REPOFAC" style="stroke: #A80036; stroke-width: 1.5;" width="130" x="272" y="455" />
        <ellipse cx="287" cy="471" fill="#ADD1B2" rx="11" ry="11" style="stroke: #A80036; stroke-width: 1.0;" />
        <path d="M289.7656,466.875 Q289.9219,466.6563 290.1094,466.5469 Q290.2969,466.4375 290.5156,466.4375 Q290.8906,466.4375 291.125,466.6953 Q291.3594,466.9531 291.3594,467.5625 L291.3594,469.0156 Q291.3594,469.625 291.125,469.8906 Q290.8906,470.1563 290.5156,470.1563 Q290.1719,470.1563 289.9688,469.9531 Q289.7656,469.7656 289.6563,469.25 Q289.6094,468.8906 289.4219,468.7031 Q289.0938,468.3281 288.4844,468.1094 Q287.875,467.8906 287.25,467.8906 Q286.4844,467.8906 285.8516,468.2188 Q285.2188,468.5469 284.7266,469.2969 Q284.2344,470.0469 284.2344,471.0781 L284.2344,472.1719 Q284.2344,473.4063 285.125,474.2266 Q286.0156,475.0469 287.6094,475.0469 Q288.5469,475.0469 289.2031,474.7969 Q289.5938,474.6406 290.0156,474.2031 Q290.2813,473.9375 290.4297,473.8594 Q290.5781,473.7813 290.7813,473.7813 Q291.1094,473.7813 291.3672,474.0391 Q291.625,474.2969 291.625,474.6406 Q291.625,474.9844 291.2813,475.3906 Q290.7813,475.9688 289.9844,476.2969 Q288.9063,476.75 287.6094,476.75 Q286.0938,476.75 284.8906,476.125 Q283.9063,475.625 283.2188,474.5547 Q282.5313,473.4844 282.5313,472.2031 L282.5313,471.0469 Q282.5313,469.7188 283.1484,468.5703 Q283.7656,467.4219 284.8594,466.8047 Q285.9531,466.1875 287.1875,466.1875 Q287.9219,466.1875 288.5703,466.3516 Q289.2188,466.5156 289.7656,466.875 Z " /><text fill="#000000" font-family="sans-serif" font-size="12" lengthAdjust="spacingAndGlyphs" textLength="98" x="301" y="475.9102">RepositoryFactory</text>
        <line style="stroke: #A80036; stroke-width: 1.5;" x1="273" x2="401" y1="487" y2="487" />
        <line style="stroke: #A80036; stroke-width: 1.5;" x1="273" x2="401" y1="495" y2="495" /><text fill="#000000" font-family="sans-serif" font-size="11" lengthAdjust="spacingAndGlyphs" textLength="100" x="278" y="510.4189">+getCustomerRepo()</text><text fill="#000000" font-family="sans-serif" font-size="11" lengthAdjust="spacingAndGlyphs" textLength="82" x="278" y="524.2549">+getOrderRepo()</text><text fill="#000000" font-family="sans-serif" font-size="11" lengthAdjust="spacingAndGlyphs" textLength="91" x="278" y="538.0908">+getProductRepo()</text>
        <!--class BUILDER-->
        <rect fill="#FEFECE" filter="url(#f2lfck4983zm6)" height="48" id="BUILDER" style="stroke: #A80036; stroke-width: 1.5;" width="102" x="553" y="377" />
        <ellipse cx="568" cy="393" fill="#ADD1B2" rx="11" ry="11" style="stroke: #A80036; stroke-width: 1.0;" />
        <path d="M570.7656,388.875 Q570.9219,388.6563 571.1094,388.5469 Q571.2969,388.4375 571.5156,388.4375 Q571.8906,388.4375 572.125,388.6953 Q572.3594,388.9531 572.3594,389.5625 L572.3594,391.0156 Q572.3594,391.625 572.125,391.8906 Q571.8906,392.1563 571.5156,392.1563 Q571.1719,392.1563 570.9688,391.9531 Q570.7656,391.7656 570.6563,391.25 Q570.6094,390.8906 570.4219,390.7031 Q570.0938,390.3281 569.4844,390.1094 Q568.875,389.8906 568.25,389.8906 Q567.4844,389.8906 566.8516,390.2188 Q566.2188,390.5469 565.7266,391.2969 Q565.2344,392.0469 565.2344,393.0781 L565.2344,394.1719 Q565.2344,395.4063 566.125,396.2266 Q567.0156,397.0469 568.6094,397.0469 Q569.5469,397.0469 570.2031,396.7969 Q570.5938,396.6406 571.0156,396.2031 Q571.2813,395.9375 571.4297,395.8594 Q571.5781,395.7813 571.7813,395.7813 Q572.1094,395.7813 572.3672,396.0391 Q572.625,396.2969 572.625,396.6406 Q572.625,396.9844 572.2813,397.3906 Q571.7813,397.9688 570.9844,398.2969 Q569.9063,398.75 568.6094,398.75 Q567.0938,398.75 565.8906,398.125 Q564.9063,397.625 564.2188,396.5547 Q563.5313,395.4844 563.5313,394.2031 L563.5313,393.0469 Q563.5313,391.7188 564.1484,390.5703 Q564.7656,389.4219 565.8594,388.8047 Q566.9531,388.1875 568.1875,388.1875 Q568.9219,388.1875 569.5703,388.3516 Q570.2188,388.5156 570.7656,388.875 Z " /><text fill="#000000" font-family="sans-serif" font-size="12" lengthAdjust="spacingAndGlyphs" textLength="70" x="582" y="397.9102">OrderBuilder</text>
        <line style="stroke: #A80036; stroke-width: 1.5;" x1="554" x2="654" y1="409" y2="409" />
        <line style="stroke: #A80036; stroke-width: 1.5;" x1="554" x2="654" y1="417" y2="417" />
        <!--class ADRS-->
        <rect fill="#FEFECE" filter="url(#f2lfck4983zm6)" height="283.2109" id="ADRS" style="stroke: #A80036; stroke-width: 1.5;" width="314" x="92" y="1044" />
        <ellipse cx="221.75" cy="1060" fill="#ADD1B2" rx="11" ry="11" style="stroke: #A80036; stroke-width: 1.0;" />
        <path d="M224.5156,1055.875 Q224.6719,1055.6563 224.8594,1055.5469 Q225.0469,1055.4375 225.2656,1055.4375 Q225.6406,1055.4375 225.875,1055.6953 Q226.1094,1055.9531 226.1094,1056.5625 L226.1094,1058.0156 Q226.1094,1058.625 225.875,1058.8906 Q225.6406,1059.1563 225.2656,1059.1563 Q224.9219,1059.1563 224.7188,1058.9531 Q224.5156,1058.7656 224.4063,1058.25 Q224.3594,1057.8906 224.1719,1057.7031 Q223.8438,1057.3281 223.2344,1057.1094 Q222.625,1056.8906 222,1056.8906 Q221.2344,1056.8906 220.6016,1057.2188 Q219.9688,1057.5469 219.4766,1058.2969 Q218.9844,1059.0469 218.9844,1060.0781 L218.9844,1061.1719 Q218.9844,1062.4063 219.875,1063.2266 Q220.7656,1064.0469 222.3594,1064.0469 Q223.2969,1064.0469 223.9531,1063.7969 Q224.3438,1063.6406 224.7656,1063.2031 Q225.0313,1062.9375 225.1797,1062.8594 Q225.3281,1062.7813 225.5313,1062.7813 Q225.8594,1062.7813 226.1172,1063.0391 Q226.375,1063.2969 226.375,1063.6406 Q226.375,1063.9844 226.0313,1064.3906 Q225.5313,1064.9688 224.7344,1065.2969 Q223.6563,1065.75 222.3594,1065.75 Q220.8438,1065.75 219.6406,1065.125 Q218.6563,1064.625 217.9688,1063.5547 Q217.2813,1062.4844 217.2813,1061.2031 L217.2813,1060.0469 Q217.2813,1058.7188 217.8984,1057.5703 Q218.5156,1056.4219 219.6094,1055.8047 Q220.7031,1055.1875 221.9375,1055.1875 Q222.6719,1055.1875 223.3203,1055.3516 Q223.9688,1055.5156 224.5156,1055.875 Z " /><text fill="#000000" font-family="sans-serif" font-size="12" lengthAdjust="spacingAndGlyphs" textLength="46" x="242.25" y="1064.9102">Address</text>
        <line style="stroke: #A80036; stroke-width: 1.5;" x1="93" x2="405" y1="1076" y2="1076" /><text fill="#000000" font-family="sans-serif" font-size="11" lengthAdjust="spacingAndGlyphs" textLength="89" x="98" y="1091.4189">-Name streetName</text><text fill="#000000" font-family="sans-serif" font-size="11" lengthAdjust="spacingAndGlyphs" textLength="115" x="98" y="1105.2549">-PostalCode postalCode</text><text fill="#000000" font-family="sans-serif" font-size="11" lengthAdjust="spacingAndGlyphs" textLength="99" x="98" y="1119.0908">-Integer doorNumber</text><text fill="#000000" font-family="sans-serif" font-size="11" lengthAdjust="spacingAndGlyphs" textLength="42" x="98" y="1132.9268">-City city</text><text fill="#000000" font-family="sans-serif" font-size="11" lengthAdjust="spacingAndGlyphs" textLength="82" x="98" y="1146.7627">-Country country</text><text fill="#000000" font-family="sans-serif" font-size="11" lengthAdjust="spacingAndGlyphs" textLength="137" x="98" y="1160.5986">-AddressType addressType</text>
        <line style="stroke: #A80036; stroke-width: 1.5;" x1="93" x2="405" y1="1167.0156" y2="1167.0156" /><text fill="#000000" font-family="sans-serif" font-size="11" lengthAdjust="spacingAndGlyphs" textLength="302" x="98" y="1182.4346">+Address(streetName, postalCode, doorNumber, city, country)</text><text fill="#000000" font-family="sans-serif" font-size="11" lengthAdjust="spacingAndGlyphs" textLength="52" x="98" y="1196.2705">+valueOf()</text><text fill="#000000" font-family="sans-serif" font-size="11" lengthAdjust="spacingAndGlyphs" textLength="69" x="98" y="1210.1064">+streetName()</text><text fill="#000000" font-family="sans-serif" font-size="11" lengthAdjust="spacingAndGlyphs" textLength="68" x="98" y="1223.9424">+postalCode()</text><text fill="#000000" font-family="sans-serif" font-size="11" lengthAdjust="spacingAndGlyphs" textLength="73" x="98" y="1237.7783">+doorNumber()</text><text fill="#000000" font-family="sans-serif" font-size="11" lengthAdjust="spacingAndGlyphs" textLength="31" x="98" y="1251.6143">+city()</text><text fill="#000000" font-family="sans-serif" font-size="11" lengthAdjust="spacingAndGlyphs" textLength="51" x="98" y="1265.4502">+country()</text><text fill="#000000" font-family="sans-serif" font-size="11" lengthAdjust="spacingAndGlyphs" textLength="78" x="98" y="1279.2861">+addressType()</text><text fill="#000000" font-family="sans-serif" font-size="11" lengthAdjust="spacingAndGlyphs" textLength="86" x="98" y="1293.1221">+equals(Object o)</text><text fill="#000000" font-family="sans-serif" font-size="11" lengthAdjust="spacingAndGlyphs" textLength="63" x="98" y="1306.958">+hashCode()</text><text fill="#000000" font-family="sans-serif" font-size="11" lengthAdjust="spacingAndGlyphs" textLength="51" x="98" y="1320.7939">+toString()</text>
        <!--class ADRSTYPE-->
        <rect fill="#FEFECE" filter="url(#f2lfck4983zm6)" height="75.6719" id="ADRSTYPE" style="stroke: #A80036; stroke-width: 1.5;" width="104" x="197" y="848.5" />
        <ellipse cx="212" cy="864.5" fill="#EB937F" rx="11" ry="11" style="stroke: #A80036; stroke-width: 1.0;" />
        <path d="M210.8594,865.2969 L210.8594,867.7969 L215.1875,867.7969 L215.1875,866.875 Q215.1875,866.2656 215.4297,866 Q215.6719,865.7344 216.0469,865.7344 Q216.4219,865.7344 216.6563,866 Q216.8906,866.2656 216.8906,866.875 L216.8906,869.5 L208.8906,869.5 Q208.2656,869.5 208.0078,869.2656 Q207.75,869.0313 207.75,868.6406 Q207.75,868.2656 208.0156,868.0313 Q208.2813,867.7969 208.8906,867.7969 L209.1563,867.7969 L209.1563,861.1406 L208.8906,861.1406 Q208.2656,861.1406 208.0078,860.9063 Q207.75,860.6719 207.75,860.2813 Q207.75,859.9063 208.0078,859.6719 Q208.2656,859.4375 208.8906,859.4375 L216.5156,859.4375 L216.5156,862.0313 Q216.5156,862.6406 216.2891,862.8984 Q216.0625,863.1563 215.6719,863.1563 Q215.2969,863.1563 215.0625,862.8984 Q214.8281,862.6406 214.8281,862.0313 L214.8281,861.1406 L210.8594,861.1406 L210.8594,863.5938 L212.3438,863.5938 Q212.3438,862.9375 212.4688,862.75 Q212.7344,862.3438 213.2031,862.3438 Q213.5781,862.3438 213.8125,862.6016 Q214.0469,862.8594 214.0469,863.4688 L214.0469,865.4375 Q214.0469,865.9844 213.9219,866.1719 Q213.6563,866.5625 213.2031,866.5625 Q212.7344,866.5625 212.4688,866.1563 Q212.3438,865.9688 212.3438,865.2969 L210.8594,865.2969 Z " /><text fill="#000000" font-family="sans-serif" font-size="12" lengthAdjust="spacingAndGlyphs" textLength="72" x="226" y="869.4102">AddressType</text>
        <line style="stroke: #A80036; stroke-width: 1.5;" x1="198" x2="300" y1="880.5" y2="880.5" /><text fill="#000000" font-family="sans-serif" font-size="11" lengthAdjust="spacingAndGlyphs" textLength="44" x="203" y="895.9189">+BILLING</text><text fill="#000000" font-family="sans-serif" font-size="11" lengthAdjust="spacingAndGlyphs" textLength="55" x="203" y="909.7549">+SHIPMENT</text>
        <line style="stroke: #A80036; stroke-width: 1.5;" x1="198" x2="300" y1="916.1719" y2="916.1719" />
        <!--link UI to CTRL-->
        <path d="M518,70.25 C518,87.47 518,108.89 518,125.76 " fill="none" id="UI-CTRL" style="stroke: #A80036; stroke-width: 1.0; stroke-dasharray: 7.0,7.0;" />
        <polygon fill="#A80036" points="518,130.84,522,121.84,518,125.84,514,121.84,518,130.84" style="stroke: #A80036; stroke-width: 1.0;" />
        <!--link CTRL to PCON-->
        <path d="M489.08,179.3 C464.257,199.29 427.696,228.75 396.758,253.67 " fill="none" id="CTRL-PCON" style="stroke: #A80036; stroke-width: 1.0;" />
        <polygon fill="#A80036" points="392.626,257,402.1413,254.4587,396.5164,253.8591,397.1159,248.2341,392.626,257" style="stroke: #A80036; stroke-width: 1.0;" /><text fill="#000000" font-family="sans-serif" font-size="13" lengthAdjust="spacingAndGlyphs" textLength="28" x="451" y="223.4951">uses</text><text fill="#000000" font-family="sans-serif" font-size="13" lengthAdjust="spacingAndGlyphs" textLength="7" x="474.5829" y="200.3051">1</text><text fill="#000000" font-family="sans-serif" font-size="13" lengthAdjust="spacingAndGlyphs" textLength="7" x="393.7742" y="246.1155">1</text>
        <!--link CTRL to BUILDER-->
        <path d="M530.298,179.14 C534.915,188.3 540.006,199.01 544,209 C566.653,265.68 586.462,334.478 596.668,372.096 " fill="none" id="CTRL-BUILDER" style="stroke: #A80036; stroke-width: 1.0; stroke-dasharray: 7.0,7.0;" />
        <polygon fill="#A80036" points="597.984,376.97,599.5006,367.2386,596.6811,372.1427,591.777,369.3232,597.984,376.97" style="stroke: #A80036; stroke-width: 1.0;" />
        <!--link CTRL to ORDER-->
        <path d="M518,179.1 C518,207.72 518,257.95 518,301 C518,301 518,301 518,655 C518,703.647 518,758.069 518,801.812 " fill="none" id="CTRL-ORDER" style="stroke: #A80036; stroke-width: 1.0;" />
        <polygon fill="#A80036" points="518,806.821,522,797.821,518,801.821,514,797.821,518,806.821" style="stroke: #A80036; stroke-width: 1.0;" /><text fill="#000000" font-family="sans-serif" font-size="13" lengthAdjust="spacingAndGlyphs" textLength="43" x="519" y="505.4951">creates</text><text fill="#000000" font-family="sans-serif" font-size="13" lengthAdjust="spacingAndGlyphs" textLength="7" x="510.1469" y="200.4623">1</text><text fill="#000000" font-family="sans-serif" font-size="13" lengthAdjust="spacingAndGlyphs" textLength="5" x="512.7695" y="796.2638">*</text>
        <!--link PCON to REPOFAC-->
        <path d="M337.773,347.475 C337.618,377.798 337.413,417.982 337.253,449.349 " fill="none" id="PCON-REPOFAC" style="stroke: #A80036; stroke-width: 1.0;" />
        <polygon fill="#A80036" points="337.226,454.701,341.2722,445.7217,337.2517,449.7011,333.2723,445.6805,337.226,454.701" style="stroke: #A80036; stroke-width: 1.0;" /><text fill="#000000" font-family="sans-serif" font-size="13" lengthAdjust="spacingAndGlyphs" textLength="43" x="339" y="406.4951">creates</text><text fill="#000000" font-family="sans-serif" font-size="13" lengthAdjust="spacingAndGlyphs" textLength="7" x="330.2955" y="367.8757">1</text><text fill="#000000" font-family="sans-serif" font-size="13" lengthAdjust="spacingAndGlyphs" textLength="7" x="329.7247" y="444.0993">1</text>
        <!--link REPOFAC to CUSTREPO-->
        <path d="M271.692,534.297 C250.895,546.052 228.294,560.087 209,575 C192.211,587.977 175.438,604.449 161.852,618.909 " fill="none" id="REPOFAC-CUSTREPO" style="stroke: #A80036; stroke-width: 1.0;" />
        <polygon fill="#A80036" points="158.108,622.929,167.1688,619.0688,161.5156,619.27,161.3144,613.6167,158.108,622.929" style="stroke: #A80036; stroke-width: 1.0;" /><text fill="#000000" font-family="sans-serif" font-size="13" lengthAdjust="spacingAndGlyphs" textLength="36" x="210" y="589.4951">stores</text><text fill="#000000" font-family="sans-serif" font-size="13" lengthAdjust="spacingAndGlyphs" textLength="7" x="257.1661" y="534.7145">1</text><text fill="#000000" font-family="sans-serif" font-size="13" lengthAdjust="spacingAndGlyphs" textLength="7" x="156.0535" y="611.9337">1</text>
        <!--link REPOFAC to ORDERREPO-->
        <path d="M356.559,545.373 C367.954,571.225 381.968,603.018 391.8,625.323 " fill="none" id="REPOFAC-ORDERREPO" style="stroke: #A80036; stroke-width: 1.0;" />
        <polygon fill="#A80036" points="393.832,629.933,393.8617,620.0842,391.8151,625.3578,386.5415,623.3112,393.832,629.933" style="stroke: #A80036; stroke-width: 1.0;" /><text fill="#000000" font-family="sans-serif" font-size="13" lengthAdjust="spacingAndGlyphs" textLength="36" x="378" y="589.4951">stores</text><text fill="#000000" font-family="sans-serif" font-size="13" lengthAdjust="spacingAndGlyphs" textLength="7" x="351.7169" y="566.0968">1</text><text fill="#000000" font-family="sans-serif" font-size="13" lengthAdjust="spacingAndGlyphs" textLength="7" x="383.3296" y="619.256">1</text>
        <!--link REPOFAC to PRODREPO-->
        <path d="M329.472,545.164 C327.902,554.973 326.324,565.329 325,575 C318.654,621.362 312.922,675.057 309.452,709.493 " fill="none" id="REPOFAC-PRODREPO" style="stroke: #A80036; stroke-width: 1.0;" />
        <polygon fill="#A80036" points="308.915,714.85,313.7926,706.2938,309.4137,709.8749,305.8325,705.4959,308.915,714.85" style="stroke: #A80036; stroke-width: 1.0;" /><text fill="#000000" font-family="sans-serif" font-size="13" lengthAdjust="spacingAndGlyphs" textLength="36" x="326" y="589.4951">stores</text><text fill="#000000" font-family="sans-serif" font-size="13" lengthAdjust="spacingAndGlyphs" textLength="7" x="320.9901" y="565.8597">1</text><text fill="#000000" font-family="sans-serif" font-size="13" lengthAdjust="spacingAndGlyphs" textLength="7" x="301.7943" y="704.3236">1</text>
        <!--link ORDERREPO to ORDER-->
        <path d="M412.431,678.373 C421.672,703.26 437.404,743.583 454,777 C458.104,785.263 462.593,793.75 467.229,802.161 " fill="none" id="ORDERREPO-ORDER" style="stroke: #A80036; stroke-width: 1.0;" />
        <polygon fill="#A80036" points="469.819,806.825,468.9459,797.0149,467.3913,802.4539,461.9522,800.8993,469.819,806.825" style="stroke: #A80036; stroke-width: 1.0;" /><text fill="#000000" font-family="sans-serif" font-size="13" lengthAdjust="spacingAndGlyphs" textLength="36" x="455" y="751.4951">stores</text><text fill="#000000" font-family="sans-serif" font-size="13" lengthAdjust="spacingAndGlyphs" textLength="7" x="406.5713" y="699.395">1</text><text fill="#000000" font-family="sans-serif" font-size="13" lengthAdjust="spacingAndGlyphs" textLength="5" x="460.1468" y="796.2682">*</text>
        <!--link PRODREPO to PROD-->
        <path d="M313.268,777.122 C326.254,827.971 356.241,933.19 400,1014 C408,1028.774 413.864,1029.9 423,1044 C447.378,1081.621 471.272,1127.751 485.573,1156.644 " fill="none" id="PRODREPO-PROD" style="stroke: #A80036; stroke-width: 1.0;" />
        <polygon fill="#A80036" points="487.957,1161.48,487.5664,1151.6389,485.7467,1156.9951,480.3905,1155.1754,487.957,1161.48" style="stroke: #A80036; stroke-width: 1.0;" /><text fill="#000000" font-family="sans-serif" font-size="13" lengthAdjust="spacingAndGlyphs" textLength="36" x="377" y="891.9951">stores</text><text fill="#000000" font-family="sans-serif" font-size="13" lengthAdjust="spacingAndGlyphs" textLength="7" x="307.0098" y="798.37">1</text><text fill="#000000" font-family="sans-serif" font-size="13" lengthAdjust="spacingAndGlyphs" textLength="5" x="479.4866" y="1150.815">*</text>
        <!--link CUSTREPO to CUST-->
        <path d="M125.725,685.134 C118.482,719.915 106.373,778.062 97.0602,822.784 " fill="none" id="CUSTREPO-CUST" style="stroke: #A80036; stroke-width: 1.0;" />
        <polygon fill="#A80036" points="95.9963,827.893,101.7459,819.8966,97.0149,822.9979,93.9137,818.2669,95.9963,827.893" style="stroke: #A80036; stroke-width: 1.0;" /><text fill="#000000" font-family="sans-serif" font-size="13" lengthAdjust="spacingAndGlyphs" textLength="36" x="121" y="751.4951">stores</text><text fill="#000000" font-family="sans-serif" font-size="13" lengthAdjust="spacingAndGlyphs" textLength="7" x="116.8005" y="706.3844">1</text><text fill="#000000" font-family="sans-serif" font-size="13" lengthAdjust="spacingAndGlyphs" textLength="5" x="92.1537" y="817.2809">*</text>
        <!--link ORDER to ADRS-->
        <path d="M447.323,965.533 C426.552,988.467 403.137,1014.319 379.867,1040.012 " fill="none" id="ORDER-ADRS" style="stroke: #A80036; stroke-width: 1.0;" />
        <polygon fill="#A80036" points="376.435,1043.801,385.4419,1039.8166,379.792,1040.0955,379.5131,1034.4455,376.435,1043.801" style="stroke: #A80036; stroke-width: 1.0;" /><text fill="#000000" font-family="sans-serif" font-size="13" lengthAdjust="spacingAndGlyphs" textLength="49" x="417" y="1010.4951">contains</text><text fill="#000000" font-family="sans-serif" font-size="13" lengthAdjust="spacingAndGlyphs" textLength="7" x="432.6735" y="970.3876">1</text><text fill="#000000" font-family="sans-serif" font-size="13" lengthAdjust="spacingAndGlyphs" textLength="7" x="376.2127" y="1033.1133">2</text>
        <!--link CUST to ADRS-->
        <path d="M116.009,945.117 C131.077,972.239 149.796,1005.933 168.387,1039.397 " fill="none" id="CUST-ADRS" style="stroke: #A80036; stroke-width: 1.0;" />
        <polygon fill="#A80036" points="170.89,1043.903,170.0158,1034.093,168.4618,1039.5322,163.0226,1037.9782,170.89,1043.903" style="stroke: #A80036; stroke-width: 1.0;" /><text fill="#000000" font-family="sans-serif" font-size="13" lengthAdjust="spacingAndGlyphs" textLength="49" x="153" y="1010.4951">contains</text><text fill="#000000" font-family="sans-serif" font-size="13" lengthAdjust="spacingAndGlyphs" textLength="7" x="112.4835" y="966.7415">1</text><text fill="#000000" font-family="sans-serif" font-size="13" lengthAdjust="spacingAndGlyphs" textLength="7" x="159.427" y="1033.2209">1</text>
        <!--link ORDER to PROD-->
        <path d="M512.958,966.311 C508.944,1029.063 503.556,1113.288 500.795,1156.438 " fill="none" id="ORDER-PROD" style="stroke: #A80036; stroke-width: 1.0;" />
        <polygon fill="#A80036" points="500.472,1161.492,505.0373,1152.7651,500.7906,1156.5022,497.0535,1152.2554,500.472,1161.492" style="stroke: #A80036; stroke-width: 1.0;" /><text fill="#000000" font-family="sans-serif" font-size="13" lengthAdjust="spacingAndGlyphs" textLength="49" x="512" y="1010.4951">contains</text><text fill="#000000" font-family="sans-serif" font-size="13" lengthAdjust="spacingAndGlyphs" textLength="7" x="505.2506" y="987.1055">1</text><text fill="#000000" font-family="sans-serif" font-size="13" lengthAdjust="spacingAndGlyphs" textLength="20" x="503.4117" y="1150.8301">0..*</text>
        <!--link ADRSTYPE to ADRS-->
        <path d="M249,924.515 C249,953.653 249,996.286 249,1038.634 " fill="none" id="ADRSTYPE-ADRS" style="stroke: #A80036; stroke-width: 1.0;" />
        <polygon fill="#A80036" points="249,1043.796,253,1034.796,249,1038.796,245,1034.796,249,1043.796" style="stroke: #A80036; stroke-width: 1.0;" /><text fill="#000000" font-family="sans-serif" font-size="13" lengthAdjust="spacingAndGlyphs" textLength="67" x="250" y="1010.4951">categorizes</text><text fill="#000000" font-family="sans-serif" font-size="13" lengthAdjust="spacingAndGlyphs" textLength="7" x="241.4203" y="945.6876">1</text><text fill="#000000" font-family="sans-serif" font-size="13" lengthAdjust="spacingAndGlyphs" textLength="5" x="243.8633" y="1033.108">*</text>
        <!--link BUILDER to ORDER-->
        <path d="M600.895,425.369 C592.902,484.503 570.381,644.775 544,777 C542.399,785.023 540.619,793.351 538.762,801.667 " fill="none" id="BUILDER-ORDER" style="stroke: #A80036; stroke-width: 1.0;" />
        <polygon fill="#A80036" points="537.597,806.84,543.4769,798.939,538.6957,801.9622,535.6725,797.181,537.597,806.84" style="stroke: #A80036; stroke-width: 1.0;" /><text fill="#000000" font-family="sans-serif" font-size="13" lengthAdjust="spacingAndGlyphs" textLength="34" x="580" y="589.4951">builds</text><text fill="#000000" font-family="sans-serif" font-size="13" lengthAdjust="spacingAndGlyphs" textLength="7" x="592.3676" y="446.3901">1</text><text fill="#000000" font-family="sans-serif" font-size="13" lengthAdjust="spacingAndGlyphs" textLength="5" x="534.2266" y="796.0117">*</text>
        <!--
@startuml
skinparam classAttributeIconSize 0

class "CreateProductOrderUI" as UI {
  +run()
}

class "CreateProductOrderController" as CTRL {

}

class "PersistenceContext" as PCON {
  -Logger LOGGER
  -RepositoryFactory theFactory
  +repositories()
}

class "Order" as ORDER {
  -int id
  -Date date
  -int customer id
  -Address billingAddress
  -Address deliveryAddress
  -double totalAmount
  -String payCode
  -State state

}

class "OrderRepository" as ORDERREPO {

}

class "Customer" as CUST {
  -Name name;
  -Vat vat;
  -Date dateOfBirth;
  -PhoneNumber phoneNumber;
  -Address address;
}

class "CustomerRepository" as CUSTREPO {
  +getCustomerList()
}

class "Product" as PROD {

}

class "ProductRepository" as PRODREPO {
  +getProductList()
}

class "RepositoryFactory" as REPOFAC {
  +getCustomerRepo()
  +getOrderRepo()
  +getProductRepo()

}

class "OrderBuilder" as BUILDER {

}

class "Address" as ADRS {
  -Name streetName
  -PostalCode postalCode
  -Integer doorNumber
  -City city
  -Country country
  -AddressType addressType

  +Address(streetName, postalCode, doorNumber, city, country)
  +valueOf()
  +streetName()
  +postalCode()
  +doorNumber()
  +city()
  +country()
  +addressType()
  +equals(Object o)
  +hashCode()
  +toString()
}

enum "AddressType" as ADRSTYPE {
  +BILLING
  +SHIPMENT
}



UI ..> CTRL

CTRL "1" - -> "1" PCON : uses
CTRL ..> BUILDER
CTRL "1" - -> "*" ORDER : creates

PCON "1" - -> "1" REPOFAC : creates

REPOFAC "1" - -> "1" CUSTREPO : stores
REPOFAC "1" - -> "1" ORDERREPO : stores
REPOFAC "1" - -> "1" PRODREPO : stores

ORDERREPO "1" - -> "*" ORDER : stores
PRODREPO "1" - -> "*" PROD : stores
CUSTREPO "1" - -> "*" CUST : stores

ORDER "1" - -> "2" ADRS : contains
CUST "1" - -> "1" ADRS : contains
ORDER "1" - -> "0..*" PROD : contains

ADRSTYPE "1" - -> "*" ADRS : categorizes

BUILDER "1" - -> "*" ORDER : builds





@enduml

PlantUML version 1.2018.14(Fri Dec 21 16:33:16 GMT 2018)
(GPL source distribution)
Java Runtime: Java(TM) SE Runtime Environment
JVM: Java HotSpot(TM) 64-Bit Server VM
Java Version: 1.8.0_221-b11
Operating System: Windows 10
OS Version: 10.0
Default Encoding: Cp1252
Language: pt
Country: PT
-->
    </g>
</svg>