<?xml version="1.0" encoding="UTF-8" standalone="no"?><svg xmlns="http://www.w3.org/2000/svg" xmlns:xlink="http://www.w3.org/1999/xlink" contentStyleType="text/css" height="1719.2px" preserveAspectRatio="none" style="width:1913px;height:1719px;background:#FFFFFF;" version="1.1" viewBox="0 0 1913 1719" width="1913.6px" zoomAndPan="magnify"><defs/><g><!--MD5=[65846dca41511e59212c3eb98f775491]
class DefineSurveyUI--><g id="elem_DefineSurveyUI"><rect codeLine="3" fill="#F1F1F1" height="38.4" id="DefineSurveyUI" rx="2" ry="2" style="stroke:#181818;stroke-width:0.4000000000000001;" width="103.2" x="1051.6" y="5.6"/><ellipse cx="1063.6" cy="18.4" fill="#ADD1B2" rx="8.8" ry="8.8" style="stroke:#181818;stroke-width:0.8000000000000002;"/><path d="M1065.2,15.6 Q1065.3625,15.2 1065.55,15 Q1065.7375,14.8 1065.95,14.8 Q1066.325,14.8 1066.5625,15.025 Q1066.8,15.25 1066.8,15.775 L1066.8,17.025 Q1066.8,17.55 1066.575,17.775 Q1066.35,18 1066,18 Q1065.6875,18 1065.4875,17.8625 Q1065.2875,17.725 1065.2,17.3625 Q1065.1625,17.1125 1065.025,16.975 Q1064.775,16.7125 1064.325,16.5625 Q1063.875,16.4 1063.425,16.4 Q1062.8625,16.4 1062.3875,16.625 Q1061.925,16.85 1061.5625,17.35 Q1061.2,17.85 1061.2,18.5375 L1061.2,19.275 Q1061.2,20.1 1061.875,20.65 Q1062.55,21.2 1063.75,21.2 Q1064.4625,21.2 1064.9625,21.0375 Q1065.25,20.95 1065.575,20.6625 Q1065.7875,20.5 1065.9,20.45 Q1066.0125,20.4 1066.15,20.4 Q1066.4125,20.4 1066.6,20.6125 Q1066.8,20.8125 1066.8,21.1 Q1066.8,21.375 1066.525,21.7 Q1066.125,22.175 1065.4875,22.4375 Q1064.65,22.8 1063.625,22.8 Q1062.425,22.8 1061.4625,22.325 Q1060.6875,21.95 1060.1375,21.1375 Q1059.6,20.325 1059.6,19.3625 L1059.6,18.4875 Q1059.6,17.4875 1060.075,16.6125 Q1060.5625,15.7375 1061.4,15.275 Q1062.25,14.8 1063.2,14.8 Q1063.775,14.8 1064.275,15 Q1064.775,15.2 1065.2,15.6 Z " fill="#000000"/><text fill="#000000" font-family="sans-serif" font-size="11.2" lengthAdjust="spacing" textLength="77.6" x="1074.8" y="22.9828">DefineSurveyUI</text><line style="stroke:#181818;stroke-width:0.4000000000000001;" x1="1052.4" x2="1154" y1="31.2" y2="31.2"/><line style="stroke:#181818;stroke-width:0.4000000000000001;" x1="1052.4" x2="1154" y1="37.6" y2="37.6"/></g><!--MD5=[1392191afe825be7452c7477a8df8301]
class SurveyController--><g id="elem_SurveyController"><rect codeLine="6" fill="#F1F1F1" height="122.925" id="SurveyController" rx="2" ry="2" style="stroke:#181818;stroke-width:0.4000000000000001;" width="527.2" x="873.2" y="264.8"/><ellipse cx="1091" cy="277.6" fill="#ADD1B2" rx="8.8" ry="8.8" style="stroke:#181818;stroke-width:0.8000000000000002;"/><path d="M1092.6,274.8 Q1092.7625,274.4 1092.95,274.2 Q1093.1375,274 1093.35,274 Q1093.725,274 1093.9625,274.225 Q1094.2,274.45 1094.2,274.975 L1094.2,276.225 Q1094.2,276.75 1093.975,276.975 Q1093.75,277.2 1093.4,277.2 Q1093.0875,277.2 1092.8875,277.0625 Q1092.6875,276.925 1092.6,276.5625 Q1092.5625,276.3125 1092.425,276.175 Q1092.175,275.9125 1091.725,275.7625 Q1091.275,275.6 1090.825,275.6 Q1090.2625,275.6 1089.7875,275.825 Q1089.325,276.05 1088.9625,276.55 Q1088.6,277.05 1088.6,277.7375 L1088.6,278.475 Q1088.6,279.3 1089.275,279.85 Q1089.95,280.4 1091.15,280.4 Q1091.8625,280.4 1092.3625,280.2375 Q1092.65,280.15 1092.975,279.8625 Q1093.1875,279.7 1093.3,279.65 Q1093.4125,279.6 1093.55,279.6 Q1093.8125,279.6 1094,279.8125 Q1094.2,280.0125 1094.2,280.3 Q1094.2,280.575 1093.925,280.9 Q1093.525,281.375 1092.8875,281.6375 Q1092.05,282 1091.025,282 Q1089.825,282 1088.8625,281.525 Q1088.0875,281.15 1087.5375,280.3375 Q1087,279.525 1087,278.5625 L1087,277.6875 Q1087,276.6875 1087.475,275.8125 Q1087.9625,274.9375 1088.8,274.475 Q1089.65,274 1090.6,274 Q1091.175,274 1091.675,274.2 Q1092.175,274.4 1092.6,274.8 Z " fill="#000000"/><text fill="#000000" font-family="sans-serif" font-size="11.2" lengthAdjust="spacing" textLength="84.8" x="1107.4" y="282.1828">SurveyController</text><line style="stroke:#181818;stroke-width:0.4000000000000001;" x1="874" x2="1399.6" y1="290.4" y2="290.4"/><line style="stroke:#181818;stroke-width:0.4000000000000001;" x1="874" x2="1399.6" y1="296.8" y2="296.8"/><text fill="#000000" font-family="sans-serif" font-size="11.2" lengthAdjust="spacing" textLength="432.8" x="878" y="311.6266">+buildQuestion(questionId, questionMessage, questionType, obligatoriness, extraInfo)</text><text fill="#000000" font-family="sans-serif" font-size="11.2" lengthAdjust="spacing" textLength="517.6" x="878" y="325.7141">+buildSection(sectionId, title, description, obligatoriness, repeatability, Collection&lt;Question&gt; questions)</text><text fill="#000000" font-family="sans-serif" font-size="11.2" lengthAdjust="spacing" textLength="512" x="878" y="339.8016">+buildQuestionnaire(questionnaireId, questionnaireTitle, welcomeMessage, sectionList, finalMessage)</text><text fill="#000000" font-family="sans-serif" font-size="11.2" lengthAdjust="spacing" textLength="104.8" x="878" y="353.8891">+cleanQuestionList()</text><text fill="#000000" font-family="sans-serif" font-size="11.2" lengthAdjust="spacing" textLength="116" x="878" y="367.9766">+receiveSurveyString()</text><text fill="#000000" font-family="sans-serif" font-size="11.2" lengthAdjust="spacing" textLength="170.4" x="878" y="382.0641">+receiveFullQuestionnaireString()</text></g><!--MD5=[494e0bdb5c8bb794bcdf99253cad2029]
class AlphanumericCode--><g id="elem_AlphanumericCode"><rect codeLine="15" fill="#F1F1F1" height="151.1" id="AlphanumericCode" rx="2" ry="2" style="stroke:#181818;stroke-width:0.4000000000000001;" width="177.6" x="1154.4" y="985.6"/><ellipse cx="1191.8" cy="998.4" fill="#ADD1B2" rx="8.8" ry="8.8" style="stroke:#181818;stroke-width:0.8000000000000002;"/><path d="M1193.4,995.6 Q1193.5625,995.2 1193.75,995 Q1193.9375,994.8 1194.15,994.8 Q1194.525,994.8 1194.7625,995.025 Q1195,995.25 1195,995.775 L1195,997.025 Q1195,997.55 1194.775,997.775 Q1194.55,998 1194.2,998 Q1193.8875,998 1193.6875,997.8625 Q1193.4875,997.725 1193.4,997.3625 Q1193.3625,997.1125 1193.225,996.975 Q1192.975,996.7125 1192.525,996.5625 Q1192.075,996.4 1191.625,996.4 Q1191.0625,996.4 1190.5875,996.625 Q1190.125,996.85 1189.7625,997.35 Q1189.4,997.85 1189.4,998.5375 L1189.4,999.275 Q1189.4,1000.1 1190.075,1000.65 Q1190.75,1001.2 1191.95,1001.2 Q1192.6625,1001.2 1193.1625,1001.0375 Q1193.45,1000.95 1193.775,1000.6625 Q1193.9875,1000.5 1194.1,1000.45 Q1194.2125,1000.4 1194.35,1000.4 Q1194.6125,1000.4 1194.8,1000.6125 Q1195,1000.8125 1195,1001.1 Q1195,1001.375 1194.725,1001.7 Q1194.325,1002.175 1193.6875,1002.4375 Q1192.85,1002.8 1191.825,1002.8 Q1190.625,1002.8 1189.6625,1002.325 Q1188.8875,1001.95 1188.3375,1001.1375 Q1187.8,1000.325 1187.8,999.3625 L1187.8,998.4875 Q1187.8,997.4875 1188.275,996.6125 Q1188.7625,995.7375 1189.6,995.275 Q1190.45,994.8 1191.4,994.8 Q1191.975,994.8 1192.475,995 Q1192.975,995.2 1193.4,995.6 Z " fill="#000000"/><text fill="#000000" font-family="sans-serif" font-size="11.2" lengthAdjust="spacing" textLength="96" x="1208.2" y="1002.9828">AlphanumericCode</text><line style="stroke:#181818;stroke-width:0.4000000000000001;" x1="1155.2" x2="1331.2" y1="1011.2" y2="1011.2"/><text fill="#000000" font-family="sans-serif" font-size="11.2" lengthAdjust="spacing" textLength="61.6" x="1159.2" y="1026.0266">-String code</text><line style="stroke:#181818;stroke-width:0.4000000000000001;" x1="1155.2" x2="1331.2" y1="1031.6875" y2="1031.6875"/><text fill="#000000" font-family="sans-serif" font-size="11.2" lengthAdjust="spacing" textLength="168" x="1159.2" y="1046.5141">+AlphanumericCode(String code)</text><text fill="#000000" font-family="sans-serif" font-size="11.2" lengthAdjust="spacing" textLength="53.6" x="1159.2" y="1060.6016">+valueOf()</text><text fill="#000000" font-family="sans-serif" font-size="11.2" lengthAdjust="spacing" textLength="61.6" x="1159.2" y="1074.6891">+firstName()</text><text fill="#000000" font-family="sans-serif" font-size="11.2" lengthAdjust="spacing" textLength="60.8" x="1159.2" y="1088.7766">+lastName()</text><text fill="#000000" font-family="sans-serif" font-size="11.2" lengthAdjust="spacing" textLength="90.4" x="1159.2" y="1102.8641">+equals(Object o)</text><text fill="#000000" font-family="sans-serif" font-size="11.2" lengthAdjust="spacing" textLength="66.4" x="1159.2" y="1116.9516">+hashCode()</text><text fill="#000000" font-family="sans-serif" font-size="11.2" lengthAdjust="spacing" textLength="53.6" x="1159.2" y="1131.0391">+toString()</text></g><!--MD5=[009695af4e54f3bba8a9c60dca3e1c94]
class Description--><g id="elem_Description"><rect codeLine="27" fill="#F1F1F1" height="137.0125" id="Description" rx="2" ry="2" style="stroke:#181818;stroke-width:0.4000000000000001;" width="141.6" x="1360.4" y="992.8"/><ellipse cx="1399.4" cy="1005.6" fill="#ADD1B2" rx="8.8" ry="8.8" style="stroke:#181818;stroke-width:0.8000000000000002;"/><path d="M1401,1002.8 Q1401.1625,1002.4 1401.35,1002.2 Q1401.5375,1002 1401.75,1002 Q1402.125,1002 1402.3625,1002.225 Q1402.6,1002.45 1402.6,1002.975 L1402.6,1004.225 Q1402.6,1004.75 1402.375,1004.975 Q1402.15,1005.2 1401.8,1005.2 Q1401.4875,1005.2 1401.2875,1005.0625 Q1401.0875,1004.925 1401,1004.5625 Q1400.9625,1004.3125 1400.825,1004.175 Q1400.575,1003.9125 1400.125,1003.7625 Q1399.675,1003.6 1399.225,1003.6 Q1398.6625,1003.6 1398.1875,1003.825 Q1397.725,1004.05 1397.3625,1004.55 Q1397,1005.05 1397,1005.7375 L1397,1006.475 Q1397,1007.3 1397.675,1007.85 Q1398.35,1008.4 1399.55,1008.4 Q1400.2625,1008.4 1400.7625,1008.2375 Q1401.05,1008.15 1401.375,1007.8625 Q1401.5875,1007.7 1401.7,1007.65 Q1401.8125,1007.6 1401.95,1007.6 Q1402.2125,1007.6 1402.4,1007.8125 Q1402.6,1008.0125 1402.6,1008.3 Q1402.6,1008.575 1402.325,1008.9 Q1401.925,1009.375 1401.2875,1009.6375 Q1400.45,1010 1399.425,1010 Q1398.225,1010 1397.2625,1009.525 Q1396.4875,1009.15 1395.9375,1008.3375 Q1395.4,1007.525 1395.4,1006.5625 L1395.4,1005.6875 Q1395.4,1004.6875 1395.875,1003.8125 Q1396.3625,1002.9375 1397.2,1002.475 Q1398.05,1002 1399,1002 Q1399.575,1002 1400.075,1002.2 Q1400.575,1002.4 1401,1002.8 Z " fill="#000000"/><text fill="#000000" font-family="sans-serif" font-size="11.2" lengthAdjust="spacing" textLength="56.8" x="1415.8" y="1010.1828">Description</text><line style="stroke:#181818;stroke-width:0.4000000000000001;" x1="1361.2" x2="1501.2" y1="1018.4" y2="1018.4"/><text fill="#000000" font-family="sans-serif" font-size="11.2" lengthAdjust="spacing" textLength="64" x="1365.2" y="1033.2266">-String value</text><line style="stroke:#181818;stroke-width:0.4000000000000001;" x1="1361.2" x2="1501.2" y1="1038.8875" y2="1038.8875"/><text fill="#000000" font-family="sans-serif" font-size="11.2" lengthAdjust="spacing" textLength="132" x="1365.2" y="1053.7141">+Description(String name)</text><text fill="#000000" font-family="sans-serif" font-size="11.2" lengthAdjust="spacing" textLength="53.6" x="1365.2" y="1067.8016">+valueOf()</text><text fill="#000000" font-family="sans-serif" font-size="11.2" lengthAdjust="spacing" textLength="45.6" x="1365.2" y="1081.8891">+length()</text><text fill="#000000" font-family="sans-serif" font-size="11.2" lengthAdjust="spacing" textLength="90.4" x="1365.2" y="1095.9766">+equals(Object o)</text><text fill="#000000" font-family="sans-serif" font-size="11.2" lengthAdjust="spacing" textLength="66.4" x="1365.2" y="1110.0641">+hashCode()</text><text fill="#000000" font-family="sans-serif" font-size="11.2" lengthAdjust="spacing" textLength="53.6" x="1365.2" y="1124.1516">+toString()</text></g><!--MD5=[c802f1427b4977f3680f5ce962804e21]
class QuestionDTO--><g id="elem_QuestionDTO"><rect codeLine="38" fill="#F1F1F1" height="122.925" id="QuestionDTO" rx="2" ry="2" style="stroke:#181818;stroke-width:0.4000000000000001;" width="137.6" x="984.8" y="92.8"/><ellipse cx="1015.88" cy="105.6" fill="#ADD1B2" rx="8.8" ry="8.8" style="stroke:#181818;stroke-width:0.8000000000000002;"/><path d="M1017.48,102.8 Q1017.6425,102.4 1017.83,102.2 Q1018.0175,102 1018.23,102 Q1018.605,102 1018.8425,102.225 Q1019.08,102.45 1019.08,102.975 L1019.08,104.225 Q1019.08,104.75 1018.855,104.975 Q1018.63,105.2 1018.28,105.2 Q1017.9675,105.2 1017.7675,105.0625 Q1017.5675,104.925 1017.48,104.5625 Q1017.4425,104.3125 1017.305,104.175 Q1017.055,103.9125 1016.605,103.7625 Q1016.155,103.6 1015.705,103.6 Q1015.1425,103.6 1014.6675,103.825 Q1014.205,104.05 1013.8425,104.55 Q1013.48,105.05 1013.48,105.7375 L1013.48,106.475 Q1013.48,107.3 1014.155,107.85 Q1014.83,108.4 1016.03,108.4 Q1016.7425,108.4 1017.2425,108.2375 Q1017.53,108.15 1017.855,107.8625 Q1018.0675,107.7 1018.18,107.65 Q1018.2925,107.6 1018.43,107.6 Q1018.6925,107.6 1018.88,107.8125 Q1019.08,108.0125 1019.08,108.3 Q1019.08,108.575 1018.805,108.9 Q1018.405,109.375 1017.7675,109.6375 Q1016.93,110 1015.905,110 Q1014.705,110 1013.7425,109.525 Q1012.9675,109.15 1012.4175,108.3375 Q1011.88,107.525 1011.88,106.5625 L1011.88,105.6875 Q1011.88,104.6875 1012.355,103.8125 Q1012.8425,102.9375 1013.68,102.475 Q1014.53,102 1015.48,102 Q1016.055,102 1016.555,102.2 Q1017.055,102.4 1017.48,102.8 Z " fill="#000000"/><text fill="#000000" font-family="sans-serif" font-size="11.2" lengthAdjust="spacing" textLength="69.6" x="1031.32" y="110.1828">QuestionDTO</text><line style="stroke:#181818;stroke-width:0.4000000000000001;" x1="985.6" x2="1121.6" y1="118.4" y2="118.4"/><text fill="#000000" font-family="sans-serif" font-size="11.2" lengthAdjust="spacing" textLength="91.2" x="989.6" y="133.2266">+String questionId</text><text fill="#000000" font-family="sans-serif" font-size="11.2" lengthAdjust="spacing" textLength="128" x="989.6" y="147.3141">+String questionMessage</text><text fill="#000000" font-family="sans-serif" font-size="11.2" lengthAdjust="spacing" textLength="91.2" x="989.6" y="161.4016">+String instruction</text><text fill="#000000" font-family="sans-serif" font-size="11.2" lengthAdjust="spacing" textLength="108" x="989.6" y="175.4891">+String questionType</text><text fill="#000000" font-family="sans-serif" font-size="11.2" lengthAdjust="spacing" textLength="109.6" x="989.6" y="189.5766">+String obligatoriness</text><text fill="#000000" font-family="sans-serif" font-size="11.2" lengthAdjust="spacing" textLength="82.4" x="989.6" y="203.6641">+String extraInfo</text><line style="stroke:#181818;stroke-width:0.4000000000000001;" x1="985.6" x2="1121.6" y1="209.325" y2="209.325"/></g><!--MD5=[3ddf2fc78de39a51ca8cbdf3b2a84ba0]
class QuestionnaireDTO--><g id="elem_QuestionnaireDTO"><rect codeLine="47" fill="#F1F1F1" height="94.75" id="QuestionnaireDTO" rx="2" ry="2" style="stroke:#181818;stroke-width:0.4000000000000001;" width="139.2" x="1150.4" y="107.2"/><ellipse cx="1170.68" cy="120" fill="#ADD1B2" rx="8.8" ry="8.8" style="stroke:#181818;stroke-width:0.8000000000000002;"/><path d="M1172.28,117.2 Q1172.4425,116.8 1172.63,116.6 Q1172.8175,116.4 1173.03,116.4 Q1173.405,116.4 1173.6425,116.625 Q1173.88,116.85 1173.88,117.375 L1173.88,118.625 Q1173.88,119.15 1173.655,119.375 Q1173.43,119.6 1173.08,119.6 Q1172.7675,119.6 1172.5675,119.4625 Q1172.3675,119.325 1172.28,118.9625 Q1172.2425,118.7125 1172.105,118.575 Q1171.855,118.3125 1171.405,118.1625 Q1170.955,118 1170.505,118 Q1169.9425,118 1169.4675,118.225 Q1169.005,118.45 1168.6425,118.95 Q1168.28,119.45 1168.28,120.1375 L1168.28,120.875 Q1168.28,121.7 1168.955,122.25 Q1169.63,122.8 1170.83,122.8 Q1171.5425,122.8 1172.0425,122.6375 Q1172.33,122.55 1172.655,122.2625 Q1172.8675,122.1 1172.98,122.05 Q1173.0925,122 1173.23,122 Q1173.4925,122 1173.68,122.2125 Q1173.88,122.4125 1173.88,122.7 Q1173.88,122.975 1173.605,123.3 Q1173.205,123.775 1172.5675,124.0375 Q1171.73,124.4 1170.705,124.4 Q1169.505,124.4 1168.5425,123.925 Q1167.7675,123.55 1167.2175,122.7375 Q1166.68,121.925 1166.68,120.9625 L1166.68,120.0875 Q1166.68,119.0875 1167.155,118.2125 Q1167.6425,117.3375 1168.48,116.875 Q1169.33,116.4 1170.28,116.4 Q1170.855,116.4 1171.355,116.6 Q1171.855,116.8 1172.28,117.2 Z " fill="#000000"/><text fill="#000000" font-family="sans-serif" font-size="11.2" lengthAdjust="spacing" textLength="95.2" x="1183.72" y="124.5828">QuestionnaireDTO</text><line style="stroke:#181818;stroke-width:0.4000000000000001;" x1="1151.2" x2="1288.8" y1="132.8" y2="132.8"/><text fill="#000000" font-family="sans-serif" font-size="11.2" lengthAdjust="spacing" textLength="116.8" x="1155.2" y="147.6266">+String questionnaireId</text><text fill="#000000" font-family="sans-serif" font-size="11.2" lengthAdjust="spacing" textLength="129.6" x="1155.2" y="161.7141">+String questionnaireTitle</text><text fill="#000000" font-family="sans-serif" font-size="11.2" lengthAdjust="spacing" textLength="128" x="1155.2" y="175.8016">+String welcomeMessage</text><text fill="#000000" font-family="sans-serif" font-size="11.2" lengthAdjust="spacing" textLength="105.6" x="1155.2" y="189.8891">+String finalMessage</text><line style="stroke:#181818;stroke-width:0.4000000000000001;" x1="1151.2" x2="1288.8" y1="195.55" y2="195.55"/></g><!--MD5=[89835f43ccbacc82295c51dbfdfbe6e9]
class SectionDTO--><g id="elem_SectionDTO"><rect codeLine="54" fill="#F1F1F1" height="108.8375" id="SectionDTO" rx="2" ry="2" style="stroke:#181818;stroke-width:0.4000000000000001;" width="133.6" x="1318" y="100"/><ellipse cx="1350.88" cy="112.8" fill="#ADD1B2" rx="8.8" ry="8.8" style="stroke:#181818;stroke-width:0.8000000000000002;"/><path d="M1352.48,110 Q1352.6425,109.6 1352.83,109.4 Q1353.0175,109.2 1353.23,109.2 Q1353.605,109.2 1353.8425,109.425 Q1354.08,109.65 1354.08,110.175 L1354.08,111.425 Q1354.08,111.95 1353.855,112.175 Q1353.63,112.4 1353.28,112.4 Q1352.9675,112.4 1352.7675,112.2625 Q1352.5675,112.125 1352.48,111.7625 Q1352.4425,111.5125 1352.305,111.375 Q1352.055,111.1125 1351.605,110.9625 Q1351.155,110.8 1350.705,110.8 Q1350.1425,110.8 1349.6675,111.025 Q1349.205,111.25 1348.8425,111.75 Q1348.48,112.25 1348.48,112.9375 L1348.48,113.675 Q1348.48,114.5 1349.155,115.05 Q1349.83,115.6 1351.03,115.6 Q1351.7425,115.6 1352.2425,115.4375 Q1352.53,115.35 1352.855,115.0625 Q1353.0675,114.9 1353.18,114.85 Q1353.2925,114.8 1353.43,114.8 Q1353.6925,114.8 1353.88,115.0125 Q1354.08,115.2125 1354.08,115.5 Q1354.08,115.775 1353.805,116.1 Q1353.405,116.575 1352.7675,116.8375 Q1351.93,117.2 1350.905,117.2 Q1349.705,117.2 1348.7425,116.725 Q1347.9675,116.35 1347.4175,115.5375 Q1346.88,114.725 1346.88,113.7625 L1346.88,112.8875 Q1346.88,111.8875 1347.355,111.0125 Q1347.8425,110.1375 1348.68,109.675 Q1349.53,109.2 1350.48,109.2 Q1351.055,109.2 1351.555,109.4 Q1352.055,109.6 1352.48,110 Z " fill="#000000"/><text fill="#000000" font-family="sans-serif" font-size="11.2" lengthAdjust="spacing" textLength="61.6" x="1366.72" y="117.3828">SectionDTO</text><line style="stroke:#181818;stroke-width:0.4000000000000001;" x1="1318.8" x2="1450.8" y1="125.6" y2="125.6"/><text fill="#000000" font-family="sans-serif" font-size="11.2" lengthAdjust="spacing" textLength="84" x="1322.8" y="140.4266">+String sectionId</text><text fill="#000000" font-family="sans-serif" font-size="11.2" lengthAdjust="spacing" textLength="96.8" x="1322.8" y="154.5141">+String sectionTitle</text><text fill="#000000" font-family="sans-serif" font-size="11.2" lengthAdjust="spacing" textLength="124" x="1322.8" y="168.6016">+String descriptionString</text><text fill="#000000" font-family="sans-serif" font-size="11.2" lengthAdjust="spacing" textLength="109.6" x="1322.8" y="182.6891">+String obligatoriness</text><text fill="#000000" font-family="sans-serif" font-size="11.2" lengthAdjust="spacing" textLength="100.8" x="1322.8" y="196.7766">+String repeatability</text><line style="stroke:#181818;stroke-width:0.4000000000000001;" x1="1318.8" x2="1450.8" y1="202.4375" y2="202.4375"/></g><!--MD5=[ca7e2bcbfac35f85e33bf6d1b8bb0f5b]
class SurveyDTO--><g id="elem_SurveyDTO"><rect codeLine="62" fill="#F1F1F1" height="94.75" id="SurveyDTO" rx="2" ry="2" style="stroke:#181818;stroke-width:0.4000000000000001;" width="173.6" x="782.8" y="107.2"/><ellipse cx="836.6" cy="120" fill="#ADD1B2" rx="8.8" ry="8.8" style="stroke:#181818;stroke-width:0.8000000000000002;"/><path d="M838.2,117.2 Q838.3625,116.8 838.55,116.6 Q838.7375,116.4 838.95,116.4 Q839.325,116.4 839.5625,116.625 Q839.8,116.85 839.8,117.375 L839.8,118.625 Q839.8,119.15 839.575,119.375 Q839.35,119.6 839,119.6 Q838.6875,119.6 838.4875,119.4625 Q838.2875,119.325 838.2,118.9625 Q838.1625,118.7125 838.025,118.575 Q837.775,118.3125 837.325,118.1625 Q836.875,118 836.425,118 Q835.8625,118 835.3875,118.225 Q834.925,118.45 834.5625,118.95 Q834.2,119.45 834.2,120.1375 L834.2,120.875 Q834.2,121.7 834.875,122.25 Q835.55,122.8 836.75,122.8 Q837.4625,122.8 837.9625,122.6375 Q838.25,122.55 838.575,122.2625 Q838.7875,122.1 838.9,122.05 Q839.0125,122 839.15,122 Q839.4125,122 839.6,122.2125 Q839.8,122.4125 839.8,122.7 Q839.8,122.975 839.525,123.3 Q839.125,123.775 838.4875,124.0375 Q837.65,124.4 836.625,124.4 Q835.425,124.4 834.4625,123.925 Q833.6875,123.55 833.1375,122.7375 Q832.6,121.925 832.6,120.9625 L832.6,120.0875 Q832.6,119.0875 833.075,118.2125 Q833.5625,117.3375 834.4,116.875 Q835.25,116.4 836.2,116.4 Q836.775,116.4 837.275,116.6 Q837.775,116.8 838.2,117.2 Z " fill="#000000"/><text fill="#000000" font-family="sans-serif" font-size="11.2" lengthAdjust="spacing" textLength="59.2" x="853" y="124.5828">SurveyDTO</text><line style="stroke:#181818;stroke-width:0.4000000000000001;" x1="783.6" x2="955.6" y1="132.8" y2="132.8"/><text fill="#000000" font-family="sans-serif" font-size="11.2" lengthAdjust="spacing" textLength="164" x="787.6" y="147.6266">+String alphanumericCodeString</text><text fill="#000000" font-family="sans-serif" font-size="11.2" lengthAdjust="spacing" textLength="124" x="787.6" y="161.7141">+String descriptionString</text><text fill="#000000" font-family="sans-serif" font-size="11.2" lengthAdjust="spacing" textLength="71.2" x="787.6" y="175.8016">+String period</text><text fill="#000000" font-family="sans-serif" font-size="11.2" lengthAdjust="spacing" textLength="76.8" x="787.6" y="189.8891">+String content</text><line style="stroke:#181818;stroke-width:0.4000000000000001;" x1="783.6" x2="955.6" y1="195.55" y2="195.55"/></g><!--MD5=[727b43066cedfd65e64b0b5e56f95c16]
class QuestionDTOParser--><g id="elem_QuestionDTOParser"><rect codeLine="69" fill="#F1F1F1" height="52.4875" id="QuestionDTOParser" rx="2" ry="2" style="stroke:#181818;stroke-width:0.4000000000000001;" width="176" x="266.4" y="464.4"/><ellipse cx="299.64" cy="477.2" fill="#ADD1B2" rx="8.8" ry="8.8" style="stroke:#181818;stroke-width:0.8000000000000002;"/><path d="M301.24,474.4 Q301.4025,474 301.59,473.8 Q301.7775,473.6 301.99,473.6 Q302.365,473.6 302.6025,473.825 Q302.84,474.05 302.84,474.575 L302.84,475.825 Q302.84,476.35 302.615,476.575 Q302.39,476.8 302.04,476.8 Q301.7275,476.8 301.5275,476.6625 Q301.3275,476.525 301.24,476.1625 Q301.2025,475.9125 301.065,475.775 Q300.815,475.5125 300.365,475.3625 Q299.915,475.2 299.465,475.2 Q298.9025,475.2 298.4275,475.425 Q297.965,475.65 297.6025,476.15 Q297.24,476.65 297.24,477.3375 L297.24,478.075 Q297.24,478.9 297.915,479.45 Q298.59,480 299.79,480 Q300.5025,480 301.0025,479.8375 Q301.29,479.75 301.615,479.4625 Q301.8275,479.3 301.94,479.25 Q302.0525,479.2 302.19,479.2 Q302.4525,479.2 302.64,479.4125 Q302.84,479.6125 302.84,479.9 Q302.84,480.175 302.565,480.5 Q302.165,480.975 301.5275,481.2375 Q300.69,481.6 299.665,481.6 Q298.465,481.6 297.5025,481.125 Q296.7275,480.75 296.1775,479.9375 Q295.64,479.125 295.64,478.1625 L295.64,477.2875 Q295.64,476.2875 296.115,475.4125 Q296.6025,474.5375 297.44,474.075 Q298.29,473.6 299.24,473.6 Q299.815,473.6 300.315,473.8 Q300.815,474 301.24,474.4 Z " fill="#000000"/><text fill="#000000" font-family="sans-serif" font-size="11.2" lengthAdjust="spacing" textLength="103.2" x="315.56" y="481.7828">QuestionDTOParser</text><line style="stroke:#181818;stroke-width:0.4000000000000001;" x1="267.2" x2="441.6" y1="490" y2="490"/><line style="stroke:#181818;stroke-width:0.4000000000000001;" x1="267.2" x2="441.6" y1="496.4" y2="496.4"/><text fill="#000000" font-family="sans-serif" font-size="11.2" lengthAdjust="spacing" textLength="166.4" x="271.2" y="511.2266">+valueOf(final QuestionDTO dto)</text></g><!--MD5=[04fd400658fb871fb31402b1c838365f]
class QuestionnaireDTOParser--><g id="elem_QuestionnaireDTOParser"><rect codeLine="73" fill="#F1F1F1" height="52.4875" id="QuestionnaireDTOParser" rx="2" ry="2" style="stroke:#181818;stroke-width:0.4000000000000001;" width="201.6" x="644" y="464.4"/><ellipse cx="677.24" cy="477.2" fill="#ADD1B2" rx="8.8" ry="8.8" style="stroke:#181818;stroke-width:0.8000000000000002;"/><path d="M678.84,474.4 Q679.0025,474 679.19,473.8 Q679.3775,473.6 679.59,473.6 Q679.965,473.6 680.2025,473.825 Q680.44,474.05 680.44,474.575 L680.44,475.825 Q680.44,476.35 680.215,476.575 Q679.99,476.8 679.64,476.8 Q679.3275,476.8 679.1275,476.6625 Q678.9275,476.525 678.84,476.1625 Q678.8025,475.9125 678.665,475.775 Q678.415,475.5125 677.965,475.3625 Q677.515,475.2 677.065,475.2 Q676.5025,475.2 676.0275,475.425 Q675.565,475.65 675.2025,476.15 Q674.84,476.65 674.84,477.3375 L674.84,478.075 Q674.84,478.9 675.515,479.45 Q676.19,480 677.39,480 Q678.1025,480 678.6025,479.8375 Q678.89,479.75 679.215,479.4625 Q679.4275,479.3 679.54,479.25 Q679.6525,479.2 679.79,479.2 Q680.0525,479.2 680.24,479.4125 Q680.44,479.6125 680.44,479.9 Q680.44,480.175 680.165,480.5 Q679.765,480.975 679.1275,481.2375 Q678.29,481.6 677.265,481.6 Q676.065,481.6 675.1025,481.125 Q674.3275,480.75 673.7775,479.9375 Q673.24,479.125 673.24,478.1625 L673.24,477.2875 Q673.24,476.2875 673.715,475.4125 Q674.2025,474.5375 675.04,474.075 Q675.89,473.6 676.84,473.6 Q677.415,473.6 677.915,473.8 Q678.415,474 678.84,474.4 Z " fill="#000000"/><text fill="#000000" font-family="sans-serif" font-size="11.2" lengthAdjust="spacing" textLength="128.8" x="693.16" y="481.7828">QuestionnaireDTOParser</text><line style="stroke:#181818;stroke-width:0.4000000000000001;" x1="644.8" x2="844.8" y1="490" y2="490"/><line style="stroke:#181818;stroke-width:0.4000000000000001;" x1="644.8" x2="844.8" y1="496.4" y2="496.4"/><text fill="#000000" font-family="sans-serif" font-size="11.2" lengthAdjust="spacing" textLength="192" x="648.8" y="511.2266">+valueOf(final QuestionnaireDTO dto)</text></g><!--MD5=[2abc79d40101accfa98ab833661a4bb3]
class SectionDTOParser--><g id="elem_SectionDTOParser"><rect codeLine="77" fill="#F1F1F1" height="52.4875" id="SectionDTOParser" rx="2" ry="2" style="stroke:#181818;stroke-width:0.4000000000000001;" width="168" x="1516" y="464.4"/><ellipse cx="1549.24" cy="477.2" fill="#ADD1B2" rx="8.8" ry="8.8" style="stroke:#181818;stroke-width:0.8000000000000002;"/><path d="M1550.84,474.4 Q1551.0025,474 1551.19,473.8 Q1551.3775,473.6 1551.59,473.6 Q1551.965,473.6 1552.2025,473.825 Q1552.44,474.05 1552.44,474.575 L1552.44,475.825 Q1552.44,476.35 1552.215,476.575 Q1551.99,476.8 1551.64,476.8 Q1551.3275,476.8 1551.1275,476.6625 Q1550.9275,476.525 1550.84,476.1625 Q1550.8025,475.9125 1550.665,475.775 Q1550.415,475.5125 1549.965,475.3625 Q1549.515,475.2 1549.065,475.2 Q1548.5025,475.2 1548.0275,475.425 Q1547.565,475.65 1547.2025,476.15 Q1546.84,476.65 1546.84,477.3375 L1546.84,478.075 Q1546.84,478.9 1547.515,479.45 Q1548.19,480 1549.39,480 Q1550.1025,480 1550.6025,479.8375 Q1550.89,479.75 1551.215,479.4625 Q1551.4275,479.3 1551.54,479.25 Q1551.6525,479.2 1551.79,479.2 Q1552.0525,479.2 1552.24,479.4125 Q1552.44,479.6125 1552.44,479.9 Q1552.44,480.175 1552.165,480.5 Q1551.765,480.975 1551.1275,481.2375 Q1550.29,481.6 1549.265,481.6 Q1548.065,481.6 1547.1025,481.125 Q1546.3275,480.75 1545.7775,479.9375 Q1545.24,479.125 1545.24,478.1625 L1545.24,477.2875 Q1545.24,476.2875 1545.715,475.4125 Q1546.2025,474.5375 1547.04,474.075 Q1547.89,473.6 1548.84,473.6 Q1549.415,473.6 1549.915,473.8 Q1550.415,474 1550.84,474.4 Z " fill="#000000"/><text fill="#000000" font-family="sans-serif" font-size="11.2" lengthAdjust="spacing" textLength="95.2" x="1565.16" y="481.7828">SectionDTOParser</text><line style="stroke:#181818;stroke-width:0.4000000000000001;" x1="1516.8" x2="1683.2" y1="490" y2="490"/><line style="stroke:#181818;stroke-width:0.4000000000000001;" x1="1516.8" x2="1683.2" y1="496.4" y2="496.4"/><text fill="#000000" font-family="sans-serif" font-size="11.2" lengthAdjust="spacing" textLength="158.4" x="1520.8" y="511.2266">+valueOf(final SectionDTO dto)</text></g><!--MD5=[d6dc7c2c438f63d63472bd608aa6eb8e]
class SurveyDTOParser--><g id="elem_SurveyDTOParser"><rect codeLine="81" fill="#F1F1F1" height="52.4875" id="SurveyDTOParser" rx="2" ry="2" style="stroke:#181818;stroke-width:0.4000000000000001;" width="165.6" x="960.4" y="464.4"/><ellipse cx="993.64" cy="477.2" fill="#ADD1B2" rx="8.8" ry="8.8" style="stroke:#181818;stroke-width:0.8000000000000002;"/><path d="M995.24,474.4 Q995.4025,474 995.59,473.8 Q995.7775,473.6 995.99,473.6 Q996.365,473.6 996.6025,473.825 Q996.84,474.05 996.84,474.575 L996.84,475.825 Q996.84,476.35 996.615,476.575 Q996.39,476.8 996.04,476.8 Q995.7275,476.8 995.5275,476.6625 Q995.3275,476.525 995.24,476.1625 Q995.2025,475.9125 995.065,475.775 Q994.815,475.5125 994.365,475.3625 Q993.915,475.2 993.465,475.2 Q992.9025,475.2 992.4275,475.425 Q991.965,475.65 991.6025,476.15 Q991.24,476.65 991.24,477.3375 L991.24,478.075 Q991.24,478.9 991.915,479.45 Q992.59,480 993.79,480 Q994.5025,480 995.0025,479.8375 Q995.29,479.75 995.615,479.4625 Q995.8275,479.3 995.94,479.25 Q996.0525,479.2 996.19,479.2 Q996.4525,479.2 996.64,479.4125 Q996.84,479.6125 996.84,479.9 Q996.84,480.175 996.565,480.5 Q996.165,480.975 995.5275,481.2375 Q994.69,481.6 993.665,481.6 Q992.465,481.6 991.5025,481.125 Q990.7275,480.75 990.1775,479.9375 Q989.64,479.125 989.64,478.1625 L989.64,477.2875 Q989.64,476.2875 990.115,475.4125 Q990.6025,474.5375 991.44,474.075 Q992.29,473.6 993.24,473.6 Q993.815,473.6 994.315,473.8 Q994.815,474 995.24,474.4 Z " fill="#000000"/><text fill="#000000" font-family="sans-serif" font-size="11.2" lengthAdjust="spacing" textLength="92.8" x="1009.56" y="481.7828">SurveyDTOParser</text><line style="stroke:#181818;stroke-width:0.4000000000000001;" x1="961.2" x2="1125.2" y1="490" y2="490"/><line style="stroke:#181818;stroke-width:0.4000000000000001;" x1="961.2" x2="1125.2" y1="496.4" y2="496.4"/><text fill="#000000" font-family="sans-serif" font-size="11.2" lengthAdjust="spacing" textLength="156" x="965.2" y="511.2266">+valueOf(final SurveyDTO dto)</text></g><!--MD5=[057d703b83cb645378996a73205c3b84]
class QuestionBuilder--><g id="elem_QuestionBuilder"><rect codeLine="85" fill="#F1F1F1" height="179.275" id="QuestionBuilder" rx="2" ry="2" style="stroke:#181818;stroke-width:0.4000000000000001;" width="444.8" x="5.6" y="1160.8"/><ellipse cx="184.2" cy="1173.6" fill="#ADD1B2" rx="8.8" ry="8.8" style="stroke:#181818;stroke-width:0.8000000000000002;"/><path d="M185.8,1170.8 Q185.9625,1170.4 186.15,1170.2 Q186.3375,1170 186.55,1170 Q186.925,1170 187.1625,1170.225 Q187.4,1170.45 187.4,1170.975 L187.4,1172.225 Q187.4,1172.75 187.175,1172.975 Q186.95,1173.2 186.6,1173.2 Q186.2875,1173.2 186.0875,1173.0625 Q185.8875,1172.925 185.8,1172.5625 Q185.7625,1172.3125 185.625,1172.175 Q185.375,1171.9125 184.925,1171.7625 Q184.475,1171.6 184.025,1171.6 Q183.4625,1171.6 182.9875,1171.825 Q182.525,1172.05 182.1625,1172.55 Q181.8,1173.05 181.8,1173.7375 L181.8,1174.475 Q181.8,1175.3 182.475,1175.85 Q183.15,1176.4 184.35,1176.4 Q185.0625,1176.4 185.5625,1176.2375 Q185.85,1176.15 186.175,1175.8625 Q186.3875,1175.7 186.5,1175.65 Q186.6125,1175.6 186.75,1175.6 Q187.0125,1175.6 187.2,1175.8125 Q187.4,1176.0125 187.4,1176.3 Q187.4,1176.575 187.125,1176.9 Q186.725,1177.375 186.0875,1177.6375 Q185.25,1178 184.225,1178 Q183.025,1178 182.0625,1177.525 Q181.2875,1177.15 180.7375,1176.3375 Q180.2,1175.525 180.2,1174.5625 L180.2,1173.6875 Q180.2,1172.6875 180.675,1171.8125 Q181.1625,1170.9375 182,1170.475 Q182.85,1170 183.8,1170 Q184.375,1170 184.875,1170.2 Q185.375,1170.4 185.8,1170.8 Z " fill="#000000"/><text fill="#000000" font-family="sans-serif" font-size="11.2" lengthAdjust="spacing" textLength="80.8" x="200.6" y="1178.1828">QuestionBuilder</text><line style="stroke:#181818;stroke-width:0.4000000000000001;" x1="6.4" x2="449.6" y1="1186.4" y2="1186.4"/><text fill="#000000" font-family="sans-serif" font-size="11.2" lengthAdjust="spacing" textLength="88.8" x="10.4" y="1201.2266">-String questionId</text><text fill="#000000" font-family="sans-serif" font-size="11.2" lengthAdjust="spacing" textLength="125.6" x="10.4" y="1215.3141">-String questionMessage</text><text fill="#000000" font-family="sans-serif" font-size="11.2" lengthAdjust="spacing" textLength="88.8" x="10.4" y="1229.4016">-String instruction</text><text fill="#000000" font-family="sans-serif" font-size="11.2" lengthAdjust="spacing" textLength="105.6" x="10.4" y="1243.4891">-String questionType</text><text fill="#000000" font-family="sans-serif" font-size="11.2" lengthAdjust="spacing" textLength="107.2" x="10.4" y="1257.5766">-String obligatoriness</text><text fill="#000000" font-family="sans-serif" font-size="11.2" lengthAdjust="spacing" textLength="80" x="10.4" y="1271.6641">-String extraInfo</text><line style="stroke:#181818;stroke-width:0.4000000000000001;" x1="6.4" x2="449.6" y1="1277.325" y2="1277.325"/><text fill="#000000" font-family="sans-serif" font-size="11.2" lengthAdjust="spacing" textLength="435.2" x="10.4" y="1292.1516">+QuestionBuilder(String id, String questionMessage, String type, String obligatoriness)</text><text fill="#000000" font-family="sans-serif" font-size="11.2" lengthAdjust="spacing" textLength="194.4" x="10.4" y="1306.2391">+withInstruction(final String instruction)</text><text fill="#000000" font-family="sans-serif" font-size="11.2" lengthAdjust="spacing" textLength="177.6" x="10.4" y="1320.3266">+withExtraInfo(final String extraInfo)</text><text fill="#000000" font-family="sans-serif" font-size="11.2" lengthAdjust="spacing" textLength="38.4" x="10.4" y="1334.4141">+build()</text></g><!--MD5=[fcef06c4e3b9b184487b068d5fbaf817]
class QuestionnaireBuilder--><g id="elem_QuestionnaireBuilder"><rect codeLine="100" fill="#F1F1F1" height="165.1875" id="QuestionnaireBuilder" rx="2" ry="2" style="stroke:#181818;stroke-width:0.4000000000000001;" width="280.8" x="366" y="593.6"/><ellipse cx="449.8" cy="606.4" fill="#ADD1B2" rx="8.8" ry="8.8" style="stroke:#181818;stroke-width:0.8000000000000002;"/><path d="M451.4,603.6 Q451.5625,603.2 451.75,603 Q451.9375,602.8 452.15,602.8 Q452.525,602.8 452.7625,603.025 Q453,603.25 453,603.775 L453,605.025 Q453,605.55 452.775,605.775 Q452.55,606 452.2,606 Q451.8875,606 451.6875,605.8625 Q451.4875,605.725 451.4,605.3625 Q451.3625,605.1125 451.225,604.975 Q450.975,604.7125 450.525,604.5625 Q450.075,604.4 449.625,604.4 Q449.0625,604.4 448.5875,604.625 Q448.125,604.85 447.7625,605.35 Q447.4,605.85 447.4,606.5375 L447.4,607.275 Q447.4,608.1 448.075,608.65 Q448.75,609.2 449.95,609.2 Q450.6625,609.2 451.1625,609.0375 Q451.45,608.95 451.775,608.6625 Q451.9875,608.5 452.1,608.45 Q452.2125,608.4 452.35,608.4 Q452.6125,608.4 452.8,608.6125 Q453,608.8125 453,609.1 Q453,609.375 452.725,609.7 Q452.325,610.175 451.6875,610.4375 Q450.85,610.8 449.825,610.8 Q448.625,610.8 447.6625,610.325 Q446.8875,609.95 446.3375,609.1375 Q445.8,608.325 445.8,607.3625 L445.8,606.4875 Q445.8,605.4875 446.275,604.6125 Q446.7625,603.7375 447.6,603.275 Q448.45,602.8 449.4,602.8 Q449.975,602.8 450.475,603 Q450.975,603.2 451.4,603.6 Z " fill="#000000"/><text fill="#000000" font-family="sans-serif" font-size="11.2" lengthAdjust="spacing" textLength="106.4" x="466.2" y="610.9828">QuestionnaireBuilder</text><line style="stroke:#181818;stroke-width:0.4000000000000001;" x1="366.8" x2="646" y1="619.2" y2="619.2"/><text fill="#000000" font-family="sans-serif" font-size="11.2" lengthAdjust="spacing" textLength="114.4" x="370.8" y="634.0266">-String questionnaireId</text><text fill="#000000" font-family="sans-serif" font-size="11.2" lengthAdjust="spacing" textLength="127.2" x="370.8" y="648.1141">-String questionnaireTitle</text><text fill="#000000" font-family="sans-serif" font-size="11.2" lengthAdjust="spacing" textLength="125.6" x="370.8" y="662.2016">-String welcomeMessage</text><text fill="#000000" font-family="sans-serif" font-size="11.2" lengthAdjust="spacing" textLength="103.2" x="370.8" y="676.2891">-String finalMessage</text><text fill="#000000" font-family="sans-serif" font-size="11.2" lengthAdjust="spacing" textLength="116.8" x="370.8" y="690.3766">-List&lt;Section&gt; sections</text><line style="stroke:#181818;stroke-width:0.4000000000000001;" x1="366.8" x2="646" y1="696.0375" y2="696.0375"/><text fill="#000000" font-family="sans-serif" font-size="11.2" lengthAdjust="spacing" textLength="219.2" x="370.8" y="710.8641">+QuestionnaireBuilder(String id, String title)</text><text fill="#000000" font-family="sans-serif" font-size="11.2" lengthAdjust="spacing" textLength="271.2" x="370.8" y="724.9516">+withWelcomeMessage(final String welcomeMessage)</text><text fill="#000000" font-family="sans-serif" font-size="11.2" lengthAdjust="spacing" textLength="227.2" x="370.8" y="739.0391">+withFinalMessage(final String finalMessage)</text><text fill="#000000" font-family="sans-serif" font-size="11.2" lengthAdjust="spacing" textLength="38.4" x="370.8" y="753.1266">+build()</text></g><!--MD5=[fe57f3cef35fdf02ea3f7e2e074a9035]
class SectionBuilder--><g id="elem_SectionBuilder"><rect codeLine="112" fill="#F1F1F1" height="179.275" id="SectionBuilder" rx="2" ry="2" style="stroke:#181818;stroke-width:0.4000000000000001;" width="380.8" x="1527.2" y="782.4"/><ellipse cx="1677.8" cy="795.2" fill="#ADD1B2" rx="8.8" ry="8.8" style="stroke:#181818;stroke-width:0.8000000000000002;"/><path d="M1679.4,792.4 Q1679.5625,792 1679.75,791.8 Q1679.9375,791.6 1680.15,791.6 Q1680.525,791.6 1680.7625,791.825 Q1681,792.05 1681,792.575 L1681,793.825 Q1681,794.35 1680.775,794.575 Q1680.55,794.8 1680.2,794.8 Q1679.8875,794.8 1679.6875,794.6625 Q1679.4875,794.525 1679.4,794.1625 Q1679.3625,793.9125 1679.225,793.775 Q1678.975,793.5125 1678.525,793.3625 Q1678.075,793.2 1677.625,793.2 Q1677.0625,793.2 1676.5875,793.425 Q1676.125,793.65 1675.7625,794.15 Q1675.4,794.65 1675.4,795.3375 L1675.4,796.075 Q1675.4,796.9 1676.075,797.45 Q1676.75,798 1677.95,798 Q1678.6625,798 1679.1625,797.8375 Q1679.45,797.75 1679.775,797.4625 Q1679.9875,797.3 1680.1,797.25 Q1680.2125,797.2 1680.35,797.2 Q1680.6125,797.2 1680.8,797.4125 Q1681,797.6125 1681,797.9 Q1681,798.175 1680.725,798.5 Q1680.325,798.975 1679.6875,799.2375 Q1678.85,799.6 1677.825,799.6 Q1676.625,799.6 1675.6625,799.125 Q1674.8875,798.75 1674.3375,797.9375 Q1673.8,797.125 1673.8,796.1625 L1673.8,795.2875 Q1673.8,794.2875 1674.275,793.4125 Q1674.7625,792.5375 1675.6,792.075 Q1676.45,791.6 1677.4,791.6 Q1677.975,791.6 1678.475,791.8 Q1678.975,792 1679.4,792.4 Z " fill="#000000"/><text fill="#000000" font-family="sans-serif" font-size="11.2" lengthAdjust="spacing" textLength="72.8" x="1694.2" y="799.7828">SectionBuilder</text><line style="stroke:#181818;stroke-width:0.4000000000000001;" x1="1528" x2="1907.2" y1="808" y2="808"/><text fill="#000000" font-family="sans-serif" font-size="11.2" lengthAdjust="spacing" textLength="81.6" x="1532" y="822.8266">-String sectionId</text><text fill="#000000" font-family="sans-serif" font-size="11.2" lengthAdjust="spacing" textLength="94.4" x="1532" y="836.9141">-String sectionTitle</text><text fill="#000000" font-family="sans-serif" font-size="11.2" lengthAdjust="spacing" textLength="129.6" x="1532" y="851.0016">-String sectionDescription</text><text fill="#000000" font-family="sans-serif" font-size="11.2" lengthAdjust="spacing" textLength="107.2" x="1532" y="865.0891">-String obligatoriness</text><text fill="#000000" font-family="sans-serif" font-size="11.2" lengthAdjust="spacing" textLength="98.4" x="1532" y="879.1766">-String repeatability</text><text fill="#000000" font-family="sans-serif" font-size="11.2" lengthAdjust="spacing" textLength="132" x="1532" y="893.2641">-List&lt;Question&gt; questions</text><line style="stroke:#181818;stroke-width:0.4000000000000001;" x1="1528" x2="1907.2" y1="898.925" y2="898.925"/><text fill="#000000" font-family="sans-serif" font-size="11.2" lengthAdjust="spacing" textLength="371.2" x="1532" y="913.7516">+SectionBuilder(String sectionId, String sectionTitle, String obligatoriness)</text><text fill="#000000" font-family="sans-serif" font-size="11.2" lengthAdjust="spacing" textLength="277.6" x="1532" y="927.8391">+withSectionDescription(final String sectionDescription)</text><text fill="#000000" font-family="sans-serif" font-size="11.2" lengthAdjust="spacing" textLength="208" x="1532" y="941.9266">+withRepeability(final String repeatability)</text><text fill="#000000" font-family="sans-serif" font-size="11.2" lengthAdjust="spacing" textLength="38.4" x="1532" y="956.0141">+build()</text></g><!--MD5=[2555a5a46195b40631e16698a2ba5d47]
class Period--><g id="elem_Period"><rect codeLine="127" fill="#F1F1F1" height="80.6625" id="Period" rx="2" ry="2" style="stroke:#181818;stroke-width:0.4000000000000001;" width="233.6" x="642.4" y="1020.8"/><ellipse cx="739.4" cy="1033.6" fill="#ADD1B2" rx="8.8" ry="8.8" style="stroke:#181818;stroke-width:0.8000000000000002;"/><path d="M741,1030.8 Q741.1625,1030.4 741.35,1030.2 Q741.5375,1030 741.75,1030 Q742.125,1030 742.3625,1030.225 Q742.6,1030.45 742.6,1030.975 L742.6,1032.225 Q742.6,1032.75 742.375,1032.975 Q742.15,1033.2 741.8,1033.2 Q741.4875,1033.2 741.2875,1033.0625 Q741.0875,1032.925 741,1032.5625 Q740.9625,1032.3125 740.825,1032.175 Q740.575,1031.9125 740.125,1031.7625 Q739.675,1031.6 739.225,1031.6 Q738.6625,1031.6 738.1875,1031.825 Q737.725,1032.05 737.3625,1032.55 Q737,1033.05 737,1033.7375 L737,1034.475 Q737,1035.3 737.675,1035.85 Q738.35,1036.4 739.55,1036.4 Q740.2625,1036.4 740.7625,1036.2375 Q741.05,1036.15 741.375,1035.8625 Q741.5875,1035.7 741.7,1035.65 Q741.8125,1035.6 741.95,1035.6 Q742.2125,1035.6 742.4,1035.8125 Q742.6,1036.0125 742.6,1036.3 Q742.6,1036.575 742.325,1036.9 Q741.925,1037.375 741.2875,1037.6375 Q740.45,1038 739.425,1038 Q738.225,1038 737.2625,1037.525 Q736.4875,1037.15 735.9375,1036.3375 Q735.4,1035.525 735.4,1034.5625 L735.4,1033.6875 Q735.4,1032.6875 735.875,1031.8125 Q736.3625,1030.9375 737.2,1030.475 Q738.05,1030 739,1030 Q739.575,1030 740.075,1030.2 Q740.575,1030.4 741,1030.8 Z " fill="#000000"/><text fill="#000000" font-family="sans-serif" font-size="11.2" lengthAdjust="spacing" textLength="32.8" x="755.8" y="1038.1828">Period</text><line style="stroke:#181818;stroke-width:0.4000000000000001;" x1="643.2" x2="875.2" y1="1046.4" y2="1046.4"/><text fill="#000000" font-family="sans-serif" font-size="11.2" lengthAdjust="spacing" textLength="60.8" x="647.2" y="1061.2266">-String days</text><line style="stroke:#181818;stroke-width:0.4000000000000001;" x1="643.2" x2="875.2" y1="1066.8875" y2="1066.8875"/><text fill="#000000" font-family="sans-serif" font-size="11.2" lengthAdjust="spacing" textLength="104" x="647.2" y="1081.7141">+Period(String days)</text><text fill="#000000" font-family="sans-serif" font-size="11.2" lengthAdjust="spacing" textLength="224" x="647.2" y="1095.8016">+valueOf(String prefix, String phoneNumber)</text></g><!--MD5=[5a3b85c54cc1c79904e0b827443986bf]
class Questionnaire--><g id="elem_Questionnaire"><rect codeLine="132" fill="#F1F1F1" height="122.925" id="Questionnaire" rx="2" ry="2" style="stroke:#181818;stroke-width:0.4000000000000001;" width="344" x="270.4" y="999.6"/><ellipse cx="403.4" cy="1012.4" fill="#ADD1B2" rx="8.8" ry="8.8" style="stroke:#181818;stroke-width:0.8000000000000002;"/><path d="M405,1009.6 Q405.1625,1009.2 405.35,1009 Q405.5375,1008.8 405.75,1008.8 Q406.125,1008.8 406.3625,1009.025 Q406.6,1009.25 406.6,1009.775 L406.6,1011.025 Q406.6,1011.55 406.375,1011.775 Q406.15,1012 405.8,1012 Q405.4875,1012 405.2875,1011.8625 Q405.0875,1011.725 405,1011.3625 Q404.9625,1011.1125 404.825,1010.975 Q404.575,1010.7125 404.125,1010.5625 Q403.675,1010.4 403.225,1010.4 Q402.6625,1010.4 402.1875,1010.625 Q401.725,1010.85 401.3625,1011.35 Q401,1011.85 401,1012.5375 L401,1013.275 Q401,1014.1 401.675,1014.65 Q402.35,1015.2 403.55,1015.2 Q404.2625,1015.2 404.7625,1015.0375 Q405.05,1014.95 405.375,1014.6625 Q405.5875,1014.5 405.7,1014.45 Q405.8125,1014.4 405.95,1014.4 Q406.2125,1014.4 406.4,1014.6125 Q406.6,1014.8125 406.6,1015.1 Q406.6,1015.375 406.325,1015.7 Q405.925,1016.175 405.2875,1016.4375 Q404.45,1016.8 403.425,1016.8 Q402.225,1016.8 401.2625,1016.325 Q400.4875,1015.95 399.9375,1015.1375 Q399.4,1014.325 399.4,1013.3625 L399.4,1012.4875 Q399.4,1011.4875 399.875,1010.6125 Q400.3625,1009.7375 401.2,1009.275 Q402.05,1008.8 403,1008.8 Q403.575,1008.8 404.075,1009 Q404.575,1009.2 405,1009.6 Z " fill="#000000"/><text fill="#000000" font-family="sans-serif" font-size="11.2" lengthAdjust="spacing" textLength="71.2" x="419.8" y="1016.9828">Questionnaire</text><line style="stroke:#181818;stroke-width:0.4000000000000001;" x1="271.2" x2="613.6" y1="1025.2" y2="1025.2"/><text fill="#000000" font-family="sans-serif" font-size="11.2" lengthAdjust="spacing" textLength="48.8" x="275.2" y="1040.0266">-String id;</text><text fill="#000000" font-family="sans-serif" font-size="11.2" lengthAdjust="spacing" textLength="57.6" x="275.2" y="1054.1141">-String title;</text><text fill="#000000" font-family="sans-serif" font-size="11.2" lengthAdjust="spacing" textLength="128.8" x="275.2" y="1068.2016">-String welcomeMessage;</text><text fill="#000000" font-family="sans-serif" font-size="11.2" lengthAdjust="spacing" textLength="120" x="275.2" y="1082.2891">-List&lt;Section&gt; sections;</text><text fill="#000000" font-family="sans-serif" font-size="11.2" lengthAdjust="spacing" textLength="106.4" x="275.2" y="1096.3766">-String finalMessage;</text><line style="stroke:#181818;stroke-width:0.4000000000000001;" x1="271.2" x2="613.6" y1="1102.0375" y2="1102.0375"/><text fill="#000000" font-family="sans-serif" font-size="11.2" lengthAdjust="spacing" textLength="334.4" x="275.2" y="1116.8641">+Questionnaire(id, title, welcomeMessage, sections, finalMessage)</text></g><!--MD5=[09a53695e98d4f26e7a054522080af08]
class Section--><g id="elem_Section"><rect codeLine="142" fill="#F1F1F1" height="137.0125" id="Section" rx="2" ry="2" style="stroke:#181818;stroke-width:0.4000000000000001;" width="344.8" x="310" y="1364"/><ellipse cx="460.2" cy="1376.8" fill="#ADD1B2" rx="8.8" ry="8.8" style="stroke:#181818;stroke-width:0.8000000000000002;"/><path d="M461.8,1374 Q461.9625,1373.6 462.15,1373.4 Q462.3375,1373.2 462.55,1373.2 Q462.925,1373.2 463.1625,1373.425 Q463.4,1373.65 463.4,1374.175 L463.4,1375.425 Q463.4,1375.95 463.175,1376.175 Q462.95,1376.4 462.6,1376.4 Q462.2875,1376.4 462.0875,1376.2625 Q461.8875,1376.125 461.8,1375.7625 Q461.7625,1375.5125 461.625,1375.375 Q461.375,1375.1125 460.925,1374.9625 Q460.475,1374.8 460.025,1374.8 Q459.4625,1374.8 458.9875,1375.025 Q458.525,1375.25 458.1625,1375.75 Q457.8,1376.25 457.8,1376.9375 L457.8,1377.675 Q457.8,1378.5 458.475,1379.05 Q459.15,1379.6 460.35,1379.6 Q461.0625,1379.6 461.5625,1379.4375 Q461.85,1379.35 462.175,1379.0625 Q462.3875,1378.9 462.5,1378.85 Q462.6125,1378.8 462.75,1378.8 Q463.0125,1378.8 463.2,1379.0125 Q463.4,1379.2125 463.4,1379.5 Q463.4,1379.775 463.125,1380.1 Q462.725,1380.575 462.0875,1380.8375 Q461.25,1381.2 460.225,1381.2 Q459.025,1381.2 458.0625,1380.725 Q457.2875,1380.35 456.7375,1379.5375 Q456.2,1378.725 456.2,1377.7625 L456.2,1376.8875 Q456.2,1375.8875 456.675,1375.0125 Q457.1625,1374.1375 458,1373.675 Q458.85,1373.2 459.8,1373.2 Q460.375,1373.2 460.875,1373.4 Q461.375,1373.6 461.8,1374 Z " fill="#000000"/><text fill="#000000" font-family="sans-serif" font-size="11.2" lengthAdjust="spacing" textLength="37.6" x="476.6" y="1381.3828">Section</text><line style="stroke:#181818;stroke-width:0.4000000000000001;" x1="310.8" x2="654" y1="1389.6" y2="1389.6"/><text fill="#000000" font-family="sans-serif" font-size="11.2" lengthAdjust="spacing" textLength="48.8" x="314.8" y="1404.4266">-String id;</text><text fill="#000000" font-family="sans-serif" font-size="11.2" lengthAdjust="spacing" textLength="57.6" x="314.8" y="1418.5141">-String title;</text><text fill="#000000" font-family="sans-serif" font-size="11.2" lengthAdjust="spacing" textLength="119.2" x="314.8" y="1432.6016">-Description description</text><text fill="#000000" font-family="sans-serif" font-size="11.2" lengthAdjust="spacing" textLength="150.4" x="314.8" y="1446.6891">-Obligatoriness obligatoriness</text><text fill="#000000" font-family="sans-serif" font-size="11.2" lengthAdjust="spacing" textLength="98.4" x="314.8" y="1460.7766">-String repeatability</text><text fill="#000000" font-family="sans-serif" font-size="11.2" lengthAdjust="spacing" textLength="124" x="314.8" y="1474.8641">-List&lt;Question&gt; content;</text><line style="stroke:#181818;stroke-width:0.4000000000000001;" x1="310.8" x2="654" y1="1480.525" y2="1480.525"/><text fill="#000000" font-family="sans-serif" font-size="11.2" lengthAdjust="spacing" textLength="335.2" x="314.8" y="1495.3516">+Section(id, title, description, obligatoriness, repeatability, content)</text></g><!--MD5=[fc7123defb831ecdd44b2d9bcef6cceb]
class Question--><g id="elem_Question"><rect codeLine="153" fill="#F1F1F1" height="151.1" id="Question" rx="2" ry="2" style="stroke:#181818;stroke-width:0.4000000000000001;" width="386.4" x="70.8" y="1563.2"/><ellipse cx="237.8" cy="1576" fill="#ADD1B2" rx="8.8" ry="8.8" style="stroke:#181818;stroke-width:0.8000000000000002;"/><path d="M239.4,1573.2 Q239.5625,1572.8 239.75,1572.6 Q239.9375,1572.4 240.15,1572.4 Q240.525,1572.4 240.7625,1572.625 Q241,1572.85 241,1573.375 L241,1574.625 Q241,1575.15 240.775,1575.375 Q240.55,1575.6 240.2,1575.6 Q239.8875,1575.6 239.6875,1575.4625 Q239.4875,1575.325 239.4,1574.9625 Q239.3625,1574.7125 239.225,1574.575 Q238.975,1574.3125 238.525,1574.1625 Q238.075,1574 237.625,1574 Q237.0625,1574 236.5875,1574.225 Q236.125,1574.45 235.7625,1574.95 Q235.4,1575.45 235.4,1576.1375 L235.4,1576.875 Q235.4,1577.7 236.075,1578.25 Q236.75,1578.8 237.95,1578.8 Q238.6625,1578.8 239.1625,1578.6375 Q239.45,1578.55 239.775,1578.2625 Q239.9875,1578.1 240.1,1578.05 Q240.2125,1578 240.35,1578 Q240.6125,1578 240.8,1578.2125 Q241,1578.4125 241,1578.7 Q241,1578.975 240.725,1579.3 Q240.325,1579.775 239.6875,1580.0375 Q238.85,1580.4 237.825,1580.4 Q236.625,1580.4 235.6625,1579.925 Q234.8875,1579.55 234.3375,1578.7375 Q233.8,1577.925 233.8,1576.9625 L233.8,1576.0875 Q233.8,1575.0875 234.275,1574.2125 Q234.7625,1573.3375 235.6,1572.875 Q236.45,1572.4 237.4,1572.4 Q237.975,1572.4 238.475,1572.6 Q238.975,1572.8 239.4,1573.2 Z " fill="#000000"/><text fill="#000000" font-family="sans-serif" font-size="11.2" lengthAdjust="spacing" textLength="45.6" x="254.2" y="1580.5828">Question</text><line style="stroke:#181818;stroke-width:0.4000000000000001;" x1="71.6" x2="456.4" y1="1588.8" y2="1588.8"/><text fill="#000000" font-family="sans-serif" font-size="11.2" lengthAdjust="spacing" textLength="48.8" x="75.6" y="1603.6266">-String id;</text><text fill="#000000" font-family="sans-serif" font-size="11.2" lengthAdjust="spacing" textLength="128.8" x="75.6" y="1617.7141">-String questionMessage;</text><text fill="#000000" font-family="sans-serif" font-size="11.2" lengthAdjust="spacing" textLength="92" x="75.6" y="1631.8016">-String instruction;</text><text fill="#000000" font-family="sans-serif" font-size="11.2" lengthAdjust="spacing" textLength="103.2" x="75.6" y="1645.8891">-QuestionType type;</text><text fill="#000000" font-family="sans-serif" font-size="11.2" lengthAdjust="spacing" textLength="150.4" x="75.6" y="1659.9766">-Obligatoriness obligatoriness</text><text fill="#000000" font-family="sans-serif" font-size="11.2" lengthAdjust="spacing" textLength="80" x="75.6" y="1674.0641">-String extraInfo</text><line style="stroke:#181818;stroke-width:0.4000000000000001;" x1="71.6" x2="456.4" y1="1679.725" y2="1679.725"/><text fill="#000000" font-family="sans-serif" font-size="11.2" lengthAdjust="spacing" textLength="376.8" x="75.6" y="1694.5516">+Question(id, questionMessage, instruction, type, obligatoriness, extraInfo)</text><text fill="#000000" font-family="sans-serif" font-size="11.2" lengthAdjust="spacing" textLength="53.6" x="75.6" y="1708.6391">+toString()</text></g><!--MD5=[fd7366e9f96236d9aa60dcc04f2b83e5]
class Content--><g id="elem_Content"><rect codeLine="166" fill="#F1F1F1" height="151.1" id="Content" rx="2" ry="2" style="stroke:#181818;stroke-width:0.4000000000000001;" width="221.6" x="904.4" y="985.6"/><ellipse cx="991.8" cy="998.4" fill="#ADD1B2" rx="8.8" ry="8.8" style="stroke:#181818;stroke-width:0.8000000000000002;"/><path d="M993.4,995.6 Q993.5625,995.2 993.75,995 Q993.9375,994.8 994.15,994.8 Q994.525,994.8 994.7625,995.025 Q995,995.25 995,995.775 L995,997.025 Q995,997.55 994.775,997.775 Q994.55,998 994.2,998 Q993.8875,998 993.6875,997.8625 Q993.4875,997.725 993.4,997.3625 Q993.3625,997.1125 993.225,996.975 Q992.975,996.7125 992.525,996.5625 Q992.075,996.4 991.625,996.4 Q991.0625,996.4 990.5875,996.625 Q990.125,996.85 989.7625,997.35 Q989.4,997.85 989.4,998.5375 L989.4,999.275 Q989.4,1000.1 990.075,1000.65 Q990.75,1001.2 991.95,1001.2 Q992.6625,1001.2 993.1625,1001.0375 Q993.45,1000.95 993.775,1000.6625 Q993.9875,1000.5 994.1,1000.45 Q994.2125,1000.4 994.35,1000.4 Q994.6125,1000.4 994.8,1000.6125 Q995,1000.8125 995,1001.1 Q995,1001.375 994.725,1001.7 Q994.325,1002.175 993.6875,1002.4375 Q992.85,1002.8 991.825,1002.8 Q990.625,1002.8 989.6625,1002.325 Q988.8875,1001.95 988.3375,1001.1375 Q987.8,1000.325 987.8,999.3625 L987.8,998.4875 Q987.8,997.4875 988.275,996.6125 Q988.7625,995.7375 989.6,995.275 Q990.45,994.8 991.4,994.8 Q991.975,994.8 992.475,995 Q992.975,995.2 993.4,995.6 Z " fill="#000000"/><text fill="#000000" font-family="sans-serif" font-size="11.2" lengthAdjust="spacing" textLength="40" x="1008.2" y="1002.9828">Content</text><line style="stroke:#181818;stroke-width:0.4000000000000001;" x1="905.2" x2="1125.2" y1="1011.2" y2="1011.2"/><text fill="#000000" font-family="sans-serif" font-size="11.2" lengthAdjust="spacing" textLength="125.6" x="909.2" y="1026.0266">-String fullQuestionnaire;</text><text fill="#000000" font-family="sans-serif" font-size="11.2" lengthAdjust="spacing" textLength="134.4" x="909.2" y="1040.1141">-StringBuilder stringbuilder</text><line style="stroke:#181818;stroke-width:0.4000000000000001;" x1="905.2" x2="1125.2" y1="1045.775" y2="1045.775"/><text fill="#000000" font-family="sans-serif" font-size="11.2" lengthAdjust="spacing" textLength="123.2" x="909.2" y="1060.6016">+Content(questionnaire)</text><text fill="#000000" font-family="sans-serif" font-size="11.2" lengthAdjust="spacing" textLength="140" x="909.2" y="1074.6891">+Content(fullQuestionnaire)</text><text fill="#000000" font-family="sans-serif" font-size="11.2" lengthAdjust="spacing" textLength="212" x="909.2" y="1088.7766">+buildQuestionnaireSyntax(questionnaire)</text><text fill="#000000" font-family="sans-serif" font-size="11.2" lengthAdjust="spacing" textLength="151.2" x="909.2" y="1102.8641">+buildSectionSyntax(sections)</text><text fill="#000000" font-family="sans-serif" font-size="11.2" lengthAdjust="spacing" textLength="160.8" x="909.2" y="1116.9516">+buildQuestionSyntax(question)</text><text fill="#000000" font-family="sans-serif" font-size="11.2" lengthAdjust="spacing" textLength="53.6" x="909.2" y="1131.0391">+toString()</text></g><!--MD5=[3145b4be7c5005b24cda6f18a1d594b0]
class Survey--><g id="elem_Survey"><rect codeLine="179" fill="#F1F1F1" height="108.8375" id="Survey" rx="2" ry="2" style="stroke:#181818;stroke-width:0.4000000000000001;" width="208" x="1025.6" y="621.6"/><ellipse cx="1108.6" cy="634.4" fill="#ADD1B2" rx="8.8" ry="8.8" style="stroke:#181818;stroke-width:0.8000000000000002;"/><path d="M1110.2,631.6 Q1110.3625,631.2 1110.55,631 Q1110.7375,630.8 1110.95,630.8 Q1111.325,630.8 1111.5625,631.025 Q1111.8,631.25 1111.8,631.775 L1111.8,633.025 Q1111.8,633.55 1111.575,633.775 Q1111.35,634 1111,634 Q1110.6875,634 1110.4875,633.8625 Q1110.2875,633.725 1110.2,633.3625 Q1110.1625,633.1125 1110.025,632.975 Q1109.775,632.7125 1109.325,632.5625 Q1108.875,632.4 1108.425,632.4 Q1107.8625,632.4 1107.3875,632.625 Q1106.925,632.85 1106.5625,633.35 Q1106.2,633.85 1106.2,634.5375 L1106.2,635.275 Q1106.2,636.1 1106.875,636.65 Q1107.55,637.2 1108.75,637.2 Q1109.4625,637.2 1109.9625,637.0375 Q1110.25,636.95 1110.575,636.6625 Q1110.7875,636.5 1110.9,636.45 Q1111.0125,636.4 1111.15,636.4 Q1111.4125,636.4 1111.6,636.6125 Q1111.8,636.8125 1111.8,637.1 Q1111.8,637.375 1111.525,637.7 Q1111.125,638.175 1110.4875,638.4375 Q1109.65,638.8 1108.625,638.8 Q1107.425,638.8 1106.4625,638.325 Q1105.6875,637.95 1105.1375,637.1375 Q1104.6,636.325 1104.6,635.3625 L1104.6,634.4875 Q1104.6,633.4875 1105.075,632.6125 Q1105.5625,631.7375 1106.4,631.275 Q1107.25,630.8 1108.2,630.8 Q1108.775,630.8 1109.275,631 Q1109.775,631.2 1110.2,631.6 Z " fill="#000000"/><text fill="#000000" font-family="sans-serif" font-size="11.2" lengthAdjust="spacing" textLength="35.2" x="1125" y="638.9828">Survey</text><line style="stroke:#181818;stroke-width:0.4000000000000001;" x1="1026.4" x2="1232.8" y1="647.2" y2="647.2"/><text fill="#000000" font-family="sans-serif" font-size="11.2" lengthAdjust="spacing" textLength="198.4" x="1030.4" y="662.0266">-AlphanumericCode alphanumericCode</text><text fill="#000000" font-family="sans-serif" font-size="11.2" lengthAdjust="spacing" textLength="119.2" x="1030.4" y="676.1141">-Description description</text><text fill="#000000" font-family="sans-serif" font-size="11.2" lengthAdjust="spacing" textLength="72" x="1030.4" y="690.2016">-Period period</text><text fill="#000000" font-family="sans-serif" font-size="11.2" lengthAdjust="spacing" textLength="147.2" x="1030.4" y="704.2891">-Questionnaire questionnaire</text><text fill="#000000" font-family="sans-serif" font-size="11.2" lengthAdjust="spacing" textLength="84.8" x="1030.4" y="718.3766">-Content content</text><line style="stroke:#181818;stroke-width:0.4000000000000001;" x1="1026.4" x2="1232.8" y1="724.0375" y2="724.0375"/></g><!--MD5=[e8c189551b7885b999ad7cefb30fc2a3]
class PersistenceContext--><g id="elem_PersistenceContext"><rect codeLine="189" fill="#F1F1F1" height="80.6625" id="PersistenceContext" rx="2" ry="2" style="stroke:#181818;stroke-width:0.4000000000000001;" width="164" x="1230.8" y="450.4"/><ellipse cx="1261.16" cy="463.2" fill="#ADD1B2" rx="8.8" ry="8.8" style="stroke:#181818;stroke-width:0.8000000000000002;"/><path d="M1262.76,460.4 Q1262.9225,460 1263.11,459.8 Q1263.2975,459.6 1263.51,459.6 Q1263.885,459.6 1264.1225,459.825 Q1264.36,460.05 1264.36,460.575 L1264.36,461.825 Q1264.36,462.35 1264.135,462.575 Q1263.91,462.8 1263.56,462.8 Q1263.2475,462.8 1263.0475,462.6625 Q1262.8475,462.525 1262.76,462.1625 Q1262.7225,461.9125 1262.585,461.775 Q1262.335,461.5125 1261.885,461.3625 Q1261.435,461.2 1260.985,461.2 Q1260.4225,461.2 1259.9475,461.425 Q1259.485,461.65 1259.1225,462.15 Q1258.76,462.65 1258.76,463.3375 L1258.76,464.075 Q1258.76,464.9 1259.435,465.45 Q1260.11,466 1261.31,466 Q1262.0225,466 1262.5225,465.8375 Q1262.81,465.75 1263.135,465.4625 Q1263.3475,465.3 1263.46,465.25 Q1263.5725,465.2 1263.71,465.2 Q1263.9725,465.2 1264.16,465.4125 Q1264.36,465.6125 1264.36,465.9 Q1264.36,466.175 1264.085,466.5 Q1263.685,466.975 1263.0475,467.2375 Q1262.21,467.6 1261.185,467.6 Q1259.985,467.6 1259.0225,467.125 Q1258.2475,466.75 1257.6975,465.9375 Q1257.16,465.125 1257.16,464.1625 L1257.16,463.2875 Q1257.16,462.2875 1257.635,461.4125 Q1258.1225,460.5375 1258.96,460.075 Q1259.81,459.6 1260.76,459.6 Q1261.335,459.6 1261.835,459.8 Q1262.335,460 1262.76,460.4 Z " fill="#000000"/><text fill="#000000" font-family="sans-serif" font-size="11.2" lengthAdjust="spacing" textLength="97.6" x="1276.44" y="467.7828">PersistenceContext</text><line style="stroke:#181818;stroke-width:0.4000000000000001;" x1="1231.6" x2="1394" y1="476" y2="476"/><text fill="#000000" font-family="sans-serif" font-size="11.2" lengthAdjust="spacing" textLength="91.2" x="1235.6" y="490.8266">-Logger LOGGER</text><text fill="#000000" font-family="sans-serif" font-size="11.2" lengthAdjust="spacing" textLength="154.4" x="1235.6" y="504.9141">-RepositoryFactory theFactory</text><line style="stroke:#181818;stroke-width:0.4000000000000001;" x1="1231.6" x2="1394" y1="510.575" y2="510.575"/><text fill="#000000" font-family="sans-serif" font-size="11.2" lengthAdjust="spacing" textLength="73.6" x="1235.6" y="525.4016">+repositories()</text></g><!--MD5=[48590afff58a68e2fcba47824d6f8a11]
class RepositoryFactory--><g id="elem_RepositoryFactory"><rect codeLine="195" fill="#F1F1F1" height="52.4875" id="RepositoryFactory" rx="2" ry="2" style="stroke:#181818;stroke-width:0.4000000000000001;" width="118.4" x="1416" y="649.6"/><ellipse cx="1428" cy="662.4" fill="#ADD1B2" rx="8.8" ry="8.8" style="stroke:#181818;stroke-width:0.8000000000000002;"/><path d="M1429.6,659.6 Q1429.7625,659.2 1429.95,659 Q1430.1375,658.8 1430.35,658.8 Q1430.725,658.8 1430.9625,659.025 Q1431.2,659.25 1431.2,659.775 L1431.2,661.025 Q1431.2,661.55 1430.975,661.775 Q1430.75,662 1430.4,662 Q1430.0875,662 1429.8875,661.8625 Q1429.6875,661.725 1429.6,661.3625 Q1429.5625,661.1125 1429.425,660.975 Q1429.175,660.7125 1428.725,660.5625 Q1428.275,660.4 1427.825,660.4 Q1427.2625,660.4 1426.7875,660.625 Q1426.325,660.85 1425.9625,661.35 Q1425.6,661.85 1425.6,662.5375 L1425.6,663.275 Q1425.6,664.1 1426.275,664.65 Q1426.95,665.2 1428.15,665.2 Q1428.8625,665.2 1429.3625,665.0375 Q1429.65,664.95 1429.975,664.6625 Q1430.1875,664.5 1430.3,664.45 Q1430.4125,664.4 1430.55,664.4 Q1430.8125,664.4 1431,664.6125 Q1431.2,664.8125 1431.2,665.1 Q1431.2,665.375 1430.925,665.7 Q1430.525,666.175 1429.8875,666.4375 Q1429.05,666.8 1428.025,666.8 Q1426.825,666.8 1425.8625,666.325 Q1425.0875,665.95 1424.5375,665.1375 Q1424,664.325 1424,663.3625 L1424,662.4875 Q1424,661.4875 1424.475,660.6125 Q1424.9625,659.7375 1425.8,659.275 Q1426.65,658.8 1427.6,658.8 Q1428.175,658.8 1428.675,659 Q1429.175,659.2 1429.6,659.6 Z " fill="#000000"/><text fill="#000000" font-family="sans-serif" font-size="11.2" lengthAdjust="spacing" textLength="92.8" x="1439.2" y="666.9828">RepositoryFactory</text><line style="stroke:#181818;stroke-width:0.4000000000000001;" x1="1416.8" x2="1533.6" y1="675.2" y2="675.2"/><line style="stroke:#181818;stroke-width:0.4000000000000001;" x1="1416.8" x2="1533.6" y1="681.6" y2="681.6"/><text fill="#000000" font-family="sans-serif" font-size="11.2" lengthAdjust="spacing" textLength="66.4" x="1420.8" y="696.4266">+customers()</text></g><!--MD5=[ca0abe252586467d5b989c6b12cf24dd]
class SurveyRepository--><g id="elem_SurveyRepository"><rect codeLine="199" fill="#F1F1F1" height="52.4875" id="SurveyRepository" rx="2" ry="2" style="stroke:#181818;stroke-width:0.4000000000000001;" width="131.2" x="1530.4" y="1034.8"/><ellipse cx="1549.6" cy="1047.6" fill="#ADD1B2" rx="8.8" ry="8.8" style="stroke:#181818;stroke-width:0.8000000000000002;"/><path d="M1551.2,1044.8 Q1551.3625,1044.4 1551.55,1044.2 Q1551.7375,1044 1551.95,1044 Q1552.325,1044 1552.5625,1044.225 Q1552.8,1044.45 1552.8,1044.975 L1552.8,1046.225 Q1552.8,1046.75 1552.575,1046.975 Q1552.35,1047.2 1552,1047.2 Q1551.6875,1047.2 1551.4875,1047.0625 Q1551.2875,1046.925 1551.2,1046.5625 Q1551.1625,1046.3125 1551.025,1046.175 Q1550.775,1045.9125 1550.325,1045.7625 Q1549.875,1045.6 1549.425,1045.6 Q1548.8625,1045.6 1548.3875,1045.825 Q1547.925,1046.05 1547.5625,1046.55 Q1547.2,1047.05 1547.2,1047.7375 L1547.2,1048.475 Q1547.2,1049.3 1547.875,1049.85 Q1548.55,1050.4 1549.75,1050.4 Q1550.4625,1050.4 1550.9625,1050.2375 Q1551.25,1050.15 1551.575,1049.8625 Q1551.7875,1049.7 1551.9,1049.65 Q1552.0125,1049.6 1552.15,1049.6 Q1552.4125,1049.6 1552.6,1049.8125 Q1552.8,1050.0125 1552.8,1050.3 Q1552.8,1050.575 1552.525,1050.9 Q1552.125,1051.375 1551.4875,1051.6375 Q1550.65,1052 1549.625,1052 Q1548.425,1052 1547.4625,1051.525 Q1546.6875,1051.15 1546.1375,1050.3375 Q1545.6,1049.525 1545.6,1048.5625 L1545.6,1047.6875 Q1545.6,1046.6875 1546.075,1045.8125 Q1546.5625,1044.9375 1547.4,1044.475 Q1548.25,1044 1549.2,1044 Q1549.775,1044 1550.275,1044.2 Q1550.775,1044.4 1551.2,1044.8 Z " fill="#000000"/><text fill="#000000" font-family="sans-serif" font-size="11.2" lengthAdjust="spacing" textLength="89.6" x="1562.4" y="1052.1828">SurveyRepository</text><line style="stroke:#181818;stroke-width:0.4000000000000001;" x1="1531.2" x2="1660.8" y1="1060.4" y2="1060.4"/><line style="stroke:#181818;stroke-width:0.4000000000000001;" x1="1531.2" x2="1660.8" y1="1066.8" y2="1066.8"/><text fill="#000000" font-family="sans-serif" font-size="11.2" lengthAdjust="spacing" textLength="121.6" x="1535.2" y="1081.6266">+findById(Long number)</text></g><!--MD5=[9322bc127dcb14385ba90fb64fff78e3]
link DefineSurveyUI to SectionDTO--><g id="link_DefineSurveyUI_SectionDTO"><path codeLine="203" d="M1154.968,37.984 C1196.656,49.104 1256.008,67.568 1304,92.8 C1307.496,94.64 1311,96.624 1314.488,98.712 " fill="none" id="DefineSurveyUI-to-SectionDTO" style="stroke:#181818;stroke-width:0.8000000000000002;stroke-dasharray:7.0,7.0;"/><polygon fill="#181818" points="1317.968,100.84,1313.4974,94.352,1314.5563,98.7519,1310.1564,99.8108,1317.968,100.84" style="stroke:#181818;stroke-width:0.8000000000000002;"/></g><!--MD5=[9f74cc244237696fb1d32a9572196796]
link DefineSurveyUI to QuestionnaireDTO--><g id="link_DefineSurveyUI_QuestionnaireDTO"><path codeLine="204" d="M1120.184,44.216 C1134.472,59.872 1155.584,83.008 1174.72,103.976 " fill="none" id="DefineSurveyUI-to-QuestionnaireDTO" style="stroke:#181818;stroke-width:0.8000000000000002;stroke-dasharray:7.0,7.0;"/><polygon fill="#181818" points="1177.52,107.048,1175.0359,99.5707,1174.8259,104.0913,1170.3053,103.8813,1177.52,107.048" style="stroke:#181818;stroke-width:0.8000000000000002;"/></g><!--MD5=[5c6b46dea0b713b822a229cf1ba50a3f]
link DefineSurveyUI to QuestionDTO--><g id="link_DefineSurveyUI_QuestionDTO"><path codeLine="205" d="M1095.984,44.216 C1091.36,56.152 1085.056,72.432 1078.712,88.784 " fill="none" id="DefineSurveyUI-to-QuestionDTO" style="stroke:#181818;stroke-width:0.8000000000000002;stroke-dasharray:7.0,7.0;"/><polygon fill="#181818" points="1077.192,92.72,1082.7816,87.1669,1078.6401,88.9913,1076.8157,84.8499,1077.192,92.72" style="stroke:#181818;stroke-width:0.8000000000000002;"/></g><!--MD5=[886b777f052a543dff26c2e88b8647ad]
link DefineSurveyUI to SurveyDTO--><g id="link_DefineSurveyUI_SurveyDTO"><path codeLine="206" d="M1065.288,44.04 C1038.712,57.176 1002.48,75.504 971.2,92.8 C964.168,96.688 956.912,100.808 949.664,105 " fill="none" id="DefineSurveyUI-to-SurveyDTO" style="stroke:#181818;stroke-width:0.8000000000000002;stroke-dasharray:7.0,7.0;"/><polygon fill="#181818" points="946.112,107.056,953.9473,106.2261,949.5758,105.0555,950.7464,100.684,946.112,107.056" style="stroke:#181818;stroke-width:0.8000000000000002;"/></g><!--MD5=[684d8160683292ff101bcde57f99570e]
link SectionDTO to SurveyController--><g id="link_SectionDTO_SurveyController"><path codeLine="208" d="M1317.808,206.128 C1313.16,209.504 1308.528,212.824 1304,216 C1282.008,231.456 1258.024,247.592 1235.264,262.576 " fill="none" id="SectionDTO-to-SurveyController" style="stroke:#181818;stroke-width:0.8000000000000002;stroke-dasharray:7.0,7.0;"/><polygon fill="#181818" points="1231.912,264.784,1239.6861,263.5021,1235.2542,262.5864,1236.1699,258.1545,1231.912,264.784" style="stroke:#181818;stroke-width:0.8000000000000002;"/></g><!--MD5=[6e5ba7ef22959c18300bdc2472bcd8f9]
link QuestionnaireDTO to SurveyController--><g id="link_QuestionnaireDTO_SurveyController"><path codeLine="209" d="M1197.264,201.76 C1188.344,220.04 1177.952,241.32 1168.328,261.04 " fill="none" id="QuestionnaireDTO-to-SurveyController" style="stroke:#181818;stroke-width:0.8000000000000002;stroke-dasharray:7.0,7.0;"/><polygon fill="#181818" points="1166.536,264.696,1172.5731,259.6331,1168.2928,261.1025,1166.8235,256.8222,1166.536,264.696" style="stroke:#181818;stroke-width:0.8000000000000002;"/></g><!--MD5=[594b6327aca091bc7938f220a863536c]
link QuestionDTO to SurveyController--><g id="link_QuestionDTO_SurveyController"><path codeLine="210" d="M1083.4,216.24 C1090.496,230.76 1098.088,246.312 1105.256,260.992 " fill="none" id="QuestionDTO-to-SurveyController" style="stroke:#181818;stroke-width:0.8000000000000002;stroke-dasharray:7.0,7.0;"/><polygon fill="#181818" points="1107.064,264.704,1106.7869,256.8298,1105.3119,261.1082,1101.0335,259.6332,1107.064,264.704" style="stroke:#181818;stroke-width:0.8000000000000002;"/></g><!--MD5=[759dee8c4e6dde152462c242332415df]
link SurveyDTO to SurveyController--><g id="link_SurveyDTO_SurveyController"><path codeLine="211" d="M942.616,201.76 C971.984,220.496 1006.312,242.384 1037.864,262.504 " fill="none" id="SurveyDTO-to-SurveyController" style="stroke:#181818;stroke-width:0.8000000000000002;stroke-dasharray:7.0,7.0;"/><polygon fill="#181818" points="1041.304,264.696,1036.952,258.1279,1037.9308,262.5463,1033.5124,263.5251,1041.304,264.696" style="stroke:#181818;stroke-width:0.8000000000000002;"/></g><!--MD5=[36fd4d61e47feda196a228a83f141d93]
link SurveyController to Survey--><g id="link_SurveyController_Survey"><path codeLine="213" d="M1138.704,388.288 C1139.232,408.104 1139.736,430.184 1140,450.4 C1140.464,486.312 1141.296,495.312 1140,531.2 C1138.976,559.616 1136.816,591.12 1134.728,617.4 " fill="none" id="SurveyController-to-Survey" style="stroke:#181818;stroke-width:0.8000000000000002;"/><polygon fill="#181818" points="1134.4,621.568,1138.1656,614.647,1134.7199,617.5808,1131.786,614.1351,1134.4,621.568" style="stroke:#181818;stroke-width:0.8000000000000002;"/></g><!--MD5=[5eafc89330e443e1846be75b1e306882]
link SurveyController to SurveyDTOParser--><g id="link_SurveyController_SurveyDTOParser"><path codeLine="215" d="M1101.816,388.056 C1087.536,412.88 1071.696,440.432 1060.088,460.632 " fill="none" id="SurveyController-to-SurveyDTOParser" style="stroke:#181818;stroke-width:0.8000000000000002;"/><polygon fill="#181818" points="1057.968,464.312,1064.3219,459.6528,1059.955,460.8404,1058.7674,456.4736,1057.968,464.312" style="stroke:#181818;stroke-width:0.8000000000000002;"/></g><!--MD5=[c609d33ed9b3028c22ef17b924ea37ac]
link SurveyController to QuestionnaireDTOParser--><g id="link_SurveyController_QuestionnaireDTOParser"><path codeLine="216" d="M990.28,388.056 C928.392,413.752 859.456,442.384 810.44,462.744 " fill="none" id="SurveyController-to-QuestionnaireDTOParser" style="stroke:#181818;stroke-width:0.8000000000000002;"/><polygon fill="#181818" points="806.648,464.312,814.5251,464.488,810.3386,462.7695,812.0571,458.583,806.648,464.312" style="stroke:#181818;stroke-width:0.8000000000000002;"/></g><!--MD5=[d456cd53366f8eba9f034788d4f25fcc]
link SurveyController to SectionDTOParser--><g id="link_SurveyController_SectionDTOParser"><path codeLine="217" d="M1309.936,388.056 C1383.36,413.856 1465.168,442.608 1523.136,462.984 " fill="none" id="SurveyController-to-SectionDTOParser" style="stroke:#181818;stroke-width:0.8000000000000002;"/><polygon fill="#181818" points="1526.92,464.312,1521.1835,458.9108,1523.1451,462.9891,1519.0668,464.9507,1526.92,464.312" style="stroke:#181818;stroke-width:0.8000000000000002;"/></g><!--MD5=[02b5342abfc18e773b8ffc554c276ba3]
link SurveyController to QuestionDTOParser--><g id="link_SurveyController_QuestionDTOParser"><path codeLine="218" d="M873.008,382.088 C725.512,412.784 550.888,449.112 446.568,470.824 " fill="none" id="SurveyController-to-QuestionDTOParser" style="stroke:#181818;stroke-width:0.8000000000000002;"/><polygon fill="#181818" points="442.576,471.656,450.2752,473.3301,446.493,470.8452,448.9779,467.063,442.576,471.656" style="stroke:#181818;stroke-width:0.8000000000000002;"/></g><!--MD5=[f4492a8b961c8a17ee7435e2ae6a9cc8]
link SurveyDTOParser to Survey--><g id="link_SurveyDTOParser_Survey"><path codeLine="220" d="M1055.392,517.512 C1067.6,543.456 1086.792,584.232 1102.6,617.824 " fill="none" id="SurveyDTOParser-to-Survey" style="stroke:#181818;stroke-width:0.8000000000000002;"/><polygon fill="#181818" points="1104.312,621.464,1104.1357,613.5869,1102.6061,617.846,1098.3469,616.3164,1104.312,621.464" style="stroke:#181818;stroke-width:0.8000000000000002;"/></g><!--MD5=[73ce03ca00e60cdb6035b4b2ac894c9a]
link QuestionnaireDTOParser to QuestionnaireBuilder--><g id="link_QuestionnaireDTOParser_QuestionnaireBuilder"><path codeLine="221" d="M711.4,517.32 C686.32,536.632 650.472,564.248 615.736,590.992 " fill="none" id="QuestionnaireDTOParser-to-QuestionnaireBuilder" style="stroke:#181818;stroke-width:0.8000000000000002;"/><polygon fill="#181818" points="612.384,593.576,620.0381,591.7065,615.5494,591.1305,616.1253,586.6419,612.384,593.576" style="stroke:#181818;stroke-width:0.8000000000000002;"/></g><!--MD5=[06134c22575b40d365f578891a09fba0]
link SectionDTOParser to SectionBuilder--><g id="link_SectionDTOParser_SectionBuilder"><path codeLine="222" d="M1607.992,517.392 C1624.312,570.08 1662.184,692.336 1688.824,778.32 " fill="none" id="SectionDTOParser-to-SectionBuilder" style="stroke:#181818;stroke-width:0.8000000000000002;"/><polygon fill="#181818" points="1690.088,782.384,1691.0241,774.5607,1688.9092,778.5616,1684.9083,776.4467,1690.088,782.384" style="stroke:#181818;stroke-width:0.8000000000000002;"/></g><!--MD5=[189f7aaede73d4a74f5749d88b040f91]
link QuestionDTOParser to QuestionBuilder--><g id="link_QuestionDTOParser_QuestionBuilder"><path codeLine="223" d="M348.392,517.432 C331.576,590.512 283.488,805.128 256,985.6 C247.392,1042.104 240.552,1105.816 235.792,1156.496 " fill="none" id="QuestionDTOParser-to-QuestionBuilder" style="stroke:#181818;stroke-width:0.8000000000000002;"/><polygon fill="#181818" points="235.392,1160.736,239.2574,1153.8702,235.7696,1156.7539,232.886,1153.2661,235.392,1160.736" style="stroke:#181818;stroke-width:0.8000000000000002;"/></g><!--MD5=[bfb6d1a7e29e0c5273ba3a7e44261003]
link QuestionnaireBuilder to Questionnaire--><g id="link_QuestionnaireBuilder_Questionnaire"><path codeLine="225" d="M492.752,758.624 C480.968,829.24 464.168,929.912 453.28,995.2 " fill="none" id="QuestionnaireBuilder-to-Questionnaire" style="stroke:#181818;stroke-width:0.8000000000000002;"/><polygon fill="#181818" points="452.568,999.448,456.8989,992.8659,453.22,995.5015,450.5845,991.8227,452.568,999.448" style="stroke:#181818;stroke-width:0.8000000000000002;"/><text fill="#000000" font-family="sans-serif" font-size="10.4" lengthAdjust="spacing" textLength="27.2" x="488.8" y="876.3961">builds</text></g><!--MD5=[de97d3b70ddd1e0987e2bf654730f4e3]
link SectionBuilder to Section--><g id="link_SectionBuilder_Section"><path codeLine="226" d="M1726.872,961.792 C1727.736,1018.704 1718.664,1090.304 1676,1136.8 C1539.984,1285.024 957.152,1374.8 659.232,1411.832 " fill="none" id="SectionBuilder-to-Section" style="stroke:#181818;stroke-width:0.8000000000000002;"/><polygon fill="#181818" points="655.088,1412.352,662.6261,1414.6449,659.0578,1411.8615,661.8412,1408.2932,655.088,1412.352" style="stroke:#181818;stroke-width:0.8000000000000002;"/><text fill="#000000" font-family="sans-serif" font-size="10.4" lengthAdjust="spacing" textLength="27.2" x="1727.2" y="1065.5961">builds</text></g><!--MD5=[a688dcb2db5c455611ce88d1293f7679]
link QuestionBuilder to Question--><g id="link_QuestionBuilder_Question"><path codeLine="227" d="M236.28,1340.184 C242.424,1406.216 250.728,1495.432 256.648,1558.968 " fill="none" id="QuestionBuilder-to-Question" style="stroke:#181818;stroke-width:0.8000000000000002;"/><polygon fill="#181818" points="257.032,1563.112,259.5612,1555.6499,256.6668,1559.1287,253.188,1556.2343,257.032,1563.112" style="stroke:#181818;stroke-width:0.8000000000000002;"/><text fill="#000000" font-family="sans-serif" font-size="10.4" lengthAdjust="spacing" textLength="27.2" x="252" y="1436.7961">builds</text></g><!--MD5=[5499c435bc16acea28ddc64681c74fbb]
link Survey to AlphanumericCode--><g id="link_Survey_AlphanumericCode"><path codeLine="230" d="M1145.512,730.544 C1164.832,795.768 1197.568,906.312 1219.768,981.28 " fill="none" id="Survey-to-AlphanumericCode" style="stroke:#181818;stroke-width:0.8000000000000002;"/><polygon fill="#181818" points="1220.952,985.272,1221.9652,977.4583,1219.811,981.4382,1215.8311,979.284,1220.952,985.272" style="stroke:#181818;stroke-width:0.8000000000000002;"/><text fill="#000000" font-family="sans-serif" font-size="10.4" lengthAdjust="spacing" textLength="39.2" x="1212.8" y="876.3961">contains</text><text fill="#000000" font-family="sans-serif" font-size="10.4" lengthAdjust="spacing" textLength="5.6" x="1141.2642" y="747.6375">1</text><text fill="#000000" font-family="sans-serif" font-size="10.4" lengthAdjust="spacing" textLength="5.6" x="1213.4343" y="976.9795">1</text></g><!--MD5=[0b4debe2092e88b167a50a5f1b002e59]
link Survey to Description--><g id="link_Survey_Description"><path codeLine="231" d="M1204.376,730.664 C1223.4,746.2 1243.016,763.968 1259.2,782.4 C1261.2,784.672 1337.016,907.536 1387.312,989.152 " fill="none" id="Survey-to-Description" style="stroke:#181818;stroke-width:0.8000000000000002;"/><polygon fill="#181818" points="1389.536,992.76,1388.4951,984.95,1387.4428,989.3514,1383.0414,988.2991,1389.536,992.76" style="stroke:#181818;stroke-width:0.8000000000000002;"/><text fill="#000000" font-family="sans-serif" font-size="10.4" lengthAdjust="spacing" textLength="39.2" x="1367.2" y="876.3961">contains</text><text fill="#000000" font-family="sans-serif" font-size="10.4" lengthAdjust="spacing" textLength="5.6" x="1206.1985" y="747.7699">1</text><text fill="#000000" font-family="sans-serif" font-size="10.4" lengthAdjust="spacing" textLength="5.6" x="1379.9759" y="984.0937">1</text></g><!--MD5=[a8c0f4d6075942a4ab340055e1ada23e]
link Survey to Period--><g id="link_Survey_Period"><path codeLine="232" d="M1058.144,730.424 C1038.168,746.44 1016.888,764.504 998.4,782.4 C918.544,859.672 836.4,960.792 792.2,1017.328 " fill="none" id="Survey-to-Period" style="stroke:#181818;stroke-width:0.8000000000000002;"/><polygon fill="#181818" points="789.608,1020.656,796.5571,1016.9425,792.0661,1017.5004,791.5082,1013.0095,789.608,1020.656" style="stroke:#181818;stroke-width:0.8000000000000002;"/><text fill="#000000" font-family="sans-serif" font-size="10.4" lengthAdjust="spacing" textLength="39.2" x="999.2" y="876.3961">contains</text><text fill="#000000" font-family="sans-serif" font-size="10.4" lengthAdjust="spacing" textLength="5.6" x="1044.8864" y="747.5051">1</text><text fill="#000000" font-family="sans-serif" font-size="10.4" lengthAdjust="spacing" textLength="5.6" x="787.8904" y="1012.08">1</text></g><!--MD5=[c4fc62c77a23cb95f5f7a53b7ddeb930]
link Survey to Questionnaire--><g id="link_Survey_Questionnaire"><path codeLine="233" d="M1025.512,698.936 C956.888,716.016 866.44,743.376 792.8,782.4 C683.208,840.472 573.976,934.288 507.312,996.648 " fill="none" id="Survey-to-Questionnaire" style="stroke:#181818;stroke-width:0.8000000000000002;"/><polygon fill="#181818" points="504.168,999.592,511.6147,997.0176,507.0918,996.8623,507.2472,992.3395,504.168,999.592" style="stroke:#181818;stroke-width:0.8000000000000002;"/><text fill="#000000" font-family="sans-serif" font-size="10.4" lengthAdjust="spacing" textLength="39.2" x="793.6" y="876.3961">contains</text><text fill="#000000" font-family="sans-serif" font-size="10.4" lengthAdjust="spacing" textLength="5.6" x="1013.7325" y="697.8951">1</text><text fill="#000000" font-family="sans-serif" font-size="10.4" lengthAdjust="spacing" textLength="5.6" x="504.3727" y="990.9209">1</text></g><!--MD5=[02c3396b3ad14158b0d1521f86ee2245]
link Survey to Content--><g id="link_Survey_Content"><path codeLine="234" d="M1113.576,730.544 C1094.12,795.768 1061.152,906.312 1038.792,981.28 " fill="none" id="Survey-to-Content" style="stroke:#181818;stroke-width:0.8000000000000002;"/><polygon fill="#181818" points="1037.608,985.272,1042.7338,979.2881,1038.7521,981.4391,1036.6012,977.4575,1037.608,985.272" style="stroke:#181818;stroke-width:0.8000000000000002;"/><text fill="#000000" font-family="sans-serif" font-size="10.4" lengthAdjust="spacing" textLength="39.2" x="1096" y="876.3961">contains</text><text fill="#000000" font-family="sans-serif" font-size="10.4" lengthAdjust="spacing" textLength="5.6" x="1106.0348" y="747.6375">1</text><text fill="#000000" font-family="sans-serif" font-size="10.4" lengthAdjust="spacing" textLength="5.6" x="1033.5092" y="976.9795">1</text></g><!--MD5=[3da50156e7717b39021783dfd0973443]
link Questionnaire to Section--><g id="link_Questionnaire_Section"><path codeLine="236" d="M448.984,1122.824 C456.016,1187.816 467.16,1290.784 474.624,1359.736 " fill="none" id="Questionnaire-to-Section" style="stroke:#181818;stroke-width:0.8000000000000002;"/><polygon fill="#181818" points="475.064,1363.816,477.4635,1356.3112,474.6298,1359.8396,471.1013,1357.0059,475.064,1363.816" style="stroke:#181818;stroke-width:0.8000000000000002;"/><text fill="#000000" font-family="sans-serif" font-size="10.4" lengthAdjust="spacing" textLength="39.2" x="472.8" y="1254.7961">contains</text><text fill="#000000" font-family="sans-serif" font-size="10.4" lengthAdjust="spacing" textLength="5.6" x="443.721" y="1139.7033">1</text><text fill="#000000" font-family="sans-serif" font-size="10.4" lengthAdjust="spacing" textLength="16" x="457.7461" y="1355.3711">1..*</text></g><!--MD5=[87fa8ff7d398728728a611d860795352]
link Section to Question--><g id="link_Section_Question"><path codeLine="238" d="M410.28,1500.824 C390.032,1519.816 367.848,1540.616 347.024,1560.152 " fill="none" id="Section-to-Question" style="stroke:#181818;stroke-width:0.8000000000000002;"/><polygon fill="#181818" points="343.96,1563.024,351.4016,1560.4351,346.8785,1560.2886,347.025,1555.7655,343.96,1563.024" style="stroke:#181818;stroke-width:0.8000000000000002;"/><text fill="#000000" font-family="sans-serif" font-size="10.4" lengthAdjust="spacing" textLength="39.2" x="380.8" y="1536.3961">contains</text><text fill="#000000" font-family="sans-serif" font-size="10.4" lengthAdjust="spacing" textLength="5.6" x="398.0074" y="1518.2872">1</text><text fill="#000000" font-family="sans-serif" font-size="10.4" lengthAdjust="spacing" textLength="16" x="333.6943" y="1554.4869">1..*</text></g><!--MD5=[a698c596cdd6655449d58b0bccd42675]
link SurveyController to PersistenceContext--><g id="link_SurveyController_PersistenceContext"><path codeLine="242" d="M1202.584,388.056 C1223.904,407.768 1247.08,429.208 1266.656,447.312 " fill="none" id="SurveyController-to-PersistenceContext" style="stroke:#181818;stroke-width:0.8000000000000002;"/><polygon fill="#181818" points="1269.768,450.192,1266.6444,442.9585,1266.8275,447.4803,1262.3057,447.6634,1269.768,450.192" style="stroke:#181818;stroke-width:0.8000000000000002;"/><text fill="#000000" font-family="sans-serif" font-size="10.4" lengthAdjust="spacing" textLength="34.4" x="1240.8" y="423.5961">creates</text><text fill="#000000" font-family="sans-serif" font-size="10.4" lengthAdjust="spacing" textLength="5.6" x="1202.5935" y="404.9381">1</text><text fill="#000000" font-family="sans-serif" font-size="10.4" lengthAdjust="spacing" textLength="5.6" x="1257.7229" y="441.607">1</text></g><!--MD5=[754b775031405e096442b27febffa290]
link PersistenceContext to RepositoryFactory--><g id="link_PersistenceContext_RepositoryFactory"><path codeLine="245" d="M1347.84,531.216 C1378.424,565.792 1422.104,615.168 1449.536,646.184 " fill="none" id="PersistenceContext-to-RepositoryFactory" style="stroke:#181818;stroke-width:0.8000000000000002;"/><polygon fill="#181818" points="1452.472,649.504,1450.1088,641.9877,1449.8259,646.5043,1445.3093,646.2215,1452.472,649.504" style="stroke:#181818;stroke-width:0.8000000000000002;"/><text fill="#000000" font-family="sans-serif" font-size="10.4" lengthAdjust="spacing" textLength="34.4" x="1380" y="566.7961">creates</text><text fill="#000000" font-family="sans-serif" font-size="10.4" lengthAdjust="spacing" textLength="5.6" x="1346.5723" y="548.3311">1</text><text fill="#000000" font-family="sans-serif" font-size="10.4" lengthAdjust="spacing" textLength="5.6" x="1441.6069" y="640.7765">1</text></g><!--MD5=[b2261c22df95718c10e32de77a70473c]
link RepositoryFactory to SurveyRepository--><g id="link_RepositoryFactory_SurveyRepository"><path codeLine="248" d="M1472.336,702.512 C1465.976,764.008 1453.056,917.752 1477.6,961.6 C1487.432,979.16 1500.04,973.336 1516,985.6 C1534.232,999.608 1553.096,1017.08 1567.92,1031.608 " fill="none" id="RepositoryFactory-to-SurveyRepository" style="stroke:#181818;stroke-width:0.8000000000000002;"/><polygon fill="#181818" points="1570.832,1034.472,1567.9591,1027.1354,1567.9865,1031.6608,1563.4611,1031.6882,1570.832,1034.472" style="stroke:#181818;stroke-width:0.8000000000000002;"/><text fill="#000000" font-family="sans-serif" font-size="10.4" lengthAdjust="spacing" textLength="34.4" x="1478.4" y="876.3961">creates</text><text fill="#000000" font-family="sans-serif" font-size="10.4" lengthAdjust="spacing" textLength="5.6" x="1465.7271" y="719.2234">1</text><text fill="#000000" font-family="sans-serif" font-size="10.4" lengthAdjust="spacing" textLength="5.6" x="1559.9006" y="1026.2097">1</text></g><!--MD5=[27c386b89d1f950e5e021258cab32746]
link Survey to SurveyRepository--><g id="link_Survey_SurveyRepository"><path codeLine="251" d="M1233.808,689.824 C1295.032,702.976 1368.952,729.392 1413.6,782.4 C1465.808,844.376 1394.368,900.16 1447.2,961.6 C1468.312,986.152 1488.288,968.848 1516,985.6 C1536.44,997.96 1556.088,1016.2 1570.792,1031.576 " fill="none" id="Survey-to-SurveyRepository" style="stroke:#181818;stroke-width:0.8000000000000002;"/><polygon fill="#181818" points="1573.664,1034.608,1571.0596,1027.1718,1570.9225,1031.6952,1566.3991,1031.5581,1573.664,1034.608" style="stroke:#181818;stroke-width:0.8000000000000002;"/><text fill="#000000" font-family="sans-serif" font-size="10.4" lengthAdjust="spacing" textLength="8" x="1448" y="876.3961">in</text><text fill="#000000" font-family="sans-serif" font-size="10.4" lengthAdjust="spacing" textLength="5.6" x="1239.9944" y="688.2563">1</text><text fill="#000000" font-family="sans-serif" font-size="10.4" lengthAdjust="spacing" textLength="5.6" x="1569.8179" y="1026.1672">1</text></g><!--MD5=[25b17f8633536f3198335436b45484c5]
@startuml
skinparam classAttributeIconSize 0

Class "DefineSurveyUI"{
}

Class "SurveyController"{
+buildQuestion(questionId, questionMessage, questionType, obligatoriness, extraInfo)
+buildSection(sectionId, title, description, obligatoriness, repeatability, Collection<Question> questions)
+buildQuestionnaire(questionnaireId, questionnaireTitle, welcomeMessage, sectionList, finalMessage)
+cleanQuestionList()
+receiveSurveyString()
+receiveFullQuestionnaireString()
}

Class "AlphanumericCode"{
-String code

+AlphanumericCode(String code)
+valueOf()
+firstName()
+lastName()
+equals(Object o)
+hashCode()
+toString()
}

Class "Description"{
-String value

+Description(String name)
+valueOf()
+length()
+equals(Object o)
+hashCode()
+toString()
}

Class "QuestionDTO"{
     +String questionId
     +String questionMessage
     +String instruction
     +String questionType
     +String obligatoriness
     +String extraInfo
}

Class "QuestionnaireDTO"{
     +String questionnaireId
     +String questionnaireTitle
     +String welcomeMessage
     +String finalMessage
}

Class "SectionDTO"{
    +String sectionId
    +String sectionTitle
    +String descriptionString
    +String obligatoriness
    +String repeatability
}

Class "SurveyDTO"{
     +String alphanumericCodeString
     +String descriptionString
     +String period
     +String content
}

Class "QuestionDTOParser"{
     +valueOf(final QuestionDTO dto)
}

Class "QuestionnaireDTOParser"{
     +valueOf(final QuestionnaireDTO dto)
}

Class "SectionDTOParser"{
     +valueOf(final SectionDTO dto)
}

Class "SurveyDTOParser"{
     +valueOf(final SurveyDTO dto)
}

Class "QuestionBuilder"{
     -String questionId
     -String questionMessage
     -String instruction
     -String questionType
     -String obligatoriness
     -String extraInfo

     +QuestionBuilder(String id, String questionMessage, String type, String obligatoriness)
     +withInstruction(final String instruction)
     +withExtraInfo(final String extraInfo)
     +build()
}


Class "QuestionnaireBuilder"{
     -String questionnaireId
     -String questionnaireTitle
     -String welcomeMessage
     -String finalMessage
     -List<Section> sections
     +QuestionnaireBuilder(String id, String title)
     +withWelcomeMessage(final String welcomeMessage)
     +withFinalMessage(final String finalMessage)
     +build()
}

Class "SectionBuilder"{
     - String sectionId
     - String sectionTitle
     - String sectionDescription
     - String obligatoriness
     - String repeatability
     - List<Question> questions
     +SectionBuilder(String sectionId, String sectionTitle, String obligatoriness)
     +withSectionDescription(final String sectionDescription)
     +withRepeability(final String repeatability)
     +build()
}



Class "Period"{
     -String days
     +Period(String days)
     +valueOf(String prefix, String phoneNumber)
}
Class "Questionnaire"{
     -String id;
     -String title;
     -String welcomeMessage;
     -List<Section> sections;
     -String finalMessage;

+Questionnaire(id, title, welcomeMessage, sections, finalMessage)
}

Class "Section"{
     -String id;
     -String title;
     -Description description
     -Obligatoriness obligatoriness
     -String repeatability
     -List<Question> content;

     +Section(id, title, description, obligatoriness, repeatability, content)
}

Class "Question"{
     -String id;
     -String questionMessage;
     -String instruction;
     -QuestionType type;
     -Obligatoriness obligatoriness
     -String extraInfo

     +Question(id, questionMessage, instruction, type, obligatoriness, extraInfo)
     +toString()
}


class Content {
-String fullQuestionnaire;
-StringBuilder stringbuilder

+Content(questionnaire)
+Content(fullQuestionnaire)
+buildQuestionnaireSyntax(questionnaire)
+buildSectionSyntax(sections)
+buildQuestionSyntax(question)
+toString()

}

class Survey{
-AlphanumericCode alphanumericCode
-Description description
-Period period
-Questionnaire questionnaire
-Content content
}



class PersistenceContext {
-Logger LOGGER
-RepositoryFactory theFactory
+repositories()
}

class RepositoryFactory{
+customers()
}

class SurveyRepository{
+findById(Long number)
}

DefineSurveyUI..> "SectionDTO"
DefineSurveyUI..> "QuestionnaireDTO"
DefineSurveyUI..> "QuestionDTO"
DefineSurveyUI..> "SurveyDTO"

SurveyController <.u. "SectionDTO"
SurveyController <.u. "QuestionnaireDTO"
SurveyController <.u. "QuestionDTO"
SurveyController <.u. "SurveyDTO"

SurveyController - -> Survey

SurveyController - -> "SurveyDTOParser"
SurveyController - -> "QuestionnaireDTOParser"
SurveyController - -> "SectionDTOParser"
SurveyController - -> "QuestionDTOParser"

"Survey" <-u- "SurveyDTOParser"
"QuestionnaireBuilder" <-u- "QuestionnaireDTOParser"
"SectionBuilder" <-u- "SectionDTOParser"
QuestionBuilder <-u- "QuestionDTOParser" 

"QuestionnaireBuilder" -d-> "Questionnaire" :builds
"SectionBuilder" -d-> "Section" :builds
QuestionBuilder -d-> "Question" :builds


"AlphanumericCode" "1" <-u- "1" Survey : contains
"Description" "1" <-u- "1" Survey : contains
"Period" "1" <-u- "1" Survey : contains
"Questionnaire" "1" <-u- "1" Survey : contains
"Content" "1" <-u- "1" Survey : contains

"Questionnaire" "1" - -> "1..*" "Section" :contains

"Section" "1" - -> "1..*" "Question" :contains



"SurveyController" "1" - -> "1" "PersistenceContext" :creates


"PersistenceContext" "1" - -> "1" "RepositoryFactory" :creates


"RepositoryFactory" "1" - -> "1" "SurveyRepository"  :creates


"Survey" "1" - -> "1" "SurveyRepository" :in
@enduml

PlantUML version 1.2022.4(Sat Apr 09 14:29:17 BST 2022)
(GPL source distribution)
Java Runtime: OpenJDK Runtime Environment
JVM: OpenJDK 64-Bit Server VM
Default Encoding: Cp1252
Language: pt
Country: PT
--></g></svg>