<?xml version="1.0" encoding="UTF-8" standalone="no"?><svg xmlns="http://www.w3.org/2000/svg" xmlns:xlink="http://www.w3.org/1999/xlink" contentStyleType="text/css" height="774px" preserveAspectRatio="none" style="width:430px;height:774px;background:#FFFFFF;" version="1.1" viewBox="0 0 430 774" width="430px" zoomAndPan="magnify"><defs/><g><!--MD5=[824a67b6bb992aba5787d27057a96103]
class CheckProductCatalogUI--><g id="elem_CheckProductCatalogUI"><rect codeLine="3" fill="#F1F1F1" height="80.5938" id="CheckProductCatalogUI" rx="2.5" ry="2.5" style="stroke:#181818;stroke-width:0.5;" width="201" x="114.5" y="7"/><ellipse cx="129.5" cy="23" fill="#ADD1B2" rx="11" ry="11" style="stroke:#181818;stroke-width:1.0;"/><path d="M131.8438,18.6719 C130.9063,18.2344 130.3125,18.0938 129.4375,18.0938 C126.8125,18.0938 124.8125,20.1719 124.8125,22.8906 L124.8125,24.0156 C124.8125,26.5938 126.9219,28.4844 129.8125,28.4844 C131.0313,28.4844 132.1875,28.1875 132.9375,27.6406 C133.5156,27.2344 133.8438,26.7813 133.8438,26.3906 C133.8438,25.9375 133.4531,25.5469 132.9844,25.5469 C132.7656,25.5469 132.5625,25.625 132.375,25.8125 C131.9219,26.2969 131.9219,26.2969 131.7344,26.3906 C131.3125,26.6563 130.625,26.7813 129.8594,26.7813 C127.8125,26.7813 126.5156,25.6875 126.5156,23.9844 L126.5156,22.8906 C126.5156,21.1094 127.7656,19.7969 129.5,19.7969 C130.0781,19.7969 130.6875,19.9531 131.1563,20.2031 C131.6406,20.4844 131.8125,20.7031 131.9063,21.1094 C131.9688,21.5156 132,21.6406 132.1406,21.7656 C132.2813,21.9063 132.5156,22.0156 132.7344,22.0156 C133,22.0156 133.2656,21.875 133.4375,21.6563 C133.5469,21.5 133.5781,21.3125 133.5781,20.8906 L133.5781,19.4688 C133.5781,19.0313 133.5625,18.9063 133.4688,18.75 C133.3125,18.4844 133.0313,18.3438 132.7344,18.3438 C132.4375,18.3438 132.2344,18.4375 132.0156,18.75 L131.8438,18.6719 Z " fill="#000000"/><text fill="#000000" font-family="sans-serif" font-size="14" lengthAdjust="spacing" textLength="169" x="143.5" y="27.8467">CheckProductCatalogUI</text><line style="stroke:#181818;stroke-width:0.5;" x1="115.5" x2="314.5" y1="39" y2="39"/><line style="stroke:#181818;stroke-width:0.5;" x1="115.5" x2="314.5" y1="47" y2="47"/><text fill="#000000" font-family="sans-serif" font-size="14" lengthAdjust="spacing" textLength="66" x="120.5" y="63.9951">doShow()</text><text fill="#000000" font-family="sans-serif" font-size="14" lengthAdjust="spacing" textLength="71" x="120.5" y="80.292">headline()</text></g><!--MD5=[c5cadf67c294496f6d6b407152287e16]
class CheckProductCatalogController--><g id="elem_CheckProductCatalogController"><rect codeLine="8" fill="#F1F1F1" height="113.1875" id="CheckProductCatalogController" rx="2.5" ry="2.5" style="stroke:#181818;stroke-width:0.5;" width="394" x="18" y="149"/><ellipse cx="96.25" cy="165" fill="#ADD1B2" rx="11" ry="11" style="stroke:#181818;stroke-width:1.0;"/><path d="M98.5938,160.6719 C97.6563,160.2344 97.0625,160.0938 96.1875,160.0938 C93.5625,160.0938 91.5625,162.1719 91.5625,164.8906 L91.5625,166.0156 C91.5625,168.5938 93.6719,170.4844 96.5625,170.4844 C97.7813,170.4844 98.9375,170.1875 99.6875,169.6406 C100.2656,169.2344 100.5938,168.7813 100.5938,168.3906 C100.5938,167.9375 100.2031,167.5469 99.7344,167.5469 C99.5156,167.5469 99.3125,167.625 99.125,167.8125 C98.6719,168.2969 98.6719,168.2969 98.4844,168.3906 C98.0625,168.6563 97.375,168.7813 96.6094,168.7813 C94.5625,168.7813 93.2656,167.6875 93.2656,165.9844 L93.2656,164.8906 C93.2656,163.1094 94.5156,161.7969 96.25,161.7969 C96.8281,161.7969 97.4375,161.9531 97.9063,162.2031 C98.3906,162.4844 98.5625,162.7031 98.6563,163.1094 C98.7188,163.5156 98.75,163.6406 98.8906,163.7656 C99.0313,163.9063 99.2656,164.0156 99.4844,164.0156 C99.75,164.0156 100.0156,163.875 100.1875,163.6563 C100.2969,163.5 100.3281,163.3125 100.3281,162.8906 L100.3281,161.4688 C100.3281,161.0313 100.3125,160.9063 100.2188,160.75 C100.0625,160.4844 99.7813,160.3438 99.4844,160.3438 C99.1875,160.3438 98.9844,160.4375 98.7656,160.75 L98.5938,160.6719 Z " fill="#000000"/><text fill="#000000" font-family="sans-serif" font-size="14" lengthAdjust="spacing" textLength="229" x="116.75" y="169.8467">CheckProductCatalogController</text><line style="stroke:#181818;stroke-width:0.5;" x1="19" x2="411" y1="181" y2="181"/><line style="stroke:#181818;stroke-width:0.5;" x1="19" x2="411" y1="189" y2="189"/><text fill="#000000" font-family="sans-serif" font-size="14" lengthAdjust="spacing" textLength="155" x="24" y="205.9951">+allProducts(int num)</text><text fill="#000000" font-family="sans-serif" font-size="14" lengthAdjust="spacing" textLength="340" x="24" y="222.292">+allProductsWithCategory(categoryName,num)</text><text fill="#000000" font-family="sans-serif" font-size="14" lengthAdjust="spacing" textLength="316" x="24" y="238.5889">+allProductsWithBrand(categoryName,num)</text><text fill="#000000" font-family="sans-serif" font-size="14" lengthAdjust="spacing" textLength="382" x="24" y="254.8857">+allProductsWithBrandCategory(categoryName,num)</text></g><!--MD5=[2ede985f3d1d917371098f6949fc5198]
class CheckProductCatalogService--><g id="elem_CheckProductCatalogService"><rect codeLine="15" fill="#F1F1F1" height="113.1875" id="CheckProductCatalogService" rx="2.5" ry="2.5" style="stroke:#181818;stroke-width:0.5;" width="394" x="18" y="323"/><ellipse cx="106.25" cy="339" fill="#ADD1B2" rx="11" ry="11" style="stroke:#181818;stroke-width:1.0;"/><path d="M108.5938,334.6719 C107.6563,334.2344 107.0625,334.0938 106.1875,334.0938 C103.5625,334.0938 101.5625,336.1719 101.5625,338.8906 L101.5625,340.0156 C101.5625,342.5938 103.6719,344.4844 106.5625,344.4844 C107.7813,344.4844 108.9375,344.1875 109.6875,343.6406 C110.2656,343.2344 110.5938,342.7813 110.5938,342.3906 C110.5938,341.9375 110.2031,341.5469 109.7344,341.5469 C109.5156,341.5469 109.3125,341.625 109.125,341.8125 C108.6719,342.2969 108.6719,342.2969 108.4844,342.3906 C108.0625,342.6563 107.375,342.7813 106.6094,342.7813 C104.5625,342.7813 103.2656,341.6875 103.2656,339.9844 L103.2656,338.8906 C103.2656,337.1094 104.5156,335.7969 106.25,335.7969 C106.8281,335.7969 107.4375,335.9531 107.9063,336.2031 C108.3906,336.4844 108.5625,336.7031 108.6563,337.1094 C108.7188,337.5156 108.75,337.6406 108.8906,337.7656 C109.0313,337.9063 109.2656,338.0156 109.4844,338.0156 C109.75,338.0156 110.0156,337.875 110.1875,337.6563 C110.2969,337.5 110.3281,337.3125 110.3281,336.8906 L110.3281,335.4688 C110.3281,335.0313 110.3125,334.9063 110.2188,334.75 C110.0625,334.4844 109.7813,334.3438 109.4844,334.3438 C109.1875,334.3438 108.9844,334.4375 108.7656,334.75 L108.5938,334.6719 Z " fill="#000000"/><text fill="#000000" font-family="sans-serif" font-size="14" lengthAdjust="spacing" textLength="209" x="126.75" y="343.8467">CheckProductCatalogService</text><line style="stroke:#181818;stroke-width:0.5;" x1="19" x2="411" y1="355" y2="355"/><line style="stroke:#181818;stroke-width:0.5;" x1="19" x2="411" y1="363" y2="363"/><text fill="#000000" font-family="sans-serif" font-size="14" lengthAdjust="spacing" textLength="300" x="24" y="379.9951">+allProductsWithoutRestrictions(int num)</text><text fill="#000000" font-family="sans-serif" font-size="14" lengthAdjust="spacing" textLength="340" x="24" y="396.292">+allProductsWithCategory(categoryName,num)</text><text fill="#000000" font-family="sans-serif" font-size="14" lengthAdjust="spacing" textLength="316" x="24" y="412.5889">+allProductsWithBrand(categoryName,num)</text><text fill="#000000" font-family="sans-serif" font-size="14" lengthAdjust="spacing" textLength="382" x="24" y="428.8857">+allProductsWithBrandCategory(categoryName,num)</text></g><!--MD5=[f9761e4ec0e5a044b983a0fb01ce84a9]
class ProductRepository--><g id="elem_ProductRepository"><rect codeLine="22" fill="#F1F1F1" height="113.1875" id="ProductRepository" rx="2.5" ry="2.5" style="stroke:#181818;stroke-width:0.5;" width="416" x="7" y="497"/><ellipse cx="143.25" cy="513" fill="#ADD1B2" rx="11" ry="11" style="stroke:#181818;stroke-width:1.0;"/><path d="M145.5938,508.6719 C144.6563,508.2344 144.0625,508.0938 143.1875,508.0938 C140.5625,508.0938 138.5625,510.1719 138.5625,512.8906 L138.5625,514.0156 C138.5625,516.5938 140.6719,518.4844 143.5625,518.4844 C144.7813,518.4844 145.9375,518.1875 146.6875,517.6406 C147.2656,517.2344 147.5938,516.7813 147.5938,516.3906 C147.5938,515.9375 147.2031,515.5469 146.7344,515.5469 C146.5156,515.5469 146.3125,515.625 146.125,515.8125 C145.6719,516.2969 145.6719,516.2969 145.4844,516.3906 C145.0625,516.6563 144.375,516.7813 143.6094,516.7813 C141.5625,516.7813 140.2656,515.6875 140.2656,513.9844 L140.2656,512.8906 C140.2656,511.1094 141.5156,509.7969 143.25,509.7969 C143.8281,509.7969 144.4375,509.9531 144.9063,510.2031 C145.3906,510.4844 145.5625,510.7031 145.6563,511.1094 C145.7188,511.5156 145.75,511.6406 145.8906,511.7656 C146.0313,511.9063 146.2656,512.0156 146.4844,512.0156 C146.75,512.0156 147.0156,511.875 147.1875,511.6563 C147.2969,511.5 147.3281,511.3125 147.3281,510.8906 L147.3281,509.4688 C147.3281,509.0313 147.3125,508.9063 147.2188,508.75 C147.0625,508.4844 146.7813,508.3438 146.4844,508.3438 C146.1875,508.3438 145.9844,508.4375 145.7656,508.75 L145.5938,508.6719 Z " fill="#000000"/><text fill="#000000" font-family="sans-serif" font-size="14" lengthAdjust="spacing" textLength="135" x="163.75" y="517.8467">ProductRepository</text><line style="stroke:#181818;stroke-width:0.5;" x1="8" x2="422" y1="529" y2="529"/><line style="stroke:#181818;stroke-width:0.5;" x1="8" x2="422" y1="537" y2="537"/><text fill="#000000" font-family="sans-serif" font-size="14" lengthAdjust="spacing" textLength="404" x="13" y="553.9951">+findProductsWithBrandCategory(brand,category,num);</text><text fill="#000000" font-family="sans-serif" font-size="14" lengthAdjust="spacing" textLength="270" x="13" y="570.292">+findProductsWithBrand(brand,num);</text><text fill="#000000" font-family="sans-serif" font-size="14" lengthAdjust="spacing" textLength="316" x="13" y="586.5889">+findProductsWithCategory(category,num);</text><text fill="#000000" font-family="sans-serif" font-size="14" lengthAdjust="spacing" textLength="166" x="13" y="602.8857">+findAllProducts(num);</text></g><!--MD5=[72136138052d025cffdce3c22fbd185f]
class Product--><g id="elem_Product"><rect codeLine="30" fill="#F1F1F1" height="80.5938" id="Product" rx="2.5" ry="2.5" style="stroke:#181818;stroke-width:0.5;" width="93" x="168.5" y="687"/><ellipse cx="185.75" cy="703" fill="#ADD1B2" rx="11" ry="11" style="stroke:#181818;stroke-width:1.0;"/><path d="M188.0938,698.6719 C187.1563,698.2344 186.5625,698.0938 185.6875,698.0938 C183.0625,698.0938 181.0625,700.1719 181.0625,702.8906 L181.0625,704.0156 C181.0625,706.5938 183.1719,708.4844 186.0625,708.4844 C187.2813,708.4844 188.4375,708.1875 189.1875,707.6406 C189.7656,707.2344 190.0938,706.7813 190.0938,706.3906 C190.0938,705.9375 189.7031,705.5469 189.2344,705.5469 C189.0156,705.5469 188.8125,705.625 188.625,705.8125 C188.1719,706.2969 188.1719,706.2969 187.9844,706.3906 C187.5625,706.6563 186.875,706.7813 186.1094,706.7813 C184.0625,706.7813 182.7656,705.6875 182.7656,703.9844 L182.7656,702.8906 C182.7656,701.1094 184.0156,699.7969 185.75,699.7969 C186.3281,699.7969 186.9375,699.9531 187.4063,700.2031 C187.8906,700.4844 188.0625,700.7031 188.1563,701.1094 C188.2188,701.5156 188.25,701.6406 188.3906,701.7656 C188.5313,701.9063 188.7656,702.0156 188.9844,702.0156 C189.25,702.0156 189.5156,701.875 189.6875,701.6563 C189.7969,701.5 189.8281,701.3125 189.8281,700.8906 L189.8281,699.4688 C189.8281,699.0313 189.8125,698.9063 189.7188,698.75 C189.5625,698.4844 189.2813,698.3438 188.9844,698.3438 C188.6875,698.3438 188.4844,698.4375 188.2656,698.75 L188.0938,698.6719 Z " fill="#000000"/><text fill="#000000" font-family="sans-serif" font-size="14" lengthAdjust="spacing" textLength="56" x="200.25" y="707.8467">Product</text><line style="stroke:#181818;stroke-width:0.5;" x1="169.5" x2="260.5" y1="719" y2="719"/><text fill="#000000" font-family="sans-serif" font-size="14" lengthAdjust="spacing" textLength="15" x="174.5" y="735.9951">...</text><line style="stroke:#181818;stroke-width:0.5;" x1="169.5" x2="260.5" y1="743.2969" y2="743.2969"/><text fill="#000000" font-family="sans-serif" font-size="14" lengthAdjust="spacing" textLength="81" x="174.5" y="760.292">+toString()</text></g><!--MD5=[627ae1f63f44db2011b629267aef0fb1]
link CheckProductCatalogUI to CheckProductCatalogController--><g id="link_CheckProductCatalogUI_CheckProductCatalogController"><path codeLine="37" d="M215,88.269 C215,105.102 215,125.09 215,143.704 " fill="none" id="CheckProductCatalogUI-to-CheckProductCatalogController" style="stroke:#181818;stroke-width:1.0;stroke-dasharray:7.0,7.0;"/><polygon fill="#181818" points="215,148.913,219,139.913,215,143.913,211,139.913,215,148.913" style="stroke:#181818;stroke-width:1.0;"/></g><!--MD5=[9daaed66df2e2e827aeeabbe5f06baa6]
link CheckProductCatalogController to CheckProductCatalogService--><g id="link_CheckProductCatalogController_CheckProductCatalogService"><path codeLine="39" d="M215,262.343 C215,280.097 215,299.813 215,317.886 " fill="none" id="CheckProductCatalogController-to-CheckProductCatalogService" style="stroke:#181818;stroke-width:1.0;stroke-dasharray:7.0,7.0;"/><polygon fill="#181818" points="215,322.937,219,313.937,215,317.937,211,313.937,215,322.937" style="stroke:#181818;stroke-width:1.0;"/></g><!--MD5=[5c609a1c2396b7e2d954b9685327a3a0]
link CheckProductCatalogService to ProductRepository--><g id="link_CheckProductCatalogService_ProductRepository"><path codeLine="41" d="M215,436.343 C215,454.097 215,473.813 215,491.886 " fill="none" id="CheckProductCatalogService-to-ProductRepository" style="stroke:#181818;stroke-width:1.0;stroke-dasharray:7.0,7.0;"/><polygon fill="#181818" points="215,496.937,219,487.937,215,491.937,211,487.937,215,496.937" style="stroke:#181818;stroke-width:1.0;"/></g><!--MD5=[68e4965bc339513f2ae30d33caf3e4dc]
link ProductRepository to Product--><g id="link_ProductRepository_Product"><path codeLine="43" d="M215,610.343 C215,633.5 215,659.997 215,681.8312 " fill="none" id="ProductRepository-to-Product" style="stroke:#181818;stroke-width:1.0;stroke-dasharray:7.0,7.0;"/><polygon fill="#181818" points="215,686.9883,219,677.9883,215,681.9883,211,677.9883,215,686.9883" style="stroke:#181818;stroke-width:1.0;"/><text fill="#000000" font-family="sans-serif" font-size="13" lengthAdjust="spacing" textLength="41" x="216" y="653.0669">shows</text></g><!--MD5=[dba00cc10c950c3fa071b293e4c0e314]
@startuml
skinparam classAttributeIconSize 0

Class "CheckProductCatalogUI"{
doShow()
headline()
}

Class "CheckProductCatalogController"{
+allProducts(int num)
+allProductsWithCategory(categoryName,num)
+allProductsWithBrand(categoryName,num)
+allProductsWithBrandCategory(categoryName,num)
}

Class "CheckProductCatalogService"{
+allProductsWithoutRestrictions(int num)
+allProductsWithCategory(categoryName,num)
+allProductsWithBrand(categoryName,num)
+allProductsWithBrandCategory(categoryName,num)
}

Class "ProductRepository"{
+findProductsWithBrandCategory(brand,category,num);
+findProductsWithBrand(brand,num);
+findProductsWithCategory(category,num);
+findAllProducts(num);

}

Class "Product"{

+toString()
...
}


CheckProductCatalogUI..> CheckProductCatalogController

CheckProductCatalogController ..> CheckProductCatalogService

CheckProductCatalogService ..> ProductRepository

ProductRepository ..> Product :"shows"
@enduml

PlantUML version 1.2022.4beta2(Unknown compile time)
(GPL source distribution)
Java Runtime: Java(TM) SE Runtime Environment
JVM: Java HotSpot(TM) 64-Bit Server VM
Default Encoding: UTF-8
Language: en
Country: US
--></g></svg>