<?xml version="1.0" encoding="UTF-8" standalone="no"?><svg xmlns="http://www.w3.org/2000/svg" xmlns:xlink="http://www.w3.org/1999/xlink" contentStyleType="text/css" height="521px" preserveAspectRatio="none" style="width:1815px;height:521px;background:#FFFFFF;" version="1.1" viewBox="0 0 1815 521" width="1815px" zoomAndPan="magnify"><defs/><g><rect fill="#FFFFFF" height="340.4609" style="stroke:#181818;stroke-width:1.0;" width="10" x="337.5" y="91.2969"/><rect fill="#FFFFFF" height="143.6641" style="stroke:#181818;stroke-width:1.0;" width="10" x="619.5" y="91.2969"/><rect fill="#FFFFFF" height="101.3984" style="stroke:#181818;stroke-width:1.0;" width="10" x="619.5" y="330.3594"/><rect fill="#FFFFFF" height="29.1328" style="stroke:#181818;stroke-width:1.0;" width="10" x="965.5" y="234.9609"/><rect fill="#FFFFFF" height="29.1328" style="stroke:#181818;stroke-width:1.0;" width="10" x="1303.5" y="264.0938"/><rect fill="#FFFFFF" height="138.5313" style="stroke:#181818;stroke-width:1.0;" width="10" x="1613.5" y="293.2266"/><line style="stroke:#181818;stroke-width:0.5;stroke-dasharray:5.0,5.0;" x1="342" x2="342" y1="81.2969" y2="440.7578"/><line style="stroke:#181818;stroke-width:0.5;stroke-dasharray:5.0,5.0;" x1="624" x2="624" y1="81.2969" y2="440.7578"/><line style="stroke:#181818;stroke-width:0.5;stroke-dasharray:5.0,5.0;" x1="970" x2="970" y1="81.2969" y2="440.7578"/><line style="stroke:#181818;stroke-width:0.5;stroke-dasharray:5.0,5.0;" x1="1308.5" x2="1308.5" y1="81.2969" y2="440.7578"/><line style="stroke:#181818;stroke-width:0.5;stroke-dasharray:5.0,5.0;" x1="1618.5" x2="1618.5" y1="81.2969" y2="440.7578"/><text fill="#000000" font-family="sans-serif" font-size="14" lengthAdjust="spacing" textLength="75" x="302" y="77.9951">SalesClerk</text><ellipse cx="342.5" cy="13.5" fill="#E2E2F0" rx="8" ry="8" style="stroke:#181818;stroke-width:0.5;"/><path d="M342.5,21.5 L342.5,48.5 M329.5,29.5 L355.5,29.5 M342.5,48.5 L329.5,63.5 M342.5,48.5 L355.5,63.5 " fill="none" style="stroke:#181818;stroke-width:0.5;"/><text fill="#000000" font-family="sans-serif" font-size="14" lengthAdjust="spacing" textLength="75" x="302" y="452.7529">SalesClerk</text><ellipse cx="342.5" cy="464.5547" fill="#E2E2F0" rx="8" ry="8" style="stroke:#181818;stroke-width:0.5;"/><path d="M342.5,472.5547 L342.5,499.5547 M329.5,480.5547 L355.5,480.5547 M342.5,499.5547 L329.5,514.5547 M342.5,499.5547 L355.5,514.5547 " fill="none" style="stroke:#181818;stroke-width:0.5;"/><rect fill="#E2E2F0" height="30.2969" rx="2.5" ry="2.5" style="stroke:#181818;stroke-width:0.5;" width="303" x="473" y="50"/><text fill="#000000" font-family="sans-serif" font-size="14" lengthAdjust="spacing" textLength="289" x="480" y="69.9951">CheckProductCatalogUI &lt;presentation&gt;</text><rect fill="#E2E2F0" height="30.2969" rx="2.5" ry="2.5" style="stroke:#181818;stroke-width:0.5;" width="303" x="473" y="439.7578"/><text fill="#000000" font-family="sans-serif" font-size="14" lengthAdjust="spacing" textLength="289" x="480" y="459.7529">CheckProductCatalogUI &lt;presentation&gt;</text><rect fill="#E2E2F0" height="30.2969" rx="2.5" ry="2.5" style="stroke:#181818;stroke-width:0.5;" width="355" x="793" y="50"/><text fill="#000000" font-family="sans-serif" font-size="14" lengthAdjust="spacing" textLength="341" x="800" y="69.9951">:CheckProductCatalogController &lt;application&gt;</text><rect fill="#E2E2F0" height="30.2969" rx="2.5" ry="2.5" style="stroke:#181818;stroke-width:0.5;" width="355" x="793" y="439.7578"/><text fill="#000000" font-family="sans-serif" font-size="14" lengthAdjust="spacing" textLength="341" x="800" y="459.7529">:CheckProductCatalogController &lt;application&gt;</text><rect fill="#E2E2F0" height="30.2969" rx="2.5" ry="2.5" style="stroke:#181818;stroke-width:0.5;" width="228" x="1194.5" y="50"/><text fill="#000000" font-family="sans-serif" font-size="14" lengthAdjust="spacing" textLength="214" x="1201.5" y="69.9951">:CheckProductCatalogService</text><rect fill="#E2E2F0" height="30.2969" rx="2.5" ry="2.5" style="stroke:#181818;stroke-width:0.5;" width="228" x="1194.5" y="439.7578"/><text fill="#000000" font-family="sans-serif" font-size="14" lengthAdjust="spacing" textLength="214" x="1201.5" y="459.7529">:CheckProductCatalogService</text><rect fill="#E2E2F0" height="30.2969" rx="2.5" ry="2.5" style="stroke:#181818;stroke-width:0.5;" width="154" x="1541.5" y="50"/><text fill="#000000" font-family="sans-serif" font-size="14" lengthAdjust="spacing" textLength="140" x="1548.5" y="69.9951">:ProductRepository</text><rect fill="#E2E2F0" height="30.2969" rx="2.5" ry="2.5" style="stroke:#181818;stroke-width:0.5;" width="154" x="1541.5" y="439.7578"/><text fill="#000000" font-family="sans-serif" font-size="14" lengthAdjust="spacing" textLength="140" x="1548.5" y="459.7529">:ProductRepository</text><rect fill="#FFFFFF" height="340.4609" style="stroke:#181818;stroke-width:1.0;" width="10" x="337.5" y="91.2969"/><rect fill="#FFFFFF" height="143.6641" style="stroke:#181818;stroke-width:1.0;" width="10" x="619.5" y="91.2969"/><rect fill="#FFFFFF" height="101.3984" style="stroke:#181818;stroke-width:1.0;" width="10" x="619.5" y="330.3594"/><rect fill="#FFFFFF" height="29.1328" style="stroke:#181818;stroke-width:1.0;" width="10" x="965.5" y="234.9609"/><rect fill="#FFFFFF" height="29.1328" style="stroke:#181818;stroke-width:1.0;" width="10" x="1303.5" y="264.0938"/><rect fill="#FFFFFF" height="138.5313" style="stroke:#181818;stroke-width:1.0;" width="10" x="1613.5" y="293.2266"/><path d="M5,96.2969 L5,121.2969 L680,121.2969 L680,106.2969 L670,96.2969 L5,96.2969 " fill="#FEFFDD" style="stroke:#181818;stroke-width:0.5;"/><path d="M670,96.2969 L670,106.2969 L680,106.2969 L670,96.2969 " fill="#FEFFDD" style="stroke:#181818;stroke-width:0.5;"/><text fill="#000000" font-family="sans-serif" font-size="13" lengthAdjust="spacing" textLength="654" x="11" y="113.3638">the methods used are different depending on the filtering methods used, this SD is for the categories.</text><polygon fill="#181818" points="607.5,143.5625,617.5,147.5625,607.5,151.5625,611.5,147.5625" style="stroke:#181818;stroke-width:1.0;"/><line style="stroke:#181818;stroke-width:1.0;" x1="347.5" x2="613.5" y1="147.5625" y2="147.5625"/><text fill="#000000" font-family="sans-serif" font-size="13" font-weight="bold" lengthAdjust="spacing" textLength="9" x="354.5" y="142.4966">1</text><text fill="#000000" font-family="sans-serif" font-size="13" lengthAdjust="spacing" textLength="221" x="367.5" y="142.4966">Register Category Option Selected</text><polygon fill="#181818" points="358.5,172.6953,348.5,176.6953,358.5,180.6953,354.5,176.6953" style="stroke:#181818;stroke-width:1.0;"/><line style="stroke:#181818;stroke-width:1.0;" x1="352.5" x2="618.5" y1="176.6953" y2="176.6953"/><text fill="#000000" font-family="sans-serif" font-size="13" font-weight="bold" lengthAdjust="spacing" textLength="9" x="364.5" y="171.6294">2</text><text fill="#000000" font-family="sans-serif" font-size="13" lengthAdjust="spacing" textLength="198" x="377.5" y="171.6294">asks filtering and sorting mode</text><polygon fill="#181818" points="607.5,201.8281,617.5,205.8281,607.5,209.8281,611.5,205.8281" style="stroke:#181818;stroke-width:1.0;"/><line style="stroke:#181818;stroke-width:1.0;" x1="347.5" x2="613.5" y1="205.8281" y2="205.8281"/><text fill="#000000" font-family="sans-serif" font-size="13" font-weight="bold" lengthAdjust="spacing" textLength="8" x="354.5" y="200.7622">3</text><text fill="#000000" font-family="sans-serif" font-size="13" lengthAdjust="spacing" textLength="236" x="366.5" y="200.7622">introduces filtering and sorting mode</text><polygon fill="#181818" points="953.5,230.9609,963.5,234.9609,953.5,238.9609,957.5,234.9609" style="stroke:#181818;stroke-width:1.0;"/><line style="stroke:#181818;stroke-width:1.0;" x1="624.5" x2="959.5" y1="234.9609" y2="234.9609"/><text fill="#000000" font-family="sans-serif" font-size="13" font-weight="bold" lengthAdjust="spacing" textLength="9" x="631.5" y="229.895">4</text><text fill="#000000" font-family="sans-serif" font-size="13" lengthAdjust="spacing" textLength="304" x="644.5" y="229.895">allProductsWithCategory(categoryName,name)</text><polygon fill="#181818" points="1291.5,260.0938,1301.5,264.0938,1291.5,268.0938,1295.5,264.0938" style="stroke:#181818;stroke-width:1.0;"/><line style="stroke:#181818;stroke-width:1.0;" x1="970.5" x2="1297.5" y1="264.0938" y2="264.0938"/><text fill="#000000" font-family="sans-serif" font-size="13" font-weight="bold" lengthAdjust="spacing" textLength="9" x="977.5" y="259.0278">5</text><text fill="#000000" font-family="sans-serif" font-size="13" lengthAdjust="spacing" textLength="296" x="990.5" y="259.0278">allProductsWithCategory(categoryName,num)</text><polygon fill="#181818" points="1601.5,289.2266,1611.5,293.2266,1601.5,297.2266,1605.5,293.2266" style="stroke:#181818;stroke-width:1.0;"/><line style="stroke:#181818;stroke-width:1.0;" x1="1308.5" x2="1607.5" y1="293.2266" y2="293.2266"/><text fill="#000000" font-family="sans-serif" font-size="13" font-weight="bold" lengthAdjust="spacing" textLength="9" x="1315.5" y="288.1606">6</text><text fill="#000000" font-family="sans-serif" font-size="13" lengthAdjust="spacing" textLength="268" x="1328.5" y="288.1606">findProductsWithCategory(category,num)</text><line style="stroke:#181818;stroke-width:1.0;" x1="1623.5" x2="1670.5" y1="317.3594" y2="317.3594"/><line style="stroke:#181818;stroke-width:1.0;" x1="1670.5" x2="1670.5" y1="317.3594" y2="330.3594"/><line style="stroke:#181818;stroke-width:1.0;" x1="1629.5" x2="1670.5" y1="330.3594" y2="330.3594"/><polygon fill="#181818" points="1639.5,326.3594,1629.5,330.3594,1639.5,334.3594,1635.5,330.3594" style="stroke:#181818;stroke-width:1.0;"/><text fill="#000000" font-family="sans-serif" font-size="13" font-weight="bold" lengthAdjust="spacing" textLength="9" x="1635.5" y="312.2935">7</text><text fill="#000000" font-family="sans-serif" font-size="13" lengthAdjust="spacing" textLength="160" x="1648.5" y="312.2935">createSortMode(int num)</text><polygon fill="#181818" points="358.5,360.4922,348.5,364.4922,358.5,368.4922,354.5,364.4922" style="stroke:#181818;stroke-width:1.0;"/><line style="stroke:#181818;stroke-width:1.0;" x1="352.5" x2="618.5" y1="364.4922" y2="364.4922"/><text fill="#000000" font-family="sans-serif" font-size="13" font-weight="bold" lengthAdjust="spacing" textLength="9" x="364.5" y="359.4263">8</text><text fill="#000000" font-family="sans-serif" font-size="13" lengthAdjust="spacing" textLength="101" x="377.5" y="359.4263">shows products</text><polygon fill="#181818" points="607.5,389.625,617.5,393.625,607.5,397.625,611.5,393.625" style="stroke:#181818;stroke-width:1.0;"/><line style="stroke:#181818;stroke-width:1.0;" x1="347.5" x2="613.5" y1="393.625" y2="393.625"/><text fill="#000000" font-family="sans-serif" font-size="13" font-weight="bold" lengthAdjust="spacing" textLength="9" x="354.5" y="388.5591">9</text><text fill="#000000" font-family="sans-serif" font-size="13" lengthAdjust="spacing" textLength="106" x="367.5" y="388.5591">chooses product</text><polygon fill="#181818" points="358.5,418.7578,348.5,422.7578,358.5,426.7578,354.5,422.7578" style="stroke:#181818;stroke-width:1.0;"/><line style="stroke:#181818;stroke-width:1.0;" x1="352.5" x2="618.5" y1="422.7578" y2="422.7578"/><text fill="#000000" font-family="sans-serif" font-size="13" font-weight="bold" lengthAdjust="spacing" textLength="19" x="364.5" y="417.6919">10</text><text fill="#000000" font-family="sans-serif" font-size="13" lengthAdjust="spacing" textLength="113" x="387.5" y="417.6919">product.toString()</text><!--MD5=[8ccf2036b33ce484799ebc1482523e8f]
@startuml
autonumber
actor "SalesClerk" as SC

participant  "CheckProductCatalogUI <presentation>" as SYS
participant ":CheckProductCatalogController <application>" as CTRL
participant ":CheckProductCatalogService" as SV
participant ":ProductRepository" as PR


note over SC: the methods used are different depending on the filtering methods used, this SD is for the categories.
activate SC
activate SYS

SC-> SYS: Register Category Option Selected

SYS-> SC: asks filtering and sorting mode
SC-> SYS: introduces filtering and sorting mode







SYS-> CTRL : allProductsWithCategory(categoryName,name)
deactivate SYS
activate CTRL
CTRL -> SV : allProductsWithCategory(categoryName,num)
deactivate CTRL
activate SV
SV-> PR:findProductsWithCategory(category,num)
deactivate SV
activate PR
PR -> PR : createSortMode(int num)
activate SYS
SYS -> SC :shows products 
SC-> SYS : chooses product
SYS-> SC : product.toString()
@enduml

PlantUML version 1.2022.4beta2(Unknown compile time)
(GPL source distribution)
Java Runtime: Java(TM) SE Runtime Environment
JVM: Java HotSpot(TM) 64-Bit Server VM
Default Encoding: UTF-8
Language: en
Country: US
--></g></svg>