<?xml version="1.0" encoding="UTF-8" standalone="no"?><svg xmlns="http://www.w3.org/2000/svg" xmlns:xlink="http://www.w3.org/1999/xlink" contentStyleType="text/css" height="235px" preserveAspectRatio="none" style="width:910px;height:235px;background:#FFFFFF;" version="1.1" viewBox="0 0 910 235" width="910px" zoomAndPan="magnify"><defs/><g><!--MD5=[18ee6c6b0c8d99feca35273ccb20e692]
class TcpClientAGVDigitalTwin--><g id="elem_TcpClientAGVDigitalTwin"><rect codeLine="3" fill="#F1F1F1" height="80.5938" id="TcpClientAGVDigitalTwin" rx="2.5" ry="2.5" style="stroke:#181818;stroke-width:0.5;" width="287" x="7" y="148"/><ellipse cx="55.75" cy="164" fill="#ADD1B2" rx="11" ry="11" style="stroke:#181818;stroke-width:1.0;"/><path d="M58.0938,159.6719 C57.1563,159.2344 56.5625,159.0938 55.6875,159.0938 C53.0625,159.0938 51.0625,161.1719 51.0625,163.8906 L51.0625,165.0156 C51.0625,167.5938 53.1719,169.4844 56.0625,169.4844 C57.2813,169.4844 58.4375,169.1875 59.1875,168.6406 C59.7656,168.2344 60.0938,167.7813 60.0938,167.3906 C60.0938,166.9375 59.7031,166.5469 59.2344,166.5469 C59.0156,166.5469 58.8125,166.625 58.625,166.8125 C58.1719,167.2969 58.1719,167.2969 57.9844,167.3906 C57.5625,167.6563 56.875,167.7813 56.1094,167.7813 C54.0625,167.7813 52.7656,166.6875 52.7656,164.9844 L52.7656,163.8906 C52.7656,162.1094 54.0156,160.7969 55.75,160.7969 C56.3281,160.7969 56.9375,160.9531 57.4063,161.2031 C57.8906,161.4844 58.0625,161.7031 58.1563,162.1094 C58.2188,162.5156 58.25,162.6406 58.3906,162.7656 C58.5313,162.9063 58.7656,163.0156 58.9844,163.0156 C59.25,163.0156 59.5156,162.875 59.6875,162.6563 C59.7969,162.5 59.8281,162.3125 59.8281,161.8906 L59.8281,160.4688 C59.8281,160.0313 59.8125,159.9063 59.7188,159.75 C59.5625,159.4844 59.2813,159.3438 58.9844,159.3438 C58.6875,159.3438 58.4844,159.4375 58.2656,159.75 L58.0938,159.6719 Z " fill="#000000"/><text fill="#000000" font-family="sans-serif" font-size="14" lengthAdjust="spacing" textLength="181" x="76.25" y="168.8467">TcpClientAGVDigitalTwin</text><line style="stroke:#181818;stroke-width:0.5;" x1="8" x2="293" y1="180" y2="180"/><text fill="#000000" font-family="sans-serif" font-size="14" lengthAdjust="spacing" textLength="147" x="13" y="196.9951">+parsing methods...</text><text fill="#000000" font-family="sans-serif" font-size="14" lengthAdjust="spacing" textLength="275" x="13" y="213.292">+building data transferece methods...</text><line style="stroke:#181818;stroke-width:0.5;" x1="8" x2="293" y1="220.5938" y2="220.5938"/></g><!--MD5=[a0bb9c9a69fd6c0bea204d88084df07e]
class TcpClientAGVDigitalTwinThread--><g id="elem_TcpClientAGVDigitalTwinThread"><rect codeLine="8" fill="#F1F1F1" height="48" id="TcpClientAGVDigitalTwinThread" rx="2.5" ry="2.5" style="stroke:#181818;stroke-width:0.5;" width="263" x="19" y="23.5"/><ellipse cx="34" cy="39.5" fill="#ADD1B2" rx="11" ry="11" style="stroke:#181818;stroke-width:1.0;"/><path d="M36.3438,35.1719 C35.4063,34.7344 34.8125,34.5938 33.9375,34.5938 C31.3125,34.5938 29.3125,36.6719 29.3125,39.3906 L29.3125,40.5156 C29.3125,43.0938 31.4219,44.9844 34.3125,44.9844 C35.5313,44.9844 36.6875,44.6875 37.4375,44.1406 C38.0156,43.7344 38.3438,43.2813 38.3438,42.8906 C38.3438,42.4375 37.9531,42.0469 37.4844,42.0469 C37.2656,42.0469 37.0625,42.125 36.875,42.3125 C36.4219,42.7969 36.4219,42.7969 36.2344,42.8906 C35.8125,43.1563 35.125,43.2813 34.3594,43.2813 C32.3125,43.2813 31.0156,42.1875 31.0156,40.4844 L31.0156,39.3906 C31.0156,37.6094 32.2656,36.2969 34,36.2969 C34.5781,36.2969 35.1875,36.4531 35.6563,36.7031 C36.1406,36.9844 36.3125,37.2031 36.4063,37.6094 C36.4688,38.0156 36.5,38.1406 36.6406,38.2656 C36.7813,38.4063 37.0156,38.5156 37.2344,38.5156 C37.5,38.5156 37.7656,38.375 37.9375,38.1563 C38.0469,38 38.0781,37.8125 38.0781,37.3906 L38.0781,35.9688 C38.0781,35.5313 38.0625,35.4063 37.9688,35.25 C37.8125,34.9844 37.5313,34.8438 37.2344,34.8438 C36.9375,34.8438 36.7344,34.9375 36.5156,35.25 L36.3438,35.1719 Z " fill="#000000"/><text fill="#000000" font-family="sans-serif" font-size="14" lengthAdjust="spacing" textLength="231" x="48" y="44.3467">TcpClientAGVDigitalTwinThread</text><line style="stroke:#181818;stroke-width:0.5;" x1="20" x2="281" y1="55.5" y2="55.5"/><line style="stroke:#181818;stroke-width:0.5;" x1="20" x2="281" y1="63.5" y2="63.5"/></g><!--MD5=[d7724097116ffcb6ea40e9e893263eea]
class TcpServerAGVManager--><g id="elem_TcpServerAGVManager"><rect codeLine="12" fill="#F1F1F1" height="80.5938" id="TcpServerAGVManager" rx="2.5" ry="2.5" style="stroke:#181818;stroke-width:0.5;" width="287" x="317" y="7"/><ellipse cx="373.25" cy="23" fill="#ADD1B2" rx="11" ry="11" style="stroke:#181818;stroke-width:1.0;"/><path d="M375.5938,18.6719 C374.6563,18.2344 374.0625,18.0938 373.1875,18.0938 C370.5625,18.0938 368.5625,20.1719 368.5625,22.8906 L368.5625,24.0156 C368.5625,26.5938 370.6719,28.4844 373.5625,28.4844 C374.7813,28.4844 375.9375,28.1875 376.6875,27.6406 C377.2656,27.2344 377.5938,26.7813 377.5938,26.3906 C377.5938,25.9375 377.2031,25.5469 376.7344,25.5469 C376.5156,25.5469 376.3125,25.625 376.125,25.8125 C375.6719,26.2969 375.6719,26.2969 375.4844,26.3906 C375.0625,26.6563 374.375,26.7813 373.6094,26.7813 C371.5625,26.7813 370.2656,25.6875 370.2656,23.9844 L370.2656,22.8906 C370.2656,21.1094 371.5156,19.7969 373.25,19.7969 C373.8281,19.7969 374.4375,19.9531 374.9063,20.2031 C375.3906,20.4844 375.5625,20.7031 375.6563,21.1094 C375.7188,21.5156 375.75,21.6406 375.8906,21.7656 C376.0313,21.9063 376.2656,22.0156 376.4844,22.0156 C376.75,22.0156 377.0156,21.875 377.1875,21.6563 C377.2969,21.5 377.3281,21.3125 377.3281,20.8906 L377.3281,19.4688 C377.3281,19.0313 377.3125,18.9063 377.2188,18.75 C377.0625,18.4844 376.7813,18.3438 376.4844,18.3438 C376.1875,18.3438 375.9844,18.4375 375.7656,18.75 L375.5938,18.6719 Z " fill="#000000"/><text fill="#000000" font-family="sans-serif" font-size="14" lengthAdjust="spacing" textLength="166" x="393.75" y="27.8467">TcpServerAGVManager</text><line style="stroke:#181818;stroke-width:0.5;" x1="318" x2="603" y1="39" y2="39"/><text fill="#000000" font-family="sans-serif" font-size="14" lengthAdjust="spacing" textLength="147" x="323" y="55.9951">+parsing methods...</text><text fill="#000000" font-family="sans-serif" font-size="14" lengthAdjust="spacing" textLength="275" x="323" y="72.292">+building data transferece methods...</text><line style="stroke:#181818;stroke-width:0.5;" x1="318" x2="603" y1="79.5938" y2="79.5938"/></g><!--MD5=[245a0f4990a869e77cf31f607fa8d74f]
class TcpServerAGVManagerThread--><g id="elem_TcpServerAGVManagerThread"><rect codeLine="17" fill="#F1F1F1" height="48" id="TcpServerAGVManagerThread" rx="2.5" ry="2.5" style="stroke:#181818;stroke-width:0.5;" width="248" x="332.5" y="164.5"/><ellipse cx="347.5" cy="180.5" fill="#ADD1B2" rx="11" ry="11" style="stroke:#181818;stroke-width:1.0;"/><path d="M349.8438,176.1719 C348.9063,175.7344 348.3125,175.5938 347.4375,175.5938 C344.8125,175.5938 342.8125,177.6719 342.8125,180.3906 L342.8125,181.5156 C342.8125,184.0938 344.9219,185.9844 347.8125,185.9844 C349.0313,185.9844 350.1875,185.6875 350.9375,185.1406 C351.5156,184.7344 351.8438,184.2813 351.8438,183.8906 C351.8438,183.4375 351.4531,183.0469 350.9844,183.0469 C350.7656,183.0469 350.5625,183.125 350.375,183.3125 C349.9219,183.7969 349.9219,183.7969 349.7344,183.8906 C349.3125,184.1563 348.625,184.2813 347.8594,184.2813 C345.8125,184.2813 344.5156,183.1875 344.5156,181.4844 L344.5156,180.3906 C344.5156,178.6094 345.7656,177.2969 347.5,177.2969 C348.0781,177.2969 348.6875,177.4531 349.1563,177.7031 C349.6406,177.9844 349.8125,178.2031 349.9063,178.6094 C349.9688,179.0156 350,179.1406 350.1406,179.2656 C350.2813,179.4063 350.5156,179.5156 350.7344,179.5156 C351,179.5156 351.2656,179.375 351.4375,179.1563 C351.5469,179 351.5781,178.8125 351.5781,178.3906 L351.5781,176.9688 C351.5781,176.5313 351.5625,176.4063 351.4688,176.25 C351.3125,175.9844 351.0313,175.8438 350.7344,175.8438 C350.4375,175.8438 350.2344,175.9375 350.0156,176.25 L349.8438,176.1719 Z " fill="#000000"/><text fill="#000000" font-family="sans-serif" font-size="14" lengthAdjust="spacing" textLength="216" x="361.5" y="185.3467">TcpServerAGVManagerThread</text><line style="stroke:#181818;stroke-width:0.5;" x1="333.5" x2="579.5" y1="196.5" y2="196.5"/><line style="stroke:#181818;stroke-width:0.5;" x1="333.5" x2="579.5" y1="204.5" y2="204.5"/></g><!--MD5=[c7742b7765605322c8c1f47373241d6a]
class TcpClientBackoffice--><g id="elem_TcpClientBackoffice"><rect codeLine="21" fill="#F1F1F1" height="80.5938" id="TcpClientBackoffice" rx="2.5" ry="2.5" style="stroke:#181818;stroke-width:0.5;" width="287" x="616" y="148"/><ellipse cx="681.75" cy="164" fill="#ADD1B2" rx="11" ry="11" style="stroke:#181818;stroke-width:1.0;"/><path d="M684.0938,159.6719 C683.1563,159.2344 682.5625,159.0938 681.6875,159.0938 C679.0625,159.0938 677.0625,161.1719 677.0625,163.8906 L677.0625,165.0156 C677.0625,167.5938 679.1719,169.4844 682.0625,169.4844 C683.2813,169.4844 684.4375,169.1875 685.1875,168.6406 C685.7656,168.2344 686.0938,167.7813 686.0938,167.3906 C686.0938,166.9375 685.7031,166.5469 685.2344,166.5469 C685.0156,166.5469 684.8125,166.625 684.625,166.8125 C684.1719,167.2969 684.1719,167.2969 683.9844,167.3906 C683.5625,167.6563 682.875,167.7813 682.1094,167.7813 C680.0625,167.7813 678.7656,166.6875 678.7656,164.9844 L678.7656,163.8906 C678.7656,162.1094 680.0156,160.7969 681.75,160.7969 C682.3281,160.7969 682.9375,160.9531 683.4063,161.2031 C683.8906,161.4844 684.0625,161.7031 684.1563,162.1094 C684.2188,162.5156 684.25,162.6406 684.3906,162.7656 C684.5313,162.9063 684.7656,163.0156 684.9844,163.0156 C685.25,163.0156 685.5156,162.875 685.6875,162.6563 C685.7969,162.5 685.8281,162.3125 685.8281,161.8906 L685.8281,160.4688 C685.8281,160.0313 685.8125,159.9063 685.7188,159.75 C685.5625,159.4844 685.2813,159.3438 684.9844,159.3438 C684.6875,159.3438 684.4844,159.4375 684.2656,159.75 L684.0938,159.6719 Z " fill="#000000"/><text fill="#000000" font-family="sans-serif" font-size="14" lengthAdjust="spacing" textLength="147" x="702.25" y="168.8467">TcpClientBackoffice</text><line style="stroke:#181818;stroke-width:0.5;" x1="617" x2="902" y1="180" y2="180"/><text fill="#000000" font-family="sans-serif" font-size="14" lengthAdjust="spacing" textLength="147" x="622" y="196.9951">+parsing methods...</text><text fill="#000000" font-family="sans-serif" font-size="14" lengthAdjust="spacing" textLength="275" x="622" y="213.292">+building data transferece methods...</text><line style="stroke:#181818;stroke-width:0.5;" x1="617" x2="902" y1="220.5938" y2="220.5938"/></g><!--MD5=[f367a0b364f16b11eb04bbd6949c0ddd]
class TcpClientBackofficeThread--><g id="elem_TcpClientBackofficeThread"><rect codeLine="26" fill="#F1F1F1" height="48" id="TcpClientBackofficeThread" rx="2.5" ry="2.5" style="stroke:#181818;stroke-width:0.5;" width="229" x="640" y="23.5"/><ellipse cx="655" cy="39.5" fill="#ADD1B2" rx="11" ry="11" style="stroke:#181818;stroke-width:1.0;"/><path d="M657.3438,35.1719 C656.4063,34.7344 655.8125,34.5938 654.9375,34.5938 C652.3125,34.5938 650.3125,36.6719 650.3125,39.3906 L650.3125,40.5156 C650.3125,43.0938 652.4219,44.9844 655.3125,44.9844 C656.5313,44.9844 657.6875,44.6875 658.4375,44.1406 C659.0156,43.7344 659.3438,43.2813 659.3438,42.8906 C659.3438,42.4375 658.9531,42.0469 658.4844,42.0469 C658.2656,42.0469 658.0625,42.125 657.875,42.3125 C657.4219,42.7969 657.4219,42.7969 657.2344,42.8906 C656.8125,43.1563 656.125,43.2813 655.3594,43.2813 C653.3125,43.2813 652.0156,42.1875 652.0156,40.4844 L652.0156,39.3906 C652.0156,37.6094 653.2656,36.2969 655,36.2969 C655.5781,36.2969 656.1875,36.4531 656.6563,36.7031 C657.1406,36.9844 657.3125,37.2031 657.4063,37.6094 C657.4688,38.0156 657.5,38.1406 657.6406,38.2656 C657.7813,38.4063 658.0156,38.5156 658.2344,38.5156 C658.5,38.5156 658.7656,38.375 658.9375,38.1563 C659.0469,38 659.0781,37.8125 659.0781,37.3906 L659.0781,35.9688 C659.0781,35.5313 659.0625,35.4063 658.9688,35.25 C658.8125,34.9844 658.5313,34.8438 658.2344,34.8438 C657.9375,34.8438 657.7344,34.9375 657.5156,35.25 L657.3438,35.1719 Z " fill="#000000"/><text fill="#000000" font-family="sans-serif" font-size="14" lengthAdjust="spacing" textLength="197" x="669" y="44.3467">TcpClientBackofficeThread</text><line style="stroke:#181818;stroke-width:0.5;" x1="641" x2="868" y1="55.5" y2="55.5"/><line style="stroke:#181818;stroke-width:0.5;" x1="641" x2="868" y1="63.5" y2="63.5"/></g><!--MD5=[e71a6d92d42ba370bd2d28424c2cab55]
link TcpClientAGVDigitalTwinThread to TcpClientAGVDigitalTwin--><g id="link_TcpClientAGVDigitalTwinThread_TcpClientAGVDigitalTwin"><path codeLine="32" d="M150.5,71.765 C150.5,91.022 150.5,118.944 150.5,142.5373 " fill="none" id="TcpClientAGVDigitalTwinThread-to-TcpClientAGVDigitalTwin" style="stroke:#181818;stroke-width:1.0;"/><polygon fill="#181818" points="150.5,147.8106,154.5,138.8106,150.5,142.8106,146.5,138.8106,150.5,147.8106" style="stroke:#181818;stroke-width:1.0;"/></g><!--MD5=[9cb19ad990d30361a685a9b3a3ddf897]
link TcpServerAGVManager to TcpServerAGVManagerThread--><g id="link_TcpServerAGVManager_TcpServerAGVManagerThread"><path codeLine="34" d="M459.354,88.332 C458.703,110.962 457.903,138.7592 457.316,159.1599 " fill="none" id="TcpServerAGVManager-to-TcpServerAGVManagerThread" style="stroke:#181818;stroke-width:1.0;"/><polygon fill="#181818" points="457.171,164.1794,461.4286,155.2984,457.315,159.1815,453.4319,155.0679,457.171,164.1794" style="stroke:#181818;stroke-width:1.0;"/></g><!--MD5=[f660f071de13e62dfb559cc1bb1d0d84]
link TcpClientAGVDigitalTwinThread to TcpServerAGVManagerThread--><g id="link_TcpClientAGVDigitalTwinThread_TcpServerAGVManagerThread"><path codeLine="36" d="M201.373,71.609 C256.5,96.651 344.182,136.4795 401.039,162.3071 " fill="none" id="TcpClientAGVDigitalTwinThread-to-TcpServerAGVManagerThread" style="stroke:#181818;stroke-width:1.0;"/><polygon fill="#181818" points="405.76,164.4515,399.221,157.0867,401.2079,162.3831,395.9115,164.37,405.76,164.4515" style="stroke:#181818;stroke-width:1.0;"/></g><!--MD5=[4d8918317d9b47a1e7ef3732723078f1]
link TcpClientBackofficeThread to TcpClientBackoffice--><g id="link_TcpClientBackofficeThread_TcpClientBackoffice"><path codeLine="38" d="M755.337,71.765 C756.03,91.022 757.034,118.944 757.883,142.5373 " fill="none" id="TcpClientBackofficeThread-to-TcpClientBackoffice" style="stroke:#181818;stroke-width:1.0;"/><polygon fill="#181818" points="758.072,147.8106,761.7456,138.6725,757.8921,142.8138,753.7508,138.9603,758.072,147.8106" style="stroke:#181818;stroke-width:1.0;"/></g><!--MD5=[2024a2fe4f09e15f01c1a5a0dbbbefe7]
link TcpClientBackofficeThread to TcpServerAGVManagerThread--><g id="link_TcpClientBackofficeThread_TcpServerAGVManagerThread"><path codeLine="40" d="M704.957,71.609 C651.351,96.613 566.138,136.3601 510.76,162.1908 " fill="none" id="TcpClientBackofficeThread-to-TcpServerAGVManagerThread" style="stroke:#181818;stroke-width:1.0;"/><polygon fill="#181818" points="506.162,164.3357,516.0092,164.155,510.693,162.2215,512.6265,156.9054,506.162,164.3357" style="stroke:#181818;stroke-width:1.0;"/></g><!--MD5=[bb957a16a4a2d584d788945240308177]
@startuml
skinparam classAttributeIconSize 0

Class "TcpClientAGVDigitalTwin"{
+parsing methods...
+building data transferece methods...
}

Class "TcpClientAGVDigitalTwinThread"{
       
}

Class "TcpServerAGVManager"{
+parsing methods...
+building data transferece methods...
}

Class "TcpServerAGVManagerThread"{

}

Class "TcpClientBackoffice"{
+parsing methods...
+building data transferece methods...
}

Class "TcpClientBackofficeThread"{

}



"TcpClientAGVDigitalTwinThread"  - ->  "TcpClientAGVDigitalTwin" 

"TcpServerAGVManager"  - ->  "TcpServerAGVManagerThread" 

"TcpClientAGVDigitalTwinThread" - -> "TcpServerAGVManagerThread"

"TcpClientBackofficeThread"  - ->  "TcpClientBackoffice" 

"TcpClientBackofficeThread"  - ->  "TcpServerAGVManagerThread"
@enduml

PlantUML version 1.2022.6beta4(Unknown compile time)
(GPL source distribution)
Java Runtime: Java(TM) SE Runtime Environment
JVM: Java HotSpot(TM) 64-Bit Server VM
Default Encoding: UTF-8
Language: en
Country: US
--></g></svg>