<?xml version="1.0" encoding="UTF-8" standalone="no"?><svg xmlns="http://www.w3.org/2000/svg" xmlns:xlink="http://www.w3.org/1999/xlink" contentScriptType="application/ecmascript" contentStyleType="text/css" height="861px" preserveAspectRatio="none" style="width:462px;height:861px;" version="1.1" viewBox="0 0 462 861" width="462px" zoomAndPan="magnify">
    <defs>
        <filter height="300%" id="f2uplqpj4n5je" width="300%" x="-1" y="-1">
            <feGaussianBlur result="blurOut" stdDeviation="2.0" />
            <feColorMatrix in="blurOut" result="blurOut2" type="matrix" values="0 0 0 0 0 0 0 0 0 0 0 0 0 0 0 0 0 0 .4 0" />
            <feOffset dx="4.0" dy="4.0" in="blurOut2" result="blurOut3" />
            <feBlend in="SourceGraphic" in2="blurOut3" mode="normal" />
        </filter>
    </defs>
    <g>
        <!--class UI-->
        <rect fill="#FEFECE" filter="url(#f2uplqpj4n5je)" height="75.6719" id="UI" style="stroke: #A80036; stroke-width: 1.5;" width="178" x="199.5" y="8" />
        <ellipse cx="214.5" cy="24" fill="#ADD1B2" rx="11" ry="11" style="stroke: #A80036; stroke-width: 1.0;" />
        <path d="M217.2656,19.875 Q217.4219,19.6563 217.6094,19.5469 Q217.7969,19.4375 218.0156,19.4375 Q218.3906,19.4375 218.625,19.6953 Q218.8594,19.9531 218.8594,20.5625 L218.8594,22.0156 Q218.8594,22.625 218.625,22.8906 Q218.3906,23.1563 218.0156,23.1563 Q217.6719,23.1563 217.4688,22.9531 Q217.2656,22.7656 217.1563,22.25 Q217.1094,21.8906 216.9219,21.7031 Q216.5938,21.3281 215.9844,21.1094 Q215.375,20.8906 214.75,20.8906 Q213.9844,20.8906 213.3516,21.2188 Q212.7188,21.5469 212.2266,22.2969 Q211.7344,23.0469 211.7344,24.0781 L211.7344,25.1719 Q211.7344,26.4063 212.625,27.2266 Q213.5156,28.0469 215.1094,28.0469 Q216.0469,28.0469 216.7031,27.7969 Q217.0938,27.6406 217.5156,27.2031 Q217.7813,26.9375 217.9297,26.8594 Q218.0781,26.7813 218.2813,26.7813 Q218.6094,26.7813 218.8672,27.0391 Q219.125,27.2969 219.125,27.6406 Q219.125,27.9844 218.7813,28.3906 Q218.2813,28.9688 217.4844,29.2969 Q216.4063,29.75 215.1094,29.75 Q213.5938,29.75 212.3906,29.125 Q211.4063,28.625 210.7188,27.5547 Q210.0313,26.4844 210.0313,25.2031 L210.0313,24.0469 Q210.0313,22.7188 210.6484,21.5703 Q211.2656,20.4219 212.3594,19.8047 Q213.4531,19.1875 214.6875,19.1875 Q215.4219,19.1875 216.0703,19.3516 Q216.7188,19.5156 217.2656,19.875 Z " /><text fill="#000000" font-family="sans-serif" font-size="12" lengthAdjust="spacingAndGlyphs" textLength="146" x="228.5" y="28.9102">UpdateOrderStateReadyUI</text>
        <line style="stroke: #A80036; stroke-width: 1.5;" x1="200.5" x2="376.5" y1="40" y2="40" />
        <line style="stroke: #A80036; stroke-width: 1.5;" x1="200.5" x2="376.5" y1="48" y2="48" />
        <ellipse cx="210.5" cy="60.418" fill="#84BE84" rx="3" ry="3" style="stroke: #038048; stroke-width: 1.0;" /><text fill="#000000" font-family="sans-serif" font-size="11" lengthAdjust="spacingAndGlyphs" textLength="49" x="219.5" y="63.4189">doShow()</text>
        <ellipse cx="210.5" cy="74.2539" fill="#84BE84" rx="3" ry="3" style="stroke: #038048; stroke-width: 1.0;" /><text fill="#000000" font-family="sans-serif" font-size="11" lengthAdjust="spacingAndGlyphs" textLength="48" x="219.5" y="77.2549">headline()</text>
        <!--class CTRL-->
        <rect fill="#FEFECE" filter="url(#f2uplqpj4n5je)" height="89.5078" id="CTRL" style="stroke: #A80036; stroke-width: 1.5;" width="220" x="178.5" y="145" />
        <ellipse cx="193.5" cy="161" fill="#ADD1B2" rx="11" ry="11" style="stroke: #A80036; stroke-width: 1.0;" />
        <path d="M196.2656,156.875 Q196.4219,156.6563 196.6094,156.5469 Q196.7969,156.4375 197.0156,156.4375 Q197.3906,156.4375 197.625,156.6953 Q197.8594,156.9531 197.8594,157.5625 L197.8594,159.0156 Q197.8594,159.625 197.625,159.8906 Q197.3906,160.1563 197.0156,160.1563 Q196.6719,160.1563 196.4688,159.9531 Q196.2656,159.7656 196.1563,159.25 Q196.1094,158.8906 195.9219,158.7031 Q195.5938,158.3281 194.9844,158.1094 Q194.375,157.8906 193.75,157.8906 Q192.9844,157.8906 192.3516,158.2188 Q191.7188,158.5469 191.2266,159.2969 Q190.7344,160.0469 190.7344,161.0781 L190.7344,162.1719 Q190.7344,163.4063 191.625,164.2266 Q192.5156,165.0469 194.1094,165.0469 Q195.0469,165.0469 195.7031,164.7969 Q196.0938,164.6406 196.5156,164.2031 Q196.7813,163.9375 196.9297,163.8594 Q197.0781,163.7813 197.2813,163.7813 Q197.6094,163.7813 197.8672,164.0391 Q198.125,164.2969 198.125,164.6406 Q198.125,164.9844 197.7813,165.3906 Q197.2813,165.9688 196.4844,166.2969 Q195.4063,166.75 194.1094,166.75 Q192.5938,166.75 191.3906,166.125 Q190.4063,165.625 189.7188,164.5547 Q189.0313,163.4844 189.0313,162.2031 L189.0313,161.0469 Q189.0313,159.7188 189.6484,158.5703 Q190.2656,157.4219 191.3594,156.8047 Q192.4531,156.1875 193.6875,156.1875 Q194.4219,156.1875 195.0703,156.3516 Q195.7188,156.5156 196.2656,156.875 Z " /><text fill="#000000" font-family="sans-serif" font-size="12" lengthAdjust="spacingAndGlyphs" textLength="188" x="207.5" y="165.9102">UpdateOrderStateReadyController</text>
        <line style="stroke: #A80036; stroke-width: 1.5;" x1="179.5" x2="397.5" y1="177" y2="177" />
        <line style="stroke: #A80036; stroke-width: 1.5;" x1="179.5" x2="397.5" y1="185" y2="185" />
        <ellipse cx="189.5" cy="197.418" fill="#84BE84" rx="3" ry="3" style="stroke: #038048; stroke-width: 1.0;" /><text fill="#000000" font-family="sans-serif" font-size="11" lengthAdjust="spacingAndGlyphs" textLength="111" x="198.5" y="200.4189">getListProductOrders()</text>
        <ellipse cx="189.5" cy="211.2539" fill="#84BE84" rx="3" ry="3" style="stroke: #038048; stroke-width: 1.0;" /><text fill="#000000" font-family="sans-serif" font-size="11" lengthAdjust="spacingAndGlyphs" textLength="159" x="198.5" y="214.2549">updateOrderState(ProductOrder)</text>
        <ellipse cx="189.5" cy="225.0898" fill="#84BE84" rx="3" ry="3" style="stroke: #038048; stroke-width: 1.0;" /><text fill="#000000" font-family="sans-serif" font-size="11" lengthAdjust="spacingAndGlyphs" textLength="97" x="198.5" y="228.0908">save(ProductOrder)</text>
        <!--class OREPO-->
        <rect fill="#FEFECE" filter="url(#f2uplqpj4n5je)" height="75.6719" id="OREPO" style="stroke: #A80036; stroke-width: 1.5;" width="141" x="218" y="635" />
        <ellipse cx="241.55" cy="651" fill="#ADD1B2" rx="11" ry="11" style="stroke: #A80036; stroke-width: 1.0;" />
        <path d="M244.3156,646.875 Q244.4719,646.6563 244.6594,646.5469 Q244.8469,646.4375 245.0656,646.4375 Q245.4406,646.4375 245.675,646.6953 Q245.9094,646.9531 245.9094,647.5625 L245.9094,649.0156 Q245.9094,649.625 245.675,649.8906 Q245.4406,650.1563 245.0656,650.1563 Q244.7219,650.1563 244.5188,649.9531 Q244.3156,649.7656 244.2063,649.25 Q244.1594,648.8906 243.9719,648.7031 Q243.6438,648.3281 243.0344,648.1094 Q242.425,647.8906 241.8,647.8906 Q241.0344,647.8906 240.4016,648.2188 Q239.7688,648.5469 239.2766,649.2969 Q238.7844,650.0469 238.7844,651.0781 L238.7844,652.1719 Q238.7844,653.4063 239.675,654.2266 Q240.5656,655.0469 242.1594,655.0469 Q243.0969,655.0469 243.7531,654.7969 Q244.1438,654.6406 244.5656,654.2031 Q244.8313,653.9375 244.9797,653.8594 Q245.1281,653.7813 245.3313,653.7813 Q245.6594,653.7813 245.9172,654.0391 Q246.175,654.2969 246.175,654.6406 Q246.175,654.9844 245.8313,655.3906 Q245.3313,655.9688 244.5344,656.2969 Q243.4563,656.75 242.1594,656.75 Q240.6438,656.75 239.4406,656.125 Q238.4563,655.625 237.7688,654.5547 Q237.0813,653.4844 237.0813,652.2031 L237.0813,651.0469 Q237.0813,649.7188 237.6984,648.5703 Q238.3156,647.4219 239.4094,646.8047 Q240.5031,646.1875 241.7375,646.1875 Q242.4719,646.1875 243.1203,646.3516 Q243.7688,646.5156 244.3156,646.875 Z " /><text fill="#000000" font-family="sans-serif" font-size="12" lengthAdjust="spacingAndGlyphs" textLength="90" x="257.45" y="655.9102">OrderRepository</text>
        <line style="stroke: #A80036; stroke-width: 1.5;" x1="219" x2="358" y1="667" y2="667" />
        <line style="stroke: #A80036; stroke-width: 1.5;" x1="219" x2="358" y1="675" y2="675" />
        <ellipse cx="229" cy="687.418" fill="#84BE84" rx="3" ry="3" style="stroke: #038048; stroke-width: 1.0;" /><text fill="#000000" font-family="sans-serif" font-size="11" lengthAdjust="spacingAndGlyphs" textLength="115" x="238" y="690.4189">findByState(orderState)</text>
        <ellipse cx="229" cy="701.2539" fill="#84BE84" rx="3" ry="3" style="stroke: #038048; stroke-width: 1.0;" /><text fill="#000000" font-family="sans-serif" font-size="11" lengthAdjust="spacingAndGlyphs" textLength="97" x="238" y="704.2549">save(ProductOrder)</text>
        <!--class ORDER-->
        <rect fill="#FEFECE" filter="url(#f2uplqpj4n5je)" height="61.8359" id="ORDER" style="stroke: #A80036; stroke-width: 1.5;" width="155" x="73" y="789" />
        <ellipse cx="110.5" cy="805" fill="#ADD1B2" rx="11" ry="11" style="stroke: #A80036; stroke-width: 1.0;" />
        <path d="M113.2656,800.875 Q113.4219,800.6563 113.6094,800.5469 Q113.7969,800.4375 114.0156,800.4375 Q114.3906,800.4375 114.625,800.6953 Q114.8594,800.9531 114.8594,801.5625 L114.8594,803.0156 Q114.8594,803.625 114.625,803.8906 Q114.3906,804.1563 114.0156,804.1563 Q113.6719,804.1563 113.4688,803.9531 Q113.2656,803.7656 113.1563,803.25 Q113.1094,802.8906 112.9219,802.7031 Q112.5938,802.3281 111.9844,802.1094 Q111.375,801.8906 110.75,801.8906 Q109.9844,801.8906 109.3516,802.2188 Q108.7188,802.5469 108.2266,803.2969 Q107.7344,804.0469 107.7344,805.0781 L107.7344,806.1719 Q107.7344,807.4063 108.625,808.2266 Q109.5156,809.0469 111.1094,809.0469 Q112.0469,809.0469 112.7031,808.7969 Q113.0938,808.6406 113.5156,808.2031 Q113.7813,807.9375 113.9297,807.8594 Q114.0781,807.7813 114.2813,807.7813 Q114.6094,807.7813 114.8672,808.0391 Q115.125,808.2969 115.125,808.6406 Q115.125,808.9844 114.7813,809.3906 Q114.2813,809.9688 113.4844,810.2969 Q112.4063,810.75 111.1094,810.75 Q109.5938,810.75 108.3906,810.125 Q107.4063,809.625 106.7188,808.5547 Q106.0313,807.4844 106.0313,806.2031 L106.0313,805.0469 Q106.0313,803.7188 106.6484,802.5703 Q107.2656,801.4219 108.3594,800.8047 Q109.4531,800.1875 110.6875,800.1875 Q111.4219,800.1875 112.0703,800.3516 Q112.7188,800.5156 113.2656,800.875 Z " /><text fill="#000000" font-family="sans-serif" font-size="12" lengthAdjust="spacingAndGlyphs" textLength="73" x="129.5" y="809.9102">ProductOrder</text>
        <line style="stroke: #A80036; stroke-width: 1.5;" x1="74" x2="227" y1="821" y2="821" />
        <line style="stroke: #A80036; stroke-width: 1.5;" x1="74" x2="227" y1="829" y2="829" />
        <ellipse cx="84" cy="841.418" fill="#84BE84" rx="3" ry="3" style="stroke: #038048; stroke-width: 1.0;" /><text fill="#000000" font-family="sans-serif" font-size="11" lengthAdjust="spacingAndGlyphs" textLength="129" x="93" y="844.4189">setOrderState(OrderState)</text>
        <!--class STATE-->
        <rect fill="#FEFECE" filter="url(#f2uplqpj4n5je)" height="48" id="STATE" style="stroke: #A80036; stroke-width: 1.5;" width="91" x="6" y="649" />
        <ellipse cx="21" cy="665" fill="#ADD1B2" rx="11" ry="11" style="stroke: #A80036; stroke-width: 1.0;" />
        <path d="M23.7656,660.875 Q23.9219,660.6563 24.1094,660.5469 Q24.2969,660.4375 24.5156,660.4375 Q24.8906,660.4375 25.125,660.6953 Q25.3594,660.9531 25.3594,661.5625 L25.3594,663.0156 Q25.3594,663.625 25.125,663.8906 Q24.8906,664.1563 24.5156,664.1563 Q24.1719,664.1563 23.9688,663.9531 Q23.7656,663.7656 23.6563,663.25 Q23.6094,662.8906 23.4219,662.7031 Q23.0938,662.3281 22.4844,662.1094 Q21.875,661.8906 21.25,661.8906 Q20.4844,661.8906 19.8516,662.2188 Q19.2188,662.5469 18.7266,663.2969 Q18.2344,664.0469 18.2344,665.0781 L18.2344,666.1719 Q18.2344,667.4063 19.125,668.2266 Q20.0156,669.0469 21.6094,669.0469 Q22.5469,669.0469 23.2031,668.7969 Q23.5938,668.6406 24.0156,668.2031 Q24.2813,667.9375 24.4297,667.8594 Q24.5781,667.7813 24.7813,667.7813 Q25.1094,667.7813 25.3672,668.0391 Q25.625,668.2969 25.625,668.6406 Q25.625,668.9844 25.2813,669.3906 Q24.7813,669.9688 23.9844,670.2969 Q22.9063,670.75 21.6094,670.75 Q20.0938,670.75 18.8906,670.125 Q17.9063,669.625 17.2188,668.5547 Q16.5313,667.4844 16.5313,666.2031 L16.5313,665.0469 Q16.5313,663.7188 17.1484,662.5703 Q17.7656,661.4219 18.8594,660.8047 Q19.9531,660.1875 21.1875,660.1875 Q21.9219,660.1875 22.5703,660.3516 Q23.2188,660.5156 23.7656,660.875 Z " /><text fill="#000000" font-family="sans-serif" font-size="12" lengthAdjust="spacingAndGlyphs" textLength="59" x="35" y="669.9102">OrderState</text>
        <line style="stroke: #A80036; stroke-width: 1.5;" x1="7" x2="96" y1="681" y2="681" />
        <line style="stroke: #A80036; stroke-width: 1.5;" x1="7" x2="96" y1="689" y2="689" />
        <!--class PCON-->
        <rect fill="#FEFECE" filter="url(#f2uplqpj4n5je)" height="89.5078" id="PCON" style="stroke: #A80036; stroke-width: 1.5;" width="170" x="203.5" y="313" />
        <ellipse cx="232.45" cy="329" fill="#ADD1B2" rx="11" ry="11" style="stroke: #A80036; stroke-width: 1.0;" />
        <path d="M235.2156,324.875 Q235.3719,324.6563 235.5594,324.5469 Q235.7469,324.4375 235.9656,324.4375 Q236.3406,324.4375 236.575,324.6953 Q236.8094,324.9531 236.8094,325.5625 L236.8094,327.0156 Q236.8094,327.625 236.575,327.8906 Q236.3406,328.1563 235.9656,328.1563 Q235.6219,328.1563 235.4188,327.9531 Q235.2156,327.7656 235.1063,327.25 Q235.0594,326.8906 234.8719,326.7031 Q234.5438,326.3281 233.9344,326.1094 Q233.325,325.8906 232.7,325.8906 Q231.9344,325.8906 231.3016,326.2188 Q230.6688,326.5469 230.1766,327.2969 Q229.6844,328.0469 229.6844,329.0781 L229.6844,330.1719 Q229.6844,331.4063 230.575,332.2266 Q231.4656,333.0469 233.0594,333.0469 Q233.9969,333.0469 234.6531,332.7969 Q235.0438,332.6406 235.4656,332.2031 Q235.7313,331.9375 235.8797,331.8594 Q236.0281,331.7813 236.2313,331.7813 Q236.5594,331.7813 236.8172,332.0391 Q237.075,332.2969 237.075,332.6406 Q237.075,332.9844 236.7313,333.3906 Q236.2313,333.9688 235.4344,334.2969 Q234.3563,334.75 233.0594,334.75 Q231.5438,334.75 230.3406,334.125 Q229.3563,333.625 228.6688,332.5547 Q227.9813,331.4844 227.9813,330.2031 L227.9813,329.0469 Q227.9813,327.7188 228.5984,326.5703 Q229.2156,325.4219 230.3094,324.8047 Q231.4031,324.1875 232.6375,324.1875 Q233.3719,324.1875 234.0203,324.3516 Q234.6688,324.5156 235.2156,324.875 Z " /><text fill="#000000" font-family="sans-serif" font-size="12" lengthAdjust="spacingAndGlyphs" textLength="107" x="249.55" y="333.9102">PersistenceContext</text>
        <line style="stroke: #A80036; stroke-width: 1.5;" x1="204.5" x2="372.5" y1="345" y2="345" />
        <rect fill="none" height="6" style="stroke: #C82930; stroke-width: 1.0;" width="6" x="211.5" y="354.418" /><text fill="#000000" font-family="sans-serif" font-size="11" lengthAdjust="spacingAndGlyphs" textLength="80" x="223.5" y="360.4189">Logger LOGGER</text>
        <rect fill="none" height="6" style="stroke: #C82930; stroke-width: 1.0;" width="6" x="211.5" y="368.2539" /><text fill="#000000" font-family="sans-serif" font-size="11" lengthAdjust="spacingAndGlyphs" textLength="144" x="223.5" y="374.2549">RepositoryFactory theFactory</text>
        <line style="stroke: #A80036; stroke-width: 1.5;" x1="204.5" x2="372.5" y1="380.6719" y2="380.6719" />
        <ellipse cx="214.5" cy="393.0898" fill="#84BE84" rx="3" ry="3" style="stroke: #038048; stroke-width: 1.0;" /><text fill="#000000" font-family="sans-serif" font-size="11" lengthAdjust="spacingAndGlyphs" textLength="65" x="223.5" y="396.0908">repositories()</text>
        <!--class REPOFAC-->
        <rect fill="#FEFECE" filter="url(#f2uplqpj4n5je)" height="75.6719" id="REPOFAC" style="stroke: #A80036; stroke-width: 1.5;" width="130" x="223.5" y="481" />
        <ellipse cx="238.5" cy="497" fill="#ADD1B2" rx="11" ry="11" style="stroke: #A80036; stroke-width: 1.0;" />
        <path d="M241.2656,492.875 Q241.4219,492.6563 241.6094,492.5469 Q241.7969,492.4375 242.0156,492.4375 Q242.3906,492.4375 242.625,492.6953 Q242.8594,492.9531 242.8594,493.5625 L242.8594,495.0156 Q242.8594,495.625 242.625,495.8906 Q242.3906,496.1563 242.0156,496.1563 Q241.6719,496.1563 241.4688,495.9531 Q241.2656,495.7656 241.1563,495.25 Q241.1094,494.8906 240.9219,494.7031 Q240.5938,494.3281 239.9844,494.1094 Q239.375,493.8906 238.75,493.8906 Q237.9844,493.8906 237.3516,494.2188 Q236.7188,494.5469 236.2266,495.2969 Q235.7344,496.0469 235.7344,497.0781 L235.7344,498.1719 Q235.7344,499.4063 236.625,500.2266 Q237.5156,501.0469 239.1094,501.0469 Q240.0469,501.0469 240.7031,500.7969 Q241.0938,500.6406 241.5156,500.2031 Q241.7813,499.9375 241.9297,499.8594 Q242.0781,499.7813 242.2813,499.7813 Q242.6094,499.7813 242.8672,500.0391 Q243.125,500.2969 243.125,500.6406 Q243.125,500.9844 242.7813,501.3906 Q242.2813,501.9688 241.4844,502.2969 Q240.4063,502.75 239.1094,502.75 Q237.5938,502.75 236.3906,502.125 Q235.4063,501.625 234.7188,500.5547 Q234.0313,499.4844 234.0313,498.2031 L234.0313,497.0469 Q234.0313,495.7188 234.6484,494.5703 Q235.2656,493.4219 236.3594,492.8047 Q237.4531,492.1875 238.6875,492.1875 Q239.4219,492.1875 240.0703,492.3516 Q240.7188,492.5156 241.2656,492.875 Z " /><text fill="#000000" font-family="sans-serif" font-size="12" lengthAdjust="spacingAndGlyphs" textLength="98" x="252.5" y="501.9102">RepositoryFactory</text>
        <line style="stroke: #A80036; stroke-width: 1.5;" x1="224.5" x2="352.5" y1="513" y2="513" />
        <line style="stroke: #A80036; stroke-width: 1.5;" x1="224.5" x2="352.5" y1="521" y2="521" />
        <ellipse cx="234.5" cy="533.418" fill="#84BE84" rx="3" ry="3" style="stroke: #038048; stroke-width: 1.0;" /><text fill="#000000" font-family="sans-serif" font-size="11" lengthAdjust="spacingAndGlyphs" textLength="32" x="243.5" y="536.4189">agvs()</text>
        <ellipse cx="234.5" cy="547.2539" fill="#84BE84" rx="3" ry="3" style="stroke: #038048; stroke-width: 1.0;" /><text fill="#000000" font-family="sans-serif" font-size="11" lengthAdjust="spacingAndGlyphs" textLength="40" x="243.5" y="550.2549">orders()</text>
        <!--link UI to CTRL-->
        <path d="M288.5,84.309 C288.5,101.284 288.5,121.604 288.5,139.806 " fill="none" id="UI-CTRL" style="stroke: #A80036; stroke-width: 1.0; stroke-dasharray: 7.0,7.0;" />
        <polygon fill="#A80036" points="288.5,144.879,292.5,135.879,288.5,139.879,284.5,135.879,288.5,144.879" style="stroke: #A80036; stroke-width: 1.0;" />
        <!--link CTRL to OREPO-->
        <path d="M338.941,235.136 C359.413,256.364 380.742,283.582 391.5,313 C428.869,415.19 411.572,455.839 371.5,557 C360.874,583.826 342.584,610.19 325.873,630.894 " fill="none" id="CTRL-OREPO" style="stroke: #A80036; stroke-width: 1.0;" />
        <polygon fill="#A80036" points="322.554,634.958,331.345,630.5174,325.7167,631.0854,325.1487,625.4571,322.554,634.958" style="stroke: #A80036; stroke-width: 1.0;" /><text fill="#000000" font-family="sans-serif" font-size="13" lengthAdjust="spacingAndGlyphs" textLength="39" x="411.5" y="447.4951">adopts</text><text fill="#000000" font-family="sans-serif" font-size="13" lengthAdjust="spacingAndGlyphs" textLength="7" x="321.1874" y="624.0268">1</text>
        <!--link CTRL to ORDER-->
        <path d="M222.733,235.291 C187.19,264.941 150.5,307.53 150.5,357 C150.5,357 150.5,357 150.5,674 C150.5,711.325 150.5,754.0551 150.5,783.4081 " fill="none" id="CTRL-ORDER" style="stroke: #A80036; stroke-width: 1.0;" />
        <polygon fill="#A80036" points="150.5,788.7289,154.5,779.7289,150.5,783.7289,146.5,779.7289,150.5,788.7289" style="stroke: #A80036; stroke-width: 1.0;" /><text fill="#000000" font-family="sans-serif" font-size="13" lengthAdjust="spacingAndGlyphs" textLength="27" x="151.5" y="524.4951">finds</text><text fill="#000000" font-family="sans-serif" font-size="13" lengthAdjust="spacingAndGlyphs" textLength="7" x="142.7781" y="778.1775">1</text>
        <!--link CTRL to PCON-->
        <path d="M288.5,235.049 C288.5,257.374 288.5,284.56 288.5,307.594 " fill="none" id="CTRL-PCON" style="stroke: #A80036; stroke-width: 1.0;" />
        <polygon fill="#A80036" points="288.5,312.745,292.5,303.745,288.5,307.745,284.5,303.745,288.5,312.745" style="stroke: #A80036; stroke-width: 1.0;" /><text fill="#000000" font-family="sans-serif" font-size="13" lengthAdjust="spacingAndGlyphs" textLength="28" x="289.5" y="279.4951">uses</text><text fill="#000000" font-family="sans-serif" font-size="13" lengthAdjust="spacingAndGlyphs" textLength="7" x="281.0078" y="256.0635">1</text><text fill="#000000" font-family="sans-serif" font-size="13" lengthAdjust="spacingAndGlyphs" textLength="7" x="280.9641" y="302.15">1</text>
        <!--link PCON to REPOFAC-->
        <path d="M288.5,403.29 C288.5,425.919 288.5,453.316 288.5,475.66 " fill="none" id="PCON-REPOFAC" style="stroke: #A80036; stroke-width: 1.0;" />
        <polygon fill="#A80036" points="288.5,480.932,292.5,471.932,288.5,475.932,284.5,471.932,288.5,480.932" style="stroke: #A80036; stroke-width: 1.0;" /><text fill="#000000" font-family="sans-serif" font-size="13" lengthAdjust="spacingAndGlyphs" textLength="43" x="289.5" y="447.4951">creates</text><text fill="#000000" font-family="sans-serif" font-size="13" lengthAdjust="spacingAndGlyphs" textLength="7" x="281.0297" y="424.0027">1</text><text fill="#000000" font-family="sans-serif" font-size="13" lengthAdjust="spacingAndGlyphs" textLength="7" x="280.8766" y="470.2818">1</text>
        <!--link REPOFAC to OREPO-->
        <path d="M288.5,557.183 C288.5,579.163 288.5,607.064 288.5,629.858 " fill="none" id="REPOFAC-OREPO" style="stroke: #A80036; stroke-width: 1.0;" />
        <polygon fill="#A80036" points="288.5,634.937,292.5,625.937,288.5,629.937,284.5,625.937,288.5,634.937" style="stroke: #A80036; stroke-width: 1.0;" /><text fill="#000000" font-family="sans-serif" font-size="13" lengthAdjust="spacingAndGlyphs" textLength="36" x="289.5" y="601.4951">stores</text><text fill="#000000" font-family="sans-serif" font-size="13" lengthAdjust="spacingAndGlyphs" textLength="7" x="280.9422" y="578.0927">1</text><text fill="#000000" font-family="sans-serif" font-size="13" lengthAdjust="spacingAndGlyphs" textLength="7" x="280.8547" y="624.0019">1</text>
        <!--link OREPO to ORDER-->
        <path d="M252.962,711.341 C231.371,734.027 204.012,762.7735 182.997,784.8542 " fill="none" id="OREPO-ORDER" style="stroke: #A80036; stroke-width: 1.0;" />
        <polygon fill="#A80036" points="179.416,788.617,188.5184,784.8558,182.8632,784.9953,182.7237,779.3402,179.416,788.617" style="stroke: #A80036; stroke-width: 1.0;" /><text fill="#000000" font-family="sans-serif" font-size="13" lengthAdjust="spacingAndGlyphs" textLength="36" x="225.5" y="755.4951">stores</text><text fill="#000000" font-family="sans-serif" font-size="13" lengthAdjust="spacingAndGlyphs" textLength="7" x="239.7403" y="732.2759">1</text><text fill="#000000" font-family="sans-serif" font-size="13" lengthAdjust="spacingAndGlyphs" textLength="5" x="179.8643" y="778.0425">*</text>
        <!--link STATE to ORDER-->
        <path d="M50.9646,697.344 C51.5926,715.45 54.8304,740.494 66.5,759 C72.8569,769.0809 81.5794,777.9731 91.0094,785.614 " fill="none" id="STATE-ORDER" style="stroke: #A80036; stroke-width: 1.0;" />
        <polygon fill="#A80036" points="95.0894,788.8119,90.4734,780.1117,91.1541,785.7275,85.5384,786.4082,95.0894,788.8119" style="stroke: #A80036; stroke-width: 1.0;" /><text fill="#000000" font-family="sans-serif" font-size="13" lengthAdjust="spacingAndGlyphs" textLength="56" x="67.5" y="755.4951">describes</text><text fill="#000000" font-family="sans-serif" font-size="13" lengthAdjust="spacingAndGlyphs" textLength="7" x="43.0314" y="718.3593">1</text><text fill="#000000" font-family="sans-serif" font-size="13" lengthAdjust="spacingAndGlyphs" textLength="5" x="78.1453" y="778.2776">*</text>
        <!--
@startuml

class "UpdateOrderStateReadyUI" as UI{
  +doShow()
  +headline()
}

class "UpdateOrderStateReadyController" as CTRL {
  +getListProductOrders()
  +updateOrderState(ProductOrder)
  +save(ProductOrder)
}

class "OrderRepository" as OREPO {
  +findByState(orderState)
  +save(ProductOrder)
}

class "ProductOrder" as ORDER {
  +setOrderState(OrderState)
}

class "OrderState" as STATE {

}

class "PersistenceContext" as PCON {
  -Logger LOGGER
  -RepositoryFactory theFactory
  +repositories()
}

class "RepositoryFactory" as REPOFAC {
  +agvs()
  +orders()
}

UI ..> CTRL
CTRL ->"1" OREPO : adopts
CTRL -> "1" ORDER : finds

CTRL "1" - -> "1" PCON : uses
PCON "1" - -> "1" REPOFAC : creates

REPOFAC "1" - -> "1" OREPO : stores

OREPO "1" - -> "*" ORDER : stores

STATE "1" - -> "*" ORDER : describes

@enduml

PlantUML version 1.2018.14(Fri Dec 21 16:33:16 GMT 2018)
(GPL source distribution)
Java Runtime: Java(TM) SE Runtime Environment
JVM: Java HotSpot(TM) 64-Bit Server VM
Java Version: 1.8.0_221-b11
Operating System: Windows 10
OS Version: 10.0
Default Encoding: Cp1252
Language: pt
Country: PT
-->
    </g>
</svg>