<?xml version="1.0" encoding="UTF-8" standalone="no"?><svg xmlns="http://www.w3.org/2000/svg" xmlns:xlink="http://www.w3.org/1999/xlink" contentScriptType="application/ecmascript" contentStyleType="text/css" height="902px" preserveAspectRatio="none" style="width:615px;height:902px;" version="1.1" viewBox="0 0 615 902" width="615px" zoomAndPan="magnify">
    <defs>
        <filter height="300%" id="f17ctc43wnfe7g" width="300%" x="-1" y="-1">
            <feGaussianBlur result="blurOut" stdDeviation="2.0" />
            <feColorMatrix in="blurOut" result="blurOut2" type="matrix" values="0 0 0 0 0 0 0 0 0 0 0 0 0 0 0 0 0 0 .4 0" />
            <feOffset dx="4.0" dy="4.0" in="blurOut2" result="blurOut3" />
            <feBlend in="SourceGraphic" in2="blurOut3" mode="normal" />
        </filter>
    </defs>
    <g>
        <!--class UI-->
        <rect fill="#FEFECE" filter="url(#f17ctc43wnfe7g)" height="75.6719" id="UI" style="stroke: #A80036; stroke-width: 1.5;" width="223" x="180.5" y="8" />
        <ellipse cx="195.5" cy="24" fill="#ADD1B2" rx="11" ry="11" style="stroke: #A80036; stroke-width: 1.0;" />
        <path d="M198.2656,19.875 Q198.4219,19.6563 198.6094,19.5469 Q198.7969,19.4375 199.0156,19.4375 Q199.3906,19.4375 199.625,19.6953 Q199.8594,19.9531 199.8594,20.5625 L199.8594,22.0156 Q199.8594,22.625 199.625,22.8906 Q199.3906,23.1563 199.0156,23.1563 Q198.6719,23.1563 198.4688,22.9531 Q198.2656,22.7656 198.1563,22.25 Q198.1094,21.8906 197.9219,21.7031 Q197.5938,21.3281 196.9844,21.1094 Q196.375,20.8906 195.75,20.8906 Q194.9844,20.8906 194.3516,21.2188 Q193.7188,21.5469 193.2266,22.2969 Q192.7344,23.0469 192.7344,24.0781 L192.7344,25.1719 Q192.7344,26.4063 193.625,27.2266 Q194.5156,28.0469 196.1094,28.0469 Q197.0469,28.0469 197.7031,27.7969 Q198.0938,27.6406 198.5156,27.2031 Q198.7813,26.9375 198.9297,26.8594 Q199.0781,26.7813 199.2813,26.7813 Q199.6094,26.7813 199.8672,27.0391 Q200.125,27.2969 200.125,27.6406 Q200.125,27.9844 199.7813,28.3906 Q199.2813,28.9688 198.4844,29.2969 Q197.4063,29.75 196.1094,29.75 Q194.5938,29.75 193.3906,29.125 Q192.4063,28.625 191.7188,27.5547 Q191.0313,26.4844 191.0313,25.2031 L191.0313,24.0469 Q191.0313,22.7188 191.6484,21.5703 Q192.2656,20.4219 193.3594,19.8047 Q194.4531,19.1875 195.6875,19.1875 Q196.4219,19.1875 197.0703,19.3516 Q197.7188,19.5156 198.2656,19.875 Z " /><text fill="#000000" font-family="sans-serif" font-size="12" lengthAdjust="spacingAndGlyphs" textLength="191" x="209.5" y="28.9102">UpdateOrderStateToBePreparedUI</text>
        <line style="stroke: #A80036; stroke-width: 1.5;" x1="181.5" x2="402.5" y1="40" y2="40" />
        <line style="stroke: #A80036; stroke-width: 1.5;" x1="181.5" x2="402.5" y1="48" y2="48" />
        <ellipse cx="191.5" cy="60.418" fill="#84BE84" rx="3" ry="3" style="stroke: #038048; stroke-width: 1.0;" /><text fill="#000000" font-family="sans-serif" font-size="11" lengthAdjust="spacingAndGlyphs" textLength="49" x="200.5" y="63.4189">doShow()</text>
        <ellipse cx="191.5" cy="74.2539" fill="#84BE84" rx="3" ry="3" style="stroke: #038048; stroke-width: 1.0;" /><text fill="#000000" font-family="sans-serif" font-size="11" lengthAdjust="spacingAndGlyphs" textLength="48" x="200.5" y="77.2549">headline()</text>
        <!--class CTRL-->
        <rect fill="#FEFECE" filter="url(#f17ctc43wnfe7g)" height="131.0156" id="CTRL" style="stroke: #A80036; stroke-width: 1.5;" width="265" x="159.5" y="145" />
        <ellipse cx="174.5" cy="161" fill="#ADD1B2" rx="11" ry="11" style="stroke: #A80036; stroke-width: 1.0;" />
        <path d="M177.2656,156.875 Q177.4219,156.6563 177.6094,156.5469 Q177.7969,156.4375 178.0156,156.4375 Q178.3906,156.4375 178.625,156.6953 Q178.8594,156.9531 178.8594,157.5625 L178.8594,159.0156 Q178.8594,159.625 178.625,159.8906 Q178.3906,160.1563 178.0156,160.1563 Q177.6719,160.1563 177.4688,159.9531 Q177.2656,159.7656 177.1563,159.25 Q177.1094,158.8906 176.9219,158.7031 Q176.5938,158.3281 175.9844,158.1094 Q175.375,157.8906 174.75,157.8906 Q173.9844,157.8906 173.3516,158.2188 Q172.7188,158.5469 172.2266,159.2969 Q171.7344,160.0469 171.7344,161.0781 L171.7344,162.1719 Q171.7344,163.4063 172.625,164.2266 Q173.5156,165.0469 175.1094,165.0469 Q176.0469,165.0469 176.7031,164.7969 Q177.0938,164.6406 177.5156,164.2031 Q177.7813,163.9375 177.9297,163.8594 Q178.0781,163.7813 178.2813,163.7813 Q178.6094,163.7813 178.8672,164.0391 Q179.125,164.2969 179.125,164.6406 Q179.125,164.9844 178.7813,165.3906 Q178.2813,165.9688 177.4844,166.2969 Q176.4063,166.75 175.1094,166.75 Q173.5938,166.75 172.3906,166.125 Q171.4063,165.625 170.7188,164.5547 Q170.0313,163.4844 170.0313,162.2031 L170.0313,161.0469 Q170.0313,159.7188 170.6484,158.5703 Q171.2656,157.4219 172.3594,156.8047 Q173.4531,156.1875 174.6875,156.1875 Q175.4219,156.1875 176.0703,156.3516 Q176.7188,156.5156 177.2656,156.875 Z " /><text fill="#000000" font-family="sans-serif" font-size="12" lengthAdjust="spacingAndGlyphs" textLength="233" x="188.5" y="165.9102">UpdateOrderStateToBePreparedController</text>
        <line style="stroke: #A80036; stroke-width: 1.5;" x1="160.5" x2="423.5" y1="177" y2="177" />
        <line style="stroke: #A80036; stroke-width: 1.5;" x1="160.5" x2="423.5" y1="185" y2="185" />
        <ellipse cx="170.5" cy="197.418" fill="#84BE84" rx="3" ry="3" style="stroke: #038048; stroke-width: 1.0;" /><text fill="#000000" font-family="sans-serif" font-size="11" lengthAdjust="spacingAndGlyphs" textLength="111" x="179.5" y="200.4189">getListProductOrders()</text>
        <ellipse cx="170.5" cy="211.2539" fill="#84BE84" rx="3" ry="3" style="stroke: #038048; stroke-width: 1.0;" /><text fill="#000000" font-family="sans-serif" font-size="11" lengthAdjust="spacingAndGlyphs" textLength="64" x="179.5" y="214.2549">getListAGV()</text>
        <ellipse cx="170.5" cy="225.0898" fill="#84BE84" rx="3" ry="3" style="stroke: #038048; stroke-width: 1.0;" /><text fill="#000000" font-family="sans-serif" font-size="11" lengthAdjust="spacingAndGlyphs" textLength="159" x="179.5" y="228.0908">updateOrderState(ProductOrder)</text>
        <ellipse cx="170.5" cy="238.9258" fill="#84BE84" rx="3" ry="3" style="stroke: #038048; stroke-width: 1.0;" /><text fill="#000000" font-family="sans-serif" font-size="11" lengthAdjust="spacingAndGlyphs" textLength="97" x="179.5" y="241.9268">save(ProductOrder)</text>
        <ellipse cx="170.5" cy="252.7617" fill="#84BE84" rx="3" ry="3" style="stroke: #038048; stroke-width: 1.0;" /><text fill="#000000" font-family="sans-serif" font-size="11" lengthAdjust="spacingAndGlyphs" textLength="56" x="179.5" y="255.7627">save(AGV)</text>
        <ellipse cx="170.5" cy="266.5977" fill="#84BE84" rx="3" ry="3" style="stroke: #038048; stroke-width: 1.0;" /><text fill="#000000" font-family="sans-serif" font-size="11" lengthAdjust="spacingAndGlyphs" textLength="200" x="179.5" y="269.5986">assignProductOrder(ProductOrder, AGV)</text>
        <!--class OREPO-->
        <rect fill="#FEFECE" filter="url(#f17ctc43wnfe7g)" height="75.6719" id="OREPO" style="stroke: #A80036; stroke-width: 1.5;" width="141" x="185.5" y="676" />
        <ellipse cx="209.05" cy="692" fill="#ADD1B2" rx="11" ry="11" style="stroke: #A80036; stroke-width: 1.0;" />
        <path d="M211.8156,687.875 Q211.9719,687.6563 212.1594,687.5469 Q212.3469,687.4375 212.5656,687.4375 Q212.9406,687.4375 213.175,687.6953 Q213.4094,687.9531 213.4094,688.5625 L213.4094,690.0156 Q213.4094,690.625 213.175,690.8906 Q212.9406,691.1563 212.5656,691.1563 Q212.2219,691.1563 212.0188,690.9531 Q211.8156,690.7656 211.7063,690.25 Q211.6594,689.8906 211.4719,689.7031 Q211.1438,689.3281 210.5344,689.1094 Q209.925,688.8906 209.3,688.8906 Q208.5344,688.8906 207.9016,689.2188 Q207.2688,689.5469 206.7766,690.2969 Q206.2844,691.0469 206.2844,692.0781 L206.2844,693.1719 Q206.2844,694.4063 207.175,695.2266 Q208.0656,696.0469 209.6594,696.0469 Q210.5969,696.0469 211.2531,695.7969 Q211.6438,695.6406 212.0656,695.2031 Q212.3313,694.9375 212.4797,694.8594 Q212.6281,694.7813 212.8313,694.7813 Q213.1594,694.7813 213.4172,695.0391 Q213.675,695.2969 213.675,695.6406 Q213.675,695.9844 213.3313,696.3906 Q212.8313,696.9688 212.0344,697.2969 Q210.9563,697.75 209.6594,697.75 Q208.1438,697.75 206.9406,697.125 Q205.9563,696.625 205.2688,695.5547 Q204.5813,694.4844 204.5813,693.2031 L204.5813,692.0469 Q204.5813,690.7188 205.1984,689.5703 Q205.8156,688.4219 206.9094,687.8047 Q208.0031,687.1875 209.2375,687.1875 Q209.9719,687.1875 210.6203,687.3516 Q211.2688,687.5156 211.8156,687.875 Z " /><text fill="#000000" font-family="sans-serif" font-size="12" lengthAdjust="spacingAndGlyphs" textLength="90" x="224.95" y="696.9102">OrderRepository</text>
        <line style="stroke: #A80036; stroke-width: 1.5;" x1="186.5" x2="325.5" y1="708" y2="708" />
        <line style="stroke: #A80036; stroke-width: 1.5;" x1="186.5" x2="325.5" y1="716" y2="716" />
        <ellipse cx="196.5" cy="728.418" fill="#84BE84" rx="3" ry="3" style="stroke: #038048; stroke-width: 1.0;" /><text fill="#000000" font-family="sans-serif" font-size="11" lengthAdjust="spacingAndGlyphs" textLength="115" x="205.5" y="731.4189">findByState(orderState)</text>
        <ellipse cx="196.5" cy="742.2539" fill="#84BE84" rx="3" ry="3" style="stroke: #038048; stroke-width: 1.0;" /><text fill="#000000" font-family="sans-serif" font-size="11" lengthAdjust="spacingAndGlyphs" textLength="97" x="205.5" y="745.2549">save(ProductOrder)</text>
        <!--class AREPO-->
        <rect fill="#FEFECE" filter="url(#f17ctc43wnfe7g)" height="61.8359" id="AREPO" style="stroke: #A80036; stroke-width: 1.5;" width="114" x="362" y="683" />
        <ellipse cx="377" cy="699" fill="#ADD1B2" rx="11" ry="11" style="stroke: #A80036; stroke-width: 1.0;" />
        <path d="M379.7656,694.875 Q379.9219,694.6563 380.1094,694.5469 Q380.2969,694.4375 380.5156,694.4375 Q380.8906,694.4375 381.125,694.6953 Q381.3594,694.9531 381.3594,695.5625 L381.3594,697.0156 Q381.3594,697.625 381.125,697.8906 Q380.8906,698.1563 380.5156,698.1563 Q380.1719,698.1563 379.9688,697.9531 Q379.7656,697.7656 379.6563,697.25 Q379.6094,696.8906 379.4219,696.7031 Q379.0938,696.3281 378.4844,696.1094 Q377.875,695.8906 377.25,695.8906 Q376.4844,695.8906 375.8516,696.2188 Q375.2188,696.5469 374.7266,697.2969 Q374.2344,698.0469 374.2344,699.0781 L374.2344,700.1719 Q374.2344,701.4063 375.125,702.2266 Q376.0156,703.0469 377.6094,703.0469 Q378.5469,703.0469 379.2031,702.7969 Q379.5938,702.6406 380.0156,702.2031 Q380.2813,701.9375 380.4297,701.8594 Q380.5781,701.7813 380.7813,701.7813 Q381.1094,701.7813 381.3672,702.0391 Q381.625,702.2969 381.625,702.6406 Q381.625,702.9844 381.2813,703.3906 Q380.7813,703.9688 379.9844,704.2969 Q378.9063,704.75 377.6094,704.75 Q376.0938,704.75 374.8906,704.125 Q373.9063,703.625 373.2188,702.5547 Q372.5313,701.4844 372.5313,700.2031 L372.5313,699.0469 Q372.5313,697.7188 373.1484,696.5703 Q373.7656,695.4219 374.8594,694.8047 Q375.9531,694.1875 377.1875,694.1875 Q377.9219,694.1875 378.5703,694.3516 Q379.2188,694.5156 379.7656,694.875 Z " /><text fill="#000000" font-family="sans-serif" font-size="12" lengthAdjust="spacingAndGlyphs" textLength="82" x="391" y="703.9102">AGVRepository</text>
        <line style="stroke: #A80036; stroke-width: 1.5;" x1="363" x2="475" y1="715" y2="715" />
        <line style="stroke: #A80036; stroke-width: 1.5;" x1="363" x2="475" y1="723" y2="723" />
        <ellipse cx="373" cy="735.418" fill="#84BE84" rx="3" ry="3" style="stroke: #038048; stroke-width: 1.0;" /><text fill="#000000" font-family="sans-serif" font-size="11" lengthAdjust="spacingAndGlyphs" textLength="38" x="382" y="738.4189">findAll()</text>
        <!--class ORDER-->
        <rect fill="#FEFECE" filter="url(#f17ctc43wnfe7g)" height="61.8359" id="ORDER" style="stroke: #A80036; stroke-width: 1.5;" width="155" x="27.5" y="830" />
        <ellipse cx="65" cy="846" fill="#ADD1B2" rx="11" ry="11" style="stroke: #A80036; stroke-width: 1.0;" />
        <path d="M67.7656,841.875 Q67.9219,841.6563 68.1094,841.5469 Q68.2969,841.4375 68.5156,841.4375 Q68.8906,841.4375 69.125,841.6953 Q69.3594,841.9531 69.3594,842.5625 L69.3594,844.0156 Q69.3594,844.625 69.125,844.8906 Q68.8906,845.1563 68.5156,845.1563 Q68.1719,845.1563 67.9688,844.9531 Q67.7656,844.7656 67.6563,844.25 Q67.6094,843.8906 67.4219,843.7031 Q67.0938,843.3281 66.4844,843.1094 Q65.875,842.8906 65.25,842.8906 Q64.4844,842.8906 63.8516,843.2188 Q63.2188,843.5469 62.7266,844.2969 Q62.2344,845.0469 62.2344,846.0781 L62.2344,847.1719 Q62.2344,848.4063 63.125,849.2266 Q64.0156,850.0469 65.6094,850.0469 Q66.5469,850.0469 67.2031,849.7969 Q67.5938,849.6406 68.0156,849.2031 Q68.2813,848.9375 68.4297,848.8594 Q68.5781,848.7813 68.7813,848.7813 Q69.1094,848.7813 69.3672,849.0391 Q69.625,849.2969 69.625,849.6406 Q69.625,849.9844 69.2813,850.3906 Q68.7813,850.9688 67.9844,851.2969 Q66.9063,851.75 65.6094,851.75 Q64.0938,851.75 62.8906,851.125 Q61.9063,850.625 61.2188,849.5547 Q60.5313,848.4844 60.5313,847.2031 L60.5313,846.0469 Q60.5313,844.7188 61.1484,843.5703 Q61.7656,842.4219 62.8594,841.8047 Q63.9531,841.1875 65.1875,841.1875 Q65.9219,841.1875 66.5703,841.3516 Q67.2188,841.5156 67.7656,841.875 Z " /><text fill="#000000" font-family="sans-serif" font-size="12" lengthAdjust="spacingAndGlyphs" textLength="73" x="84" y="850.9102">ProductOrder</text>
        <line style="stroke: #A80036; stroke-width: 1.5;" x1="28.5" x2="181.5" y1="862" y2="862" />
        <line style="stroke: #A80036; stroke-width: 1.5;" x1="28.5" x2="181.5" y1="870" y2="870" />
        <ellipse cx="38.5" cy="882.418" fill="#84BE84" rx="3" ry="3" style="stroke: #038048; stroke-width: 1.0;" /><text fill="#000000" font-family="sans-serif" font-size="11" lengthAdjust="spacingAndGlyphs" textLength="129" x="47.5" y="885.4189">setOrderState(OrderState)</text>
        <!--class AGV-->
        <rect fill="#FEFECE" filter="url(#f17ctc43wnfe7g)" height="61.8359" id="AGV" style="stroke: #A80036; stroke-width: 1.5;" width="236" x="368" y="830" />
        <ellipse cx="470.25" cy="846" fill="#ADD1B2" rx="11" ry="11" style="stroke: #A80036; stroke-width: 1.0;" />
        <path d="M473.0156,841.875 Q473.1719,841.6563 473.3594,841.5469 Q473.5469,841.4375 473.7656,841.4375 Q474.1406,841.4375 474.375,841.6953 Q474.6094,841.9531 474.6094,842.5625 L474.6094,844.0156 Q474.6094,844.625 474.375,844.8906 Q474.1406,845.1563 473.7656,845.1563 Q473.4219,845.1563 473.2188,844.9531 Q473.0156,844.7656 472.9063,844.25 Q472.8594,843.8906 472.6719,843.7031 Q472.3438,843.3281 471.7344,843.1094 Q471.125,842.8906 470.5,842.8906 Q469.7344,842.8906 469.1016,843.2188 Q468.4688,843.5469 467.9766,844.2969 Q467.4844,845.0469 467.4844,846.0781 L467.4844,847.1719 Q467.4844,848.4063 468.375,849.2266 Q469.2656,850.0469 470.8594,850.0469 Q471.7969,850.0469 472.4531,849.7969 Q472.8438,849.6406 473.2656,849.2031 Q473.5313,848.9375 473.6797,848.8594 Q473.8281,848.7813 474.0313,848.7813 Q474.3594,848.7813 474.6172,849.0391 Q474.875,849.2969 474.875,849.6406 Q474.875,849.9844 474.5313,850.3906 Q474.0313,850.9688 473.2344,851.2969 Q472.1563,851.75 470.8594,851.75 Q469.3438,851.75 468.1406,851.125 Q467.1563,850.625 466.4688,849.5547 Q465.7813,848.4844 465.7813,847.2031 L465.7813,846.0469 Q465.7813,844.7188 466.3984,843.5703 Q467.0156,842.4219 468.1094,841.8047 Q469.2031,841.1875 470.4375,841.1875 Q471.1719,841.1875 471.8203,841.3516 Q472.4688,841.5156 473.0156,841.875 Z " /><text fill="#000000" font-family="sans-serif" font-size="12" lengthAdjust="spacingAndGlyphs" textLength="23" x="490.75" y="850.9102">AGV</text>
        <line style="stroke: #A80036; stroke-width: 1.5;" x1="369" x2="603" y1="862" y2="862" />
        <line style="stroke: #A80036; stroke-width: 1.5;" x1="369" x2="603" y1="870" y2="870" />
        <ellipse cx="379" cy="882.418" fill="#84BE84" rx="3" ry="3" style="stroke: #038048; stroke-width: 1.0;" /><text fill="#000000" font-family="sans-serif" font-size="11" lengthAdjust="spacingAndGlyphs" textLength="210" x="388" y="885.4189">addProductOrderWithPriority(ProductOrder)</text>
        <!--class STATE-->
        <rect fill="#FEFECE" filter="url(#f17ctc43wnfe7g)" height="48" id="STATE" style="stroke: #A80036; stroke-width: 1.5;" width="91" x="59.5" y="690" />
        <ellipse cx="74.5" cy="706" fill="#ADD1B2" rx="11" ry="11" style="stroke: #A80036; stroke-width: 1.0;" />
        <path d="M77.2656,701.875 Q77.4219,701.6563 77.6094,701.5469 Q77.7969,701.4375 78.0156,701.4375 Q78.3906,701.4375 78.625,701.6953 Q78.8594,701.9531 78.8594,702.5625 L78.8594,704.0156 Q78.8594,704.625 78.625,704.8906 Q78.3906,705.1563 78.0156,705.1563 Q77.6719,705.1563 77.4688,704.9531 Q77.2656,704.7656 77.1563,704.25 Q77.1094,703.8906 76.9219,703.7031 Q76.5938,703.3281 75.9844,703.1094 Q75.375,702.8906 74.75,702.8906 Q73.9844,702.8906 73.3516,703.2188 Q72.7188,703.5469 72.2266,704.2969 Q71.7344,705.0469 71.7344,706.0781 L71.7344,707.1719 Q71.7344,708.4063 72.625,709.2266 Q73.5156,710.0469 75.1094,710.0469 Q76.0469,710.0469 76.7031,709.7969 Q77.0938,709.6406 77.5156,709.2031 Q77.7813,708.9375 77.9297,708.8594 Q78.0781,708.7813 78.2813,708.7813 Q78.6094,708.7813 78.8672,709.0391 Q79.125,709.2969 79.125,709.6406 Q79.125,709.9844 78.7813,710.3906 Q78.2813,710.9688 77.4844,711.2969 Q76.4063,711.75 75.1094,711.75 Q73.5938,711.75 72.3906,711.125 Q71.4063,710.625 70.7188,709.5547 Q70.0313,708.4844 70.0313,707.2031 L70.0313,706.0469 Q70.0313,704.7188 70.6484,703.5703 Q71.2656,702.4219 72.3594,701.8047 Q73.4531,701.1875 74.6875,701.1875 Q75.4219,701.1875 76.0703,701.3516 Q76.7188,701.5156 77.2656,701.875 Z " /><text fill="#000000" font-family="sans-serif" font-size="12" lengthAdjust="spacingAndGlyphs" textLength="59" x="88.5" y="710.9102">OrderState</text>
        <line style="stroke: #A80036; stroke-width: 1.5;" x1="60.5" x2="149.5" y1="722" y2="722" />
        <line style="stroke: #A80036; stroke-width: 1.5;" x1="60.5" x2="149.5" y1="730" y2="730" />
        <!--class PCON-->
        <rect fill="#FEFECE" filter="url(#f17ctc43wnfe7g)" height="89.5078" id="PCON" style="stroke: #A80036; stroke-width: 1.5;" width="170" x="207" y="354" />
        <ellipse cx="235.95" cy="370" fill="#ADD1B2" rx="11" ry="11" style="stroke: #A80036; stroke-width: 1.0;" />
        <path d="M238.7156,365.875 Q238.8719,365.6563 239.0594,365.5469 Q239.2469,365.4375 239.4656,365.4375 Q239.8406,365.4375 240.075,365.6953 Q240.3094,365.9531 240.3094,366.5625 L240.3094,368.0156 Q240.3094,368.625 240.075,368.8906 Q239.8406,369.1563 239.4656,369.1563 Q239.1219,369.1563 238.9188,368.9531 Q238.7156,368.7656 238.6063,368.25 Q238.5594,367.8906 238.3719,367.7031 Q238.0438,367.3281 237.4344,367.1094 Q236.825,366.8906 236.2,366.8906 Q235.4344,366.8906 234.8016,367.2188 Q234.1688,367.5469 233.6766,368.2969 Q233.1844,369.0469 233.1844,370.0781 L233.1844,371.1719 Q233.1844,372.4063 234.075,373.2266 Q234.9656,374.0469 236.5594,374.0469 Q237.4969,374.0469 238.1531,373.7969 Q238.5438,373.6406 238.9656,373.2031 Q239.2313,372.9375 239.3797,372.8594 Q239.5281,372.7813 239.7313,372.7813 Q240.0594,372.7813 240.3172,373.0391 Q240.575,373.2969 240.575,373.6406 Q240.575,373.9844 240.2313,374.3906 Q239.7313,374.9688 238.9344,375.2969 Q237.8563,375.75 236.5594,375.75 Q235.0438,375.75 233.8406,375.125 Q232.8563,374.625 232.1688,373.5547 Q231.4813,372.4844 231.4813,371.2031 L231.4813,370.0469 Q231.4813,368.7188 232.0984,367.5703 Q232.7156,366.4219 233.8094,365.8047 Q234.9031,365.1875 236.1375,365.1875 Q236.8719,365.1875 237.5203,365.3516 Q238.1688,365.5156 238.7156,365.875 Z " /><text fill="#000000" font-family="sans-serif" font-size="12" lengthAdjust="spacingAndGlyphs" textLength="107" x="253.05" y="374.9102">PersistenceContext</text>
        <line style="stroke: #A80036; stroke-width: 1.5;" x1="208" x2="376" y1="386" y2="386" />
        <rect fill="none" height="6" style="stroke: #C82930; stroke-width: 1.0;" width="6" x="215" y="395.418" /><text fill="#000000" font-family="sans-serif" font-size="11" lengthAdjust="spacingAndGlyphs" textLength="80" x="227" y="401.4189">Logger LOGGER</text>
        <rect fill="none" height="6" style="stroke: #C82930; stroke-width: 1.0;" width="6" x="215" y="409.2539" /><text fill="#000000" font-family="sans-serif" font-size="11" lengthAdjust="spacingAndGlyphs" textLength="144" x="227" y="415.2549">RepositoryFactory theFactory</text>
        <line style="stroke: #A80036; stroke-width: 1.5;" x1="208" x2="376" y1="421.6719" y2="421.6719" />
        <ellipse cx="218" cy="434.0898" fill="#84BE84" rx="3" ry="3" style="stroke: #038048; stroke-width: 1.0;" /><text fill="#000000" font-family="sans-serif" font-size="11" lengthAdjust="spacingAndGlyphs" textLength="65" x="227" y="437.0908">repositories()</text>
        <!--class REPOFAC-->
        <rect fill="#FEFECE" filter="url(#f17ctc43wnfe7g)" height="75.6719" id="REPOFAC" style="stroke: #A80036; stroke-width: 1.5;" width="130" x="227" y="522" />
        <ellipse cx="242" cy="538" fill="#ADD1B2" rx="11" ry="11" style="stroke: #A80036; stroke-width: 1.0;" />
        <path d="M244.7656,533.875 Q244.9219,533.6563 245.1094,533.5469 Q245.2969,533.4375 245.5156,533.4375 Q245.8906,533.4375 246.125,533.6953 Q246.3594,533.9531 246.3594,534.5625 L246.3594,536.0156 Q246.3594,536.625 246.125,536.8906 Q245.8906,537.1563 245.5156,537.1563 Q245.1719,537.1563 244.9688,536.9531 Q244.7656,536.7656 244.6563,536.25 Q244.6094,535.8906 244.4219,535.7031 Q244.0938,535.3281 243.4844,535.1094 Q242.875,534.8906 242.25,534.8906 Q241.4844,534.8906 240.8516,535.2188 Q240.2188,535.5469 239.7266,536.2969 Q239.2344,537.0469 239.2344,538.0781 L239.2344,539.1719 Q239.2344,540.4063 240.125,541.2266 Q241.0156,542.0469 242.6094,542.0469 Q243.5469,542.0469 244.2031,541.7969 Q244.5938,541.6406 245.0156,541.2031 Q245.2813,540.9375 245.4297,540.8594 Q245.5781,540.7813 245.7813,540.7813 Q246.1094,540.7813 246.3672,541.0391 Q246.625,541.2969 246.625,541.6406 Q246.625,541.9844 246.2813,542.3906 Q245.7813,542.9688 244.9844,543.2969 Q243.9063,543.75 242.6094,543.75 Q241.0938,543.75 239.8906,543.125 Q238.9063,542.625 238.2188,541.5547 Q237.5313,540.4844 237.5313,539.2031 L237.5313,538.0469 Q237.5313,536.7188 238.1484,535.5703 Q238.7656,534.4219 239.8594,533.8047 Q240.9531,533.1875 242.1875,533.1875 Q242.9219,533.1875 243.5703,533.3516 Q244.2188,533.5156 244.7656,533.875 Z " /><text fill="#000000" font-family="sans-serif" font-size="12" lengthAdjust="spacingAndGlyphs" textLength="98" x="256" y="542.9102">RepositoryFactory</text>
        <line style="stroke: #A80036; stroke-width: 1.5;" x1="228" x2="356" y1="554" y2="554" />
        <line style="stroke: #A80036; stroke-width: 1.5;" x1="228" x2="356" y1="562" y2="562" />
        <ellipse cx="238" cy="574.418" fill="#84BE84" rx="3" ry="3" style="stroke: #038048; stroke-width: 1.0;" /><text fill="#000000" font-family="sans-serif" font-size="11" lengthAdjust="spacingAndGlyphs" textLength="32" x="247" y="577.4189">agvs()</text>
        <ellipse cx="238" cy="588.2539" fill="#84BE84" rx="3" ry="3" style="stroke: #038048; stroke-width: 1.0;" /><text fill="#000000" font-family="sans-serif" font-size="11" lengthAdjust="spacingAndGlyphs" textLength="40" x="247" y="591.2549">orders()</text>
        <!--link UI to CTRL-->
        <path d="M292,84.281 C292,100.726 292,120.609 292,139.642 " fill="none" id="UI-CTRL" style="stroke: #A80036; stroke-width: 1.0; stroke-dasharray: 7.0,7.0;" />
        <polygon fill="#A80036" points="292,144.984,296,135.984,292,139.984,288,135.984,292,144.984" style="stroke: #A80036; stroke-width: 1.0;" />
        <!--link CTRL to OREPO-->
        <path d="M232.162,276.239 C214.761,299.109 198.021,326.119 189,354 C152.927,465.486 203.858,603.107 234.972,671.023 " fill="none" id="CTRL-OREPO" style="stroke: #A80036; stroke-width: 1.0;" />
        <polygon fill="#A80036" points="237.176,675.791,237.0294,665.9432,235.0775,671.2527,229.7681,669.3008,237.176,675.791" style="stroke: #A80036; stroke-width: 1.0;" /><text fill="#000000" font-family="sans-serif" font-size="13" lengthAdjust="spacingAndGlyphs" textLength="39" x="181" y="488.4951">adopts</text><text fill="#000000" font-family="sans-serif" font-size="13" lengthAdjust="spacingAndGlyphs" textLength="7" x="226.1995" y="665.1157">1</text>
        <!--link CTRL to AREPO-->
        <path d="M349.871,276.349 C367.12,299.328 384.06,326.374 394,354 C434.509,466.585 428.4,611.632 422.752,677.566 " fill="none" id="CTRL-AREPO" style="stroke: #A80036; stroke-width: 1.0;" />
        <polygon fill="#A80036" points="422.312,682.556,427.0861,673.9416,422.7506,677.5753,419.117,673.2398,422.312,682.556" style="stroke: #A80036; stroke-width: 1.0;" /><text fill="#000000" font-family="sans-serif" font-size="13" lengthAdjust="spacingAndGlyphs" textLength="39" x="424" y="488.4951">adopts</text><text fill="#000000" font-family="sans-serif" font-size="13" lengthAdjust="spacingAndGlyphs" textLength="7" x="415.2732" y="671.969">1</text>
        <!--link CTRL to ORDER-->
        <path d="M159.465,243.927 C84.6529,271.017 6,318.421 6,398 C6,398 6,398 6,715 C6,758.903 37.3387,799.3042 64.7519,826.246 " fill="none" id="CTRL-ORDER" style="stroke: #A80036; stroke-width: 1.0;" />
        <polygon fill="#A80036" points="68.4173,829.7926,64.7309,820.6597,64.824,826.3158,59.1679,826.4089,68.4173,829.7926" style="stroke: #A80036; stroke-width: 1.0;" /><text fill="#000000" font-family="sans-serif" font-size="13" lengthAdjust="spacingAndGlyphs" textLength="27" x="7" y="565.4951">finds</text><text fill="#000000" font-family="sans-serif" font-size="13" lengthAdjust="spacingAndGlyphs" textLength="7" x="53.1502" y="819.2544">1</text>
        <!--link CTRL to AGV-->
        <path d="M424.703,261.987 C478.859,291.955 529,336.349 529,398 C529,398 529,398 529,715 C529,753.845 514.64,796.2183 502.516,825.0687 " fill="none" id="CTRL-AGV" style="stroke: #A80036; stroke-width: 1.0;" />
        <polygon fill="#A80036" points="500.438,829.9368,507.6506,823.2302,502.4012,825.3384,500.2931,820.089,500.438,829.9368" style="stroke: #A80036; stroke-width: 1.0;" /><text fill="#000000" font-family="sans-serif" font-size="13" lengthAdjust="spacingAndGlyphs" textLength="27" x="530" y="565.4951">finds</text><text fill="#000000" font-family="sans-serif" font-size="13" lengthAdjust="spacingAndGlyphs" textLength="7" x="495.8307" y="818.9432">1</text>
        <!--link CTRL to PCON-->
        <path d="M292,276.205 C292,299.97 292,326.473 292,348.672 " fill="none" id="CTRL-PCON" style="stroke: #A80036; stroke-width: 1.0;" />
        <polygon fill="#A80036" points="292,353.924,296,344.924,292,348.924,288,344.924,292,353.924" style="stroke: #A80036; stroke-width: 1.0;" /><text fill="#000000" font-family="sans-serif" font-size="13" lengthAdjust="spacingAndGlyphs" textLength="28" x="293" y="320.4951">uses</text><text fill="#000000" font-family="sans-serif" font-size="13" lengthAdjust="spacingAndGlyphs" textLength="7" x="284.6391" y="297.3183">1</text><text fill="#000000" font-family="sans-serif" font-size="13" lengthAdjust="spacingAndGlyphs" textLength="7" x="284.4422" y="343.0274">1</text>
        <!--link PCON to REPOFAC-->
        <path d="M292,444.29 C292,466.919 292,494.316 292,516.66 " fill="none" id="PCON-REPOFAC" style="stroke: #A80036; stroke-width: 1.0;" />
        <polygon fill="#A80036" points="292,521.932,296,512.932,292,516.932,288,512.932,292,521.932" style="stroke: #A80036; stroke-width: 1.0;" /><text fill="#000000" font-family="sans-serif" font-size="13" lengthAdjust="spacingAndGlyphs" textLength="43" x="293" y="488.4951">creates</text><text fill="#000000" font-family="sans-serif" font-size="13" lengthAdjust="spacingAndGlyphs" textLength="7" x="284.5297" y="465.0027">1</text><text fill="#000000" font-family="sans-serif" font-size="13" lengthAdjust="spacingAndGlyphs" textLength="7" x="284.3766" y="511.2818">1</text>
        <!--link REPOFAC to AREPO-->
        <path d="M323.068,598.183 C343.615,622.776 370.356,654.781 390.384,678.751 " fill="none" id="REPOFAC-AREPO" style="stroke: #A80036; stroke-width: 1.0;" />
        <polygon fill="#A80036" points="393.79,682.828,391.0894,673.3566,390.5843,678.9909,384.95,678.4857,393.79,682.828" style="stroke: #A80036; stroke-width: 1.0;" /><text fill="#000000" font-family="sans-serif" font-size="13" lengthAdjust="spacingAndGlyphs" textLength="36" x="361" y="642.4951">stores</text><text fill="#000000" font-family="sans-serif" font-size="13" lengthAdjust="spacingAndGlyphs" textLength="7" x="320.4616" y="619.0927">1</text><text fill="#000000" font-family="sans-serif" font-size="13" lengthAdjust="spacingAndGlyphs" textLength="7" x="380.8686" y="672.2971">1</text>
        <!--link REPOFAC to OREPO-->
        <path d="M283.193,598.183 C277.988,620.163 271.38,648.064 265.981,670.858 " fill="none" id="REPOFAC-OREPO" style="stroke: #A80036; stroke-width: 1.0;" />
        <polygon fill="#A80036" points="264.778,675.937,270.7435,668.1004,265.9297,671.0715,262.9587,666.2576,264.778,675.937" style="stroke: #A80036; stroke-width: 1.0;" /><text fill="#000000" font-family="sans-serif" font-size="13" lengthAdjust="spacingAndGlyphs" textLength="36" x="277" y="642.4951">stores</text><text fill="#000000" font-family="sans-serif" font-size="13" lengthAdjust="spacingAndGlyphs" textLength="7" x="274.2316" y="619.0927">1</text><text fill="#000000" font-family="sans-serif" font-size="13" lengthAdjust="spacingAndGlyphs" textLength="7" x="258.7511" y="665.0019">1</text>
        <!--link AREPO to AGV-->
        <path d="M432.882,745.044 C443.663,768.374 458.627,800.761 469.927,825.2145 " fill="none" id="AREPO-AGV" style="stroke: #A80036; stroke-width: 1.0;" />
        <polygon fill="#A80036" points="472.135,829.9944,471.9917,820.1466,470.038,825.4554,464.7292,823.5017,472.135,829.9944" style="stroke: #A80036; stroke-width: 1.0;" /><text fill="#000000" font-family="sans-serif" font-size="13" lengthAdjust="spacingAndGlyphs" textLength="36" x="458" y="796.4951">stores</text><text fill="#000000" font-family="sans-serif" font-size="13" lengthAdjust="spacingAndGlyphs" textLength="7" x="427.926" y="766.2767">1</text><text fill="#000000" font-family="sans-serif" font-size="13" lengthAdjust="spacingAndGlyphs" textLength="5" x="463.5552" y="819.0134">*</text>
        <!--link OREPO to ORDER-->
        <path d="M219.559,752.204 C204.662,767.213 187.161,784.59 171,800 C161.978,808.6025 152.104,817.7276 142.806,826.1962 " fill="none" id="OREPO-ORDER" style="stroke: #A80036; stroke-width: 1.0;" />
        <polygon fill="#A80036" points="138.86,829.7819,148.2113,826.691,142.5609,826.4199,142.8321,820.7695,138.86,829.7819" style="stroke: #A80036; stroke-width: 1.0;" /><text fill="#000000" font-family="sans-serif" font-size="13" lengthAdjust="spacingAndGlyphs" textLength="36" x="189" y="796.4951">stores</text><text fill="#000000" font-family="sans-serif" font-size="13" lengthAdjust="spacingAndGlyphs" textLength="7" x="206.1934" y="773.117">1</text><text fill="#000000" font-family="sans-serif" font-size="13" lengthAdjust="spacingAndGlyphs" textLength="5" x="140.328" y="819.2415">*</text>
        <!--link STATE to ORDER-->
        <path d="M105,738.297 C105,761.638 105,797.8616 105,824.7266 " fill="none" id="STATE-ORDER" style="stroke: #A80036; stroke-width: 1.0;" />
        <polygon fill="#A80036" points="105,829.9683,109,820.9683,105,824.9683,101,820.9683,105,829.9683" style="stroke: #A80036; stroke-width: 1.0;" /><text fill="#000000" font-family="sans-serif" font-size="13" lengthAdjust="spacingAndGlyphs" textLength="56" x="106" y="796.4951">describes</text><text fill="#000000" font-family="sans-serif" font-size="13" lengthAdjust="spacingAndGlyphs" textLength="7" x="97.1906" y="759.3014">1</text><text fill="#000000" font-family="sans-serif" font-size="13" lengthAdjust="spacingAndGlyphs" textLength="5" x="99.4531" y="818.9816">*</text>
        <!--
@startuml

class "UpdateOrderStateToBePreparedUI" as UI{
  +doShow()
  +headline()
}

class "UpdateOrderStateToBePreparedController" as CTRL {
  +getListProductOrders()
  +getListAGV()
  +updateOrderState(ProductOrder)
  +save(ProductOrder)
  +save(AGV)
  +assignProductOrder(ProductOrder, AGV)
}

class "OrderRepository" as OREPO {
  +findByState(orderState)
  +save(ProductOrder)
}

class "AGVRepository" as AREPO {
  +findAll()
}

class "ProductOrder" as ORDER {
  +setOrderState(OrderState)
}

class "AGV" as AGV {
  +addProductOrderWithPriority(ProductOrder)
}

class "OrderState" as STATE {

}

class "PersistenceContext" as PCON {
  -Logger LOGGER
  -RepositoryFactory theFactory
  +repositories()
}

class "RepositoryFactory" as REPOFAC {
  +agvs()
  +orders()
}

UI ..> CTRL
CTRL ->"1" OREPO : adopts
CTRL ->"1" AREPO : adopts
CTRL -> "1" ORDER : finds
CTRL -> "1" AGV : finds

CTRL "1" - -> "1" PCON : uses
PCON "1" - -> "1" REPOFAC : creates

REPOFAC "1" - -> "1" AREPO : stores
REPOFAC "1" - -> "1" OREPO : stores

AREPO "1" - -> "*" AGV : stores
OREPO "1" - -> "*" ORDER : stores

STATE "1" - -> "*" ORDER : describes

@enduml

PlantUML version 1.2018.14(Fri Dec 21 16:33:16 GMT 2018)
(GPL source distribution)
Java Runtime: Java(TM) SE Runtime Environment
JVM: Java HotSpot(TM) 64-Bit Server VM
Java Version: 1.8.0_221-b11
Operating System: Windows 10
OS Version: 10.0
Default Encoding: Cp1252
Language: pt
Country: PT
-->
    </g>
</svg>