<?xml version="1.0" encoding="UTF-8" standalone="no"?><svg xmlns="http://www.w3.org/2000/svg" xmlns:xlink="http://www.w3.org/1999/xlink" contentStyleType="text/css" height="920px" preserveAspectRatio="none" style="width:1907px;height:920px;background:#FFFFFF;" version="1.1" viewBox="0 0 1907 920" width="1907px" zoomAndPan="magnify"><defs/><g><!--MD5=[60980612b141bad7eafb87f24579ed74]
class SpecifyNewProductUI--><g id="elem_SpecifyNewProductUI"><rect codeLine="2" fill="#F1F1F1" height="64.2969" id="SpecifyNewProductUI" rx="2.5" ry="2.5" style="stroke:#181818;stroke-width:0.5;" width="185" x="210" y="7"/><ellipse cx="225" cy="23" fill="#ADD1B2" rx="11" ry="11" style="stroke:#181818;stroke-width:1.0;"/><path d="M227.3438,18.6719 C226.4063,18.2344 225.8125,18.0938 224.9375,18.0938 C222.3125,18.0938 220.3125,20.1719 220.3125,22.8906 L220.3125,24.0156 C220.3125,26.5938 222.4219,28.4844 225.3125,28.4844 C226.5313,28.4844 227.6875,28.1875 228.4375,27.6406 C229.0156,27.2344 229.3438,26.7813 229.3438,26.3906 C229.3438,25.9375 228.9531,25.5469 228.4844,25.5469 C228.2656,25.5469 228.0625,25.625 227.875,25.8125 C227.4219,26.2969 227.4219,26.2969 227.2344,26.3906 C226.8125,26.6563 226.125,26.7813 225.3594,26.7813 C223.3125,26.7813 222.0156,25.6875 222.0156,23.9844 L222.0156,22.8906 C222.0156,21.1094 223.2656,19.7969 225,19.7969 C225.5781,19.7969 226.1875,19.9531 226.6563,20.2031 C227.1406,20.4844 227.3125,20.7031 227.4063,21.1094 C227.4688,21.5156 227.5,21.6406 227.6406,21.7656 C227.7813,21.9063 228.0156,22.0156 228.2344,22.0156 C228.5,22.0156 228.7656,21.875 228.9375,21.6563 C229.0469,21.5 229.0781,21.3125 229.0781,20.8906 L229.0781,19.4688 C229.0781,19.0313 229.0625,18.9063 228.9688,18.75 C228.8125,18.4844 228.5313,18.3438 228.2344,18.3438 C227.9375,18.3438 227.7344,18.4375 227.5156,18.75 L227.3438,18.6719 Z " fill="#000000"/><text fill="#000000" font-family="sans-serif" font-size="14" lengthAdjust="spacing" textLength="153" x="239" y="27.8467">SpecifyNewProductUI</text><line style="stroke:#181818;stroke-width:0.5;" x1="211" x2="394" y1="39" y2="39"/><line style="stroke:#181818;stroke-width:0.5;" x1="211" x2="394" y1="47" y2="47"/><text fill="#000000" font-family="sans-serif" font-size="14" lengthAdjust="spacing" textLength="77" x="216" y="63.9951">+doShow()</text></g><!--MD5=[72136138052d025cffdce3c22fbd185f]
class Product--><g id="elem_Product"><rect codeLine="7" fill="#F1F1F1" height="259.8594" id="Product" rx="2.5" ry="2.5" style="stroke:#181818;stroke-width:0.5;" width="510" x="668.5" y="322"/><ellipse cx="891.25" cy="338" fill="#ADD1B2" rx="11" ry="11" style="stroke:#181818;stroke-width:1.0;"/><path d="M893.5938,333.6719 C892.6563,333.2344 892.0625,333.0938 891.1875,333.0938 C888.5625,333.0938 886.5625,335.1719 886.5625,337.8906 L886.5625,339.0156 C886.5625,341.5938 888.6719,343.4844 891.5625,343.4844 C892.7813,343.4844 893.9375,343.1875 894.6875,342.6406 C895.2656,342.2344 895.5938,341.7813 895.5938,341.3906 C895.5938,340.9375 895.2031,340.5469 894.7344,340.5469 C894.5156,340.5469 894.3125,340.625 894.125,340.8125 C893.6719,341.2969 893.6719,341.2969 893.4844,341.3906 C893.0625,341.6563 892.375,341.7813 891.6094,341.7813 C889.5625,341.7813 888.2656,340.6875 888.2656,338.9844 L888.2656,337.8906 C888.2656,336.1094 889.5156,334.7969 891.25,334.7969 C891.8281,334.7969 892.4375,334.9531 892.9063,335.2031 C893.3906,335.4844 893.5625,335.7031 893.6563,336.1094 C893.7188,336.5156 893.75,336.6406 893.8906,336.7656 C894.0313,336.9063 894.2656,337.0156 894.4844,337.0156 C894.75,337.0156 895.0156,336.875 895.1875,336.6563 C895.2969,336.5 895.3281,336.3125 895.3281,335.8906 L895.3281,334.4688 C895.3281,334.0313 895.3125,333.9063 895.2188,333.75 C895.0625,333.4844 894.7813,333.3438 894.4844,333.3438 C894.1875,333.3438 893.9844,333.4375 893.7656,333.75 L893.5938,333.6719 Z " fill="#000000"/><text fill="#000000" font-family="sans-serif" font-size="14" lengthAdjust="spacing" textLength="56" x="911.75" y="342.8467">Product</text><line style="stroke:#181818;stroke-width:0.5;" x1="669.5" x2="1177.5" y1="354" y2="354"/><text fill="#000000" font-family="sans-serif" font-size="14" lengthAdjust="spacing" textLength="187" x="674.5" y="370.9951">StorageArea storageArea;</text><text fill="#000000" font-family="sans-serif" font-size="14" lengthAdjust="spacing" textLength="97" x="674.5" y="387.292">String photo;</text><text fill="#000000" font-family="sans-serif" font-size="14" lengthAdjust="spacing" textLength="135" x="674.5" y="403.5889">Designation name;</text><text fill="#000000" font-family="sans-serif" font-size="14" lengthAdjust="spacing" textLength="139" x="674.5" y="419.8857">Category category;</text><text fill="#000000" font-family="sans-serif" font-size="14" lengthAdjust="spacing" textLength="175" x="674.5" y="436.1826">Description description;</text><text fill="#000000" font-family="sans-serif" font-size="14" lengthAdjust="spacing" textLength="93" x="674.5" y="452.4795">Brand brand;</text><text fill="#000000" font-family="sans-serif" font-size="14" lengthAdjust="spacing" textLength="82" x="674.5" y="468.7764">Price price;</text><text fill="#000000" font-family="sans-serif" font-size="14" lengthAdjust="spacing" textLength="155" x="674.5" y="485.0732">Reference reference;</text><text fill="#000000" font-family="sans-serif" font-size="14" lengthAdjust="spacing" textLength="195" x="674.5" y="501.3701">InternalCode internalCode;</text><text fill="#000000" font-family="sans-serif" font-size="14" lengthAdjust="spacing" textLength="240" x="674.5" y="517.667">ProductionCode productionCode;</text><text fill="#000000" font-family="sans-serif" font-size="14" lengthAdjust="spacing" textLength="127" x="674.5" y="533.9639">Barcode barcode;</text><line style="stroke:#181818;stroke-width:0.5;" x1="669.5" x2="1177.5" y1="541.2656" y2="541.2656"/><text fill="#000000" font-family="sans-serif" font-size="14" lengthAdjust="spacing" textLength="498" x="674.5" y="558.2607">+product(storageArea,category,name,photo,description,brand,price,</text><text fill="#000000" font-family="sans-serif" font-size="14" lengthAdjust="spacing" textLength="355" x="674.5" y="574.5576">reference,internalCode,ProductionCode,barcode)</text></g><!--MD5=[8a78b94ac034f628eee9959bc26304be]
class Brand--><g id="elem_Brand"><rect codeLine="22" fill="#F1F1F1" height="80.5938" id="Brand" rx="2.5" ry="2.5" style="stroke:#181818;stroke-width:0.5;" width="158" x="419.5" y="411.5"/><ellipse cx="473.25" cy="427.5" fill="#ADD1B2" rx="11" ry="11" style="stroke:#181818;stroke-width:1.0;"/><path d="M475.5938,423.1719 C474.6563,422.7344 474.0625,422.5938 473.1875,422.5938 C470.5625,422.5938 468.5625,424.6719 468.5625,427.3906 L468.5625,428.5156 C468.5625,431.0938 470.6719,432.9844 473.5625,432.9844 C474.7813,432.9844 475.9375,432.6875 476.6875,432.1406 C477.2656,431.7344 477.5938,431.2813 477.5938,430.8906 C477.5938,430.4375 477.2031,430.0469 476.7344,430.0469 C476.5156,430.0469 476.3125,430.125 476.125,430.3125 C475.6719,430.7969 475.6719,430.7969 475.4844,430.8906 C475.0625,431.1563 474.375,431.2813 473.6094,431.2813 C471.5625,431.2813 470.2656,430.1875 470.2656,428.4844 L470.2656,427.3906 C470.2656,425.6094 471.5156,424.2969 473.25,424.2969 C473.8281,424.2969 474.4375,424.4531 474.9063,424.7031 C475.3906,424.9844 475.5625,425.2031 475.6563,425.6094 C475.7188,426.0156 475.75,426.1406 475.8906,426.2656 C476.0313,426.4063 476.2656,426.5156 476.4844,426.5156 C476.75,426.5156 477.0156,426.375 477.1875,426.1563 C477.2969,426 477.3281,425.8125 477.3281,425.3906 L477.3281,423.9688 C477.3281,423.5313 477.3125,423.4063 477.2188,423.25 C477.0625,422.9844 476.7813,422.8438 476.4844,422.8438 C476.1875,422.8438 475.9844,422.9375 475.7656,423.25 L475.5938,423.1719 Z " fill="#000000"/><text fill="#000000" font-family="sans-serif" font-size="14" lengthAdjust="spacing" textLength="42" x="493.75" y="432.3467">Brand</text><line style="stroke:#181818;stroke-width:0.5;" x1="420.5" x2="576.5" y1="443.5" y2="443.5"/><text fill="#000000" font-family="sans-serif" font-size="14" lengthAdjust="spacing" textLength="131" x="425.5" y="460.4951">String brandName</text><line style="stroke:#181818;stroke-width:0.5;" x1="420.5" x2="576.5" y1="467.7969" y2="467.7969"/><text fill="#000000" font-family="sans-serif" font-size="14" lengthAdjust="spacing" textLength="146" x="425.5" y="484.792">+brand(brandName)</text></g><!--MD5=[32a295458a1e740e755467c2873fc9bb]
class ProductDescription--><g id="elem_ProductDescription"><rect codeLine="27" fill="#F1F1F1" height="129.4844" id="ProductDescription" rx="2.5" ry="2.5" style="stroke:#181818;stroke-width:0.5;" width="328" x="1269.5" y="387.5"/><ellipse cx="1359.25" cy="403.5" fill="#ADD1B2" rx="11" ry="11" style="stroke:#181818;stroke-width:1.0;"/><path d="M1361.5938,399.1719 C1360.6563,398.7344 1360.0625,398.5938 1359.1875,398.5938 C1356.5625,398.5938 1354.5625,400.6719 1354.5625,403.3906 L1354.5625,404.5156 C1354.5625,407.0938 1356.6719,408.9844 1359.5625,408.9844 C1360.7813,408.9844 1361.9375,408.6875 1362.6875,408.1406 C1363.2656,407.7344 1363.5938,407.2813 1363.5938,406.8906 C1363.5938,406.4375 1363.2031,406.0469 1362.7344,406.0469 C1362.5156,406.0469 1362.3125,406.125 1362.125,406.3125 C1361.6719,406.7969 1361.6719,406.7969 1361.4844,406.8906 C1361.0625,407.1563 1360.375,407.2813 1359.6094,407.2813 C1357.5625,407.2813 1356.2656,406.1875 1356.2656,404.4844 L1356.2656,403.3906 C1356.2656,401.6094 1357.5156,400.2969 1359.25,400.2969 C1359.8281,400.2969 1360.4375,400.4531 1360.9063,400.7031 C1361.3906,400.9844 1361.5625,401.2031 1361.6563,401.6094 C1361.7188,402.0156 1361.75,402.1406 1361.8906,402.2656 C1362.0313,402.4063 1362.2656,402.5156 1362.4844,402.5156 C1362.75,402.5156 1363.0156,402.375 1363.1875,402.1563 C1363.2969,402 1363.3281,401.8125 1363.3281,401.3906 L1363.3281,399.9688 C1363.3281,399.5313 1363.3125,399.4063 1363.2188,399.25 C1363.0625,398.9844 1362.7813,398.8438 1362.4844,398.8438 C1362.1875,398.8438 1361.9844,398.9375 1361.7656,399.25 L1361.5938,399.1719 Z " fill="#000000"/><text fill="#000000" font-family="sans-serif" font-size="14" lengthAdjust="spacing" textLength="140" x="1379.75" y="408.3467">ProductDescription</text><line style="stroke:#181818;stroke-width:0.5;" x1="1270.5" x2="1596.5" y1="419.5" y2="419.5"/><text fill="#000000" font-family="sans-serif" font-size="14" lengthAdjust="spacing" textLength="175" x="1275.5" y="436.4951">String shortDescription;</text><text fill="#000000" font-family="sans-serif" font-size="14" lengthAdjust="spacing" textLength="206" x="1275.5" y="452.792">String extendedDescription;</text><text fill="#000000" font-family="sans-serif" font-size="14" lengthAdjust="spacing" textLength="203" x="1275.5" y="469.0889">String technicalDescription;</text><line style="stroke:#181818;stroke-width:0.5;" x1="1270.5" x2="1596.5" y1="476.3906" y2="476.3906"/><text fill="#000000" font-family="sans-serif" font-size="14" lengthAdjust="spacing" textLength="283" x="1275.5" y="493.3857">+productDescription(shortDescription,</text><text fill="#000000" font-family="sans-serif" font-size="14" lengthAdjust="spacing" textLength="312" x="1279.5" y="509.6826">extendedDescription,technicalDescription)</text></g><!--MD5=[f08eadd80edf125a26d903aaabdc00ef]
class ProductionCode--><g id="elem_ProductionCode"><rect codeLine="33" fill="#F1F1F1" height="80.5938" id="ProductionCode" rx="2.5" ry="2.5" style="stroke:#181818;stroke-width:0.5;" width="184" x="831.5" y="148"/><ellipse cx="863.15" cy="164" fill="#ADD1B2" rx="11" ry="11" style="stroke:#181818;stroke-width:1.0;"/><path d="M865.4938,159.6719 C864.5563,159.2344 863.9625,159.0938 863.0875,159.0938 C860.4625,159.0938 858.4625,161.1719 858.4625,163.8906 L858.4625,165.0156 C858.4625,167.5938 860.5719,169.4844 863.4625,169.4844 C864.6813,169.4844 865.8375,169.1875 866.5875,168.6406 C867.1656,168.2344 867.4938,167.7813 867.4938,167.3906 C867.4938,166.9375 867.1031,166.5469 866.6344,166.5469 C866.4156,166.5469 866.2125,166.625 866.025,166.8125 C865.5719,167.2969 865.5719,167.2969 865.3844,167.3906 C864.9625,167.6563 864.275,167.7813 863.5094,167.7813 C861.4625,167.7813 860.1656,166.6875 860.1656,164.9844 L860.1656,163.8906 C860.1656,162.1094 861.4156,160.7969 863.15,160.7969 C863.7281,160.7969 864.3375,160.9531 864.8063,161.2031 C865.2906,161.4844 865.4625,161.7031 865.5563,162.1094 C865.6188,162.5156 865.65,162.6406 865.7906,162.7656 C865.9313,162.9063 866.1656,163.0156 866.3844,163.0156 C866.65,163.0156 866.9156,162.875 867.0875,162.6563 C867.1969,162.5 867.2281,162.3125 867.2281,161.8906 L867.2281,160.4688 C867.2281,160.0313 867.2125,159.9063 867.1188,159.75 C866.9625,159.4844 866.6813,159.3438 866.3844,159.3438 C866.0875,159.3438 865.8844,159.4375 865.6656,159.75 L865.4938,159.6719 Z " fill="#000000"/><text fill="#000000" font-family="sans-serif" font-size="14" lengthAdjust="spacing" textLength="115" x="880.85" y="168.8467">ProductionCode</text><line style="stroke:#181818;stroke-width:0.5;" x1="832.5" x2="1014.5" y1="180" y2="180"/><text fill="#000000" font-family="sans-serif" font-size="14" lengthAdjust="spacing" textLength="88" x="837.5" y="196.9951">String code;</text><line style="stroke:#181818;stroke-width:0.5;" x1="832.5" x2="1014.5" y1="204.2969" y2="204.2969"/><text fill="#000000" font-family="sans-serif" font-size="14" lengthAdjust="spacing" textLength="172" x="837.5" y="221.292">+productionCode(code)</text></g><!--MD5=[b17673c2a8c0190a39afe62d0e87136e]
class InternalCode--><g id="elem_InternalCode"><rect codeLine="37" fill="#F1F1F1" height="80.5938" id="InternalCode" rx="2.5" ry="2.5" style="stroke:#181818;stroke-width:0.5;" width="166" x="509.5" y="675"/><ellipse cx="542.95" cy="691" fill="#ADD1B2" rx="11" ry="11" style="stroke:#181818;stroke-width:1.0;"/><path d="M545.2938,686.6719 C544.3563,686.2344 543.7625,686.0938 542.8875,686.0938 C540.2625,686.0938 538.2625,688.1719 538.2625,690.8906 L538.2625,692.0156 C538.2625,694.5938 540.3719,696.4844 543.2625,696.4844 C544.4813,696.4844 545.6375,696.1875 546.3875,695.6406 C546.9656,695.2344 547.2938,694.7813 547.2938,694.3906 C547.2938,693.9375 546.9031,693.5469 546.4344,693.5469 C546.2156,693.5469 546.0125,693.625 545.825,693.8125 C545.3719,694.2969 545.3719,694.2969 545.1844,694.3906 C544.7625,694.6563 544.075,694.7813 543.3094,694.7813 C541.2625,694.7813 539.9656,693.6875 539.9656,691.9844 L539.9656,690.8906 C539.9656,689.1094 541.2156,687.7969 542.95,687.7969 C543.5281,687.7969 544.1375,687.9531 544.6063,688.2031 C545.0906,688.4844 545.2625,688.7031 545.3563,689.1094 C545.4188,689.5156 545.45,689.6406 545.5906,689.7656 C545.7313,689.9063 545.9656,690.0156 546.1844,690.0156 C546.45,690.0156 546.7156,689.875 546.8875,689.6563 C546.9969,689.5 547.0281,689.3125 547.0281,688.8906 L547.0281,687.4688 C547.0281,687.0313 547.0125,686.9063 546.9188,686.75 C546.7625,686.4844 546.4813,686.3438 546.1844,686.3438 C545.8875,686.3438 545.6844,686.4375 545.4656,686.75 L545.2938,686.6719 Z " fill="#000000"/><text fill="#000000" font-family="sans-serif" font-size="14" lengthAdjust="spacing" textLength="93" x="561.05" y="695.8467">InternalCode</text><line style="stroke:#181818;stroke-width:0.5;" x1="510.5" x2="674.5" y1="707" y2="707"/><text fill="#000000" font-family="sans-serif" font-size="14" lengthAdjust="spacing" textLength="88" x="515.5" y="723.9951">String code;</text><line style="stroke:#181818;stroke-width:0.5;" x1="510.5" x2="674.5" y1="731.2969" y2="731.2969"/><text fill="#000000" font-family="sans-serif" font-size="14" lengthAdjust="spacing" textLength="154" x="515.5" y="748.292">+internalCode(code);</text></g><!--MD5=[e59bda2572a266093cda22ac34510ea0]
class Barcode--><g id="elem_Barcode"><rect codeLine="41" fill="#F1F1F1" height="80.5938" id="Barcode" rx="2.5" ry="2.5" style="stroke:#181818;stroke-width:0.5;" width="151" x="645" y="148"/><ellipse cx="687" cy="164" fill="#ADD1B2" rx="11" ry="11" style="stroke:#181818;stroke-width:1.0;"/><path d="M689.3438,159.6719 C688.4063,159.2344 687.8125,159.0938 686.9375,159.0938 C684.3125,159.0938 682.3125,161.1719 682.3125,163.8906 L682.3125,165.0156 C682.3125,167.5938 684.4219,169.4844 687.3125,169.4844 C688.5313,169.4844 689.6875,169.1875 690.4375,168.6406 C691.0156,168.2344 691.3438,167.7813 691.3438,167.3906 C691.3438,166.9375 690.9531,166.5469 690.4844,166.5469 C690.2656,166.5469 690.0625,166.625 689.875,166.8125 C689.4219,167.2969 689.4219,167.2969 689.2344,167.3906 C688.8125,167.6563 688.125,167.7813 687.3594,167.7813 C685.3125,167.7813 684.0156,166.6875 684.0156,164.9844 L684.0156,163.8906 C684.0156,162.1094 685.2656,160.7969 687,160.7969 C687.5781,160.7969 688.1875,160.9531 688.6563,161.2031 C689.1406,161.4844 689.3125,161.7031 689.4063,162.1094 C689.4688,162.5156 689.5,162.6406 689.6406,162.7656 C689.7813,162.9063 690.0156,163.0156 690.2344,163.0156 C690.5,163.0156 690.7656,162.875 690.9375,162.6563 C691.0469,162.5 691.0781,162.3125 691.0781,161.8906 L691.0781,160.4688 C691.0781,160.0313 691.0625,159.9063 690.9688,159.75 C690.8125,159.4844 690.5313,159.3438 690.2344,159.3438 C689.9375,159.3438 689.7344,159.4375 689.5156,159.75 L689.3438,159.6719 Z " fill="#000000"/><text fill="#000000" font-family="sans-serif" font-size="14" lengthAdjust="spacing" textLength="59" x="707" y="168.8467">Barcode</text><line style="stroke:#181818;stroke-width:0.5;" x1="646" x2="795" y1="180" y2="180"/><text fill="#000000" font-family="sans-serif" font-size="14" lengthAdjust="spacing" textLength="112" x="651" y="196.9951">String barcode;</text><line style="stroke:#181818;stroke-width:0.5;" x1="646" x2="795" y1="204.2969" y2="204.2969"/><text fill="#000000" font-family="sans-serif" font-size="14" lengthAdjust="spacing" textLength="139" x="651" y="221.292">+barcode(barcode)</text></g><!--MD5=[3a7cf800944e5f3d9e9c59d889c61f3b]
class Reference--><g id="elem_Reference"><rect codeLine="45" fill="#F1F1F1" height="80.5938" id="Reference" rx="2.5" ry="2.5" style="stroke:#181818;stroke-width:0.5;" width="175" x="1051" y="148"/><ellipse cx="1096.75" cy="164" fill="#ADD1B2" rx="11" ry="11" style="stroke:#181818;stroke-width:1.0;"/><path d="M1099.0938,159.6719 C1098.1563,159.2344 1097.5625,159.0938 1096.6875,159.0938 C1094.0625,159.0938 1092.0625,161.1719 1092.0625,163.8906 L1092.0625,165.0156 C1092.0625,167.5938 1094.1719,169.4844 1097.0625,169.4844 C1098.2813,169.4844 1099.4375,169.1875 1100.1875,168.6406 C1100.7656,168.2344 1101.0938,167.7813 1101.0938,167.3906 C1101.0938,166.9375 1100.7031,166.5469 1100.2344,166.5469 C1100.0156,166.5469 1099.8125,166.625 1099.625,166.8125 C1099.1719,167.2969 1099.1719,167.2969 1098.9844,167.3906 C1098.5625,167.6563 1097.875,167.7813 1097.1094,167.7813 C1095.0625,167.7813 1093.7656,166.6875 1093.7656,164.9844 L1093.7656,163.8906 C1093.7656,162.1094 1095.0156,160.7969 1096.75,160.7969 C1097.3281,160.7969 1097.9375,160.9531 1098.4063,161.2031 C1098.8906,161.4844 1099.0625,161.7031 1099.1563,162.1094 C1099.2188,162.5156 1099.25,162.6406 1099.3906,162.7656 C1099.5313,162.9063 1099.7656,163.0156 1099.9844,163.0156 C1100.25,163.0156 1100.5156,162.875 1100.6875,162.6563 C1100.7969,162.5 1100.8281,162.3125 1100.8281,161.8906 L1100.8281,160.4688 C1100.8281,160.0313 1100.8125,159.9063 1100.7188,159.75 C1100.5625,159.4844 1100.2813,159.3438 1099.9844,159.3438 C1099.6875,159.3438 1099.4844,159.4375 1099.2656,159.75 L1099.0938,159.6719 Z " fill="#000000"/><text fill="#000000" font-family="sans-serif" font-size="14" lengthAdjust="spacing" textLength="75" x="1117.25" y="168.8467">Reference</text><line style="stroke:#181818;stroke-width:0.5;" x1="1052" x2="1225" y1="180" y2="180"/><text fill="#000000" font-family="sans-serif" font-size="14" lengthAdjust="spacing" textLength="124" x="1057" y="196.9951">String reference;</text><line style="stroke:#181818;stroke-width:0.5;" x1="1052" x2="1225" y1="204.2969" y2="204.2969"/><text fill="#000000" font-family="sans-serif" font-size="14" lengthAdjust="spacing" textLength="163" x="1057" y="221.292">+reference(reference)</text></g><!--MD5=[a96594a83e2ecdc78cbf17c2ddf01934]
class Category--><g id="elem_Category"><rect codeLine="49" fill="#F1F1F1" height="113.1875" id="Category" rx="2.5" ry="2.5" style="stroke:#181818;stroke-width:0.5;" width="267" x="1633" y="395.5"/><ellipse cx="1729.25" cy="411.5" fill="#ADD1B2" rx="11" ry="11" style="stroke:#181818;stroke-width:1.0;"/><path d="M1731.5938,407.1719 C1730.6563,406.7344 1730.0625,406.5938 1729.1875,406.5938 C1726.5625,406.5938 1724.5625,408.6719 1724.5625,411.3906 L1724.5625,412.5156 C1724.5625,415.0938 1726.6719,416.9844 1729.5625,416.9844 C1730.7813,416.9844 1731.9375,416.6875 1732.6875,416.1406 C1733.2656,415.7344 1733.5938,415.2813 1733.5938,414.8906 C1733.5938,414.4375 1733.2031,414.0469 1732.7344,414.0469 C1732.5156,414.0469 1732.3125,414.125 1732.125,414.3125 C1731.6719,414.7969 1731.6719,414.7969 1731.4844,414.8906 C1731.0625,415.1563 1730.375,415.2813 1729.6094,415.2813 C1727.5625,415.2813 1726.2656,414.1875 1726.2656,412.4844 L1726.2656,411.3906 C1726.2656,409.6094 1727.5156,408.2969 1729.25,408.2969 C1729.8281,408.2969 1730.4375,408.4531 1730.9063,408.7031 C1731.3906,408.9844 1731.5625,409.2031 1731.6563,409.6094 C1731.7188,410.0156 1731.75,410.1406 1731.8906,410.2656 C1732.0313,410.4063 1732.2656,410.5156 1732.4844,410.5156 C1732.75,410.5156 1733.0156,410.375 1733.1875,410.1563 C1733.2969,410 1733.3281,409.8125 1733.3281,409.3906 L1733.3281,407.9688 C1733.3281,407.5313 1733.3125,407.4063 1733.2188,407.25 C1733.0625,406.9844 1732.7813,406.8438 1732.4844,406.8438 C1732.1875,406.8438 1731.9844,406.9375 1731.7656,407.25 L1731.5938,407.1719 Z " fill="#000000"/><text fill="#000000" font-family="sans-serif" font-size="14" lengthAdjust="spacing" textLength="66" x="1749.75" y="416.3467">Category</text><line style="stroke:#181818;stroke-width:0.5;" x1="1634" x2="1899" y1="427.5" y2="427.5"/><text fill="#000000" font-family="sans-serif" font-size="14" lengthAdjust="spacing" textLength="180" x="1639" y="444.4951">AlphanumericCode code;</text><text fill="#000000" font-family="sans-serif" font-size="14" lengthAdjust="spacing" textLength="135" x="1639" y="460.792">Designation name;</text><text fill="#000000" font-family="sans-serif" font-size="14" lengthAdjust="spacing" textLength="175" x="1639" y="477.0889">Description description;</text><line style="stroke:#181818;stroke-width:0.5;" x1="1634" x2="1899" y1="484.3906" y2="484.3906"/><text fill="#000000" font-family="sans-serif" font-size="14" lengthAdjust="spacing" textLength="255" x="1639" y="501.3857">+category(code,name,description);</text></g><!--MD5=[651815f8146248108236fb7ad102a080]
class StorageArea--><g id="elem_StorageArea"><rect codeLine="55" fill="#F1F1F1" height="113.1875" id="StorageArea" rx="2.5" ry="2.5" style="stroke:#181818;stroke-width:0.5;" width="300" x="710.5" y="659"/><ellipse cx="811.25" cy="675" fill="#ADD1B2" rx="11" ry="11" style="stroke:#181818;stroke-width:1.0;"/><path d="M813.5938,670.6719 C812.6563,670.2344 812.0625,670.0938 811.1875,670.0938 C808.5625,670.0938 806.5625,672.1719 806.5625,674.8906 L806.5625,676.0156 C806.5625,678.5938 808.6719,680.4844 811.5625,680.4844 C812.7813,680.4844 813.9375,680.1875 814.6875,679.6406 C815.2656,679.2344 815.5938,678.7813 815.5938,678.3906 C815.5938,677.9375 815.2031,677.5469 814.7344,677.5469 C814.5156,677.5469 814.3125,677.625 814.125,677.8125 C813.6719,678.2969 813.6719,678.2969 813.4844,678.3906 C813.0625,678.6563 812.375,678.7813 811.6094,678.7813 C809.5625,678.7813 808.2656,677.6875 808.2656,675.9844 L808.2656,674.8906 C808.2656,673.1094 809.5156,671.7969 811.25,671.7969 C811.8281,671.7969 812.4375,671.9531 812.9063,672.2031 C813.3906,672.4844 813.5625,672.7031 813.6563,673.1094 C813.7188,673.5156 813.75,673.6406 813.8906,673.7656 C814.0313,673.9063 814.2656,674.0156 814.4844,674.0156 C814.75,674.0156 815.0156,673.875 815.1875,673.6563 C815.2969,673.5 815.3281,673.3125 815.3281,672.8906 L815.3281,671.4688 C815.3281,671.0313 815.3125,670.9063 815.2188,670.75 C815.0625,670.4844 814.7813,670.3438 814.4844,670.3438 C814.1875,670.3438 813.9844,670.4375 813.7656,670.75 L813.5938,670.6719 Z " fill="#000000"/><text fill="#000000" font-family="sans-serif" font-size="14" lengthAdjust="spacing" textLength="90" x="831.75" y="679.8467">StorageArea</text><line style="stroke:#181818;stroke-width:0.5;" x1="711.5" x2="1009.5" y1="691" y2="691"/><text fill="#000000" font-family="sans-serif" font-size="14" lengthAdjust="spacing" textLength="76" x="716.5" y="707.9951">int AisleId;</text><text fill="#000000" font-family="sans-serif" font-size="14" lengthAdjust="spacing" textLength="72" x="716.5" y="724.292">int RowId;</text><text fill="#000000" font-family="sans-serif" font-size="14" lengthAdjust="spacing" textLength="123" x="716.5" y="740.5889">int ShelfNumber;</text><line style="stroke:#181818;stroke-width:0.5;" x1="711.5" x2="1009.5" y1="747.8906" y2="747.8906"/><text fill="#000000" font-family="sans-serif" font-size="14" lengthAdjust="spacing" textLength="288" x="716.5" y="764.8857">+storageArea(aisleId,rowId,shelfNumber</text></g><!--MD5=[ab63ddbbe11f7d2a0302e90075dc46cf]
class SpecifyNewProductController--><g id="elem_SpecifyNewProductController"><rect codeLine="61" fill="#F1F1F1" height="113.1875" id="SpecifyNewProductController" rx="2.5" ry="2.5" style="stroke:#181818;stroke-width:0.5;" width="591" x="7" y="132"/><ellipse cx="191.75" cy="148" fill="#ADD1B2" rx="11" ry="11" style="stroke:#181818;stroke-width:1.0;"/><path d="M194.0938,143.6719 C193.1563,143.2344 192.5625,143.0938 191.6875,143.0938 C189.0625,143.0938 187.0625,145.1719 187.0625,147.8906 L187.0625,149.0156 C187.0625,151.5938 189.1719,153.4844 192.0625,153.4844 C193.2813,153.4844 194.4375,153.1875 195.1875,152.6406 C195.7656,152.2344 196.0938,151.7813 196.0938,151.3906 C196.0938,150.9375 195.7031,150.5469 195.2344,150.5469 C195.0156,150.5469 194.8125,150.625 194.625,150.8125 C194.1719,151.2969 194.1719,151.2969 193.9844,151.3906 C193.5625,151.6563 192.875,151.7813 192.1094,151.7813 C190.0625,151.7813 188.7656,150.6875 188.7656,148.9844 L188.7656,147.8906 C188.7656,146.1094 190.0156,144.7969 191.75,144.7969 C192.3281,144.7969 192.9375,144.9531 193.4063,145.2031 C193.8906,145.4844 194.0625,145.7031 194.1563,146.1094 C194.2188,146.5156 194.25,146.6406 194.3906,146.7656 C194.5313,146.9063 194.7656,147.0156 194.9844,147.0156 C195.25,147.0156 195.5156,146.875 195.6875,146.6563 C195.7969,146.5 195.8281,146.3125 195.8281,145.8906 L195.8281,144.4688 C195.8281,144.0313 195.8125,143.9063 195.7188,143.75 C195.5625,143.4844 195.2813,143.3438 194.9844,143.3438 C194.6875,143.3438 194.4844,143.4375 194.2656,143.75 L194.0938,143.6719 Z " fill="#000000"/><text fill="#000000" font-family="sans-serif" font-size="14" lengthAdjust="spacing" textLength="213" x="212.25" y="152.8467">SpecifyNewProductController</text><line style="stroke:#181818;stroke-width:0.5;" x1="8" x2="597" y1="164" y2="164"/><line style="stroke:#181818;stroke-width:0.5;" x1="8" x2="597" y1="172" y2="172"/><text fill="#000000" font-family="sans-serif" font-size="14" lengthAdjust="spacing" textLength="157" x="13" y="188.9951">+newWarehouseInfo()</text><text fill="#000000" font-family="sans-serif" font-size="14" lengthAdjust="spacing" textLength="97" x="13" y="205.292">+categories()</text><text fill="#000000" font-family="sans-serif" font-size="14" lengthAdjust="spacing" textLength="579" x="13" y="221.5889">+specifyNewProduct(storageArea,category,name,photo,description,brand,price,</text><text fill="#000000" font-family="sans-serif" font-size="14" lengthAdjust="spacing" textLength="355" x="13" y="237.8857">reference,internalCode,ProductionCode,barcode)</text></g><!--MD5=[e8c189551b7885b999ad7cefb30fc2a3]
class PersistenceContext--><g id="elem_PersistenceContext"><rect codeLine="67" fill="#F1F1F1" height="96.8906" id="PersistenceContext" rx="2.5" ry="2.5" style="stroke:#181818;stroke-width:0.5;" width="234" x="150.5" y="403.5"/><ellipse cx="192.05" cy="419.5" fill="#ADD1B2" rx="11" ry="11" style="stroke:#181818;stroke-width:1.0;"/><path d="M194.3938,415.1719 C193.4563,414.7344 192.8625,414.5938 191.9875,414.5938 C189.3625,414.5938 187.3625,416.6719 187.3625,419.3906 L187.3625,420.5156 C187.3625,423.0938 189.4719,424.9844 192.3625,424.9844 C193.5813,424.9844 194.7375,424.6875 195.4875,424.1406 C196.0656,423.7344 196.3938,423.2813 196.3938,422.8906 C196.3938,422.4375 196.0031,422.0469 195.5344,422.0469 C195.3156,422.0469 195.1125,422.125 194.925,422.3125 C194.4719,422.7969 194.4719,422.7969 194.2844,422.8906 C193.8625,423.1563 193.175,423.2813 192.4094,423.2813 C190.3625,423.2813 189.0656,422.1875 189.0656,420.4844 L189.0656,419.3906 C189.0656,417.6094 190.3156,416.2969 192.05,416.2969 C192.6281,416.2969 193.2375,416.4531 193.7063,416.7031 C194.1906,416.9844 194.3625,417.2031 194.4563,417.6094 C194.5188,418.0156 194.55,418.1406 194.6906,418.2656 C194.8313,418.4063 195.0656,418.5156 195.2844,418.5156 C195.55,418.5156 195.8156,418.375 195.9875,418.1563 C196.0969,418 196.1281,417.8125 196.1281,417.3906 L196.1281,415.9688 C196.1281,415.5313 196.1125,415.4063 196.0188,415.25 C195.8625,414.9844 195.5813,414.8438 195.2844,414.8438 C194.9875,414.8438 194.7844,414.9375 194.5656,415.25 L194.3938,415.1719 Z " fill="#000000"/><text fill="#000000" font-family="sans-serif" font-size="14" lengthAdjust="spacing" textLength="143" x="211.95" y="424.3467">PersistenceContext</text><line style="stroke:#181818;stroke-width:0.5;" x1="151.5" x2="383.5" y1="435.5" y2="435.5"/><text fill="#000000" font-family="sans-serif" font-size="14" lengthAdjust="spacing" textLength="120" x="156.5" y="452.4951">-Logger LOGGER</text><text fill="#000000" font-family="sans-serif" font-size="14" lengthAdjust="spacing" textLength="222" x="156.5" y="468.792">-RepositoryFactory theFactory</text><line style="stroke:#181818;stroke-width:0.5;" x1="151.5" x2="383.5" y1="476.0938" y2="476.0938"/><text fill="#000000" font-family="sans-serif" font-size="14" lengthAdjust="spacing" textLength="108" x="156.5" y="493.0889">+repositories()</text></g><!--MD5=[48590afff58a68e2fcba47824d6f8a11]
class RepositoryFactory--><g id="elem_RepositoryFactory"><rect codeLine="73" fill="#F1F1F1" height="80.5938" id="RepositoryFactory" rx="2.5" ry="2.5" style="stroke:#181818;stroke-width:0.5;" width="165" x="309" y="675"/><ellipse cx="324" cy="691" fill="#ADD1B2" rx="11" ry="11" style="stroke:#181818;stroke-width:1.0;"/><path d="M326.3438,686.6719 C325.4063,686.2344 324.8125,686.0938 323.9375,686.0938 C321.3125,686.0938 319.3125,688.1719 319.3125,690.8906 L319.3125,692.0156 C319.3125,694.5938 321.4219,696.4844 324.3125,696.4844 C325.5313,696.4844 326.6875,696.1875 327.4375,695.6406 C328.0156,695.2344 328.3438,694.7813 328.3438,694.3906 C328.3438,693.9375 327.9531,693.5469 327.4844,693.5469 C327.2656,693.5469 327.0625,693.625 326.875,693.8125 C326.4219,694.2969 326.4219,694.2969 326.2344,694.3906 C325.8125,694.6563 325.125,694.7813 324.3594,694.7813 C322.3125,694.7813 321.0156,693.6875 321.0156,691.9844 L321.0156,690.8906 C321.0156,689.1094 322.2656,687.7969 324,687.7969 C324.5781,687.7969 325.1875,687.9531 325.6563,688.2031 C326.1406,688.4844 326.3125,688.7031 326.4063,689.1094 C326.4688,689.5156 326.5,689.6406 326.6406,689.7656 C326.7813,689.9063 327.0156,690.0156 327.2344,690.0156 C327.5,690.0156 327.7656,689.875 327.9375,689.6563 C328.0469,689.5 328.0781,689.3125 328.0781,688.8906 L328.0781,687.4688 C328.0781,687.0313 328.0625,686.9063 327.9688,686.75 C327.8125,686.4844 327.5313,686.3438 327.2344,686.3438 C326.9375,686.3438 326.7344,686.4375 326.5156,686.75 L326.3438,686.6719 Z " fill="#000000"/><text fill="#000000" font-family="sans-serif" font-size="14" lengthAdjust="spacing" textLength="133" x="338" y="695.8467">RepositoryFactory</text><line style="stroke:#181818;stroke-width:0.5;" x1="310" x2="473" y1="707" y2="707"/><line style="stroke:#181818;stroke-width:0.5;" x1="310" x2="473" y1="715" y2="715"/><text fill="#000000" font-family="sans-serif" font-size="14" lengthAdjust="spacing" textLength="97" x="315" y="731.9951">+categories()</text><text fill="#000000" font-family="sans-serif" font-size="14" lengthAdjust="spacing" textLength="85" x="315" y="748.292">+products()</text></g><!--MD5=[f9761e4ec0e5a044b983a0fb01ce84a9]
class ProductRepository--><g id="elem_ProductRepository"><rect codeLine="78" fill="#F1F1F1" height="48" id="ProductRepository" rx="2.5" ry="2.5" style="stroke:#181818;stroke-width:0.5;" width="167" x="1046" y="691.5"/><ellipse cx="1061" cy="707.5" fill="#ADD1B2" rx="11" ry="11" style="stroke:#181818;stroke-width:1.0;"/><path d="M1063.3438,703.1719 C1062.4063,702.7344 1061.8125,702.5938 1060.9375,702.5938 C1058.3125,702.5938 1056.3125,704.6719 1056.3125,707.3906 L1056.3125,708.5156 C1056.3125,711.0938 1058.4219,712.9844 1061.3125,712.9844 C1062.5313,712.9844 1063.6875,712.6875 1064.4375,712.1406 C1065.0156,711.7344 1065.3438,711.2813 1065.3438,710.8906 C1065.3438,710.4375 1064.9531,710.0469 1064.4844,710.0469 C1064.2656,710.0469 1064.0625,710.125 1063.875,710.3125 C1063.4219,710.7969 1063.4219,710.7969 1063.2344,710.8906 C1062.8125,711.1563 1062.125,711.2813 1061.3594,711.2813 C1059.3125,711.2813 1058.0156,710.1875 1058.0156,708.4844 L1058.0156,707.3906 C1058.0156,705.6094 1059.2656,704.2969 1061,704.2969 C1061.5781,704.2969 1062.1875,704.4531 1062.6563,704.7031 C1063.1406,704.9844 1063.3125,705.2031 1063.4063,705.6094 C1063.4688,706.0156 1063.5,706.1406 1063.6406,706.2656 C1063.7813,706.4063 1064.0156,706.5156 1064.2344,706.5156 C1064.5,706.5156 1064.7656,706.375 1064.9375,706.1563 C1065.0469,706 1065.0781,705.8125 1065.0781,705.3906 L1065.0781,703.9688 C1065.0781,703.5313 1065.0625,703.4063 1064.9688,703.25 C1064.8125,702.9844 1064.5313,702.8438 1064.2344,702.8438 C1063.9375,702.8438 1063.7344,702.9375 1063.5156,703.25 L1063.3438,703.1719 Z " fill="#000000"/><text fill="#000000" font-family="sans-serif" font-size="14" lengthAdjust="spacing" textLength="135" x="1075" y="712.3467">ProductRepository</text><line style="stroke:#181818;stroke-width:0.5;" x1="1047" x2="1212" y1="723.5" y2="723.5"/><line style="stroke:#181818;stroke-width:0.5;" x1="1047" x2="1212" y1="731.5" y2="731.5"/></g><!--MD5=[b3c2230271250b561f28a9e8cd979a92]
class CategoryRepository--><g id="elem_CategoryRepository"><rect codeLine="81" fill="#F1F1F1" height="64.2969" id="CategoryRepository" rx="2.5" ry="2.5" style="stroke:#181818;stroke-width:0.5;" width="177" x="303" y="849"/><ellipse cx="318" cy="865" fill="#ADD1B2" rx="11" ry="11" style="stroke:#181818;stroke-width:1.0;"/><path d="M320.3438,860.6719 C319.4063,860.2344 318.8125,860.0938 317.9375,860.0938 C315.3125,860.0938 313.3125,862.1719 313.3125,864.8906 L313.3125,866.0156 C313.3125,868.5938 315.4219,870.4844 318.3125,870.4844 C319.5313,870.4844 320.6875,870.1875 321.4375,869.6406 C322.0156,869.2344 322.3438,868.7813 322.3438,868.3906 C322.3438,867.9375 321.9531,867.5469 321.4844,867.5469 C321.2656,867.5469 321.0625,867.625 320.875,867.8125 C320.4219,868.2969 320.4219,868.2969 320.2344,868.3906 C319.8125,868.6563 319.125,868.7813 318.3594,868.7813 C316.3125,868.7813 315.0156,867.6875 315.0156,865.9844 L315.0156,864.8906 C315.0156,863.1094 316.2656,861.7969 318,861.7969 C318.5781,861.7969 319.1875,861.9531 319.6563,862.2031 C320.1406,862.4844 320.3125,862.7031 320.4063,863.1094 C320.4688,863.5156 320.5,863.6406 320.6406,863.7656 C320.7813,863.9063 321.0156,864.0156 321.2344,864.0156 C321.5,864.0156 321.7656,863.875 321.9375,863.6563 C322.0469,863.5 322.0781,863.3125 322.0781,862.8906 L322.0781,861.4688 C322.0781,861.0313 322.0625,860.9063 321.9688,860.75 C321.8125,860.4844 321.5313,860.3438 321.2344,860.3438 C320.9375,860.3438 320.7344,860.4375 320.5156,860.75 L320.3438,860.6719 Z " fill="#000000"/><text fill="#000000" font-family="sans-serif" font-size="14" lengthAdjust="spacing" textLength="145" x="332" y="869.8467">CategoryRepository</text><line style="stroke:#181818;stroke-width:0.5;" x1="304" x2="479" y1="881" y2="881"/><line style="stroke:#181818;stroke-width:0.5;" x1="304" x2="479" y1="889" y2="889"/><text fill="#000000" font-family="sans-serif" font-size="14" lengthAdjust="spacing" textLength="72" x="309" y="905.9951">+findAll();</text></g><!--MD5=[20ba0d3f866826d0cd8ac1f3585cc6dd]
link SpecifyNewProductUI to SpecifyNewProductController--><g id="link_SpecifyNewProductUI_SpecifyNewProductController"><path codeLine="84" d="M302.5,71.281 C302.5,87.359 302.5,107.522 302.5,126.519 " fill="none" id="SpecifyNewProductUI-to-SpecifyNewProductController" style="stroke:#181818;stroke-width:1.0;stroke-dasharray:7.0,7.0;"/><polygon fill="#181818" points="302.5,131.842,306.5,122.842,302.5,126.842,298.5,122.842,302.5,131.842" style="stroke:#181818;stroke-width:1.0;"/></g><!--MD5=[a2733a88dca69d52558a267b01fb238e]
link SpecifyNewProductController to PersistenceContext--><g id="link_SpecifyNewProductController_PersistenceContext"><path codeLine="85" d="M295.035,245.278 C288.984,290.485 280.516,353.753 274.573,398.155 " fill="none" id="SpecifyNewProductController-to-PersistenceContext" style="stroke:#181818;stroke-width:1.0;"/><polygon fill="#181818" points="273.897,403.203,279.0549,394.8127,274.5599,398.2471,271.1255,393.7521,273.897,403.203" style="stroke:#181818;stroke-width:1.0;"/><text fill="#000000" font-family="sans-serif" font-size="13" lengthAdjust="spacing" textLength="48" x="291.5" y="288.0669">creates</text></g><!--MD5=[754b775031405e096442b27febffa290]
link PersistenceContext to RepositoryFactory--><g id="link_PersistenceContext_RepositoryFactory"><path codeLine="86" d="M290.099,500.659 C312.994,548.941 348.128,623.033 370.45,670.109 " fill="none" id="PersistenceContext-to-RepositoryFactory" style="stroke:#181818;stroke-width:1.0;"/><polygon fill="#181818" points="372.704,674.861,372.4618,665.0151,370.5615,670.3433,365.2334,668.4431,372.704,674.861" style="stroke:#181818;stroke-width:1.0;"/><text fill="#000000" font-family="sans-serif" font-size="13" lengthAdjust="spacing" textLength="48" x="349.5" y="625.0669">creates</text></g><!--MD5=[982d16d4d7400e6c46bfc612526ecb29]
link RepositoryFactory to CategoryRepository--><g id="link_RepositoryFactory_CategoryRepository"><path codeLine="87" d="M391.5,756.079 C391.5,782.836 391.5,817.8946 391.5,843.8911 " fill="none" id="RepositoryFactory-to-CategoryRepository" style="stroke:#181818;stroke-width:1.0;"/><polygon fill="#181818" points="391.5,848.9644,395.5,839.9644,391.5,843.9644,387.5,839.9644,391.5,848.9644" style="stroke:#181818;stroke-width:1.0;"/><text fill="#000000" font-family="sans-serif" font-size="13" lengthAdjust="spacing" textLength="48" x="392.5" y="815.0669">creates</text></g><!--MD5=[a107a52b6e2b3fb29ad79d2f6a7df605]
link RepositoryFactory to ProductRepository--><g id="link_RepositoryFactory_ProductRepository"><path codeLine="88" d="M455.222,674.929 C466.942,668.805 479.328,663.156 491.5,659 C585.422,626.93 613.51,634.13 712.5,627 C852.857,616.891 893.617,615.669 1027.5,659 C1048.98,665.953 1071.11,677.574 1089.24,688.475 " fill="none" id="RepositoryFactory-to-ProductRepository" style="stroke:#181818;stroke-width:1.0;"/><polygon fill="#181818" points="1093.76,691.227,1088.152,683.1307,1089.489,688.6273,1083.9924,689.9643,1093.76,691.227" style="stroke:#181818;stroke-width:1.0;"/><text fill="#000000" font-family="sans-serif" font-size="13" lengthAdjust="spacing" textLength="48" x="713.5" y="625.0669">creates</text></g><!--MD5=[4dd9c7566709ee17763f23c0c4fc2fc4]
link SpecifyNewProductController to Product--><g id="link_SpecifyNewProductController_Product"><path codeLine="89" d="M434.578,245.117 C501.356,273.237 584.801,308.375 663.747,341.619 " fill="none" id="SpecifyNewProductController-to-Product" style="stroke:#181818;stroke-width:1.0;"/><polygon fill="#181818" points="668.459,343.604,661.7159,336.4255,663.8507,341.6641,658.6121,343.7988,668.459,343.604" style="stroke:#181818;stroke-width:1.0;"/><text fill="#000000" font-family="sans-serif" font-size="13" lengthAdjust="spacing" textLength="38" x="540.5" y="288.0669">saves</text></g><!--MD5=[7acf966bec3ed0aa4456ae5635bffb5e]
reverse link Brand to Product--><g id="link_Brand_Product"><path codeLine="90" d="M582.972,452 C608.392,452 637.71,452 668.256,452 " fill="none" id="Brand-backto-Product" style="stroke:#181818;stroke-width:1.0;"/><polygon fill="#181818" points="577.941,452,586.941,456,582.941,452,586.941,448,577.941,452" style="stroke:#181818;stroke-width:1.0;"/><text fill="#000000" font-family="sans-serif" font-size="13" lengthAdjust="spacing" textLength="54" x="596" y="445.0669">contains</text></g><!--MD5=[a47705683c2509eac22e9e402f6ffb66]
link Product to ProductRepository--><g id="link_Product_ProductRepository"><path codeLine="91" d="M1025.29,582.218 C1056.66,622.036 1088.18,662.043 1108.2,687.466 " fill="none" id="Product-to-ProductRepository" style="stroke:#181818;stroke-width:1.0;"/><polygon fill="#181818" points="1111.32,691.419,1108.8935,681.8737,1108.2262,687.4911,1102.6089,686.8238,1111.32,691.419" style="stroke:#181818;stroke-width:1.0;"/><text fill="#000000" font-family="sans-serif" font-size="13" lengthAdjust="spacing" textLength="11" x="1058.5" y="625.0669">in</text></g><!--MD5=[9dd5c5a7ca6b285502899db5087ef911]
reverse link ProductionCode to Product--><g id="link_ProductionCode_Product"><path codeLine="92" d="M923.5,234.311 C923.5,258.711 923.5,290.278 923.5,321.731 " fill="none" id="ProductionCode-backto-Product" style="stroke:#181818;stroke-width:1.0;"/><polygon fill="#181818" points="923.5,229.216,919.5,238.216,923.5,234.216,927.5,238.216,923.5,229.216" style="stroke:#181818;stroke-width:1.0;"/><text fill="#000000" font-family="sans-serif" font-size="13" lengthAdjust="spacing" textLength="54" x="924.5" y="288.0669">contains</text></g><!--MD5=[ff15b0f381cf9038de160e1ef28f954c]
reverse link Barcode to Product--><g id="link_Barcode_Product"><path codeLine="93" d="M754.576,233.396 C773.613,257.919 798.427,289.884 823.15,321.731 " fill="none" id="Barcode-backto-Product" style="stroke:#181818;stroke-width:1.0;"/><polygon fill="#181818" points="751.331,229.216,753.6892,238.7784,754.3966,233.1659,760.0091,233.8733,751.331,229.216" style="stroke:#181818;stroke-width:1.0;"/><text fill="#000000" font-family="sans-serif" font-size="13" lengthAdjust="spacing" textLength="54" x="799.5" y="288.0669">contains</text></g><!--MD5=[993dd7c08c8e74f30a44ac59b63679f5]
reverse link Reference to Product--><g id="link_Reference_Product"><path codeLine="94" d="M1102.66,233.092 C1082.46,257.655 1056.07,289.752 1029.78,321.731 " fill="none" id="Reference-backto-Product" style="stroke:#181818;stroke-width:1.0;"/><polygon fill="#181818" points="1105.85,229.216,1097.0414,233.6216,1102.6719,233.076,1103.2175,238.7065,1105.85,229.216" style="stroke:#181818;stroke-width:1.0;"/><text fill="#000000" font-family="sans-serif" font-size="13" lengthAdjust="spacing" textLength="54" x="1064.5" y="288.0669">contains</text></g><!--MD5=[41043388d0f8d1cf0966079386e80353]
link Product to Category--><g id="link_Product_Category"><path codeLine="95" d="M1178.51,341.034 C1257.46,316.478 1345.62,298.764 1429,303 C1512.21,307.228 1538.96,289.082 1615.5,322 C1652.15,337.762 1686.42,365.706 1713.02,391.657 " fill="none" id="Product-to-Category" style="stroke:#181818;stroke-width:1.0;"/><polygon fill="#181818" points="1716.89,395.47,1713.2951,386.3007,1713.3317,391.9574,1707.675,391.9939,1716.89,395.47" style="stroke:#181818;stroke-width:1.0;"/><text fill="#000000" font-family="sans-serif" font-size="13" lengthAdjust="spacing" textLength="23" x="1405" y="288.0669">has</text></g><!--MD5=[89ad5ffdac7ae85fdaeeb304886b7c4c]
link Product to ProductDescription--><g id="link_Product_ProductDescription"><path codeLine="96" d="M1178.87,452 C1207.8,452 1236.72,452 1264.14,452 " fill="none" id="Product-to-ProductDescription" style="stroke:#181818;stroke-width:1.0;"/><polygon fill="#181818" points="1269.24,452,1260.24,448,1264.24,452,1260.24,456,1269.24,452" style="stroke:#181818;stroke-width:1.0;"/><text fill="#000000" font-family="sans-serif" font-size="13" lengthAdjust="spacing" textLength="54" x="1197" y="445.0669">contains</text></g><!--MD5=[0821e12892cf20577cca50dd9d3655ef]
link Product to InternalCode--><g id="link_Product_InternalCode"><path codeLine="97" d="M681.343,582.026 C669.75,591.545 658.708,601.542 648.5,612 C632.374,628.521 619.515,650.62 610.208,670.069 " fill="none" id="Product-to-InternalCode" style="stroke:#181818;stroke-width:1.0;"/><polygon fill="#181818" points="607.918,674.951,615.3606,668.5006,610.0408,670.424,608.1174,665.1042,607.918,674.951" style="stroke:#181818;stroke-width:1.0;"/><text fill="#000000" font-family="sans-serif" font-size="13" lengthAdjust="spacing" textLength="54" x="649.5" y="625.0669">contains</text></g><!--MD5=[6d7965a00bdd39b2a3da0d6873de6758]
link Product to StorageArea--><g id="link_Product_StorageArea"><path codeLine="98" d="M892.369,582.218 C886.342,607.234 880.297,632.325 875.117,653.827 " fill="none" id="Product-to-StorageArea" style="stroke:#181818;stroke-width:1.0;"/><polygon fill="#181818" points="873.888,658.928,879.885,651.1155,875.0593,654.0671,872.1076,649.2414,873.888,658.928" style="stroke:#181818;stroke-width:1.0;"/><text fill="#000000" font-family="sans-serif" font-size="13" lengthAdjust="spacing" textLength="23" x="886.5" y="625.0669">has</text></g><!--MD5=[2c8d4d1303df2b5819d68c474992445d]
@startuml
skinparam classAttributeIconSize 0
Class "SpecifyNewProductUI"{
+doShow()
}


class Product {
StorageArea storageArea;
String photo;
Designation name;
Category category;
Description description;
Brand brand;
Price price;
Reference reference;
InternalCode internalCode;
ProductionCode productionCode;
Barcode barcode;
+product(storageArea,category,name,photo,description,brand,price,\nreference,internalCode,ProductionCode,barcode)
}

class Brand {
String brandName
+brand(brandName)
}

class ProductDescription {
String shortDescription;
String extendedDescription;
String technicalDescription;
+productDescription(shortDescription,\n extendedDescription,technicalDescription)
}
class ProductionCode{
String code;
+productionCode(code)
}
class InternalCode{
String code;
+internalCode(code);
}
class Barcode {
String barcode;
+barcode(barcode)
}
class Reference{
String reference;
+reference(reference)
}
class Category {
AlphanumericCode code;
Designation name;
Description description;
+category(code,name,description);
}
class StorageArea {
int AisleId;
int RowId;
int ShelfNumber;
+storageArea(aisleId,rowId,shelfNumber
}
Class "SpecifyNewProductController"{
+newWarehouseInfo()
+categories()
+specifyNewProduct(storageArea,category,name,photo,description,brand,price,\nreference,internalCode,ProductionCode,barcode)
}

class PersistenceContext {
-Logger LOGGER
-RepositoryFactory theFactory
+repositories()
}

class RepositoryFactory{
+categories()
+products()
}

class ProductRepository{
}

class CategoryRepository{
+findAll();
}
SpecifyNewProductUI ..> SpecifyNewProductController
SpecifyNewProductController -d-> PersistenceContext : creates
PersistenceContext -d-> RepositoryFactory : creates
RepositoryFactory -d-> CategoryRepository : creates
RepositoryFactory -> ProductRepository : creates
SpecifyNewProductController -d-> Product : saves
Product -l-> Brand : contains
Product -d-> ProductRepository : in
Product -u-> ProductionCode : contains
Product -u-> Barcode : contains
Product -u-> Reference : contains
Product -> Category : has
Product -> ProductDescription : contains
Product -d-> InternalCode : contains
Product -d-> StorageArea : has
@enduml

PlantUML version 1.2022.4beta2(Unknown compile time)
(GPL source distribution)
Java Runtime: Java(TM) SE Runtime Environment
JVM: Java HotSpot(TM) 64-Bit Server VM
Default Encoding: UTF-8
Language: en
Country: US
--></g></svg>