<?xml version="1.0" encoding="UTF-8" standalone="no"?><svg xmlns="http://www.w3.org/2000/svg" xmlns:xlink="http://www.w3.org/1999/xlink" contentStyleType="text/css" height="1684px" preserveAspectRatio="none" style="width:2303px;height:1684px;background:#FFFFFF;" version="1.1" viewBox="0 0 2303 1684" width="2303px" zoomAndPan="magnify"><defs/><g><rect height="26.2969" style="stroke:#00000000;stroke-width:1.0;fill:none;" width="242" x="1029.75" y="10"/><text fill="#000000" font-family="sans-serif" font-size="14" font-weight="bold" lengthAdjust="spacing" textLength="232" x="1034.75" y="27.9951">Specify new product for sale</text><rect fill="#FFFFFF" height="1514.7813" style="stroke:#181818;stroke-width:1.0;" width="10" x="41.5" y="99.8906"/><rect fill="#FFFFFF" height="117.3984" style="stroke:#181818;stroke-width:1.0;" width="10" x="624.5" y="121.0234"/><rect fill="#FFFFFF" height="88.2656" style="stroke:#181818;stroke-width:1.0;" width="10" x="624.5" y="309.6875"/><rect fill="#FFFFFF" height="88.2656" style="stroke:#181818;stroke-width:1.0;" width="10" x="624.5" y="469.2188"/><rect fill="#FFFFFF" height="175.6641" style="stroke:#181818;stroke-width:1.0;" width="10" x="624.5" y="628.75"/><rect fill="#FFFFFF" height="708.7266" style="stroke:#181818;stroke-width:1.0;" width="10" x="624.5" y="905.9453"/><rect fill="#FFFFFF" height="30" style="stroke:#181818;stroke-width:1.0;" width="10" x="758.5" y="179.2891"/><rect fill="#FFFFFF" height="30" style="stroke:#181818;stroke-width:1.0;" width="10" x="758.5" y="338.8203"/><rect fill="#FFFFFF" height="30" style="stroke:#181818;stroke-width:1.0;" width="10" x="758.5" y="498.3516"/><rect fill="#FFFFFF" height="88.2656" style="stroke:#181818;stroke-width:1.0;" width="10" x="868.5" y="657.8828"/><rect fill="#FFFFFF" height="88.2656" style="stroke:#181818;stroke-width:1.0;" width="10" x="868.5" y="1467.2734"/><rect fill="#FFFFFF" height="59.1328" style="stroke:#181818;stroke-width:1.0;" width="10" x="978.5" y="687.0156"/><rect fill="#FFFFFF" height="59.1328" style="stroke:#181818;stroke-width:1.0;" width="10" x="978.5" y="1496.4063"/><rect fill="#FFFFFF" height="59.1328" style="stroke:#181818;stroke-width:1.0;" width="10" x="1108" y="716.1484"/><rect fill="#FFFFFF" height="30" style="stroke:#181818;stroke-width:1.0;" width="10" x="1377.5" y="935.0781"/><rect fill="#FFFFFF" height="30" style="stroke:#181818;stroke-width:1.0;" width="10" x="1505" y="994.2109"/><rect fill="#FFFFFF" height="30" style="stroke:#181818;stroke-width:1.0;" width="10" x="1625" y="1053.3438"/><rect fill="#FFFFFF" height="30" style="stroke:#181818;stroke-width:1.0;" width="10" x="1693" y="1112.4766"/><rect fill="#FFFFFF" height="30" style="stroke:#181818;stroke-width:1.0;" width="10" x="1777.5" y="1171.6094"/><rect fill="#FFFFFF" height="30" style="stroke:#181818;stroke-width:1.0;" width="10" x="1883" y="1230.7422"/><rect fill="#FFFFFF" height="30" style="stroke:#181818;stroke-width:1.0;" width="10" x="1979" y="1289.875"/><rect fill="#FFFFFF" height="30" style="stroke:#181818;stroke-width:1.0;" width="10" x="2065.5" y="1349.0078"/><rect fill="#FFFFFF" height="30" style="stroke:#181818;stroke-width:1.0;" width="10" x="2152" y="1408.1406"/><rect fill="#FFFFFF" height="30" style="stroke:#181818;stroke-width:1.0;" width="10" x="2246" y="1525.5391"/><rect fill="#FFFFFF" height="30" style="stroke:#181818;stroke-width:1.0;" width="10" x="2246" y="1584.6719"/><line style="stroke:#181818;stroke-width:0.5;stroke-dasharray:5.0,5.0;" x1="46" x2="46" y1="89.8906" y2="1632.6719"/><line style="stroke:#181818;stroke-width:0.5;stroke-dasharray:5.0,5.0;" x1="629" x2="629" y1="89.8906" y2="1632.6719"/><line style="stroke:#181818;stroke-width:0.5;stroke-dasharray:5.0,5.0;" x1="763.5" x2="763.5" y1="89.8906" y2="1632.6719"/><line style="stroke:#181818;stroke-width:0.5;stroke-dasharray:5.0,5.0;" x1="873.5" x2="873.5" y1="89.8906" y2="1632.6719"/><line style="stroke:#181818;stroke-width:0.5;stroke-dasharray:5.0,5.0;" x1="983.5" x2="983.5" y1="89.8906" y2="1632.6719"/><line style="stroke:#181818;stroke-width:0.5;stroke-dasharray:5.0,5.0;" x1="1112.5" x2="1112.5" y1="89.8906" y2="1632.6719"/><line style="stroke:#181818;stroke-width:0.5;stroke-dasharray:5.0,5.0;" x1="1263.5" x2="1263.5" y1="89.8906" y2="1632.6719"/><line style="stroke:#181818;stroke-width:0.5;stroke-dasharray:5.0,5.0;" x1="1382.5" x2="1382.5" y1="89.8906" y2="1632.6719"/><line style="stroke:#181818;stroke-width:0.5;stroke-dasharray:5.0,5.0;" x1="1509.5" x2="1509.5" y1="89.8906" y2="1632.6719"/><line style="stroke:#181818;stroke-width:0.5;stroke-dasharray:5.0,5.0;" x1="1629.5" x2="1629.5" y1="89.8906" y2="1632.6719"/><line style="stroke:#181818;stroke-width:0.5;stroke-dasharray:5.0,5.0;" x1="1697.5" x2="1697.5" y1="89.8906" y2="1632.6719"/><line style="stroke:#181818;stroke-width:0.5;stroke-dasharray:5.0,5.0;" x1="1782.5" x2="1782.5" y1="89.8906" y2="1632.6719"/><line style="stroke:#181818;stroke-width:0.5;stroke-dasharray:5.0,5.0;" x1="1887.5" x2="1887.5" y1="89.8906" y2="1632.6719"/><line style="stroke:#181818;stroke-width:0.5;stroke-dasharray:5.0,5.0;" x1="1983.5" x2="1983.5" y1="89.8906" y2="1632.6719"/><line style="stroke:#181818;stroke-width:0.5;stroke-dasharray:5.0,5.0;" x1="2070.5" x2="2070.5" y1="89.8906" y2="1632.6719"/><line style="stroke:#181818;stroke-width:0.5;stroke-dasharray:5.0,5.0;" x1="2156.5" x2="2156.5" y1="89.8906" y2="1632.6719"/><line style="stroke:#181818;stroke-width:0.5;stroke-dasharray:5.0,5.0;" x1="2250.5" x2="2250.5" y1="89.8906" y2="1632.6719"/><rect fill="#E2E2F0" height="46.5938" rx="2.5" ry="2.5" style="stroke:#181818;stroke-width:0.5;" width="83" x="5" y="42.2969"/><text fill="#000000" font-family="sans-serif" font-size="14" lengthAdjust="spacing" textLength="59" x="17" y="62.292">:Specify</text><text fill="#000000" font-family="sans-serif" font-size="14" lengthAdjust="spacing" textLength="69" x="12" y="78.5889">ProductUI</text><rect fill="#E2E2F0" height="46.5938" rx="2.5" ry="2.5" style="stroke:#181818;stroke-width:0.5;" width="83" x="5" y="1631.6719"/><text fill="#000000" font-family="sans-serif" font-size="14" lengthAdjust="spacing" textLength="59" x="17" y="1651.667">:Specify</text><text fill="#000000" font-family="sans-serif" font-size="14" lengthAdjust="spacing" textLength="69" x="12" y="1667.9639">ProductUI</text><rect fill="#E2E2F0" height="46.5938" rx="2.5" ry="2.5" style="stroke:#181818;stroke-width:0.5;" width="129" x="565" y="42.2969"/><text fill="#000000" font-family="sans-serif" font-size="14" lengthAdjust="spacing" textLength="115" x="572" y="62.292">:SpecifyProduct</text><text fill="#000000" font-family="sans-serif" font-size="14" lengthAdjust="spacing" textLength="73" x="593" y="78.5889">Controller</text><rect fill="#E2E2F0" height="46.5938" rx="2.5" ry="2.5" style="stroke:#181818;stroke-width:0.5;" width="129" x="565" y="1631.6719"/><text fill="#000000" font-family="sans-serif" font-size="14" lengthAdjust="spacing" textLength="115" x="572" y="1651.667">:SpecifyProduct</text><text fill="#000000" font-family="sans-serif" font-size="14" lengthAdjust="spacing" textLength="73" x="593" y="1667.9639">Controller</text><rect fill="#E2E2F0" height="46.5938" rx="2.5" ry="2.5" style="stroke:#181818;stroke-width:0.5;" width="98" x="714.5" y="42.2969"/><text fill="#000000" font-family="sans-serif" font-size="14" lengthAdjust="spacing" textLength="84" x="721.5" y="62.292">:Warehouse</text><text fill="#000000" font-family="sans-serif" font-size="14" lengthAdjust="spacing" textLength="28" x="749.5" y="78.5889">Info</text><rect fill="#E2E2F0" height="46.5938" rx="2.5" ry="2.5" style="stroke:#181818;stroke-width:0.5;" width="98" x="714.5" y="1631.6719"/><text fill="#000000" font-family="sans-serif" font-size="14" lengthAdjust="spacing" textLength="84" x="721.5" y="1651.667">:Warehouse</text><text fill="#000000" font-family="sans-serif" font-size="14" lengthAdjust="spacing" textLength="28" x="749.5" y="1667.9639">Info</text><rect fill="#E2E2F0" height="46.5938" rx="2.5" ry="2.5" style="stroke:#181818;stroke-width:0.5;" width="102" x="822.5" y="42.2969"/><text fill="#000000" font-family="sans-serif" font-size="14" lengthAdjust="spacing" textLength="88" x="829.5" y="62.292">:Persistance</text><text fill="#000000" font-family="sans-serif" font-size="14" lengthAdjust="spacing" textLength="59" x="844" y="78.5889">Context</text><rect fill="#E2E2F0" height="46.5938" rx="2.5" ry="2.5" style="stroke:#181818;stroke-width:0.5;" width="102" x="822.5" y="1631.6719"/><text fill="#000000" font-family="sans-serif" font-size="14" lengthAdjust="spacing" textLength="88" x="829.5" y="1651.667">:Persistance</text><text fill="#000000" font-family="sans-serif" font-size="14" lengthAdjust="spacing" textLength="59" x="844" y="1667.9639">Context</text><rect fill="#E2E2F0" height="46.5938" rx="2.5" ry="2.5" style="stroke:#181818;stroke-width:0.5;" width="98" x="934.5" y="42.2969"/><text fill="#000000" font-family="sans-serif" font-size="14" lengthAdjust="spacing" textLength="84" x="941.5" y="62.292">:Repository</text><text fill="#000000" font-family="sans-serif" font-size="14" lengthAdjust="spacing" textLength="54" x="956.5" y="78.5889">Factory</text><rect fill="#E2E2F0" height="46.5938" rx="2.5" ry="2.5" style="stroke:#181818;stroke-width:0.5;" width="98" x="934.5" y="1631.6719"/><text fill="#000000" font-family="sans-serif" font-size="14" lengthAdjust="spacing" textLength="84" x="941.5" y="1651.667">:Repository</text><text fill="#000000" font-family="sans-serif" font-size="14" lengthAdjust="spacing" textLength="54" x="956.5" y="1667.9639">Factory</text><rect fill="#E2E2F0" height="46.5938" rx="2.5" ry="2.5" style="stroke:#181818;stroke-width:0.5;" width="141" x="1042.5" y="42.2969"/><text fill="#000000" font-family="sans-serif" font-size="14" lengthAdjust="spacing" textLength="127" x="1049.5" y="62.292">:ProductCategory</text><text fill="#000000" font-family="sans-serif" font-size="14" lengthAdjust="spacing" textLength="54" x="1086" y="78.5889">Factory</text><rect fill="#E2E2F0" height="46.5938" rx="2.5" ry="2.5" style="stroke:#181818;stroke-width:0.5;" width="141" x="1042.5" y="1631.6719"/><text fill="#000000" font-family="sans-serif" font-size="14" lengthAdjust="spacing" textLength="127" x="1049.5" y="1651.667">:ProductCategory</text><text fill="#000000" font-family="sans-serif" font-size="14" lengthAdjust="spacing" textLength="54" x="1086" y="1667.9639">Factory</text><rect fill="#E2E2F0" height="46.5938" rx="2.5" ry="2.5" style="stroke:#181818;stroke-width:0.5;" width="141" x="1193.5" y="42.2969"/><text fill="#000000" font-family="sans-serif" font-size="14" lengthAdjust="spacing" textLength="127" x="1200.5" y="62.292">:ProductCategory</text><text fill="#000000" font-family="sans-serif" font-size="14" lengthAdjust="spacing" textLength="79" x="1224.5" y="78.5889">Repository</text><rect fill="#E2E2F0" height="46.5938" rx="2.5" ry="2.5" style="stroke:#181818;stroke-width:0.5;" width="141" x="1193.5" y="1631.6719"/><text fill="#000000" font-family="sans-serif" font-size="14" lengthAdjust="spacing" textLength="127" x="1200.5" y="1651.667">:ProductCategory</text><text fill="#000000" font-family="sans-serif" font-size="14" lengthAdjust="spacing" textLength="79" x="1224.5" y="1667.9639">Repository</text><rect fill="#E2E2F0" height="46.5938" rx="2.5" ry="2.5" style="stroke:#181818;stroke-width:0.5;" width="76" x="1344.5" y="42.2969"/><text fill="#000000" font-family="sans-serif" font-size="14" lengthAdjust="spacing" textLength="62" x="1351.5" y="62.292">:Storage</text><text fill="#000000" font-family="sans-serif" font-size="14" lengthAdjust="spacing" textLength="33" x="1366" y="78.5889">Area</text><rect fill="#E2E2F0" height="46.5938" rx="2.5" ry="2.5" style="stroke:#181818;stroke-width:0.5;" width="76" x="1344.5" y="1631.6719"/><text fill="#000000" font-family="sans-serif" font-size="14" lengthAdjust="spacing" textLength="62" x="1351.5" y="1651.667">:Storage</text><text fill="#000000" font-family="sans-serif" font-size="14" lengthAdjust="spacing" textLength="33" x="1366" y="1667.9639">Area</text><rect fill="#E2E2F0" height="30.2969" rx="2.5" ry="2.5" style="stroke:#181818;stroke-width:0.5;" width="159" x="1430.5" y="58.5938"/><text fill="#000000" font-family="sans-serif" font-size="14" lengthAdjust="spacing" textLength="145" x="1437.5" y="78.5889">:ProductDescription</text><rect fill="#E2E2F0" height="30.2969" rx="2.5" ry="2.5" style="stroke:#181818;stroke-width:0.5;" width="159" x="1430.5" y="1631.6719"/><text fill="#000000" font-family="sans-serif" font-size="14" lengthAdjust="spacing" textLength="145" x="1437.5" y="1651.667">:ProductDescription</text><rect fill="#E2E2F0" height="30.2969" rx="2.5" ry="2.5" style="stroke:#181818;stroke-width:0.5;" width="61" x="1599.5" y="58.5938"/><text fill="#000000" font-family="sans-serif" font-size="14" lengthAdjust="spacing" textLength="47" x="1606.5" y="78.5889">:Brand</text><rect fill="#E2E2F0" height="30.2969" rx="2.5" ry="2.5" style="stroke:#181818;stroke-width:0.5;" width="61" x="1599.5" y="1631.6719"/><text fill="#000000" font-family="sans-serif" font-size="14" lengthAdjust="spacing" textLength="47" x="1606.5" y="1651.667">:Brand</text><rect fill="#E2E2F0" height="30.2969" rx="2.5" ry="2.5" style="stroke:#181818;stroke-width:0.5;" width="55" x="1670.5" y="58.5938"/><text fill="#000000" font-family="sans-serif" font-size="14" lengthAdjust="spacing" textLength="41" x="1677.5" y="78.5889">:Price</text><rect fill="#E2E2F0" height="30.2969" rx="2.5" ry="2.5" style="stroke:#181818;stroke-width:0.5;" width="55" x="1670.5" y="1631.6719"/><text fill="#000000" font-family="sans-serif" font-size="14" lengthAdjust="spacing" textLength="41" x="1677.5" y="1651.667">:Price</text><rect fill="#E2E2F0" height="30.2969" rx="2.5" ry="2.5" style="stroke:#181818;stroke-width:0.5;" width="94" x="1735.5" y="58.5938"/><text fill="#000000" font-family="sans-serif" font-size="14" lengthAdjust="spacing" textLength="80" x="1742.5" y="78.5889">:Reference</text><rect fill="#E2E2F0" height="30.2969" rx="2.5" ry="2.5" style="stroke:#181818;stroke-width:0.5;" width="94" x="1735.5" y="1631.6719"/><text fill="#000000" font-family="sans-serif" font-size="14" lengthAdjust="spacing" textLength="80" x="1742.5" y="1651.667">:Reference</text><rect fill="#E2E2F0" height="46.5938" rx="2.5" ry="2.5" style="stroke:#181818;stroke-width:0.5;" width="97" x="1839.5" y="42.2969"/><text fill="#000000" font-family="sans-serif" font-size="14" lengthAdjust="spacing" textLength="83" x="1846.5" y="62.292">:Production</text><text fill="#000000" font-family="sans-serif" font-size="14" lengthAdjust="spacing" textLength="37" x="1869.5" y="78.5889">Code</text><rect fill="#E2E2F0" height="46.5938" rx="2.5" ry="2.5" style="stroke:#181818;stroke-width:0.5;" width="97" x="1839.5" y="1631.6719"/><text fill="#000000" font-family="sans-serif" font-size="14" lengthAdjust="spacing" textLength="83" x="1846.5" y="1651.667">:Production</text><text fill="#000000" font-family="sans-serif" font-size="14" lengthAdjust="spacing" textLength="37" x="1869.5" y="1667.9639">Code</text><rect fill="#E2E2F0" height="46.5938" rx="2.5" ry="2.5" style="stroke:#181818;stroke-width:0.5;" width="75" x="1946.5" y="42.2969"/><text fill="#000000" font-family="sans-serif" font-size="14" lengthAdjust="spacing" textLength="61" x="1953.5" y="62.292">:Internal</text><text fill="#000000" font-family="sans-serif" font-size="14" lengthAdjust="spacing" textLength="37" x="1965.5" y="78.5889">Code</text><rect fill="#E2E2F0" height="46.5938" rx="2.5" ry="2.5" style="stroke:#181818;stroke-width:0.5;" width="75" x="1946.5" y="1631.6719"/><text fill="#000000" font-family="sans-serif" font-size="14" lengthAdjust="spacing" textLength="61" x="1953.5" y="1651.667">:Internal</text><text fill="#000000" font-family="sans-serif" font-size="14" lengthAdjust="spacing" textLength="37" x="1965.5" y="1667.9639">Code</text><rect fill="#E2E2F0" height="30.2969" rx="2.5" ry="2.5" style="stroke:#181818;stroke-width:0.5;" width="78" x="2031.5" y="58.5938"/><text fill="#000000" font-family="sans-serif" font-size="14" lengthAdjust="spacing" textLength="64" x="2038.5" y="78.5889">:Barcode</text><rect fill="#E2E2F0" height="30.2969" rx="2.5" ry="2.5" style="stroke:#181818;stroke-width:0.5;" width="78" x="2031.5" y="1631.6719"/><text fill="#000000" font-family="sans-serif" font-size="14" lengthAdjust="spacing" textLength="64" x="2038.5" y="1651.667">:Barcode</text><rect fill="#E2E2F0" height="30.2969" rx="2.5" ry="2.5" style="stroke:#181818;stroke-width:0.5;" width="75" x="2119.5" y="58.5938"/><text fill="#000000" font-family="sans-serif" font-size="14" lengthAdjust="spacing" textLength="61" x="2126.5" y="78.5889">:Product</text><rect fill="#E2E2F0" height="30.2969" rx="2.5" ry="2.5" style="stroke:#181818;stroke-width:0.5;" width="75" x="2119.5" y="1631.6719"/><text fill="#000000" font-family="sans-serif" font-size="14" lengthAdjust="spacing" textLength="61" x="2126.5" y="1651.667">:Product</text><rect fill="#E2E2F0" height="46.5938" rx="2.5" ry="2.5" style="stroke:#181818;stroke-width:0.5;" width="93" x="2204.5" y="42.2969"/><text fill="#000000" font-family="sans-serif" font-size="14" lengthAdjust="spacing" textLength="61" x="2220.5" y="62.292">:Product</text><text fill="#000000" font-family="sans-serif" font-size="14" lengthAdjust="spacing" textLength="79" x="2211.5" y="78.5889">Repository</text><rect fill="#E2E2F0" height="46.5938" rx="2.5" ry="2.5" style="stroke:#181818;stroke-width:0.5;" width="93" x="2204.5" y="1631.6719"/><text fill="#000000" font-family="sans-serif" font-size="14" lengthAdjust="spacing" textLength="61" x="2220.5" y="1651.667">:Product</text><text fill="#000000" font-family="sans-serif" font-size="14" lengthAdjust="spacing" textLength="79" x="2211.5" y="1667.9639">Repository</text><rect fill="#FFFFFF" height="1514.7813" style="stroke:#181818;stroke-width:1.0;" width="10" x="41.5" y="99.8906"/><rect fill="#FFFFFF" height="117.3984" style="stroke:#181818;stroke-width:1.0;" width="10" x="624.5" y="121.0234"/><rect fill="#FFFFFF" height="88.2656" style="stroke:#181818;stroke-width:1.0;" width="10" x="624.5" y="309.6875"/><rect fill="#FFFFFF" height="88.2656" style="stroke:#181818;stroke-width:1.0;" width="10" x="624.5" y="469.2188"/><rect fill="#FFFFFF" height="175.6641" style="stroke:#181818;stroke-width:1.0;" width="10" x="624.5" y="628.75"/><rect fill="#FFFFFF" height="708.7266" style="stroke:#181818;stroke-width:1.0;" width="10" x="624.5" y="905.9453"/><rect fill="#FFFFFF" height="30" style="stroke:#181818;stroke-width:1.0;" width="10" x="758.5" y="179.2891"/><rect fill="#FFFFFF" height="30" style="stroke:#181818;stroke-width:1.0;" width="10" x="758.5" y="338.8203"/><rect fill="#FFFFFF" height="30" style="stroke:#181818;stroke-width:1.0;" width="10" x="758.5" y="498.3516"/><rect fill="#FFFFFF" height="88.2656" style="stroke:#181818;stroke-width:1.0;" width="10" x="868.5" y="657.8828"/><rect fill="#FFFFFF" height="88.2656" style="stroke:#181818;stroke-width:1.0;" width="10" x="868.5" y="1467.2734"/><rect fill="#FFFFFF" height="59.1328" style="stroke:#181818;stroke-width:1.0;" width="10" x="978.5" y="687.0156"/><rect fill="#FFFFFF" height="59.1328" style="stroke:#181818;stroke-width:1.0;" width="10" x="978.5" y="1496.4063"/><rect fill="#FFFFFF" height="59.1328" style="stroke:#181818;stroke-width:1.0;" width="10" x="1108" y="716.1484"/><rect fill="#FFFFFF" height="30" style="stroke:#181818;stroke-width:1.0;" width="10" x="1377.5" y="935.0781"/><rect fill="#FFFFFF" height="30" style="stroke:#181818;stroke-width:1.0;" width="10" x="1505" y="994.2109"/><rect fill="#FFFFFF" height="30" style="stroke:#181818;stroke-width:1.0;" width="10" x="1625" y="1053.3438"/><rect fill="#FFFFFF" height="30" style="stroke:#181818;stroke-width:1.0;" width="10" x="1693" y="1112.4766"/><rect fill="#FFFFFF" height="30" style="stroke:#181818;stroke-width:1.0;" width="10" x="1777.5" y="1171.6094"/><rect fill="#FFFFFF" height="30" style="stroke:#181818;stroke-width:1.0;" width="10" x="1883" y="1230.7422"/><rect fill="#FFFFFF" height="30" style="stroke:#181818;stroke-width:1.0;" width="10" x="1979" y="1289.875"/><rect fill="#FFFFFF" height="30" style="stroke:#181818;stroke-width:1.0;" width="10" x="2065.5" y="1349.0078"/><rect fill="#FFFFFF" height="30" style="stroke:#181818;stroke-width:1.0;" width="10" x="2152" y="1408.1406"/><rect fill="#FFFFFF" height="30" style="stroke:#181818;stroke-width:1.0;" width="10" x="2246" y="1525.5391"/><rect fill="#FFFFFF" height="30" style="stroke:#181818;stroke-width:1.0;" width="10" x="2246" y="1584.6719"/><polygon fill="#181818" points="612.5,117.0234,622.5,121.0234,612.5,125.0234,616.5,121.0234" style="stroke:#181818;stroke-width:1.0;"/><line style="stroke:#181818;stroke-width:1.0;" x1="51.5" x2="618.5" y1="121.0234" y2="121.0234"/><text fill="#000000" font-family="sans-serif" font-size="13" lengthAdjust="spacing" textLength="41" x="58.5" y="115.9575">create</text><polygon fill="#181818" points="612.5,146.1563,622.5,150.1563,612.5,154.1563,616.5,150.1563" style="stroke:#181818;stroke-width:1.0;"/><line style="stroke:#181818;stroke-width:1.0;" x1="51.5" x2="618.5" y1="150.1563" y2="150.1563"/><text fill="#000000" font-family="sans-serif" font-size="13" lengthAdjust="spacing" textLength="58" x="58.5" y="145.0903">getAisles</text><polygon fill="#181818" points="746.5,175.2891,756.5,179.2891,746.5,183.2891,750.5,179.2891" style="stroke:#181818;stroke-width:1.0;"/><line style="stroke:#181818;stroke-width:1.0;" x1="634.5" x2="752.5" y1="179.2891" y2="179.2891"/><text fill="#000000" font-family="sans-serif" font-size="13" lengthAdjust="spacing" textLength="68" x="641.5" y="174.2231">getAisles()</text><polygon fill="#181818" points="62.5,234.4219,52.5,238.4219,62.5,242.4219,58.5,238.4219" style="stroke:#181818;stroke-width:1.0;"/><line style="stroke:#181818;stroke-width:1.0;stroke-dasharray:2.0,2.0;" x1="56.5" x2="628.5" y1="238.4219" y2="238.4219"/><text fill="#000000" font-family="sans-serif" font-size="13" lengthAdjust="spacing" textLength="37" x="68.5" y="233.356">Aisles</text><line style="stroke:#181818;stroke-width:1.0;" x1="51.5" x2="93.5" y1="267.5547" y2="267.5547"/><line style="stroke:#181818;stroke-width:1.0;" x1="93.5" x2="93.5" y1="267.5547" y2="280.5547"/><line style="stroke:#181818;stroke-width:1.0;" x1="52.5" x2="93.5" y1="280.5547" y2="280.5547"/><polygon fill="#181818" points="62.5,276.5547,52.5,280.5547,62.5,284.5547,58.5,280.5547" style="stroke:#181818;stroke-width:1.0;"/><text fill="#000000" font-family="sans-serif" font-size="13" lengthAdjust="spacing" textLength="61" x="58.5" y="262.4888">doShow()</text><polygon fill="#181818" points="612.5,305.6875,622.5,309.6875,612.5,313.6875,616.5,309.6875" style="stroke:#181818;stroke-width:1.0;"/><line style="stroke:#181818;stroke-width:1.0;" x1="51.5" x2="618.5" y1="309.6875" y2="309.6875"/><text fill="#000000" font-family="sans-serif" font-size="13" lengthAdjust="spacing" textLength="95" x="58.5" y="304.6216">getRows(aisle)</text><polygon fill="#181818" points="746.5,334.8203,756.5,338.8203,746.5,342.8203,750.5,338.8203" style="stroke:#181818;stroke-width:1.0;"/><line style="stroke:#181818;stroke-width:1.0;" x1="634.5" x2="752.5" y1="338.8203" y2="338.8203"/><text fill="#000000" font-family="sans-serif" font-size="13" lengthAdjust="spacing" textLength="95" x="641.5" y="333.7544">getRows(aisle)</text><polygon fill="#181818" points="62.5,393.9531,52.5,397.9531,62.5,401.9531,58.5,397.9531" style="stroke:#181818;stroke-width:1.0;"/><line style="stroke:#181818;stroke-width:1.0;stroke-dasharray:2.0,2.0;" x1="56.5" x2="628.5" y1="397.9531" y2="397.9531"/><text fill="#000000" font-family="sans-serif" font-size="13" lengthAdjust="spacing" textLength="35" x="68.5" y="392.8872">Rows</text><line style="stroke:#181818;stroke-width:1.0;" x1="51.5" x2="93.5" y1="427.0859" y2="427.0859"/><line style="stroke:#181818;stroke-width:1.0;" x1="93.5" x2="93.5" y1="427.0859" y2="440.0859"/><line style="stroke:#181818;stroke-width:1.0;" x1="52.5" x2="93.5" y1="440.0859" y2="440.0859"/><polygon fill="#181818" points="62.5,436.0859,52.5,440.0859,62.5,444.0859,58.5,440.0859" style="stroke:#181818;stroke-width:1.0;"/><text fill="#000000" font-family="sans-serif" font-size="13" lengthAdjust="spacing" textLength="61" x="58.5" y="422.02">doShow()</text><polygon fill="#181818" points="612.5,465.2188,622.5,469.2188,612.5,473.2188,616.5,469.2188" style="stroke:#181818;stroke-width:1.0;"/><line style="stroke:#181818;stroke-width:1.0;" x1="51.5" x2="618.5" y1="469.2188" y2="469.2188"/><text fill="#000000" font-family="sans-serif" font-size="13" lengthAdjust="spacing" textLength="105" x="58.5" y="464.1528">getShelves(row)</text><polygon fill="#181818" points="746.5,494.3516,756.5,498.3516,746.5,502.3516,750.5,498.3516" style="stroke:#181818;stroke-width:1.0;"/><line style="stroke:#181818;stroke-width:1.0;" x1="634.5" x2="752.5" y1="498.3516" y2="498.3516"/><text fill="#000000" font-family="sans-serif" font-size="13" lengthAdjust="spacing" textLength="105" x="641.5" y="493.2856">getShelves(row)</text><polygon fill="#181818" points="62.5,553.4844,52.5,557.4844,62.5,561.4844,58.5,557.4844" style="stroke:#181818;stroke-width:1.0;"/><line style="stroke:#181818;stroke-width:1.0;stroke-dasharray:2.0,2.0;" x1="56.5" x2="628.5" y1="557.4844" y2="557.4844"/><text fill="#000000" font-family="sans-serif" font-size="13" lengthAdjust="spacing" textLength="32" x="68.5" y="552.4185">Shelf</text><line style="stroke:#181818;stroke-width:1.0;" x1="51.5" x2="93.5" y1="586.6172" y2="586.6172"/><line style="stroke:#181818;stroke-width:1.0;" x1="93.5" x2="93.5" y1="586.6172" y2="599.6172"/><line style="stroke:#181818;stroke-width:1.0;" x1="52.5" x2="93.5" y1="599.6172" y2="599.6172"/><polygon fill="#181818" points="62.5,595.6172,52.5,599.6172,62.5,603.6172,58.5,599.6172" style="stroke:#181818;stroke-width:1.0;"/><text fill="#000000" font-family="sans-serif" font-size="13" lengthAdjust="spacing" textLength="61" x="58.5" y="581.5513">doShow()</text><polygon fill="#181818" points="612.5,624.75,622.5,628.75,612.5,632.75,616.5,628.75" style="stroke:#181818;stroke-width:1.0;"/><line style="stroke:#181818;stroke-width:1.0;" x1="51.5" x2="618.5" y1="628.75" y2="628.75"/><text fill="#000000" font-family="sans-serif" font-size="13" lengthAdjust="spacing" textLength="139" x="58.5" y="623.6841">getProductCategories</text><polygon fill="#181818" points="856.5,653.8828,866.5,657.8828,856.5,661.8828,860.5,657.8828" style="stroke:#181818;stroke-width:1.0;"/><line style="stroke:#181818;stroke-width:1.0;" x1="634.5" x2="862.5" y1="657.8828" y2="657.8828"/><text fill="#000000" font-family="sans-serif" font-size="13" lengthAdjust="spacing" textLength="85" x="641.5" y="652.8169">repositories()</text><polygon fill="#181818" points="966.5,683.0156,976.5,687.0156,966.5,691.0156,970.5,687.0156" style="stroke:#181818;stroke-width:1.0;"/><line style="stroke:#181818;stroke-width:1.0;" x1="878.5" x2="972.5" y1="687.0156" y2="687.0156"/><text fill="#000000" font-family="sans-serif" font-size="13" lengthAdjust="spacing" textLength="41" x="885.5" y="681.9497">create</text><polygon fill="#181818" points="1096,712.1484,1106,716.1484,1096,720.1484,1100,716.1484" style="stroke:#181818;stroke-width:1.0;"/><line style="stroke:#181818;stroke-width:1.0;" x1="988.5" x2="1102" y1="716.1484" y2="716.1484"/><text fill="#000000" font-family="sans-serif" font-size="13" lengthAdjust="spacing" textLength="41" x="995.5" y="711.0825">create</text><polygon fill="#181818" points="1101,771.2813,1111,775.2813,1101,779.2813,1105,775.2813" style="stroke:#181818;stroke-width:1.0;"/><line style="stroke:#181818;stroke-width:1.0;" x1="634.5" x2="1107" y1="775.2813" y2="775.2813"/><text fill="#000000" font-family="sans-serif" font-size="13" lengthAdjust="spacing" textLength="39" x="641.5" y="770.2153">findAll</text><polygon fill="#181818" points="62.5,800.4141,52.5,804.4141,62.5,808.4141,58.5,804.4141" style="stroke:#181818;stroke-width:1.0;"/><line style="stroke:#181818;stroke-width:1.0;stroke-dasharray:2.0,2.0;" x1="56.5" x2="628.5" y1="804.4141" y2="804.4141"/><text fill="#000000" font-family="sans-serif" font-size="13" lengthAdjust="spacing" textLength="118" x="68.5" y="799.3481">ProductCategories</text><line style="stroke:#181818;stroke-width:1.0;" x1="51.5" x2="93.5" y1="833.5469" y2="833.5469"/><line style="stroke:#181818;stroke-width:1.0;" x1="93.5" x2="93.5" y1="833.5469" y2="846.5469"/><line style="stroke:#181818;stroke-width:1.0;" x1="52.5" x2="93.5" y1="846.5469" y2="846.5469"/><polygon fill="#181818" points="62.5,842.5469,52.5,846.5469,62.5,850.5469,58.5,846.5469" style="stroke:#181818;stroke-width:1.0;"/><text fill="#000000" font-family="sans-serif" font-size="13" lengthAdjust="spacing" textLength="61" x="58.5" y="828.481">doShow()</text><polygon fill="#181818" points="612.5,901.9453,622.5,905.9453,612.5,909.9453,616.5,905.9453" style="stroke:#181818;stroke-width:1.0;"/><line style="stroke:#181818;stroke-width:1.0;" x1="51.5" x2="618.5" y1="905.9453" y2="905.9453"/><text fill="#000000" font-family="sans-serif" font-size="13" lengthAdjust="spacing" textLength="554" x="58.5" y="870.6138">specifyProduct(aisleId, rowId, shelfId,category,name, photo, shortDesc,extendedDesc,</text><text fill="#000000" font-family="sans-serif" font-size="13" lengthAdjust="spacing" textLength="360" x="62.5" y="885.7466">techDesc,brand,priceWiTaxes, priceWoTaxes,reference,</text><text fill="#000000" font-family="sans-serif" font-size="13" lengthAdjust="spacing" textLength="191" x="62.5" y="900.8794">internalCode,productionCode)</text><polygon fill="#181818" points="1365.5,931.0781,1375.5,935.0781,1365.5,939.0781,1369.5,935.0781" style="stroke:#181818;stroke-width:1.0;"/><line style="stroke:#181818;stroke-width:1.0;" x1="634.5" x2="1371.5" y1="935.0781" y2="935.0781"/><text fill="#000000" font-family="sans-serif" font-size="13" lengthAdjust="spacing" textLength="188" x="641.5" y="930.0122">create (aisleId, rowId, shelfId)</text><polygon fill="#181818" points="1493,990.2109,1503,994.2109,1493,998.2109,1497,994.2109" style="stroke:#181818;stroke-width:1.0;"/><line style="stroke:#181818;stroke-width:1.0;" x1="634.5" x2="1499" y1="994.2109" y2="994.2109"/><text fill="#000000" font-family="sans-serif" font-size="13" lengthAdjust="spacing" textLength="277" x="641.5" y="989.145">create(shortDesc,extendedDesc,techDesc)</text><polygon fill="#181818" points="1613,1049.3438,1623,1053.3438,1613,1057.3438,1617,1053.3438" style="stroke:#181818;stroke-width:1.0;"/><line style="stroke:#181818;stroke-width:1.0;" x1="634.5" x2="1619" y1="1053.3438" y2="1053.3438"/><text fill="#000000" font-family="sans-serif" font-size="13" lengthAdjust="spacing" textLength="92" x="641.5" y="1048.2778">create (brand)</text><polygon fill="#181818" points="1681,1108.4766,1691,1112.4766,1681,1116.4766,1685,1112.4766" style="stroke:#181818;stroke-width:1.0;"/><line style="stroke:#181818;stroke-width:1.0;" x1="634.5" x2="1687" y1="1112.4766" y2="1112.4766"/><text fill="#000000" font-family="sans-serif" font-size="13" lengthAdjust="spacing" textLength="236" x="641.5" y="1107.4106">create(priceWiTaxes, priceWoTaxes)</text><polygon fill="#181818" points="1765.5,1167.6094,1775.5,1171.6094,1765.5,1175.6094,1769.5,1171.6094" style="stroke:#181818;stroke-width:1.0;"/><line style="stroke:#181818;stroke-width:1.0;" x1="634.5" x2="1771.5" y1="1171.6094" y2="1171.6094"/><text fill="#000000" font-family="sans-serif" font-size="13" lengthAdjust="spacing" textLength="113" x="641.5" y="1166.5435">create(reference)</text><polygon fill="#181818" points="1871,1226.7422,1881,1230.7422,1871,1234.7422,1875,1230.7422" style="stroke:#181818;stroke-width:1.0;"/><line style="stroke:#181818;stroke-width:1.0;" x1="634.5" x2="1877" y1="1230.7422" y2="1230.7422"/><text fill="#000000" font-family="sans-serif" font-size="13" lengthAdjust="spacing" textLength="152" x="641.5" y="1225.6763">create(productionCode)</text><polygon fill="#181818" points="1967,1285.875,1977,1289.875,1967,1293.875,1971,1289.875" style="stroke:#181818;stroke-width:1.0;"/><line style="stroke:#181818;stroke-width:1.0;" x1="634.5" x2="1973" y1="1289.875" y2="1289.875"/><text fill="#000000" font-family="sans-serif" font-size="13" lengthAdjust="spacing" textLength="132" x="641.5" y="1284.8091">create(internalCode)</text><polygon fill="#181818" points="2053.5,1345.0078,2063.5,1349.0078,2053.5,1353.0078,2057.5,1349.0078" style="stroke:#181818;stroke-width:1.0;"/><line style="stroke:#181818;stroke-width:1.0;" x1="634.5" x2="2059.5" y1="1349.0078" y2="1349.0078"/><text fill="#000000" font-family="sans-serif" font-size="13" lengthAdjust="spacing" textLength="51" x="641.5" y="1343.9419">create()</text><polygon fill="#181818" points="2140,1404.1406,2150,1408.1406,2140,1412.1406,2144,1408.1406" style="stroke:#181818;stroke-width:1.0;"/><line style="stroke:#181818;stroke-width:1.0;" x1="634.5" x2="2146" y1="1408.1406" y2="1408.1406"/><text fill="#000000" font-family="sans-serif" font-size="13" lengthAdjust="spacing" textLength="825" x="641.5" y="1403.0747">newProduct =create(storageArea,category,name,photo,description,brand,price,reference,internalCode,productionCode,barcode)</text><polygon fill="#181818" points="856.5,1463.2734,866.5,1467.2734,856.5,1471.2734,860.5,1467.2734" style="stroke:#181818;stroke-width:1.0;"/><line style="stroke:#181818;stroke-width:1.0;" x1="634.5" x2="862.5" y1="1467.2734" y2="1467.2734"/><text fill="#000000" font-family="sans-serif" font-size="13" lengthAdjust="spacing" textLength="85" x="641.5" y="1462.2075">repositories()</text><polygon fill="#181818" points="966.5,1492.4063,976.5,1496.4063,966.5,1500.4063,970.5,1496.4063" style="stroke:#181818;stroke-width:1.0;"/><line style="stroke:#181818;stroke-width:1.0;" x1="878.5" x2="972.5" y1="1496.4063" y2="1496.4063"/><text fill="#000000" font-family="sans-serif" font-size="13" lengthAdjust="spacing" textLength="41" x="885.5" y="1491.3403">create</text><polygon fill="#181818" points="2234,1521.5391,2244,1525.5391,2234,1529.5391,2238,1525.5391" style="stroke:#181818;stroke-width:1.0;"/><line style="stroke:#181818;stroke-width:1.0;" x1="988.5" x2="2240" y1="1525.5391" y2="1525.5391"/><text fill="#000000" font-family="sans-serif" font-size="13" lengthAdjust="spacing" textLength="41" x="995.5" y="1520.4731">create</text><polygon fill="#181818" points="2234,1580.6719,2244,1584.6719,2234,1588.6719,2238,1584.6719" style="stroke:#181818;stroke-width:1.0;"/><line style="stroke:#181818;stroke-width:1.0;" x1="634.5" x2="2240" y1="1584.6719" y2="1584.6719"/><text fill="#000000" font-family="sans-serif" font-size="13" lengthAdjust="spacing" textLength="117" x="641.5" y="1579.606">save(newProduct)</text><!--MD5=[f8faafc5d292d61553ae36b7d3fe24e6]
@startuml
title Specify new product for sale

participant ":Specify\nProductUI" as UI
participant ":SpecifyProduct\nController" as CTRL
participant  ":Warehouse\nInfo" as W
participant ":Persistance\nContext" as PER
participant ":Repository\nFactory" as REPFAC
participant ":ProductCategory\nFactory" as PCFAC
participant ":ProductCategory\nRepository" as PCREP
participant ":Storage\nArea" as STO
participant ":ProductDescription" as DESC
participant ":Brand" as BRA
particIpant ":Price" as PR
participant ":Reference" as REF
participant ":Production\nCode" as PROC
participant ":Internal\nCode" as IC
participant  ":Barcode" as BAR
participant ":Product" as PRO
participant ":Product\nRepository" as PROREP

activate UI
UI -> CTRL : create
activate CTRL
UI -> CTRL : getAisles
CTRL -> W : getAisles()
activate W
deactivate W
CTRL - -> UI : Aisles
deactivate CTRL
UI -> UI : doShow()

UI -> CTRL : getRows(aisle)
activate CTRL
CTRL -> W : getRows(aisle)
activate W
deactivate W
CTRL - -> UI : Rows
deactivate CTRL
UI -> UI : doShow()

UI -> CTRL : getShelves(row)
activate CTRL
CTRL -> W : getShelves(row)
activate W
deactivate W
CTRL - -> UI : Shelf
deactivate CTRL
UI -> UI : doShow()

UI -> CTRL : getProductCategories
activate CTRL
CTRL -> PER : repositories()
activate PER
PER -> REPFAC : create
activate REPFAC
REPFAC -> PCFAC : create
activate PCFAC
deactivate REPFAC
deactivate PER
CTRL -> PCFAC : findAll
deactivate PCFAC
CTRL - -> UI : ProductCategories
deactivate CTRL
UI -> UI : doShow()
UI -> CTRL :specifyProduct(aisleId, rowId, shelfId,category,name, photo, shortDesc,extendedDesc,\n techDesc,brand,priceWiTaxes, priceWoTaxes,reference,\n internalCode,productionCode)
activate CTRL
CTRL -> STO : create (aisleId, rowId, shelfId)
activate STO
deactivate STO
CTRL -> DESC : create(shortDesc,extendedDesc,techDesc)
activate DESC
deactivate DESC
CTRL -> BRA :  create (brand)
activate BRA
deactivate BRA
CTRL -> PR : create(priceWiTaxes, priceWoTaxes)
activate PR
deactivate PR
CTRL -> REF : create(reference)
activate REF
deactivate REF
CTRL -> PROC : create(productionCode)
activate PROC
deactivate PROC
CTRL -> IC : create(internalCode)
activate IC
deactivate IC
CTRL -> BAR : create()
activate BAR
deactivate BAR
CTRL -> PRO : newProduct =create(storageArea,category,name,photo,description,brand,price,reference,internalCode,productionCode,barcode)
activate PRO
deactivate PRO
CTRL -> PER : repositories()
activate PER
PER -> REPFAC :create
activate REPFAC
REPFAC -> PROREP : create
activate PROREP
deactivate PROREP
deactivate REPFAC
deactivate PER
CTRL -> PROREP :save(newProduct)
activate PROREP
deactivate PROREP
deactivate CTRL
deactivate UI
@enduml

PlantUML version 1.2022.4beta2(Unknown compile time)
(GPL source distribution)
Java Runtime: Java(TM) SE Runtime Environment
JVM: Java HotSpot(TM) 64-Bit Server VM
Default Encoding: UTF-8
Language: en
Country: US
--></g></svg>