<?xml version="1.0" encoding="UTF-8" standalone="no"?><svg xmlns="http://www.w3.org/2000/svg" xmlns:xlink="http://www.w3.org/1999/xlink" contentStyleType="text/css" height="240px" preserveAspectRatio="none" style="width:540px;height:240px;background:#FFFFFF;" version="1.1" viewBox="0 0 540 240" width="540px" zoomAndPan="magnify"><defs/><g><!--MD5=[6a1f20ac98ff691683c5d53d56fd80ad]
class TcpServerAGVDigitalTwin--><g id="elem_TcpServerAGVDigitalTwin"><rect codeLine="3" fill="#F1F1F1" height="83.2188" id="TcpServerAGVDigitalTwin" rx="2.5" ry="2.5" style="stroke:#181818;stroke-width:0.5;" width="247" x="7" y="150"/><ellipse cx="45.4" cy="166" fill="#ADD1B2" rx="11" ry="11" style="stroke:#181818;stroke-width:1.0;"/><path d="M47.4,162.5 Q47.6031,162 47.8375,161.75 Q48.0719,161.5 48.3375,161.5 Q48.8063,161.5 49.1031,161.7813 Q49.4,162.0625 49.4,162.7188 L49.4,164.2813 Q49.4,164.9375 49.1188,165.2188 Q48.8375,165.5 48.4,165.5 Q48.0094,165.5 47.7594,165.3281 Q47.5094,165.1563 47.4,164.7031 Q47.3531,164.3906 47.1813,164.2188 Q46.8688,163.8906 46.3063,163.7031 Q45.7438,163.5 45.1813,163.5 Q44.4781,163.5 43.8844,163.7813 Q43.3063,164.0625 42.8531,164.6875 Q42.4,165.3125 42.4,166.1719 L42.4,167.0938 Q42.4,168.125 43.2438,168.8125 Q44.0875,169.5 45.5875,169.5 Q46.4781,169.5 47.1031,169.2969 Q47.4625,169.1875 47.8688,168.8281 Q48.1344,168.625 48.275,168.5625 Q48.4156,168.5 48.5875,168.5 Q48.9156,168.5 49.15,168.7656 Q49.4,169.0156 49.4,169.375 Q49.4,169.7188 49.0563,170.125 Q48.5563,170.7188 47.7594,171.0469 Q46.7125,171.5 45.4313,171.5 Q43.9313,171.5 42.7281,170.9063 Q41.7594,170.4375 41.0719,169.4219 Q40.4,168.4063 40.4,167.2031 L40.4,166.1094 Q40.4,164.8594 40.9938,163.7656 Q41.6031,162.6719 42.65,162.0938 Q43.7125,161.5 44.9,161.5 Q45.6188,161.5 46.2438,161.75 Q46.8688,162 47.4,162.5 Z " fill="#000000"/><text fill="#000000" font-family="sans-serif" font-size="14" lengthAdjust="spacing" textLength="163" x="64.6" y="171.7285">TcpServerAGVDigitalTwin</text><line style="stroke:#181818;stroke-width:0.5;" x1="8" x2="253" y1="182" y2="182"/><text fill="#000000" font-family="sans-serif" font-size="14" lengthAdjust="spacing" textLength="125" x="13" y="200.5332">+parsing methods...</text><text fill="#000000" font-family="sans-serif" font-size="14" lengthAdjust="spacing" textLength="235" x="13" y="218.1426">+building data transferece methods...</text><line style="stroke:#181818;stroke-width:0.5;" x1="8" x2="253" y1="225.2188" y2="225.2188"/></g><!--MD5=[4db4841249a64a15a2ac2498b728f40a]
class TcpServerAGVDigitalTwinThread--><g id="elem_TcpServerAGVDigitalTwinThread"><rect codeLine="8" fill="#F1F1F1" height="48" id="TcpServerAGVDigitalTwinThread" rx="2.5" ry="2.5" style="stroke:#181818;stroke-width:0.5;" width="241" x="10" y="24.5"/><ellipse cx="25" cy="40.5" fill="#ADD1B2" rx="11" ry="11" style="stroke:#181818;stroke-width:1.0;"/><path d="M27,37 Q27.2031,36.5 27.4375,36.25 Q27.6719,36 27.9375,36 Q28.4063,36 28.7031,36.2813 Q29,36.5625 29,37.2188 L29,38.7813 Q29,39.4375 28.7188,39.7188 Q28.4375,40 28,40 Q27.6094,40 27.3594,39.8281 Q27.1094,39.6563 27,39.2031 Q26.9531,38.8906 26.7813,38.7188 Q26.4688,38.3906 25.9063,38.2031 Q25.3438,38 24.7813,38 Q24.0781,38 23.4844,38.2813 Q22.9063,38.5625 22.4531,39.1875 Q22,39.8125 22,40.6719 L22,41.5938 Q22,42.625 22.8438,43.3125 Q23.6875,44 25.1875,44 Q26.0781,44 26.7031,43.7969 Q27.0625,43.6875 27.4688,43.3281 Q27.7344,43.125 27.875,43.0625 Q28.0156,43 28.1875,43 Q28.5156,43 28.75,43.2656 Q29,43.5156 29,43.875 Q29,44.2188 28.6563,44.625 Q28.1563,45.2188 27.3594,45.5469 Q26.3125,46 25.0313,46 Q23.5313,46 22.3281,45.4063 Q21.3594,44.9375 20.6719,43.9219 Q20,42.9063 20,41.7031 L20,40.6094 Q20,39.3594 20.5938,38.2656 Q21.2031,37.1719 22.25,36.5938 Q23.3125,36 24.5,36 Q25.2188,36 25.8438,36.25 Q26.4688,36.5 27,37 Z " fill="#000000"/><text fill="#000000" font-family="sans-serif" font-size="14" lengthAdjust="spacing" textLength="209" x="39" y="46.2285">TcpServerAGVDigitalTwinThread</text><line style="stroke:#181818;stroke-width:0.5;" x1="11" x2="250" y1="56.5" y2="56.5"/><line style="stroke:#181818;stroke-width:0.5;" x1="11" x2="250" y1="64.5" y2="64.5"/></g><!--MD5=[d7724097116ffcb6ea40e9e893263eea]
class TcpServerAGVManager--><g id="elem_TcpServerAGVManager"><rect codeLine="12" fill="#F1F1F1" height="83.2188" id="TcpServerAGVManager" rx="2.5" ry="2.5" style="stroke:#181818;stroke-width:0.5;" width="247" x="286" y="7"/><ellipse cx="329.8" cy="23" fill="#ADD1B2" rx="11" ry="11" style="stroke:#181818;stroke-width:1.0;"/><path d="M331.8,19.5 Q332.0031,19 332.2375,18.75 Q332.4719,18.5 332.7375,18.5 Q333.2063,18.5 333.5031,18.7813 Q333.8,19.0625 333.8,19.7188 L333.8,21.2813 Q333.8,21.9375 333.5188,22.2188 Q333.2375,22.5 332.8,22.5 Q332.4094,22.5 332.1594,22.3281 Q331.9094,22.1563 331.8,21.7031 Q331.7531,21.3906 331.5813,21.2188 Q331.2688,20.8906 330.7063,20.7031 Q330.1438,20.5 329.5813,20.5 Q328.8781,20.5 328.2844,20.7813 Q327.7063,21.0625 327.2531,21.6875 Q326.8,22.3125 326.8,23.1719 L326.8,24.0938 Q326.8,25.125 327.6438,25.8125 Q328.4875,26.5 329.9875,26.5 Q330.8781,26.5 331.5031,26.2969 Q331.8625,26.1875 332.2688,25.8281 Q332.5344,25.625 332.675,25.5625 Q332.8156,25.5 332.9875,25.5 Q333.3156,25.5 333.55,25.7656 Q333.8,26.0156 333.8,26.375 Q333.8,26.7188 333.4563,27.125 Q332.9563,27.7188 332.1594,28.0469 Q331.1125,28.5 329.8313,28.5 Q328.3313,28.5 327.1281,27.9063 Q326.1594,27.4375 325.4719,26.4219 Q324.8,25.4063 324.8,24.2031 L324.8,23.1094 Q324.8,21.8594 325.3938,20.7656 Q326.0031,19.6719 327.05,19.0938 Q328.1125,18.5 329.3,18.5 Q330.0188,18.5 330.6438,18.75 Q331.2688,19 331.8,19.5 Z " fill="#000000"/><text fill="#000000" font-family="sans-serif" font-size="14" lengthAdjust="spacing" textLength="151" x="350.2" y="28.7285">TcpServerAGVManager</text><line style="stroke:#181818;stroke-width:0.5;" x1="287" x2="532" y1="39" y2="39"/><text fill="#000000" font-family="sans-serif" font-size="14" lengthAdjust="spacing" textLength="125" x="292" y="57.5332">+parsing methods...</text><text fill="#000000" font-family="sans-serif" font-size="14" lengthAdjust="spacing" textLength="235" x="292" y="75.1426">+building data transferece methods...</text><line style="stroke:#181818;stroke-width:0.5;" x1="287" x2="532" y1="82.2188" y2="82.2188"/></g><!--MD5=[245a0f4990a869e77cf31f607fa8d74f]
class TcpServerAGVManagerThread--><g id="elem_TcpServerAGVManagerThread"><rect codeLine="17" fill="#F1F1F1" height="48" id="TcpServerAGVManagerThread" rx="2.5" ry="2.5" style="stroke:#181818;stroke-width:0.5;" width="229" x="292" y="167.5"/><ellipse cx="307" cy="183.5" fill="#ADD1B2" rx="11" ry="11" style="stroke:#181818;stroke-width:1.0;"/><path d="M309,180 Q309.2031,179.5 309.4375,179.25 Q309.6719,179 309.9375,179 Q310.4063,179 310.7031,179.2813 Q311,179.5625 311,180.2188 L311,181.7813 Q311,182.4375 310.7188,182.7188 Q310.4375,183 310,183 Q309.6094,183 309.3594,182.8281 Q309.1094,182.6563 309,182.2031 Q308.9531,181.8906 308.7813,181.7188 Q308.4688,181.3906 307.9063,181.2031 Q307.3438,181 306.7813,181 Q306.0781,181 305.4844,181.2813 Q304.9063,181.5625 304.4531,182.1875 Q304,182.8125 304,183.6719 L304,184.5938 Q304,185.625 304.8438,186.3125 Q305.6875,187 307.1875,187 Q308.0781,187 308.7031,186.7969 Q309.0625,186.6875 309.4688,186.3281 Q309.7344,186.125 309.875,186.0625 Q310.0156,186 310.1875,186 Q310.5156,186 310.75,186.2656 Q311,186.5156 311,186.875 Q311,187.2188 310.6563,187.625 Q310.1563,188.2188 309.3594,188.5469 Q308.3125,189 307.0313,189 Q305.5313,189 304.3281,188.4063 Q303.3594,187.9375 302.6719,186.9219 Q302,185.9063 302,184.7031 L302,183.6094 Q302,182.3594 302.5938,181.2656 Q303.2031,180.1719 304.25,179.5938 Q305.3125,179 306.5,179 Q307.2188,179 307.8438,179.25 Q308.4688,179.5 309,180 Z " fill="#000000"/><text fill="#000000" font-family="sans-serif" font-size="14" lengthAdjust="spacing" textLength="197" x="321" y="189.2285">TcpServerAGVManagerThread</text><line style="stroke:#181818;stroke-width:0.5;" x1="293" x2="520" y1="199.5" y2="199.5"/><line style="stroke:#181818;stroke-width:0.5;" x1="293" x2="520" y1="207.5" y2="207.5"/></g><!--MD5=[c1e27976c8191b26c569fc8ecfed9144]
link TcpServerAGVDigitalTwinThread to TcpServerAGVDigitalTwin--><g id="link_TcpServerAGVDigitalTwinThread_TcpServerAGVDigitalTwin"><path codeLine="26" d="M130.5,72.78 C130.5,92.28 130.5,120.7 130.5,144.72 " fill="none" id="TcpServerAGVDigitalTwinThread-to-TcpServerAGVDigitalTwin" style="stroke:#181818;stroke-width:1.0;"/><polygon fill="#181818" points="130.5,149.78,134.5,140.78,130.5,144.78,126.5,140.78,130.5,149.78" style="stroke:#181818;stroke-width:1.0;"/></g><!--MD5=[9cb19ad990d30361a685a9b3a3ddf897]
link TcpServerAGVManager to TcpServerAGVManagerThread--><g id="link_TcpServerAGVManager_TcpServerAGVManagerThread"><path codeLine="28" d="M408.63,90.28 C408.14,113.38 407.54,141.68 407.1,162.31 " fill="none" id="TcpServerAGVManager-to-TcpServerAGVManagerThread" style="stroke:#181818;stroke-width:1.0;"/><polygon fill="#181818" points="406.99,167.38,411.1946,158.4738,407.1043,162.3813,403.1967,158.2909,406.99,167.38" style="stroke:#181818;stroke-width:1.0;"/></g><!--MD5=[a33f5f1de341f9737403b931feaf3287]
link TcpServerAGVDigitalTwinThread to TcpServerAGVManagerThread--><g id="link_TcpServerAGVDigitalTwinThread_TcpServerAGVManagerThread"><path codeLine="30" d="M175.77,72.63 C225.5,98.03 305.13,138.71 356.62,165.02 " fill="none" id="TcpServerAGVDigitalTwinThread-to-TcpServerAGVManagerThread" style="stroke:#181818;stroke-width:1.0;"/><polygon fill="#181818" points="361.21,167.36,355.0074,159.7096,356.7551,165.0897,351.375,166.8374,361.21,167.36" style="stroke:#181818;stroke-width:1.0;"/></g><!--MD5=[387948d2cf327469d91b5116b90c6e2a]
@startuml
skinparam classAttributeIconSize 0

Class "TcpServerAGVDigitalTwin"{
+parsing methods...
+building data transferece methods...
}

Class "TcpServerAGVDigitalTwinThread"{
       
}

Class "TcpServerAGVManager"{
+parsing methods...
+building data transferece methods...
}

Class "TcpServerAGVManagerThread"{

}






"TcpServerAGVDigitalTwinThread"  - ->  "TcpServerAGVDigitalTwin" 

"TcpServerAGVManager"  - ->  "TcpServerAGVManagerThread" 

"TcpServerAGVDigitalTwinThread" - -> "TcpServerAGVManagerThread"
@enduml

PlantUML version 1.2022.4(Sat Apr 09 14:29:17 BST 2022)
(GPL source distribution)
Java Runtime: OpenJDK Runtime Environment
JVM: OpenJDK 64-Bit Server VM
Default Encoding: Cp1252
Language: pt
Country: PT
--></g></svg>