<?xml version="1.0" encoding="UTF-8" standalone="no"?><svg xmlns="http://www.w3.org/2000/svg" xmlns:xlink="http://www.w3.org/1999/xlink" contentStyleType="text/css" height="383px" preserveAspectRatio="none" style="width:546px;height:383px;background:#FFFFFF;" version="1.1" viewBox="0 0 546 383" width="546px" zoomAndPan="magnify"><defs/><g><rect fill="#FFFFFF" height="255.4609" style="stroke:#181818;stroke-width:1.0;" width="10" x="171" y="65.2188"/><rect fill="#FFFFFF" height="164.4063" style="stroke:#181818;stroke-width:1.0;" width="10" x="445.5" y="156.2734"/><rect height="122.4063" style="stroke:#000000;stroke-width:1.5;fill:none;" width="436" x="104" y="72.2188"/><line style="stroke:#181818;stroke-width:0.5;fill:none;stroke-dasharray:5.0,5.0;" x1="54" x2="54" y1="55.2188" y2="329.6797"/><line style="stroke:#181818;stroke-width:0.5;fill:none;stroke-dasharray:5.0,5.0;" x1="176" x2="176" y1="55.2188" y2="329.6797"/><line style="stroke:#181818;stroke-width:0.5;fill:none;stroke-dasharray:5.0,5.0;" x1="304" x2="304" y1="55.2188" y2="329.6797"/><line style="stroke:#181818;stroke-width:0.5;fill:none;stroke-dasharray:5.0,5.0;" x1="450" x2="450" y1="55.2188" y2="329.6797"/><rect fill="#E2E2F0" height="49.2188" rx="2.5" ry="2.5" style="stroke:#181818;stroke-width:0.5;" width="99" x="5" y="5"/><text fill="#000000" font-family="sans-serif" font-size="14" font-style="italic" lengthAdjust="spacing" textLength="57" x="26" y="26.5332">«Server»</text><text fill="#000000" font-family="sans-serif" font-size="14" lengthAdjust="spacing" textLength="85" x="12" y="44.1426">AGVManager</text><rect fill="#E2E2F0" height="49.2188" rx="2.5" ry="2.5" style="stroke:#181818;stroke-width:0.5;" width="99" x="5" y="328.6797"/><text fill="#000000" font-family="sans-serif" font-size="14" font-style="italic" lengthAdjust="spacing" textLength="57" x="26" y="350.2129">«Server»</text><text fill="#000000" font-family="sans-serif" font-size="14" lengthAdjust="spacing" textLength="85" x="12" y="367.8223">AGVManager</text><rect fill="#E2E2F0" height="31.6094" rx="2.5" ry="2.5" style="stroke:#181818;stroke-width:0.5;" width="124" x="114" y="22.6094"/><text fill="#000000" font-family="sans-serif" font-size="14" lengthAdjust="spacing" textLength="110" x="121" y="44.1426">DigitalTwinServer</text><rect fill="#E2E2F0" height="31.6094" rx="2.5" ry="2.5" style="stroke:#181818;stroke-width:0.5;" width="124" x="114" y="328.6797"/><text fill="#000000" font-family="sans-serif" font-size="14" lengthAdjust="spacing" textLength="110" x="121" y="350.2129">DigitalTwinServer</text><rect fill="#E2E2F0" height="31.6094" rx="2.5" ry="2.5" style="stroke:#181818;stroke-width:0.5;" width="113" x="248" y="22.6094"/><text fill="#000000" font-family="sans-serif" font-size="14" lengthAdjust="spacing" textLength="99" x="255" y="44.1426">TCPAGVServer</text><rect fill="#E2E2F0" height="31.6094" rx="2.5" ry="2.5" style="stroke:#181818;stroke-width:0.5;" width="113" x="248" y="328.6797"/><text fill="#000000" font-family="sans-serif" font-size="14" lengthAdjust="spacing" textLength="99" x="255" y="350.2129">TCPAGVServer</text><rect fill="#E2E2F0" height="49.2188" rx="2.5" ry="2.5" style="stroke:#181818;stroke-width:0.5;" width="159" x="371" y="5"/><text fill="#000000" font-family="sans-serif" font-size="14" font-style="italic" lengthAdjust="spacing" textLength="57" x="422" y="26.5332">«thread»</text><text fill="#000000" font-family="sans-serif" font-size="14" lengthAdjust="spacing" textLength="145" x="378" y="44.1426">TCPAGVServerThread</text><rect fill="#E2E2F0" height="49.2188" rx="2.5" ry="2.5" style="stroke:#181818;stroke-width:0.5;" width="159" x="371" y="328.6797"/><text fill="#000000" font-family="sans-serif" font-size="14" font-style="italic" lengthAdjust="spacing" textLength="57" x="422" y="350.2129">«thread»</text><text fill="#000000" font-family="sans-serif" font-size="14" lengthAdjust="spacing" textLength="145" x="378" y="367.8223">TCPAGVServerThread</text><rect fill="#FFFFFF" height="255.4609" style="stroke:#181818;stroke-width:1.0;" width="10" x="171" y="65.2188"/><rect fill="#FFFFFF" height="164.4063" style="stroke:#181818;stroke-width:1.0;" width="10" x="445.5" y="156.2734"/><path d="M104,72.2188 L177,72.2188 L177,80.5703 L167,90.5703 L104,90.5703 L104,72.2188 " fill="#EEEEEE" style="stroke:#000000;stroke-width:1.5;"/><rect fill="none" height="122.4063" style="stroke:#000000;stroke-width:1.5;" width="436" x="104" y="72.2188"/><text fill="#000000" font-family="sans-serif" font-size="13" font-weight="bold" lengthAdjust="spacing" textLength="28" x="119" y="86.7139">loop</text><text fill="#000000" font-family="sans-serif" font-size="11" font-weight="bold" lengthAdjust="spacing" textLength="31" x="192" y="85.6377">[true]</text><line style="stroke:#181818;stroke-width:1.0;" x1="181" x2="223" y1="112.9219" y2="112.9219"/><line style="stroke:#181818;stroke-width:1.0;" x1="223" x2="223" y1="112.9219" y2="125.9219"/><line style="stroke:#181818;stroke-width:1.0;" x1="182" x2="223" y1="125.9219" y2="125.9219"/><polygon fill="#181818" points="192,121.9219,182,125.9219,192,129.9219,188,125.9219" style="stroke:#181818;stroke-width:1.0;"/><text fill="#000000" font-family="sans-serif" font-size="13" lengthAdjust="spacing" textLength="26" x="188" y="108.0654">start</text><polygon fill="#181818" points="292.5,152.2734,302.5,156.2734,292.5,160.2734,296.5,156.2734" style="stroke:#181818;stroke-width:1.0;"/><line style="stroke:#181818;stroke-width:1.0;" x1="181" x2="298.5" y1="156.2734" y2="156.2734"/><text fill="#000000" font-family="sans-serif" font-size="13" lengthAdjust="spacing" textLength="39" x="188" y="151.417">accept</text><polygon fill="#181818" points="433.5,182.625,443.5,186.625,433.5,190.625,437.5,186.625" style="stroke:#181818;stroke-width:1.0;"/><line style="stroke:#181818;stroke-width:1.0;" x1="304.5" x2="439.5" y1="186.625" y2="186.625"/><text fill="#000000" font-family="sans-serif" font-size="13" lengthAdjust="spacing" textLength="26" x="311.5" y="181.7686">start</text><polygon fill="#181818" points="315.5,219.9766,305.5,223.9766,315.5,227.9766,311.5,223.9766" style="stroke:#181818;stroke-width:1.0;"/><line style="stroke:#181818;stroke-width:1.0;" x1="309.5" x2="444.5" y1="223.9766" y2="223.9766"/><text fill="#000000" font-family="sans-serif" font-size="13" lengthAdjust="spacing" textLength="32" x="321.5" y="219.1201">parse</text><line style="stroke:#181818;stroke-width:1.0;" x1="455.5" x2="497.5" y1="254.3281" y2="254.3281"/><line style="stroke:#181818;stroke-width:1.0;" x1="497.5" x2="497.5" y1="254.3281" y2="267.3281"/><line style="stroke:#181818;stroke-width:1.0;" x1="456.5" x2="497.5" y1="267.3281" y2="267.3281"/><polygon fill="#181818" points="466.5,263.3281,456.5,267.3281,466.5,271.3281,462.5,267.3281" style="stroke:#181818;stroke-width:1.0;"/><text fill="#000000" font-family="sans-serif" font-size="13" lengthAdjust="spacing" textLength="46" x="462.5" y="249.4717">execute</text><polygon fill="#181818" points="315.5,293.6797,305.5,297.6797,315.5,301.6797,311.5,297.6797" style="stroke:#181818;stroke-width:1.0;"/><line style="stroke:#181818;stroke-width:1.0;" x1="309.5" x2="444.5" y1="297.6797" y2="297.6797"/><text fill="#000000" font-family="sans-serif" font-size="13" lengthAdjust="spacing" textLength="27" x="321.5" y="292.8232">build</text><polygon fill="#181818" points="65.5,307.6797,55.5,311.6797,65.5,315.6797,61.5,311.6797" style="stroke:#181818;stroke-width:1.0;"/><line style="stroke:#181818;stroke-width:1.0;stroke-dasharray:2.0,2.0;" x1="59.5" x2="444.5" y1="311.6797" y2="311.6797"/><!--MD5=[5853d7be4d9ee4fc0ad4d00de35331c4]
@startuml
participant AGVManager <<Server>>


loop true
Activate DigitalTwinServer
DigitalTwinServer -> DigitalTwinServer: start
DigitalTwinServer -> TCPAGVServer: accept



participant TCPAGVServerThread  <<thread>>
activate TCPAGVServerThread
TCPAGVServer -> TCPAGVServerThread : start
end

TCPAGVServerThread -> TCPAGVServer:parse
TCPAGVServerThread  -> TCPAGVServerThread : execute
TCPAGVServerThread  -> TCPAGVServer:build

TCPAGVServerThread  - -> AGVManager
@enduml

PlantUML version 1.2022.4(Sat Apr 09 14:29:17 BST 2022)
(GPL source distribution)
Java Runtime: OpenJDK Runtime Environment
JVM: OpenJDK 64-Bit Server VM
Default Encoding: Cp1252
Language: pt
Country: PT
--></g></svg>