<?xml version="1.0" encoding="UTF-8" standalone="no"?><svg xmlns="http://www.w3.org/2000/svg" xmlns:xlink="http://www.w3.org/1999/xlink" contentScriptType="application/ecmascript" contentStyleType="text/css" height="1091px" preserveAspectRatio="none" style="width:579px;height:1091px;" version="1.1" viewBox="0 0 579 1091" width="579px" zoomAndPan="magnify">
    <defs>
        <filter height="300%" id="f11c1jmw7gkpa4" width="300%" x="-1" y="-1">
            <feGaussianBlur result="blurOut" stdDeviation="2.0" />
            <feColorMatrix in="blurOut" result="blurOut2" type="matrix" values="0 0 0 0 0 0 0 0 0 0 0 0 0 0 0 0 0 0 .4 0" />
            <feOffset dx="4.0" dy="4.0" in="blurOut2" result="blurOut3" />
            <feBlend in="SourceGraphic" in2="blurOut3" mode="normal" />
        </filter>
    </defs>
    <g>
        <!--class UI-->
        <rect fill="#FEFECE" filter="url(#f11c1jmw7gkpa4)" height="61.8359" id="UI" style="stroke: #A80036; stroke-width: 1.5;" width="104" x="375" y="8" />
        <ellipse cx="390" cy="24" fill="#ADD1B2" rx="11" ry="11" style="stroke: #A80036; stroke-width: 1.0;" />
        <path d="M392.7656,19.875 Q392.9219,19.6563 393.1094,19.5469 Q393.2969,19.4375 393.5156,19.4375 Q393.8906,19.4375 394.125,19.6953 Q394.3594,19.9531 394.3594,20.5625 L394.3594,22.0156 Q394.3594,22.625 394.125,22.8906 Q393.8906,23.1563 393.5156,23.1563 Q393.1719,23.1563 392.9688,22.9531 Q392.7656,22.7656 392.6563,22.25 Q392.6094,21.8906 392.4219,21.7031 Q392.0938,21.3281 391.4844,21.1094 Q390.875,20.8906 390.25,20.8906 Q389.4844,20.8906 388.8516,21.2188 Q388.2188,21.5469 387.7266,22.2969 Q387.2344,23.0469 387.2344,24.0781 L387.2344,25.1719 Q387.2344,26.4063 388.125,27.2266 Q389.0156,28.0469 390.6094,28.0469 Q391.5469,28.0469 392.2031,27.7969 Q392.5938,27.6406 393.0156,27.2031 Q393.2813,26.9375 393.4297,26.8594 Q393.5781,26.7813 393.7813,26.7813 Q394.1094,26.7813 394.3672,27.0391 Q394.625,27.2969 394.625,27.6406 Q394.625,27.9844 394.2813,28.3906 Q393.7813,28.9688 392.9844,29.2969 Q391.9063,29.75 390.6094,29.75 Q389.0938,29.75 387.8906,29.125 Q386.9063,28.625 386.2188,27.5547 Q385.5313,26.4844 385.5313,25.2031 L385.5313,24.0469 Q385.5313,22.7188 386.1484,21.5703 Q386.7656,20.4219 387.8594,19.8047 Q388.9531,19.1875 390.1875,19.1875 Q390.9219,19.1875 391.5703,19.3516 Q392.2188,19.5156 392.7656,19.875 Z " /><text fill="#000000" font-family="sans-serif" font-size="12" lengthAdjust="spacingAndGlyphs" textLength="72" x="404" y="28.9102">CreateAGVUI</text>
        <line style="stroke: #A80036; stroke-width: 1.5;" x1="376" x2="478" y1="40" y2="40" />
        <line style="stroke: #A80036; stroke-width: 1.5;" x1="376" x2="478" y1="48" y2="48" /><text fill="#000000" font-family="sans-serif" font-size="11" lengthAdjust="spacingAndGlyphs" textLength="30" x="381" y="63.4189">+run()</text>
        <!--class CTRL-->
        <rect fill="#FEFECE" filter="url(#f11c1jmw7gkpa4)" height="61.8359" id="CTRL" style="stroke: #A80036; stroke-width: 1.5;" width="339" x="100.5" y="131" />
        <ellipse cx="208.75" cy="147" fill="#ADD1B2" rx="11" ry="11" style="stroke: #A80036; stroke-width: 1.0;" />
        <path d="M211.5156,142.875 Q211.6719,142.6563 211.8594,142.5469 Q212.0469,142.4375 212.2656,142.4375 Q212.6406,142.4375 212.875,142.6953 Q213.1094,142.9531 213.1094,143.5625 L213.1094,145.0156 Q213.1094,145.625 212.875,145.8906 Q212.6406,146.1563 212.2656,146.1563 Q211.9219,146.1563 211.7188,145.9531 Q211.5156,145.7656 211.4063,145.25 Q211.3594,144.8906 211.1719,144.7031 Q210.8438,144.3281 210.2344,144.1094 Q209.625,143.8906 209,143.8906 Q208.2344,143.8906 207.6016,144.2188 Q206.9688,144.5469 206.4766,145.2969 Q205.9844,146.0469 205.9844,147.0781 L205.9844,148.1719 Q205.9844,149.4063 206.875,150.2266 Q207.7656,151.0469 209.3594,151.0469 Q210.2969,151.0469 210.9531,150.7969 Q211.3438,150.6406 211.7656,150.2031 Q212.0313,149.9375 212.1797,149.8594 Q212.3281,149.7813 212.5313,149.7813 Q212.8594,149.7813 213.1172,150.0391 Q213.375,150.2969 213.375,150.6406 Q213.375,150.9844 213.0313,151.3906 Q212.5313,151.9688 211.7344,152.2969 Q210.6563,152.75 209.3594,152.75 Q207.8438,152.75 206.6406,152.125 Q205.6563,151.625 204.9688,150.5547 Q204.2813,149.4844 204.2813,148.2031 L204.2813,147.0469 Q204.2813,145.7188 204.8984,144.5703 Q205.5156,143.4219 206.6094,142.8047 Q207.7031,142.1875 208.9375,142.1875 Q209.6719,142.1875 210.3203,142.3516 Q210.9688,142.5156 211.5156,142.875 Z " /><text fill="#000000" font-family="sans-serif" font-size="12" lengthAdjust="spacingAndGlyphs" textLength="114" x="229.25" y="151.9102">CreateAVGController</text>
        <line style="stroke: #A80036; stroke-width: 1.5;" x1="101.5" x2="438.5" y1="163" y2="163" />
        <line style="stroke: #A80036; stroke-width: 1.5;" x1="101.5" x2="438.5" y1="171" y2="171" /><text fill="#000000" font-family="sans-serif" font-size="11" lengthAdjust="spacingAndGlyphs" textLength="327" x="106.5" y="186.4189">+createAGV(autonomy, capacity, weight, volume, shortDescription)</text>
        <!--class WI-->
        <rect fill="#FEFECE" filter="url(#f11c1jmw7gkpa4)" height="61.8359" id="WI" style="stroke: #A80036; stroke-width: 1.5;" width="116" x="435" y="223" />
        <ellipse cx="450" cy="239" fill="#ADD1B2" rx="11" ry="11" style="stroke: #A80036; stroke-width: 1.0;" />
        <path d="M452.7656,234.875 Q452.9219,234.6563 453.1094,234.5469 Q453.2969,234.4375 453.5156,234.4375 Q453.8906,234.4375 454.125,234.6953 Q454.3594,234.9531 454.3594,235.5625 L454.3594,237.0156 Q454.3594,237.625 454.125,237.8906 Q453.8906,238.1563 453.5156,238.1563 Q453.1719,238.1563 452.9688,237.9531 Q452.7656,237.7656 452.6563,237.25 Q452.6094,236.8906 452.4219,236.7031 Q452.0938,236.3281 451.4844,236.1094 Q450.875,235.8906 450.25,235.8906 Q449.4844,235.8906 448.8516,236.2188 Q448.2188,236.5469 447.7266,237.2969 Q447.2344,238.0469 447.2344,239.0781 L447.2344,240.1719 Q447.2344,241.4063 448.125,242.2266 Q449.0156,243.0469 450.6094,243.0469 Q451.5469,243.0469 452.2031,242.7969 Q452.5938,242.6406 453.0156,242.2031 Q453.2813,241.9375 453.4297,241.8594 Q453.5781,241.7813 453.7813,241.7813 Q454.1094,241.7813 454.3672,242.0391 Q454.625,242.2969 454.625,242.6406 Q454.625,242.9844 454.2813,243.3906 Q453.7813,243.9688 452.9844,244.2969 Q451.9063,244.75 450.6094,244.75 Q449.0938,244.75 447.8906,244.125 Q446.9063,243.625 446.2188,242.5547 Q445.5313,241.4844 445.5313,240.2031 L445.5313,239.0469 Q445.5313,237.7188 446.1484,236.5703 Q446.7656,235.4219 447.8594,234.8047 Q448.9531,234.1875 450.1875,234.1875 Q450.9219,234.1875 451.5703,234.3516 Q452.2188,234.5156 452.7656,234.875 Z " /><text fill="#000000" font-family="sans-serif" font-size="12" lengthAdjust="spacingAndGlyphs" textLength="84" x="464" y="243.9102">WarehouseInfo</text>
        <line style="stroke: #A80036; stroke-width: 1.5;" x1="436" x2="550" y1="255" y2="255" />
        <line style="stroke: #A80036; stroke-width: 1.5;" x1="436" x2="550" y1="263" y2="263" /><text fill="#000000" font-family="sans-serif" font-size="11" lengthAdjust="spacingAndGlyphs" textLength="83" x="441" y="278.4189">+getAGVDocks()</text>
        <!--class AGV-->
        <rect fill="#FEFECE" filter="url(#f11c1jmw7gkpa4)" height="131.0156" id="AGV" style="stroke: #A80036; stroke-width: 1.5;" width="95" x="261.5" y="823" />
        <ellipse cx="294.5" cy="839" fill="#ADD1B2" rx="11" ry="11" style="stroke: #A80036; stroke-width: 1.0;" />
        <path d="M297.2656,834.875 Q297.4219,834.6563 297.6094,834.5469 Q297.7969,834.4375 298.0156,834.4375 Q298.3906,834.4375 298.625,834.6953 Q298.8594,834.9531 298.8594,835.5625 L298.8594,837.0156 Q298.8594,837.625 298.625,837.8906 Q298.3906,838.1563 298.0156,838.1563 Q297.6719,838.1563 297.4688,837.9531 Q297.2656,837.7656 297.1563,837.25 Q297.1094,836.8906 296.9219,836.7031 Q296.5938,836.3281 295.9844,836.1094 Q295.375,835.8906 294.75,835.8906 Q293.9844,835.8906 293.3516,836.2188 Q292.7188,836.5469 292.2266,837.2969 Q291.7344,838.0469 291.7344,839.0781 L291.7344,840.1719 Q291.7344,841.4063 292.625,842.2266 Q293.5156,843.0469 295.1094,843.0469 Q296.0469,843.0469 296.7031,842.7969 Q297.0938,842.6406 297.5156,842.2031 Q297.7813,841.9375 297.9297,841.8594 Q298.0781,841.7813 298.2813,841.7813 Q298.6094,841.7813 298.8672,842.0391 Q299.125,842.2969 299.125,842.6406 Q299.125,842.9844 298.7813,843.3906 Q298.2813,843.9688 297.4844,844.2969 Q296.4063,844.75 295.1094,844.75 Q293.5938,844.75 292.3906,844.125 Q291.4063,843.625 290.7188,842.5547 Q290.0313,841.4844 290.0313,840.2031 L290.0313,839.0469 Q290.0313,837.7188 290.6484,836.5703 Q291.2656,835.4219 292.3594,834.8047 Q293.4531,834.1875 294.6875,834.1875 Q295.4219,834.1875 296.0703,834.3516 Q296.7188,834.5156 297.2656,834.875 Z " /><text fill="#000000" font-family="sans-serif" font-size="12" lengthAdjust="spacingAndGlyphs" textLength="23" x="312.5" y="843.9102">AGV</text>
        <line style="stroke: #A80036; stroke-width: 1.5;" x1="262.5" x2="355.5" y1="855" y2="855" /><text fill="#000000" font-family="sans-serif" font-size="11" lengthAdjust="spacingAndGlyphs" textLength="51" x="267.5" y="870.4189">-autonomy</text><text fill="#000000" font-family="sans-serif" font-size="11" lengthAdjust="spacingAndGlyphs" textLength="45" x="267.5" y="884.2549">-capacity</text><text fill="#000000" font-family="sans-serif" font-size="11" lengthAdjust="spacingAndGlyphs" textLength="37" x="267.5" y="898.0908">-weight</text><text fill="#000000" font-family="sans-serif" font-size="11" lengthAdjust="spacingAndGlyphs" textLength="38" x="267.5" y="911.9268">-volume</text><text fill="#000000" font-family="sans-serif" font-size="11" lengthAdjust="spacingAndGlyphs" textLength="83" x="267.5" y="925.7627">-shortDescription</text><text fill="#000000" font-family="sans-serif" font-size="11" lengthAdjust="spacingAndGlyphs" textLength="64" x="267.5" y="939.5986">-dockingPoint</text>
        <line style="stroke: #A80036; stroke-width: 1.5;" x1="262.5" x2="355.5" y1="946.0156" y2="946.0156" />
        <!--class AGVSTATE-->
        <rect fill="#FEFECE" filter="url(#f11c1jmw7gkpa4)" height="48" id="AGVSTATE" style="stroke: #A80036; stroke-width: 1.5;" width="83" x="149.5" y="1032" />
        <ellipse cx="164.5" cy="1048" fill="#EB937F" rx="11" ry="11" style="stroke: #A80036; stroke-width: 1.0;" />
        <path d="M163.3594,1048.7969 L163.3594,1051.2969 L167.6875,1051.2969 L167.6875,1050.375 Q167.6875,1049.7656 167.9297,1049.5 Q168.1719,1049.2344 168.5469,1049.2344 Q168.9219,1049.2344 169.1563,1049.5 Q169.3906,1049.7656 169.3906,1050.375 L169.3906,1053 L161.3906,1053 Q160.7656,1053 160.5078,1052.7656 Q160.25,1052.5313 160.25,1052.1406 Q160.25,1051.7656 160.5156,1051.5313 Q160.7813,1051.2969 161.3906,1051.2969 L161.6563,1051.2969 L161.6563,1044.6406 L161.3906,1044.6406 Q160.7656,1044.6406 160.5078,1044.4063 Q160.25,1044.1719 160.25,1043.7813 Q160.25,1043.4063 160.5078,1043.1719 Q160.7656,1042.9375 161.3906,1042.9375 L169.0156,1042.9375 L169.0156,1045.5313 Q169.0156,1046.1406 168.7891,1046.3984 Q168.5625,1046.6563 168.1719,1046.6563 Q167.7969,1046.6563 167.5625,1046.3984 Q167.3281,1046.1406 167.3281,1045.5313 L167.3281,1044.6406 L163.3594,1044.6406 L163.3594,1047.0938 L164.8438,1047.0938 Q164.8438,1046.4375 164.9688,1046.25 Q165.2344,1045.8438 165.7031,1045.8438 Q166.0781,1045.8438 166.3125,1046.1016 Q166.5469,1046.3594 166.5469,1046.9688 L166.5469,1048.9375 Q166.5469,1049.4844 166.4219,1049.6719 Q166.1563,1050.0625 165.7031,1050.0625 Q165.2344,1050.0625 164.9688,1049.6563 Q164.8438,1049.4688 164.8438,1048.7969 L163.3594,1048.7969 Z " /><text fill="#000000" font-family="sans-serif" font-size="12" lengthAdjust="spacingAndGlyphs" textLength="51" x="178.5" y="1052.9102">AGVState</text>
        <line style="stroke: #A80036; stroke-width: 1.5;" x1="150.5" x2="231.5" y1="1064" y2="1064" />
        <line style="stroke: #A80036; stroke-width: 1.5;" x1="150.5" x2="231.5" y1="1072" y2="1072" />
        <!--class DOCK-->
        <rect fill="#FEFECE" filter="url(#f11c1jmw7gkpa4)" height="61.8359" id="DOCK" style="stroke: #A80036; stroke-width: 1.5;" width="90" x="448" y="435" />
        <ellipse cx="463" cy="451" fill="#ADD1B2" rx="11" ry="11" style="stroke: #A80036; stroke-width: 1.0;" />
        <path d="M465.7656,446.875 Q465.9219,446.6563 466.1094,446.5469 Q466.2969,446.4375 466.5156,446.4375 Q466.8906,446.4375 467.125,446.6953 Q467.3594,446.9531 467.3594,447.5625 L467.3594,449.0156 Q467.3594,449.625 467.125,449.8906 Q466.8906,450.1563 466.5156,450.1563 Q466.1719,450.1563 465.9688,449.9531 Q465.7656,449.7656 465.6563,449.25 Q465.6094,448.8906 465.4219,448.7031 Q465.0938,448.3281 464.4844,448.1094 Q463.875,447.8906 463.25,447.8906 Q462.4844,447.8906 461.8516,448.2188 Q461.2188,448.5469 460.7266,449.2969 Q460.2344,450.0469 460.2344,451.0781 L460.2344,452.1719 Q460.2344,453.4063 461.125,454.2266 Q462.0156,455.0469 463.6094,455.0469 Q464.5469,455.0469 465.2031,454.7969 Q465.5938,454.6406 466.0156,454.2031 Q466.2813,453.9375 466.4297,453.8594 Q466.5781,453.7813 466.7813,453.7813 Q467.1094,453.7813 467.3672,454.0391 Q467.625,454.2969 467.625,454.6406 Q467.625,454.9844 467.2813,455.3906 Q466.7813,455.9688 465.9844,456.2969 Q464.9063,456.75 463.6094,456.75 Q462.0938,456.75 460.8906,456.125 Q459.9063,455.625 459.2188,454.5547 Q458.5313,453.4844 458.5313,452.2031 L458.5313,451.0469 Q458.5313,449.7188 459.1484,448.5703 Q459.7656,447.4219 460.8594,446.8047 Q461.9531,446.1875 463.1875,446.1875 Q463.9219,446.1875 464.5703,446.3516 Q465.2188,446.5156 465.7656,446.875 Z " /><text fill="#000000" font-family="sans-serif" font-size="12" lengthAdjust="spacingAndGlyphs" textLength="58" x="477" y="455.9102">AGVDocks</text>
        <line style="stroke: #A80036; stroke-width: 1.5;" x1="449" x2="537" y1="467" y2="467" /><text fill="#000000" font-family="sans-serif" font-size="11" lengthAdjust="spacingAndGlyphs" textLength="14" x="454" y="482.4189">+id</text>
        <line style="stroke: #A80036; stroke-width: 1.5;" x1="449" x2="537" y1="488.8359" y2="488.8359" />
        <!--class PCON-->
        <rect fill="#FEFECE" filter="url(#f11c1jmw7gkpa4)" height="89.5078" id="PCON" style="stroke: #A80036; stroke-width: 1.5;" width="160" x="6" y="315" />
        <ellipse cx="30.45" cy="331" fill="#ADD1B2" rx="11" ry="11" style="stroke: #A80036; stroke-width: 1.0;" />
        <path d="M33.2156,326.875 Q33.3719,326.6563 33.5594,326.5469 Q33.7469,326.4375 33.9656,326.4375 Q34.3406,326.4375 34.575,326.6953 Q34.8094,326.9531 34.8094,327.5625 L34.8094,329.0156 Q34.8094,329.625 34.575,329.8906 Q34.3406,330.1563 33.9656,330.1563 Q33.6219,330.1563 33.4188,329.9531 Q33.2156,329.7656 33.1063,329.25 Q33.0594,328.8906 32.8719,328.7031 Q32.5438,328.3281 31.9344,328.1094 Q31.325,327.8906 30.7,327.8906 Q29.9344,327.8906 29.3016,328.2188 Q28.6688,328.5469 28.1766,329.2969 Q27.6844,330.0469 27.6844,331.0781 L27.6844,332.1719 Q27.6844,333.4063 28.575,334.2266 Q29.4656,335.0469 31.0594,335.0469 Q31.9969,335.0469 32.6531,334.7969 Q33.0438,334.6406 33.4656,334.2031 Q33.7313,333.9375 33.8797,333.8594 Q34.0281,333.7813 34.2313,333.7813 Q34.5594,333.7813 34.8172,334.0391 Q35.075,334.2969 35.075,334.6406 Q35.075,334.9844 34.7313,335.3906 Q34.2313,335.9688 33.4344,336.2969 Q32.3563,336.75 31.0594,336.75 Q29.5438,336.75 28.3406,336.125 Q27.3563,335.625 26.6688,334.5547 Q25.9813,333.4844 25.9813,332.2031 L25.9813,331.0469 Q25.9813,329.7188 26.5984,328.5703 Q27.2156,327.4219 28.3094,326.8047 Q29.4031,326.1875 30.6375,326.1875 Q31.3719,326.1875 32.0203,326.3516 Q32.6688,326.5156 33.2156,326.875 Z " /><text fill="#000000" font-family="sans-serif" font-size="12" lengthAdjust="spacingAndGlyphs" textLength="107" x="46.55" y="335.9102">PersistenceContext</text>
        <line style="stroke: #A80036; stroke-width: 1.5;" x1="7" x2="165" y1="347" y2="347" /><text fill="#000000" font-family="sans-serif" font-size="11" lengthAdjust="spacingAndGlyphs" textLength="84" x="12" y="362.4189">-Logger LOGGER</text><text fill="#000000" font-family="sans-serif" font-size="11" lengthAdjust="spacingAndGlyphs" textLength="148" x="12" y="376.2549">-RepositoryFactory theFactory</text>
        <line style="stroke: #A80036; stroke-width: 1.5;" x1="7" x2="165" y1="382.6719" y2="382.6719" /><text fill="#000000" font-family="sans-serif" font-size="11" lengthAdjust="spacingAndGlyphs" textLength="71" x="12" y="398.0908">+repositories()</text>
        <!--class REPOFAC-->
        <rect fill="#FEFECE" filter="url(#f11c1jmw7gkpa4)" height="61.8359" id="REPOFAC" style="stroke: #A80036; stroke-width: 1.5;" width="130" x="32" y="527" />
        <ellipse cx="47" cy="543" fill="#ADD1B2" rx="11" ry="11" style="stroke: #A80036; stroke-width: 1.0;" />
        <path d="M49.7656,538.875 Q49.9219,538.6563 50.1094,538.5469 Q50.2969,538.4375 50.5156,538.4375 Q50.8906,538.4375 51.125,538.6953 Q51.3594,538.9531 51.3594,539.5625 L51.3594,541.0156 Q51.3594,541.625 51.125,541.8906 Q50.8906,542.1563 50.5156,542.1563 Q50.1719,542.1563 49.9688,541.9531 Q49.7656,541.7656 49.6563,541.25 Q49.6094,540.8906 49.4219,540.7031 Q49.0938,540.3281 48.4844,540.1094 Q47.875,539.8906 47.25,539.8906 Q46.4844,539.8906 45.8516,540.2188 Q45.2188,540.5469 44.7266,541.2969 Q44.2344,542.0469 44.2344,543.0781 L44.2344,544.1719 Q44.2344,545.4063 45.125,546.2266 Q46.0156,547.0469 47.6094,547.0469 Q48.5469,547.0469 49.2031,546.7969 Q49.5938,546.6406 50.0156,546.2031 Q50.2813,545.9375 50.4297,545.8594 Q50.5781,545.7813 50.7813,545.7813 Q51.1094,545.7813 51.3672,546.0391 Q51.625,546.2969 51.625,546.6406 Q51.625,546.9844 51.2813,547.3906 Q50.7813,547.9688 49.9844,548.2969 Q48.9063,548.75 47.6094,548.75 Q46.0938,548.75 44.8906,548.125 Q43.9063,547.625 43.2188,546.5547 Q42.5313,545.4844 42.5313,544.2031 L42.5313,543.0469 Q42.5313,541.7188 43.1484,540.5703 Q43.7656,539.4219 44.8594,538.8047 Q45.9531,538.1875 47.1875,538.1875 Q47.9219,538.1875 48.5703,538.3516 Q49.2188,538.5156 49.7656,538.875 Z " /><text fill="#000000" font-family="sans-serif" font-size="12" lengthAdjust="spacingAndGlyphs" textLength="98" x="61" y="547.9102">RepositoryFactory</text>
        <line style="stroke: #A80036; stroke-width: 1.5;" x1="33" x2="161" y1="559" y2="559" />
        <line style="stroke: #A80036; stroke-width: 1.5;" x1="33" x2="161" y1="567" y2="567" /><text fill="#000000" font-family="sans-serif" font-size="11" lengthAdjust="spacingAndGlyphs" textLength="38" x="38" y="582.4189">+agvs()</text>
        <!--class AREPO-->
        <rect fill="#FEFECE" filter="url(#f11c1jmw7gkpa4)" height="48" id="AREPO" style="stroke: #A80036; stroke-width: 1.5;" width="114" x="122" y="697" />
        <ellipse cx="137" cy="713" fill="#ADD1B2" rx="11" ry="11" style="stroke: #A80036; stroke-width: 1.0;" />
        <path d="M139.7656,708.875 Q139.9219,708.6563 140.1094,708.5469 Q140.2969,708.4375 140.5156,708.4375 Q140.8906,708.4375 141.125,708.6953 Q141.3594,708.9531 141.3594,709.5625 L141.3594,711.0156 Q141.3594,711.625 141.125,711.8906 Q140.8906,712.1563 140.5156,712.1563 Q140.1719,712.1563 139.9688,711.9531 Q139.7656,711.7656 139.6563,711.25 Q139.6094,710.8906 139.4219,710.7031 Q139.0938,710.3281 138.4844,710.1094 Q137.875,709.8906 137.25,709.8906 Q136.4844,709.8906 135.8516,710.2188 Q135.2188,710.5469 134.7266,711.2969 Q134.2344,712.0469 134.2344,713.0781 L134.2344,714.1719 Q134.2344,715.4063 135.125,716.2266 Q136.0156,717.0469 137.6094,717.0469 Q138.5469,717.0469 139.2031,716.7969 Q139.5938,716.6406 140.0156,716.2031 Q140.2813,715.9375 140.4297,715.8594 Q140.5781,715.7813 140.7813,715.7813 Q141.1094,715.7813 141.3672,716.0391 Q141.625,716.2969 141.625,716.6406 Q141.625,716.9844 141.2813,717.3906 Q140.7813,717.9688 139.9844,718.2969 Q138.9063,718.75 137.6094,718.75 Q136.0938,718.75 134.8906,718.125 Q133.9063,717.625 133.2188,716.5547 Q132.5313,715.4844 132.5313,714.2031 L132.5313,713.0469 Q132.5313,711.7188 133.1484,710.5703 Q133.7656,709.4219 134.8594,708.8047 Q135.9531,708.1875 137.1875,708.1875 Q137.9219,708.1875 138.5703,708.3516 Q139.2188,708.5156 139.7656,708.875 Z " /><text fill="#000000" font-family="sans-serif" font-size="12" lengthAdjust="spacingAndGlyphs" textLength="82" x="151" y="717.9102">AGVRepository</text>
        <line style="stroke: #A80036; stroke-width: 1.5;" x1="123" x2="235" y1="729" y2="729" />
        <line style="stroke: #A80036; stroke-width: 1.5;" x1="123" x2="235" y1="737" y2="737" />
        <!--class DP-->
        <rect fill="#FEFECE" filter="url(#f11c1jmw7gkpa4)" height="48" id="DP" style="stroke: #A80036; stroke-width: 1.5;" width="103" x="416.5" y="1032" />
        <ellipse cx="431.5" cy="1048" fill="#ADD1B2" rx="11" ry="11" style="stroke: #A80036; stroke-width: 1.0;" />
        <path d="M434.2656,1043.875 Q434.4219,1043.6563 434.6094,1043.5469 Q434.7969,1043.4375 435.0156,1043.4375 Q435.3906,1043.4375 435.625,1043.6953 Q435.8594,1043.9531 435.8594,1044.5625 L435.8594,1046.0156 Q435.8594,1046.625 435.625,1046.8906 Q435.3906,1047.1563 435.0156,1047.1563 Q434.6719,1047.1563 434.4688,1046.9531 Q434.2656,1046.7656 434.1563,1046.25 Q434.1094,1045.8906 433.9219,1045.7031 Q433.5938,1045.3281 432.9844,1045.1094 Q432.375,1044.8906 431.75,1044.8906 Q430.9844,1044.8906 430.3516,1045.2188 Q429.7188,1045.5469 429.2266,1046.2969 Q428.7344,1047.0469 428.7344,1048.0781 L428.7344,1049.1719 Q428.7344,1050.4063 429.625,1051.2266 Q430.5156,1052.0469 432.1094,1052.0469 Q433.0469,1052.0469 433.7031,1051.7969 Q434.0938,1051.6406 434.5156,1051.2031 Q434.7813,1050.9375 434.9297,1050.8594 Q435.0781,1050.7813 435.2813,1050.7813 Q435.6094,1050.7813 435.8672,1051.0391 Q436.125,1051.2969 436.125,1051.6406 Q436.125,1051.9844 435.7813,1052.3906 Q435.2813,1052.9688 434.4844,1053.2969 Q433.4063,1053.75 432.1094,1053.75 Q430.5938,1053.75 429.3906,1053.125 Q428.4063,1052.625 427.7188,1051.5547 Q427.0313,1050.4844 427.0313,1049.2031 L427.0313,1048.0469 Q427.0313,1046.7188 427.6484,1045.5703 Q428.2656,1044.4219 429.3594,1043.8047 Q430.4531,1043.1875 431.6875,1043.1875 Q432.4219,1043.1875 433.0703,1043.3516 Q433.7188,1043.5156 434.2656,1043.875 Z " /><text fill="#000000" font-family="sans-serif" font-size="12" lengthAdjust="spacingAndGlyphs" textLength="71" x="445.5" y="1052.9102">dockingPoint</text>
        <line style="stroke: #A80036; stroke-width: 1.5;" x1="417.5" x2="518.5" y1="1064" y2="1064" />
        <line style="stroke: #A80036; stroke-width: 1.5;" x1="417.5" x2="518.5" y1="1072" y2="1072" />
        <!--class BUILDER-->
        <rect fill="#FEFECE" filter="url(#f11c1jmw7gkpa4)" height="48" id="BUILDER" style="stroke: #A80036; stroke-width: 1.5;" width="94" x="260" y="619" />
        <ellipse cx="275" cy="635" fill="#ADD1B2" rx="11" ry="11" style="stroke: #A80036; stroke-width: 1.0;" />
        <path d="M277.7656,630.875 Q277.9219,630.6563 278.1094,630.5469 Q278.2969,630.4375 278.5156,630.4375 Q278.8906,630.4375 279.125,630.6953 Q279.3594,630.9531 279.3594,631.5625 L279.3594,633.0156 Q279.3594,633.625 279.125,633.8906 Q278.8906,634.1563 278.5156,634.1563 Q278.1719,634.1563 277.9688,633.9531 Q277.7656,633.7656 277.6563,633.25 Q277.6094,632.8906 277.4219,632.7031 Q277.0938,632.3281 276.4844,632.1094 Q275.875,631.8906 275.25,631.8906 Q274.4844,631.8906 273.8516,632.2188 Q273.2188,632.5469 272.7266,633.2969 Q272.2344,634.0469 272.2344,635.0781 L272.2344,636.1719 Q272.2344,637.4063 273.125,638.2266 Q274.0156,639.0469 275.6094,639.0469 Q276.5469,639.0469 277.2031,638.7969 Q277.5938,638.6406 278.0156,638.2031 Q278.2813,637.9375 278.4297,637.8594 Q278.5781,637.7813 278.7813,637.7813 Q279.1094,637.7813 279.3672,638.0391 Q279.625,638.2969 279.625,638.6406 Q279.625,638.9844 279.2813,639.3906 Q278.7813,639.9688 277.9844,640.2969 Q276.9063,640.75 275.6094,640.75 Q274.0938,640.75 272.8906,640.125 Q271.9063,639.625 271.2188,638.5547 Q270.5313,637.4844 270.5313,636.2031 L270.5313,635.0469 Q270.5313,633.7188 271.1484,632.5703 Q271.7656,631.4219 272.8594,630.8047 Q273.9531,630.1875 275.1875,630.1875 Q275.9219,630.1875 276.5703,630.3516 Q277.2188,630.5156 277.7656,630.875 Z " /><text fill="#000000" font-family="sans-serif" font-size="12" lengthAdjust="spacingAndGlyphs" textLength="62" x="289" y="639.9102">AGVBuilder</text>
        <line style="stroke: #A80036; stroke-width: 1.5;" x1="261" x2="353" y1="651" y2="651" />
        <line style="stroke: #A80036; stroke-width: 1.5;" x1="261" x2="353" y1="659" y2="659" />
        <!--class AGVModel-->
        <rect fill="#FEFECE" filter="url(#f11c1jmw7gkpa4)" height="48" id="AGVModel" style="stroke: #A80036; stroke-width: 1.5;" width="88" x="268" y="1032" />
        <ellipse cx="283" cy="1048" fill="#ADD1B2" rx="11" ry="11" style="stroke: #A80036; stroke-width: 1.0;" />
        <path d="M285.7656,1043.875 Q285.9219,1043.6563 286.1094,1043.5469 Q286.2969,1043.4375 286.5156,1043.4375 Q286.8906,1043.4375 287.125,1043.6953 Q287.3594,1043.9531 287.3594,1044.5625 L287.3594,1046.0156 Q287.3594,1046.625 287.125,1046.8906 Q286.8906,1047.1563 286.5156,1047.1563 Q286.1719,1047.1563 285.9688,1046.9531 Q285.7656,1046.7656 285.6563,1046.25 Q285.6094,1045.8906 285.4219,1045.7031 Q285.0938,1045.3281 284.4844,1045.1094 Q283.875,1044.8906 283.25,1044.8906 Q282.4844,1044.8906 281.8516,1045.2188 Q281.2188,1045.5469 280.7266,1046.2969 Q280.2344,1047.0469 280.2344,1048.0781 L280.2344,1049.1719 Q280.2344,1050.4063 281.125,1051.2266 Q282.0156,1052.0469 283.6094,1052.0469 Q284.5469,1052.0469 285.2031,1051.7969 Q285.5938,1051.6406 286.0156,1051.2031 Q286.2813,1050.9375 286.4297,1050.8594 Q286.5781,1050.7813 286.7813,1050.7813 Q287.1094,1050.7813 287.3672,1051.0391 Q287.625,1051.2969 287.625,1051.6406 Q287.625,1051.9844 287.2813,1052.3906 Q286.7813,1052.9688 285.9844,1053.2969 Q284.9063,1053.75 283.6094,1053.75 Q282.0938,1053.75 280.8906,1053.125 Q279.9063,1052.625 279.2188,1051.5547 Q278.5313,1050.4844 278.5313,1049.2031 L278.5313,1048.0469 Q278.5313,1046.7188 279.1484,1045.5703 Q279.7656,1044.4219 280.8594,1043.8047 Q281.9531,1043.1875 283.1875,1043.1875 Q283.9219,1043.1875 284.5703,1043.3516 Q285.2188,1043.5156 285.7656,1043.875 Z " /><text fill="#000000" font-family="sans-serif" font-size="12" lengthAdjust="spacingAndGlyphs" textLength="56" x="297" y="1052.9102">AGVModel</text>
        <line style="stroke: #A80036; stroke-width: 1.5;" x1="269" x2="355" y1="1064" y2="1064" />
        <line style="stroke: #A80036; stroke-width: 1.5;" x1="269" x2="355" y1="1072" y2="1072" />
        <!--link UI to CTRL-->
        <path d="M387.787,70.22 C365.035,87.757 336.35,109.864 312.984,127.872 " fill="none" id="UI-CTRL" style="stroke: #A80036; stroke-width: 1.0; stroke-dasharray: 7.0,7.0;" />
        <polygon fill="#A80036" points="308.985,130.954,318.5555,128.6291,312.9456,127.9021,313.6725,122.2922,308.985,130.954" style="stroke: #A80036; stroke-width: 1.0;" />
        <!--link UI to WI-->
        <path d="M437.24,70.26 C443.153,87.925 450.653,110.675 457,131 C466.096,160.126 475.86,193.351 482.922,217.767 " fill="none" id="UI-WI" style="stroke: #A80036; stroke-width: 1.0; stroke-dasharray: 7.0,7.0;" />
        <polygon fill="#A80036" points="484.386,222.838,485.7317,213.0815,482.9986,218.0343,478.0458,215.3013,484.386,222.838" style="stroke: #A80036; stroke-width: 1.0;" />
        <!--link CTRL to PCON-->
        <path d="M203.26,193.008 C188.93,201.389 174.62,211.428 163,223 C138.193,247.705 118.831,282.058 105.7272,310.055 " fill="none" id="CTRL-PCON" style="stroke: #A80036; stroke-width: 1.0;" />
        <polygon fill="#A80036" points="103.516,314.848,110.9196,308.3529,105.6115,310.3083,103.656,305.0001,103.516,314.848" style="stroke: #A80036; stroke-width: 1.0;" /><text fill="#000000" font-family="sans-serif" font-size="13" lengthAdjust="spacingAndGlyphs" textLength="28" x="164" y="259.4951">uses</text><text fill="#000000" font-family="sans-serif" font-size="13" lengthAdjust="spacingAndGlyphs" textLength="7" x="182.4315" y="214.2336">1</text><text fill="#000000" font-family="sans-serif" font-size="13" lengthAdjust="spacingAndGlyphs" textLength="7" x="98.6622" y="304.2688">1</text>
        <!--link CTRL to AGV-->
        <path d="M304.819,193.158 C341.806,228.728 395,291.601 395,359 C395,359 395,359 395,722 C395,758.726 378.118,795.396 359.314,824.851 " fill="none" id="CTRL-AGV" style="stroke: #A80036; stroke-width: 1.0;" />
        <polygon fill="#A80036" points="356.528,829.143,364.7836,823.7722,359.2505,824.9492,358.0735,819.4162,356.528,829.143" style="stroke: #A80036; stroke-width: 1.0;" /><text fill="#000000" font-family="sans-serif" font-size="13" lengthAdjust="spacingAndGlyphs" textLength="43" x="396" y="563.4951">creates</text><text fill="#000000" font-family="sans-serif" font-size="13" lengthAdjust="spacingAndGlyphs" textLength="7" x="303.9849" y="214.4131">1</text><text fill="#000000" font-family="sans-serif" font-size="13" lengthAdjust="spacingAndGlyphs" textLength="5" x="364.5012" y="815.9299">*</text>
        <!--link CTRL to AREPO-->
        <path d="M267.575,193.187 C260.826,272 239.466,490.116 197,667 C195.027,675.216 192.318,683.966 189.6,691.938 " fill="none" id="CTRL-AREPO" style="stroke: #A80036; stroke-width: 1.0;" />
        <polygon fill="#A80036" points="187.914,696.79,194.6495,689.6044,189.5572,692.0677,187.0939,686.9754,187.914,696.79" style="stroke: #A80036; stroke-width: 1.0;" /><text fill="#000000" font-family="sans-serif" font-size="13" lengthAdjust="spacingAndGlyphs" textLength="7" x="259.4085" y="214.4478">1</text><text fill="#000000" font-family="sans-serif" font-size="13" lengthAdjust="spacingAndGlyphs" textLength="7" x="182.3013" y="686.0763">1</text>
        <!--link CTRL to BUILDER-->
        <path d="M272.343,193.327 C279.057,280.246 298.303,529.404 304.815,613.719 " fill="none" id="CTRL-BUILDER" style="stroke: #A80036; stroke-width: 1.0;" />
        <polygon fill="#A80036" points="305.208,618.795,308.5043,609.5141,304.8236,613.8098,300.528,610.1291,305.208,618.795" style="stroke: #A80036; stroke-width: 1.0;" /><text fill="#000000" font-family="sans-serif" font-size="13" lengthAdjust="spacingAndGlyphs" textLength="28" x="290" y="365.4951">uses</text><text fill="#000000" font-family="sans-serif" font-size="13" lengthAdjust="spacingAndGlyphs" textLength="7" x="273.4568" y="214.368">1</text><text fill="#000000" font-family="sans-serif" font-size="13" lengthAdjust="spacingAndGlyphs" textLength="7" x="296.8519" y="608.0826">1</text>
        <!--link BUILDER to AGV-->
        <path d="M307.192,667.348 C307.473,701.643 308.011,767.05 308.427,817.697 " fill="none" id="BUILDER-AGV" style="stroke: #A80036; stroke-width: 1.0;" />
        <polygon fill="#A80036" points="308.469,822.861,312.3969,813.8293,308.429,817.8612,304.3971,813.8933,308.469,822.861" style="stroke: #A80036; stroke-width: 1.0;" /><text fill="#000000" font-family="sans-serif" font-size="13" lengthAdjust="spacingAndGlyphs" textLength="34" x="309" y="726.4951">builds</text><text fill="#000000" font-family="sans-serif" font-size="13" lengthAdjust="spacingAndGlyphs" textLength="7" x="299.427" y="688.3642">1</text><text fill="#000000" font-family="sans-serif" font-size="13" lengthAdjust="spacingAndGlyphs" textLength="5" x="303.1375" y="812.3202">*</text>
        <!--link PCON to REPOFAC-->
        <path d="M88.4961,405.475 C90.4696,440.64 93.1875,489.069 95.0147,521.626 " fill="none" id="PCON-REPOFAC" style="stroke: #A80036; stroke-width: 1.0;" />
        <polygon fill="#A80036" points="95.3001,526.711,98.7898,517.5011,95.0201,521.7188,90.8024,517.9491,95.3001,526.711" style="stroke: #A80036; stroke-width: 1.0;" /><text fill="#000000" font-family="sans-serif" font-size="13" lengthAdjust="spacingAndGlyphs" textLength="43" x="95" y="471.4951">creates</text><text fill="#000000" font-family="sans-serif" font-size="13" lengthAdjust="spacingAndGlyphs" textLength="7" x="81.3675" y="425.8757">1</text><text fill="#000000" font-family="sans-serif" font-size="13" lengthAdjust="spacingAndGlyphs" textLength="7" x="87.2276" y="516.1559">1</text>
        <!--link REPOFAC to AREPO-->
        <path d="M112.424,589.283 C127.484,618.853 150.212,663.476 164.829,692.176 " fill="none" id="REPOFAC-AREPO" style="stroke: #A80036; stroke-width: 1.0;" />
        <polygon fill="#A80036" points="167.103,696.64,166.5841,686.8048,164.8344,692.1843,159.455,690.4345,167.103,696.64" style="stroke: #A80036; stroke-width: 1.0;" /><text fill="#000000" font-family="sans-serif" font-size="13" lengthAdjust="spacingAndGlyphs" textLength="36" x="152" y="648.4951">stores</text><text fill="#000000" font-family="sans-serif" font-size="13" lengthAdjust="spacingAndGlyphs" textLength="7" x="107.6965" y="610.3156">1</text><text fill="#000000" font-family="sans-serif" font-size="13" lengthAdjust="spacingAndGlyphs" textLength="7" x="156.35" y="686.2902">1</text>
        <!--link AREPO to AGV-->
        <path d="M197.076,745.012 C212.902,765.16 236.675,795.425 258.246,822.886 " fill="none" id="AREPO-AGV" style="stroke: #A80036; stroke-width: 1.0;" />
        <polygon fill="#A80036" points="261.412,826.916,258.9975,817.3677,258.3231,822.9842,252.7066,822.3099,261.412,826.916" style="stroke: #A80036; stroke-width: 1.0;" /><text fill="#000000" font-family="sans-serif" font-size="13" lengthAdjust="spacingAndGlyphs" textLength="36" x="234" y="789.4951">stores</text><text fill="#000000" font-family="sans-serif" font-size="13" lengthAdjust="spacingAndGlyphs" textLength="7" x="193.6289" y="766.3529">1</text><text fill="#000000" font-family="sans-serif" font-size="13" lengthAdjust="spacingAndGlyphs" textLength="5" x="248.4292" y="813.3479">*</text>
        <!--link AGV to AGVSTATE-->
        <path d="M262.702,954.435 C244.498,979.967 224.599,1007.8753 210.393,1027.7999 " fill="none" id="AGV-AGVSTATE" style="stroke: #A80036; stroke-width: 1.0;" />
        <polygon fill="#A80036" points="207.451,1031.9267,215.9326,1026.9205,210.3536,1027.8555,209.4187,1022.2764,207.451,1031.9267" style="stroke: #A80036; stroke-width: 1.0;" /><text fill="#000000" font-family="sans-serif" font-size="13" lengthAdjust="spacingAndGlyphs" textLength="49" x="241" y="998.4951">contains</text><text fill="#000000" font-family="sans-serif" font-size="13" lengthAdjust="spacingAndGlyphs" textLength="7" x="250.5666" y="975.572">1</text><text fill="#000000" font-family="sans-serif" font-size="13" lengthAdjust="spacingAndGlyphs" textLength="7" x="203.7697" y="1021.2481">1</text>
        <!--link AGV to AGVModel-->
        <path d="M310.177,954.435 C310.632,979.54 311.129,1006.9418 311.489,1026.7929 " fill="none" id="AGV-AGVModel" style="stroke: #A80036; stroke-width: 1.0;" />
        <polygon fill="#A80036" points="311.582,1031.9267,315.4181,1022.8556,311.4913,1026.9275,307.4194,1023.0007,311.582,1031.9267" style="stroke: #A80036; stroke-width: 1.0;" /><text fill="#000000" font-family="sans-serif" font-size="13" lengthAdjust="spacingAndGlyphs" textLength="49" x="313" y="998.4951">contains</text><text fill="#000000" font-family="sans-serif" font-size="13" lengthAdjust="spacingAndGlyphs" textLength="7" x="302.9374" y="975.572">1</text><text fill="#000000" font-family="sans-serif" font-size="13" lengthAdjust="spacingAndGlyphs" textLength="7" x="303.578" y="1021.2481">1</text>
        <!--link AGV to DP-->
        <path d="M356.506,939.781 C375.007,959.276 396.43,981.7412 416,1002 C424.158,1010.4455 433.095,1019.5914 441.223,1027.8698 " fill="none" id="AGV-DP" style="stroke: #A80036; stroke-width: 1.0;" />
        <polygon fill="#A80036" points="445.141,1031.8572,441.6871,1022.6338,441.637,1028.2905,435.9803,1028.2403,445.141,1031.8572" style="stroke: #A80036; stroke-width: 1.0;" /><text fill="#000000" font-family="sans-serif" font-size="13" lengthAdjust="spacingAndGlyphs" textLength="49" x="417" y="998.4951">contains</text><text fill="#000000" font-family="sans-serif" font-size="13" lengthAdjust="spacingAndGlyphs" textLength="7" x="364.6351" y="944.2008">1</text><text fill="#000000" font-family="sans-serif" font-size="13" lengthAdjust="spacingAndGlyphs" textLength="7" x="431.3865" y="1021.1608">1</text>
        <!--link WI to DOCK-->
        <path d="M493,285.088 C493,323.294 493,389.109 493,429.663 " fill="none" id="WI-DOCK" style="stroke: #A80036; stroke-width: 1.0;" />
        <polygon fill="#A80036" points="493,434.968,497,425.968,493,429.968,489,425.968,493,434.968" style="stroke: #A80036; stroke-width: 1.0;" /><text fill="#000000" font-family="sans-serif" font-size="13" lengthAdjust="spacingAndGlyphs" textLength="36" x="494" y="365.4951">stores</text><text fill="#000000" font-family="sans-serif" font-size="13" lengthAdjust="spacingAndGlyphs" textLength="7" x="485.3109" y="306.3293">1</text><text fill="#000000" font-family="sans-serif" font-size="13" lengthAdjust="spacingAndGlyphs" textLength="5" x="487.4531" y="423.9813">*</text>
        <!--link DOCK to DP-->
        <path d="M493,497.037 C493,531.896 493,591.11 493,642 C493,642 493,642 493,889.5 C493,938.184 482.293,994.0289 474.893,1026.811 " fill="none" id="DOCK-DP" style="stroke: #A80036; stroke-width: 1.0;" />
        <polygon fill="#A80036" points="473.736,1031.8696,479.6427,1023.9886,474.8513,1026.9956,471.8443,1022.2041,473.736,1031.8696" style="stroke: #A80036; stroke-width: 1.0;" /><text fill="#000000" font-family="sans-serif" font-size="13" lengthAdjust="spacingAndGlyphs" textLength="73" x="494" y="726.4951">converts into</text><text fill="#000000" font-family="sans-serif" font-size="13" lengthAdjust="spacingAndGlyphs" textLength="7" x="485.3109" y="518.2683">1</text><text fill="#000000" font-family="sans-serif" font-size="13" lengthAdjust="spacingAndGlyphs" textLength="7" x="467.309" y="1021.1763">1</text>
        <!--
@startuml
skinparam classAttributeIconSize 0

class "CreateAGVUI" as UI {
  +run()
}

class "CreateAVGController" as CTRL {
  +createAGV(autonomy, capacity, weight, volume, shortDescription)
}

class "WarehouseInfo" as WI {
  +getAGVDocks()
}

class "AGV" as AGV{
  -autonomy
  -capacity
  -weight
  -volume
  -shortDescription
  -dockingPoint

}

enum "AGVState" as AGVSTATE {

}

class "AGVDocks" as DOCK {
  +id
}



class "PersistenceContext" as PCON {
  -Logger LOGGER
  -RepositoryFactory theFactory
  +repositories()
}

class "RepositoryFactory" as REPOFAC {
  +agvs()
}


class "AGVRepository" as AREPO {

}


class "dockingPoint" as DP {

}

class "AGVBuilder" as BUILDER {

}


UI ..> CTRL
UI ..> WI

CTRL "1" - -> "1" PCON : uses
CTRL "1" - -> "*" AGV : creates
CTRL "1" - -> "1" AREPO
CTRL "1" - -> "1" BUILDER : uses

BUILDER "1" - -> "*" AGV : builds

PCON "1" - -> "1" REPOFAC : creates
REPOFAC "1" - -> "1" AREPO : stores

AREPO "1" - -> "*" AGV : stores

AGV "1" - -> "1" AGVSTATE : contains
AGV "1" - -> "1" AGVModel : contains
AGV "1" - -> "1" DP : contains

WI "1" - -> "*" DOCK : stores

DOCK "1" -> "1" DP : converts into


@enduml

PlantUML version 1.2018.14(Fri Dec 21 16:33:16 GMT 2018)
(GPL source distribution)
Java Runtime: Java(TM) SE Runtime Environment
JVM: Java HotSpot(TM) 64-Bit Server VM
Java Version: 1.8.0_221-b11
Operating System: Windows 10
OS Version: 10.0
Default Encoding: Cp1252
Language: pt
Country: PT
-->
    </g>
</svg>