<?xml version="1.0" encoding="UTF-8" standalone="no"?><svg xmlns="http://www.w3.org/2000/svg" xmlns:xlink="http://www.w3.org/1999/xlink" contentScriptType="application/ecmascript" contentStyleType="text/css" height="503px" preserveAspectRatio="none" style="width:496px;height:503px;" version="1.1" viewBox="0 0 496 503" width="496px" zoomAndPan="magnify">
    <defs>
        <filter height="300%" id="fd676uxj500hv" width="300%" x="-1" y="-1">
            <feGaussianBlur result="blurOut" stdDeviation="2.0" />
            <feColorMatrix in="blurOut" result="blurOut2" type="matrix" values="0 0 0 0 0 0 0 0 0 0 0 0 0 0 0 0 0 0 .4 0" />
            <feOffset dx="4.0" dy="4.0" in="blurOut2" result="blurOut3" />
            <feBlend in="SourceGraphic" in2="blurOut3" mode="normal" />
        </filter>
    </defs>
    <g>
        <rect fill="#FFFFFF" filter="url(#fd676uxj500hv)" height="299.5156" style="stroke: #A80036; stroke-width: 1.0;" width="10" x="100.5" y="97.6094" />
        <rect fill="#FFFFFF" filter="url(#fd676uxj500hv)" height="55.7031" style="stroke: #A80036; stroke-width: 1.0;" width="10" x="428.5" y="119.9609" />
        <rect fill="#FFFFFF" filter="url(#fd676uxj500hv)" height="55.7031" style="stroke: #A80036; stroke-width: 1.0;" width="10" x="428.5" y="206.0156" />
        <rect fill="#FFFFFF" filter="url(#fd676uxj500hv)" height="37.3516" style="stroke: #A80036; stroke-width: 1.0;" width="10" x="428.5" y="292.0703" />
        <rect fill="#FFFFFF" filter="url(#fd676uxj500hv)" height="37.3516" style="stroke: #A80036; stroke-width: 1.0;" width="10" x="428.5" y="359.7734" />
        <rect fill="#FFFFFF" filter="url(#fd676uxj500hv)" height="232.8125" style="stroke: #000000; stroke-width: 2.0;" width="472.5" x="13" y="134.9609" />
        <rect fill="#FFFFFF" filter="url(#fd676uxj500hv)" height="79.0547" style="stroke: #000000; stroke-width: 2.0;" width="452.5" x="23" y="221.0156" />
        <line style="stroke: #A80036; stroke-width: 1.0; stroke-dasharray: 5.0,5.0;" x1="105" x2="105" y1="87.6094" y2="415.125" />
        <line style="stroke: #A80036; stroke-width: 1.0; stroke-dasharray: 5.0,5.0;" x1="433.5" x2="433.5" y1="87.6094" y2="415.125" /><text fill="#000000" font-family="sans-serif" font-size="14" lengthAdjust="spacingAndGlyphs" textLength="139" x="33" y="84.5332">Warehouse Employee</text>
        <ellipse cx="105.5" cy="13" fill="#FEFECE" filter="url(#fd676uxj500hv)" rx="8" ry="8" style="stroke: #A80036; stroke-width: 2.0;" />
        <path d="M105.5,21 L105.5,48 M92.5,29 L118.5,29 M105.5,48 L92.5,63 M105.5,48 L118.5,63 " fill="none" filter="url(#fd676uxj500hv)" style="stroke: #A80036; stroke-width: 2.0;" /><text fill="#000000" font-family="sans-serif" font-size="14" lengthAdjust="spacingAndGlyphs" textLength="139" x="33" y="428.6582">Warehouse Employee</text>
        <ellipse cx="105.5" cy="441.7344" fill="#FEFECE" filter="url(#fd676uxj500hv)" rx="8" ry="8" style="stroke: #A80036; stroke-width: 2.0;" />
        <path d="M105.5,449.7344 L105.5,476.7344 M92.5,457.7344 L118.5,457.7344 M105.5,476.7344 L92.5,491.7344 M105.5,476.7344 L118.5,491.7344 " fill="none" filter="url(#fd676uxj500hv)" style="stroke: #A80036; stroke-width: 2.0;" />
        <rect fill="#FEFECE" filter="url(#fd676uxj500hv)" height="31.6094" style="stroke: #A80036; stroke-width: 1.5;" width="60" x="401.5" y="51" /><text fill="#000000" font-family="sans-serif" font-size="14" lengthAdjust="spacingAndGlyphs" textLength="46" x="408.5" y="72.5332">System</text>
        <rect fill="#FEFECE" filter="url(#fd676uxj500hv)" height="31.6094" style="stroke: #A80036; stroke-width: 1.5;" width="60" x="401.5" y="414.125" /><text fill="#000000" font-family="sans-serif" font-size="14" lengthAdjust="spacingAndGlyphs" textLength="46" x="408.5" y="435.6582">System</text>
        <rect fill="#FFFFFF" filter="url(#fd676uxj500hv)" height="299.5156" style="stroke: #A80036; stroke-width: 1.0;" width="10" x="100.5" y="97.6094" />
        <rect fill="#FFFFFF" filter="url(#fd676uxj500hv)" height="55.7031" style="stroke: #A80036; stroke-width: 1.0;" width="10" x="428.5" y="119.9609" />
        <rect fill="#FFFFFF" filter="url(#fd676uxj500hv)" height="55.7031" style="stroke: #A80036; stroke-width: 1.0;" width="10" x="428.5" y="206.0156" />
        <rect fill="#FFFFFF" filter="url(#fd676uxj500hv)" height="37.3516" style="stroke: #A80036; stroke-width: 1.0;" width="10" x="428.5" y="292.0703" />
        <rect fill="#FFFFFF" filter="url(#fd676uxj500hv)" height="37.3516" style="stroke: #A80036; stroke-width: 1.0;" width="10" x="428.5" y="359.7734" />
        <polygon fill="#A80036" points="416.5,115.9609,426.5,119.9609,416.5,123.9609,420.5,119.9609" style="stroke: #A80036; stroke-width: 1.0;" />
        <line style="stroke: #A80036; stroke-width: 1.0;" x1="110.5" x2="422.5" y1="119.9609" y2="119.9609" /><text fill="#000000" font-family="sans-serif" font-size="13" font-weight="bold" lengthAdjust="spacingAndGlyphs" textLength="7" x="117.5" y="115.1045">1</text><text fill="#000000" font-family="sans-serif" font-size="13" lengthAdjust="spacingAndGlyphs" textLength="160" x="128.5" y="115.1045">starts configuration process</text>
        <path d="M13,134.9609 L86,134.9609 L86,142.9609 L76,152.9609 L13,152.9609 L13,134.9609 " fill="#EEEEEE" style="stroke: #000000; stroke-width: 1.0;" />
        <rect fill="none" height="232.8125" style="stroke: #000000; stroke-width: 2.0;" width="472.5" x="13" y="134.9609" /><text fill="#000000" font-family="sans-serif" font-size="13" font-weight="bold" lengthAdjust="spacingAndGlyphs" textLength="28" x="28" y="149.4561">loop</text>
        <polygon fill="#A80036" points="121.5,171.6641,111.5,175.6641,121.5,179.6641,117.5,175.6641" style="stroke: #A80036; stroke-width: 1.0;" />
        <line style="stroke: #A80036; stroke-width: 1.0;" x1="115.5" x2="432.5" y1="175.6641" y2="175.6641" /><text fill="#000000" font-family="sans-serif" font-size="13" font-weight="bold" lengthAdjust="spacingAndGlyphs" textLength="7" x="127.5" y="170.8076">2</text><text fill="#000000" font-family="sans-serif" font-size="13" lengthAdjust="spacingAndGlyphs" textLength="116" x="138.5" y="170.8076">lists available AGVs</text>
        <polygon fill="#A80036" points="416.5,202.0156,426.5,206.0156,416.5,210.0156,420.5,206.0156" style="stroke: #A80036; stroke-width: 1.0;" />
        <line style="stroke: #A80036; stroke-width: 1.0;" x1="110.5" x2="422.5" y1="206.0156" y2="206.0156" /><text fill="#000000" font-family="sans-serif" font-size="13" font-weight="bold" lengthAdjust="spacingAndGlyphs" textLength="7" x="117.5" y="201.1592">3</text><text fill="#000000" font-family="sans-serif" font-size="13" lengthAdjust="spacingAndGlyphs" textLength="67" x="128.5" y="201.1592">selects one</text>
        <path d="M23,221.0156 L96,221.0156 L96,229.0156 L86,239.0156 L23,239.0156 L23,221.0156 " fill="#EEEEEE" style="stroke: #000000; stroke-width: 1.0;" />
        <rect fill="none" height="79.0547" style="stroke: #000000; stroke-width: 2.0;" width="452.5" x="23" y="221.0156" /><text fill="#000000" font-family="sans-serif" font-size="13" font-weight="bold" lengthAdjust="spacingAndGlyphs" textLength="28" x="38" y="235.5107">loop</text>
        <polygon fill="#A80036" points="121.5,257.7188,111.5,261.7188,121.5,265.7188,117.5,261.7188" style="stroke: #A80036; stroke-width: 1.0;" />
        <line style="stroke: #A80036; stroke-width: 1.0;" x1="115.5" x2="432.5" y1="261.7188" y2="261.7188" /><text fill="#000000" font-family="sans-serif" font-size="13" font-weight="bold" lengthAdjust="spacingAndGlyphs" textLength="7" x="127.5" y="256.8623">4</text><text fill="#000000" font-family="sans-serif" font-size="13" lengthAdjust="spacingAndGlyphs" textLength="160" x="138.5" y="256.8623">shows configuration options</text>
        <polygon fill="#A80036" points="416.5,288.0703,426.5,292.0703,416.5,296.0703,420.5,292.0703" style="stroke: #A80036; stroke-width: 1.0;" />
        <line style="stroke: #A80036; stroke-width: 1.0;" x1="110.5" x2="422.5" y1="292.0703" y2="292.0703" /><text fill="#000000" font-family="sans-serif" font-size="13" font-weight="bold" lengthAdjust="spacingAndGlyphs" textLength="7" x="117.5" y="287.2139">5</text><text fill="#000000" font-family="sans-serif" font-size="13" lengthAdjust="spacingAndGlyphs" textLength="168" x="128.5" y="287.2139">selects option &amp; configures it</text>
        <polygon fill="#A80036" points="121.5,325.4219,111.5,329.4219,121.5,333.4219,117.5,329.4219" style="stroke: #A80036; stroke-width: 1.0;" />
        <line style="stroke: #A80036; stroke-width: 1.0;" x1="115.5" x2="432.5" y1="329.4219" y2="329.4219" /><text fill="#000000" font-family="sans-serif" font-size="13" font-weight="bold" lengthAdjust="spacingAndGlyphs" textLength="7" x="127.5" y="324.5654">6</text><text fill="#000000" font-family="sans-serif" font-size="13" lengthAdjust="spacingAndGlyphs" textLength="283" x="138.5" y="324.5654">shows AGV configuration &amp; asks for confirmation</text>
        <polygon fill="#A80036" points="416.5,355.7734,426.5,359.7734,416.5,363.7734,420.5,359.7734" style="stroke: #A80036; stroke-width: 1.0;" />
        <line style="stroke: #A80036; stroke-width: 1.0;" x1="110.5" x2="422.5" y1="359.7734" y2="359.7734" /><text fill="#000000" font-family="sans-serif" font-size="13" font-weight="bold" lengthAdjust="spacingAndGlyphs" textLength="7" x="117.5" y="354.917">7</text><text fill="#000000" font-family="sans-serif" font-size="13" lengthAdjust="spacingAndGlyphs" textLength="102" x="128.5" y="354.917">confirms changes</text>
        <polygon fill="#A80036" points="116.5,393.125,106.5,397.125,116.5,401.125,112.5,397.125" style="stroke: #A80036; stroke-width: 1.0;" />
        <line style="stroke: #A80036; stroke-width: 1.0;" x1="110.5" x2="432.5" y1="397.125" y2="397.125" /><text fill="#000000" font-family="sans-serif" font-size="13" font-weight="bold" lengthAdjust="spacingAndGlyphs" textLength="7" x="122.5" y="392.2686">8</text><text fill="#000000" font-family="sans-serif" font-size="13" lengthAdjust="spacingAndGlyphs" textLength="175" x="133.5" y="392.2686">informs of operation's success</text>
        <!--
@startuml
autonumber

actor "Warehouse Employee" as ACT
participant "System" as SYS

activate ACT
ACT -> SYS : starts configuration process
activate SYS

loop
SYS -> ACT : lists available AGVs
deactivate SYS
ACT -> SYS : selects one
activate SYS

loop

SYS -> ACT :  shows configuration options
deactivate SYS
ACT -> SYS : selects option & configures it
activate SYS

end loop
SYS -> ACT : shows AGV configuration & asks for confirmation
deactivate SYS
ACT -> SYS : confirms changes
activate SYS
end loop
SYS -> ACT : informs of operation's success
deactivate SYS
deactivate ACT

@enduml

PlantUML version 1.2018.14(Fri Dec 21 16:33:16 GMT 2018)
(GPL source distribution)
Java Runtime: Java(TM) SE Runtime Environment
JVM: Java HotSpot(TM) 64-Bit Server VM
Java Version: 1.8.0_221-b11
Operating System: Windows 10
OS Version: 10.0
Default Encoding: Cp1252
Language: pt
Country: PT
-->
    </g>
</svg>