<?xml version="1.0" encoding="UTF-8" standalone="no"?><svg xmlns="http://www.w3.org/2000/svg" xmlns:xlink="http://www.w3.org/1999/xlink" contentStyleType="text/css" height="947px" preserveAspectRatio="none" style="width:1110px;height:947px;background:#FFFFFF;" version="1.1" viewBox="0 0 1110 947" width="1110px" zoomAndPan="magnify"><defs/><g><!--MD5=[05c63b05e362fe244416000772f50418]
class RegisterNewCategoryUI--><g id="elem_RegisterNewCategoryUI"><rect codeLine="3" fill="#F1F1F1" height="80.5938" id="RegisterNewCategoryUI" rx="2.5" ry="2.5" style="stroke:#181818;stroke-width:0.5;" width="202" x="116" y="7"/><ellipse cx="131" cy="23" fill="#ADD1B2" rx="11" ry="11" style="stroke:#181818;stroke-width:1.0;"/><path d="M133.3438,18.6719 C132.4063,18.2344 131.8125,18.0938 130.9375,18.0938 C128.3125,18.0938 126.3125,20.1719 126.3125,22.8906 L126.3125,24.0156 C126.3125,26.5938 128.4219,28.4844 131.3125,28.4844 C132.5313,28.4844 133.6875,28.1875 134.4375,27.6406 C135.0156,27.2344 135.3438,26.7813 135.3438,26.3906 C135.3438,25.9375 134.9531,25.5469 134.4844,25.5469 C134.2656,25.5469 134.0625,25.625 133.875,25.8125 C133.4219,26.2969 133.4219,26.2969 133.2344,26.3906 C132.8125,26.6563 132.125,26.7813 131.3594,26.7813 C129.3125,26.7813 128.0156,25.6875 128.0156,23.9844 L128.0156,22.8906 C128.0156,21.1094 129.2656,19.7969 131,19.7969 C131.5781,19.7969 132.1875,19.9531 132.6563,20.2031 C133.1406,20.4844 133.3125,20.7031 133.4063,21.1094 C133.4688,21.5156 133.5,21.6406 133.6406,21.7656 C133.7813,21.9063 134.0156,22.0156 134.2344,22.0156 C134.5,22.0156 134.7656,21.875 134.9375,21.6563 C135.0469,21.5 135.0781,21.3125 135.0781,20.8906 L135.0781,19.4688 C135.0781,19.0313 135.0625,18.9063 134.9688,18.75 C134.8125,18.4844 134.5313,18.3438 134.2344,18.3438 C133.9375,18.3438 133.7344,18.4375 133.5156,18.75 L133.3438,18.6719 Z " fill="#000000"/><text fill="#000000" font-family="sans-serif" font-size="14" lengthAdjust="spacing" textLength="170" x="145" y="27.8467">RegisterNewCategoryUI</text><line style="stroke:#181818;stroke-width:0.5;" x1="117" x2="317" y1="39" y2="39"/><line style="stroke:#181818;stroke-width:0.5;" x1="117" x2="317" y1="47" y2="47"/><text fill="#000000" font-family="sans-serif" font-size="14" lengthAdjust="spacing" textLength="66" x="122" y="63.9951">doShow()</text><text fill="#000000" font-family="sans-serif" font-size="14" lengthAdjust="spacing" textLength="71" x="122" y="80.292">headline()</text></g><!--MD5=[991548956d3c25552e9beabea68b7da6]
class RegisterNewCategoryController--><g id="elem_RegisterNewCategoryController"><rect codeLine="8" fill="#F1F1F1" height="64.2969" id="RegisterNewCategoryController" rx="2.5" ry="2.5" style="stroke:#181818;stroke-width:0.5;" width="420" x="7" y="149"/><ellipse cx="97.75" cy="165" fill="#ADD1B2" rx="11" ry="11" style="stroke:#181818;stroke-width:1.0;"/><path d="M100.0938,160.6719 C99.1563,160.2344 98.5625,160.0938 97.6875,160.0938 C95.0625,160.0938 93.0625,162.1719 93.0625,164.8906 L93.0625,166.0156 C93.0625,168.5938 95.1719,170.4844 98.0625,170.4844 C99.2813,170.4844 100.4375,170.1875 101.1875,169.6406 C101.7656,169.2344 102.0938,168.7813 102.0938,168.3906 C102.0938,167.9375 101.7031,167.5469 101.2344,167.5469 C101.0156,167.5469 100.8125,167.625 100.625,167.8125 C100.1719,168.2969 100.1719,168.2969 99.9844,168.3906 C99.5625,168.6563 98.875,168.7813 98.1094,168.7813 C96.0625,168.7813 94.7656,167.6875 94.7656,165.9844 L94.7656,164.8906 C94.7656,163.1094 96.0156,161.7969 97.75,161.7969 C98.3281,161.7969 98.9375,161.9531 99.4063,162.2031 C99.8906,162.4844 100.0625,162.7031 100.1563,163.1094 C100.2188,163.5156 100.25,163.6406 100.3906,163.7656 C100.5313,163.9063 100.7656,164.0156 100.9844,164.0156 C101.25,164.0156 101.5156,163.875 101.6875,163.6563 C101.7969,163.5 101.8281,163.3125 101.8281,162.8906 L101.8281,161.4688 C101.8281,161.0313 101.8125,160.9063 101.7188,160.75 C101.5625,160.4844 101.2813,160.3438 100.9844,160.3438 C100.6875,160.3438 100.4844,160.4375 100.2656,160.75 L100.0938,160.6719 Z " fill="#000000"/><text fill="#000000" font-family="sans-serif" font-size="14" lengthAdjust="spacing" textLength="230" x="118.25" y="169.8467">RegisterNewCategoryController</text><line style="stroke:#181818;stroke-width:0.5;" x1="8" x2="426" y1="181" y2="181"/><line style="stroke:#181818;stroke-width:0.5;" x1="8" x2="426" y1="189" y2="189"/><text fill="#000000" font-family="sans-serif" font-size="14" lengthAdjust="spacing" textLength="408" x="13" y="205.9951">+registerCategory(alphanumericCode,description,name)</text></g><!--MD5=[41a15a34dd2ba152573ce06f19ee8afd]
class AlphaNumericCode--><g id="elem_AlphaNumericCode"><rect codeLine="12" fill="#F1F1F1" height="129.4844" id="AlphaNumericCode" rx="2.5" ry="2.5" style="stroke:#181818;stroke-width:0.5;" width="253" x="340.5" y="605"/><ellipse cx="394.25" cy="621" fill="#ADD1B2" rx="11" ry="11" style="stroke:#181818;stroke-width:1.0;"/><path d="M396.5938,616.6719 C395.6563,616.2344 395.0625,616.0938 394.1875,616.0938 C391.5625,616.0938 389.5625,618.1719 389.5625,620.8906 L389.5625,622.0156 C389.5625,624.5938 391.6719,626.4844 394.5625,626.4844 C395.7813,626.4844 396.9375,626.1875 397.6875,625.6406 C398.2656,625.2344 398.5938,624.7813 398.5938,624.3906 C398.5938,623.9375 398.2031,623.5469 397.7344,623.5469 C397.5156,623.5469 397.3125,623.625 397.125,623.8125 C396.6719,624.2969 396.6719,624.2969 396.4844,624.3906 C396.0625,624.6563 395.375,624.7813 394.6094,624.7813 C392.5625,624.7813 391.2656,623.6875 391.2656,621.9844 L391.2656,620.8906 C391.2656,619.1094 392.5156,617.7969 394.25,617.7969 C394.8281,617.7969 395.4375,617.9531 395.9063,618.2031 C396.3906,618.4844 396.5625,618.7031 396.6563,619.1094 C396.7188,619.5156 396.75,619.6406 396.8906,619.7656 C397.0313,619.9063 397.2656,620.0156 397.4844,620.0156 C397.75,620.0156 398.0156,619.875 398.1875,619.6563 C398.2969,619.5 398.3281,619.3125 398.3281,618.8906 L398.3281,617.4688 C398.3281,617.0313 398.3125,616.9063 398.2188,616.75 C398.0625,616.4844 397.7813,616.3438 397.4844,616.3438 C397.1875,616.3438 396.9844,616.4375 396.7656,616.75 L396.5938,616.6719 Z " fill="#000000"/><text fill="#000000" font-family="sans-serif" font-size="14" lengthAdjust="spacing" textLength="137" x="414.75" y="625.8467">AlphaNumericCode</text><line style="stroke:#181818;stroke-width:0.5;" x1="341.5" x2="592.5" y1="637" y2="637"/><text fill="#000000" font-family="sans-serif" font-size="14" lengthAdjust="spacing" textLength="89" x="346.5" y="653.9951">-String code</text><line style="stroke:#181818;stroke-width:0.5;" x1="341.5" x2="592.5" y1="661.2969" y2="661.2969"/><text fill="#000000" font-family="sans-serif" font-size="14" lengthAdjust="spacing" textLength="241" x="346.5" y="678.292">+AlphaNumericCode(String code)</text><text fill="#000000" font-family="sans-serif" font-size="14" lengthAdjust="spacing" textLength="128" x="346.5" y="694.5889">+equals(Object o)</text><text fill="#000000" font-family="sans-serif" font-size="14" lengthAdjust="spacing" textLength="91" x="346.5" y="710.8857">+hashCode()</text><text fill="#000000" font-family="sans-serif" font-size="14" lengthAdjust="spacing" textLength="81" x="346.5" y="727.1826">+toString()</text></g><!--MD5=[009695af4e54f3bba8a9c60dca3e1c94]
class Description--><g id="elem_Description"><rect codeLine="22" fill="#F1F1F1" height="129.4844" id="Description" rx="2.5" ry="2.5" style="stroke:#181818;stroke-width:0.5;" width="219" x="628.5" y="605"/><ellipse cx="691.75" cy="621" fill="#ADD1B2" rx="11" ry="11" style="stroke:#181818;stroke-width:1.0;"/><path d="M694.0938,616.6719 C693.1563,616.2344 692.5625,616.0938 691.6875,616.0938 C689.0625,616.0938 687.0625,618.1719 687.0625,620.8906 L687.0625,622.0156 C687.0625,624.5938 689.1719,626.4844 692.0625,626.4844 C693.2813,626.4844 694.4375,626.1875 695.1875,625.6406 C695.7656,625.2344 696.0938,624.7813 696.0938,624.3906 C696.0938,623.9375 695.7031,623.5469 695.2344,623.5469 C695.0156,623.5469 694.8125,623.625 694.625,623.8125 C694.1719,624.2969 694.1719,624.2969 693.9844,624.3906 C693.5625,624.6563 692.875,624.7813 692.1094,624.7813 C690.0625,624.7813 688.7656,623.6875 688.7656,621.9844 L688.7656,620.8906 C688.7656,619.1094 690.0156,617.7969 691.75,617.7969 C692.3281,617.7969 692.9375,617.9531 693.4063,618.2031 C693.8906,618.4844 694.0625,618.7031 694.1563,619.1094 C694.2188,619.5156 694.25,619.6406 694.3906,619.7656 C694.5313,619.9063 694.7656,620.0156 694.9844,620.0156 C695.25,620.0156 695.5156,619.875 695.6875,619.6563 C695.7969,619.5 695.8281,619.3125 695.8281,618.8906 L695.8281,617.4688 C695.8281,617.0313 695.8125,616.9063 695.7188,616.75 C695.5625,616.4844 695.2813,616.3438 694.9844,616.3438 C694.6875,616.3438 694.4844,616.4375 694.2656,616.75 L694.0938,616.6719 Z " fill="#000000"/><text fill="#000000" font-family="sans-serif" font-size="14" lengthAdjust="spacing" textLength="84" x="712.25" y="625.8467">Description</text><line style="stroke:#181818;stroke-width:0.5;" x1="629.5" x2="846.5" y1="637" y2="637"/><text fill="#000000" font-family="sans-serif" font-size="14" lengthAdjust="spacing" textLength="136" x="634.5" y="653.9951">-String description</text><line style="stroke:#181818;stroke-width:0.5;" x1="629.5" x2="846.5" y1="661.2969" y2="661.2969"/><text fill="#000000" font-family="sans-serif" font-size="14" lengthAdjust="spacing" textLength="207" x="634.5" y="678.292">+ValueOf(String description)</text><text fill="#000000" font-family="sans-serif" font-size="14" lengthAdjust="spacing" textLength="128" x="634.5" y="694.5889">+equals(Object o)</text><text fill="#000000" font-family="sans-serif" font-size="14" lengthAdjust="spacing" textLength="91" x="634.5" y="710.8857">+hashCode()</text><text fill="#000000" font-family="sans-serif" font-size="14" lengthAdjust="spacing" textLength="81" x="634.5" y="727.1826">+toString()</text></g><!--MD5=[48590afff58a68e2fcba47824d6f8a11]
class RepositoryFactory--><g id="elem_RepositoryFactory"><rect codeLine="29" fill="#F1F1F1" height="64.2969" id="RepositoryFactory" rx="2.5" ry="2.5" style="stroke:#181818;stroke-width:0.5;" width="165" x="134.5" y="464"/><ellipse cx="149.5" cy="480" fill="#ADD1B2" rx="11" ry="11" style="stroke:#181818;stroke-width:1.0;"/><path d="M151.8438,475.6719 C150.9063,475.2344 150.3125,475.0938 149.4375,475.0938 C146.8125,475.0938 144.8125,477.1719 144.8125,479.8906 L144.8125,481.0156 C144.8125,483.5938 146.9219,485.4844 149.8125,485.4844 C151.0313,485.4844 152.1875,485.1875 152.9375,484.6406 C153.5156,484.2344 153.8438,483.7813 153.8438,483.3906 C153.8438,482.9375 153.4531,482.5469 152.9844,482.5469 C152.7656,482.5469 152.5625,482.625 152.375,482.8125 C151.9219,483.2969 151.9219,483.2969 151.7344,483.3906 C151.3125,483.6563 150.625,483.7813 149.8594,483.7813 C147.8125,483.7813 146.5156,482.6875 146.5156,480.9844 L146.5156,479.8906 C146.5156,478.1094 147.7656,476.7969 149.5,476.7969 C150.0781,476.7969 150.6875,476.9531 151.1563,477.2031 C151.6406,477.4844 151.8125,477.7031 151.9063,478.1094 C151.9688,478.5156 152,478.6406 152.1406,478.7656 C152.2813,478.9063 152.5156,479.0156 152.7344,479.0156 C153,479.0156 153.2656,478.875 153.4375,478.6563 C153.5469,478.5 153.5781,478.3125 153.5781,477.8906 L153.5781,476.4688 C153.5781,476.0313 153.5625,475.9063 153.4688,475.75 C153.3125,475.4844 153.0313,475.3438 152.7344,475.3438 C152.4375,475.3438 152.2344,475.4375 152.0156,475.75 L151.8438,475.6719 Z " fill="#000000"/><text fill="#000000" font-family="sans-serif" font-size="14" lengthAdjust="spacing" textLength="133" x="163.5" y="484.8467">RepositoryFactory</text><line style="stroke:#181818;stroke-width:0.5;" x1="135.5" x2="298.5" y1="496" y2="496"/><line style="stroke:#181818;stroke-width:0.5;" x1="135.5" x2="298.5" y1="504" y2="504"/><text fill="#000000" font-family="sans-serif" font-size="14" lengthAdjust="spacing" textLength="97" x="140.5" y="520.9951">+categories()</text></g><!--MD5=[232882a74bb3d7ca169cfb1ce7c7ca46]
class Designation--><g id="elem_Designation"><rect codeLine="32" fill="#F1F1F1" height="129.4844" id="Designation" rx="2.5" ry="2.5" style="stroke:#181818;stroke-width:0.5;" width="221" x="882.5" y="605"/><ellipse cx="945.75" cy="621" fill="#ADD1B2" rx="11" ry="11" style="stroke:#181818;stroke-width:1.0;"/><path d="M948.0938,616.6719 C947.1563,616.2344 946.5625,616.0938 945.6875,616.0938 C943.0625,616.0938 941.0625,618.1719 941.0625,620.8906 L941.0625,622.0156 C941.0625,624.5938 943.1719,626.4844 946.0625,626.4844 C947.2813,626.4844 948.4375,626.1875 949.1875,625.6406 C949.7656,625.2344 950.0938,624.7813 950.0938,624.3906 C950.0938,623.9375 949.7031,623.5469 949.2344,623.5469 C949.0156,623.5469 948.8125,623.625 948.625,623.8125 C948.1719,624.2969 948.1719,624.2969 947.9844,624.3906 C947.5625,624.6563 946.875,624.7813 946.1094,624.7813 C944.0625,624.7813 942.7656,623.6875 942.7656,621.9844 L942.7656,620.8906 C942.7656,619.1094 944.0156,617.7969 945.75,617.7969 C946.3281,617.7969 946.9375,617.9531 947.4063,618.2031 C947.8906,618.4844 948.0625,618.7031 948.1563,619.1094 C948.2188,619.5156 948.25,619.6406 948.3906,619.7656 C948.5313,619.9063 948.7656,620.0156 948.9844,620.0156 C949.25,620.0156 949.5156,619.875 949.6875,619.6563 C949.7969,619.5 949.8281,619.3125 949.8281,618.8906 L949.8281,617.4688 C949.8281,617.0313 949.8125,616.9063 949.7188,616.75 C949.5625,616.4844 949.2813,616.3438 948.9844,616.3438 C948.6875,616.3438 948.4844,616.4375 948.2656,616.75 L948.0938,616.6719 Z " fill="#000000"/><text fill="#000000" font-family="sans-serif" font-size="14" lengthAdjust="spacing" textLength="86" x="966.25" y="625.8467">Designation</text><line style="stroke:#181818;stroke-width:0.5;" x1="883.5" x2="1102.5" y1="637" y2="637"/><text fill="#000000" font-family="sans-serif" font-size="14" lengthAdjust="spacing" textLength="136" x="888.5" y="653.9951">-String description</text><line style="stroke:#181818;stroke-width:0.5;" x1="883.5" x2="1102.5" y1="661.2969" y2="661.2969"/><text fill="#000000" font-family="sans-serif" font-size="14" lengthAdjust="spacing" textLength="209" x="888.5" y="678.292">+ValueOf(String designation)</text><text fill="#000000" font-family="sans-serif" font-size="14" lengthAdjust="spacing" textLength="128" x="888.5" y="694.5889">+equals(Object o)</text><text fill="#000000" font-family="sans-serif" font-size="14" lengthAdjust="spacing" textLength="91" x="888.5" y="710.8857">+hashCode()</text><text fill="#000000" font-family="sans-serif" font-size="14" lengthAdjust="spacing" textLength="81" x="888.5" y="727.1826">+toString()</text></g><!--MD5=[e8c189551b7885b999ad7cefb30fc2a3]
class PersistenceContext--><g id="elem_PersistenceContext"><rect codeLine="41" fill="#F1F1F1" height="96.8906" id="PersistenceContext" rx="2.5" ry="2.5" style="stroke:#181818;stroke-width:0.5;" width="234" x="100" y="290"/><ellipse cx="141.55" cy="306" fill="#ADD1B2" rx="11" ry="11" style="stroke:#181818;stroke-width:1.0;"/><path d="M143.8938,301.6719 C142.9563,301.2344 142.3625,301.0938 141.4875,301.0938 C138.8625,301.0938 136.8625,303.1719 136.8625,305.8906 L136.8625,307.0156 C136.8625,309.5938 138.9719,311.4844 141.8625,311.4844 C143.0813,311.4844 144.2375,311.1875 144.9875,310.6406 C145.5656,310.2344 145.8938,309.7813 145.8938,309.3906 C145.8938,308.9375 145.5031,308.5469 145.0344,308.5469 C144.8156,308.5469 144.6125,308.625 144.425,308.8125 C143.9719,309.2969 143.9719,309.2969 143.7844,309.3906 C143.3625,309.6563 142.675,309.7813 141.9094,309.7813 C139.8625,309.7813 138.5656,308.6875 138.5656,306.9844 L138.5656,305.8906 C138.5656,304.1094 139.8156,302.7969 141.55,302.7969 C142.1281,302.7969 142.7375,302.9531 143.2063,303.2031 C143.6906,303.4844 143.8625,303.7031 143.9563,304.1094 C144.0188,304.5156 144.05,304.6406 144.1906,304.7656 C144.3313,304.9063 144.5656,305.0156 144.7844,305.0156 C145.05,305.0156 145.3156,304.875 145.4875,304.6563 C145.5969,304.5 145.6281,304.3125 145.6281,303.8906 L145.6281,302.4688 C145.6281,302.0313 145.6125,301.9063 145.5188,301.75 C145.3625,301.4844 145.0813,301.3438 144.7844,301.3438 C144.4875,301.3438 144.2844,301.4375 144.0656,301.75 L143.8938,301.6719 Z " fill="#000000"/><text fill="#000000" font-family="sans-serif" font-size="14" lengthAdjust="spacing" textLength="143" x="161.45" y="310.8467">PersistenceContext</text><line style="stroke:#181818;stroke-width:0.5;" x1="101" x2="333" y1="322" y2="322"/><text fill="#000000" font-family="sans-serif" font-size="14" lengthAdjust="spacing" textLength="120" x="106" y="338.9951">-Logger LOGGER</text><text fill="#000000" font-family="sans-serif" font-size="14" lengthAdjust="spacing" textLength="222" x="106" y="355.292">-RepositoryFactory theFactory</text><line style="stroke:#181818;stroke-width:0.5;" x1="101" x2="333" y1="362.5938" y2="362.5938"/><text fill="#000000" font-family="sans-serif" font-size="14" lengthAdjust="spacing" textLength="108" x="106" y="379.5889">+repositories()</text></g><!--MD5=[b3c2230271250b561f28a9e8cd979a92]
class CategoryRepository--><g id="elem_CategoryRepository"><rect codeLine="48" fill="#F1F1F1" height="64.2969" id="CategoryRepository" rx="2.5" ry="2.5" style="stroke:#181818;stroke-width:0.5;" width="177" x="128.5" y="637.5"/><ellipse cx="143.5" cy="653.5" fill="#ADD1B2" rx="11" ry="11" style="stroke:#181818;stroke-width:1.0;"/><path d="M145.8438,649.1719 C144.9063,648.7344 144.3125,648.5938 143.4375,648.5938 C140.8125,648.5938 138.8125,650.6719 138.8125,653.3906 L138.8125,654.5156 C138.8125,657.0938 140.9219,658.9844 143.8125,658.9844 C145.0313,658.9844 146.1875,658.6875 146.9375,658.1406 C147.5156,657.7344 147.8438,657.2813 147.8438,656.8906 C147.8438,656.4375 147.4531,656.0469 146.9844,656.0469 C146.7656,656.0469 146.5625,656.125 146.375,656.3125 C145.9219,656.7969 145.9219,656.7969 145.7344,656.8906 C145.3125,657.1563 144.625,657.2813 143.8594,657.2813 C141.8125,657.2813 140.5156,656.1875 140.5156,654.4844 L140.5156,653.3906 C140.5156,651.6094 141.7656,650.2969 143.5,650.2969 C144.0781,650.2969 144.6875,650.4531 145.1563,650.7031 C145.6406,650.9844 145.8125,651.2031 145.9063,651.6094 C145.9688,652.0156 146,652.1406 146.1406,652.2656 C146.2813,652.4063 146.5156,652.5156 146.7344,652.5156 C147,652.5156 147.2656,652.375 147.4375,652.1563 C147.5469,652 147.5781,651.8125 147.5781,651.3906 L147.5781,649.9688 C147.5781,649.5313 147.5625,649.4063 147.4688,649.25 C147.3125,648.9844 147.0313,648.8438 146.7344,648.8438 C146.4375,648.8438 146.2344,648.9375 146.0156,649.25 L145.8438,649.1719 Z " fill="#000000"/><text fill="#000000" font-family="sans-serif" font-size="14" lengthAdjust="spacing" textLength="145" x="157.5" y="658.3467">CategoryRepository</text><line style="stroke:#181818;stroke-width:0.5;" x1="129.5" x2="304.5" y1="669.5" y2="669.5"/><line style="stroke:#181818;stroke-width:0.5;" x1="129.5" x2="304.5" y1="677.5" y2="677.5"/><text fill="#000000" font-family="sans-serif" font-size="14" lengthAdjust="spacing" textLength="119" x="134.5" y="694.4951">+save(Category)</text></g><!--MD5=[a96594a83e2ecdc78cbf17c2ddf01934]
class Category--><g id="elem_Category"><rect codeLine="52" fill="#F1F1F1" height="129.4844" id="Category" rx="2.5" ry="2.5" style="stroke:#181818;stroke-width:0.5;" width="363" x="420.5" y="811"/><ellipse cx="564.75" cy="827" fill="#ADD1B2" rx="11" ry="11" style="stroke:#181818;stroke-width:1.0;"/><path d="M567.0938,822.6719 C566.1563,822.2344 565.5625,822.0938 564.6875,822.0938 C562.0625,822.0938 560.0625,824.1719 560.0625,826.8906 L560.0625,828.0156 C560.0625,830.5938 562.1719,832.4844 565.0625,832.4844 C566.2813,832.4844 567.4375,832.1875 568.1875,831.6406 C568.7656,831.2344 569.0938,830.7813 569.0938,830.3906 C569.0938,829.9375 568.7031,829.5469 568.2344,829.5469 C568.0156,829.5469 567.8125,829.625 567.625,829.8125 C567.1719,830.2969 567.1719,830.2969 566.9844,830.3906 C566.5625,830.6563 565.875,830.7813 565.1094,830.7813 C563.0625,830.7813 561.7656,829.6875 561.7656,827.9844 L561.7656,826.8906 C561.7656,825.1094 563.0156,823.7969 564.75,823.7969 C565.3281,823.7969 565.9375,823.9531 566.4063,824.2031 C566.8906,824.4844 567.0625,824.7031 567.1563,825.1094 C567.2188,825.5156 567.25,825.6406 567.3906,825.7656 C567.5313,825.9063 567.7656,826.0156 567.9844,826.0156 C568.25,826.0156 568.5156,825.875 568.6875,825.6563 C568.7969,825.5 568.8281,825.3125 568.8281,824.8906 L568.8281,823.4688 C568.8281,823.0313 568.8125,822.9063 568.7188,822.75 C568.5625,822.4844 568.2813,822.3438 567.9844,822.3438 C567.6875,822.3438 567.4844,822.4375 567.2656,822.75 L567.0938,822.6719 Z " fill="#000000"/><text fill="#000000" font-family="sans-serif" font-size="14" lengthAdjust="spacing" textLength="66" x="585.25" y="831.8467">Category</text><line style="stroke:#181818;stroke-width:0.5;" x1="421.5" x2="782.5" y1="843" y2="843"/><line style="stroke:#181818;stroke-width:0.5;" x1="421.5" x2="782.5" y1="851" y2="851"/><text fill="#000000" font-family="sans-serif" font-size="14" lengthAdjust="spacing" textLength="351" x="426.5" y="867.9951">+Category(alphanumericCode,description,name)</text><text fill="#000000" font-family="sans-serif" font-size="14" lengthAdjust="spacing" textLength="128" x="426.5" y="884.292">+equals(Object o)</text><text fill="#000000" font-family="sans-serif" font-size="14" lengthAdjust="spacing" textLength="89" x="426.5" y="900.5889">+hashcode()</text><text fill="#000000" font-family="sans-serif" font-size="14" lengthAdjust="spacing" textLength="78" x="426.5" y="916.8857">+identity()</text><text fill="#000000" font-family="sans-serif" font-size="14" lengthAdjust="spacing" textLength="81" x="426.5" y="933.1826">+toString()</text></g><!--MD5=[5050a2f39d3104054abe309f4cf205a6]
link RegisterNewCategoryUI to RegisterNewCategoryController--><g id="link_RegisterNewCategoryUI_RegisterNewCategoryController"><path codeLine="61" d="M217,88.311 C217,105.849 217,126.319 217,143.463 " fill="none" id="RegisterNewCategoryUI-to-RegisterNewCategoryController" style="stroke:#181818;stroke-width:1.0;stroke-dasharray:7.0,7.0;"/><polygon fill="#181818" points="217,148.67,221,139.67,217,143.67,213,139.67,217,148.67" style="stroke:#181818;stroke-width:1.0;"/></g><!--MD5=[5859dc7ed203f5f095124a329b05bd10]
reverse link AlphaNumericCode to Category--><g id="link_AlphaNumericCode_Category"><path codeLine="64" d="M512.024,738.537 C527.482,761.894 544.714,787.935 559.928,810.925 " fill="none" id="AlphaNumericCode-backto-Category" style="stroke:#181818;stroke-width:1.0;"/><polygon fill="#181818" points="509.16,734.208,510.791,743.9209,511.9193,738.3777,517.4625,739.506,509.16,734.208" style="stroke:#181818;stroke-width:1.0;"/><text fill="#000000" font-family="sans-serif" font-size="13" lengthAdjust="spacing" textLength="54" x="540" y="777.0669">contains</text><text fill="#000000" font-family="sans-serif" font-size="13" lengthAdjust="spacing" textLength="8" x="505.5723" y="754.6036">1</text><text fill="#000000" font-family="sans-serif" font-size="13" lengthAdjust="spacing" textLength="8" x="546.8889" y="800.0895">1</text></g><!--MD5=[6cf94cf4e0f95d42ecd196e51e3b2e13]
reverse link Description to Category--><g id="link_Description_Category"><path codeLine="65" d="M692.642,738.537 C677.07,761.894 659.71,787.935 644.383,810.925 " fill="none" id="Description-backto-Category" style="stroke:#181818;stroke-width:1.0;"/><polygon fill="#181818" points="695.528,734.208,687.2067,739.4763,692.7538,738.3678,693.8624,743.915,695.528,734.208" style="stroke:#181818;stroke-width:1.0;"/><text fill="#000000" font-family="sans-serif" font-size="13" lengthAdjust="spacing" textLength="54" x="676" y="777.0669">contains</text><text fill="#000000" font-family="sans-serif" font-size="13" lengthAdjust="spacing" textLength="8" x="682.1547" y="754.6036">1</text><text fill="#000000" font-family="sans-serif" font-size="13" lengthAdjust="spacing" textLength="8" x="640.5811" y="800.0895">1</text></g><!--MD5=[7ab88fa4e8ca3a8f24e265724e377cd9]
reverse link Designation to Category--><g id="link_Designation_Category"><path codeLine="66" d="M877.6,730.709 C829.168,755.978 772.805,785.384 723.716,810.996 " fill="none" id="Designation-backto-Category" style="stroke:#181818;stroke-width:1.0;"/><polygon fill="#181818" points="882.262,728.276,872.4325,728.8929,877.8291,730.5889,876.1331,735.9855,882.262,728.276" style="stroke:#181818;stroke-width:1.0;"/><text fill="#000000" font-family="sans-serif" font-size="13" lengthAdjust="spacing" textLength="54" x="810" y="777.0669">contains</text><text fill="#000000" font-family="sans-serif" font-size="13" lengthAdjust="spacing" textLength="8" x="866.553" y="728.7762">1</text><text fill="#000000" font-family="sans-serif" font-size="13" lengthAdjust="spacing" textLength="8" x="729.3269" y="799.7171">1</text></g><!--MD5=[336e2673e70c1787d41991021408e8c8]
link RegisterNewCategoryController to PersistenceContext--><g id="link_RegisterNewCategoryController_PersistenceContext"><path codeLine="69" d="M217,213.094 C217,233.615 217,261.016 217,284.879 " fill="none" id="RegisterNewCategoryController-to-PersistenceContext" style="stroke:#181818;stroke-width:1.0;"/><polygon fill="#181818" points="217,289.914,221,280.914,217,284.914,213,280.914,217,289.914" style="stroke:#181818;stroke-width:1.0;"/><text fill="#000000" font-family="sans-serif" font-size="13" lengthAdjust="spacing" textLength="48" x="218" y="256.0669">creates</text><text fill="#000000" font-family="sans-serif" font-size="13" lengthAdjust="spacing" textLength="8" x="208.175" y="233.3102">1</text><text fill="#000000" font-family="sans-serif" font-size="13" lengthAdjust="spacing" textLength="8" x="208.4125" y="278.761">1</text></g><!--MD5=[754b775031405e096442b27febffa290]
link PersistenceContext to RepositoryFactory--><g id="link_PersistenceContext_RepositoryFactory"><path codeLine="72" d="M217,387 C217,410.152 217,437.545 217,458.949 " fill="none" id="PersistenceContext-to-RepositoryFactory" style="stroke:#181818;stroke-width:1.0;"/><polygon fill="#181818" points="217,463.976,221,454.976,217,458.976,213,454.976,217,463.976" style="stroke:#181818;stroke-width:1.0;"/><text fill="#000000" font-family="sans-serif" font-size="13" lengthAdjust="spacing" textLength="48" x="218" y="430.0669">creates</text><text fill="#000000" font-family="sans-serif" font-size="13" lengthAdjust="spacing" textLength="8" x="208.4375" y="406.9589">1</text><text fill="#000000" font-family="sans-serif" font-size="13" lengthAdjust="spacing" textLength="8" x="208.175" y="452.8742">1</text></g><!--MD5=[982d16d4d7400e6c46bfc612526ecb29]
link RepositoryFactory to CategoryRepository--><g id="link_RepositoryFactory_CategoryRepository"><path codeLine="75" d="M217,528.057 C217,557.348 217,601.25 217,632.156 " fill="none" id="RepositoryFactory-to-CategoryRepository" style="stroke:#181818;stroke-width:1.0;"/><polygon fill="#181818" points="217,637.384,221,628.384,217,632.384,213,628.384,217,637.384" style="stroke:#181818;stroke-width:1.0;"/><text fill="#000000" font-family="sans-serif" font-size="13" lengthAdjust="spacing" textLength="48" x="218" y="571.0669">creates</text><text fill="#000000" font-family="sans-serif" font-size="13" lengthAdjust="spacing" textLength="8" x="208.175" y="548.2656">1</text><text fill="#000000" font-family="sans-serif" font-size="13" lengthAdjust="spacing" textLength="8" x="208.175" y="626.2632">1</text></g><!--MD5=[fb0b92275b6fb9ced4ecc1678c39a4eb]
link CategoryRepository to Category--><g id="link_CategoryRepository_Category"><path codeLine="77" d="M267.244,701.624 C284.731,712.182 304.582,723.863 323,734 C369.05,759.344 420.222,785.636 466.037,808.526 " fill="none" id="CategoryRepository-to-Category" style="stroke:#181818;stroke-width:1.0;"/><polygon fill="#181818" points="470.738,810.872,464.4722,803.2734,466.2644,808.6388,460.899,810.4311,470.738,810.872" style="stroke:#181818;stroke-width:1.0;"/><text fill="#000000" font-family="sans-serif" font-size="13" lengthAdjust="spacing" textLength="38" x="408" y="777.0669">saves</text><text fill="#000000" font-family="sans-serif" font-size="13" lengthAdjust="spacing" textLength="8" x="268.7818" y="721.8464">1</text><text fill="#000000" font-family="sans-serif" font-size="13" lengthAdjust="spacing" textLength="23" x="432.1234" y="800.0307">1..*</text></g><!--MD5=[6ba1b6d2f896b039ae65195e9538142e]
@startuml
skinparam classAttributeIconSize 0

Class "RegisterNewCategoryUI"{
doShow()
headline()
}

Class "RegisterNewCategoryController"{
+registerCategory(alphanumericCode,description,name)
}

Class "AlphaNumericCode"{
-String code


+AlphaNumericCode(String code)
+equals(Object o)
+hashCode()
+toString()
}

Class "Description"{
-String description
+ValueOf(String description)
+equals(Object o)
+hashCode()
+toString()
}
Class "RepositoryFactory"{
+categories()
}
Class "Designation"{
-String description
+ValueOf(String designation)
+equals(Object o)
+hashCode()
+toString()
}


class PersistenceContext {
-Logger LOGGER
-RepositoryFactory theFactory
+repositories()
}


class CategoryRepository{
+save(Category)
}

class Category{
+Category(alphanumericCode,description,name)
+equals(Object o)
+hashcode()
+identity()
+toString()
}


RegisterNewCategoryUI..> RegisterNewCategoryController


AlphaNumericCode "1" <- - "1" Category : contains
Description "1" <- - "1" Category : contains
Designation "1" <- - "1" Category : contains


"RegisterNewCategoryController" "1" - -> "1" "PersistenceContext" :creates


"PersistenceContext" "1" - -> "1" "RepositoryFactory" :creates


"RepositoryFactory" "1" - -> "1" "CategoryRepository"  :creates

"CategoryRepository" "1" - -> "1..*" "Category" :saves
@enduml

PlantUML version 1.2022.4beta2(Unknown compile time)
(GPL source distribution)
Java Runtime: Java(TM) SE Runtime Environment
JVM: Java HotSpot(TM) 64-Bit Server VM
Default Encoding: UTF-8
Language: en
Country: US
--></g></svg>