<?xml version="1.0" encoding="UTF-8" standalone="no"?><svg xmlns="http://www.w3.org/2000/svg" xmlns:xlink="http://www.w3.org/1999/xlink" contentStyleType="text/css" height="508px" preserveAspectRatio="none" style="width:1642px;height:508px;background:#FFFFFF;" version="1.1" viewBox="0 0 1642 508" width="1642px" zoomAndPan="magnify"><defs/><g><rect fill="#FFFFFF" height="327.4609" style="stroke:#181818;stroke-width:1.0;" width="10" x="618.5" y="91.2969"/><rect fill="#FFFFFF" height="260.1953" style="stroke:#181818;stroke-width:1.0;" width="10" x="886.5" y="91.2969"/><rect fill="#FFFFFF" height="67.2656" style="stroke:#181818;stroke-width:1.0;" width="10" x="1279.5" y="351.4922"/><rect fill="#FFFFFF" height="29.1328" style="stroke:#181818;stroke-width:1.0;" width="10" x="1549.5" y="380.625"/><line style="stroke:#181818;stroke-width:0.5;stroke-dasharray:5.0,5.0;" x1="623" x2="623" y1="81.2969" y2="427.7578"/><line style="stroke:#181818;stroke-width:0.5;stroke-dasharray:5.0,5.0;" x1="891.5" x2="891.5" y1="81.2969" y2="427.7578"/><line style="stroke:#181818;stroke-width:0.5;stroke-dasharray:5.0,5.0;" x1="1284.5" x2="1284.5" y1="81.2969" y2="427.7578"/><line style="stroke:#181818;stroke-width:0.5;stroke-dasharray:5.0,5.0;" x1="1554.5" x2="1554.5" y1="81.2969" y2="427.7578"/><text fill="#000000" font-family="sans-serif" font-size="14" lengthAdjust="spacing" textLength="75" x="583" y="77.9951">SalesClerk</text><ellipse cx="623.5" cy="13.5" fill="#E2E2F0" rx="8" ry="8" style="stroke:#181818;stroke-width:0.5;"/><path d="M623.5,21.5 L623.5,48.5 M610.5,29.5 L636.5,29.5 M623.5,48.5 L610.5,63.5 M623.5,48.5 L636.5,63.5 " fill="none" style="stroke:#181818;stroke-width:0.5;"/><text fill="#000000" font-family="sans-serif" font-size="14" lengthAdjust="spacing" textLength="75" x="583" y="439.7529">SalesClerk</text><ellipse cx="623.5" cy="451.5547" fill="#E2E2F0" rx="8" ry="8" style="stroke:#181818;stroke-width:0.5;"/><path d="M623.5,459.5547 L623.5,486.5547 M610.5,467.5547 L636.5,467.5547 M623.5,486.5547 L610.5,501.5547 M623.5,486.5547 L636.5,501.5547 " fill="none" style="stroke:#181818;stroke-width:0.5;"/><rect fill="#E2E2F0" height="30.2969" rx="2.5" ry="2.5" style="stroke:#181818;stroke-width:0.5;" width="304" x="739.5" y="50"/><text fill="#000000" font-family="sans-serif" font-size="14" lengthAdjust="spacing" textLength="290" x="746.5" y="69.9951">RegisterNewCategoryUI &lt;presentation&gt;</text><rect fill="#E2E2F0" height="30.2969" rx="2.5" ry="2.5" style="stroke:#181818;stroke-width:0.5;" width="304" x="739.5" y="426.7578"/><text fill="#000000" font-family="sans-serif" font-size="14" lengthAdjust="spacing" textLength="290" x="746.5" y="446.7529">RegisterNewCategoryUI &lt;presentation&gt;</text><rect fill="#E2E2F0" height="30.2969" rx="2.5" ry="2.5" style="stroke:#181818;stroke-width:0.5;" width="356" x="1106.5" y="50"/><text fill="#000000" font-family="sans-serif" font-size="14" lengthAdjust="spacing" textLength="342" x="1113.5" y="69.9951">:RegisterNewCategoryController &lt;application&gt;</text><rect fill="#E2E2F0" height="30.2969" rx="2.5" ry="2.5" style="stroke:#181818;stroke-width:0.5;" width="356" x="1106.5" y="426.7578"/><text fill="#000000" font-family="sans-serif" font-size="14" lengthAdjust="spacing" textLength="342" x="1113.5" y="446.7529">:RegisterNewCategoryController &lt;application&gt;</text><rect fill="#E2E2F0" height="30.2969" rx="2.5" ry="2.5" style="stroke:#181818;stroke-width:0.5;" width="164" x="1472.5" y="50"/><text fill="#000000" font-family="sans-serif" font-size="14" lengthAdjust="spacing" textLength="150" x="1479.5" y="69.9951">:CategoryRepository</text><rect fill="#E2E2F0" height="30.2969" rx="2.5" ry="2.5" style="stroke:#181818;stroke-width:0.5;" width="164" x="1472.5" y="426.7578"/><text fill="#000000" font-family="sans-serif" font-size="14" lengthAdjust="spacing" textLength="150" x="1479.5" y="446.7529">:CategoryRepository</text><rect fill="#FFFFFF" height="327.4609" style="stroke:#181818;stroke-width:1.0;" width="10" x="618.5" y="91.2969"/><rect fill="#FFFFFF" height="260.1953" style="stroke:#181818;stroke-width:1.0;" width="10" x="886.5" y="91.2969"/><rect fill="#FFFFFF" height="67.2656" style="stroke:#181818;stroke-width:1.0;" width="10" x="1279.5" y="351.4922"/><rect fill="#FFFFFF" height="29.1328" style="stroke:#181818;stroke-width:1.0;" width="10" x="1549.5" y="380.625"/><path d="M5,96.2969 L5,121.2969 L1243,121.2969 L1243,106.2969 L1233,96.2969 L5,96.2969 " fill="#FEFFDD" style="stroke:#181818;stroke-width:0.5;"/><path d="M1233,96.2969 L1233,106.2969 L1243,106.2969 L1233,96.2969 " fill="#FEFFDD" style="stroke:#181818;stroke-width:0.5;"/><text fill="#000000" font-family="sans-serif" font-size="13" lengthAdjust="spacing" textLength="1217" x="11" y="113.3638">the factory pattern is not used as the category creation method is simple(3 attributes), the validation is few(size + a regex), and there will not be an enormous amount of categories created</text><polygon fill="#181818" points="874.5,143.5625,884.5,147.5625,874.5,151.5625,878.5,147.5625" style="stroke:#181818;stroke-width:1.0;"/><line style="stroke:#181818;stroke-width:1.0;" x1="628.5" x2="880.5" y1="147.5625" y2="147.5625"/><text fill="#000000" font-family="sans-serif" font-size="13" font-weight="bold" lengthAdjust="spacing" textLength="9" x="635.5" y="142.4966">1</text><text fill="#000000" font-family="sans-serif" font-size="13" lengthAdjust="spacing" textLength="221" x="648.5" y="142.4966">Register Category Option Selected</text><polygon fill="#181818" points="639.5,172.6953,629.5,176.6953,639.5,180.6953,635.5,176.6953" style="stroke:#181818;stroke-width:1.0;"/><line style="stroke:#181818;stroke-width:1.0;" x1="633.5" x2="885.5" y1="176.6953" y2="176.6953"/><text fill="#000000" font-family="sans-serif" font-size="13" font-weight="bold" lengthAdjust="spacing" textLength="9" x="645.5" y="171.6294">2</text><text fill="#000000" font-family="sans-serif" font-size="13" lengthAdjust="spacing" textLength="155" x="658.5" y="171.6294">asks alphanumeric code</text><polygon fill="#181818" points="874.5,201.8281,884.5,205.8281,874.5,209.8281,878.5,205.8281" style="stroke:#181818;stroke-width:1.0;"/><line style="stroke:#181818;stroke-width:1.0;" x1="628.5" x2="880.5" y1="205.8281" y2="205.8281"/><text fill="#000000" font-family="sans-serif" font-size="13" font-weight="bold" lengthAdjust="spacing" textLength="8" x="635.5" y="200.7622">3</text><text fill="#000000" font-family="sans-serif" font-size="13" lengthAdjust="spacing" textLength="193" x="647.5" y="200.7622">introduces alphanumeric code</text><polygon fill="#181818" points="639.5,230.9609,629.5,234.9609,639.5,238.9609,635.5,234.9609" style="stroke:#181818;stroke-width:1.0;"/><line style="stroke:#181818;stroke-width:1.0;" x1="633.5" x2="885.5" y1="234.9609" y2="234.9609"/><text fill="#000000" font-family="sans-serif" font-size="13" font-weight="bold" lengthAdjust="spacing" textLength="9" x="645.5" y="229.895">4</text><text fill="#000000" font-family="sans-serif" font-size="13" lengthAdjust="spacing" textLength="103" x="658.5" y="229.895">asks description</text><polygon fill="#181818" points="874.5,260.0938,884.5,264.0938,874.5,268.0938,878.5,264.0938" style="stroke:#181818;stroke-width:1.0;"/><line style="stroke:#181818;stroke-width:1.0;" x1="628.5" x2="880.5" y1="264.0938" y2="264.0938"/><text fill="#000000" font-family="sans-serif" font-size="13" font-weight="bold" lengthAdjust="spacing" textLength="9" x="635.5" y="259.0278">5</text><text fill="#000000" font-family="sans-serif" font-size="13" lengthAdjust="spacing" textLength="141" x="648.5" y="259.0278">introduces description</text><polygon fill="#181818" points="639.5,289.2266,629.5,293.2266,639.5,297.2266,635.5,293.2266" style="stroke:#181818;stroke-width:1.0;"/><line style="stroke:#181818;stroke-width:1.0;" x1="633.5" x2="885.5" y1="293.2266" y2="293.2266"/><text fill="#000000" font-family="sans-serif" font-size="13" font-weight="bold" lengthAdjust="spacing" textLength="9" x="645.5" y="288.1606">6</text><text fill="#000000" font-family="sans-serif" font-size="13" lengthAdjust="spacing" textLength="70" x="658.5" y="288.1606">asks name</text><polygon fill="#181818" points="874.5,318.3594,884.5,322.3594,874.5,326.3594,878.5,322.3594" style="stroke:#181818;stroke-width:1.0;"/><line style="stroke:#181818;stroke-width:1.0;" x1="628.5" x2="880.5" y1="322.3594" y2="322.3594"/><text fill="#000000" font-family="sans-serif" font-size="13" font-weight="bold" lengthAdjust="spacing" textLength="9" x="635.5" y="317.2935">7</text><text fill="#000000" font-family="sans-serif" font-size="13" lengthAdjust="spacing" textLength="108" x="648.5" y="317.2935">introduces name</text><polygon fill="#181818" points="1267.5,347.4922,1277.5,351.4922,1267.5,355.4922,1271.5,351.4922" style="stroke:#181818;stroke-width:1.0;"/><line style="stroke:#181818;stroke-width:1.0;" x1="891.5" x2="1273.5" y1="351.4922" y2="351.4922"/><text fill="#000000" font-family="sans-serif" font-size="13" font-weight="bold" lengthAdjust="spacing" textLength="9" x="898.5" y="346.4263">8</text><text fill="#000000" font-family="sans-serif" font-size="13" lengthAdjust="spacing" textLength="351" x="911.5" y="346.4263">registerCategory(alphanumericcode,description,name)</text><polygon fill="#181818" points="1537.5,376.625,1547.5,380.625,1537.5,384.625,1541.5,380.625" style="stroke:#181818;stroke-width:1.0;"/><line style="stroke:#181818;stroke-width:1.0;" x1="1289.5" x2="1543.5" y1="380.625" y2="380.625"/><text fill="#000000" font-family="sans-serif" font-size="13" font-weight="bold" lengthAdjust="spacing" textLength="9" x="1296.5" y="375.5591">9</text><text fill="#000000" font-family="sans-serif" font-size="13" lengthAdjust="spacing" textLength="98" x="1309.5" y="375.5591">save(category)</text><polygon fill="#181818" points="639.5,405.7578,629.5,409.7578,639.5,413.7578,635.5,409.7578" style="stroke:#181818;stroke-width:1.0;"/><line style="stroke:#181818;stroke-width:1.0;" x1="633.5" x2="1553.5" y1="409.7578" y2="409.7578"/><text fill="#000000" font-family="sans-serif" font-size="13" font-weight="bold" lengthAdjust="spacing" textLength="19" x="645.5" y="404.6919">10</text><text fill="#000000" font-family="sans-serif" font-size="13" lengthAdjust="spacing" textLength="233" x="668.5" y="404.6919">(category is saved in the repository)</text><!--MD5=[ea2316b696f0ed6c2e0bcbd05b90fcba]
@startuml
autonumber
actor "SalesClerk" as SC

participant  "RegisterNewCategoryUI <presentation>" as SYS
participant ":RegisterNewCategoryController <application>" as CTRL
participant ":CategoryRepository" as CR

note over SC: the factory pattern is not used as the category creation method is simple(3 attributes), the validation is few(size + a regex), and there will not be an enormous amount of categories created



activate SC
activate SYS

SC-> SYS: Register Category Option Selected

SYS-> SC: asks alphanumeric code
SC-> SYS: introduces alphanumeric code
SYS-> SC: asks description
SC-> SYS: introduces description
SYS-> SC: asks name
SC-> SYS: introduces name





SYS-> CTRL : registerCategory(alphanumericcode,description,name)
deactivate SYS
activate CTRL
CTRL -> CR : save(category)
activate CR
CR-> SC : (category is saved in the repository)
deactivate CR
@enduml

PlantUML version 1.2022.4beta2(Unknown compile time)
(GPL source distribution)
Java Runtime: Java(TM) SE Runtime Environment
JVM: Java HotSpot(TM) 64-Bit Server VM
Default Encoding: UTF-8
Language: en
Country: US
--></g></svg>