<?xml version="1.0" encoding="UTF-8" standalone="no"?><svg xmlns="http://www.w3.org/2000/svg" xmlns:xlink="http://www.w3.org/1999/xlink" contentStyleType="text/css" height="640px" preserveAspectRatio="none" style="width:1184px;height:640px;background:#FFFFFF;" version="1.1" viewBox="0 0 1184 640" width="1184px" zoomAndPan="magnify"><defs/><g><!--MD5=[363b972afd27ec17c81a982e62e232c4]
class AGVsDashboardUI--><g id="elem_AGVsDashboardUI"><rect codeLine="3" fill="#F1F1F1" height="64.2969" id="AGVsDashboardUI" rx="2.5" ry="2.5" style="stroke:#181818;stroke-width:0.5;" width="160" x="472.5" y="7"/><ellipse cx="487.5" cy="23" fill="#ADD1B2" rx="11" ry="11" style="stroke:#181818;stroke-width:1.0;"/><path d="M489.8438,18.6719 C488.9063,18.2344 488.3125,18.0938 487.4375,18.0938 C484.8125,18.0938 482.8125,20.1719 482.8125,22.8906 L482.8125,24.0156 C482.8125,26.5938 484.9219,28.4844 487.8125,28.4844 C489.0313,28.4844 490.1875,28.1875 490.9375,27.6406 C491.5156,27.2344 491.8438,26.7813 491.8438,26.3906 C491.8438,25.9375 491.4531,25.5469 490.9844,25.5469 C490.7656,25.5469 490.5625,25.625 490.375,25.8125 C489.9219,26.2969 489.9219,26.2969 489.7344,26.3906 C489.3125,26.6563 488.625,26.7813 487.8594,26.7813 C485.8125,26.7813 484.5156,25.6875 484.5156,23.9844 L484.5156,22.8906 C484.5156,21.1094 485.7656,19.7969 487.5,19.7969 C488.0781,19.7969 488.6875,19.9531 489.1563,20.2031 C489.6406,20.4844 489.8125,20.7031 489.9063,21.1094 C489.9688,21.5156 490,21.6406 490.1406,21.7656 C490.2813,21.9063 490.5156,22.0156 490.7344,22.0156 C491,22.0156 491.2656,21.875 491.4375,21.6563 C491.5469,21.5 491.5781,21.3125 491.5781,20.8906 L491.5781,19.4688 C491.5781,19.0313 491.5625,18.9063 491.4688,18.75 C491.3125,18.4844 491.0313,18.3438 490.7344,18.3438 C490.4375,18.3438 490.2344,18.4375 490.0156,18.75 L489.8438,18.6719 Z " fill="#000000"/><text fill="#000000" font-family="sans-serif" font-size="14" lengthAdjust="spacing" textLength="128" x="501.5" y="27.8467">AGVsDashboardUI</text><line style="stroke:#181818;stroke-width:0.5;" x1="473.5" x2="631.5" y1="39" y2="39"/><line style="stroke:#181818;stroke-width:0.5;" x1="473.5" x2="631.5" y1="47" y2="47"/><text fill="#000000" font-family="sans-serif" font-size="14" lengthAdjust="spacing" textLength="77" x="478.5" y="63.9951">+doShow()</text></g><!--MD5=[fb6956701906676b745c061cdaf66dad]
class AGVsDashboardController--><g id="elem_AGVsDashboardController"><rect codeLine="7" fill="#F1F1F1" height="96.8906" id="AGVsDashboardController" rx="2.5" ry="2.5" style="stroke:#181818;stroke-width:0.5;" width="220" x="442.5" y="131"/><ellipse cx="457.5" cy="147" fill="#ADD1B2" rx="11" ry="11" style="stroke:#181818;stroke-width:1.0;"/><path d="M459.8438,142.6719 C458.9063,142.2344 458.3125,142.0938 457.4375,142.0938 C454.8125,142.0938 452.8125,144.1719 452.8125,146.8906 L452.8125,148.0156 C452.8125,150.5938 454.9219,152.4844 457.8125,152.4844 C459.0313,152.4844 460.1875,152.1875 460.9375,151.6406 C461.5156,151.2344 461.8438,150.7813 461.8438,150.3906 C461.8438,149.9375 461.4531,149.5469 460.9844,149.5469 C460.7656,149.5469 460.5625,149.625 460.375,149.8125 C459.9219,150.2969 459.9219,150.2969 459.7344,150.3906 C459.3125,150.6563 458.625,150.7813 457.8594,150.7813 C455.8125,150.7813 454.5156,149.6875 454.5156,147.9844 L454.5156,146.8906 C454.5156,145.1094 455.7656,143.7969 457.5,143.7969 C458.0781,143.7969 458.6875,143.9531 459.1563,144.2031 C459.6406,144.4844 459.8125,144.7031 459.9063,145.1094 C459.9688,145.5156 460,145.6406 460.1406,145.7656 C460.2813,145.9063 460.5156,146.0156 460.7344,146.0156 C461,146.0156 461.2656,145.875 461.4375,145.6563 C461.5469,145.5 461.5781,145.3125 461.5781,144.8906 L461.5781,143.4688 C461.5781,143.0313 461.5625,142.9063 461.4688,142.75 C461.3125,142.4844 461.0313,142.3438 460.7344,142.3438 C460.4375,142.3438 460.2344,142.4375 460.0156,142.75 L459.8438,142.6719 Z " fill="#000000"/><text fill="#000000" font-family="sans-serif" font-size="14" lengthAdjust="spacing" textLength="188" x="471.5" y="151.8467">AGVsDashboardController</text><line style="stroke:#181818;stroke-width:0.5;" x1="443.5" x2="661.5" y1="163" y2="163"/><line style="stroke:#181818;stroke-width:0.5;" x1="443.5" x2="661.5" y1="171" y2="171"/><text fill="#000000" font-family="sans-serif" font-size="14" lengthAdjust="spacing" textLength="139" x="448.5" y="187.9951">+showDashboard();</text><text fill="#000000" font-family="sans-serif" font-size="14" lengthAdjust="spacing" textLength="86" x="448.5" y="204.292">+agvsInfo();</text><text fill="#000000" font-family="sans-serif" font-size="14" lengthAdjust="spacing" textLength="91" x="448.5" y="220.5889">+agvState();</text></g><!--MD5=[e8c189551b7885b999ad7cefb30fc2a3]
class PersistenceContext--><g id="elem_PersistenceContext"><rect codeLine="13" fill="#F1F1F1" height="96.8906" id="PersistenceContext" rx="2.5" ry="2.5" style="stroke:#181818;stroke-width:0.5;" width="234" x="882.5" y="288"/><ellipse cx="924.05" cy="304" fill="#ADD1B2" rx="11" ry="11" style="stroke:#181818;stroke-width:1.0;"/><path d="M926.3938,299.6719 C925.4563,299.2344 924.8625,299.0938 923.9875,299.0938 C921.3625,299.0938 919.3625,301.1719 919.3625,303.8906 L919.3625,305.0156 C919.3625,307.5938 921.4719,309.4844 924.3625,309.4844 C925.5813,309.4844 926.7375,309.1875 927.4875,308.6406 C928.0656,308.2344 928.3938,307.7813 928.3938,307.3906 C928.3938,306.9375 928.0031,306.5469 927.5344,306.5469 C927.3156,306.5469 927.1125,306.625 926.925,306.8125 C926.4719,307.2969 926.4719,307.2969 926.2844,307.3906 C925.8625,307.6563 925.175,307.7813 924.4094,307.7813 C922.3625,307.7813 921.0656,306.6875 921.0656,304.9844 L921.0656,303.8906 C921.0656,302.1094 922.3156,300.7969 924.05,300.7969 C924.6281,300.7969 925.2375,300.9531 925.7063,301.2031 C926.1906,301.4844 926.3625,301.7031 926.4563,302.1094 C926.5188,302.5156 926.55,302.6406 926.6906,302.7656 C926.8313,302.9063 927.0656,303.0156 927.2844,303.0156 C927.55,303.0156 927.8156,302.875 927.9875,302.6563 C928.0969,302.5 928.1281,302.3125 928.1281,301.8906 L928.1281,300.4688 C928.1281,300.0313 928.1125,299.9063 928.0188,299.75 C927.8625,299.4844 927.5813,299.3438 927.2844,299.3438 C926.9875,299.3438 926.7844,299.4375 926.5656,299.75 L926.3938,299.6719 Z " fill="#000000"/><text fill="#000000" font-family="sans-serif" font-size="14" lengthAdjust="spacing" textLength="143" x="943.95" y="308.8467">PersistenceContext</text><line style="stroke:#181818;stroke-width:0.5;" x1="883.5" x2="1115.5" y1="320" y2="320"/><text fill="#000000" font-family="sans-serif" font-size="14" lengthAdjust="spacing" textLength="120" x="888.5" y="336.9951">-Logger LOGGER</text><text fill="#000000" font-family="sans-serif" font-size="14" lengthAdjust="spacing" textLength="222" x="888.5" y="353.292">-RepositoryFactory theFactory</text><line style="stroke:#181818;stroke-width:0.5;" x1="883.5" x2="1115.5" y1="360.5938" y2="360.5938"/><text fill="#000000" font-family="sans-serif" font-size="14" lengthAdjust="spacing" textLength="108" x="888.5" y="377.5889">+repositories()</text></g><!--MD5=[48590afff58a68e2fcba47824d6f8a11]
class RepositoryFactory--><g id="elem_RepositoryFactory"><rect codeLine="19" fill="#F1F1F1" height="64.2969" id="RepositoryFactory" rx="2.5" ry="2.5" style="stroke:#181818;stroke-width:0.5;" width="165" x="917" y="445"/><ellipse cx="932" cy="461" fill="#ADD1B2" rx="11" ry="11" style="stroke:#181818;stroke-width:1.0;"/><path d="M934.3438,456.6719 C933.4063,456.2344 932.8125,456.0938 931.9375,456.0938 C929.3125,456.0938 927.3125,458.1719 927.3125,460.8906 L927.3125,462.0156 C927.3125,464.5938 929.4219,466.4844 932.3125,466.4844 C933.5313,466.4844 934.6875,466.1875 935.4375,465.6406 C936.0156,465.2344 936.3438,464.7813 936.3438,464.3906 C936.3438,463.9375 935.9531,463.5469 935.4844,463.5469 C935.2656,463.5469 935.0625,463.625 934.875,463.8125 C934.4219,464.2969 934.4219,464.2969 934.2344,464.3906 C933.8125,464.6563 933.125,464.7813 932.3594,464.7813 C930.3125,464.7813 929.0156,463.6875 929.0156,461.9844 L929.0156,460.8906 C929.0156,459.1094 930.2656,457.7969 932,457.7969 C932.5781,457.7969 933.1875,457.9531 933.6563,458.2031 C934.1406,458.4844 934.3125,458.7031 934.4063,459.1094 C934.4688,459.5156 934.5,459.6406 934.6406,459.7656 C934.7813,459.9063 935.0156,460.0156 935.2344,460.0156 C935.5,460.0156 935.7656,459.875 935.9375,459.6563 C936.0469,459.5 936.0781,459.3125 936.0781,458.8906 L936.0781,457.4688 C936.0781,457.0313 936.0625,456.9063 935.9688,456.75 C935.8125,456.4844 935.5313,456.3438 935.2344,456.3438 C934.9375,456.3438 934.7344,456.4375 934.5156,456.75 L934.3438,456.6719 Z " fill="#000000"/><text fill="#000000" font-family="sans-serif" font-size="14" lengthAdjust="spacing" textLength="133" x="946" y="465.8467">RepositoryFactory</text><line style="stroke:#181818;stroke-width:0.5;" x1="918" x2="1081" y1="477" y2="477"/><line style="stroke:#181818;stroke-width:0.5;" x1="918" x2="1081" y1="485" y2="485"/><text fill="#000000" font-family="sans-serif" font-size="14" lengthAdjust="spacing" textLength="53" x="923" y="501.9951">+agvs()</text></g><!--MD5=[7799cb959f8bb7cb7fd993d5fbd75b00]
class AGVsRepository--><g id="elem_AGVsRepository"><rect codeLine="23" fill="#F1F1F1" height="64.2969" id="AGVsRepository" rx="2.5" ry="2.5" style="stroke:#181818;stroke-width:0.5;" width="149" x="925" y="569"/><ellipse cx="940" cy="585" fill="#ADD1B2" rx="11" ry="11" style="stroke:#181818;stroke-width:1.0;"/><path d="M942.3438,580.6719 C941.4063,580.2344 940.8125,580.0938 939.9375,580.0938 C937.3125,580.0938 935.3125,582.1719 935.3125,584.8906 L935.3125,586.0156 C935.3125,588.5938 937.4219,590.4844 940.3125,590.4844 C941.5313,590.4844 942.6875,590.1875 943.4375,589.6406 C944.0156,589.2344 944.3438,588.7813 944.3438,588.3906 C944.3438,587.9375 943.9531,587.5469 943.4844,587.5469 C943.2656,587.5469 943.0625,587.625 942.875,587.8125 C942.4219,588.2969 942.4219,588.2969 942.2344,588.3906 C941.8125,588.6563 941.125,588.7813 940.3594,588.7813 C938.3125,588.7813 937.0156,587.6875 937.0156,585.9844 L937.0156,584.8906 C937.0156,583.1094 938.2656,581.7969 940,581.7969 C940.5781,581.7969 941.1875,581.9531 941.6563,582.2031 C942.1406,582.4844 942.3125,582.7031 942.4063,583.1094 C942.4688,583.5156 942.5,583.6406 942.6406,583.7656 C942.7813,583.9063 943.0156,584.0156 943.2344,584.0156 C943.5,584.0156 943.7656,583.875 943.9375,583.6563 C944.0469,583.5 944.0781,583.3125 944.0781,582.8906 L944.0781,581.4688 C944.0781,581.0313 944.0625,580.9063 943.9688,580.75 C943.8125,580.4844 943.5313,580.3438 943.2344,580.3438 C942.9375,580.3438 942.7344,580.4375 942.5156,580.75 L942.3438,580.6719 Z " fill="#000000"/><text fill="#000000" font-family="sans-serif" font-size="14" lengthAdjust="spacing" textLength="117" x="954" y="589.8467">AGVsRepository</text><line style="stroke:#181818;stroke-width:0.5;" x1="926" x2="1073" y1="601" y2="601"/><line style="stroke:#181818;stroke-width:0.5;" x1="926" x2="1073" y1="609" y2="609"/><text fill="#000000" font-family="sans-serif" font-size="14" lengthAdjust="spacing" textLength="72" x="931" y="625.9951">+findAll();</text></g><!--MD5=[ccd2a45e2e3a0dcc9adf48c1853256d3]
class HTTPServerAjaxVoting--><g id="elem_HTTPServerAjaxVoting"><rect codeLine="27" fill="#F1F1F1" height="64.2969" id="HTTPServerAjaxVoting" rx="2.5" ry="2.5" style="stroke:#181818;stroke-width:0.5;" width="194" x="241.5" y="304.5"/><ellipse cx="256.5" cy="320.5" fill="#ADD1B2" rx="11" ry="11" style="stroke:#181818;stroke-width:1.0;"/><path d="M258.8438,316.1719 C257.9063,315.7344 257.3125,315.5938 256.4375,315.5938 C253.8125,315.5938 251.8125,317.6719 251.8125,320.3906 L251.8125,321.5156 C251.8125,324.0938 253.9219,325.9844 256.8125,325.9844 C258.0313,325.9844 259.1875,325.6875 259.9375,325.1406 C260.5156,324.7344 260.8438,324.2813 260.8438,323.8906 C260.8438,323.4375 260.4531,323.0469 259.9844,323.0469 C259.7656,323.0469 259.5625,323.125 259.375,323.3125 C258.9219,323.7969 258.9219,323.7969 258.7344,323.8906 C258.3125,324.1563 257.625,324.2813 256.8594,324.2813 C254.8125,324.2813 253.5156,323.1875 253.5156,321.4844 L253.5156,320.3906 C253.5156,318.6094 254.7656,317.2969 256.5,317.2969 C257.0781,317.2969 257.6875,317.4531 258.1563,317.7031 C258.6406,317.9844 258.8125,318.2031 258.9063,318.6094 C258.9688,319.0156 259,319.1406 259.1406,319.2656 C259.2813,319.4063 259.5156,319.5156 259.7344,319.5156 C260,319.5156 260.2656,319.375 260.4375,319.1563 C260.5469,319 260.5781,318.8125 260.5781,318.3906 L260.5781,316.9688 C260.5781,316.5313 260.5625,316.4063 260.4688,316.25 C260.3125,315.9844 260.0313,315.8438 259.7344,315.8438 C259.4375,315.8438 259.2344,315.9375 259.0156,316.25 L258.8438,316.1719 Z " fill="#000000"/><text fill="#000000" font-family="sans-serif" font-size="14" lengthAdjust="spacing" textLength="162" x="270.5" y="325.3467">HTTPServerAjaxVoting</text><line style="stroke:#181818;stroke-width:0.5;" x1="242.5" x2="434.5" y1="336.5" y2="336.5"/><line style="stroke:#181818;stroke-width:0.5;" x1="242.5" x2="434.5" y1="344.5" y2="344.5"/><text fill="#000000" font-family="sans-serif" font-size="14" lengthAdjust="spacing" textLength="61" x="247.5" y="361.4951">+start();</text></g><!--MD5=[87e77d02fb3e3d718169517b5a8fd9d4]
class HTTPMessage--><g id="elem_HTTPMessage"><rect codeLine="30" fill="#F1F1F1" height="64.2969" id="HTTPMessage" rx="2.5" ry="2.5" style="stroke:#181818;stroke-width:0.5;" width="136" x="711.5" y="304.5"/><ellipse cx="729.2" cy="320.5" fill="#ADD1B2" rx="11" ry="11" style="stroke:#181818;stroke-width:1.0;"/><path d="M731.5438,316.1719 C730.6063,315.7344 730.0125,315.5938 729.1375,315.5938 C726.5125,315.5938 724.5125,317.6719 724.5125,320.3906 L724.5125,321.5156 C724.5125,324.0938 726.6219,325.9844 729.5125,325.9844 C730.7313,325.9844 731.8875,325.6875 732.6375,325.1406 C733.2156,324.7344 733.5438,324.2813 733.5438,323.8906 C733.5438,323.4375 733.1531,323.0469 732.6844,323.0469 C732.4656,323.0469 732.2625,323.125 732.075,323.3125 C731.6219,323.7969 731.6219,323.7969 731.4344,323.8906 C731.0125,324.1563 730.325,324.2813 729.5594,324.2813 C727.5125,324.2813 726.2156,323.1875 726.2156,321.4844 L726.2156,320.3906 C726.2156,318.6094 727.4656,317.2969 729.2,317.2969 C729.7781,317.2969 730.3875,317.4531 730.8563,317.7031 C731.3406,317.9844 731.5125,318.2031 731.6063,318.6094 C731.6688,319.0156 731.7,319.1406 731.8406,319.2656 C731.9813,319.4063 732.2156,319.5156 732.4344,319.5156 C732.7,319.5156 732.9656,319.375 733.1375,319.1563 C733.2469,319 733.2781,318.8125 733.2781,318.3906 L733.2781,316.9688 C733.2781,316.5313 733.2625,316.4063 733.1688,316.25 C733.0125,315.9844 732.7313,315.8438 732.4344,315.8438 C732.1375,315.8438 731.9344,315.9375 731.7156,316.25 L731.5438,316.1719 Z " fill="#000000"/><text fill="#000000" font-family="sans-serif" font-size="14" lengthAdjust="spacing" textLength="98" x="743.8" y="325.3467">HTTPMessage</text><line style="stroke:#181818;stroke-width:0.5;" x1="712.5" x2="846.5" y1="336.5" y2="336.5"/><line style="stroke:#181818;stroke-width:0.5;" x1="712.5" x2="846.5" y1="344.5" y2="344.5"/><text fill="#000000" font-family="sans-serif" font-size="14" lengthAdjust="spacing" textLength="124" x="717.5" y="361.4951">+HTTPMessage();</text></g><!--MD5=[90a796b93d26134dafdf52d4b32a8b11]
class HTTPAjaxVotingRequest--><g id="elem_HTTPAjaxVotingRequest"><rect codeLine="33" fill="#F1F1F1" height="64.2969" id="HTTPAjaxVotingRequest" rx="2.5" ry="2.5" style="stroke:#181818;stroke-width:0.5;" width="206" x="470.5" y="304.5"/><ellipse cx="485.5" cy="320.5" fill="#ADD1B2" rx="11" ry="11" style="stroke:#181818;stroke-width:1.0;"/><path d="M487.8438,316.1719 C486.9063,315.7344 486.3125,315.5938 485.4375,315.5938 C482.8125,315.5938 480.8125,317.6719 480.8125,320.3906 L480.8125,321.5156 C480.8125,324.0938 482.9219,325.9844 485.8125,325.9844 C487.0313,325.9844 488.1875,325.6875 488.9375,325.1406 C489.5156,324.7344 489.8438,324.2813 489.8438,323.8906 C489.8438,323.4375 489.4531,323.0469 488.9844,323.0469 C488.7656,323.0469 488.5625,323.125 488.375,323.3125 C487.9219,323.7969 487.9219,323.7969 487.7344,323.8906 C487.3125,324.1563 486.625,324.2813 485.8594,324.2813 C483.8125,324.2813 482.5156,323.1875 482.5156,321.4844 L482.5156,320.3906 C482.5156,318.6094 483.7656,317.2969 485.5,317.2969 C486.0781,317.2969 486.6875,317.4531 487.1563,317.7031 C487.6406,317.9844 487.8125,318.2031 487.9063,318.6094 C487.9688,319.0156 488,319.1406 488.1406,319.2656 C488.2813,319.4063 488.5156,319.5156 488.7344,319.5156 C489,319.5156 489.2656,319.375 489.4375,319.1563 C489.5469,319 489.5781,318.8125 489.5781,318.3906 L489.5781,316.9688 C489.5781,316.5313 489.5625,316.4063 489.4688,316.25 C489.3125,315.9844 489.0313,315.8438 488.7344,315.8438 C488.4375,315.8438 488.2344,315.9375 488.0156,316.25 L487.8438,316.1719 Z " fill="#000000"/><text fill="#000000" font-family="sans-serif" font-size="14" lengthAdjust="spacing" textLength="174" x="499.5" y="325.3467">HTTPAjaxVotingRequest</text><line style="stroke:#181818;stroke-width:0.5;" x1="471.5" x2="675.5" y1="336.5" y2="336.5"/><line style="stroke:#181818;stroke-width:0.5;" x1="471.5" x2="675.5" y1="344.5" y2="344.5"/><text fill="#000000" font-family="sans-serif" font-size="14" lengthAdjust="spacing" textLength="49" x="476.5" y="361.4951">+run();</text></g><!--MD5=[ae93a5ed91bab41978f599b885d6d201]
class AGVDashboardInfoDTO--><g id="elem_AGVDashboardInfoDTO"><rect codeLine="37" fill="#F1F1F1" height="96.8906" id="AGVDashboardInfoDTO" rx="2.5" ry="2.5" style="stroke:#181818;stroke-width:0.5;" width="199" x="7" y="288"/><ellipse cx="22" cy="304" fill="#ADD1B2" rx="11" ry="11" style="stroke:#181818;stroke-width:1.0;"/><path d="M24.3438,299.6719 C23.4063,299.2344 22.8125,299.0938 21.9375,299.0938 C19.3125,299.0938 17.3125,301.1719 17.3125,303.8906 L17.3125,305.0156 C17.3125,307.5938 19.4219,309.4844 22.3125,309.4844 C23.5313,309.4844 24.6875,309.1875 25.4375,308.6406 C26.0156,308.2344 26.3438,307.7813 26.3438,307.3906 C26.3438,306.9375 25.9531,306.5469 25.4844,306.5469 C25.2656,306.5469 25.0625,306.625 24.875,306.8125 C24.4219,307.2969 24.4219,307.2969 24.2344,307.3906 C23.8125,307.6563 23.125,307.7813 22.3594,307.7813 C20.3125,307.7813 19.0156,306.6875 19.0156,304.9844 L19.0156,303.8906 C19.0156,302.1094 20.2656,300.7969 22,300.7969 C22.5781,300.7969 23.1875,300.9531 23.6563,301.2031 C24.1406,301.4844 24.3125,301.7031 24.4063,302.1094 C24.4688,302.5156 24.5,302.6406 24.6406,302.7656 C24.7813,302.9063 25.0156,303.0156 25.2344,303.0156 C25.5,303.0156 25.7656,302.875 25.9375,302.6563 C26.0469,302.5 26.0781,302.3125 26.0781,301.8906 L26.0781,300.4688 C26.0781,300.0313 26.0625,299.9063 25.9688,299.75 C25.8125,299.4844 25.5313,299.3438 25.2344,299.3438 C24.9375,299.3438 24.7344,299.4375 24.5156,299.75 L24.3438,299.6719 Z " fill="#000000"/><text fill="#000000" font-family="sans-serif" font-size="14" lengthAdjust="spacing" textLength="167" x="36" y="308.8467">AGVDashboardInfoDTO</text><line style="stroke:#181818;stroke-width:0.5;" x1="8" x2="205" y1="320" y2="320"/><text fill="#000000" font-family="sans-serif" font-size="14" lengthAdjust="spacing" textLength="138" x="13" y="336.9951">-String Description</text><text fill="#000000" font-family="sans-serif" font-size="14" lengthAdjust="spacing" textLength="100" x="13" y="353.292">-String Status</text><text fill="#000000" font-family="sans-serif" font-size="14" lengthAdjust="spacing" textLength="112" x="13" y="369.5889">-String Position</text><line style="stroke:#181818;stroke-width:0.5;" x1="8" x2="205" y1="376.8906" y2="376.8906"/></g><!--MD5=[8547e8cd29eb525428380b514614e50a]
class TcpClient--><g id="elem_TcpClient"><rect codeLine="43" fill="#F1F1F1" height="64.2969" id="TcpClient" rx="2.5" ry="2.5" style="stroke:#181818;stroke-width:0.5;" width="130" x="697.5" y="147.5"/><ellipse cx="725.1" cy="163.5" fill="#ADD1B2" rx="11" ry="11" style="stroke:#181818;stroke-width:1.0;"/><path d="M727.4438,159.1719 C726.5063,158.7344 725.9125,158.5938 725.0375,158.5938 C722.4125,158.5938 720.4125,160.6719 720.4125,163.3906 L720.4125,164.5156 C720.4125,167.0938 722.5219,168.9844 725.4125,168.9844 C726.6313,168.9844 727.7875,168.6875 728.5375,168.1406 C729.1156,167.7344 729.4438,167.2813 729.4438,166.8906 C729.4438,166.4375 729.0531,166.0469 728.5844,166.0469 C728.3656,166.0469 728.1625,166.125 727.975,166.3125 C727.5219,166.7969 727.5219,166.7969 727.3344,166.8906 C726.9125,167.1563 726.225,167.2813 725.4594,167.2813 C723.4125,167.2813 722.1156,166.1875 722.1156,164.4844 L722.1156,163.3906 C722.1156,161.6094 723.3656,160.2969 725.1,160.2969 C725.6781,160.2969 726.2875,160.4531 726.7563,160.7031 C727.2406,160.9844 727.4125,161.2031 727.5063,161.6094 C727.5688,162.0156 727.6,162.1406 727.7406,162.2656 C727.8813,162.4063 728.1156,162.5156 728.3344,162.5156 C728.6,162.5156 728.8656,162.375 729.0375,162.1563 C729.1469,162 729.1781,161.8125 729.1781,161.3906 L729.1781,159.9688 C729.1781,159.5313 729.1625,159.4063 729.0688,159.25 C728.9125,158.9844 728.6313,158.8438 728.3344,158.8438 C728.0375,158.8438 727.8344,158.9375 727.6156,159.25 L727.4438,159.1719 Z " fill="#000000"/><text fill="#000000" font-family="sans-serif" font-size="14" lengthAdjust="spacing" textLength="70" x="741.9" y="168.3467">TcpClient</text><line style="stroke:#181818;stroke-width:0.5;" x1="698.5" x2="826.5" y1="179.5" y2="179.5"/><line style="stroke:#181818;stroke-width:0.5;" x1="698.5" x2="826.5" y1="187.5" y2="187.5"/><text fill="#000000" font-family="sans-serif" font-size="14" lengthAdjust="spacing" textLength="118" x="703.5" y="204.4951">+getAgvState();</text></g><!--MD5=[ef70be79f6755a35fb39f64e7faf05f7]
class Packet--><g id="elem_Packet"><rect fill="#F1F1F1" height="48" id="Packet" rx="2.5" ry="2.5" style="stroke:#181818;stroke-width:0.5;" width="82" x="862.5" y="155.5"/><ellipse cx="877.5" cy="171.5" fill="#ADD1B2" rx="11" ry="11" style="stroke:#181818;stroke-width:1.0;"/><path d="M879.8438,167.1719 C878.9063,166.7344 878.3125,166.5938 877.4375,166.5938 C874.8125,166.5938 872.8125,168.6719 872.8125,171.3906 L872.8125,172.5156 C872.8125,175.0938 874.9219,176.9844 877.8125,176.9844 C879.0313,176.9844 880.1875,176.6875 880.9375,176.1406 C881.5156,175.7344 881.8438,175.2813 881.8438,174.8906 C881.8438,174.4375 881.4531,174.0469 880.9844,174.0469 C880.7656,174.0469 880.5625,174.125 880.375,174.3125 C879.9219,174.7969 879.9219,174.7969 879.7344,174.8906 C879.3125,175.1563 878.625,175.2813 877.8594,175.2813 C875.8125,175.2813 874.5156,174.1875 874.5156,172.4844 L874.5156,171.3906 C874.5156,169.6094 875.7656,168.2969 877.5,168.2969 C878.0781,168.2969 878.6875,168.4531 879.1563,168.7031 C879.6406,168.9844 879.8125,169.2031 879.9063,169.6094 C879.9688,170.0156 880,170.1406 880.1406,170.2656 C880.2813,170.4063 880.5156,170.5156 880.7344,170.5156 C881,170.5156 881.2656,170.375 881.4375,170.1563 C881.5469,170 881.5781,169.8125 881.5781,169.3906 L881.5781,167.9688 C881.5781,167.5313 881.5625,167.4063 881.4688,167.25 C881.3125,166.9844 881.0313,166.8438 880.7344,166.8438 C880.4375,166.8438 880.2344,166.9375 880.0156,167.25 L879.8438,167.1719 Z " fill="#000000"/><text fill="#000000" font-family="sans-serif" font-size="14" lengthAdjust="spacing" textLength="50" x="891.5" y="176.3467">Packet</text><line style="stroke:#181818;stroke-width:0.5;" x1="863.5" x2="943.5" y1="187.5" y2="187.5"/><line style="stroke:#181818;stroke-width:0.5;" x1="863.5" x2="943.5" y1="195.5" y2="195.5"/></g><!--MD5=[d7724097116ffcb6ea40e9e893263eea]
class TcpServerAGVManager--><g id="elem_TcpServerAGVManager"><rect fill="#F1F1F1" height="48" id="TcpServerAGVManager" rx="2.5" ry="2.5" style="stroke:#181818;stroke-width:0.5;" width="198" x="979.5" y="155.5"/><ellipse cx="994.5" cy="171.5" fill="#ADD1B2" rx="11" ry="11" style="stroke:#181818;stroke-width:1.0;"/><path d="M996.8438,167.1719 C995.9063,166.7344 995.3125,166.5938 994.4375,166.5938 C991.8125,166.5938 989.8125,168.6719 989.8125,171.3906 L989.8125,172.5156 C989.8125,175.0938 991.9219,176.9844 994.8125,176.9844 C996.0313,176.9844 997.1875,176.6875 997.9375,176.1406 C998.5156,175.7344 998.8438,175.2813 998.8438,174.8906 C998.8438,174.4375 998.4531,174.0469 997.9844,174.0469 C997.7656,174.0469 997.5625,174.125 997.375,174.3125 C996.9219,174.7969 996.9219,174.7969 996.7344,174.8906 C996.3125,175.1563 995.625,175.2813 994.8594,175.2813 C992.8125,175.2813 991.5156,174.1875 991.5156,172.4844 L991.5156,171.3906 C991.5156,169.6094 992.7656,168.2969 994.5,168.2969 C995.0781,168.2969 995.6875,168.4531 996.1563,168.7031 C996.6406,168.9844 996.8125,169.2031 996.9063,169.6094 C996.9688,170.0156 997,170.1406 997.1406,170.2656 C997.2813,170.4063 997.5156,170.5156 997.7344,170.5156 C998,170.5156 998.2656,170.375 998.4375,170.1563 C998.5469,170 998.5781,169.8125 998.5781,169.3906 L998.5781,167.9688 C998.5781,167.5313 998.5625,167.4063 998.4688,167.25 C998.3125,166.9844 998.0313,166.8438 997.7344,166.8438 C997.4375,166.8438 997.2344,166.9375 997.0156,167.25 L996.8438,167.1719 Z " fill="#000000"/><text fill="#000000" font-family="sans-serif" font-size="14" lengthAdjust="spacing" textLength="166" x="1008.5" y="176.3467">TcpServerAGVManager</text><line style="stroke:#181818;stroke-width:0.5;" x1="980.5" x2="1176.5" y1="187.5" y2="187.5"/><line style="stroke:#181818;stroke-width:0.5;" x1="980.5" x2="1176.5" y1="195.5" y2="195.5"/></g><!--MD5=[8f07f51d887e64eddc161f608ee0ddb0]
class Socket--><g id="elem_Socket"><rect fill="#F1F1F1" height="48" id="Socket" rx="2.5" ry="2.5" style="stroke:#181818;stroke-width:0.5;" width="83" x="297" y="453"/><ellipse cx="312" cy="469" fill="#ADD1B2" rx="11" ry="11" style="stroke:#181818;stroke-width:1.0;"/><path d="M314.3438,464.6719 C313.4063,464.2344 312.8125,464.0938 311.9375,464.0938 C309.3125,464.0938 307.3125,466.1719 307.3125,468.8906 L307.3125,470.0156 C307.3125,472.5938 309.4219,474.4844 312.3125,474.4844 C313.5313,474.4844 314.6875,474.1875 315.4375,473.6406 C316.0156,473.2344 316.3438,472.7813 316.3438,472.3906 C316.3438,471.9375 315.9531,471.5469 315.4844,471.5469 C315.2656,471.5469 315.0625,471.625 314.875,471.8125 C314.4219,472.2969 314.4219,472.2969 314.2344,472.3906 C313.8125,472.6563 313.125,472.7813 312.3594,472.7813 C310.3125,472.7813 309.0156,471.6875 309.0156,469.9844 L309.0156,468.8906 C309.0156,467.1094 310.2656,465.7969 312,465.7969 C312.5781,465.7969 313.1875,465.9531 313.6563,466.2031 C314.1406,466.4844 314.3125,466.7031 314.4063,467.1094 C314.4688,467.5156 314.5,467.6406 314.6406,467.7656 C314.7813,467.9063 315.0156,468.0156 315.2344,468.0156 C315.5,468.0156 315.7656,467.875 315.9375,467.6563 C316.0469,467.5 316.0781,467.3125 316.0781,466.8906 L316.0781,465.4688 C316.0781,465.0313 316.0625,464.9063 315.9688,464.75 C315.8125,464.4844 315.5313,464.3438 315.2344,464.3438 C314.9375,464.3438 314.7344,464.4375 314.5156,464.75 L314.3438,464.6719 Z " fill="#000000"/><text fill="#000000" font-family="sans-serif" font-size="14" lengthAdjust="spacing" textLength="51" x="326" y="473.8467">Socket</text><line style="stroke:#181818;stroke-width:0.5;" x1="298" x2="379" y1="485" y2="485"/><line style="stroke:#181818;stroke-width:0.5;" x1="298" x2="379" y1="493" y2="493"/></g><!--MD5=[f23c2cd2d38bfa467cd8fc73fc6fe954]
class DataOutputStream--><g id="elem_DataOutputStream"><rect fill="#F1F1F1" height="48" id="DataOutputStream" rx="2.5" ry="2.5" style="stroke:#181818;stroke-width:0.5;" width="170" x="452.5" y="453"/><ellipse cx="467.5" cy="469" fill="#ADD1B2" rx="11" ry="11" style="stroke:#181818;stroke-width:1.0;"/><path d="M469.8438,464.6719 C468.9063,464.2344 468.3125,464.0938 467.4375,464.0938 C464.8125,464.0938 462.8125,466.1719 462.8125,468.8906 L462.8125,470.0156 C462.8125,472.5938 464.9219,474.4844 467.8125,474.4844 C469.0313,474.4844 470.1875,474.1875 470.9375,473.6406 C471.5156,473.2344 471.8438,472.7813 471.8438,472.3906 C471.8438,471.9375 471.4531,471.5469 470.9844,471.5469 C470.7656,471.5469 470.5625,471.625 470.375,471.8125 C469.9219,472.2969 469.9219,472.2969 469.7344,472.3906 C469.3125,472.6563 468.625,472.7813 467.8594,472.7813 C465.8125,472.7813 464.5156,471.6875 464.5156,469.9844 L464.5156,468.8906 C464.5156,467.1094 465.7656,465.7969 467.5,465.7969 C468.0781,465.7969 468.6875,465.9531 469.1563,466.2031 C469.6406,466.4844 469.8125,466.7031 469.9063,467.1094 C469.9688,467.5156 470,467.6406 470.1406,467.7656 C470.2813,467.9063 470.5156,468.0156 470.7344,468.0156 C471,468.0156 471.2656,467.875 471.4375,467.6563 C471.5469,467.5 471.5781,467.3125 471.5781,466.8906 L471.5781,465.4688 C471.5781,465.0313 471.5625,464.9063 471.4688,464.75 C471.3125,464.4844 471.0313,464.3438 470.7344,464.3438 C470.4375,464.3438 470.2344,464.4375 470.0156,464.75 L469.8438,464.6719 Z " fill="#000000"/><text fill="#000000" font-family="sans-serif" font-size="14" lengthAdjust="spacing" textLength="138" x="481.5" y="473.8467">DataOutputStream</text><line style="stroke:#181818;stroke-width:0.5;" x1="453.5" x2="621.5" y1="485" y2="485"/><line style="stroke:#181818;stroke-width:0.5;" x1="453.5" x2="621.5" y1="493" y2="493"/></g><!--MD5=[fcf904ab08c70e0d669da2cd857b8b75]
class DataInputStream--><g id="elem_DataInputStream"><rect fill="#F1F1F1" height="48" id="DataInputStream" rx="2.5" ry="2.5" style="stroke:#181818;stroke-width:0.5;" width="157" x="658" y="453"/><ellipse cx="673" cy="469" fill="#ADD1B2" rx="11" ry="11" style="stroke:#181818;stroke-width:1.0;"/><path d="M675.3438,464.6719 C674.4063,464.2344 673.8125,464.0938 672.9375,464.0938 C670.3125,464.0938 668.3125,466.1719 668.3125,468.8906 L668.3125,470.0156 C668.3125,472.5938 670.4219,474.4844 673.3125,474.4844 C674.5313,474.4844 675.6875,474.1875 676.4375,473.6406 C677.0156,473.2344 677.3438,472.7813 677.3438,472.3906 C677.3438,471.9375 676.9531,471.5469 676.4844,471.5469 C676.2656,471.5469 676.0625,471.625 675.875,471.8125 C675.4219,472.2969 675.4219,472.2969 675.2344,472.3906 C674.8125,472.6563 674.125,472.7813 673.3594,472.7813 C671.3125,472.7813 670.0156,471.6875 670.0156,469.9844 L670.0156,468.8906 C670.0156,467.1094 671.2656,465.7969 673,465.7969 C673.5781,465.7969 674.1875,465.9531 674.6563,466.2031 C675.1406,466.4844 675.3125,466.7031 675.4063,467.1094 C675.4688,467.5156 675.5,467.6406 675.6406,467.7656 C675.7813,467.9063 676.0156,468.0156 676.2344,468.0156 C676.5,468.0156 676.7656,467.875 676.9375,467.6563 C677.0469,467.5 677.0781,467.3125 677.0781,466.8906 L677.0781,465.4688 C677.0781,465.0313 677.0625,464.9063 676.9688,464.75 C676.8125,464.4844 676.5313,464.3438 676.2344,464.3438 C675.9375,464.3438 675.7344,464.4375 675.5156,464.75 L675.3438,464.6719 Z " fill="#000000"/><text fill="#000000" font-family="sans-serif" font-size="14" lengthAdjust="spacing" textLength="125" x="687" y="473.8467">DataInputStream</text><line style="stroke:#181818;stroke-width:0.5;" x1="659" x2="814" y1="485" y2="485"/><line style="stroke:#181818;stroke-width:0.5;" x1="659" x2="814" y1="493" y2="493"/></g><!--MD5=[5055edc65bfe75263670dadaf95c9b2c]
link AGVsDashboardUI to AGVsDashboardController--><g id="link_AGVsDashboardUI_AGVsDashboardController"><path codeLine="47" d="M552.5,71.082 C552.5,87.193 552.5,107.313 552.5,125.769 " fill="none" id="AGVsDashboardUI-to-AGVsDashboardController" style="stroke:#181818;stroke-width:1.0;stroke-dasharray:7.0,7.0;"/><polygon fill="#181818" points="552.5,130.926,556.5,121.926,552.5,125.926,548.5,121.926,552.5,130.926" style="stroke:#181818;stroke-width:1.0;"/></g><!--MD5=[2817fe2668c7de5f86a00020005d257b]
link AGVsDashboardController to AGVDashboardInfoDTO--><g id="link_AGVsDashboardController_AGVDashboardInfoDTO"><path codeLine="48" d="M442.174,214.43 C377.982,234.698 295.732,261.573 223.5,288 C219.431,289.489 215.292,291.031 211.12,292.609 " fill="none" id="AGVsDashboardController-to-AGVDashboardInfoDTO" style="stroke:#181818;stroke-width:1.0;"/><polygon fill="#181818" points="206.208,294.477,216.0421,295.0165,210.8814,292.6996,213.1983,287.539,206.208,294.477" style="stroke:#181818;stroke-width:1.0;"/></g><!--MD5=[31ae85f3fa2b8dff73499a55f270d4bb]
link AGVsDashboardController to PersistenceContext--><g id="link_AGVsDashboardController_PersistenceContext"><path codeLine="49" d="M662.53,221.993 C668.261,224.048 673.944,226.061 679.5,228 C761.112,256.481 782.613,260.32 864.5,288 C868.821,289.461 873.217,290.956 877.655,292.474 " fill="none" id="AGVsDashboardController-to-PersistenceContext" style="stroke:#181818;stroke-width:1.0;"/><polygon fill="#181818" points="882.485,294.129,875.2684,287.4267,877.7552,292.5076,872.6742,294.9944,882.485,294.129" style="stroke:#181818;stroke-width:1.0;"/></g><!--MD5=[754b775031405e096442b27febffa290]
link PersistenceContext to RepositoryFactory--><g id="link_PersistenceContext_RepositoryFactory"><path codeLine="50" d="M999.5,385.164 C999.5,403.034 999.5,423.035 999.5,439.71 " fill="none" id="PersistenceContext-to-RepositoryFactory" style="stroke:#181818;stroke-width:1.0;"/><polygon fill="#181818" points="999.5,444.772,1003.5,435.772,999.5,439.772,995.5,435.772,999.5,444.772" style="stroke:#181818;stroke-width:1.0;"/></g><!--MD5=[2e1a90eaefeac96a2bad013bfa8d5909]
link RepositoryFactory to AGVsRepository--><g id="link_RepositoryFactory_AGVsRepository"><path codeLine="51" d="M999.5,509.101 C999.5,525.736 999.5,546.311 999.5,563.6769 " fill="none" id="RepositoryFactory-to-AGVsRepository" style="stroke:#181818;stroke-width:1.0;"/><polygon fill="#181818" points="999.5,568.9554,1003.5,559.9554,999.5,563.9554,995.5,559.9554,999.5,568.9554" style="stroke:#181818;stroke-width:1.0;"/></g><!--MD5=[dfd73bd1dab8a007ee39c41c9d27b0b9]
link AGVsDashboardController to TcpClient--><g id="link_AGVsDashboardController_TcpClient"><path codeLine="53" d="M662.832,179.5 C672.668,179.5 682.503,179.5 692.339,179.5 " fill="none" id="AGVsDashboardController-to-TcpClient" style="stroke:#181818;stroke-width:1.0;"/><polygon fill="#181818" points="697.482,179.5,688.482,175.5,692.482,179.5,688.482,183.5,697.482,179.5" style="stroke:#181818;stroke-width:1.0;"/></g><!--MD5=[edea6f4efbd4c1c62837009f8dddfedb]
link TcpClient to Packet--><g id="link_TcpClient_Packet"><path codeLine="54" d="M827.768,179.5 C837.592,179.5 847.417,179.5 857.242,179.5 " fill="none" id="TcpClient-to-Packet" style="stroke:#181818;stroke-width:1.0;"/><polygon fill="#181818" points="862.38,179.5,853.38,175.5,857.38,179.5,853.38,183.5,862.38,179.5" style="stroke:#181818;stroke-width:1.0;"/></g><!--MD5=[307fca45c7a33fda91722d446e53119f]
link Packet to TcpServerAGVManager--><g id="link_Packet_TcpServerAGVManager"><path codeLine="55" d="M944.516,179.5 C954.395,179.5 964.274,179.5 974.154,179.5 " fill="none" id="Packet-to-TcpServerAGVManager" style="stroke:#181818;stroke-width:1.0;"/><polygon fill="#181818" points="979.32,179.5,970.32,175.5,974.32,179.5,970.32,183.5,979.32,179.5" style="stroke:#181818;stroke-width:1.0;"/></g><!--MD5=[48c0ebd3bae70babeca7132fd24f0e6e]
link HTTPServerAjaxVoting to HTTPAjaxVotingRequest--><g id="link_HTTPServerAjaxVoting_HTTPAjaxVotingRequest"><path codeLine="56" d="M435.805,336.5 C445.652,336.5 455.5,336.5 465.348,336.5 " fill="none" id="HTTPServerAjaxVoting-to-HTTPAjaxVotingRequest" style="stroke:#181818;stroke-width:1.0;"/><polygon fill="#181818" points="470.497,336.5,461.497,332.5,465.497,336.5,461.497,340.5,470.497,336.5" style="stroke:#181818;stroke-width:1.0;"/></g><!--MD5=[32f816d57bd940010006ca65d668a6d2]
link HTTPServerAjaxVoting to Socket--><g id="link_HTTPServerAjaxVoting_Socket"><path codeLine="57" d="M338.5,368.582 C338.5,392.309 338.5,424.73 338.5,447.73 " fill="none" id="HTTPServerAjaxVoting-to-Socket" style="stroke:#181818;stroke-width:1.0;"/><polygon fill="#181818" points="338.5,452.779,342.5,443.779,338.5,447.779,334.5,443.779,338.5,452.779" style="stroke:#181818;stroke-width:1.0;"/></g><!--MD5=[171700a11b0ab68f6074f4d23fd24f74]
link HTTPAjaxVotingRequest to DataOutputStream--><g id="link_HTTPAjaxVotingRequest_DataOutputStream"><path codeLine="58" d="M565.421,368.582 C559.254,392.309 550.827,424.73 544.848,447.73 " fill="none" id="HTTPAjaxVotingRequest-to-DataOutputStream" style="stroke:#181818;stroke-width:1.0;"/><polygon fill="#181818" points="543.536,452.779,549.6707,445.0741,544.7933,447.9397,541.9277,443.0623,543.536,452.779" style="stroke:#181818;stroke-width:1.0;"/></g><!--MD5=[643c2aa1a3bba506357c34e43bf928e9]
link HTTPAjaxVotingRequest to DataInputStream--><g id="link_HTTPAjaxVotingRequest_DataInputStream"><path codeLine="59" d="M610.08,368.582 C638.798,392.983 678.337,426.579 705.509,449.667 " fill="none" id="HTTPAjaxVotingRequest-to-DataInputStream" style="stroke:#181818;stroke-width:1.0;"/><polygon fill="#181818" points="709.426,452.995,705.1592,444.1184,705.6163,449.7567,699.978,450.2138,709.426,452.995" style="stroke:#181818;stroke-width:1.0;"/></g><!--MD5=[76db5136d15262031131a659faa3a5ec]
link HTTPAjaxVotingRequest to HTTPMessage--><g id="link_HTTPAjaxVotingRequest_HTTPMessage"><path codeLine="60" d="M676.902,336.5 C686.686,336.5 696.469,336.5 706.253,336.5 " fill="none" id="HTTPAjaxVotingRequest-to-HTTPMessage" style="stroke:#181818;stroke-width:1.0;"/><polygon fill="#181818" points="711.369,336.5,702.369,332.5,706.369,336.5,702.369,340.5,711.369,336.5" style="stroke:#181818;stroke-width:1.0;"/></g><!--MD5=[2a3d129da85296860d114fe138623de4]
link AGVDashboardInfoDTO to HTTPServerAjaxVoting--><g id="link_AGVDashboardInfoDTO_HTTPServerAjaxVoting"><path codeLine="61" d="M206.188,336.5 C216.164,336.5 226.14,336.5 236.116,336.5 " fill="none" id="AGVDashboardInfoDTO-to-HTTPServerAjaxVoting" style="stroke:#181818;stroke-width:1.0;"/><polygon fill="#181818" points="241.333,336.5,232.333,332.5,236.333,336.5,232.333,340.5,241.333,336.5" style="stroke:#181818;stroke-width:1.0;"/></g><!--MD5=[b518975816e0d01439c6c3515b5ce247]
@startuml
skinparam classAttributeIconSize 0

Class "AGVsDashboardUI"{
+doShow()
}

Class "AGVsDashboardController"{
+showDashboard();
+agvsInfo();
+agvState();
}

class PersistenceContext {
-Logger LOGGER
-RepositoryFactory theFactory
+repositories()
}

class RepositoryFactory{
+agvs()
}

class AGVsRepository{
+findAll();
}

class HTTPServerAjaxVoting{
+start();
}
class HTTPMessage{
+HTTPMessage();
}
class HTTPAjaxVotingRequest{
+run();
}

class AGVDashboardInfoDTO {
-String Description
-String Status
-String Position
}

class TcpClient {
+getAgvState();
}

AGVsDashboardUI ..> AGVsDashboardController
AGVsDashboardController -d-> AGVDashboardInfoDTO
AGVsDashboardController -d-> PersistenceContext
PersistenceContext -d-> RepositoryFactory
RepositoryFactory -d-> AGVsRepository

AGVsDashboardController -> TcpClient 
TcpClient -> Packet
Packet -> TcpServerAGVManager
HTTPServerAjaxVoting -> HTTPAjaxVotingRequest
HTTPServerAjaxVoting -d-> Socket
HTTPAjaxVotingRequest -d-> DataOutputStream
HTTPAjaxVotingRequest -d-> DataInputStream
HTTPAjaxVotingRequest -> HTTPMessage
AGVDashboardInfoDTO -> HTTPServerAjaxVoting
@enduml

PlantUML version 1.2022.6beta4(Unknown compile time)
(GPL source distribution)
Java Runtime: Java(TM) SE Runtime Environment
JVM: Java HotSpot(TM) 64-Bit Server VM
Default Encoding: UTF-8
Language: en
Country: US
--></g></svg>