<?xml version="1.0" encoding="UTF-8" standalone="no"?><svg xmlns="http://www.w3.org/2000/svg" xmlns:xlink="http://www.w3.org/1999/xlink" contentStyleType="text/css" height="1174px" preserveAspectRatio="none" style="width:2446px;height:1174px;background:#FFFFFF;" version="1.1" viewBox="0 0 2446 1174" width="2446px" zoomAndPan="magnify"><defs/><g><rect height="26.2969" style="stroke:#00000000;stroke-width:1.0;fill:none;" width="109" x="1167.75" y="10"/><text fill="#000000" font-family="sans-serif" font-size="14" font-weight="bold" lengthAdjust="spacing" textLength="99" x="1172.75" y="27.9951">DASHBOARD</text><rect fill="#FFFFFF" height="998.4531" style="stroke:#181818;stroke-width:1.0;" width="10" x="69" y="99.8906"/><rect fill="#FFFFFF" height="942.1875" style="stroke:#181818;stroke-width:1.0;" width="10" x="215" y="121.0234"/><rect fill="#FFFFFF" height="563.9922" style="stroke:#181818;stroke-width:1.0;" width="10" x="423" y="150.1563"/><rect fill="#FFFFFF" height="101.2656" style="stroke:#181818;stroke-width:1.0;" width="10" x="423" y="932.8125"/><rect fill="#FFFFFF" height="30" style="stroke:#181818;stroke-width:1.0;" width="10" x="582" y="208.4219"/><rect fill="#FFFFFF" height="328.9297" style="stroke:#181818;stroke-width:1.0;" width="10" x="919" y="275.5547"/><rect fill="#FFFFFF" height="30" style="stroke:#181818;stroke-width:1.0;" width="10" x="1312" y="367.9531"/><rect fill="#FFFFFF" height="30" style="stroke:#181818;stroke-width:1.0;" width="10" x="1472.5" y="427.0859"/><rect fill="#FFFFFF" height="30" style="stroke:#181818;stroke-width:1.0;" width="10" x="1613" y="486.2188"/><rect fill="#FFFFFF" height="30" style="stroke:#181818;stroke-width:1.0;" width="10" x="1740" y="545.3516"/><rect fill="#FFFFFF" height="219.5313" style="stroke:#181818;stroke-width:1.0;" width="10" x="1853" y="743.2813"/><rect fill="#FFFFFF" height="30" style="stroke:#181818;stroke-width:1.0;" width="10" x="2003" y="814.5469"/><rect fill="#FFFFFF" height="30" style="stroke:#181818;stroke-width:1.0;" width="10" x="2140" y="873.6797"/><line style="stroke:#181818;stroke-width:0.5;stroke-dasharray:5.0,5.0;" x1="74" x2="74" y1="89.8906" y2="1123.3438"/><line style="stroke:#181818;stroke-width:0.5;stroke-dasharray:5.0,5.0;" x1="220" x2="220" y1="89.8906" y2="1123.3438"/><line style="stroke:#181818;stroke-width:0.5;stroke-dasharray:5.0,5.0;" x1="427.5" x2="427.5" y1="89.8906" y2="1123.3438"/><line style="stroke:#181818;stroke-width:0.5;stroke-dasharray:5.0,5.0;" x1="586.5" x2="586.5" y1="89.8906" y2="1123.3438"/><line style="stroke:#181818;stroke-width:0.5;stroke-dasharray:5.0,5.0;" x1="923.5" x2="923.5" y1="89.8906" y2="1123.3438"/><line style="stroke:#181818;stroke-width:0.5;stroke-dasharray:5.0,5.0;" x1="1316.5" x2="1316.5" y1="89.8906" y2="1123.3438"/><line style="stroke:#181818;stroke-width:0.5;stroke-dasharray:5.0,5.0;" x1="1477.5" x2="1477.5" y1="89.8906" y2="1123.3438"/><line style="stroke:#181818;stroke-width:0.5;stroke-dasharray:5.0,5.0;" x1="1617.5" x2="1617.5" y1="89.8906" y2="1123.3438"/><line style="stroke:#181818;stroke-width:0.5;stroke-dasharray:5.0,5.0;" x1="1744.5" x2="1744.5" y1="89.8906" y2="1123.3438"/><line style="stroke:#181818;stroke-width:0.5;stroke-dasharray:5.0,5.0;" x1="1857.5" x2="1857.5" y1="89.8906" y2="1123.3438"/><line style="stroke:#181818;stroke-width:0.5;stroke-dasharray:5.0,5.0;" x1="2007.5" x2="2007.5" y1="89.8906" y2="1123.3438"/><line style="stroke:#181818;stroke-width:0.5;stroke-dasharray:5.0,5.0;" x1="2144.5" x2="2144.5" y1="89.8906" y2="1123.3438"/><line style="stroke:#181818;stroke-width:0.5;stroke-dasharray:5.0,5.0;" x1="2343.5" x2="2343.5" y1="89.8906" y2="1123.3438"/><rect fill="#E2E2F0" height="30.2969" rx="2.5" ry="2.5" style="stroke:#181818;stroke-width:0.5;" width="138" x="5" y="58.5938"/><text fill="#000000" font-family="sans-serif" font-size="14" lengthAdjust="spacing" textLength="124" x="12" y="78.5889">:AGVsDasboardUI</text><rect fill="#E2E2F0" height="30.2969" rx="2.5" ry="2.5" style="stroke:#181818;stroke-width:0.5;" width="138" x="5" y="1122.3438"/><text fill="#000000" font-family="sans-serif" font-size="14" lengthAdjust="spacing" textLength="124" x="12" y="1142.3389">:AGVsDasboardUI</text><rect fill="#E2E2F0" height="46.5938" rx="2.5" ry="2.5" style="stroke:#181818;stroke-width:0.5;" width="134" x="153" y="42.2969"/><text fill="#000000" font-family="sans-serif" font-size="14" lengthAdjust="spacing" textLength="120" x="160" y="62.292">:AGVsDashboard</text><text fill="#000000" font-family="sans-serif" font-size="14" lengthAdjust="spacing" textLength="73" x="183.5" y="78.5889">Controller</text><rect fill="#E2E2F0" height="46.5938" rx="2.5" ry="2.5" style="stroke:#181818;stroke-width:0.5;" width="134" x="153" y="1122.3438"/><text fill="#000000" font-family="sans-serif" font-size="14" lengthAdjust="spacing" textLength="120" x="160" y="1142.3389">:AGVsDashboard</text><text fill="#000000" font-family="sans-serif" font-size="14" lengthAdjust="spacing" textLength="73" x="183.5" y="1158.6357">Controller</text><rect fill="#E2E2F0" height="46.5938" rx="2.5" ry="2.5" style="stroke:#181818;stroke-width:0.5;" width="181" x="337.5" y="42.2969"/><text fill="#000000" font-family="sans-serif" font-size="14" lengthAdjust="spacing" textLength="45" x="405.5" y="62.292">server</text><text fill="#000000" font-family="sans-serif" font-size="14" lengthAdjust="spacing" textLength="167" x="344.5" y="78.5889">:HTTPServerAjaxVoting</text><rect fill="#E2E2F0" height="46.5938" rx="2.5" ry="2.5" style="stroke:#181818;stroke-width:0.5;" width="181" x="337.5" y="1122.3438"/><text fill="#000000" font-family="sans-serif" font-size="14" lengthAdjust="spacing" textLength="45" x="405.5" y="1142.3389">server</text><text fill="#000000" font-family="sans-serif" font-size="14" lengthAdjust="spacing" textLength="167" x="344.5" y="1158.6357">:HTTPServerAjaxVoting</text><rect fill="#E2E2F0" height="46.5938" rx="2.5" ry="2.5" style="stroke:#181818;stroke-width:0.5;" width="117" x="528.5" y="42.2969"/><text fill="#000000" font-family="sans-serif" font-size="14" lengthAdjust="spacing" textLength="38" x="568" y="62.292">sock:</text><text fill="#000000" font-family="sans-serif" font-size="14" lengthAdjust="spacing" textLength="103" x="535.5" y="78.5889">:ServerSocket</text><rect fill="#E2E2F0" height="46.5938" rx="2.5" ry="2.5" style="stroke:#181818;stroke-width:0.5;" width="117" x="528.5" y="1122.3438"/><text fill="#000000" font-family="sans-serif" font-size="14" lengthAdjust="spacing" textLength="38" x="568" y="1142.3389">sock:</text><text fill="#000000" font-family="sans-serif" font-size="14" lengthAdjust="spacing" textLength="103" x="535.5" y="1158.6357">:ServerSocket</text><rect fill="#E2E2F0" height="46.5938" rx="2.5" ry="2.5" style="stroke:#181818;stroke-width:0.5;" width="193" x="827.5" y="42.2969"/><text fill="#000000" font-family="sans-serif" font-size="14" lengthAdjust="spacing" textLength="24" x="912" y="62.292">req</text><text fill="#000000" font-family="sans-serif" font-size="14" lengthAdjust="spacing" textLength="179" x="834.5" y="78.5889">:HTTPAjaxVotingRequest</text><rect fill="#E2E2F0" height="46.5938" rx="2.5" ry="2.5" style="stroke:#181818;stroke-width:0.5;" width="193" x="827.5" y="1122.3438"/><text fill="#000000" font-family="sans-serif" font-size="14" lengthAdjust="spacing" textLength="24" x="912" y="1142.3389">req</text><text fill="#000000" font-family="sans-serif" font-size="14" lengthAdjust="spacing" textLength="179" x="834.5" y="1158.6357">:HTTPAjaxVotingRequest</text><rect fill="#E2E2F0" height="46.5938" rx="2.5" ry="2.5" style="stroke:#181818;stroke-width:0.5;" width="157" x="1238.5" y="42.2969"/><text fill="#000000" font-family="sans-serif" font-size="14" lengthAdjust="spacing" textLength="33" x="1300.5" y="62.292">outS</text><text fill="#000000" font-family="sans-serif" font-size="14" lengthAdjust="spacing" textLength="143" x="1245.5" y="78.5889">:DataOutputStream</text><rect fill="#E2E2F0" height="46.5938" rx="2.5" ry="2.5" style="stroke:#181818;stroke-width:0.5;" width="157" x="1238.5" y="1122.3438"/><text fill="#000000" font-family="sans-serif" font-size="14" lengthAdjust="spacing" textLength="33" x="1300.5" y="1142.3389">outS</text><text fill="#000000" font-family="sans-serif" font-size="14" lengthAdjust="spacing" textLength="143" x="1245.5" y="1158.6357">:DataOutputStream</text><rect fill="#E2E2F0" height="46.5938" rx="2.5" ry="2.5" style="stroke:#181818;stroke-width:0.5;" width="144" x="1405.5" y="42.2969"/><text fill="#000000" font-family="sans-serif" font-size="14" lengthAdjust="spacing" textLength="22" x="1466.5" y="62.292">inS</text><text fill="#000000" font-family="sans-serif" font-size="14" lengthAdjust="spacing" textLength="130" x="1412.5" y="78.5889">:DataInputStream</text><rect fill="#E2E2F0" height="46.5938" rx="2.5" ry="2.5" style="stroke:#181818;stroke-width:0.5;" width="144" x="1405.5" y="1122.3438"/><text fill="#000000" font-family="sans-serif" font-size="14" lengthAdjust="spacing" textLength="22" x="1466.5" y="1142.3389">inS</text><text fill="#000000" font-family="sans-serif" font-size="14" lengthAdjust="spacing" textLength="130" x="1412.5" y="1158.6357">:DataInputStream</text><rect fill="#E2E2F0" height="46.5938" rx="2.5" ry="2.5" style="stroke:#181818;stroke-width:0.5;" width="117" x="1559.5" y="42.2969"/><text fill="#000000" font-family="sans-serif" font-size="14" lengthAdjust="spacing" textLength="55" x="1590.5" y="62.292">request</text><text fill="#000000" font-family="sans-serif" font-size="14" lengthAdjust="spacing" textLength="103" x="1566.5" y="78.5889">:HTTPMessage</text><rect fill="#E2E2F0" height="46.5938" rx="2.5" ry="2.5" style="stroke:#181818;stroke-width:0.5;" width="117" x="1559.5" y="1122.3438"/><text fill="#000000" font-family="sans-serif" font-size="14" lengthAdjust="spacing" textLength="55" x="1590.5" y="1142.3389">request</text><text fill="#000000" font-family="sans-serif" font-size="14" lengthAdjust="spacing" textLength="103" x="1566.5" y="1158.6357">:HTTPMessage</text><rect fill="#E2E2F0" height="46.5938" rx="2.5" ry="2.5" style="stroke:#181818;stroke-width:0.5;" width="117" x="1686.5" y="42.2969"/><text fill="#000000" font-family="sans-serif" font-size="14" lengthAdjust="spacing" textLength="66" x="1712" y="62.292">response</text><text fill="#000000" font-family="sans-serif" font-size="14" lengthAdjust="spacing" textLength="103" x="1693.5" y="78.5889">:HTTPMessage</text><rect fill="#E2E2F0" height="46.5938" rx="2.5" ry="2.5" style="stroke:#181818;stroke-width:0.5;" width="117" x="1686.5" y="1122.3438"/><text fill="#000000" font-family="sans-serif" font-size="14" lengthAdjust="spacing" textLength="66" x="1712" y="1142.3389">response</text><text fill="#000000" font-family="sans-serif" font-size="14" lengthAdjust="spacing" textLength="103" x="1693.5" y="1158.6357">:HTTPMessage</text><rect fill="#E2E2F0" height="46.5938" rx="2.5" ry="2.5" style="stroke:#181818;stroke-width:0.5;" width="89" x="1813.5" y="42.2969"/><text fill="#000000" font-family="sans-serif" font-size="14" lengthAdjust="spacing" textLength="25" x="1845.5" y="62.292">tcp</text><text fill="#000000" font-family="sans-serif" font-size="14" lengthAdjust="spacing" textLength="75" x="1820.5" y="78.5889">:TcpClient</text><rect fill="#E2E2F0" height="46.5938" rx="2.5" ry="2.5" style="stroke:#181818;stroke-width:0.5;" width="89" x="1813.5" y="1122.3438"/><text fill="#000000" font-family="sans-serif" font-size="14" lengthAdjust="spacing" textLength="25" x="1845.5" y="1142.3389">tcp</text><text fill="#000000" font-family="sans-serif" font-size="14" lengthAdjust="spacing" textLength="75" x="1820.5" y="1158.6357">:TcpClient</text><rect fill="#E2E2F0" height="46.5938" rx="2.5" ry="2.5" style="stroke:#181818;stroke-width:0.5;" width="69" x="1973.5" y="42.2969"/><text fill="#000000" font-family="sans-serif" font-size="14" lengthAdjust="spacing" textLength="51" x="1982.5" y="62.292">packet</text><text fill="#000000" font-family="sans-serif" font-size="14" lengthAdjust="spacing" textLength="55" x="1980.5" y="78.5889">:Packet</text><rect fill="#E2E2F0" height="46.5938" rx="2.5" ry="2.5" style="stroke:#181818;stroke-width:0.5;" width="69" x="1973.5" y="1122.3438"/><text fill="#000000" font-family="sans-serif" font-size="14" lengthAdjust="spacing" textLength="51" x="1982.5" y="1142.3389">packet</text><text fill="#000000" font-family="sans-serif" font-size="14" lengthAdjust="spacing" textLength="55" x="1980.5" y="1158.6357">:Packet</text><rect fill="#E2E2F0" height="46.5938" rx="2.5" ry="2.5" style="stroke:#181818;stroke-width:0.5;" width="185" x="2052.5" y="42.2969"/><text fill="#000000" font-family="sans-serif" font-size="14" lengthAdjust="spacing" textLength="86" x="2102" y="62.292">agvManager</text><text fill="#000000" font-family="sans-serif" font-size="14" lengthAdjust="spacing" textLength="171" x="2059.5" y="78.5889">:TcpServerAGVManager</text><rect fill="#E2E2F0" height="46.5938" rx="2.5" ry="2.5" style="stroke:#181818;stroke-width:0.5;" width="185" x="2052.5" y="1122.3438"/><text fill="#000000" font-family="sans-serif" font-size="14" lengthAdjust="spacing" textLength="86" x="2102" y="1142.3389">agvManager</text><text fill="#000000" font-family="sans-serif" font-size="14" lengthAdjust="spacing" textLength="171" x="2059.5" y="1158.6357">:TcpServerAGVManager</text><rect fill="#E2E2F0" height="30.2969" rx="2.5" ry="2.5" style="stroke:#181818;stroke-width:0.5;" width="193" x="2247.5" y="58.5938"/><text fill="#000000" font-family="sans-serif" font-size="14" lengthAdjust="spacing" textLength="179" x="2254.5" y="78.5889">:AGVsDashboardInfoDTO</text><rect fill="#E2E2F0" height="30.2969" rx="2.5" ry="2.5" style="stroke:#181818;stroke-width:0.5;" width="193" x="2247.5" y="1122.3438"/><text fill="#000000" font-family="sans-serif" font-size="14" lengthAdjust="spacing" textLength="179" x="2254.5" y="1142.3389">:AGVsDashboardInfoDTO</text><rect fill="#FFFFFF" height="998.4531" style="stroke:#181818;stroke-width:1.0;" width="10" x="69" y="99.8906"/><rect fill="#FFFFFF" height="942.1875" style="stroke:#181818;stroke-width:1.0;" width="10" x="215" y="121.0234"/><rect fill="#FFFFFF" height="563.9922" style="stroke:#181818;stroke-width:1.0;" width="10" x="423" y="150.1563"/><rect fill="#FFFFFF" height="101.2656" style="stroke:#181818;stroke-width:1.0;" width="10" x="423" y="932.8125"/><rect fill="#FFFFFF" height="30" style="stroke:#181818;stroke-width:1.0;" width="10" x="582" y="208.4219"/><rect fill="#FFFFFF" height="328.9297" style="stroke:#181818;stroke-width:1.0;" width="10" x="919" y="275.5547"/><rect fill="#FFFFFF" height="30" style="stroke:#181818;stroke-width:1.0;" width="10" x="1312" y="367.9531"/><rect fill="#FFFFFF" height="30" style="stroke:#181818;stroke-width:1.0;" width="10" x="1472.5" y="427.0859"/><rect fill="#FFFFFF" height="30" style="stroke:#181818;stroke-width:1.0;" width="10" x="1613" y="486.2188"/><rect fill="#FFFFFF" height="30" style="stroke:#181818;stroke-width:1.0;" width="10" x="1740" y="545.3516"/><rect fill="#FFFFFF" height="219.5313" style="stroke:#181818;stroke-width:1.0;" width="10" x="1853" y="743.2813"/><rect fill="#FFFFFF" height="30" style="stroke:#181818;stroke-width:1.0;" width="10" x="2003" y="814.5469"/><rect fill="#FFFFFF" height="30" style="stroke:#181818;stroke-width:1.0;" width="10" x="2140" y="873.6797"/><polygon fill="#181818" points="203,117.0234,213,121.0234,203,125.0234,207,121.0234" style="stroke:#181818;stroke-width:1.0;"/><line style="stroke:#181818;stroke-width:1.0;" x1="79" x2="209" y1="121.0234" y2="121.0234"/><text fill="#000000" font-family="sans-serif" font-size="13" lengthAdjust="spacing" textLength="114" x="86" y="115.9575">showDashboard()</text><polygon fill="#181818" points="411,146.1563,421,150.1563,411,154.1563,415,150.1563" style="stroke:#181818;stroke-width:1.0;"/><line style="stroke:#181818;stroke-width:1.0;" x1="225" x2="417" y1="150.1563" y2="150.1563"/><text fill="#000000" font-family="sans-serif" font-size="13" lengthAdjust="spacing" textLength="179" x="232" y="145.0903">new HttpServerAjaxVoting()</text><polygon fill="#181818" points="411,175.2891,421,179.2891,411,183.2891,415,179.2891" style="stroke:#181818;stroke-width:1.0;"/><line style="stroke:#181818;stroke-width:1.0;" x1="225" x2="417" y1="179.2891" y2="179.2891"/><text fill="#000000" font-family="sans-serif" font-size="13" lengthAdjust="spacing" textLength="85" x="232" y="174.2231">server.start()</text><polygon fill="#181818" points="570,204.4219,580,208.4219,570,212.4219,574,208.4219" style="stroke:#181818;stroke-width:1.0;"/><line style="stroke:#181818;stroke-width:1.0;" x1="433" x2="576" y1="208.4219" y2="208.4219"/><text fill="#000000" font-family="sans-serif" font-size="13" lengthAdjust="spacing" textLength="116" x="440" y="203.356">new Socket(8080)</text><line style="stroke:#181818;stroke-width:1.0;" x1="433" x2="480" y1="262.5547" y2="262.5547"/><line style="stroke:#181818;stroke-width:1.0;" x1="480" x2="480" y1="262.5547" y2="275.5547"/><line style="stroke:#181818;stroke-width:1.0;" x1="439" x2="480" y1="275.5547" y2="275.5547"/><polygon fill="#181818" points="449,271.5547,439,275.5547,449,279.5547,445,275.5547" style="stroke:#181818;stroke-width:1.0;"/><text fill="#000000" font-family="sans-serif" font-size="13" lengthAdjust="spacing" textLength="86" x="445" y="257.4888">sock.accept()</text><polygon fill="#181818" points="907,305.6875,917,309.6875,907,313.6875,911,309.6875" style="stroke:#181818;stroke-width:1.0;"/><line style="stroke:#181818;stroke-width:1.0;" x1="433" x2="913" y1="309.6875" y2="309.6875"/><text fill="#000000" font-family="sans-serif" font-size="13" lengthAdjust="spacing" textLength="294" x="440" y="304.6216">new HttpAjaxServerRequest(sock,baseFolder)</text><polygon fill="#181818" points="907,334.8203,917,338.8203,907,342.8203,911,338.8203" style="stroke:#181818;stroke-width:1.0;"/><line style="stroke:#181818;stroke-width:1.0;" x1="433" x2="913" y1="338.8203" y2="338.8203"/><text fill="#000000" font-family="sans-serif" font-size="13" lengthAdjust="spacing" textLength="65" x="440" y="333.7544">req.start()</text><polygon fill="#181818" points="1300,363.9531,1310,367.9531,1300,371.9531,1304,367.9531" style="stroke:#181818;stroke-width:1.0;"/><line style="stroke:#181818;stroke-width:1.0;" x1="929" x2="1306" y1="367.9531" y2="367.9531"/><text fill="#000000" font-family="sans-serif" font-size="13" lengthAdjust="spacing" textLength="364" x="936" y="362.8872">outs = new DataOutputStream(sock.getOutputStream())</text><polygon fill="#181818" points="1460.5,423.0859,1470.5,427.0859,1460.5,431.0859,1464.5,427.0859" style="stroke:#181818;stroke-width:1.0;"/><line style="stroke:#181818;stroke-width:1.0;" x1="929" x2="1466.5" y1="427.0859" y2="427.0859"/><text fill="#000000" font-family="sans-serif" font-size="13" lengthAdjust="spacing" textLength="331" x="936" y="422.02">inS = new DataInputStream(sock.getInputStream())</text><polygon fill="#181818" points="1601,482.2188,1611,486.2188,1601,490.2188,1605,486.2188" style="stroke:#181818;stroke-width:1.0;"/><line style="stroke:#181818;stroke-width:1.0;" x1="929" x2="1607" y1="486.2188" y2="486.2188"/><text fill="#000000" font-family="sans-serif" font-size="13" lengthAdjust="spacing" textLength="154" x="936" y="481.1528">new HTTPMessage(inS);</text><polygon fill="#181818" points="1728,541.3516,1738,545.3516,1728,549.3516,1732,545.3516" style="stroke:#181818;stroke-width:1.0;"/><line style="stroke:#181818;stroke-width:1.0;" x1="929" x2="1734" y1="545.3516" y2="545.3516"/><text fill="#000000" font-family="sans-serif" font-size="13" lengthAdjust="spacing" textLength="138" x="936" y="540.2856">new HTTPmessage();</text><polygon fill="#181818" points="444,600.4844,434,604.4844,444,608.4844,440,604.4844" style="stroke:#181818;stroke-width:1.0;"/><line style="stroke:#181818;stroke-width:1.0;" x1="438" x2="923" y1="604.4844" y2="604.4844"/><text fill="#000000" font-family="sans-serif" font-size="13" lengthAdjust="spacing" textLength="462" x="450" y="599.4185">response.setContentFromString(refreshAGVsDashboardInfo,"text/html")</text><polygon fill="#181818" points="236,655.3164,226,659.3164,236,663.3164,232,659.3164" style="stroke:#181818;stroke-width:1.0;"/><line style="stroke:#181818;stroke-width:1.0;" x1="230" x2="422" y1="659.3164" y2="659.3164"/><text fill="#000000" font-family="sans-serif" font-size="13" lengthAdjust="spacing" textLength="56" x="242" y="654.2505">infoAgvs</text><path d="M81,617.4844 L81,687.4844 L210,687.4844 L210,627.4844 L200,617.4844 L81,617.4844 " fill="#FEFFDD" style="stroke:#181818;stroke-width:0.5;"/><path d="M200,617.4844 L200,627.4844 L210,627.4844 L200,617.4844 " fill="#FEFFDD" style="stroke:#181818;stroke-width:0.5;"/><text fill="#000000" font-family="sans-serif" font-size="13" lengthAdjust="spacing" textLength="83" x="87" y="634.5513">from db I get</text><text fill="#000000" font-family="sans-serif" font-size="13" lengthAdjust="spacing" textLength="105" x="87" y="649.6841">Agvs Positions...</text><text fill="#000000" font-family="sans-serif" font-size="13" lengthAdjust="spacing" textLength="108" x="87" y="664.8169">(not represented</text><text fill="#000000" font-family="sans-serif" font-size="13" lengthAdjust="spacing" textLength="98" x="91" y="679.9497">in this scheme)</text><polygon fill="#181818" points="236,710.1484,226,714.1484,236,718.1484,232,714.1484" style="stroke:#181818;stroke-width:1.0;"/><line style="stroke:#181818;stroke-width:1.0;" x1="230" x2="427" y1="714.1484" y2="714.1484"/><text fill="#000000" font-family="sans-serif" font-size="13" lengthAdjust="spacing" textLength="101" x="242" y="709.0825">getAgvState(id)</text><polygon fill="#181818" points="1841,739.2813,1851,743.2813,1841,747.2813,1845,743.2813" style="stroke:#181818;stroke-width:1.0;"/><line style="stroke:#181818;stroke-width:1.0;" x1="225" x2="1847" y1="743.2813" y2="743.2813"/><text fill="#000000" font-family="sans-serif" font-size="13" lengthAdjust="spacing" textLength="162" x="232" y="738.2153">new TcpClient.main(ip,id)</text><line style="stroke:#181818;stroke-width:1.0;" x1="1863" x2="1905" y1="772.4141" y2="772.4141"/><line style="stroke:#181818;stroke-width:1.0;" x1="1905" x2="1905" y1="772.4141" y2="785.4141"/><line style="stroke:#181818;stroke-width:1.0;" x1="1864" x2="1905" y1="785.4141" y2="785.4141"/><polygon fill="#181818" points="1874,781.4141,1864,785.4141,1874,789.4141,1870,785.4141" style="stroke:#181818;stroke-width:1.0;"/><text fill="#000000" font-family="sans-serif" font-size="13" lengthAdjust="spacing" textLength="101" x="1870" y="767.3481">getAgvState(id)</text><polygon fill="#181818" points="1991,810.5469,2001,814.5469,1991,818.5469,1995,814.5469" style="stroke:#181818;stroke-width:1.0;"/><line style="stroke:#181818;stroke-width:1.0;" x1="1863" x2="1997" y1="814.5469" y2="814.5469"/><text fill="#000000" font-family="sans-serif" font-size="13" lengthAdjust="spacing" textLength="121" x="1870" y="809.481">new Packet(0,5,ID)</text><polygon fill="#181818" points="2128,869.6797,2138,873.6797,2128,877.6797,2132,873.6797" style="stroke:#181818;stroke-width:1.0;"/><line style="stroke:#181818;stroke-width:1.0;" x1="1863" x2="2134" y1="873.6797" y2="873.6797"/><text fill="#000000" font-family="sans-serif" font-size="13" lengthAdjust="spacing" textLength="12" x="1870" y="868.6138">...</text><polygon fill="#181818" points="444,928.8125,434,932.8125,444,936.8125,440,932.8125" style="stroke:#181818;stroke-width:1.0;"/><line style="stroke:#181818;stroke-width:1.0;" x1="438" x2="1852" y1="932.8125" y2="932.8125"/><text fill="#000000" font-family="sans-serif" font-size="13" lengthAdjust="spacing" textLength="33" x="450" y="927.7466">state</text><line style="stroke:#181818;stroke-width:1.0;" x1="433" x2="475" y1="991.9453" y2="991.9453"/><line style="stroke:#181818;stroke-width:1.0;" x1="475" x2="475" y1="991.9453" y2="1004.9453"/><line style="stroke:#181818;stroke-width:1.0;" x1="434" x2="475" y1="1004.9453" y2="1004.9453"/><polygon fill="#181818" points="444,1000.9453,434,1004.9453,444,1008.9453,440,1004.9453" style="stroke:#181818;stroke-width:1.0;"/><text fill="#000000" font-family="sans-serif" font-size="13" lengthAdjust="spacing" textLength="76" x="440" y="986.8794">sock.close()</text><polygon fill="#181818" points="236,1030.0781,226,1034.0781,236,1038.0781,232,1034.0781" style="stroke:#181818;stroke-width:1.0;"/><line style="stroke:#181818;stroke-width:1.0;" x1="230" x2="427" y1="1034.0781" y2="1034.0781"/><text fill="#000000" font-family="sans-serif" font-size="13" lengthAdjust="spacing" textLength="51" x="242" y="1029.0122">success</text><polygon fill="#181818" points="90,1059.2109,80,1063.2109,90,1067.2109,86,1063.2109" style="stroke:#181818;stroke-width:1.0;"/><line style="stroke:#181818;stroke-width:1.0;" x1="84" x2="219" y1="1063.2109" y2="1063.2109"/><text fill="#000000" font-family="sans-serif" font-size="13" lengthAdjust="spacing" textLength="51" x="96" y="1058.145">success</text><line style="stroke:#181818;stroke-width:1.0;" x1="79" x2="121" y1="1097.3438" y2="1097.3438"/><line style="stroke:#181818;stroke-width:1.0;" x1="121" x2="121" y1="1097.3438" y2="1110.3438"/><line style="stroke:#181818;stroke-width:1.0;" x1="74" x2="121" y1="1110.3438" y2="1110.3438"/><polygon fill="#181818" points="84,1106.3438,74,1110.3438,84,1114.3438,80,1110.3438" style="stroke:#181818;stroke-width:1.0;"/><text fill="#000000" font-family="sans-serif" font-size="13" lengthAdjust="spacing" textLength="83" x="86" y="1092.2778">open browse</text><!--MD5=[425128c873fa4287fe1817fa3145f34e]
@startuml
title DASHBOARD

participant ":AGVsDasboardUI" as UI
participant ":AGVsDashboard\nController" as CTRL
participant "server\n:HTTPServerAjaxVoting" as VOT
participant "sock:\n:ServerSocket" as SOCKET
participant "req\n:HTTPAjaxVotingRequest" as REQ
participant "outS\n:DataOutputStream" as DOS
participant "inS\n:DataInputStream" as DIS
participant "request\n:HTTPMessage" as MES1
participant "response\n:HTTPMessage" as MES2
participant "tcp\n:TcpClient" as TCP
participant "packet\n:Packet" as PAC
participant "agvManager\n:TcpServerAGVManager" as AGVM
participant ":AGVsDashboardInfoDTO" as DTO

activate UI
UI -> CTRL : showDashboard()

activate CTRL
CTRL -> VOT : new HttpServerAjaxVoting()
activate VOT
CTRL -> VOT :  server.start()

VOT -> SOCKET : new Socket(8080)
activate SOCKET
deactivate SOCKET
VOT -> VOT : sock.accept()
activate REQ
VOT -> REQ : new HttpAjaxServerRequest(sock,baseFolder)
VOT -> REQ : req.start()


REQ -> DOS : outs = new DataOutputStream(sock.getOutputStream())
activate DOS
deactivate DOS
REQ -> DIS : inS = new DataInputStream(sock.getInputStream())
activate DIS
deactivate DIS
REQ -> MES1 : new HTTPMessage(inS);
activate MES1
deactivate MES1
REQ -> MES2 : new HTTPmessage();
activate MES2
deactivate MES2
REQ -> VOT : response.setContentFromString(refreshAGVsDashboardInfo,"text/html")
deactivate REQ
VOT -> CTRL : infoAgvs
note bottom: from db I get\nAgvs Positions...\n(not represented\n in this scheme)
VOT -> CTRL : getAgvState(id)
deactivate VOT
CTRL -> TCP : new TcpClient.main(ip,id)
activate TCP
TCP -> TCP: getAgvState(id)
TCP -> PAC: new Packet(0,5,ID)
activate PAC
deactivate PAC
TCP -> AGVM : ...
activate AGVM
deactivate AGVM

TCP -> VOT : state
activate VOT
deactivate TCP
VOT -> VOT : sock.close()
VOT -> CTRL : success
deactivate VOT
CTRL -> UI : success

deactivate CTRL
UI -> UI : open browse
deactivate UI
@enduml

PlantUML version 1.2022.6beta4(Unknown compile time)
(GPL source distribution)
Java Runtime: Java(TM) SE Runtime Environment
JVM: Java HotSpot(TM) 64-Bit Server VM
Default Encoding: UTF-8
Language: en
Country: US
--></g></svg>