<?xml version="1.0" encoding="UTF-8" standalone="no"?><svg xmlns="http://www.w3.org/2000/svg" xmlns:xlink="http://www.w3.org/1999/xlink" contentStyleType="text/css" height="360px" preserveAspectRatio="none" style="width:310px;height:360px;background:#FFFFFF;" version="1.1" viewBox="0 0 310 360" width="310.8px" zoomAndPan="magnify"><defs/><g><!--MD5=[f652abdb07939089d2a2a39499dfccec]
class AnswerToSurveyUI--><g id="elem_AnswerToSurveyUI"><rect codeLine="3" fill="#F1F1F1" height="19.2" id="AnswerToSurveyUI" rx="1" ry="1" style="stroke:#181818;stroke-width:0.20000000000000004;" width="60.4" x="178.8" y="2.8"/><ellipse cx="184.8" cy="9.2" fill="#ADD1B2" rx="4.4" ry="4.4" style="stroke:#181818;stroke-width:0.4000000000000001;"/><path d="M185.6,7.8 Q185.6813,7.6 185.775,7.5 Q185.8688,7.4 185.975,7.4 Q186.1625,7.4 186.2813,7.5125 Q186.4,7.625 186.4,7.8875 L186.4,8.5125 Q186.4,8.775 186.2875,8.8875 Q186.175,9 186,9 Q185.8438,9 185.7438,8.9313 Q185.6438,8.8625 185.6,8.6813 Q185.5813,8.5563 185.5125,8.4875 Q185.3875,8.3563 185.1625,8.2813 Q184.9375,8.2 184.7125,8.2 Q184.4313,8.2 184.1938,8.3125 Q183.9625,8.425 183.7813,8.675 Q183.6,8.925 183.6,9.2688 L183.6,9.6375 Q183.6,10.05 183.9375,10.325 Q184.275,10.6 184.875,10.6 Q185.2313,10.6 185.4813,10.5188 Q185.625,10.475 185.7875,10.3313 Q185.8938,10.25 185.95,10.225 Q186.0063,10.2 186.075,10.2 Q186.2063,10.2 186.3,10.3063 Q186.4,10.4063 186.4,10.55 Q186.4,10.6875 186.2625,10.85 Q186.0625,11.0875 185.7438,11.2188 Q185.325,11.4 184.8125,11.4 Q184.2125,11.4 183.7313,11.1625 Q183.3438,10.975 183.0688,10.5688 Q182.8,10.1625 182.8,9.6813 L182.8,9.2438 Q182.8,8.7438 183.0375,8.3063 Q183.2813,7.8688 183.7,7.6375 Q184.125,7.4 184.6,7.4 Q184.8875,7.4 185.1375,7.5 Q185.3875,7.6 185.6,7.8 Z " fill="#000000"/><text fill="#000000" font-family="sans-serif" font-size="5.6" lengthAdjust="spacing" textLength="47.6" x="190.4" y="11.4914">AnswerToSurveyUI</text><line style="stroke:#181818;stroke-width:0.20000000000000004;" x1="179.2" x2="238.8" y1="15.6" y2="15.6"/><line style="stroke:#181818;stroke-width:0.20000000000000004;" x1="179.2" x2="238.8" y1="18.8" y2="18.8"/></g><!--MD5=[1392191afe825be7452c7477a8df8301]
class SurveyController--><g id="elem_SurveyController"><rect codeLine="6" fill="#F1F1F1" height="47.375" id="SurveyController" rx="1" ry="1" style="stroke:#181818;stroke-width:0.20000000000000004;" width="92.8" x="162.6" y="46.4"/><ellipse cx="186.1" cy="52.8" fill="#ADD1B2" rx="4.4" ry="4.4" style="stroke:#181818;stroke-width:0.4000000000000001;"/><path d="M186.9,51.4 Q186.9813,51.2 187.075,51.1 Q187.1688,51 187.275,51 Q187.4625,51 187.5813,51.1125 Q187.7,51.225 187.7,51.4875 L187.7,52.1125 Q187.7,52.375 187.5875,52.4875 Q187.475,52.6 187.3,52.6 Q187.1438,52.6 187.0438,52.5313 Q186.9438,52.4625 186.9,52.2813 Q186.8813,52.1563 186.8125,52.0875 Q186.6875,51.9563 186.4625,51.8813 Q186.2375,51.8 186.0125,51.8 Q185.7313,51.8 185.4938,51.9125 Q185.2625,52.025 185.0813,52.275 Q184.9,52.525 184.9,52.8688 L184.9,53.2375 Q184.9,53.65 185.2375,53.925 Q185.575,54.2 186.175,54.2 Q186.5313,54.2 186.7813,54.1188 Q186.925,54.075 187.0875,53.9313 Q187.1938,53.85 187.25,53.825 Q187.3063,53.8 187.375,53.8 Q187.5063,53.8 187.6,53.9063 Q187.7,54.0063 187.7,54.15 Q187.7,54.2875 187.5625,54.45 Q187.3625,54.6875 187.0438,54.8188 Q186.625,55 186.1125,55 Q185.5125,55 185.0313,54.7625 Q184.6438,54.575 184.3688,54.1688 Q184.1,53.7625 184.1,53.2813 L184.1,52.8438 Q184.1,52.3438 184.3375,51.9063 Q184.5813,51.4688 185,51.2375 Q185.425,51 185.9,51 Q186.1875,51 186.4375,51.1 Q186.6875,51.2 186.9,51.4 Z " fill="#000000"/><text fill="#000000" font-family="sans-serif" font-size="5.6" lengthAdjust="spacing" textLength="42.4" x="194.3" y="55.0914">SurveyController</text><line style="stroke:#181818;stroke-width:0.20000000000000004;" x1="163" x2="255" y1="59.2" y2="59.2"/><line style="stroke:#181818;stroke-width:0.20000000000000004;" x1="163" x2="255" y1="62.4" y2="62.4"/><text fill="#000000" font-family="sans-serif" font-size="5.6" lengthAdjust="spacing" textLength="8.8" x="165" y="69.8133">(...)</text><text fill="#000000" font-family="sans-serif" font-size="5.6" lengthAdjust="spacing" textLength="62.4" x="165" y="76.857">+surveyToBeAnswered()</text><text fill="#000000" font-family="sans-serif" font-size="5.6" lengthAdjust="spacing" textLength="88" x="165" y="83.9008">+findSurveyByCustomer(customer)</text><text fill="#000000" font-family="sans-serif" font-size="5.6" lengthAdjust="spacing" textLength="36.8" x="165" y="90.9445">+saveSurvey()</text></g><!--MD5=[fd7366e9f96236d9aa60dcc04f2b83e5]
class Content--><g id="elem_Content"><rect codeLine="14" fill="#F1F1F1" height="75.55" id="Content" rx="1" ry="1" style="stroke:#181818;stroke-width:0.20000000000000004;" width="110.8" x="2.8" y="210.4"/><ellipse cx="46.5" cy="216.8" fill="#ADD1B2" rx="4.4" ry="4.4" style="stroke:#181818;stroke-width:0.4000000000000001;"/><path d="M47.3,215.4 Q47.3813,215.2 47.475,215.1 Q47.5688,215 47.675,215 Q47.8625,215 47.9813,215.1125 Q48.1,215.225 48.1,215.4875 L48.1,216.1125 Q48.1,216.375 47.9875,216.4875 Q47.875,216.6 47.7,216.6 Q47.5438,216.6 47.4438,216.5313 Q47.3438,216.4625 47.3,216.2813 Q47.2813,216.1563 47.2125,216.0875 Q47.0875,215.9563 46.8625,215.8813 Q46.6375,215.8 46.4125,215.8 Q46.1313,215.8 45.8938,215.9125 Q45.6625,216.025 45.4813,216.275 Q45.3,216.525 45.3,216.8688 L45.3,217.2375 Q45.3,217.65 45.6375,217.925 Q45.975,218.2 46.575,218.2 Q46.9313,218.2 47.1813,218.1188 Q47.325,218.075 47.4875,217.9313 Q47.5938,217.85 47.65,217.825 Q47.7063,217.8 47.775,217.8 Q47.9063,217.8 48,217.9063 Q48.1,218.0063 48.1,218.15 Q48.1,218.2875 47.9625,218.45 Q47.7625,218.6875 47.4438,218.8188 Q47.025,219 46.5125,219 Q45.9125,219 45.4313,218.7625 Q45.0438,218.575 44.7688,218.1688 Q44.5,217.7625 44.5,217.2813 L44.5,216.8438 Q44.5,216.3438 44.7375,215.9063 Q44.9813,215.4688 45.4,215.2375 Q45.825,215 46.3,215 Q46.5875,215 46.8375,215.1 Q47.0875,215.2 47.3,215.4 Z " fill="#000000"/><text fill="#000000" font-family="sans-serif" font-size="5.6" lengthAdjust="spacing" textLength="20" x="54.7" y="219.0914">Content</text><line style="stroke:#181818;stroke-width:0.20000000000000004;" x1="3.2" x2="113.2" y1="223.2" y2="223.2"/><text fill="#000000" font-family="sans-serif" font-size="5.6" lengthAdjust="spacing" textLength="62.8" x="5.2" y="230.6133">-String fullQuestionnaire;</text><text fill="#000000" font-family="sans-serif" font-size="5.6" lengthAdjust="spacing" textLength="67.2" x="5.2" y="237.657">-StringBuilder stringbuilder</text><line style="stroke:#181818;stroke-width:0.20000000000000004;" x1="3.2" x2="113.2" y1="240.4875" y2="240.4875"/><text fill="#000000" font-family="sans-serif" font-size="5.6" lengthAdjust="spacing" textLength="61.6" x="5.2" y="247.9008">+Content(questionnaire)</text><text fill="#000000" font-family="sans-serif" font-size="5.6" lengthAdjust="spacing" textLength="70" x="5.2" y="254.9445">+Content(fullQuestionnaire)</text><text fill="#000000" font-family="sans-serif" font-size="5.6" lengthAdjust="spacing" textLength="106" x="5.2" y="261.9883">+buildQuestionnaireSyntax(questionnaire)</text><text fill="#000000" font-family="sans-serif" font-size="5.6" lengthAdjust="spacing" textLength="75.6" x="5.2" y="269.032">+buildSectionSyntax(sections)</text><text fill="#000000" font-family="sans-serif" font-size="5.6" lengthAdjust="spacing" textLength="80.4" x="5.2" y="276.0758">+buildQuestionSyntax(question)</text><text fill="#000000" font-family="sans-serif" font-size="5.6" lengthAdjust="spacing" textLength="26.8" x="5.2" y="283.1195">+toString()</text></g><!--MD5=[3145b4be7c5005b24cda6f18a1d594b0]
class Survey--><g id="elem_Survey"><rect codeLine="29" fill="#F1F1F1" height="54.4188" id="Survey" rx="1" ry="1" style="stroke:#181818;stroke-width:0.20000000000000004;" width="104" x="103.4" y="124.8"/><ellipse cx="144.9" cy="131.2" fill="#ADD1B2" rx="4.4" ry="4.4" style="stroke:#181818;stroke-width:0.4000000000000001;"/><path d="M145.7,129.8 Q145.7813,129.6 145.875,129.5 Q145.9688,129.4 146.075,129.4 Q146.2625,129.4 146.3813,129.5125 Q146.5,129.625 146.5,129.8875 L146.5,130.5125 Q146.5,130.775 146.3875,130.8875 Q146.275,131 146.1,131 Q145.9438,131 145.8438,130.9313 Q145.7438,130.8625 145.7,130.6813 Q145.6813,130.5563 145.6125,130.4875 Q145.4875,130.3563 145.2625,130.2813 Q145.0375,130.2 144.8125,130.2 Q144.5313,130.2 144.2938,130.3125 Q144.0625,130.425 143.8813,130.675 Q143.7,130.925 143.7,131.2688 L143.7,131.6375 Q143.7,132.05 144.0375,132.325 Q144.375,132.6 144.975,132.6 Q145.3313,132.6 145.5813,132.5188 Q145.725,132.475 145.8875,132.3313 Q145.9938,132.25 146.05,132.225 Q146.1063,132.2 146.175,132.2 Q146.3063,132.2 146.4,132.3063 Q146.5,132.4063 146.5,132.55 Q146.5,132.6875 146.3625,132.85 Q146.1625,133.0875 145.8438,133.2188 Q145.425,133.4 144.9125,133.4 Q144.3125,133.4 143.8313,133.1625 Q143.4438,132.975 143.1688,132.5688 Q142.9,132.1625 142.9,131.6813 L142.9,131.2438 Q142.9,130.7438 143.1375,130.3063 Q143.3813,129.8688 143.8,129.6375 Q144.225,129.4 144.7,129.4 Q144.9875,129.4 145.2375,129.5 Q145.4875,129.6 145.7,129.8 Z " fill="#000000"/><text fill="#000000" font-family="sans-serif" font-size="5.6" lengthAdjust="spacing" textLength="17.6" x="153.1" y="133.4914">Survey</text><line style="stroke:#181818;stroke-width:0.20000000000000004;" x1="103.8" x2="207" y1="137.6" y2="137.6"/><text fill="#000000" font-family="sans-serif" font-size="5.6" lengthAdjust="spacing" textLength="99.2" x="105.8" y="145.0133">-AlphanumericCode alphanumericCode</text><text fill="#000000" font-family="sans-serif" font-size="5.6" lengthAdjust="spacing" textLength="59.6" x="105.8" y="152.057">-Description description</text><text fill="#000000" font-family="sans-serif" font-size="5.6" lengthAdjust="spacing" textLength="36" x="105.8" y="159.1008">-Period period</text><text fill="#000000" font-family="sans-serif" font-size="5.6" lengthAdjust="spacing" textLength="73.6" x="105.8" y="166.1445">-Questionnaire questionnaire</text><text fill="#000000" font-family="sans-serif" font-size="5.6" lengthAdjust="spacing" textLength="42.4" x="105.8" y="173.1883">-Content content</text><line style="stroke:#181818;stroke-width:0.20000000000000004;" x1="103.8" x2="207" y1="176.0188" y2="176.0188"/></g><!--MD5=[f9fadfa5a66b7e5a67b370cd443ffe52]
class Answer--><g id="elem_Answer"><rect codeLine="37" fill="#F1F1F1" height="54.4188" id="Answer" rx="1" ry="1" style="stroke:#181818;stroke-width:0.20000000000000004;" width="56" x="127.8" y="221"/><ellipse cx="144.96" cy="227.4" fill="#ADD1B2" rx="4.4" ry="4.4" style="stroke:#181818;stroke-width:0.4000000000000001;"/><path d="M145.76,226 Q145.8413,225.8 145.935,225.7 Q146.0288,225.6 146.135,225.6 Q146.3225,225.6 146.4413,225.7125 Q146.56,225.825 146.56,226.0875 L146.56,226.7125 Q146.56,226.975 146.4475,227.0875 Q146.335,227.2 146.16,227.2 Q146.0038,227.2 145.9038,227.1313 Q145.8038,227.0625 145.76,226.8813 Q145.7413,226.7563 145.6725,226.6875 Q145.5475,226.5563 145.3225,226.4813 Q145.0975,226.4 144.8725,226.4 Q144.5913,226.4 144.3538,226.5125 Q144.1225,226.625 143.9413,226.875 Q143.76,227.125 143.76,227.4688 L143.76,227.8375 Q143.76,228.25 144.0975,228.525 Q144.435,228.8 145.035,228.8 Q145.3913,228.8 145.6413,228.7188 Q145.785,228.675 145.9475,228.5313 Q146.0538,228.45 146.11,228.425 Q146.1663,228.4 146.235,228.4 Q146.3663,228.4 146.46,228.5063 Q146.56,228.6063 146.56,228.75 Q146.56,228.8875 146.4225,229.05 Q146.2225,229.2875 145.9038,229.4188 Q145.485,229.6 144.9725,229.6 Q144.3725,229.6 143.8913,229.3625 Q143.5038,229.175 143.2288,228.7688 Q142.96,228.3625 142.96,227.8813 L142.96,227.4438 Q142.96,226.9438 143.1975,226.5063 Q143.4413,226.0688 143.86,225.8375 Q144.285,225.6 144.76,225.6 Q145.0475,225.6 145.2975,225.7 Q145.5475,225.8 145.76,226 Z " fill="#000000"/><text fill="#000000" font-family="sans-serif" font-size="5.6" lengthAdjust="spacing" textLength="18.4" x="153.04" y="229.6914">Answer</text><line style="stroke:#181818;stroke-width:0.20000000000000004;" x1="128.2" x2="183.4" y1="233.8" y2="233.8"/><text fill="#000000" font-family="sans-serif" font-size="5.6" lengthAdjust="spacing" textLength="20.8" x="130.2" y="241.2133">-Long id</text><text fill="#000000" font-family="sans-serif" font-size="5.6" lengthAdjust="spacing" textLength="36.4" x="130.2" y="248.257">-String answer</text><text fill="#000000" font-family="sans-serif" font-size="5.6" lengthAdjust="spacing" textLength="41.6" x="130.2" y="255.3008">-String sectionID</text><text fill="#000000" font-family="sans-serif" font-size="5.6" lengthAdjust="spacing" textLength="45.2" x="130.2" y="262.3445">-String questionID</text><text fill="#000000" font-family="sans-serif" font-size="5.6" lengthAdjust="spacing" textLength="51.2" x="130.2" y="269.3883">-Customer customer</text><line style="stroke:#181818;stroke-width:0.20000000000000004;" x1="128.2" x2="183.4" y1="272.2188" y2="272.2188"/></g><!--MD5=[e8c189551b7885b999ad7cefb30fc2a3]
class PersistenceContext--><g id="elem_PersistenceContext"><rect codeLine="45" fill="#F1F1F1" height="40.3313" id="PersistenceContext" rx="1" ry="1" style="stroke:#181818;stroke-width:0.20000000000000004;" width="82" x="221.6" y="131.8"/><ellipse cx="236.78" cy="138.2" fill="#ADD1B2" rx="4.4" ry="4.4" style="stroke:#181818;stroke-width:0.4000000000000001;"/><path d="M237.58,136.8 Q237.6613,136.6 237.755,136.5 Q237.8488,136.4 237.955,136.4 Q238.1425,136.4 238.2613,136.5125 Q238.38,136.625 238.38,136.8875 L238.38,137.5125 Q238.38,137.775 238.2675,137.8875 Q238.155,138 237.98,138 Q237.8238,138 237.7238,137.9313 Q237.6238,137.8625 237.58,137.6813 Q237.5613,137.5563 237.4925,137.4875 Q237.3675,137.3563 237.1425,137.2813 Q236.9175,137.2 236.6925,137.2 Q236.4113,137.2 236.1738,137.3125 Q235.9425,137.425 235.7613,137.675 Q235.58,137.925 235.58,138.2688 L235.58,138.6375 Q235.58,139.05 235.9175,139.325 Q236.255,139.6 236.855,139.6 Q237.2113,139.6 237.4613,139.5188 Q237.605,139.475 237.7675,139.3313 Q237.8738,139.25 237.93,139.225 Q237.9863,139.2 238.055,139.2 Q238.1863,139.2 238.28,139.3063 Q238.38,139.4063 238.38,139.55 Q238.38,139.6875 238.2425,139.85 Q238.0425,140.0875 237.7238,140.2188 Q237.305,140.4 236.7925,140.4 Q236.1925,140.4 235.7113,140.1625 Q235.3238,139.975 235.0488,139.5688 Q234.78,139.1625 234.78,138.6813 L234.78,138.2438 Q234.78,137.7438 235.0175,137.3063 Q235.2613,136.8688 235.68,136.6375 Q236.105,136.4 236.58,136.4 Q236.8675,136.4 237.1175,136.5 Q237.3675,136.6 237.58,136.8 Z " fill="#000000"/><text fill="#000000" font-family="sans-serif" font-size="5.6" lengthAdjust="spacing" textLength="48.8" x="244.42" y="140.4914">PersistenceContext</text><line style="stroke:#181818;stroke-width:0.20000000000000004;" x1="222" x2="303.2" y1="144.6" y2="144.6"/><text fill="#000000" font-family="sans-serif" font-size="5.6" lengthAdjust="spacing" textLength="45.6" x="224" y="152.0133">-Logger LOGGER</text><text fill="#000000" font-family="sans-serif" font-size="5.6" lengthAdjust="spacing" textLength="77.2" x="224" y="159.057">-RepositoryFactory theFactory</text><line style="stroke:#181818;stroke-width:0.20000000000000004;" x1="222" x2="303.2" y1="161.8875" y2="161.8875"/><text fill="#000000" font-family="sans-serif" font-size="5.6" lengthAdjust="spacing" textLength="36.8" x="224" y="169.3008">+repositories()</text></g><!--MD5=[48590afff58a68e2fcba47824d6f8a11]
class RepositoryFactory--><g id="elem_RepositoryFactory"><rect codeLine="51" fill="#F1F1F1" height="26.2438" id="RepositoryFactory" rx="1" ry="1" style="stroke:#181818;stroke-width:0.20000000000000004;" width="59.2" x="232.6" y="235"/><ellipse cx="238.6" cy="241.4" fill="#ADD1B2" rx="4.4" ry="4.4" style="stroke:#181818;stroke-width:0.4000000000000001;"/><path d="M239.4,240 Q239.4813,239.8 239.575,239.7 Q239.6688,239.6 239.775,239.6 Q239.9625,239.6 240.0813,239.7125 Q240.2,239.825 240.2,240.0875 L240.2,240.7125 Q240.2,240.975 240.0875,241.0875 Q239.975,241.2 239.8,241.2 Q239.6438,241.2 239.5438,241.1313 Q239.4438,241.0625 239.4,240.8813 Q239.3813,240.7563 239.3125,240.6875 Q239.1875,240.5563 238.9625,240.4813 Q238.7375,240.4 238.5125,240.4 Q238.2313,240.4 237.9938,240.5125 Q237.7625,240.625 237.5813,240.875 Q237.4,241.125 237.4,241.4688 L237.4,241.8375 Q237.4,242.25 237.7375,242.525 Q238.075,242.8 238.675,242.8 Q239.0313,242.8 239.2813,242.7188 Q239.425,242.675 239.5875,242.5313 Q239.6938,242.45 239.75,242.425 Q239.8063,242.4 239.875,242.4 Q240.0063,242.4 240.1,242.5063 Q240.2,242.6063 240.2,242.75 Q240.2,242.8875 240.0625,243.05 Q239.8625,243.2875 239.5438,243.4188 Q239.125,243.6 238.6125,243.6 Q238.0125,243.6 237.5313,243.3625 Q237.1438,243.175 236.8688,242.7688 Q236.6,242.3625 236.6,241.8813 L236.6,241.4438 Q236.6,240.9438 236.8375,240.5063 Q237.0813,240.0688 237.5,239.8375 Q237.925,239.6 238.4,239.6 Q238.6875,239.6 238.9375,239.7 Q239.1875,239.8 239.4,240 Z " fill="#000000"/><text fill="#000000" font-family="sans-serif" font-size="5.6" lengthAdjust="spacing" textLength="46.4" x="244.2" y="243.6914">RepositoryFactory</text><line style="stroke:#181818;stroke-width:0.20000000000000004;" x1="233" x2="291.4" y1="247.8" y2="247.8"/><line style="stroke:#181818;stroke-width:0.20000000000000004;" x1="233" x2="291.4" y1="251" y2="251"/><text fill="#000000" font-family="sans-serif" font-size="5.6" lengthAdjust="spacing" textLength="33.2" x="235" y="258.4133">+customers()</text></g><!--MD5=[ca0abe252586467d5b989c6b12cf24dd]
class SurveyRepository--><g id="elem_SurveyRepository"><rect codeLine="55" fill="#F1F1F1" height="40.3313" id="SurveyRepository" rx="1" ry="1" style="stroke:#181818;stroke-width:0.20000000000000004;" width="167.2" x="141" y="317.2"/><ellipse cx="200.5" cy="323.6" fill="#ADD1B2" rx="4.4" ry="4.4" style="stroke:#181818;stroke-width:0.4000000000000001;"/><path d="M201.3,322.2 Q201.3813,322 201.475,321.9 Q201.5688,321.8 201.675,321.8 Q201.8625,321.8 201.9813,321.9125 Q202.1,322.025 202.1,322.2875 L202.1,322.9125 Q202.1,323.175 201.9875,323.2875 Q201.875,323.4 201.7,323.4 Q201.5438,323.4 201.4438,323.3313 Q201.3438,323.2625 201.3,323.0813 Q201.2813,322.9563 201.2125,322.8875 Q201.0875,322.7563 200.8625,322.6813 Q200.6375,322.6 200.4125,322.6 Q200.1313,322.6 199.8938,322.7125 Q199.6625,322.825 199.4813,323.075 Q199.3,323.325 199.3,323.6688 L199.3,324.0375 Q199.3,324.45 199.6375,324.725 Q199.975,325 200.575,325 Q200.9313,325 201.1813,324.9188 Q201.325,324.875 201.4875,324.7313 Q201.5938,324.65 201.65,324.625 Q201.7063,324.6 201.775,324.6 Q201.9063,324.6 202,324.7063 Q202.1,324.8063 202.1,324.95 Q202.1,325.0875 201.9625,325.25 Q201.7625,325.4875 201.4438,325.6188 Q201.025,325.8 200.5125,325.8 Q199.9125,325.8 199.4313,325.5625 Q199.0438,325.375 198.7688,324.9688 Q198.5,324.5625 198.5,324.0813 L198.5,323.6438 Q198.5,323.1438 198.7375,322.7063 Q198.9813,322.2688 199.4,322.0375 Q199.825,321.8 200.3,321.8 Q200.5875,321.8 200.8375,321.9 Q201.0875,322 201.3,322.2 Z " fill="#000000"/><text fill="#000000" font-family="sans-serif" font-size="5.6" lengthAdjust="spacing" textLength="44.8" x="208.7" y="325.8914">SurveyRepository</text><line style="stroke:#181818;stroke-width:0.20000000000000004;" x1="141.4" x2="307.8" y1="330" y2="330"/><line style="stroke:#181818;stroke-width:0.20000000000000004;" x1="141.4" x2="307.8" y1="333.2" y2="333.2"/><text fill="#000000" font-family="sans-serif" font-size="5.6" lengthAdjust="spacing" textLength="162.4" x="143.4" y="340.6133">+getQuestionnaireUsingAlphanumericCode(alphaNumericCode);</text><text fill="#000000" font-family="sans-serif" font-size="5.6" lengthAdjust="spacing" textLength="1.6" x="143.4" y="347.657"> </text><text fill="#000000" font-family="sans-serif" font-size="5.6" lengthAdjust="spacing" textLength="89.6" x="143.4" y="354.7008">+findSurveyByCustomer(customer);</text></g><!--MD5=[d1181d489fba6e3bc4069a9f52dd4e0f]
link AnswerToSurveyUI to SurveyController--><g id="link_AnswerToSurveyUI_SurveyController"><path codeLine="61" d="M209,22.052 C209,28.14 209,36.42 209,44.368 " fill="none" id="AnswerToSurveyUI-to-SurveyController" style="stroke:#181818;stroke-width:0.4000000000000001;stroke-dasharray:7.0,7.0;"/><polygon fill="#181818" points="209,46.376,210.6,42.776,209,44.376,207.4,42.776,209,46.376" style="stroke:#181818;stroke-width:0.4000000000000001;"/></g><!--MD5=[36fd4d61e47feda196a228a83f141d93]
link SurveyController to Survey--><g id="link_SurveyController_Survey"><path codeLine="63" d="M193.64,93.668 C187.612,102.8 180.632,113.372 174.3,122.968 " fill="none" id="SurveyController-to-Survey" style="stroke:#181818;stroke-width:0.4000000000000001;"/><polygon fill="#181818" points="173.124,124.748,176.4438,122.627,174.2268,123.0795,173.7743,120.8625,173.124,124.748" style="stroke:#181818;stroke-width:0.4000000000000001;"/></g><!--MD5=[02c3396b3ad14158b0d1521f86ee2245]
link Survey to Content--><g id="link_Survey_Content"><path codeLine="66" d="M128.064,179.228 C118.7,188.42 108.02,198.9 97.88,208.856 " fill="none" id="Survey-to-Content" style="stroke:#181818;stroke-width:0.4000000000000001;"/><polygon fill="#181818" points="96.388,210.32,100.0791,208.943,97.8164,208.9201,97.8393,206.6575,96.388,210.32" style="stroke:#181818;stroke-width:0.4000000000000001;"/><text fill="#000000" font-family="sans-serif" font-size="5.2" lengthAdjust="spacing" textLength="19.6" x="116.2" y="196.998">contains</text><text fill="#000000" font-family="sans-serif" font-size="5.2" lengthAdjust="spacing" textLength="2.8" x="122.3006" y="187.7702">1</text><text fill="#000000" font-family="sans-serif" font-size="5.2" lengthAdjust="spacing" textLength="2.8" x="96.5195" y="206.0521">1</text></g><!--MD5=[ec0fd64d5afb5aa3e1ebec742a549e50]
link Survey to Answer--><g id="link_Survey_Answer"><path codeLine="67" d="M155.512,179.228 C155.564,191.572 155.624,206.244 155.68,218.84 " fill="none" id="Survey-to-Answer" style="stroke:#181818;stroke-width:0.4000000000000001;"/><polygon fill="#181818" points="155.688,220.844,157.2777,217.2394,155.6823,218.844,154.0777,217.2486,155.688,220.844" style="stroke:#181818;stroke-width:0.4000000000000001;"/><text fill="#000000" font-family="sans-serif" font-size="5.2" lengthAdjust="spacing" textLength="19.6" x="156.2" y="196.998">contains</text><text fill="#000000" font-family="sans-serif" font-size="5.2" lengthAdjust="spacing" textLength="2.8" x="152.5792" y="187.7702">1</text><text fill="#000000" font-family="sans-serif" font-size="5.2" lengthAdjust="spacing" textLength="8" x="147.264" y="216.6972">0..*</text></g><!--MD5=[a698c596cdd6655449d58b0bccd42675]
link SurveyController to PersistenceContext--><g id="link_SurveyController_PersistenceContext"><path codeLine="70" d="M224.36,93.668 C231.908,105.1 240.944,118.792 248.336,129.992 " fill="none" id="SurveyController-to-PersistenceContext" style="stroke:#181818;stroke-width:0.4000000000000001;"/><polygon fill="#181818" points="249.508,131.768,248.8577,127.8825,248.4052,130.0995,246.1882,129.647,249.508,131.768" style="stroke:#181818;stroke-width:0.4000000000000001;"/><text fill="#000000" font-family="sans-serif" font-size="5.2" lengthAdjust="spacing" textLength="17.2" x="236.2" y="111.398">creates</text><text fill="#000000" font-family="sans-serif" font-size="5.2" lengthAdjust="spacing" textLength="2.8" x="223.2614" y="102.3385">1</text><text fill="#000000" font-family="sans-serif" font-size="5.2" lengthAdjust="spacing" textLength="2.8" x="244.6701" y="127.4856">1</text></g><!--MD5=[754b775031405e096442b27febffa290]
link PersistenceContext to RepositoryFactory--><g id="link_PersistenceContext_RepositoryFactory"><path codeLine="73" d="M262.516,172.284 C262.44,190.312 262.332,216.492 262.264,232.816 " fill="none" id="PersistenceContext-to-RepositoryFactory" style="stroke:#181818;stroke-width:0.4000000000000001;"/><polygon fill="#181818" points="262.252,234.952,263.8725,231.3612,262.2634,232.952,260.6726,231.3429,262.252,234.952" style="stroke:#181818;stroke-width:0.4000000000000001;"/><text fill="#000000" font-family="sans-serif" font-size="5.2" lengthAdjust="spacing" textLength="17.2" x="262.6" y="196.998">creates</text><text fill="#000000" font-family="sans-serif" font-size="5.2" lengthAdjust="spacing" textLength="2.8" x="259.5259" y="180.7043">1</text><text fill="#000000" font-family="sans-serif" font-size="5.2" lengthAdjust="spacing" textLength="2.8" x="259.174" y="230.5883">1</text></g><!--MD5=[b2261c22df95718c10e32de77a70473c]
link RepositoryFactory to SurveyRepository--><g id="link_RepositoryFactory_SurveyRepository"><path codeLine="76" d="M256.732,261.456 C250.752,275.516 241.06,298.304 233.88,315.176 " fill="none" id="RepositoryFactory-to-SurveyRepository" style="stroke:#181818;stroke-width:0.4000000000000001;"/><polygon fill="#181818" points="233.064,317.1,235.9457,314.4138,233.847,315.2596,233.0011,313.161,233.064,317.1" style="stroke:#181818;stroke-width:0.4000000000000001;"/><text fill="#000000" font-family="sans-serif" font-size="5.2" lengthAdjust="spacing" textLength="17.2" x="241.4" y="303.798">creates</text><text fill="#000000" font-family="sans-serif" font-size="5.2" lengthAdjust="spacing" textLength="2.8" x="252.7086" y="269.8117">1</text><text fill="#000000" font-family="sans-serif" font-size="5.2" lengthAdjust="spacing" textLength="2.8" x="231.2574" y="312.8081">1</text></g><!--MD5=[27c386b89d1f950e5e021258cab32746]
link Survey to SurveyRepository--><g id="link_Survey_SurveyRepository"><path codeLine="79" d="M172.144,179.272 C174.596,183.26 177.076,187.332 179.4,191.2 C184.488,199.668 186.796,201.284 190.6,210.4 C205.372,245.812 215.436,289.496 220.584,315.192 " fill="none" id="Survey-to-SurveyRepository" style="stroke:#181818;stroke-width:0.4000000000000001;"/><polygon fill="#181818" points="220.976,317.164,221.8454,313.3216,220.5871,315.2022,218.7065,313.9439,220.976,317.164" style="stroke:#181818;stroke-width:0.4000000000000001;"/><text fill="#000000" font-family="sans-serif" font-size="5.2" lengthAdjust="spacing" textLength="4" x="214.6" y="250.398">in</text><text fill="#000000" font-family="sans-serif" font-size="5.2" lengthAdjust="spacing" textLength="2.8" x="170.9264" y="187.8188">1</text><text fill="#000000" font-family="sans-serif" font-size="5.2" lengthAdjust="spacing" textLength="2.8" x="217.4695" y="312.8811">1</text></g><!--MD5=[84aa04d558f44971fcc2dfe16aad0b94]
@startuml
skinparam classAttributeIconSize 0

Class "AnswerToSurveyUI"{
}

Class "SurveyController"{
(...)
+surveyToBeAnswered()
+findSurveyByCustomer(customer)
+saveSurvey()
}


class Content {
-String fullQuestionnaire;
-StringBuilder stringbuilder

+Content(questionnaire)
+Content(fullQuestionnaire)
+buildQuestionnaireSyntax(questionnaire)
+buildSectionSyntax(sections)
+buildQuestionSyntax(question)
+toString()

}



class Survey{
-AlphanumericCode alphanumericCode
-Description description
-Period period
-Questionnaire questionnaire
-Content content
}

class Answer{
 - Long id
 - String answer
 - String sectionID
 - String questionID
 - Customer customer
}

class PersistenceContext {
-Logger LOGGER
-RepositoryFactory theFactory
+repositories()
}

class RepositoryFactory{
+customers()
}

class SurveyRepository{
+getQuestionnaireUsingAlphanumericCode(alphaNumericCode);

+findSurveyByCustomer(customer);
}

AnswerToSurveyUI..> "SurveyController"

SurveyController - -> Survey


"Content" "1" <-u- "1" Survey : contains
"Answer" "0..*" <-u- "1" Survey : contains


"SurveyController" "1" - -> "1" "PersistenceContext" :creates


"PersistenceContext" "1" - -> "1" "RepositoryFactory" :creates


"RepositoryFactory" "1" - -> "1" "SurveyRepository"  :creates


"Survey" "1" - -> "1" "SurveyRepository" :in
@enduml

PlantUML version 1.2022.5(Sat Apr 30 11:55:52 BST 2022)
(GPL source distribution)
Java Runtime: OpenJDK Runtime Environment
JVM: OpenJDK 64-Bit Server VM
Default Encoding: Cp1252
Language: pt
Country: PT
--></g></svg>