<?xml version="1.0" encoding="UTF-8" standalone="no"?><svg xmlns="http://www.w3.org/2000/svg" xmlns:xlink="http://www.w3.org/1999/xlink" contentStyleType="text/css" height="800.8px" preserveAspectRatio="none" style="width:1978px;height:800px;background:#FFFFFF;" version="1.1" viewBox="0 0 1978 800" width="1978.9px" zoomAndPan="magnify"><defs/><g><rect fill="#FFFFFF" height="672.8203" style="stroke:#181818;stroke-width:0.6999999999999998;" width="7" x="33.95" y="64.8266"/><rect fill="#FFFFFF" height="63.7383" style="stroke:#181818;stroke-width:0.6999999999999998;" width="7" x="184.45" y="80.4727"/><rect fill="#FFFFFF" height="42.4922" style="stroke:#181818;stroke-width:0.6999999999999998;" width="7" x="184.45" y="165.457"/><rect fill="#FFFFFF" height="285.5945" style="stroke:#181818;stroke-width:0.6999999999999998;" width="7" x="184.45" y="445.7523"/><rect fill="#FFFFFF" height="21.2461" style="stroke:#181818;stroke-width:0.6999999999999998;" width="7" x="344.75" y="101.7187"/><rect fill="#FFFFFF" height="21.2461" style="stroke:#181818;stroke-width:0.6999999999999998;" width="7" x="344.75" y="424.5062"/><rect fill="#FFFFFF" height="195.7102" style="stroke:#181818;stroke-width:0.6999999999999998;" width="7" x="344.75" y="514.3906"/><rect fill="#FFFFFF" height="209.557" style="stroke:#181818;stroke-width:0.6999999999999998;" width="7" x="441.35" y="214.9492"/><rect fill="#FFFFFF" height="21" style="stroke:#181818;stroke-width:0.6999999999999998;" width="7" x="556.15" y="255.5219"/><rect fill="#FFFFFF" height="21" style="stroke:#181818;stroke-width:0.6999999999999998;" width="7" x="556.15" y="297.768"/><rect fill="#FFFFFF" height="21" style="stroke:#181818;stroke-width:0.6999999999999998;" width="7" x="556.15" y="340.0141"/><rect fill="#FFFFFF" height="21" style="stroke:#181818;stroke-width:0.6999999999999998;" width="7" x="556.15" y="382.2602"/><rect fill="#FFFFFF" height="52.6531" style="stroke:#181818;stroke-width:0.6999999999999998;" width="7" x="1651.3" y="542.6367"/><rect fill="#FFFFFF" height="51.0727" style="stroke:#181818;stroke-width:0.6999999999999998;" width="7" x="1806" y="616.5359"/><rect fill="#FFFFFF" height="21.2461" style="stroke:#181818;stroke-width:0.6999999999999998;" width="7" x="1926.05" y="688.8547"/><rect height="245.5687" style="stroke:#000000;stroke-width:1.0499999999999998;fill:none;" width="589.05" x="7" y="227.0297"/><line style="stroke:#181818;stroke-width:0.3499999999999999;fill:none;stroke-dasharray:5.0,5.0;" x1="37.1" x2="37.1" y1="57.8266" y2="743.9469"/><line style="stroke:#181818;stroke-width:0.3499999999999999;fill:none;stroke-dasharray:5.0,5.0;" x1="187.6" x2="187.6" y1="57.8266" y2="743.9469"/><line style="stroke:#181818;stroke-width:0.3499999999999999;fill:none;stroke-dasharray:5.0,5.0;" x1="348.25" x2="348.25" y1="57.8266" y2="743.9469"/><line style="stroke:#181818;stroke-width:0.3499999999999999;fill:none;stroke-dasharray:5.0,5.0;" x1="444.85" x2="444.85" y1="214.2164" y2="743.9469"/><line style="stroke:#181818;stroke-width:0.3499999999999999;fill:none;stroke-dasharray:5.0,5.0;" x1="559.65" x2="559.65" y1="57.8266" y2="743.9469"/><line style="stroke:#181818;stroke-width:0.3499999999999999;fill:none;stroke-dasharray:5.0,5.0;" x1="647.15" x2="647.15" y1="57.8266" y2="743.9469"/><line style="stroke:#181818;stroke-width:0.3499999999999999;fill:none;stroke-dasharray:5.0,5.0;" x1="738.85" x2="738.85" y1="57.8266" y2="743.9469"/><line style="stroke:#181818;stroke-width:0.3499999999999999;fill:none;stroke-dasharray:5.0,5.0;" x1="827.05" x2="827.05" y1="57.8266" y2="743.9469"/><line style="stroke:#181818;stroke-width:0.3499999999999999;fill:none;stroke-dasharray:5.0,5.0;" x1="929.95" x2="929.95" y1="57.8266" y2="743.9469"/><line style="stroke:#181818;stroke-width:0.3499999999999999;fill:none;stroke-dasharray:5.0,5.0;" x1="1047.55" x2="1047.55" y1="57.8266" y2="743.9469"/><line style="stroke:#181818;stroke-width:0.3499999999999999;fill:none;stroke-dasharray:5.0,5.0;" x1="1149.75" x2="1149.75" y1="57.8266" y2="743.9469"/><line style="stroke:#181818;stroke-width:0.3499999999999999;fill:none;stroke-dasharray:5.0,5.0;" x1="1235.85" x2="1235.85" y1="57.8266" y2="743.9469"/><line style="stroke:#181818;stroke-width:0.3499999999999999;fill:none;stroke-dasharray:5.0,5.0;" x1="1312.15" x2="1312.15" y1="57.8266" y2="743.9469"/><line style="stroke:#181818;stroke-width:0.3499999999999999;fill:none;stroke-dasharray:5.0,5.0;" x1="1361.85" x2="1361.85" y1="57.8266" y2="743.9469"/><line style="stroke:#181818;stroke-width:0.3499999999999999;fill:none;stroke-dasharray:5.0,5.0;" x1="1413.65" x2="1413.65" y1="57.8266" y2="743.9469"/><line style="stroke:#181818;stroke-width:0.3499999999999999;fill:none;stroke-dasharray:5.0,5.0;" x1="1466.85" x2="1466.85" y1="57.8266" y2="743.9469"/><line style="stroke:#181818;stroke-width:0.3499999999999999;fill:none;stroke-dasharray:5.0,5.0;" x1="1531.25" x2="1531.25" y1="57.8266" y2="743.9469"/><line style="stroke:#181818;stroke-width:0.3499999999999999;fill:none;stroke-dasharray:5.0,5.0;" x1="1654.45" x2="1654.45" y1="541.9039" y2="743.9469"/><line style="stroke:#181818;stroke-width:0.3499999999999999;fill:none;stroke-dasharray:5.0,5.0;" x1="1809.15" x2="1809.15" y1="571.7305" y2="743.9469"/><line style="stroke:#181818;stroke-width:0.3499999999999999;fill:none;stroke-dasharray:5.0,5.0;" x1="1929.55" x2="1929.55" y1="644.0492" y2="743.9469"/><text fill="#000000" font-family="sans-serif" font-size="9.8" lengthAdjust="spacing" textLength="42.7" x="14" y="55.6732">Customer</text><ellipse cx="37.45" cy="9.45" fill="#E2E2F0" rx="5.6" ry="5.6" style="stroke:#181818;stroke-width:0.3499999999999999;"/><path d="M37.45,15.05 L37.45,33.95 M28.35,20.65 L46.55,20.65 M37.45,33.95 L28.35,44.45 M37.45,33.95 L46.55,44.45 " fill="none" style="stroke:#181818;stroke-width:0.3499999999999999;"/><text fill="#000000" font-family="sans-serif" font-size="9.8" lengthAdjust="spacing" textLength="42.7" x="14" y="753.4201">Customer</text><ellipse cx="37.45" cy="761.5234" fill="#E2E2F0" rx="5.6" ry="5.6" style="stroke:#181818;stroke-width:0.3499999999999999;"/><path d="M37.45,767.1234 L37.45,786.0234 M28.35,772.7234 L46.55,772.7234 M37.45,786.0234 L28.35,796.5234 M37.45,786.0234 L46.55,796.5234 " fill="none" style="stroke:#181818;stroke-width:0.3499999999999999;"/><rect fill="#E2E2F0" height="22.1266" rx="1.75" ry="1.75" style="stroke:#181818;stroke-width:0.3499999999999999;" width="95.9" x="140" y="35"/><text fill="#000000" font-family="sans-serif" font-size="9.8" lengthAdjust="spacing" textLength="86.1" x="144.9" y="50.0732">:AnswerToSurveyUI</text><rect fill="#E2E2F0" height="22.1266" rx="1.75" ry="1.75" style="stroke:#181818;stroke-width:0.3499999999999999;" width="95.9" x="140" y="743.2469"/><text fill="#000000" font-family="sans-serif" font-size="9.8" lengthAdjust="spacing" textLength="86.1" x="144.9" y="758.3201">:AnswerToSurveyUI</text><rect fill="#E2E2F0" height="22.1266" rx="1.75" ry="1.75" style="stroke:#181818;stroke-width:0.3499999999999999;" width="86.8" x="304.85" y="35"/><text fill="#000000" font-family="sans-serif" font-size="9.8" lengthAdjust="spacing" textLength="77" x="309.75" y="50.0732">Survey Controller</text><rect fill="#E2E2F0" height="22.1266" rx="1.75" ry="1.75" style="stroke:#181818;stroke-width:0.3499999999999999;" width="86.8" x="304.85" y="743.2469"/><text fill="#000000" font-family="sans-serif" font-size="9.8" lengthAdjust="spacing" textLength="77" x="309.75" y="758.3201">Survey Controller</text><rect fill="#E2E2F0" height="22.1266" rx="1.75" ry="1.75" style="stroke:#181818;stroke-width:0.3499999999999999;" width="92.4" x="398.65" y="743.2469"/><text fill="#000000" font-family="sans-serif" font-size="9.8" lengthAdjust="spacing" textLength="82.6" x="403.55" y="758.3201">:LabeledExprLexer</text><rect fill="#E2E2F0" height="22.1266" rx="1.75" ry="1.75" style="stroke:#181818;stroke-width:0.3499999999999999;" width="58.8" x="530.25" y="35"/><text fill="#000000" font-family="sans-serif" font-size="9.8" lengthAdjust="spacing" textLength="49" x="535.15" y="50.0732">:EvalVisitor</text><rect fill="#E2E2F0" height="22.1266" rx="1.75" ry="1.75" style="stroke:#181818;stroke-width:0.3499999999999999;" width="58.8" x="530.25" y="743.2469"/><text fill="#000000" font-family="sans-serif" font-size="9.8" lengthAdjust="spacing" textLength="49" x="535.15" y="758.3201">:EvalVisitor</text><rect fill="#E2E2F0" height="22.1266" rx="1.75" ry="1.75" style="stroke:#181818;stroke-width:0.3499999999999999;" width="102.9" x="596.05" y="35"/><text fill="#000000" font-family="sans-serif" font-size="9.8" lengthAdjust="spacing" textLength="93.1" x="600.95" y="50.0732">:QuestionDTOParser</text><rect fill="#E2E2F0" height="22.1266" rx="1.75" ry="1.75" style="stroke:#181818;stroke-width:0.3499999999999999;" width="102.9" x="596.05" y="743.2469"/><text fill="#000000" font-family="sans-serif" font-size="9.8" lengthAdjust="spacing" textLength="93.1" x="600.95" y="758.3201">:QuestionDTOParser</text><rect fill="#E2E2F0" height="22.1266" rx="1.75" ry="1.75" style="stroke:#181818;stroke-width:0.3499999999999999;" width="66.5" x="705.95" y="35"/><text fill="#000000" font-family="sans-serif" font-size="9.8" lengthAdjust="spacing" textLength="56.7" x="710.85" y="50.0732">:SectionDTO</text><rect fill="#E2E2F0" height="22.1266" rx="1.75" ry="1.75" style="stroke:#181818;stroke-width:0.3499999999999999;" width="66.5" x="705.95" y="743.2469"/><text fill="#000000" font-family="sans-serif" font-size="9.8" lengthAdjust="spacing" textLength="56.7" x="710.85" y="758.3201">:SectionDTO</text><rect fill="#E2E2F0" height="22.1266" rx="1.75" ry="1.75" style="stroke:#181818;stroke-width:0.3499999999999999;" width="95.9" x="779.45" y="35"/><text fill="#000000" font-family="sans-serif" font-size="9.8" lengthAdjust="spacing" textLength="86.1" x="784.35" y="50.0732">:SectionDTOParser</text><rect fill="#E2E2F0" height="22.1266" rx="1.75" ry="1.75" style="stroke:#181818;stroke-width:0.3499999999999999;" width="95.9" x="779.45" y="743.2469"/><text fill="#000000" font-family="sans-serif" font-size="9.8" lengthAdjust="spacing" textLength="86.1" x="784.35" y="758.3201">:SectionDTOParser</text><rect fill="#E2E2F0" height="22.1266" rx="1.75" ry="1.75" style="stroke:#181818;stroke-width:0.3499999999999999;" width="95.9" x="882.35" y="35"/><text fill="#000000" font-family="sans-serif" font-size="9.8" lengthAdjust="spacing" textLength="86.1" x="887.25" y="50.0732">:QuestionnaireDTO</text><rect fill="#E2E2F0" height="22.1266" rx="1.75" ry="1.75" style="stroke:#181818;stroke-width:0.3499999999999999;" width="95.9" x="882.35" y="743.2469"/><text fill="#000000" font-family="sans-serif" font-size="9.8" lengthAdjust="spacing" textLength="86.1" x="887.25" y="758.3201">:QuestionnaireDTO</text><rect fill="#E2E2F0" height="22.1266" rx="1.75" ry="1.75" style="stroke:#181818;stroke-width:0.3499999999999999;" width="125.3" x="985.25" y="35"/><text fill="#000000" font-family="sans-serif" font-size="9.8" lengthAdjust="spacing" textLength="115.5" x="990.15" y="50.0732">:QuestionnaireDTOParser</text><rect fill="#E2E2F0" height="22.1266" rx="1.75" ry="1.75" style="stroke:#181818;stroke-width:0.3499999999999999;" width="125.3" x="985.25" y="743.2469"/><text fill="#000000" font-family="sans-serif" font-size="9.8" lengthAdjust="spacing" textLength="115.5" x="990.15" y="758.3201">:QuestionnaireDTOParser</text><rect fill="#E2E2F0" height="22.1266" rx="1.75" ry="1.75" style="stroke:#181818;stroke-width:0.3499999999999999;" width="64.4" x="1117.55" y="35"/><text fill="#000000" font-family="sans-serif" font-size="9.8" lengthAdjust="spacing" textLength="54.6" x="1122.45" y="50.0732">:SurveyDTO</text><rect fill="#E2E2F0" height="22.1266" rx="1.75" ry="1.75" style="stroke:#181818;stroke-width:0.3499999999999999;" width="64.4" x="1117.55" y="743.2469"/><text fill="#000000" font-family="sans-serif" font-size="9.8" lengthAdjust="spacing" textLength="54.6" x="1122.45" y="758.3201">:SurveyDTO</text><rect fill="#E2E2F0" height="22.1266" rx="1.75" ry="1.75" style="stroke:#181818;stroke-width:0.3499999999999999;" width="93.8" x="1188.95" y="35"/><text fill="#000000" font-family="sans-serif" font-size="9.8" lengthAdjust="spacing" textLength="84" x="1193.85" y="50.0732">:SurveyDTOParser</text><rect fill="#E2E2F0" height="22.1266" rx="1.75" ry="1.75" style="stroke:#181818;stroke-width:0.3499999999999999;" width="93.8" x="1188.95" y="743.2469"/><text fill="#000000" font-family="sans-serif" font-size="9.8" lengthAdjust="spacing" textLength="84" x="1193.85" y="758.3201">:SurveyDTOParser</text><rect fill="#E2E2F0" height="22.1266" rx="1.75" ry="1.75" style="stroke:#181818;stroke-width:0.3499999999999999;" width="44.8" x="1289.75" y="35"/><text fill="#000000" font-family="sans-serif" font-size="9.8" lengthAdjust="spacing" textLength="35" x="1294.65" y="50.0732">Content</text><rect fill="#E2E2F0" height="22.1266" rx="1.75" ry="1.75" style="stroke:#181818;stroke-width:0.3499999999999999;" width="44.8" x="1289.75" y="743.2469"/><text fill="#000000" font-family="sans-serif" font-size="9.8" lengthAdjust="spacing" textLength="35" x="1294.65" y="758.3201">Content</text><rect fill="#E2E2F0" height="22.1266" rx="1.75" ry="1.75" style="stroke:#181818;stroke-width:0.3499999999999999;" width="40.6" x="1341.55" y="35"/><text fill="#000000" font-family="sans-serif" font-size="9.8" lengthAdjust="spacing" textLength="30.8" x="1346.45" y="50.0732">Survey</text><rect fill="#E2E2F0" height="22.1266" rx="1.75" ry="1.75" style="stroke:#181818;stroke-width:0.3499999999999999;" width="40.6" x="1341.55" y="743.2469"/><text fill="#000000" font-family="sans-serif" font-size="9.8" lengthAdjust="spacing" textLength="30.8" x="1346.45" y="758.3201">Survey</text><rect fill="#E2E2F0" height="22.1266" rx="1.75" ry="1.75" style="stroke:#181818;stroke-width:0.3499999999999999;" width="49.7" x="1389.15" y="35"/><text fill="#000000" font-family="sans-serif" font-size="9.8" lengthAdjust="spacing" textLength="39.9" x="1394.05" y="50.0732">Question</text><rect fill="#E2E2F0" height="22.1266" rx="1.75" ry="1.75" style="stroke:#181818;stroke-width:0.3499999999999999;" width="49.7" x="1389.15" y="743.2469"/><text fill="#000000" font-family="sans-serif" font-size="9.8" lengthAdjust="spacing" textLength="39.9" x="1394.05" y="758.3201">Question</text><rect fill="#E2E2F0" height="22.1266" rx="1.75" ry="1.75" style="stroke:#181818;stroke-width:0.3499999999999999;" width="42.7" x="1445.85" y="35"/><text fill="#000000" font-family="sans-serif" font-size="9.8" lengthAdjust="spacing" textLength="32.9" x="1450.75" y="50.0732">Section</text><rect fill="#E2E2F0" height="22.1266" rx="1.75" ry="1.75" style="stroke:#181818;stroke-width:0.3499999999999999;" width="42.7" x="1445.85" y="743.2469"/><text fill="#000000" font-family="sans-serif" font-size="9.8" lengthAdjust="spacing" textLength="32.9" x="1450.75" y="758.3201">Section</text><rect fill="#E2E2F0" height="22.1266" rx="1.75" ry="1.75" style="stroke:#181818;stroke-width:0.3499999999999999;" width="72.1" x="1495.55" y="35"/><text fill="#000000" font-family="sans-serif" font-size="9.8" lengthAdjust="spacing" textLength="62.3" x="1500.45" y="50.0732">Questionnaire</text><rect fill="#E2E2F0" height="22.1266" rx="1.75" ry="1.75" style="stroke:#181818;stroke-width:0.3499999999999999;" width="72.1" x="1495.55" y="743.2469"/><text fill="#000000" font-family="sans-serif" font-size="9.8" lengthAdjust="spacing" textLength="62.3" x="1500.45" y="758.3201">Questionnaire</text><rect fill="#E2E2F0" height="22.1266" rx="1.75" ry="1.75" style="stroke:#181818;stroke-width:0.3499999999999999;" width="160.3" x="1574.65" y="743.2469"/><text fill="#000000" font-family="sans-serif" font-size="9.8" lengthAdjust="spacing" textLength="150.5" x="1579.55" y="758.3201">:PersistenceContext&lt;persistence&gt;</text><rect fill="#E2E2F0" height="22.1266" rx="1.75" ry="1.75" style="stroke:#181818;stroke-width:0.3499999999999999;" width="135.1" x="1741.95" y="743.2469"/><text fill="#000000" font-family="sans-serif" font-size="9.8" lengthAdjust="spacing" textLength="125.3" x="1746.85" y="758.3201">:RepositoryFactory&lt;factory&gt;</text><rect fill="#E2E2F0" height="22.1266" rx="1.75" ry="1.75" style="stroke:#181818;stroke-width:0.3499999999999999;" width="91" x="1884.05" y="743.2469"/><text fill="#000000" font-family="sans-serif" font-size="9.8" lengthAdjust="spacing" textLength="81.2" x="1888.95" y="758.3201">:SurveyRepository</text><rect fill="#FFFFFF" height="672.8203" style="stroke:#181818;stroke-width:0.6999999999999998;" width="7" x="33.95" y="64.8266"/><rect fill="#FFFFFF" height="63.7383" style="stroke:#181818;stroke-width:0.6999999999999998;" width="7" x="184.45" y="80.4727"/><rect fill="#FFFFFF" height="42.4922" style="stroke:#181818;stroke-width:0.6999999999999998;" width="7" x="184.45" y="165.457"/><rect fill="#FFFFFF" height="285.5945" style="stroke:#181818;stroke-width:0.6999999999999998;" width="7" x="184.45" y="445.7523"/><rect fill="#FFFFFF" height="21.2461" style="stroke:#181818;stroke-width:0.6999999999999998;" width="7" x="344.75" y="101.7187"/><rect fill="#FFFFFF" height="21.2461" style="stroke:#181818;stroke-width:0.6999999999999998;" width="7" x="344.75" y="424.5062"/><rect fill="#FFFFFF" height="195.7102" style="stroke:#181818;stroke-width:0.6999999999999998;" width="7" x="344.75" y="514.3906"/><rect fill="#FFFFFF" height="209.557" style="stroke:#181818;stroke-width:0.6999999999999998;" width="7" x="441.35" y="214.9492"/><rect fill="#FFFFFF" height="21" style="stroke:#181818;stroke-width:0.6999999999999998;" width="7" x="556.15" y="255.5219"/><rect fill="#FFFFFF" height="21" style="stroke:#181818;stroke-width:0.6999999999999998;" width="7" x="556.15" y="297.768"/><rect fill="#FFFFFF" height="21" style="stroke:#181818;stroke-width:0.6999999999999998;" width="7" x="556.15" y="340.0141"/><rect fill="#FFFFFF" height="21" style="stroke:#181818;stroke-width:0.6999999999999998;" width="7" x="556.15" y="382.2602"/><rect fill="#FFFFFF" height="52.6531" style="stroke:#181818;stroke-width:0.6999999999999998;" width="7" x="1651.3" y="542.6367"/><rect fill="#FFFFFF" height="51.0727" style="stroke:#181818;stroke-width:0.6999999999999998;" width="7" x="1806" y="616.5359"/><rect fill="#FFFFFF" height="21.2461" style="stroke:#181818;stroke-width:0.6999999999999998;" width="7" x="1926.05" y="688.8547"/><polygon fill="#181818" points="176.05,77.6727,183.05,80.4727,176.05,83.2727,178.85,80.4727" style="stroke:#181818;stroke-width:0.6999999999999998;"/><line style="stroke:#181818;stroke-width:0.6999999999999998;" x1="40.95" x2="180.25" y1="80.4727" y2="80.4727"/><text fill="#000000" font-family="sans-serif" font-size="9.1" font-weight="bold" lengthAdjust="spacing" textLength="4.9" x="45.85" y="77.0731">1</text><text fill="#000000" font-family="sans-serif" font-size="9.1" lengthAdjust="spacing" textLength="70.7" x="53.55" y="77.0731">Answer to Survey</text><polygon fill="#181818" points="336.35,98.9187,343.35,101.7187,336.35,104.5187,339.15,101.7187" style="stroke:#181818;stroke-width:0.6999999999999998;"/><line style="stroke:#181818;stroke-width:0.6999999999999998;" x1="191.45" x2="340.55" y1="101.7187" y2="101.7187"/><text fill="#000000" font-family="sans-serif" font-size="9.1" font-weight="bold" lengthAdjust="spacing" textLength="4.9" x="196.35" y="98.3192">2</text><text fill="#000000" font-family="sans-serif" font-size="9.1" lengthAdjust="spacing" textLength="102.2" x="204.05" y="98.3192">findSurveysByCustomer()</text><polygon fill="#181818" points="199.15,120.1648,192.15,122.9648,199.15,125.7648,196.35,122.9648" style="stroke:#181818;stroke-width:0.6999999999999998;"/><line style="stroke:#181818;stroke-width:0.6999999999999998;" x1="194.95" x2="347.55" y1="122.9648" y2="122.9648"/><text fill="#000000" font-family="sans-serif" font-size="9.1" font-weight="bold" lengthAdjust="spacing" textLength="4.9" x="203.35" y="119.5653">3</text><text fill="#000000" font-family="sans-serif" font-size="9.1" lengthAdjust="spacing" textLength="30.8" x="211.05" y="119.5653">surveys</text><polygon fill="#181818" points="48.65,141.4109,41.65,144.2109,48.65,147.0109,45.85,144.2109" style="stroke:#181818;stroke-width:0.6999999999999998;"/><line style="stroke:#181818;stroke-width:0.6999999999999998;stroke-dasharray:2.0,2.0;" x1="44.45" x2="187.25" y1="144.2109" y2="144.2109"/><text fill="#000000" font-family="sans-serif" font-size="9.1" font-weight="bold" lengthAdjust="spacing" textLength="4.9" x="52.85" y="140.8114">4</text><text fill="#000000" font-family="sans-serif" font-size="9.1" lengthAdjust="spacing" textLength="119" x="60.55" y="140.8114">Show list of Survey to answer</text><polygon fill="#181818" points="176.05,162.657,183.05,165.457,176.05,168.257,178.85,165.457" style="stroke:#181818;stroke-width:0.6999999999999998;"/><line style="stroke:#181818;stroke-width:0.6999999999999998;" x1="40.95" x2="180.25" y1="165.457" y2="165.457"/><text fill="#000000" font-family="sans-serif" font-size="9.1" font-weight="bold" lengthAdjust="spacing" textLength="4.9" x="45.85" y="162.0575">5</text><text fill="#000000" font-family="sans-serif" font-size="9.1" lengthAdjust="spacing" textLength="122.5" x="53.55" y="162.0575">selects survey to be answered</text><polygon fill="#181818" points="339.85,183.9031,346.85,186.7031,339.85,189.5031,342.65,186.7031" style="stroke:#181818;stroke-width:0.6999999999999998;"/><line style="stroke:#181818;stroke-width:0.6999999999999998;" x1="191.45" x2="344.05" y1="186.7031" y2="186.7031"/><text fill="#000000" font-family="sans-serif" font-size="9.1" font-weight="bold" lengthAdjust="spacing" textLength="4.9" x="196.35" y="183.3036">6</text><text fill="#000000" font-family="sans-serif" font-size="9.1" lengthAdjust="spacing" textLength="132.3" x="204.05" y="183.3036">survey =  surveyToBeAnswered()</text><polygon fill="#181818" points="390.25,205.1492,397.25,207.9492,390.25,210.7492,393.05,207.9492" style="stroke:#181818;stroke-width:0.6999999999999998;"/><line style="stroke:#181818;stroke-width:0.6999999999999998;" x1="187.95" x2="394.45" y1="207.9492" y2="207.9492"/><text fill="#000000" font-family="sans-serif" font-size="9.1" font-weight="bold" lengthAdjust="spacing" textLength="4.9" x="192.85" y="204.5497">7</text><text fill="#000000" font-family="sans-serif" font-size="9.1" lengthAdjust="spacing" textLength="95.2" x="200.55" y="204.5497">create(survey.content())</text><rect fill="#E2E2F0" height="22.1266" rx="1.75" ry="1.75" style="stroke:#181818;stroke-width:0.3499999999999999;" width="92.4" x="398.65" y="192.3031"/><text fill="#000000" font-family="sans-serif" font-size="9.8" lengthAdjust="spacing" textLength="82.6" x="403.55" y="207.3764">:LabeledExprLexer</text><path d="M7,227.0297 L58.1,227.0297 L58.1,232.8758 L51.1,239.8758 L7,239.8758 L7,227.0297 " fill="#EEEEEE" style="stroke:#000000;stroke-width:1.0499999999999998;"/><rect fill="none" height="245.5687" style="stroke:#000000;stroke-width:1.0499999999999998;" width="589.05" x="7" y="227.0297"/><text fill="#000000" font-family="sans-serif" font-size="9.1" font-weight="bold" lengthAdjust="spacing" textLength="19.6" x="17.5" y="237.1763">loop</text><text fill="#000000" font-family="sans-serif" font-size="7.7" font-weight="bold" lengthAdjust="spacing" textLength="126" x="68.6" y="236.4229">[for each question in the survey]</text><polygon fill="#181818" points="547.75,252.7219,554.75,255.5219,547.75,258.3219,550.55,255.5219" style="stroke:#181818;stroke-width:0.6999999999999998;"/><line style="stroke:#181818;stroke-width:0.6999999999999998;" x1="448.35" x2="551.95" y1="255.5219" y2="255.5219"/><text fill="#000000" font-family="sans-serif" font-size="9.1" font-weight="bold" lengthAdjust="spacing" textLength="4.9" x="453.25" y="252.1224">8</text><text fill="#000000" font-family="sans-serif" font-size="9.1" lengthAdjust="spacing" textLength="51.8" x="460.95" y="252.1224">visitSection()</text><polygon fill="#181818" points="547.75,294.968,554.75,297.768,547.75,300.568,550.55,297.768" style="stroke:#181818;stroke-width:0.6999999999999998;"/><line style="stroke:#181818;stroke-width:0.6999999999999998;" x1="448.35" x2="551.95" y1="297.768" y2="297.768"/><text fill="#000000" font-family="sans-serif" font-size="9.1" font-weight="bold" lengthAdjust="spacing" textLength="4.9" x="453.25" y="294.3685">9</text><text fill="#000000" font-family="sans-serif" font-size="9.1" lengthAdjust="spacing" textLength="57.4" x="460.95" y="294.3685">visitQuestion()</text><polygon fill="#181818" points="547.75,337.2141,554.75,340.0141,547.75,342.8141,550.55,340.0141" style="stroke:#181818;stroke-width:0.6999999999999998;"/><line style="stroke:#181818;stroke-width:0.6999999999999998;" x1="448.35" x2="551.95" y1="340.0141" y2="340.0141"/><text fill="#000000" font-family="sans-serif" font-size="9.1" font-weight="bold" lengthAdjust="spacing" textLength="9.8" x="453.25" y="336.6146">10</text><text fill="#000000" font-family="sans-serif" font-size="9.1" lengthAdjust="spacing" textLength="81.9" x="465.85" y="336.6146">treatObligatoriness()</text><polygon fill="#181818" points="547.75,379.4602,554.75,382.2602,547.75,385.0602,550.55,382.2602" style="stroke:#181818;stroke-width:0.6999999999999998;"/><line style="stroke:#181818;stroke-width:0.6999999999999998;" x1="448.35" x2="551.95" y1="382.2602" y2="382.2602"/><text fill="#000000" font-family="sans-serif" font-size="9.1" font-weight="bold" lengthAdjust="spacing" textLength="9.8" x="453.25" y="378.8606">11</text><text fill="#000000" font-family="sans-serif" font-size="9.1" lengthAdjust="spacing" textLength="79.8" x="465.85" y="378.8606">treatQuestionType()</text><polygon fill="#181818" points="359.45,421.7062,352.45,424.5062,359.45,427.3062,356.65,424.5062" style="stroke:#181818;stroke-width:0.6999999999999998;"/><line style="stroke:#181818;stroke-width:0.6999999999999998;" x1="355.25" x2="444.15" y1="424.5062" y2="424.5062"/><text fill="#000000" font-family="sans-serif" font-size="9.1" font-weight="bold" lengthAdjust="spacing" textLength="9.8" x="363.65" y="421.1067">12</text><text fill="#000000" font-family="sans-serif" font-size="9.1" lengthAdjust="spacing" textLength="34.3" x="376.25" y="421.1067">question</text><polygon fill="#181818" points="199.15,442.9523,192.15,445.7523,199.15,448.5523,196.35,445.7523" style="stroke:#181818;stroke-width:0.6999999999999998;"/><line style="stroke:#181818;stroke-width:0.6999999999999998;" x1="194.95" x2="347.55" y1="445.7523" y2="445.7523"/><text fill="#000000" font-family="sans-serif" font-size="9.1" font-weight="bold" lengthAdjust="spacing" textLength="9.8" x="203.35" y="442.3528">13</text><text fill="#000000" font-family="sans-serif" font-size="9.1" lengthAdjust="spacing" textLength="58.1" x="215.95" y="442.3528">show question</text><polygon fill="#181818" points="176.05,464.1984,183.05,466.9984,176.05,469.7984,178.85,466.9984" style="stroke:#181818;stroke-width:0.6999999999999998;"/><line style="stroke:#181818;stroke-width:0.6999999999999998;" x1="40.95" x2="180.25" y1="466.9984" y2="466.9984"/><text fill="#000000" font-family="sans-serif" font-size="9.1" font-weight="bold" lengthAdjust="spacing" textLength="9.8" x="45.85" y="463.5989">14</text><text fill="#000000" font-family="sans-serif" font-size="9.1" lengthAdjust="spacing" textLength="72.8" x="58.45" y="463.5989">answers Question</text><polygon fill="#181818" points="339.85,490.3445,346.85,493.1445,339.85,495.9445,342.65,493.1445" style="stroke:#181818;stroke-width:0.6999999999999998;"/><line style="stroke:#181818;stroke-width:0.6999999999999998;" x1="191.45" x2="344.05" y1="493.1445" y2="493.1445"/><text fill="#000000" font-family="sans-serif" font-size="9.1" font-weight="bold" lengthAdjust="spacing" textLength="9.8" x="196.35" y="489.745">15</text><text fill="#000000" font-family="sans-serif" font-size="9.1" lengthAdjust="spacing" textLength="53.2" x="208.95" y="489.745">setAnswers()</text><polygon fill="#181818" points="336.35,511.5906,343.35,514.3906,336.35,517.1906,339.15,514.3906" style="stroke:#181818;stroke-width:0.6999999999999998;"/><line style="stroke:#181818;stroke-width:0.6999999999999998;" x1="191.45" x2="340.55" y1="514.3906" y2="514.3906"/><text fill="#000000" font-family="sans-serif" font-size="9.1" font-weight="bold" lengthAdjust="spacing" textLength="9.8" x="196.35" y="510.9911">16</text><text fill="#000000" font-family="sans-serif" font-size="9.1" lengthAdjust="spacing" textLength="51.1" x="208.95" y="510.9911">saveSurvey()</text><polygon fill="#181818" points="1566.25,532.8367,1573.25,535.6367,1566.25,538.4367,1569.05,535.6367" style="stroke:#181818;stroke-width:0.6999999999999998;"/><line style="stroke:#181818;stroke-width:0.6999999999999998;" x1="351.75" x2="1570.45" y1="535.6367" y2="535.6367"/><text fill="#000000" font-family="sans-serif" font-size="9.1" font-weight="bold" lengthAdjust="spacing" textLength="9.8" x="356.65" y="532.2372">17</text><text fill="#000000" font-family="sans-serif" font-size="9.1" lengthAdjust="spacing" textLength="52.5" x="369.25" y="532.2372">repositories()</text><rect fill="#E2E2F0" height="22.1266" rx="1.75" ry="1.75" style="stroke:#181818;stroke-width:0.3499999999999999;" width="160.3" x="1574.65" y="519.9906"/><text fill="#000000" font-family="sans-serif" font-size="9.8" lengthAdjust="spacing" textLength="150.5" x="1579.55" y="535.0639">:PersistenceContext&lt;persistence&gt;</text><polygon fill="#181818" points="1733.55,562.6633,1740.55,565.4633,1733.55,568.2633,1736.35,565.4633" style="stroke:#181818;stroke-width:0.6999999999999998;"/><line style="stroke:#181818;stroke-width:0.6999999999999998;" x1="1658.3" x2="1737.75" y1="565.4633" y2="565.4633"/><text fill="#000000" font-family="sans-serif" font-size="9.1" font-weight="bold" lengthAdjust="spacing" textLength="9.8" x="1663.2" y="562.0638">18</text><text fill="#000000" font-family="sans-serif" font-size="9.1" lengthAdjust="spacing" textLength="25.2" x="1675.8" y="562.0638">create</text><rect fill="#E2E2F0" height="22.1266" rx="1.75" ry="1.75" style="stroke:#181818;stroke-width:0.3499999999999999;" width="135.1" x="1741.95" y="549.8172"/><text fill="#000000" font-family="sans-serif" font-size="9.8" lengthAdjust="spacing" textLength="125.3" x="1746.85" y="564.8904">:RepositoryFactory&lt;factory&gt;</text><polygon fill="#181818" points="359.45,592.4898,352.45,595.2898,359.45,598.0898,356.65,595.2898" style="stroke:#181818;stroke-width:0.6999999999999998;"/><line style="stroke:#181818;stroke-width:0.6999999999999998;" x1="355.25" x2="1654.1" y1="595.2898" y2="595.2898"/><text fill="#000000" font-family="sans-serif" font-size="9.1" font-weight="bold" lengthAdjust="spacing" textLength="9.8" x="363.65" y="591.8903">19</text><text fill="#000000" font-family="sans-serif" font-size="9.1" lengthAdjust="spacing" textLength="27.3" x="376.25" y="591.8903">factory</text><polygon fill="#181818" points="1797.6,613.7359,1804.6,616.5359,1797.6,619.3359,1800.4,616.5359" style="stroke:#181818;stroke-width:0.6999999999999998;"/><line style="stroke:#181818;stroke-width:0.6999999999999998;" x1="351.75" x2="1801.8" y1="616.5359" y2="616.5359"/><text fill="#000000" font-family="sans-serif" font-size="9.1" font-weight="bold" lengthAdjust="spacing" textLength="9.8" x="356.65" y="613.1364">20</text><text fill="#000000" font-family="sans-serif" font-size="9.1" lengthAdjust="spacing" textLength="36.4" x="369.25" y="613.1364">surveys()</text><polygon fill="#181818" points="1875.65,634.982,1882.65,637.782,1875.65,640.582,1878.45,637.782" style="stroke:#181818;stroke-width:0.6999999999999998;"/><line style="stroke:#181818;stroke-width:0.6999999999999998;" x1="1813" x2="1879.85" y1="637.782" y2="637.782"/><text fill="#000000" font-family="sans-serif" font-size="9.1" font-weight="bold" lengthAdjust="spacing" textLength="9.8" x="1817.9" y="634.3825">21</text><text fill="#000000" font-family="sans-serif" font-size="9.1" lengthAdjust="spacing" textLength="25.2" x="1830.5" y="634.3825">create</text><rect fill="#E2E2F0" height="22.1266" rx="1.75" ry="1.75" style="stroke:#181818;stroke-width:0.3499999999999999;" width="91" x="1884.05" y="622.1359"/><text fill="#000000" font-family="sans-serif" font-size="9.8" lengthAdjust="spacing" textLength="81.2" x="1888.95" y="637.2092">:SurveyRepository</text><polygon fill="#181818" points="359.45,664.8086,352.45,667.6086,359.45,670.4086,356.65,667.6086" style="stroke:#181818;stroke-width:0.6999999999999998;"/><line style="stroke:#181818;stroke-width:0.6999999999999998;" x1="355.25" x2="1808.8" y1="667.6086" y2="667.6086"/><text fill="#000000" font-family="sans-serif" font-size="9.1" font-weight="bold" lengthAdjust="spacing" textLength="9.8" x="363.65" y="664.2091">22</text><text fill="#000000" font-family="sans-serif" font-size="9.1" lengthAdjust="spacing" textLength="69.3" x="376.25" y="664.2091">surveyRepository</text><polygon fill="#181818" points="1917.65,686.0547,1924.65,688.8547,1917.65,691.6547,1920.45,688.8547" style="stroke:#181818;stroke-width:0.6999999999999998;"/><line style="stroke:#181818;stroke-width:0.6999999999999998;" x1="351.75" x2="1921.85" y1="688.8547" y2="688.8547"/><text fill="#000000" font-family="sans-serif" font-size="9.1" font-weight="bold" lengthAdjust="spacing" textLength="9.8" x="356.65" y="685.4552">23</text><text fill="#000000" font-family="sans-serif" font-size="9.1" lengthAdjust="spacing" textLength="49.7" x="369.25" y="685.4552">save(survey)</text><polygon fill="#181818" points="199.15,707.3008,192.15,710.1008,199.15,712.9008,196.35,710.1008" style="stroke:#181818;stroke-width:0.6999999999999998;"/><line style="stroke:#181818;stroke-width:0.6999999999999998;" x1="194.95" x2="347.55" y1="710.1008" y2="710.1008"/><text fill="#000000" font-family="sans-serif" font-size="9.1" font-weight="bold" lengthAdjust="spacing" textLength="9.8" x="203.35" y="706.7013">24</text><text fill="#000000" font-family="sans-serif" font-size="9.1" lengthAdjust="spacing" textLength="49.7" x="215.95" y="706.7013">surveyString</text><polygon fill="#181818" points="48.65,728.5469,41.65,731.3469,48.65,734.1469,45.85,731.3469" style="stroke:#181818;stroke-width:0.6999999999999998;"/><line style="stroke:#181818;stroke-width:0.6999999999999998;" x1="44.45" x2="187.25" y1="731.3469" y2="731.3469"/><text fill="#000000" font-family="sans-serif" font-size="9.1" font-weight="bold" lengthAdjust="spacing" textLength="9.8" x="52.85" y="727.9474">25</text><text fill="#000000" font-family="sans-serif" font-size="9.1" lengthAdjust="spacing" textLength="112" x="65.45" y="727.9474">presents the survey created</text><!--MD5=[b9627b0327bc9f0e9bb7faa4684bd065]
@startuml
autonumber
actor "Customer" as MEDLT
participant ":AnswerToSurveyUI" as SYS
participant "Survey Controller" as CTRL
participant ":LabeledExprLexer" as EXPR
participant ":EvalVisitor" as EVAL
participant ":QuestionDTOParser" as QDTOP
participant ":SectionDTO" as SDTO
participant ":SectionDTOParser" as SDTOP
participant ":QuestionnaireDTO" as QTDTO
participant ":QuestionnaireDTOParser" as QTDTOP
participant ":SurveyDTO" as SURDTO
participant ":SurveyDTOParser" as SURDTOP
participant "Content" as CONTENT
participant "Survey" as SUR
participant "Question" as QUESTION
participant "Section" as SECTION
participant "Questionnaire" as QUESTIONNAIRE
participant ":PersistenceContext<persistence>" as PC
participant ":RepositoryFactory<factory>" as RF
participant ":SurveyRepository" as CR



activate MEDLT
MEDLT-> SYS : Answer to Survey

activate SYS
SYS-> CTRL : findSurveysByCustomer()

activate CTRL
CTRL -> SYS: surveys
deactivate CTRL

SYS - -> MEDLT : Show list of Survey to answer

deactivate SYS



MEDLT-> SYS : selects survey to be answered

activate SYS
SYS-> CTRL :survey =  surveyToBeAnswered()



SYS-> EXPR** : create(survey.content())
deactivate SYS

loop for each question in the survey

activate EXPR
EXPR->EVAL : visitSection()

activate EVAL
deactivate EVAL

EXPR->EVAL : visitQuestion()
activate EVAL
deactivate EVAL
EXPR->EVAL : treatObligatoriness()
activate EVAL
deactivate EVAL
EXPR->EVAL : treatQuestionType()
activate EVAL
deactivate EVAL

EXPR->CTRL : question
deactivate EXPR


activate CTRL


CTRL->SYS : show question
deactivate CTRL
activate SYS

MEDLT-> SYS : answers Question
end loop

SYS -> CTRL : setAnswers()

SYS -> CTRL : saveSurvey()



activate CTRL


CTRL-> PC**: repositories()
activate PC
PC-> RF**: create
PC-> CTRL: factory
deactivate PC

CTRL-> RF: surveys()
activate RF
RF->CR**: create

RF->CTRL: surveyRepository
deactivate RF

CTRL->CR: save(survey)
activate CR

CTRL->SYS:surveyString
deactivate CR
deactivate CTRL

deactivate PC







deactivate CTRL
SYS -> MEDLT : presents the survey created
deactivate SYS
@enduml

PlantUML version 1.2022.5(Sat Apr 30 11:55:52 BST 2022)
(GPL source distribution)
Java Runtime: OpenJDK Runtime Environment
JVM: OpenJDK 64-Bit Server VM
Default Encoding: Cp1252
Language: pt
Country: PT
--></g></svg>