<?xml version="1.0" encoding="UTF-8" standalone="no"?><svg xmlns="http://www.w3.org/2000/svg" xmlns:xlink="http://www.w3.org/1999/xlink" contentStyleType="text/css" height="1180px" preserveAspectRatio="none" style="width:2109px;height:1180px;background:#FFFFFF;" version="1.1" viewBox="0 0 2109 1180" width="2109px" zoomAndPan="magnify"><defs/><g><!--MD5=[1361d45abd699e4d02c976044ca5633a]
class AddCustomerUI--><g id="elem_AddCustomerUI"><rect codeLine="3" fill="#F1F1F1" height="48" id="AddCustomerUI" rx="2.5" ry="2.5" style="stroke:#181818;stroke-width:0.5;" width="143" x="370.5" y="7"/><ellipse cx="385.5" cy="23" fill="#ADD1B2" rx="11" ry="11" style="stroke:#181818;stroke-width:1.0;"/><path d="M387.8438,18.6719 C386.9063,18.2344 386.3125,18.0938 385.4375,18.0938 C382.8125,18.0938 380.8125,20.1719 380.8125,22.8906 L380.8125,24.0156 C380.8125,26.5938 382.9219,28.4844 385.8125,28.4844 C387.0313,28.4844 388.1875,28.1875 388.9375,27.6406 C389.5156,27.2344 389.8438,26.7813 389.8438,26.3906 C389.8438,25.9375 389.4531,25.5469 388.9844,25.5469 C388.7656,25.5469 388.5625,25.625 388.375,25.8125 C387.9219,26.2969 387.9219,26.2969 387.7344,26.3906 C387.3125,26.6563 386.625,26.7813 385.8594,26.7813 C383.8125,26.7813 382.5156,25.6875 382.5156,23.9844 L382.5156,22.8906 C382.5156,21.1094 383.7656,19.7969 385.5,19.7969 C386.0781,19.7969 386.6875,19.9531 387.1563,20.2031 C387.6406,20.4844 387.8125,20.7031 387.9063,21.1094 C387.9688,21.5156 388,21.6406 388.1406,21.7656 C388.2813,21.9063 388.5156,22.0156 388.7344,22.0156 C389,22.0156 389.2656,21.875 389.4375,21.6563 C389.5469,21.5 389.5781,21.3125 389.5781,20.8906 L389.5781,19.4688 C389.5781,19.0313 389.5625,18.9063 389.4688,18.75 C389.3125,18.4844 389.0313,18.3438 388.7344,18.3438 C388.4375,18.3438 388.2344,18.4375 388.0156,18.75 L387.8438,18.6719 Z " fill="#000000"/><text fill="#000000" font-family="sans-serif" font-size="14" lengthAdjust="spacing" textLength="111" x="399.5" y="27.8467">AddCustomerUI</text><line style="stroke:#181818;stroke-width:0.5;" x1="371.5" x2="512.5" y1="39" y2="39"/><line style="stroke:#181818;stroke-width:0.5;" x1="371.5" x2="512.5" y1="47" y2="47"/></g><!--MD5=[46ecbe5be7f1f8b4b6de668608619e15]
class AddCustomerController--><g id="elem_AddCustomerController"><rect codeLine="6" fill="#F1F1F1" height="129.4844" id="AddCustomerController" rx="2.5" ry="2.5" style="stroke:#181818;stroke-width:0.5;" width="584" x="150" y="116"/><ellipse cx="352.25" cy="132" fill="#ADD1B2" rx="11" ry="11" style="stroke:#181818;stroke-width:1.0;"/><path d="M354.5938,127.6719 C353.6563,127.2344 353.0625,127.0938 352.1875,127.0938 C349.5625,127.0938 347.5625,129.1719 347.5625,131.8906 L347.5625,133.0156 C347.5625,135.5938 349.6719,137.4844 352.5625,137.4844 C353.7813,137.4844 354.9375,137.1875 355.6875,136.6406 C356.2656,136.2344 356.5938,135.7813 356.5938,135.3906 C356.5938,134.9375 356.2031,134.5469 355.7344,134.5469 C355.5156,134.5469 355.3125,134.625 355.125,134.8125 C354.6719,135.2969 354.6719,135.2969 354.4844,135.3906 C354.0625,135.6563 353.375,135.7813 352.6094,135.7813 C350.5625,135.7813 349.2656,134.6875 349.2656,132.9844 L349.2656,131.8906 C349.2656,130.1094 350.5156,128.7969 352.25,128.7969 C352.8281,128.7969 353.4375,128.9531 353.9063,129.2031 C354.3906,129.4844 354.5625,129.7031 354.6563,130.1094 C354.7188,130.5156 354.75,130.6406 354.8906,130.7656 C355.0313,130.9063 355.2656,131.0156 355.4844,131.0156 C355.75,131.0156 356.0156,130.875 356.1875,130.6563 C356.2969,130.5 356.3281,130.3125 356.3281,129.8906 L356.3281,128.4688 C356.3281,128.0313 356.3125,127.9063 356.2188,127.75 C356.0625,127.4844 355.7813,127.3438 355.4844,127.3438 C355.1875,127.3438 354.9844,127.4375 354.7656,127.75 L354.5938,127.6719 Z " fill="#000000"/><text fill="#000000" font-family="sans-serif" font-size="14" lengthAdjust="spacing" textLength="171" x="372.75" y="136.8467">AddCustomerController</text><line style="stroke:#181818;stroke-width:0.5;" x1="151" x2="733" y1="148" y2="148"/><line style="stroke:#181818;stroke-width:0.5;" x1="151" x2="733" y1="156" y2="156"/><text fill="#000000" font-family="sans-serif" font-size="14" lengthAdjust="spacing" textLength="572" x="156" y="172.9951">+registerCustomer(name, vat, email, phone Number, birthday, gender, address)</text><text fill="#000000" font-family="sans-serif" font-size="14" lengthAdjust="spacing" textLength="4" x="156" y="189.292"> </text><text fill="#000000" font-family="sans-serif" font-size="14" lengthAdjust="spacing" textLength="108" x="156" y="205.5889">+repositories()</text><text fill="#000000" font-family="sans-serif" font-size="14" lengthAdjust="spacing" textLength="96" x="156" y="221.8857">+customers()</text><text fill="#000000" font-family="sans-serif" font-size="14" lengthAdjust="spacing" textLength="123" x="156" y="238.1826">+saveCustomer()</text></g><!--MD5=[53f6a92bd21ca2f2960392a061f3a1c6]
class Name--><g id="elem_Name"><rect codeLine="14" fill="#F1F1F1" height="194.6719" id="Name" rx="2.5" ry="2.5" style="stroke:#181818;stroke-width:0.5;" width="316" x="538" y="387"/><ellipse cx="671.25" cy="403" fill="#ADD1B2" rx="11" ry="11" style="stroke:#181818;stroke-width:1.0;"/><path d="M673.5938,398.6719 C672.6563,398.2344 672.0625,398.0938 671.1875,398.0938 C668.5625,398.0938 666.5625,400.1719 666.5625,402.8906 L666.5625,404.0156 C666.5625,406.5938 668.6719,408.4844 671.5625,408.4844 C672.7813,408.4844 673.9375,408.1875 674.6875,407.6406 C675.2656,407.2344 675.5938,406.7813 675.5938,406.3906 C675.5938,405.9375 675.2031,405.5469 674.7344,405.5469 C674.5156,405.5469 674.3125,405.625 674.125,405.8125 C673.6719,406.2969 673.6719,406.2969 673.4844,406.3906 C673.0625,406.6563 672.375,406.7813 671.6094,406.7813 C669.5625,406.7813 668.2656,405.6875 668.2656,403.9844 L668.2656,402.8906 C668.2656,401.1094 669.5156,399.7969 671.25,399.7969 C671.8281,399.7969 672.4375,399.9531 672.9063,400.2031 C673.3906,400.4844 673.5625,400.7031 673.6563,401.1094 C673.7188,401.5156 673.75,401.6406 673.8906,401.7656 C674.0313,401.9063 674.2656,402.0156 674.4844,402.0156 C674.75,402.0156 675.0156,401.875 675.1875,401.6563 C675.2969,401.5 675.3281,401.3125 675.3281,400.8906 L675.3281,399.4688 C675.3281,399.0313 675.3125,398.9063 675.2188,398.75 C675.0625,398.4844 674.7813,398.3438 674.4844,398.3438 C674.1875,398.3438 673.9844,398.4375 673.7656,398.75 L673.5938,398.6719 Z " fill="#000000"/><text fill="#000000" font-family="sans-serif" font-size="14" lengthAdjust="spacing" textLength="41" x="691.75" y="407.8467">Name</text><line style="stroke:#181818;stroke-width:0.5;" x1="539" x2="853" y1="419" y2="419"/><text fill="#000000" font-family="sans-serif" font-size="14" lengthAdjust="spacing" textLength="125" x="544" y="435.9951">-String firstName</text><text fill="#000000" font-family="sans-serif" font-size="14" lengthAdjust="spacing" textLength="121" x="544" y="452.292">-String lastName</text><line style="stroke:#181818;stroke-width:0.5;" x1="539" x2="853" y1="459.5938" y2="459.5938"/><text fill="#000000" font-family="sans-serif" font-size="14" lengthAdjust="spacing" textLength="304" x="544" y="476.5889">+Name(String firstName, String lastName)</text><text fill="#000000" font-family="sans-serif" font-size="14" lengthAdjust="spacing" textLength="75" x="544" y="492.8857">+valueOf()</text><text fill="#000000" font-family="sans-serif" font-size="14" lengthAdjust="spacing" textLength="92" x="544" y="509.1826">+firstName()</text><text fill="#000000" font-family="sans-serif" font-size="14" lengthAdjust="spacing" textLength="88" x="544" y="525.4795">+lastName()</text><text fill="#000000" font-family="sans-serif" font-size="14" lengthAdjust="spacing" textLength="128" x="544" y="541.7764">+equals(Object o)</text><text fill="#000000" font-family="sans-serif" font-size="14" lengthAdjust="spacing" textLength="91" x="544" y="558.0732">+hashCode()</text><text fill="#000000" font-family="sans-serif" font-size="14" lengthAdjust="spacing" textLength="81" x="544" y="574.3701">+toString()</text></g><!--MD5=[c0aca928cee7e4fe84ef99b6c1e08476]
class Vat--><g id="elem_Vat"><rect codeLine="27" fill="#F1F1F1" height="162.0781" id="Vat" rx="2.5" ry="2.5" style="stroke:#181818;stroke-width:0.5;" width="149" x="889.5" y="403.5"/><ellipse cx="947.25" cy="419.5" fill="#ADD1B2" rx="11" ry="11" style="stroke:#181818;stroke-width:1.0;"/><path d="M949.5938,415.1719 C948.6563,414.7344 948.0625,414.5938 947.1875,414.5938 C944.5625,414.5938 942.5625,416.6719 942.5625,419.3906 L942.5625,420.5156 C942.5625,423.0938 944.6719,424.9844 947.5625,424.9844 C948.7813,424.9844 949.9375,424.6875 950.6875,424.1406 C951.2656,423.7344 951.5938,423.2813 951.5938,422.8906 C951.5938,422.4375 951.2031,422.0469 950.7344,422.0469 C950.5156,422.0469 950.3125,422.125 950.125,422.3125 C949.6719,422.7969 949.6719,422.7969 949.4844,422.8906 C949.0625,423.1563 948.375,423.2813 947.6094,423.2813 C945.5625,423.2813 944.2656,422.1875 944.2656,420.4844 L944.2656,419.3906 C944.2656,417.6094 945.5156,416.2969 947.25,416.2969 C947.8281,416.2969 948.4375,416.4531 948.9063,416.7031 C949.3906,416.9844 949.5625,417.2031 949.6563,417.6094 C949.7188,418.0156 949.75,418.1406 949.8906,418.2656 C950.0313,418.4063 950.2656,418.5156 950.4844,418.5156 C950.75,418.5156 951.0156,418.375 951.1875,418.1563 C951.2969,418 951.3281,417.8125 951.3281,417.3906 L951.3281,415.9688 C951.3281,415.5313 951.3125,415.4063 951.2188,415.25 C951.0625,414.9844 950.7813,414.8438 950.4844,414.8438 C950.1875,414.8438 949.9844,414.9375 949.7656,415.25 L949.5938,415.1719 Z " fill="#000000"/><text fill="#000000" font-family="sans-serif" font-size="14" lengthAdjust="spacing" textLength="25" x="967.75" y="424.3467">Vat</text><line style="stroke:#181818;stroke-width:0.5;" x1="890.5" x2="1037.5" y1="435.5" y2="435.5"/><text fill="#000000" font-family="sans-serif" font-size="14" lengthAdjust="spacing" textLength="77" x="895.5" y="452.4951">-long vatId</text><line style="stroke:#181818;stroke-width:0.5;" x1="890.5" x2="1037.5" y1="459.7969" y2="459.7969"/><text fill="#000000" font-family="sans-serif" font-size="14" lengthAdjust="spacing" textLength="137" x="895.5" y="476.792">+Name(Long vatId)</text><text fill="#000000" font-family="sans-serif" font-size="14" lengthAdjust="spacing" textLength="75" x="895.5" y="493.0889">+valueOf()</text><text fill="#000000" font-family="sans-serif" font-size="14" lengthAdjust="spacing" textLength="57" x="895.5" y="509.3857">+vatId()</text><text fill="#000000" font-family="sans-serif" font-size="14" lengthAdjust="spacing" textLength="128" x="895.5" y="525.6826">+equals(Object o)</text><text fill="#000000" font-family="sans-serif" font-size="14" lengthAdjust="spacing" textLength="91" x="895.5" y="541.9795">+hashCode()</text><text fill="#000000" font-family="sans-serif" font-size="14" lengthAdjust="spacing" textLength="81" x="895.5" y="558.2764">+toString()</text></g><!--MD5=[2ce0c9fb7f55b1e256ab28a8ea6b25ec]
class Customer--><g id="elem_Customer"><rect codeLine="39" fill="#F1F1F1" height="292.4531" id="Customer" rx="2.5" ry="2.5" style="stroke:#181818;stroke-width:0.5;" width="332" x="870" y="724"/><ellipse cx="996.75" cy="740" fill="#ADD1B2" rx="11" ry="11" style="stroke:#181818;stroke-width:1.0;"/><path d="M999.0938,735.6719 C998.1563,735.2344 997.5625,735.0938 996.6875,735.0938 C994.0625,735.0938 992.0625,737.1719 992.0625,739.8906 L992.0625,741.0156 C992.0625,743.5938 994.1719,745.4844 997.0625,745.4844 C998.2813,745.4844 999.4375,745.1875 1000.1875,744.6406 C1000.7656,744.2344 1001.0938,743.7813 1001.0938,743.3906 C1001.0938,742.9375 1000.7031,742.5469 1000.2344,742.5469 C1000.0156,742.5469 999.8125,742.625 999.625,742.8125 C999.1719,743.2969 999.1719,743.2969 998.9844,743.3906 C998.5625,743.6563 997.875,743.7813 997.1094,743.7813 C995.0625,743.7813 993.7656,742.6875 993.7656,740.9844 L993.7656,739.8906 C993.7656,738.1094 995.0156,736.7969 996.75,736.7969 C997.3281,736.7969 997.9375,736.9531 998.4063,737.2031 C998.8906,737.4844 999.0625,737.7031 999.1563,738.1094 C999.2188,738.5156 999.25,738.6406 999.3906,738.7656 C999.5313,738.9063 999.7656,739.0156 999.9844,739.0156 C1000.25,739.0156 1000.5156,738.875 1000.6875,738.6563 C1000.7969,738.5 1000.8281,738.3125 1000.8281,737.8906 L1000.8281,736.4688 C1000.8281,736.0313 1000.8125,735.9063 1000.7188,735.75 C1000.5625,735.4844 1000.2813,735.3438 999.9844,735.3438 C999.6875,735.3438 999.4844,735.4375 999.2656,735.75 L999.0938,735.6719 Z " fill="#000000"/><text fill="#000000" font-family="sans-serif" font-size="14" lengthAdjust="spacing" textLength="70" x="1017.25" y="744.8467">Customer</text><line style="stroke:#181818;stroke-width:0.5;" x1="871" x2="1201" y1="756" y2="756"/><text fill="#000000" font-family="sans-serif" font-size="14" lengthAdjust="spacing" textLength="96" x="876" y="772.9951">-Name name;</text><text fill="#000000" font-family="sans-serif" font-size="14" lengthAdjust="spacing" textLength="63" x="876" y="789.292">-Vat vat;</text><text fill="#000000" font-family="sans-serif" font-size="14" lengthAdjust="spacing" textLength="136" x="876" y="805.5889">-Date dateOfBirth;</text><text fill="#000000" font-family="sans-serif" font-size="14" lengthAdjust="spacing" textLength="220" x="876" y="821.8857">-PhoneNumber phoneNumber;</text><text fill="#000000" font-family="sans-serif" font-size="14" lengthAdjust="spacing" textLength="127" x="876" y="838.1826">-Address address;</text><line style="stroke:#181818;stroke-width:0.5;" x1="871" x2="1201" y1="845.4844" y2="845.4844"/><text fill="#000000" font-family="sans-serif" font-size="14" lengthAdjust="spacing" textLength="320" x="876" y="862.4795">+Customer(name, vat, email, phoneNumber)</text><text fill="#000000" font-family="sans-serif" font-size="14" lengthAdjust="spacing" textLength="4" x="876" y="878.7764"> </text><text fill="#000000" font-family="sans-serif" font-size="14" lengthAdjust="spacing" textLength="61" x="876" y="895.0732">+name()</text><text fill="#000000" font-family="sans-serif" font-size="14" lengthAdjust="spacing" textLength="44" x="876" y="911.3701">+vat()</text><text fill="#000000" font-family="sans-serif" font-size="14" lengthAdjust="spacing" textLength="60" x="876" y="927.667">+email()</text><text fill="#000000" font-family="sans-serif" font-size="14" lengthAdjust="spacing" textLength="124" x="876" y="943.9639">+phoneNumber()</text><text fill="#000000" font-family="sans-serif" font-size="14" lengthAdjust="spacing" textLength="4" x="876" y="960.2607"> </text><text fill="#000000" font-family="sans-serif" font-size="14" lengthAdjust="spacing" textLength="269" x="876" y="976.5576">+dateOfBirth(LocalDate dateOfBirth)</text><text fill="#000000" font-family="sans-serif" font-size="14" lengthAdjust="spacing" textLength="180" x="876" y="992.8545">+gender(Gender gender)</text><text fill="#000000" font-family="sans-serif" font-size="14" lengthAdjust="spacing" textLength="192" x="876" y="1009.1514">+address(Address address)</text></g><!--MD5=[0f39e4cb6f03951afbf6d14bd2505654]
class Address--><g id="elem_Address"><rect codeLine="59" fill="#F1F1F1" height="325.0469" id="Address" rx="2.5" ry="2.5" style="stroke:#181818;stroke-width:0.5;" width="462" x="1640" y="322"/><ellipse cx="1838.25" cy="338" fill="#ADD1B2" rx="11" ry="11" style="stroke:#181818;stroke-width:1.0;"/><path d="M1840.5938,333.6719 C1839.6563,333.2344 1839.0625,333.0938 1838.1875,333.0938 C1835.5625,333.0938 1833.5625,335.1719 1833.5625,337.8906 L1833.5625,339.0156 C1833.5625,341.5938 1835.6719,343.4844 1838.5625,343.4844 C1839.7813,343.4844 1840.9375,343.1875 1841.6875,342.6406 C1842.2656,342.2344 1842.5938,341.7813 1842.5938,341.3906 C1842.5938,340.9375 1842.2031,340.5469 1841.7344,340.5469 C1841.5156,340.5469 1841.3125,340.625 1841.125,340.8125 C1840.6719,341.2969 1840.6719,341.2969 1840.4844,341.3906 C1840.0625,341.6563 1839.375,341.7813 1838.6094,341.7813 C1836.5625,341.7813 1835.2656,340.6875 1835.2656,338.9844 L1835.2656,337.8906 C1835.2656,336.1094 1836.5156,334.7969 1838.25,334.7969 C1838.8281,334.7969 1839.4375,334.9531 1839.9063,335.2031 C1840.3906,335.4844 1840.5625,335.7031 1840.6563,336.1094 C1840.7188,336.5156 1840.75,336.6406 1840.8906,336.7656 C1841.0313,336.9063 1841.2656,337.0156 1841.4844,337.0156 C1841.75,337.0156 1842.0156,336.875 1842.1875,336.6563 C1842.2969,336.5 1842.3281,336.3125 1842.3281,335.8906 L1842.3281,334.4688 C1842.3281,334.0313 1842.3125,333.9063 1842.2188,333.75 C1842.0625,333.4844 1841.7813,333.3438 1841.4844,333.3438 C1841.1875,333.3438 1840.9844,333.4375 1840.7656,333.75 L1840.5938,333.6719 Z " fill="#000000"/><text fill="#000000" font-family="sans-serif" font-size="14" lengthAdjust="spacing" textLength="57" x="1858.75" y="342.8467">Address</text><line style="stroke:#181818;stroke-width:0.5;" x1="1641" x2="2101" y1="354" y2="354"/><text fill="#000000" font-family="sans-serif" font-size="14" lengthAdjust="spacing" textLength="137" x="1646" y="370.9951">-Name streetName</text><text fill="#000000" font-family="sans-serif" font-size="14" lengthAdjust="spacing" textLength="173" x="1646" y="387.292">-PostalCode postalCode</text><text fill="#000000" font-family="sans-serif" font-size="14" lengthAdjust="spacing" textLength="153" x="1646" y="403.5889">-Integer doorNumber</text><text fill="#000000" font-family="sans-serif" font-size="14" lengthAdjust="spacing" textLength="66" x="1646" y="419.8857">-City city</text><text fill="#000000" font-family="sans-serif" font-size="14" lengthAdjust="spacing" textLength="122" x="1646" y="436.1826">-Country country</text><text fill="#000000" font-family="sans-serif" font-size="14" lengthAdjust="spacing" textLength="194" x="1646" y="452.4795">-AddressType addressType</text><line style="stroke:#181818;stroke-width:0.5;" x1="1641" x2="2101" y1="459.7813" y2="459.7813"/><text fill="#000000" font-family="sans-serif" font-size="14" lengthAdjust="spacing" textLength="450" x="1646" y="476.7764">+Address(streetName, postalCode, doorNumber, city, country)</text><text fill="#000000" font-family="sans-serif" font-size="14" lengthAdjust="spacing" textLength="75" x="1646" y="493.0732">+valueOf()</text><text fill="#000000" font-family="sans-serif" font-size="14" lengthAdjust="spacing" textLength="107" x="1646" y="509.3701">+streetName()</text><text fill="#000000" font-family="sans-serif" font-size="14" lengthAdjust="spacing" textLength="103" x="1646" y="525.667">+postalCode()</text><text fill="#000000" font-family="sans-serif" font-size="14" lengthAdjust="spacing" textLength="111" x="1646" y="541.9639">+doorNumber()</text><text fill="#000000" font-family="sans-serif" font-size="14" lengthAdjust="spacing" textLength="48" x="1646" y="558.2607">+city()</text><text fill="#000000" font-family="sans-serif" font-size="14" lengthAdjust="spacing" textLength="76" x="1646" y="574.5576">+country()</text><text fill="#000000" font-family="sans-serif" font-size="14" lengthAdjust="spacing" textLength="112" x="1646" y="590.8545">+addressType()</text><text fill="#000000" font-family="sans-serif" font-size="14" lengthAdjust="spacing" textLength="128" x="1646" y="607.1514">+equals(Object o)</text><text fill="#000000" font-family="sans-serif" font-size="14" lengthAdjust="spacing" textLength="91" x="1646" y="623.4482">+hashCode()</text><text fill="#000000" font-family="sans-serif" font-size="14" lengthAdjust="spacing" textLength="81" x="1646" y="639.7451">+toString()</text></g><!--MD5=[129f55246b52b7552808bad1f6f33109]
class AddressType--><g id="elem_AddressType"><rect codeLine="81" fill="#F1F1F1" height="80.5938" id="AddressType" rx="2.5" ry="2.5" style="stroke:#181818;stroke-width:0.5;" width="125" x="1808.5" y="140"/><ellipse cx="1823.5" cy="156" fill="#EB937F" rx="11" ry="11" style="stroke:#181818;stroke-width:1.0;"/><path d="M1822.2969,156.875 L1823.75,156.875 L1823.75,156.9844 C1823.75,157.3906 1823.7813,157.5469 1823.8594,157.7031 C1824.0156,157.9531 1824.2969,158.1094 1824.5938,158.1094 C1824.8438,158.1094 1825.1094,157.9688 1825.2656,157.75 C1825.3906,157.5938 1825.4219,157.4375 1825.4219,156.9844 L1825.4219,155.0625 C1825.4219,154.9063 1825.4219,154.8594 1825.4063,154.7031 C1825.3438,154.2344 1825.0313,153.9219 1824.5781,153.9219 C1824.3281,153.9219 1824.0625,154.0625 1823.8906,154.2813 C1823.7813,154.4531 1823.75,154.6094 1823.75,155.0625 L1823.75,155.1875 L1822.2969,155.1875 L1822.2969,152.7813 L1826.2813,152.7813 L1826.2813,153.6406 C1826.2813,154.0469 1826.3125,154.2188 1826.3906,154.375 C1826.5625,154.625 1826.8438,154.7813 1827.125,154.7813 C1827.3906,154.7813 1827.6563,154.6406 1827.8281,154.4219 C1827.9375,154.25 1827.9688,154.1094 1827.9688,153.6406 L1827.9688,151.0938 L1820.3438,151.0938 C1819.9063,151.0938 1819.7813,151.1094 1819.625,151.2031 C1819.375,151.3594 1819.2188,151.6563 1819.2188,151.9375 C1819.2188,152.2188 1819.3594,152.4688 1819.5781,152.6406 C1819.7344,152.75 1819.9219,152.7813 1820.3438,152.7813 L1820.5938,152.7813 L1820.5938,159.2969 L1820.3438,159.2969 C1819.9375,159.2969 1819.7813,159.3125 1819.625,159.4219 C1819.375,159.5938 1819.2188,159.8594 1819.2188,160.1563 C1819.2188,160.4219 1819.3594,160.6719 1819.5781,160.8281 C1819.7188,160.9531 1819.9531,161 1820.3438,161 L1828.3438,161 L1828.3438,158.4219 C1828.3438,157.9844 1828.3125,157.8438 1828.2344,157.6875 C1828.0625,157.4375 1827.7813,157.2813 1827.5,157.2813 C1827.2344,157.2813 1826.9688,157.3906 1826.7969,157.6406 C1826.6875,157.7969 1826.6563,157.9375 1826.6563,158.4219 L1826.6563,159.2969 L1822.2969,159.2969 L1822.2969,156.875 Z " fill="#000000"/><text fill="#000000" font-family="sans-serif" font-size="14" lengthAdjust="spacing" textLength="93" x="1837.5" y="160.8467">AddressType</text><line style="stroke:#181818;stroke-width:0.5;" x1="1809.5" x2="1932.5" y1="172" y2="172"/><text fill="#000000" font-family="sans-serif" font-size="14" lengthAdjust="spacing" textLength="66" x="1814.5" y="188.9951">+BILLING</text><text fill="#000000" font-family="sans-serif" font-size="14" lengthAdjust="spacing" textLength="83" x="1814.5" y="205.292">+SHIPMENT</text><line style="stroke:#181818;stroke-width:0.5;" x1="1809.5" x2="1932.5" y1="212.5938" y2="212.5938"/></g><!--MD5=[afbd6b8673ffa001d46d9f81193dcc67]
class CustomerBuilder--><g id="elem_CustomerBuilder"><rect codeLine="89" fill="#F1F1F1" height="162.0781" id="CustomerBuilder" rx="2.5" ry="2.5" style="stroke:#181818;stroke-width:0.5;" width="155" x="276.5" y="403.5"/><ellipse cx="292.85" cy="419.5" fill="#ADD1B2" rx="11" ry="11" style="stroke:#181818;stroke-width:1.0;"/><path d="M295.1938,415.1719 C294.2563,414.7344 293.6625,414.5938 292.7875,414.5938 C290.1625,414.5938 288.1625,416.6719 288.1625,419.3906 L288.1625,420.5156 C288.1625,423.0938 290.2719,424.9844 293.1625,424.9844 C294.3813,424.9844 295.5375,424.6875 296.2875,424.1406 C296.8656,423.7344 297.1938,423.2813 297.1938,422.8906 C297.1938,422.4375 296.8031,422.0469 296.3344,422.0469 C296.1156,422.0469 295.9125,422.125 295.725,422.3125 C295.2719,422.7969 295.2719,422.7969 295.0844,422.8906 C294.6625,423.1563 293.975,423.2813 293.2094,423.2813 C291.1625,423.2813 289.8656,422.1875 289.8656,420.4844 L289.8656,419.3906 C289.8656,417.6094 291.1156,416.2969 292.85,416.2969 C293.4281,416.2969 294.0375,416.4531 294.5063,416.7031 C294.9906,416.9844 295.1625,417.2031 295.2563,417.6094 C295.3188,418.0156 295.35,418.1406 295.4906,418.2656 C295.6313,418.4063 295.8656,418.5156 296.0844,418.5156 C296.35,418.5156 296.6156,418.375 296.7875,418.1563 C296.8969,418 296.9281,417.8125 296.9281,417.3906 L296.9281,415.9688 C296.9281,415.5313 296.9125,415.4063 296.8188,415.25 C296.6625,414.9844 296.3813,414.8438 296.0844,414.8438 C295.7875,414.8438 295.5844,414.9375 295.3656,415.25 L295.1938,415.1719 Z " fill="#000000"/><text fill="#000000" font-family="sans-serif" font-size="14" lengthAdjust="spacing" textLength="120" x="307.15" y="424.3467">CustomerBuilder</text><line style="stroke:#181818;stroke-width:0.5;" x1="277.5" x2="430.5" y1="435.5" y2="435.5"/><line style="stroke:#181818;stroke-width:0.5;" x1="277.5" x2="430.5" y1="443.5" y2="443.5"/><text fill="#000000" font-family="sans-serif" font-size="14" lengthAdjust="spacing" textLength="101" x="282.5" y="460.4951">+name(name)</text><text fill="#000000" font-family="sans-serif" font-size="14" lengthAdjust="spacing" textLength="67" x="282.5" y="476.792">+vat(vat)</text><text fill="#000000" font-family="sans-serif" font-size="14" lengthAdjust="spacing" textLength="99" x="282.5" y="493.0889">+email(email)</text><text fill="#000000" font-family="sans-serif" font-size="14" lengthAdjust="spacing" textLength="143" x="282.5" y="509.3857">+birthday(birthday)</text><text fill="#000000" font-family="sans-serif" font-size="14" lengthAdjust="spacing" textLength="123" x="282.5" y="525.6826">+gender(gender)</text><text fill="#000000" font-family="sans-serif" font-size="14" lengthAdjust="spacing" textLength="131" x="282.5" y="541.9795">+address(address)</text><text fill="#000000" font-family="sans-serif" font-size="14" lengthAdjust="spacing" textLength="138" x="282.5" y="558.2764">+createCustomer()</text></g><!--MD5=[e8c189551b7885b999ad7cefb30fc2a3]
class PersistenceContext--><g id="elem_PersistenceContext"><rect codeLine="99" fill="#F1F1F1" height="96.8906" id="PersistenceContext" rx="2.5" ry="2.5" style="stroke:#181818;stroke-width:0.5;" width="234" x="7" y="436"/><ellipse cx="48.55" cy="452" fill="#ADD1B2" rx="11" ry="11" style="stroke:#181818;stroke-width:1.0;"/><path d="M50.8938,447.6719 C49.9563,447.2344 49.3625,447.0938 48.4875,447.0938 C45.8625,447.0938 43.8625,449.1719 43.8625,451.8906 L43.8625,453.0156 C43.8625,455.5938 45.9719,457.4844 48.8625,457.4844 C50.0813,457.4844 51.2375,457.1875 51.9875,456.6406 C52.5656,456.2344 52.8938,455.7813 52.8938,455.3906 C52.8938,454.9375 52.5031,454.5469 52.0344,454.5469 C51.8156,454.5469 51.6125,454.625 51.425,454.8125 C50.9719,455.2969 50.9719,455.2969 50.7844,455.3906 C50.3625,455.6563 49.675,455.7813 48.9094,455.7813 C46.8625,455.7813 45.5656,454.6875 45.5656,452.9844 L45.5656,451.8906 C45.5656,450.1094 46.8156,448.7969 48.55,448.7969 C49.1281,448.7969 49.7375,448.9531 50.2063,449.2031 C50.6906,449.4844 50.8625,449.7031 50.9563,450.1094 C51.0188,450.5156 51.05,450.6406 51.1906,450.7656 C51.3313,450.9063 51.5656,451.0156 51.7844,451.0156 C52.05,451.0156 52.3156,450.875 52.4875,450.6563 C52.5969,450.5 52.6281,450.3125 52.6281,449.8906 L52.6281,448.4688 C52.6281,448.0313 52.6125,447.9063 52.5188,447.75 C52.3625,447.4844 52.0813,447.3438 51.7844,447.3438 C51.4875,447.3438 51.2844,447.4375 51.0656,447.75 L50.8938,447.6719 Z " fill="#000000"/><text fill="#000000" font-family="sans-serif" font-size="14" lengthAdjust="spacing" textLength="143" x="68.45" y="456.8467">PersistenceContext</text><line style="stroke:#181818;stroke-width:0.5;" x1="8" x2="240" y1="468" y2="468"/><text fill="#000000" font-family="sans-serif" font-size="14" lengthAdjust="spacing" textLength="120" x="13" y="484.9951">-Logger LOGGER</text><text fill="#000000" font-family="sans-serif" font-size="14" lengthAdjust="spacing" textLength="222" x="13" y="501.292">-RepositoryFactory theFactory</text><line style="stroke:#181818;stroke-width:0.5;" x1="8" x2="240" y1="508.5938" y2="508.5938"/><text fill="#000000" font-family="sans-serif" font-size="14" lengthAdjust="spacing" textLength="108" x="13" y="525.5889">+repositories()</text></g><!--MD5=[48590afff58a68e2fcba47824d6f8a11]
class RepositoryFactory--><g id="elem_RepositoryFactory"><rect codeLine="105" fill="#F1F1F1" height="64.2969" id="RepositoryFactory" rx="2.5" ry="2.5" style="stroke:#181818;stroke-width:0.5;" width="165" x="435.5" y="838"/><ellipse cx="450.5" cy="854" fill="#ADD1B2" rx="11" ry="11" style="stroke:#181818;stroke-width:1.0;"/><path d="M452.8438,849.6719 C451.9063,849.2344 451.3125,849.0938 450.4375,849.0938 C447.8125,849.0938 445.8125,851.1719 445.8125,853.8906 L445.8125,855.0156 C445.8125,857.5938 447.9219,859.4844 450.8125,859.4844 C452.0313,859.4844 453.1875,859.1875 453.9375,858.6406 C454.5156,858.2344 454.8438,857.7813 454.8438,857.3906 C454.8438,856.9375 454.4531,856.5469 453.9844,856.5469 C453.7656,856.5469 453.5625,856.625 453.375,856.8125 C452.9219,857.2969 452.9219,857.2969 452.7344,857.3906 C452.3125,857.6563 451.625,857.7813 450.8594,857.7813 C448.8125,857.7813 447.5156,856.6875 447.5156,854.9844 L447.5156,853.8906 C447.5156,852.1094 448.7656,850.7969 450.5,850.7969 C451.0781,850.7969 451.6875,850.9531 452.1563,851.2031 C452.6406,851.4844 452.8125,851.7031 452.9063,852.1094 C452.9688,852.5156 453,852.6406 453.1406,852.7656 C453.2813,852.9063 453.5156,853.0156 453.7344,853.0156 C454,853.0156 454.2656,852.875 454.4375,852.6563 C454.5469,852.5 454.5781,852.3125 454.5781,851.8906 L454.5781,850.4688 C454.5781,850.0313 454.5625,849.9063 454.4688,849.75 C454.3125,849.4844 454.0313,849.3438 453.7344,849.3438 C453.4375,849.3438 453.2344,849.4375 453.0156,849.75 L452.8438,849.6719 Z " fill="#000000"/><text fill="#000000" font-family="sans-serif" font-size="14" lengthAdjust="spacing" textLength="133" x="464.5" y="858.8467">RepositoryFactory</text><line style="stroke:#181818;stroke-width:0.5;" x1="436.5" x2="599.5" y1="870" y2="870"/><line style="stroke:#181818;stroke-width:0.5;" x1="436.5" x2="599.5" y1="878" y2="878"/><text fill="#000000" font-family="sans-serif" font-size="14" lengthAdjust="spacing" textLength="96" x="441.5" y="894.9951">+customers()</text></g><!--MD5=[e69d6994dde37a3d0167e5476c791457]
class CustomerRepository--><g id="elem_CustomerRepository"><rect codeLine="109" fill="#F1F1F1" height="80.5938" id="CustomerRepository" rx="2.5" ry="2.5" style="stroke:#181818;stroke-width:0.5;" width="238" x="711" y="1093"/><ellipse cx="751.65" cy="1109" fill="#ADD1B2" rx="11" ry="11" style="stroke:#181818;stroke-width:1.0;"/><path d="M753.9938,1104.6719 C753.0563,1104.2344 752.4625,1104.0938 751.5875,1104.0938 C748.9625,1104.0938 746.9625,1106.1719 746.9625,1108.8906 L746.9625,1110.0156 C746.9625,1112.5938 749.0719,1114.4844 751.9625,1114.4844 C753.1813,1114.4844 754.3375,1114.1875 755.0875,1113.6406 C755.6656,1113.2344 755.9938,1112.7813 755.9938,1112.3906 C755.9938,1111.9375 755.6031,1111.5469 755.1344,1111.5469 C754.9156,1111.5469 754.7125,1111.625 754.525,1111.8125 C754.0719,1112.2969 754.0719,1112.2969 753.8844,1112.3906 C753.4625,1112.6563 752.775,1112.7813 752.0094,1112.7813 C749.9625,1112.7813 748.6656,1111.6875 748.6656,1109.9844 L748.6656,1108.8906 C748.6656,1107.1094 749.9156,1105.7969 751.65,1105.7969 C752.2281,1105.7969 752.8375,1105.9531 753.3063,1106.2031 C753.7906,1106.4844 753.9625,1106.7031 754.0563,1107.1094 C754.1188,1107.5156 754.15,1107.6406 754.2906,1107.7656 C754.4313,1107.9063 754.6656,1108.0156 754.8844,1108.0156 C755.15,1108.0156 755.4156,1107.875 755.5875,1107.6563 C755.6969,1107.5 755.7281,1107.3125 755.7281,1106.8906 L755.7281,1105.4688 C755.7281,1105.0313 755.7125,1104.9063 755.6188,1104.75 C755.4625,1104.4844 755.1813,1104.3438 754.8844,1104.3438 C754.5875,1104.3438 754.3844,1104.4375 754.1656,1104.75 L753.9938,1104.6719 Z " fill="#000000"/><text fill="#000000" font-family="sans-serif" font-size="14" lengthAdjust="spacing" textLength="149" x="771.35" y="1113.8467">CustomerRepository</text><line style="stroke:#181818;stroke-width:0.5;" x1="712" x2="948" y1="1125" y2="1125"/><line style="stroke:#181818;stroke-width:0.5;" x1="712" x2="948" y1="1133" y2="1133"/><text fill="#000000" font-family="sans-serif" font-size="14" lengthAdjust="spacing" textLength="175" x="717" y="1149.9951">+findById(Long number)</text><text fill="#000000" font-family="sans-serif" font-size="14" lengthAdjust="spacing" textLength="226" x="717" y="1166.292">+findByUsername(String name)</text></g><!--MD5=[b5e265065262f4f9caf90311e5706eef]
class PhoneNumber--><g id="elem_PhoneNumber"><rect fill="#F1F1F1" height="48" id="PhoneNumber" rx="2.5" ry="2.5" style="stroke:#181818;stroke-width:0.5;" width="134" x="1184" y="460.5"/><ellipse cx="1199" cy="476.5" fill="#ADD1B2" rx="11" ry="11" style="stroke:#181818;stroke-width:1.0;"/><path d="M1201.3438,472.1719 C1200.4063,471.7344 1199.8125,471.5938 1198.9375,471.5938 C1196.3125,471.5938 1194.3125,473.6719 1194.3125,476.3906 L1194.3125,477.5156 C1194.3125,480.0938 1196.4219,481.9844 1199.3125,481.9844 C1200.5313,481.9844 1201.6875,481.6875 1202.4375,481.1406 C1203.0156,480.7344 1203.3438,480.2813 1203.3438,479.8906 C1203.3438,479.4375 1202.9531,479.0469 1202.4844,479.0469 C1202.2656,479.0469 1202.0625,479.125 1201.875,479.3125 C1201.4219,479.7969 1201.4219,479.7969 1201.2344,479.8906 C1200.8125,480.1563 1200.125,480.2813 1199.3594,480.2813 C1197.3125,480.2813 1196.0156,479.1875 1196.0156,477.4844 L1196.0156,476.3906 C1196.0156,474.6094 1197.2656,473.2969 1199,473.2969 C1199.5781,473.2969 1200.1875,473.4531 1200.6563,473.7031 C1201.1406,473.9844 1201.3125,474.2031 1201.4063,474.6094 C1201.4688,475.0156 1201.5,475.1406 1201.6406,475.2656 C1201.7813,475.4063 1202.0156,475.5156 1202.2344,475.5156 C1202.5,475.5156 1202.7656,475.375 1202.9375,475.1563 C1203.0469,475 1203.0781,474.8125 1203.0781,474.3906 L1203.0781,472.9688 C1203.0781,472.5313 1203.0625,472.4063 1202.9688,472.25 C1202.8125,471.9844 1202.5313,471.8438 1202.2344,471.8438 C1201.9375,471.8438 1201.7344,471.9375 1201.5156,472.25 L1201.3438,472.1719 Z " fill="#000000"/><text fill="#000000" font-family="sans-serif" font-size="14" lengthAdjust="spacing" textLength="102" x="1213" y="481.3467">PhoneNumber</text><line style="stroke:#181818;stroke-width:0.5;" x1="1185" x2="1317" y1="492.5" y2="492.5"/><line style="stroke:#181818;stroke-width:0.5;" x1="1185" x2="1317" y1="500.5" y2="500.5"/></g><!--MD5=[cc8ce0275f04793a7f8633b81a02d1b1]
class DateOfBirthday--><g id="elem_DateOfBirthday"><rect fill="#F1F1F1" height="48" id="DateOfBirthday" rx="2.5" ry="2.5" style="stroke:#181818;stroke-width:0.5;" width="145" x="1353.5" y="460.5"/><ellipse cx="1368.5" cy="476.5" fill="#ADD1B2" rx="11" ry="11" style="stroke:#181818;stroke-width:1.0;"/><path d="M1370.8438,472.1719 C1369.9063,471.7344 1369.3125,471.5938 1368.4375,471.5938 C1365.8125,471.5938 1363.8125,473.6719 1363.8125,476.3906 L1363.8125,477.5156 C1363.8125,480.0938 1365.9219,481.9844 1368.8125,481.9844 C1370.0313,481.9844 1371.1875,481.6875 1371.9375,481.1406 C1372.5156,480.7344 1372.8438,480.2813 1372.8438,479.8906 C1372.8438,479.4375 1372.4531,479.0469 1371.9844,479.0469 C1371.7656,479.0469 1371.5625,479.125 1371.375,479.3125 C1370.9219,479.7969 1370.9219,479.7969 1370.7344,479.8906 C1370.3125,480.1563 1369.625,480.2813 1368.8594,480.2813 C1366.8125,480.2813 1365.5156,479.1875 1365.5156,477.4844 L1365.5156,476.3906 C1365.5156,474.6094 1366.7656,473.2969 1368.5,473.2969 C1369.0781,473.2969 1369.6875,473.4531 1370.1563,473.7031 C1370.6406,473.9844 1370.8125,474.2031 1370.9063,474.6094 C1370.9688,475.0156 1371,475.1406 1371.1406,475.2656 C1371.2813,475.4063 1371.5156,475.5156 1371.7344,475.5156 C1372,475.5156 1372.2656,475.375 1372.4375,475.1563 C1372.5469,475 1372.5781,474.8125 1372.5781,474.3906 L1372.5781,472.9688 C1372.5781,472.5313 1372.5625,472.4063 1372.4688,472.25 C1372.3125,471.9844 1372.0313,471.8438 1371.7344,471.8438 C1371.4375,471.8438 1371.2344,471.9375 1371.0156,472.25 L1370.8438,472.1719 Z " fill="#000000"/><text fill="#000000" font-family="sans-serif" font-size="14" lengthAdjust="spacing" textLength="113" x="1382.5" y="481.3467">DateOfBirthday</text><line style="stroke:#181818;stroke-width:0.5;" x1="1354.5" x2="1497.5" y1="492.5" y2="492.5"/><line style="stroke:#181818;stroke-width:0.5;" x1="1354.5" x2="1497.5" y1="500.5" y2="500.5"/></g><!--MD5=[78bec0fde86ad92ec1dc3fb343b83709]
class Email--><g id="elem_Email"><rect fill="#F1F1F1" height="48" id="Email" rx="2.5" ry="2.5" style="stroke:#181818;stroke-width:0.5;" width="71" x="1533.5" y="460.5"/><ellipse cx="1548.5" cy="476.5" fill="#ADD1B2" rx="11" ry="11" style="stroke:#181818;stroke-width:1.0;"/><path d="M1550.8438,472.1719 C1549.9063,471.7344 1549.3125,471.5938 1548.4375,471.5938 C1545.8125,471.5938 1543.8125,473.6719 1543.8125,476.3906 L1543.8125,477.5156 C1543.8125,480.0938 1545.9219,481.9844 1548.8125,481.9844 C1550.0313,481.9844 1551.1875,481.6875 1551.9375,481.1406 C1552.5156,480.7344 1552.8438,480.2813 1552.8438,479.8906 C1552.8438,479.4375 1552.4531,479.0469 1551.9844,479.0469 C1551.7656,479.0469 1551.5625,479.125 1551.375,479.3125 C1550.9219,479.7969 1550.9219,479.7969 1550.7344,479.8906 C1550.3125,480.1563 1549.625,480.2813 1548.8594,480.2813 C1546.8125,480.2813 1545.5156,479.1875 1545.5156,477.4844 L1545.5156,476.3906 C1545.5156,474.6094 1546.7656,473.2969 1548.5,473.2969 C1549.0781,473.2969 1549.6875,473.4531 1550.1563,473.7031 C1550.6406,473.9844 1550.8125,474.2031 1550.9063,474.6094 C1550.9688,475.0156 1551,475.1406 1551.1406,475.2656 C1551.2813,475.4063 1551.5156,475.5156 1551.7344,475.5156 C1552,475.5156 1552.2656,475.375 1552.4375,475.1563 C1552.5469,475 1552.5781,474.8125 1552.5781,474.3906 L1552.5781,472.9688 C1552.5781,472.5313 1552.5625,472.4063 1552.4688,472.25 C1552.3125,471.9844 1552.0313,471.8438 1551.7344,471.8438 C1551.4375,471.8438 1551.2344,471.9375 1551.0156,472.25 L1550.8438,472.1719 Z " fill="#000000"/><text fill="#000000" font-family="sans-serif" font-size="14" lengthAdjust="spacing" textLength="39" x="1562.5" y="481.3467">Email</text><line style="stroke:#181818;stroke-width:0.5;" x1="1534.5" x2="1603.5" y1="492.5" y2="492.5"/><line style="stroke:#181818;stroke-width:0.5;" x1="1534.5" x2="1603.5" y1="500.5" y2="500.5"/></g><!--MD5=[ed2952d6a0bef81c49128b717a8c9c2a]
link AddCustomerUI to AddCustomerController--><g id="link_AddCustomerUI_AddCustomerController"><path codeLine="115" d="M442,55.05 C442,70.14 442,90.71 442,110.79 " fill="none" id="AddCustomerUI-to-AddCustomerController" style="stroke:#181818;stroke-width:1.0;stroke-dasharray:7.0,7.0;"/><polygon fill="#181818" points="442,115.88,446,106.88,442,110.88,438,106.88,442,115.88" style="stroke:#181818;stroke-width:1.0;"/></g><!--MD5=[2f8e6e39fde4782a9eab5fa97aebb342]
link AddCustomerController to Customer--><g id="link_AddCustomerController_Customer"><path codeLine="116" d="M445.244,245.267 C452.154,357.809 471.822,585.593 520,647 C564.872,704.193 732.476,770.061 864.647,815.104 " fill="none" id="AddCustomerController-to-Customer" style="stroke:#181818;stroke-width:1.0;stroke-dasharray:7.0,7.0;"/><polygon fill="#181818" points="869.728,816.832,862.4933,810.1493,864.9938,815.2235,859.9196,817.724,869.728,816.832" style="stroke:#181818;stroke-width:1.0;"/></g><!--MD5=[2f8e6e39fde4782a9eab5fa97aebb342]
link AddCustomerController to Customer--><g id="link_AddCustomerController_Customer"><path codeLine="136" d="M734.059,214.076 C871.028,235.882 1013.45,270.275 1056,322 C1145.77,431.118 1124.51,598.01 1090.92,718.753 " fill="none" id="AddCustomerController-to-Customer-1" style="stroke:#181818;stroke-width:1.0;"/><polygon fill="#181818" points="1089.51,723.747,1095.7977,716.1664,1090.864,718.9338,1088.0966,714.0001,1089.51,723.747" style="stroke:#181818;stroke-width:1.0;"/><text fill="#000000" font-family="sans-serif" font-size="13" lengthAdjust="spacing" textLength="38" x="1121" y="489.0669">saves</text><text fill="#000000" font-family="sans-serif" font-size="13" lengthAdjust="spacing" textLength="8" x="741.9231" y="211.8309">1</text><text fill="#000000" font-family="sans-serif" font-size="13" lengthAdjust="spacing" textLength="23" x="1068.6761" y="712.8777">1..*</text></g><!--MD5=[25adfb95c08d128167961473c7f3626e]
link AddCustomerController to CustomerBuilder--><g id="link_AddCustomerController_CustomerBuilder"><path codeLine="117" d="M423.445,245.177 C410.453,289.765 392.95,349.829 378.768,398.502 " fill="none" id="AddCustomerController-to-CustomerBuilder" style="stroke:#181818;stroke-width:1.0;stroke-dasharray:7.0,7.0;"/><polygon fill="#181818" points="377.318,403.476,383.6759,395.9543,378.7167,398.6756,375.9953,393.7164,377.318,403.476" style="stroke:#181818;stroke-width:1.0;"/></g><!--MD5=[0854e03b6526d03aa21453882e61f10f]
link CustomerBuilder to Customer--><g id="link_CustomerBuilder_Customer"><path codeLine="118" d="M359.209,565.548 C366.43,609.888 382.914,662.298 420,694 C487.654,751.834 531.592,702.659 618,724 C700.637,744.41 790.057,774.32 864.903,801.682 " fill="none" id="CustomerBuilder-to-Customer" style="stroke:#181818;stroke-width:1.0;"/><polygon fill="#181818" points="869.811,803.48,862.7384,796.6259,865.1167,801.7586,859.9841,804.1369,869.811,803.48" style="stroke:#181818;stroke-width:1.0;"/><text fill="#000000" font-family="sans-serif" font-size="13" lengthAdjust="spacing" textLength="37" x="421" y="690.0669">builds</text><text fill="#000000" font-family="sans-serif" font-size="13" lengthAdjust="spacing" textLength="8" x="351.3205" y="585.7804">1</text><text fill="#000000" font-family="sans-serif" font-size="13" lengthAdjust="spacing" textLength="7" x="855.122" y="797.1856">*</text></g><!--MD5=[4ac3584f23268d097971097a204b35e9]
reverse link Name to Customer--><g id="link_Name_Customer"><path codeLine="120" d="M785.152,586.059 C822.425,628.1 866.456,677.765 907.142,723.656 " fill="none" id="Name-backto-Customer" style="stroke:#181818;stroke-width:1.0;"/><polygon fill="#181818" points="781.796,582.273,784.7736,591.661,785.113,586.0143,790.7597,586.3537,781.796,582.273" style="stroke:#181818;stroke-width:1.0;"/><text fill="#000000" font-family="sans-serif" font-size="13" lengthAdjust="spacing" textLength="54" x="878" y="690.0669">contains</text><text fill="#000000" font-family="sans-serif" font-size="13" lengthAdjust="spacing" textLength="8" x="779.5473" y="601.7581">1</text><text fill="#000000" font-family="sans-serif" font-size="13" lengthAdjust="spacing" textLength="8" x="892.2915" y="712.7821">1</text></g><!--MD5=[05f23c73014b7d9252e025b8eda8743c]
reverse link Vat to Customer--><g id="link_Vat_Customer"><path codeLine="121" d="M980.058,571.033 C988.486,615.92 999.043,672.153 1008.71,723.639 " fill="none" id="Vat-backto-Customer" style="stroke:#181818;stroke-width:1.0;"/><polygon fill="#181818" points="979.094,565.894,976.8238,575.4776,980.0168,570.8081,984.6864,574.0011,979.094,565.894" style="stroke:#181818;stroke-width:1.0;"/><text fill="#000000" font-family="sans-serif" font-size="13" lengthAdjust="spacing" textLength="54" x="1004" y="690.0669">contains</text><text fill="#000000" font-family="sans-serif" font-size="13" lengthAdjust="spacing" textLength="8" x="972.0474" y="585.6026">1</text><text fill="#000000" font-family="sans-serif" font-size="13" lengthAdjust="spacing" textLength="8" x="999.0956" y="712.7642">1</text></g><!--MD5=[db5c0da130eb98ab5b3a32ecab3f7e40]
reverse link PhoneNumber to Customer--><g id="link_PhoneNumber_Customer"><path codeLine="122" d="M1235.58,513.369 C1213.41,553.389 1171.23,629.43 1135,694 C1129.53,703.742 1123.89,713.782 1118.19,723.895 " fill="none" id="PhoneNumber-backto-Customer" style="stroke:#181818;stroke-width:1.0;"/><polygon fill="#181818" points="1238.18,508.67,1230.3185,514.6027,1235.7562,513.0432,1237.3156,518.4809,1238.18,508.67" style="stroke:#181818;stroke-width:1.0;"/><text fill="#000000" font-family="sans-serif" font-size="13" lengthAdjust="spacing" textLength="54" x="1146" y="690.0669">contains</text><text fill="#000000" font-family="sans-serif" font-size="13" lengthAdjust="spacing" textLength="8" x="1226.0801" y="528.4726">1</text><text fill="#000000" font-family="sans-serif" font-size="13" lengthAdjust="spacing" textLength="8" x="1114.2217" y="713.0334">1</text></g><!--MD5=[65e5dfc8b06595026f202b258c2c9149]
reverse link DateOfBirthday to Customer--><g id="link_DateOfBirthday_Customer"><path codeLine="123" d="M1414.63,513.387 C1399.8,547.472 1371.41,605.701 1335,647 C1296.73,690.403 1248.67,730.592 1202.35,764.509 " fill="none" id="DateOfBirthday-backto-Customer" style="stroke:#181818;stroke-width:1.0;"/><polygon fill="#181818" points="1416.71,508.538,1409.4736,515.2189,1414.7304,513.1294,1416.8199,518.3862,1416.71,508.538" style="stroke:#181818;stroke-width:1.0;"/><text fill="#000000" font-family="sans-serif" font-size="13" lengthAdjust="spacing" textLength="54" x="1302" y="690.0669">contains</text><text fill="#000000" font-family="sans-serif" font-size="13" lengthAdjust="spacing" textLength="8" x="1405.3044" y="528.7035">1</text><text fill="#000000" font-family="sans-serif" font-size="13" lengthAdjust="spacing" textLength="8" x="1210.069" y="756.4487">1</text></g><!--MD5=[1f64d0132e3fddbd2c335a983fb8a91b]
reverse link Email to Customer--><g id="link_Email_Customer"><path codeLine="124" d="M1566.57,513.692 C1562.15,548.857 1549.85,608.974 1516,647 C1433.89,739.24 1305.56,795.836 1202.25,828.78 " fill="none" id="Email-backto-Customer" style="stroke:#181818;stroke-width:1.0;"/><polygon fill="#181818" points="1567.16,508.69,1562.1248,517.1545,1566.5693,513.655,1570.0688,518.0995,1567.16,508.69" style="stroke:#181818;stroke-width:1.0;"/><text fill="#000000" font-family="sans-serif" font-size="13" lengthAdjust="spacing" textLength="54" x="1488" y="690.0669">contains</text><text fill="#000000" font-family="sans-serif" font-size="13" lengthAdjust="spacing" textLength="8" x="1557.7365" y="528.4975">1</text><text fill="#000000" font-family="sans-serif" font-size="13" lengthAdjust="spacing" textLength="8" x="1209.9645" y="839.3117">1</text></g><!--MD5=[4d6cd11ed83cfd80edd9ca09c146b760]
reverse link Address to Customer--><g id="link_Address_Customer"><path codeLine="125" d="M1635.42,648.265 C1607.53,664.732 1579.02,680.378 1551,694 C1438.79,748.552 1305.23,793.409 1202.24,824.048 " fill="none" id="Address-backto-Customer" style="stroke:#181818;stroke-width:1.0;"/><polygon fill="#181818" points="1639.89,645.615,1630.1098,646.7758,1635.5921,648.17,1634.1978,653.6524,1639.89,645.615" style="stroke:#181818;stroke-width:1.0;"/><text fill="#000000" font-family="sans-serif" font-size="13" lengthAdjust="spacing" textLength="54" x="1580" y="690.0669">contains</text><text fill="#000000" font-family="sans-serif" font-size="13" lengthAdjust="spacing" textLength="23" x="1608.9294" y="647.7238">1..*</text><text fill="#000000" font-family="sans-serif" font-size="13" lengthAdjust="spacing" textLength="8" x="1209.954" y="818.6856">1</text></g><!--MD5=[16df14ae410fd03c961315f1948ba22b]
reverse link AddressType to Address--><g id="link_AddressType_Address"><path codeLine="126" d="M1871,226.364 C1871,252.301 1871,286.69 1871,321.852 " fill="none" id="AddressType-backto-Address" style="stroke:#181818;stroke-width:1.0;"/><polygon fill="#181818" points="1871,221.292,1867,230.292,1871,226.292,1875,230.292,1871,221.292" style="stroke:#181818;stroke-width:1.0;"/><text fill="#000000" font-family="sans-serif" font-size="13" lengthAdjust="spacing" textLength="54" x="1872" y="288.0669">contains</text><text fill="#000000" font-family="sans-serif" font-size="13" lengthAdjust="spacing" textLength="8" x="1862.3875" y="240.7949">1</text><text fill="#000000" font-family="sans-serif" font-size="13" lengthAdjust="spacing" textLength="8" x="1862.8063" y="310.6794">1</text></g><!--MD5=[59efc1c296f1aa3a9ca8d9f3f58000bf]
link AddCustomerController to PersistenceContext--><g id="link_AddCustomerController_PersistenceContext"><path codeLine="128" d="M350.824,245.292 C320.442,268.142 287.182,294.964 259,322 C223.523,356.035 188.051,398.899 162.376,431.913 " fill="none" id="AddCustomerController-to-PersistenceContext" style="stroke:#181818;stroke-width:1.0;"/><polygon fill="#181818" points="159.295,435.889,167.9702,431.2262,162.3582,431.9372,161.6472,426.3252,159.295,435.889" style="stroke:#181818;stroke-width:1.0;"/><text fill="#000000" font-family="sans-serif" font-size="13" lengthAdjust="spacing" textLength="48" x="313" y="288.0669">creates</text><text fill="#000000" font-family="sans-serif" font-size="13" lengthAdjust="spacing" textLength="8" x="331.8193" y="265.6973">1</text><text fill="#000000" font-family="sans-serif" font-size="13" lengthAdjust="spacing" textLength="8" x="155.6959" y="425.0823">1</text></g><!--MD5=[754b775031405e096442b27febffa290]
link PersistenceContext to RepositoryFactory--><g id="link_PersistenceContext_RepositoryFactory"><path codeLine="131" d="M158.592,533.081 C191.58,577.012 243.834,642.979 296,694 C351.003,747.795 421.892,801.331 468.584,834.751 " fill="none" id="PersistenceContext-to-RepositoryFactory" style="stroke:#181818;stroke-width:1.0;"/><polygon fill="#181818" points="472.745,837.721,467.7438,829.2364,468.6755,834.816,463.0959,835.7477,472.745,837.721" style="stroke:#181818;stroke-width:1.0;"/><text fill="#000000" font-family="sans-serif" font-size="13" lengthAdjust="spacing" textLength="48" x="297" y="690.0669">creates</text><text fill="#000000" font-family="sans-serif" font-size="13" lengthAdjust="spacing" textLength="8" x="154.894" y="553.0513">1</text><text fill="#000000" font-family="sans-serif" font-size="13" lengthAdjust="spacing" textLength="8" x="455.0479" y="826.9403">1</text></g><!--MD5=[5480e33a89de9b63c80dfd73aefa71de]
link RepositoryFactory to CustomerRepository--><g id="link_RepositoryFactory_CustomerRepository"><path codeLine="134" d="M555.016,902.024 C610.614,948.623 715.855,1036.831 778.785,1089.5747 " fill="none" id="RepositoryFactory-to-CustomerRepository" style="stroke:#181818;stroke-width:1.0;"/><polygon fill="#181818" points="782.868,1092.9968,778.5392,1084.1503,779.0357,1089.7853,773.4007,1090.2819,782.868,1092.9968" style="stroke:#181818;stroke-width:1.0;"/><text fill="#000000" font-family="sans-serif" font-size="13" lengthAdjust="spacing" textLength="48" x="748" y="1059.0669">creates</text><text fill="#000000" font-family="sans-serif" font-size="13" lengthAdjust="spacing" textLength="8" x="553.8255" y="922.2258">1</text><text fill="#000000" font-family="sans-serif" font-size="13" lengthAdjust="spacing" textLength="8" x="766.0797" y="1081.8595">1</text></g><!--MD5=[fb5e5904c84255dff23137713710f421]
link Customer to CustomerRepository--><g id="link_Customer_CustomerRepository"><path codeLine="138" d="M921.554,1016.279 C900.718,1042.73 880.513,1068.377 864.41,1088.8194 " fill="none" id="Customer-to-CustomerRepository" style="stroke:#181818;stroke-width:1.0;"/><polygon fill="#181818" points="861.245,1092.8371,869.956,1088.2417,864.3387,1088.9091,863.6712,1083.2918,861.245,1092.8371" style="stroke:#181818;stroke-width:1.0;"/><text fill="#000000" font-family="sans-serif" font-size="13" lengthAdjust="spacing" textLength="11" x="898" y="1059.0669">in</text><text fill="#000000" font-family="sans-serif" font-size="13" lengthAdjust="spacing" textLength="8" x="907.0765" y="1036.7469">1</text><text fill="#000000" font-family="sans-serif" font-size="13" lengthAdjust="spacing" textLength="8" x="857.7575" y="1081.9717">1</text></g><!--MD5=[cfb0d6a346137883379b61b938d2f4b0]
@startuml
skinparam classAttributeIconSize 0

Class "AddCustomerUI"{
}

Class "AddCustomerController"{
+registerCustomer(name, vat, email, phone Number, birthday, gender, address)

+repositories()
+customers()
+saveCustomer()
}

Class "Name"{
-String firstName
-String lastName

+Name(String firstName, String lastName)
+valueOf()
+firstName()
+lastName()
+equals(Object o)
+hashCode()
+toString()
}

Class "Vat"{
-long vatId

+Name(Long vatId)
+valueOf()
+vatId()
+equals(Object o)
+hashCode()
+toString()
}


Class "Customer"{
     -Name name;
     -Vat vat;
     -Date dateOfBirth;
     -PhoneNumber phoneNumber;
     -Address address;

+Customer(name, vat, email, phoneNumber)

+name()
+vat()
+email()
+phoneNumber()

+dateOfBirth(LocalDate dateOfBirth)
+gender(Gender gender)
+address(Address address)

}

class Address {
-Name streetName
-PostalCode postalCode
-Integer doorNumber
-City city
-Country country
-AddressType addressType

+Address(streetName, postalCode, doorNumber, city, country)
+valueOf()
+streetName()
+postalCode()
+doorNumber()
+city()
+country()
+addressType()
+equals(Object o)
+hashCode()
+toString()

}

enum AddressType {
+BILLING
+SHIPMENT
}




class CustomerBuilder {
+name(name)
+vat(vat)
+email(email)
+birthday(birthday)
+gender(gender)
+address(address)
+createCustomer()
}

class PersistenceContext {
-Logger LOGGER
-RepositoryFactory theFactory
+repositories()
}

class RepositoryFactory{
+customers()
}

class CustomerRepository{
+findById(Long number)
+findByUsername(String name)
}


AddCustomerUI..> AddCustomerController
AddCustomerController..> Customer
AddCustomerController..> CustomerBuilder 
CustomerBuilder "1" - -> "*" Customer : builds

Name "1" <- - "1" Customer : contains
Vat "1" <- - "1" Customer : contains
PhoneNumber "1" <- - "1" Customer : contains
DateOfBirthday "1" <- - "1" Customer : contains
Email "1" <- - "1" Customer : contains
Address "1..*" <- - "1" Customer : contains
AddressType "1" <- - "1" Address: contains

"AddCustomerController" "1" - -> "1" "PersistenceContext" :creates


"PersistenceContext" "1" - -> "1" "RepositoryFactory" :creates


"RepositoryFactory" "1" - -> "1" "CustomerRepository"  :creates

"AddCustomerController" "1" - -> "1..*" "Customer" :saves

"Customer" "1" - -> "1" "CustomerRepository" :in
@enduml

PlantUML version 1.2022.4beta2(Unknown compile time)
(GPL source distribution)
Java Runtime: Java(TM) SE Runtime Environment
JVM: Java HotSpot(TM) 64-Bit Server VM
Default Encoding: UTF-8
Language: en
Country: US
--></g></svg>