<?xml version="1.0" encoding="UTF-8" standalone="no"?><svg xmlns="http://www.w3.org/2000/svg" xmlns:xlink="http://www.w3.org/1999/xlink" contentStyleType="text/css" height="679px" preserveAspectRatio="none" style="width:365px;height:679px;background:#FFFFFF;" version="1.1" viewBox="0 0 365 679" width="365px" zoomAndPan="magnify"><defs/><g><rect fill="#FFFFFF" height="498.2578" style="stroke:#181818;stroke-width:1.0;" width="10" x="57.5" y="91.2969"/><rect fill="#FFFFFF" height="29.1328" style="stroke:#181818;stroke-width:1.0;" width="10" x="307.5" y="112.4297"/><rect fill="#FFFFFF" height="29.1328" style="stroke:#181818;stroke-width:1.0;" width="10" x="307.5" y="170.6953"/><rect fill="#FFFFFF" height="29.1328" style="stroke:#181818;stroke-width:1.0;" width="10" x="307.5" y="228.9609"/><rect fill="#FFFFFF" height="29.1328" style="stroke:#181818;stroke-width:1.0;" width="10" x="307.5" y="311.3594"/><rect fill="#FFFFFF" height="29.1328" style="stroke:#181818;stroke-width:1.0;" width="10" x="307.5" y="369.625"/><rect fill="#FFFFFF" height="29.1328" style="stroke:#181818;stroke-width:1.0;" width="10" x="307.5" y="427.8906"/><rect fill="#FFFFFF" height="29.1328" style="stroke:#181818;stroke-width:1.0;" width="10" x="307.5" y="486.1563"/><rect fill="#FFFFFF" height="36.1328" style="stroke:#181818;stroke-width:1.0;" width="10" x="307.5" y="544.4219"/><rect height="279.3281" style="stroke:#000000;stroke-width:1.5;fill:none;" width="349" x="10" y="273.0938"/><line style="stroke:#181818;stroke-width:0.5;fill:none;stroke-dasharray:5.0,5.0;" x1="62" x2="62" y1="81.2969" y2="598.5547"/><line style="stroke:#181818;stroke-width:0.5;fill:none;stroke-dasharray:5.0,5.0;" x1="312" x2="312" y1="81.2969" y2="598.5547"/><text fill="#000000" font-family="sans-serif" font-size="14" lengthAdjust="spacing" textLength="79" x="20" y="77.9951">Sales Clerk</text><ellipse cx="62.5" cy="13.5" fill="#E2E2F0" rx="8" ry="8" style="stroke:#181818;stroke-width:0.5;"/><path d="M62.5,21.5 L62.5,48.5 M49.5,29.5 L75.5,29.5 M62.5,48.5 L49.5,63.5 M62.5,48.5 L75.5,63.5 " fill="none" style="stroke:#181818;stroke-width:0.5;"/><text fill="#000000" font-family="sans-serif" font-size="14" lengthAdjust="spacing" textLength="79" x="20" y="610.5498">Sales Clerk</text><ellipse cx="62.5" cy="622.3516" fill="#E2E2F0" rx="8" ry="8" style="stroke:#181818;stroke-width:0.5;"/><path d="M62.5,630.3516 L62.5,657.3516 M49.5,638.3516 L75.5,638.3516 M62.5,657.3516 L49.5,672.3516 M62.5,657.3516 L75.5,672.3516 " fill="none" style="stroke:#181818;stroke-width:0.5;"/><rect fill="#E2E2F0" height="30.2969" rx="2.5" ry="2.5" style="stroke:#181818;stroke-width:0.5;" width="73" x="276" y="50"/><text fill="#000000" font-family="sans-serif" font-size="14" lengthAdjust="spacing" textLength="59" x="283" y="69.9951">:System</text><rect fill="#E2E2F0" height="30.2969" rx="2.5" ry="2.5" style="stroke:#181818;stroke-width:0.5;" width="73" x="276" y="597.5547"/><text fill="#000000" font-family="sans-serif" font-size="14" lengthAdjust="spacing" textLength="59" x="283" y="617.5498">:System</text><rect fill="#FFFFFF" height="498.2578" style="stroke:#181818;stroke-width:1.0;" width="10" x="57.5" y="91.2969"/><rect fill="#FFFFFF" height="29.1328" style="stroke:#181818;stroke-width:1.0;" width="10" x="307.5" y="112.4297"/><rect fill="#FFFFFF" height="29.1328" style="stroke:#181818;stroke-width:1.0;" width="10" x="307.5" y="170.6953"/><rect fill="#FFFFFF" height="29.1328" style="stroke:#181818;stroke-width:1.0;" width="10" x="307.5" y="228.9609"/><rect fill="#FFFFFF" height="29.1328" style="stroke:#181818;stroke-width:1.0;" width="10" x="307.5" y="311.3594"/><rect fill="#FFFFFF" height="29.1328" style="stroke:#181818;stroke-width:1.0;" width="10" x="307.5" y="369.625"/><rect fill="#FFFFFF" height="29.1328" style="stroke:#181818;stroke-width:1.0;" width="10" x="307.5" y="427.8906"/><rect fill="#FFFFFF" height="29.1328" style="stroke:#181818;stroke-width:1.0;" width="10" x="307.5" y="486.1563"/><rect fill="#FFFFFF" height="36.1328" style="stroke:#181818;stroke-width:1.0;" width="10" x="307.5" y="544.4219"/><polygon fill="#181818" points="295.5,108.4297,305.5,112.4297,295.5,116.4297,299.5,112.4297" style="stroke:#181818;stroke-width:1.0;"/><line style="stroke:#181818;stroke-width:1.0;" x1="67.5" x2="301.5" y1="112.4297" y2="112.4297"/><text fill="#000000" font-family="sans-serif" font-size="13" font-weight="bold" lengthAdjust="spacing" textLength="9" x="74.5" y="107.3638">1</text><text fill="#000000" font-family="sans-serif" font-size="13" lengthAdjust="spacing" textLength="158" x="87.5" y="107.3638">registing new customers</text><polygon fill="#181818" points="78.5,137.5625,68.5,141.5625,78.5,145.5625,74.5,141.5625" style="stroke:#181818;stroke-width:1.0;"/><line style="stroke:#181818;stroke-width:1.0;stroke-dasharray:2.0,2.0;" x1="72.5" x2="311.5" y1="141.5625" y2="141.5625"/><text fill="#000000" font-family="sans-serif" font-size="13" font-weight="bold" lengthAdjust="spacing" textLength="9" x="84.5" y="136.4966">2</text><text fill="#000000" font-family="sans-serif" font-size="13" lengthAdjust="spacing" textLength="70" x="97.5" y="136.4966">asks name</text><polygon fill="#181818" points="295.5,166.6953,305.5,170.6953,295.5,174.6953,299.5,170.6953" style="stroke:#181818;stroke-width:1.0;"/><line style="stroke:#181818;stroke-width:1.0;" x1="67.5" x2="301.5" y1="170.6953" y2="170.6953"/><text fill="#000000" font-family="sans-serif" font-size="13" font-weight="bold" lengthAdjust="spacing" textLength="8" x="74.5" y="165.6294">3</text><text fill="#000000" font-family="sans-serif" font-size="13" lengthAdjust="spacing" textLength="108" x="86.5" y="165.6294">introduces name</text><polygon fill="#181818" points="78.5,195.8281,68.5,199.8281,78.5,203.8281,74.5,199.8281" style="stroke:#181818;stroke-width:1.0;"/><line style="stroke:#181818;stroke-width:1.0;" x1="72.5" x2="311.5" y1="199.8281" y2="199.8281"/><text fill="#000000" font-family="sans-serif" font-size="13" font-weight="bold" lengthAdjust="spacing" textLength="9" x="84.5" y="194.7622">4</text><text fill="#000000" font-family="sans-serif" font-size="13" lengthAdjust="spacing" textLength="55" x="97.5" y="194.7622">asks Vat</text><polygon fill="#181818" points="295.5,224.9609,305.5,228.9609,295.5,232.9609,299.5,228.9609" style="stroke:#181818;stroke-width:1.0;"/><line style="stroke:#181818;stroke-width:1.0;" x1="67.5" x2="301.5" y1="228.9609" y2="228.9609"/><text fill="#000000" font-family="sans-serif" font-size="13" font-weight="bold" lengthAdjust="spacing" textLength="9" x="74.5" y="223.895">5</text><text fill="#000000" font-family="sans-serif" font-size="13" lengthAdjust="spacing" textLength="93" x="87.5" y="223.895">introduces Vat</text><polygon fill="#181818" points="78.5,254.0938,68.5,258.0938,78.5,262.0938,74.5,258.0938" style="stroke:#181818;stroke-width:1.0;"/><line style="stroke:#181818;stroke-width:1.0;" x1="72.5" x2="311.5" y1="258.0938" y2="258.0938"/><text fill="#000000" font-family="sans-serif" font-size="13" font-weight="bold" lengthAdjust="spacing" textLength="9" x="84.5" y="253.0278">6</text><text fill="#000000" font-family="sans-serif" font-size="13" lengthAdjust="spacing" textLength="68" x="97.5" y="253.0278">asks email</text><path d="M10,273.0938 L76,273.0938 L76,280.2266 L66,290.2266 L10,290.2266 L10,273.0938 " fill="#EEEEEE" style="stroke:#000000;stroke-width:1.5;"/><rect fill="none" height="279.3281" style="stroke:#000000;stroke-width:1.5;" width="349" x="10" y="273.0938"/><text fill="#000000" font-family="sans-serif" font-size="13" font-weight="bold" lengthAdjust="spacing" textLength="21" x="25" y="286.1606">alt</text><polygon fill="#181818" points="295.5,307.3594,305.5,311.3594,295.5,315.3594,299.5,311.3594" style="stroke:#181818;stroke-width:1.0;"/><line style="stroke:#181818;stroke-width:1.0;" x1="67.5" x2="301.5" y1="311.3594" y2="311.3594"/><text fill="#000000" font-family="sans-serif" font-size="13" font-weight="bold" lengthAdjust="spacing" textLength="9" x="74.5" y="306.2935">7</text><text fill="#000000" font-family="sans-serif" font-size="13" lengthAdjust="spacing" textLength="106" x="87.5" y="306.2935">introduces email</text><polygon fill="#181818" points="78.5,336.4922,68.5,340.4922,78.5,344.4922,74.5,340.4922" style="stroke:#181818;stroke-width:1.0;"/><line style="stroke:#181818;stroke-width:1.0;" x1="72.5" x2="311.5" y1="340.4922" y2="340.4922"/><text fill="#000000" font-family="sans-serif" font-size="13" font-weight="bold" lengthAdjust="spacing" textLength="9" x="84.5" y="335.4263">8</text><text fill="#000000" font-family="sans-serif" font-size="13" lengthAdjust="spacing" textLength="170" x="97.5" y="335.4263">asks mobilephone number</text><polygon fill="#181818" points="295.5,365.625,305.5,369.625,295.5,373.625,299.5,369.625" style="stroke:#181818;stroke-width:1.0;"/><line style="stroke:#181818;stroke-width:1.0;" x1="67.5" x2="301.5" y1="369.625" y2="369.625"/><text fill="#000000" font-family="sans-serif" font-size="13" font-weight="bold" lengthAdjust="spacing" textLength="9" x="74.5" y="364.5591">9</text><text fill="#000000" font-family="sans-serif" font-size="13" lengthAdjust="spacing" textLength="208" x="87.5" y="364.5591">introduces mobilephone number</text><polygon fill="#181818" points="78.5,394.7578,68.5,398.7578,78.5,402.7578,74.5,398.7578" style="stroke:#181818;stroke-width:1.0;"/><line style="stroke:#181818;stroke-width:1.0;" x1="72.5" x2="311.5" y1="398.7578" y2="398.7578"/><text fill="#000000" font-family="sans-serif" font-size="13" font-weight="bold" lengthAdjust="spacing" textLength="19" x="84.5" y="393.6919">10</text><text fill="#000000" font-family="sans-serif" font-size="13" lengthAdjust="spacing" textLength="91" x="107.5" y="393.6919">asks birthdate</text><polygon fill="#181818" points="295.5,423.8906,305.5,427.8906,295.5,431.8906,299.5,427.8906" style="stroke:#181818;stroke-width:1.0;"/><line style="stroke:#181818;stroke-width:1.0;" x1="67.5" x2="301.5" y1="427.8906" y2="427.8906"/><text fill="#000000" font-family="sans-serif" font-size="13" font-weight="bold" lengthAdjust="spacing" textLength="18" x="74.5" y="422.8247">11</text><text fill="#000000" font-family="sans-serif" font-size="13" lengthAdjust="spacing" textLength="129" x="96.5" y="422.8247">introduces birthdate</text><polygon fill="#181818" points="78.5,453.0234,68.5,457.0234,78.5,461.0234,74.5,457.0234" style="stroke:#181818;stroke-width:1.0;"/><line style="stroke:#181818;stroke-width:1.0;" x1="72.5" x2="311.5" y1="457.0234" y2="457.0234"/><text fill="#000000" font-family="sans-serif" font-size="13" font-weight="bold" lengthAdjust="spacing" textLength="18" x="84.5" y="451.9575">12</text><text fill="#000000" font-family="sans-serif" font-size="13" lengthAdjust="spacing" textLength="78" x="106.5" y="451.9575">asks gender</text><polygon fill="#181818" points="295.5,482.1563,305.5,486.1563,295.5,490.1563,299.5,486.1563" style="stroke:#181818;stroke-width:1.0;"/><line style="stroke:#181818;stroke-width:1.0;" x1="67.5" x2="301.5" y1="486.1563" y2="486.1563"/><text fill="#000000" font-family="sans-serif" font-size="13" font-weight="bold" lengthAdjust="spacing" textLength="17" x="74.5" y="481.0903">13</text><text fill="#000000" font-family="sans-serif" font-size="13" lengthAdjust="spacing" textLength="116" x="95.5" y="481.0903">introduces gender</text><polygon fill="#181818" points="78.5,511.2891,68.5,515.2891,78.5,519.2891,74.5,515.2891" style="stroke:#181818;stroke-width:1.0;"/><line style="stroke:#181818;stroke-width:1.0;" x1="72.5" x2="311.5" y1="515.2891" y2="515.2891"/><text fill="#000000" font-family="sans-serif" font-size="13" font-weight="bold" lengthAdjust="spacing" textLength="18" x="84.5" y="510.2231">14</text><text fill="#000000" font-family="sans-serif" font-size="13" lengthAdjust="spacing" textLength="84" x="106.5" y="510.2231">asks address</text><polygon fill="#181818" points="295.5,540.4219,305.5,544.4219,295.5,548.4219,299.5,544.4219" style="stroke:#181818;stroke-width:1.0;"/><line style="stroke:#181818;stroke-width:1.0;" x1="67.5" x2="301.5" y1="544.4219" y2="544.4219"/><text fill="#000000" font-family="sans-serif" font-size="13" font-weight="bold" lengthAdjust="spacing" textLength="18" x="74.5" y="539.356">15</text><text fill="#000000" font-family="sans-serif" font-size="13" lengthAdjust="spacing" textLength="122" x="96.5" y="539.356">introduces address</text><polygon fill="#181818" points="78.5,576.5547,68.5,580.5547,78.5,584.5547,74.5,580.5547" style="stroke:#181818;stroke-width:1.0;"/><line style="stroke:#181818;stroke-width:1.0;" x1="72.5" x2="311.5" y1="580.5547" y2="580.5547"/><text fill="#000000" font-family="sans-serif" font-size="13" font-weight="bold" lengthAdjust="spacing" textLength="18" x="84.5" y="575.4888">16</text><text fill="#000000" font-family="sans-serif" font-size="13" lengthAdjust="spacing" textLength="15" x="106.5" y="575.4888">ok</text><!--MD5=[a61085ec72fcefa8adf1172d38f5c9ef]
@startuml
autonumber
actor "Sales Clerk" as MEDLT

activate MEDLT
MEDLT-> ":System" : registing new customers

activate ":System"
":System" - -> MEDLT : asks name

deactivate ":System"


MEDLT-> ":System" : introduces name

activate ":System"

":System" -> MEDLT : asks Vat
deactivate ":System"




MEDLT -> ":System" : introduces Vat
activate ":System"
":System" -> MEDLT : asks email
deactivate ":System"

alt

MEDLT -> ":System" : introduces email
activate ":System"
":System" -> MEDLT : asks mobilephone number
deactivate ":System"

MEDLT -> ":System" : introduces mobilephone number
activate ":System"
":System" -> MEDLT : asks birthdate
deactivate ":System"

MEDLT -> ":System" : introduces birthdate
activate ":System"
":System" -> MEDLT : asks gender
deactivate ":System"

MEDLT -> ":System" : introduces gender
activate ":System"
":System" -> MEDLT : asks address
deactivate ":System"

MEDLT -> ":System" : introduces address
activate ":System"
end alt


":System" -> MEDLT : ok
deactivate ":System"
@enduml

PlantUML version 1.2022.4beta2(Unknown compile time)
(GPL source distribution)
Java Runtime: Java(TM) SE Runtime Environment
JVM: Java HotSpot(TM) 64-Bit Server VM
Default Encoding: UTF-8
Language: en
Country: US
--></g></svg>