<?xml version="1.0" encoding="UTF-8" standalone="no"?><svg xmlns="http://www.w3.org/2000/svg" xmlns:xlink="http://www.w3.org/1999/xlink" contentStyleType="text/css" height="441px" preserveAspectRatio="none" style="width:770px;height:441px;background:#FFFFFF;" version="1.1" viewBox="0 0 770 441" width="770px" zoomAndPan="magnify"><defs/><g><!--MD5=[5c5e14f2ea2ef99c6b1d49e603971fe8]
class QuestionnaireReportUI--><g id="elem_QuestionnaireReportUI"><rect codeLine="3" fill="#F1F1F1" height="80.5938" id="QuestionnaireReportUI" rx="2.5" ry="2.5" style="stroke:#181818;stroke-width:0.5;" width="196" x="42" y="7"/><ellipse cx="57" cy="23" fill="#ADD1B2" rx="11" ry="11" style="stroke:#181818;stroke-width:1.0;"/><path d="M59.3438,18.6719 C58.4063,18.2344 57.8125,18.0938 56.9375,18.0938 C54.3125,18.0938 52.3125,20.1719 52.3125,22.8906 L52.3125,24.0156 C52.3125,26.5938 54.4219,28.4844 57.3125,28.4844 C58.5313,28.4844 59.6875,28.1875 60.4375,27.6406 C61.0156,27.2344 61.3438,26.7813 61.3438,26.3906 C61.3438,25.9375 60.9531,25.5469 60.4844,25.5469 C60.2656,25.5469 60.0625,25.625 59.875,25.8125 C59.4219,26.2969 59.4219,26.2969 59.2344,26.3906 C58.8125,26.6563 58.125,26.7813 57.3594,26.7813 C55.3125,26.7813 54.0156,25.6875 54.0156,23.9844 L54.0156,22.8906 C54.0156,21.1094 55.2656,19.7969 57,19.7969 C57.5781,19.7969 58.1875,19.9531 58.6563,20.2031 C59.1406,20.4844 59.3125,20.7031 59.4063,21.1094 C59.4688,21.5156 59.5,21.6406 59.6406,21.7656 C59.7813,21.9063 60.0156,22.0156 60.2344,22.0156 C60.5,22.0156 60.7656,21.875 60.9375,21.6563 C61.0469,21.5 61.0781,21.3125 61.0781,20.8906 L61.0781,19.4688 C61.0781,19.0313 61.0625,18.9063 60.9688,18.75 C60.8125,18.4844 60.5313,18.3438 60.2344,18.3438 C59.9375,18.3438 59.7344,18.4375 59.5156,18.75 L59.3438,18.6719 Z " fill="#000000"/><text fill="#000000" font-family="sans-serif" font-size="14" lengthAdjust="spacing" textLength="164" x="71" y="27.8467">QuestionnaireReportUI</text><line style="stroke:#181818;stroke-width:0.5;" x1="43" x2="237" y1="39" y2="39"/><line style="stroke:#181818;stroke-width:0.5;" x1="43" x2="237" y1="47" y2="47"/><text fill="#000000" font-family="sans-serif" font-size="14" lengthAdjust="spacing" textLength="82" x="48" y="63.9951">+doShow();</text><text fill="#000000" font-family="sans-serif" font-size="14" lengthAdjust="spacing" textLength="123" x="48" y="80.292">+answerVisitor();</text></g><!--MD5=[74aa03c235db3e38de76061ff5ec181e]
class QuestionnaireReportController--><g id="elem_QuestionnaireReportController"><rect codeLine="8" fill="#F1F1F1" height="96.8906" id="QuestionnaireReportController" rx="2.5" ry="2.5" style="stroke:#181818;stroke-width:0.5;" width="266" x="7" y="148"/><ellipse cx="26.5" cy="164" fill="#ADD1B2" rx="11" ry="11" style="stroke:#181818;stroke-width:1.0;"/><path d="M28.8438,159.6719 C27.9063,159.2344 27.3125,159.0938 26.4375,159.0938 C23.8125,159.0938 21.8125,161.1719 21.8125,163.8906 L21.8125,165.0156 C21.8125,167.5938 23.9219,169.4844 26.8125,169.4844 C28.0313,169.4844 29.1875,169.1875 29.9375,168.6406 C30.5156,168.2344 30.8438,167.7813 30.8438,167.3906 C30.8438,166.9375 30.4531,166.5469 29.9844,166.5469 C29.7656,166.5469 29.5625,166.625 29.375,166.8125 C28.9219,167.2969 28.9219,167.2969 28.7344,167.3906 C28.3125,167.6563 27.625,167.7813 26.8594,167.7813 C24.8125,167.7813 23.5156,166.6875 23.5156,164.9844 L23.5156,163.8906 C23.5156,162.1094 24.7656,160.7969 26.5,160.7969 C27.0781,160.7969 27.6875,160.9531 28.1563,161.2031 C28.6406,161.4844 28.8125,161.7031 28.9063,162.1094 C28.9688,162.5156 29,162.6406 29.1406,162.7656 C29.2813,162.9063 29.5156,163.0156 29.7344,163.0156 C30,163.0156 30.2656,162.875 30.4375,162.6563 C30.5469,162.5 30.5781,162.3125 30.5781,161.8906 L30.5781,160.4688 C30.5781,160.0313 30.5625,159.9063 30.4688,159.75 C30.3125,159.4844 30.0313,159.3438 29.7344,159.3438 C29.4375,159.3438 29.2344,159.4375 29.0156,159.75 L28.8438,159.6719 Z " fill="#000000"/><text fill="#000000" font-family="sans-serif" font-size="14" lengthAdjust="spacing" textLength="224" x="41.5" y="168.8467">QuestionnaireReportController</text><line style="stroke:#181818;stroke-width:0.5;" x1="8" x2="272" y1="180" y2="180"/><line style="stroke:#181818;stroke-width:0.5;" x1="8" x2="272" y1="188" y2="188"/><text fill="#000000" font-family="sans-serif" font-size="14" lengthAdjust="spacing" textLength="86" x="13" y="204.9951">+universe();</text><text fill="#000000" font-family="sans-serif" font-size="14" lengthAdjust="spacing" textLength="106" x="13" y="221.292">+getSurveys();</text><text fill="#000000" font-family="sans-serif" font-size="14" lengthAdjust="spacing" textLength="254" x="13" y="237.5889">+getAnswersByQuestionnaireId(id);</text></g><!--MD5=[e8c189551b7885b999ad7cefb30fc2a3]
class PersistenceContext--><g id="elem_PersistenceContext"><rect codeLine="14" fill="#F1F1F1" height="96.8906" id="PersistenceContext" rx="2.5" ry="2.5" style="stroke:#181818;stroke-width:0.5;" width="208" x="310" y="148"/><ellipse cx="339.85" cy="164" fill="#ADD1B2" rx="11" ry="11" style="stroke:#181818;stroke-width:1.0;"/><path d="M342.1938,159.6719 C341.2563,159.2344 340.6625,159.0938 339.7875,159.0938 C337.1625,159.0938 335.1625,161.1719 335.1625,163.8906 L335.1625,165.0156 C335.1625,167.5938 337.2719,169.4844 340.1625,169.4844 C341.3813,169.4844 342.5375,169.1875 343.2875,168.6406 C343.8656,168.2344 344.1938,167.7813 344.1938,167.3906 C344.1938,166.9375 343.8031,166.5469 343.3344,166.5469 C343.1156,166.5469 342.9125,166.625 342.725,166.8125 C342.2719,167.2969 342.2719,167.2969 342.0844,167.3906 C341.6625,167.6563 340.975,167.7813 340.2094,167.7813 C338.1625,167.7813 336.8656,166.6875 336.8656,164.9844 L336.8656,163.8906 C336.8656,162.1094 338.1156,160.7969 339.85,160.7969 C340.4281,160.7969 341.0375,160.9531 341.5063,161.2031 C341.9906,161.4844 342.1625,161.7031 342.2563,162.1094 C342.3188,162.5156 342.35,162.6406 342.4906,162.7656 C342.6313,162.9063 342.8656,163.0156 343.0844,163.0156 C343.35,163.0156 343.6156,162.875 343.7875,162.6563 C343.8969,162.5 343.9281,162.3125 343.9281,161.8906 L343.9281,160.4688 C343.9281,160.0313 343.9125,159.9063 343.8188,159.75 C343.6625,159.4844 343.3813,159.3438 343.0844,159.3438 C342.7875,159.3438 342.5844,159.4375 342.3656,159.75 L342.1938,159.6719 Z " fill="#000000"/><text fill="#000000" font-family="sans-serif" font-size="14" lengthAdjust="spacing" textLength="143" x="357.15" y="168.8467">PersistenceContext</text><line style="stroke:#181818;stroke-width:0.5;" x1="311" x2="517" y1="180" y2="180"/><line style="stroke:#181818;stroke-width:0.5;" x1="311" x2="517" y1="188" y2="188"/><text fill="#000000" font-family="sans-serif" font-size="14" lengthAdjust="spacing" textLength="174" x="316" y="204.9951">+repositories().survey();</text><text fill="#000000" font-family="sans-serif" font-size="14" lengthAdjust="spacing" textLength="178" x="316" y="221.292">+repositories().answer();</text><text fill="#000000" font-family="sans-serif" font-size="14" lengthAdjust="spacing" textLength="196" x="316" y="237.5889">+repositories().costumer();</text></g><!--MD5=[ca0abe252586467d5b989c6b12cf24dd]
class SurveyRepository--><g id="elem_SurveyRepository"><rect codeLine="21" fill="#F1F1F1" height="64.2969" id="SurveyRepository" rx="2.5" ry="2.5" style="stroke:#181818;stroke-width:0.5;" width="159" x="553.5" y="164.5"/><ellipse cx="568.5" cy="180.5" fill="#ADD1B2" rx="11" ry="11" style="stroke:#181818;stroke-width:1.0;"/><path d="M570.8438,176.1719 C569.9063,175.7344 569.3125,175.5938 568.4375,175.5938 C565.8125,175.5938 563.8125,177.6719 563.8125,180.3906 L563.8125,181.5156 C563.8125,184.0938 565.9219,185.9844 568.8125,185.9844 C570.0313,185.9844 571.1875,185.6875 571.9375,185.1406 C572.5156,184.7344 572.8438,184.2813 572.8438,183.8906 C572.8438,183.4375 572.4531,183.0469 571.9844,183.0469 C571.7656,183.0469 571.5625,183.125 571.375,183.3125 C570.9219,183.7969 570.9219,183.7969 570.7344,183.8906 C570.3125,184.1563 569.625,184.2813 568.8594,184.2813 C566.8125,184.2813 565.5156,183.1875 565.5156,181.4844 L565.5156,180.3906 C565.5156,178.6094 566.7656,177.2969 568.5,177.2969 C569.0781,177.2969 569.6875,177.4531 570.1563,177.7031 C570.6406,177.9844 570.8125,178.2031 570.9063,178.6094 C570.9688,179.0156 571,179.1406 571.1406,179.2656 C571.2813,179.4063 571.5156,179.5156 571.7344,179.5156 C572,179.5156 572.2656,179.375 572.4375,179.1563 C572.5469,179 572.5781,178.8125 572.5781,178.3906 L572.5781,176.9688 C572.5781,176.5313 572.5625,176.4063 572.4688,176.25 C572.3125,175.9844 572.0313,175.8438 571.7344,175.8438 C571.4375,175.8438 571.2344,175.9375 571.0156,176.25 L570.8438,176.1719 Z " fill="#000000"/><text fill="#000000" font-family="sans-serif" font-size="14" lengthAdjust="spacing" textLength="127" x="582.5" y="185.3467">SurveyRepository</text><line style="stroke:#181818;stroke-width:0.5;" x1="554.5" x2="711.5" y1="196.5" y2="196.5"/><line style="stroke:#181818;stroke-width:0.5;" x1="554.5" x2="711.5" y1="204.5" y2="204.5"/><text fill="#000000" font-family="sans-serif" font-size="14" lengthAdjust="spacing" textLength="72" x="559.5" y="221.4951">+findAll();</text></g><!--MD5=[5c8703cadfa11f206abaf6e976fe0d7b]
class AnswerRepository--><g id="elem_AnswerRepository"><rect codeLine="24" fill="#F1F1F1" height="64.2969" id="AnswerRepository" rx="2.5" ry="2.5" style="stroke:#181818;stroke-width:0.5;" width="266" x="281" y="337.5"/><ellipse cx="344.25" cy="353.5" fill="#ADD1B2" rx="11" ry="11" style="stroke:#181818;stroke-width:1.0;"/><path d="M346.5938,349.1719 C345.6563,348.7344 345.0625,348.5938 344.1875,348.5938 C341.5625,348.5938 339.5625,350.6719 339.5625,353.3906 L339.5625,354.5156 C339.5625,357.0938 341.6719,358.9844 344.5625,358.9844 C345.7813,358.9844 346.9375,358.6875 347.6875,358.1406 C348.2656,357.7344 348.5938,357.2813 348.5938,356.8906 C348.5938,356.4375 348.2031,356.0469 347.7344,356.0469 C347.5156,356.0469 347.3125,356.125 347.125,356.3125 C346.6719,356.7969 346.6719,356.7969 346.4844,356.8906 C346.0625,357.1563 345.375,357.2813 344.6094,357.2813 C342.5625,357.2813 341.2656,356.1875 341.2656,354.4844 L341.2656,353.3906 C341.2656,351.6094 342.5156,350.2969 344.25,350.2969 C344.8281,350.2969 345.4375,350.4531 345.9063,350.7031 C346.3906,350.9844 346.5625,351.2031 346.6563,351.6094 C346.7188,352.0156 346.75,352.1406 346.8906,352.2656 C347.0313,352.4063 347.2656,352.5156 347.4844,352.5156 C347.75,352.5156 348.0156,352.375 348.1875,352.1563 C348.2969,352 348.3281,351.8125 348.3281,351.3906 L348.3281,349.9688 C348.3281,349.5313 348.3125,349.4063 348.2188,349.25 C348.0625,348.9844 347.7813,348.8438 347.4844,348.8438 C347.1875,348.8438 346.9844,348.9375 346.7656,349.25 L346.5938,349.1719 Z " fill="#000000"/><text fill="#000000" font-family="sans-serif" font-size="14" lengthAdjust="spacing" textLength="131" x="364.75" y="358.3467">AnswerRepository</text><line style="stroke:#181818;stroke-width:0.5;" x1="282" x2="546" y1="369.5" y2="369.5"/><line style="stroke:#181818;stroke-width:0.5;" x1="282" x2="546" y1="377.5" y2="377.5"/><text fill="#000000" font-family="sans-serif" font-size="14" lengthAdjust="spacing" textLength="254" x="287" y="394.4951">+getAnswersByQuestionnaireId(id);</text></g><!--MD5=[a45a15c9b3ca6e9fcfa533493b907ca2]
class CostumerRepository--><g id="elem_CostumerRepository"><rect codeLine="27" fill="#F1F1F1" height="64.2969" id="CostumerRepository" rx="2.5" ry="2.5" style="stroke:#181818;stroke-width:0.5;" width="181" x="582.5" y="337.5"/><ellipse cx="597.5" cy="353.5" fill="#ADD1B2" rx="11" ry="11" style="stroke:#181818;stroke-width:1.0;"/><path d="M599.8438,349.1719 C598.9063,348.7344 598.3125,348.5938 597.4375,348.5938 C594.8125,348.5938 592.8125,350.6719 592.8125,353.3906 L592.8125,354.5156 C592.8125,357.0938 594.9219,358.9844 597.8125,358.9844 C599.0313,358.9844 600.1875,358.6875 600.9375,358.1406 C601.5156,357.7344 601.8438,357.2813 601.8438,356.8906 C601.8438,356.4375 601.4531,356.0469 600.9844,356.0469 C600.7656,356.0469 600.5625,356.125 600.375,356.3125 C599.9219,356.7969 599.9219,356.7969 599.7344,356.8906 C599.3125,357.1563 598.625,357.2813 597.8594,357.2813 C595.8125,357.2813 594.5156,356.1875 594.5156,354.4844 L594.5156,353.3906 C594.5156,351.6094 595.7656,350.2969 597.5,350.2969 C598.0781,350.2969 598.6875,350.4531 599.1563,350.7031 C599.6406,350.9844 599.8125,351.2031 599.9063,351.6094 C599.9688,352.0156 600,352.1406 600.1406,352.2656 C600.2813,352.4063 600.5156,352.5156 600.7344,352.5156 C601,352.5156 601.2656,352.375 601.4375,352.1563 C601.5469,352 601.5781,351.8125 601.5781,351.3906 L601.5781,349.9688 C601.5781,349.5313 601.5625,349.4063 601.4688,349.25 C601.3125,348.9844 601.0313,348.8438 600.7344,348.8438 C600.4375,348.8438 600.2344,348.9375 600.0156,349.25 L599.8438,349.1719 Z " fill="#000000"/><text fill="#000000" font-family="sans-serif" font-size="14" lengthAdjust="spacing" textLength="149" x="611.5" y="358.3467">CostumerRepository</text><line style="stroke:#181818;stroke-width:0.5;" x1="583.5" x2="762.5" y1="369.5" y2="369.5"/><line style="stroke:#181818;stroke-width:0.5;" x1="583.5" x2="762.5" y1="377.5" y2="377.5"/><text fill="#000000" font-family="sans-serif" font-size="14" lengthAdjust="spacing" textLength="54" x="588.5" y="394.4951">+find();</text></g><!--MD5=[c1c7e6bd7f98636762d3d5e4222f2f7a]
class QuestionnaireReport--><g id="elem_QuestionnaireReport"><rect codeLine="31" fill="#F1F1F1" height="129.4844" id="QuestionnaireReport" rx="2.5" ry="2.5" style="stroke:#181818;stroke-width:0.5;" width="214" x="32" y="305"/><ellipse cx="60.95" cy="321" fill="#ADD1B2" rx="11" ry="11" style="stroke:#181818;stroke-width:1.0;"/><path d="M63.2938,316.6719 C62.3563,316.2344 61.7625,316.0938 60.8875,316.0938 C58.2625,316.0938 56.2625,318.1719 56.2625,320.8906 L56.2625,322.0156 C56.2625,324.5938 58.3719,326.4844 61.2625,326.4844 C62.4813,326.4844 63.6375,326.1875 64.3875,325.6406 C64.9656,325.2344 65.2938,324.7813 65.2938,324.3906 C65.2938,323.9375 64.9031,323.5469 64.4344,323.5469 C64.2156,323.5469 64.0125,323.625 63.825,323.8125 C63.3719,324.2969 63.3719,324.2969 63.1844,324.3906 C62.7625,324.6563 62.075,324.7813 61.3094,324.7813 C59.2625,324.7813 57.9656,323.6875 57.9656,321.9844 L57.9656,320.8906 C57.9656,319.1094 59.2156,317.7969 60.95,317.7969 C61.5281,317.7969 62.1375,317.9531 62.6063,318.2031 C63.0906,318.4844 63.2625,318.7031 63.3563,319.1094 C63.4188,319.5156 63.45,319.6406 63.5906,319.7656 C63.7313,319.9063 63.9656,320.0156 64.1844,320.0156 C64.45,320.0156 64.7156,319.875 64.8875,319.6563 C64.9969,319.5 65.0281,319.3125 65.0281,318.8906 L65.0281,317.4688 C65.0281,317.0313 65.0125,316.9063 64.9188,316.75 C64.7625,316.4844 64.4813,316.3438 64.1844,316.3438 C63.8875,316.3438 63.6844,316.4375 63.4656,316.75 L63.2938,316.6719 Z " fill="#000000"/><text fill="#000000" font-family="sans-serif" font-size="14" lengthAdjust="spacing" textLength="151" x="78.05" y="325.8467">QuestionnaireReport</text><line style="stroke:#181818;stroke-width:0.5;" x1="33" x2="245" y1="337" y2="337"/><line style="stroke:#181818;stroke-width:0.5;" x1="33" x2="245" y1="345" y2="345"/><text fill="#000000" font-family="sans-serif" font-size="14" lengthAdjust="spacing" textLength="108" x="38" y="361.9951">+reportPrint();</text><text fill="#000000" font-family="sans-serif" font-size="14" lengthAdjust="spacing" textLength="185" x="38" y="378.292">+generateSingleChoice();</text><text fill="#000000" font-family="sans-serif" font-size="14" lengthAdjust="spacing" textLength="199" x="38" y="394.5889">+generateMultipleChoice();</text><text fill="#000000" font-family="sans-serif" font-size="14" lengthAdjust="spacing" textLength="202" x="38" y="410.8857">+generateSortingOptions();</text><text fill="#000000" font-family="sans-serif" font-size="14" lengthAdjust="spacing" textLength="200" x="38" y="427.1826">+generateScalingOptions();</text></g><!--MD5=[d2aa5a24ec580a4bf4b90046270f5d01]
class AnswerVisitor--><g id="elem_AnswerVisitor"><rect codeLine="39" fill="#F1F1F1" height="64.2969" id="AnswerVisitor" rx="2.5" ry="2.5" style="stroke:#181818;stroke-width:0.5;" width="132" x="273" y="15.5"/><ellipse cx="288.45" cy="31.5" fill="#ADD1B2" rx="11" ry="11" style="stroke:#181818;stroke-width:1.0;"/><path d="M290.7938,27.1719 C289.8563,26.7344 289.2625,26.5938 288.3875,26.5938 C285.7625,26.5938 283.7625,28.6719 283.7625,31.3906 L283.7625,32.5156 C283.7625,35.0938 285.8719,36.9844 288.7625,36.9844 C289.9813,36.9844 291.1375,36.6875 291.8875,36.1406 C292.4656,35.7344 292.7938,35.2813 292.7938,34.8906 C292.7938,34.4375 292.4031,34.0469 291.9344,34.0469 C291.7156,34.0469 291.5125,34.125 291.325,34.3125 C290.8719,34.7969 290.8719,34.7969 290.6844,34.8906 C290.2625,35.1563 289.575,35.2813 288.8094,35.2813 C286.7625,35.2813 285.4656,34.1875 285.4656,32.4844 L285.4656,31.3906 C285.4656,29.6094 286.7156,28.2969 288.45,28.2969 C289.0281,28.2969 289.6375,28.4531 290.1063,28.7031 C290.5906,28.9844 290.7625,29.2031 290.8563,29.6094 C290.9188,30.0156 290.95,30.1406 291.0906,30.2656 C291.2313,30.4063 291.4656,30.5156 291.6844,30.5156 C291.95,30.5156 292.2156,30.375 292.3875,30.1563 C292.4969,30 292.5281,29.8125 292.5281,29.3906 L292.5281,27.9688 C292.5281,27.5313 292.5125,27.4063 292.4188,27.25 C292.2625,26.9844 291.9813,26.8438 291.6844,26.8438 C291.3875,26.8438 291.1844,26.9375 290.9656,27.25 L290.7938,27.1719 Z " fill="#000000"/><text fill="#000000" font-family="sans-serif" font-size="14" lengthAdjust="spacing" textLength="99" x="302.55" y="36.3467">AnswerVisitor</text><line style="stroke:#181818;stroke-width:0.5;" x1="274" x2="404" y1="47.5" y2="47.5"/><line style="stroke:#181818;stroke-width:0.5;" x1="274" x2="404" y1="55.5" y2="55.5"/><text fill="#000000" font-family="sans-serif" font-size="14" lengthAdjust="spacing" textLength="120" x="279" y="72.4951">+visitQuestion();</text></g><!--MD5=[194df8ba9de8195abb0b26d4999a810c]
link QuestionnaireReportUI to QuestionnaireReportController--><g id="link_QuestionnaireReportUI_QuestionnaireReportController"><path codeLine="42" d="M140,88.28 C140,105.068 140,124.852 140,142.826 " fill="none" id="QuestionnaireReportUI-to-QuestionnaireReportController" style="stroke:#181818;stroke-width:1.0;"/><polygon fill="#181818" points="140,147.843,144,138.843,140,142.843,136,138.843,140,147.843" style="stroke:#181818;stroke-width:1.0;"/></g><!--MD5=[680ebe249402854c9032fa1aff3c2720]
link QuestionnaireReportUI to AnswerVisitor--><g id="link_QuestionnaireReportUI_AnswerVisitor"><path codeLine="43" d="M238.334,47.5 C248.156,47.5 257.979,47.5 267.801,47.5 " fill="none" id="QuestionnaireReportUI-to-AnswerVisitor" style="stroke:#181818;stroke-width:1.0;"/><polygon fill="#181818" points="272.938,47.5,263.938,43.5,267.938,47.5,263.938,51.5,272.938,47.5" style="stroke:#181818;stroke-width:1.0;"/></g><!--MD5=[9c01af2e7140a8a992b909f62c80df1a]
link QuestionnaireReportController to PersistenceContext--><g id="link_QuestionnaireReportController_PersistenceContext"><path codeLine="44" d="M273.254,196.5 C283.727,196.5 294.2,196.5 304.674,196.5 " fill="none" id="QuestionnaireReportController-to-PersistenceContext" style="stroke:#181818;stroke-width:1.0;"/><polygon fill="#181818" points="309.815,196.5,300.815,192.5,304.815,196.5,300.815,200.5,309.815,196.5" style="stroke:#181818;stroke-width:1.0;"/></g><!--MD5=[35026124b59501909891968839e0fe98]
link PersistenceContext to SurveyRepository--><g id="link_PersistenceContext_SurveyRepository"><path codeLine="45" d="M518.367,196.5 C528.281,196.5 538.196,196.5 548.11,196.5 " fill="none" id="PersistenceContext-to-SurveyRepository" style="stroke:#181818;stroke-width:1.0;"/><polygon fill="#181818" points="553.294,196.5,544.294,192.5,548.294,196.5,544.294,200.5,553.294,196.5" style="stroke:#181818;stroke-width:1.0;"/></g><!--MD5=[bed8b1c8f4b271b25c37f099efa50f27]
link PersistenceContext to AnswerRepository--><g id="link_PersistenceContext_AnswerRepository"><path codeLine="46" d="M414,245.133 C414,272.627 414,306.667 414,332.021 " fill="none" id="PersistenceContext-to-AnswerRepository" style="stroke:#181818;stroke-width:1.0;"/><polygon fill="#181818" points="414,337.2944,418,328.2944,414,332.2944,410,328.2944,414,337.2944" style="stroke:#181818;stroke-width:1.0;"/></g><!--MD5=[abc514746734fd527bdde7c0809faa55]
link PersistenceContext to CostumerRepository--><g id="link_PersistenceContext_CostumerRepository"><path codeLine="47" d="M486.146,245.133 C529.182,273.547 582.809,308.953 621.56,334.5377 " fill="none" id="PersistenceContext-to-CostumerRepository" style="stroke:#181818;stroke-width:1.0;"/><polygon fill="#181818" points="625.735,337.2944,620.4273,328.9981,621.5621,334.54,616.0202,335.6748,625.735,337.2944" style="stroke:#181818;stroke-width:1.0;"/></g><!--MD5=[837888bd8dacbbb492182f788da8ab92]
link QuestionnaireReportController to QuestionnaireReport--><g id="link_QuestionnaireReportController_QuestionnaireReport"><path codeLine="48" d="M139.721,245.133 C139.623,262.025 139.509,281.388 139.402,299.689 " fill="none" id="QuestionnaireReportController-to-QuestionnaireReport" style="stroke:#181818;stroke-width:1.0;"/><polygon fill="#181818" points="139.372,304.82,143.4259,295.8442,139.402,299.8201,135.4261,295.7962,139.372,304.82" style="stroke:#181818;stroke-width:1.0;"/></g><!--MD5=[a6e83b1be725c7690d8227f27aa145c8]
@startuml
skinparam classAttributeIconSize 0

Class "QuestionnaireReportUI"{
+doShow();
+answerVisitor();
}

Class "QuestionnaireReportController"{
+universe();
+getSurveys();
+getAnswersByQuestionnaireId(id);
}

class PersistenceContext {
+repositories().survey();
+repositories().answer();
+repositories().costumer();
}


class SurveyRepository{
+findAll();
}
class AnswerRepository{
+getAnswersByQuestionnaireId(id);
}
class CostumerRepository{
+find();
}

class QuestionnaireReport {
+reportPrint();
+generateSingleChoice();
+generateMultipleChoice();
+generateSortingOptions();
+generateScalingOptions();
}

class AnswerVisitor{
+visitQuestion();
}
QuestionnaireReportUI -d-> QuestionnaireReportController
QuestionnaireReportUI -> AnswerVisitor
QuestionnaireReportController -r-> PersistenceContext
PersistenceContext -r-> SurveyRepository
PersistenceContext -d-> AnswerRepository
PersistenceContext -d-> CostumerRepository
QuestionnaireReportController -d-> QuestionnaireReport
@enduml

PlantUML version 1.2022.6beta5(Unknown compile time)
(GPL source distribution)
Java Runtime: Java(TM) SE Runtime Environment
JVM: Java HotSpot(TM) 64-Bit Server VM
Default Encoding: UTF-8
Language: en
Country: US
--></g></svg>