<?xml version="1.0" encoding="UTF-8" standalone="no"?><svg xmlns="http://www.w3.org/2000/svg" xmlns:xlink="http://www.w3.org/1999/xlink" contentStyleType="text/css" height="553px" preserveAspectRatio="none" style="width:1441px;height:553px;background:#FFFFFF;" version="1.1" viewBox="0 0 1441 553" width="1441px" zoomAndPan="magnify"><defs/><g><rect height="26.2969" style="stroke:#00000000;stroke-width:1.0;fill:none;" width="65" x="687" y="10"/><text fill="#000000" font-family="sans-serif" font-size="14" font-weight="bold" lengthAdjust="spacing" textLength="55" x="692" y="27.9951">Report</text><rect fill="#FFFFFF" height="416.3281" style="stroke:#181818;stroke-width:1.0;" width="10" x="91.5" y="83.5938"/><rect fill="#FFFFFF" height="235.6641" style="stroke:#181818;stroke-width:1.0;" width="10" x="331.5" y="146.8594"/><rect fill="#FFFFFF" height="30" style="stroke:#181818;stroke-width:1.0;" width="10" x="547" y="175.9922"/><rect fill="#FFFFFF" height="30" style="stroke:#181818;stroke-width:1.0;" width="10" x="714" y="264.2578"/><rect fill="#FFFFFF" height="30" style="stroke:#181818;stroke-width:1.0;" width="10" x="872" y="352.5234"/><rect fill="#FFFFFF" height="30" style="stroke:#181818;stroke-width:1.0;" width="10" x="1016" y="411.6563"/><rect fill="#FFFFFF" height="29.1328" style="stroke:#181818;stroke-width:1.0;" width="10" x="1347.5" y="470.7891"/><line style="stroke:#181818;stroke-width:0.5;stroke-dasharray:5.0,5.0;" x1="96" x2="96" y1="73.5938" y2="517.9219"/><line style="stroke:#181818;stroke-width:0.5;stroke-dasharray:5.0,5.0;" x1="336" x2="336" y1="73.5938" y2="517.9219"/><line style="stroke:#181818;stroke-width:0.5;stroke-dasharray:5.0,5.0;" x1="552" x2="552" y1="73.5938" y2="517.9219"/><line style="stroke:#181818;stroke-width:0.5;stroke-dasharray:5.0,5.0;" x1="719" x2="719" y1="73.5938" y2="517.9219"/><line style="stroke:#181818;stroke-width:0.5;stroke-dasharray:5.0,5.0;" x1="877" x2="877" y1="73.5938" y2="517.9219"/><line style="stroke:#181818;stroke-width:0.5;stroke-dasharray:5.0,5.0;" x1="1021" x2="1021" y1="73.5938" y2="517.9219"/><line style="stroke:#181818;stroke-width:0.5;stroke-dasharray:5.0,5.0;" x1="1175" x2="1175" y1="73.5938" y2="517.9219"/><line style="stroke:#181818;stroke-width:0.5;stroke-dasharray:5.0,5.0;" x1="1352" x2="1352" y1="73.5938" y2="517.9219"/><rect fill="#E2E2F0" height="30.2969" rx="2.5" ry="2.5" style="stroke:#181818;stroke-width:0.5;" width="183" x="5" y="42.2969"/><text fill="#000000" font-family="sans-serif" font-size="14" lengthAdjust="spacing" textLength="169" x="12" y="62.292">:QuestionnaireReportUI</text><rect fill="#E2E2F0" height="30.2969" rx="2.5" ry="2.5" style="stroke:#181818;stroke-width:0.5;" width="183" x="5" y="516.9219"/><text fill="#000000" font-family="sans-serif" font-size="14" lengthAdjust="spacing" textLength="169" x="12" y="536.917">:QuestionnaireReportUI</text><rect fill="#E2E2F0" height="30.2969" rx="2.5" ry="2.5" style="stroke:#181818;stroke-width:0.5;" width="243" x="215" y="42.2969"/><text fill="#000000" font-family="sans-serif" font-size="14" lengthAdjust="spacing" textLength="229" x="222" y="62.292">:QuestionnaireReportController</text><rect fill="#E2E2F0" height="30.2969" rx="2.5" ry="2.5" style="stroke:#181818;stroke-width:0.5;" width="243" x="215" y="516.9219"/><text fill="#000000" font-family="sans-serif" font-size="14" lengthAdjust="spacing" textLength="229" x="222" y="536.917">:QuestionnaireReportController</text><rect fill="#E2E2F0" height="30.2969" rx="2.5" ry="2.5" style="stroke:#181818;stroke-width:0.5;" width="168" x="468" y="42.2969"/><text fill="#000000" font-family="sans-serif" font-size="14" lengthAdjust="spacing" textLength="154" x="475" y="62.292">:CostumerRepository</text><rect fill="#E2E2F0" height="30.2969" rx="2.5" ry="2.5" style="stroke:#181818;stroke-width:0.5;" width="168" x="468" y="516.9219"/><text fill="#000000" font-family="sans-serif" font-size="14" lengthAdjust="spacing" textLength="154" x="475" y="536.917">:CostumerRepository</text><rect fill="#E2E2F0" height="30.2969" rx="2.5" ry="2.5" style="stroke:#181818;stroke-width:0.5;" width="146" x="646" y="42.2969"/><text fill="#000000" font-family="sans-serif" font-size="14" lengthAdjust="spacing" textLength="132" x="653" y="62.292">:SurveyRepository</text><rect fill="#E2E2F0" height="30.2969" rx="2.5" ry="2.5" style="stroke:#181818;stroke-width:0.5;" width="146" x="646" y="516.9219"/><text fill="#000000" font-family="sans-serif" font-size="14" lengthAdjust="spacing" textLength="132" x="653" y="536.917">:SurveyRepository</text><rect fill="#E2E2F0" height="30.2969" rx="2.5" ry="2.5" style="stroke:#181818;stroke-width:0.5;" width="150" x="802" y="42.2969"/><text fill="#000000" font-family="sans-serif" font-size="14" lengthAdjust="spacing" textLength="136" x="809" y="62.292">:AnswerRepository</text><rect fill="#E2E2F0" height="30.2969" rx="2.5" ry="2.5" style="stroke:#181818;stroke-width:0.5;" width="150" x="802" y="516.9219"/><text fill="#000000" font-family="sans-serif" font-size="14" lengthAdjust="spacing" textLength="136" x="809" y="536.917">:AnswerRepository</text><rect fill="#E2E2F0" height="30.2969" rx="2.5" ry="2.5" style="stroke:#181818;stroke-width:0.5;" width="118" x="962" y="42.2969"/><text fill="#000000" font-family="sans-serif" font-size="14" lengthAdjust="spacing" textLength="104" x="969" y="62.292">:AnswerVisitor</text><rect fill="#E2E2F0" height="30.2969" rx="2.5" ry="2.5" style="stroke:#181818;stroke-width:0.5;" width="118" x="962" y="516.9219"/><text fill="#000000" font-family="sans-serif" font-size="14" lengthAdjust="spacing" textLength="104" x="969" y="536.917">:AnswerVisitor</text><rect fill="#E2E2F0" height="30.2969" rx="2.5" ry="2.5" style="stroke:#181818;stroke-width:0.5;" width="170" x="1090" y="42.2969"/><text fill="#000000" font-family="sans-serif" font-size="14" lengthAdjust="spacing" textLength="156" x="1097" y="62.292">:QuestionnaireReport</text><rect fill="#E2E2F0" height="30.2969" rx="2.5" ry="2.5" style="stroke:#181818;stroke-width:0.5;" width="170" x="1090" y="516.9219"/><text fill="#000000" font-family="sans-serif" font-size="14" lengthAdjust="spacing" textLength="156" x="1097" y="536.917">:QuestionnaireReport</text><rect fill="#E2E2F0" height="30.2969" rx="2.5" ry="2.5" style="stroke:#181818;stroke-width:0.5;" width="165" x="1270" y="42.2969"/><text fill="#000000" font-family="sans-serif" font-size="14" lengthAdjust="spacing" textLength="151" x="1277" y="62.292">QuestionnaireReport</text><rect fill="#E2E2F0" height="30.2969" rx="2.5" ry="2.5" style="stroke:#181818;stroke-width:0.5;" width="165" x="1270" y="516.9219"/><text fill="#000000" font-family="sans-serif" font-size="14" lengthAdjust="spacing" textLength="151" x="1277" y="536.917">QuestionnaireReport</text><rect fill="#FFFFFF" height="416.3281" style="stroke:#181818;stroke-width:1.0;" width="10" x="91.5" y="83.5938"/><rect fill="#FFFFFF" height="235.6641" style="stroke:#181818;stroke-width:1.0;" width="10" x="331.5" y="146.8594"/><rect fill="#FFFFFF" height="30" style="stroke:#181818;stroke-width:1.0;" width="10" x="547" y="175.9922"/><rect fill="#FFFFFF" height="30" style="stroke:#181818;stroke-width:1.0;" width="10" x="714" y="264.2578"/><rect fill="#FFFFFF" height="30" style="stroke:#181818;stroke-width:1.0;" width="10" x="872" y="352.5234"/><rect fill="#FFFFFF" height="30" style="stroke:#181818;stroke-width:1.0;" width="10" x="1016" y="411.6563"/><rect fill="#FFFFFF" height="29.1328" style="stroke:#181818;stroke-width:1.0;" width="10" x="1347.5" y="470.7891"/><line style="stroke:#181818;stroke-width:1.0;" x1="101.5" x2="143.5" y1="104.7266" y2="104.7266"/><line style="stroke:#181818;stroke-width:1.0;" x1="143.5" x2="143.5" y1="104.7266" y2="117.7266"/><line style="stroke:#181818;stroke-width:1.0;" x1="102.5" x2="143.5" y1="117.7266" y2="117.7266"/><polygon fill="#181818" points="112.5,113.7266,102.5,117.7266,112.5,121.7266,108.5,117.7266" style="stroke:#181818;stroke-width:1.0;"/><text fill="#000000" font-family="sans-serif" font-size="13" lengthAdjust="spacing" textLength="44" x="108.5" y="99.6606">show()</text><polygon fill="#181818" points="319.5,142.8594,329.5,146.8594,319.5,150.8594,323.5,146.8594" style="stroke:#181818;stroke-width:1.0;"/><line style="stroke:#181818;stroke-width:1.0;" x1="101.5" x2="325.5" y1="146.8594" y2="146.8594"/><text fill="#000000" font-family="sans-serif" font-size="13" lengthAdjust="spacing" textLength="65" x="108.5" y="141.7935">universe()</text><polygon fill="#181818" points="535,171.9922,545,175.9922,535,179.9922,539,175.9922" style="stroke:#181818;stroke-width:1.0;"/><line style="stroke:#181818;stroke-width:1.0;" x1="341.5" x2="541" y1="175.9922" y2="175.9922"/><text fill="#000000" font-family="sans-serif" font-size="13" lengthAdjust="spacing" textLength="78" x="348.5" y="170.9263">costumers()</text><polygon fill="#181818" points="319.5,231.125,329.5,235.125,319.5,239.125,323.5,235.125" style="stroke:#181818;stroke-width:1.0;"/><line style="stroke:#181818;stroke-width:1.0;" x1="101.5" x2="325.5" y1="235.125" y2="235.125"/><text fill="#000000" font-family="sans-serif" font-size="13" lengthAdjust="spacing" textLength="83" x="108.5" y="230.0591">getSurveys()</text><polygon fill="#181818" points="702,260.2578,712,264.2578,702,268.2578,706,264.2578" style="stroke:#181818;stroke-width:1.0;"/><line style="stroke:#181818;stroke-width:1.0;" x1="341.5" x2="708" y1="264.2578" y2="264.2578"/><text fill="#000000" font-family="sans-serif" font-size="13" lengthAdjust="spacing" textLength="61" x="348.5" y="259.1919">surveys()</text><polygon fill="#181818" points="319.5,319.3906,329.5,323.3906,319.5,327.3906,323.5,323.3906" style="stroke:#181818;stroke-width:1.0;"/><line style="stroke:#181818;stroke-width:1.0;" x1="101.5" x2="325.5" y1="323.3906" y2="323.3906"/><text fill="#000000" font-family="sans-serif" font-size="13" lengthAdjust="spacing" textLength="206" x="108.5" y="318.3247">getAnswerByQuestionnaireId(id)</text><polygon fill="#181818" points="860,348.5234,870,352.5234,860,356.5234,864,352.5234" style="stroke:#181818;stroke-width:1.0;"/><line style="stroke:#181818;stroke-width:1.0;" x1="341.5" x2="866" y1="352.5234" y2="352.5234"/><text fill="#000000" font-family="sans-serif" font-size="13" lengthAdjust="spacing" textLength="206" x="348.5" y="347.4575">getAnswerByQuestionnaireId(id)</text><polygon fill="#181818" points="1004,407.6563,1014,411.6563,1004,415.6563,1008,411.6563" style="stroke:#181818;stroke-width:1.0;"/><line style="stroke:#181818;stroke-width:1.0;" x1="101.5" x2="1010" y1="411.6563" y2="411.6563"/><text fill="#000000" font-family="sans-serif" font-size="13" lengthAdjust="spacing" textLength="97" x="108.5" y="406.5903">answerVisitor()</text><polygon fill="#181818" points="1335.5,466.7891,1345.5,470.7891,1335.5,474.7891,1339.5,470.7891" style="stroke:#181818;stroke-width:1.0;"/><line style="stroke:#181818;stroke-width:1.0;" x1="101.5" x2="1341.5" y1="470.7891" y2="470.7891"/><text fill="#000000" font-family="sans-serif" font-size="13" lengthAdjust="spacing" textLength="41" x="108.5" y="465.7231">create</text><polygon fill="#181818" points="1340.5,495.9219,1350.5,499.9219,1340.5,503.9219,1344.5,499.9219" style="stroke:#181818;stroke-width:1.0;"/><line style="stroke:#181818;stroke-width:1.0;" x1="96.5" x2="1346.5" y1="499.9219" y2="499.9219"/><text fill="#000000" font-family="sans-serif" font-size="13" lengthAdjust="spacing" textLength="72" x="103.5" y="494.856">printReport</text><!--MD5=[825d0663df72094b14956eee9f7b1648]
@startuml
title Report

participant ":QuestionnaireReportUI" as UI
participant ":QuestionnaireReportController" as CTRL
participant ":CostumerRepository" as CR
participant ":SurveyRepository" as SR
participant ":AnswerRepository" as AR
participant ":AnswerVisitor" as AV
participant ":QuestionnaireReport" as QR


activate UI
UI -> UI : show()
UI -> CTRL : universe()
activate CTRL
CTRL -> CR : costumers()
activate CR
deactivate CR
UI -> CTRL : getSurveys() 
CTRL -> SR : surveys()
activate SR
deactivate SR
UI -> CTRL : getAnswerByQuestionnaireId(id) 
CTRL -> AR: getAnswerByQuestionnaireId(id)
activate AR
deactivate AR
deactivate CTRL
UI -> AV : answerVisitor()
activate AV
deactivate AV
UI -> QuestionnaireReport: create
activate QuestionnaireReport
UI -> QuestionnaireReport: printReport
deactivate QuestionnaireReport
deactivate UI
@enduml

PlantUML version 1.2022.6beta5(Unknown compile time)
(GPL source distribution)
Java Runtime: Java(TM) SE Runtime Environment
JVM: Java HotSpot(TM) 64-Bit Server VM
Default Encoding: UTF-8
Language: en
Country: US
--></g></svg>