<?xml version="1.0" encoding="UTF-8" standalone="no"?><svg xmlns="http://www.w3.org/2000/svg" xmlns:xlink="http://www.w3.org/1999/xlink" contentStyleType="text/css" height="640px" preserveAspectRatio="none" style="width:1128px;height:640px;background:#FFFFFF;" version="1.1" viewBox="0 0 1128 640" width="1128px" zoomAndPan="magnify"><defs/><g><!--MD5=[363b972afd27ec17c81a982e62e232c4]
class AGVsDashboardUI--><g id="elem_AGVsDashboardUI"><rect codeLine="3" fill="#F1F1F1" height="64.2969" id="AGVsDashboardUI" rx="2.5" ry="2.5" style="stroke:#181818;stroke-width:0.5;" width="160" x="672" y="7"/><ellipse cx="687" cy="23" fill="#ADD1B2" rx="11" ry="11" style="stroke:#181818;stroke-width:1.0;"/><path d="M689.3438,18.6719 C688.4063,18.2344 687.8125,18.0938 686.9375,18.0938 C684.3125,18.0938 682.3125,20.1719 682.3125,22.8906 L682.3125,24.0156 C682.3125,26.5938 684.4219,28.4844 687.3125,28.4844 C688.5313,28.4844 689.6875,28.1875 690.4375,27.6406 C691.0156,27.2344 691.3438,26.7813 691.3438,26.3906 C691.3438,25.9375 690.9531,25.5469 690.4844,25.5469 C690.2656,25.5469 690.0625,25.625 689.875,25.8125 C689.4219,26.2969 689.4219,26.2969 689.2344,26.3906 C688.8125,26.6563 688.125,26.7813 687.3594,26.7813 C685.3125,26.7813 684.0156,25.6875 684.0156,23.9844 L684.0156,22.8906 C684.0156,21.1094 685.2656,19.7969 687,19.7969 C687.5781,19.7969 688.1875,19.9531 688.6563,20.2031 C689.1406,20.4844 689.3125,20.7031 689.4063,21.1094 C689.4688,21.5156 689.5,21.6406 689.6406,21.7656 C689.7813,21.9063 690.0156,22.0156 690.2344,22.0156 C690.5,22.0156 690.7656,21.875 690.9375,21.6563 C691.0469,21.5 691.0781,21.3125 691.0781,20.8906 L691.0781,19.4688 C691.0781,19.0313 691.0625,18.9063 690.9688,18.75 C690.8125,18.4844 690.5313,18.3438 690.2344,18.3438 C689.9375,18.3438 689.7344,18.4375 689.5156,18.75 L689.3438,18.6719 Z " fill="#000000"/><text fill="#000000" font-family="sans-serif" font-size="14" lengthAdjust="spacing" textLength="128" x="701" y="27.8467">AGVsDashboardUI</text><line style="stroke:#181818;stroke-width:0.5;" x1="673" x2="831" y1="39" y2="39"/><line style="stroke:#181818;stroke-width:0.5;" x1="673" x2="831" y1="47" y2="47"/><text fill="#000000" font-family="sans-serif" font-size="14" lengthAdjust="spacing" textLength="77" x="678" y="63.9951">+doShow()</text></g><!--MD5=[fb6956701906676b745c061cdaf66dad]
class AGVsDashboardController--><g id="elem_AGVsDashboardController"><rect codeLine="7" fill="#F1F1F1" height="96.8906" id="AGVsDashboardController" rx="2.5" ry="2.5" style="stroke:#181818;stroke-width:0.5;" width="220" x="642" y="131"/><ellipse cx="657" cy="147" fill="#ADD1B2" rx="11" ry="11" style="stroke:#181818;stroke-width:1.0;"/><path d="M659.3438,142.6719 C658.4063,142.2344 657.8125,142.0938 656.9375,142.0938 C654.3125,142.0938 652.3125,144.1719 652.3125,146.8906 L652.3125,148.0156 C652.3125,150.5938 654.4219,152.4844 657.3125,152.4844 C658.5313,152.4844 659.6875,152.1875 660.4375,151.6406 C661.0156,151.2344 661.3438,150.7813 661.3438,150.3906 C661.3438,149.9375 660.9531,149.5469 660.4844,149.5469 C660.2656,149.5469 660.0625,149.625 659.875,149.8125 C659.4219,150.2969 659.4219,150.2969 659.2344,150.3906 C658.8125,150.6563 658.125,150.7813 657.3594,150.7813 C655.3125,150.7813 654.0156,149.6875 654.0156,147.9844 L654.0156,146.8906 C654.0156,145.1094 655.2656,143.7969 657,143.7969 C657.5781,143.7969 658.1875,143.9531 658.6563,144.2031 C659.1406,144.4844 659.3125,144.7031 659.4063,145.1094 C659.4688,145.5156 659.5,145.6406 659.6406,145.7656 C659.7813,145.9063 660.0156,146.0156 660.2344,146.0156 C660.5,146.0156 660.7656,145.875 660.9375,145.6563 C661.0469,145.5 661.0781,145.3125 661.0781,144.8906 L661.0781,143.4688 C661.0781,143.0313 661.0625,142.9063 660.9688,142.75 C660.8125,142.4844 660.5313,142.3438 660.2344,142.3438 C659.9375,142.3438 659.7344,142.4375 659.5156,142.75 L659.3438,142.6719 Z " fill="#000000"/><text fill="#000000" font-family="sans-serif" font-size="14" lengthAdjust="spacing" textLength="188" x="671" y="151.8467">AGVsDashboardController</text><line style="stroke:#181818;stroke-width:0.5;" x1="643" x2="861" y1="163" y2="163"/><line style="stroke:#181818;stroke-width:0.5;" x1="643" x2="861" y1="171" y2="171"/><text fill="#000000" font-family="sans-serif" font-size="14" lengthAdjust="spacing" textLength="139" x="648" y="187.9951">+showDashboard();</text><text fill="#000000" font-family="sans-serif" font-size="14" lengthAdjust="spacing" textLength="86" x="648" y="204.292">+agvsInfo();</text><text fill="#000000" font-family="sans-serif" font-size="14" lengthAdjust="spacing" textLength="91" x="648" y="220.5889">+agvState();</text></g><!--MD5=[e8c189551b7885b999ad7cefb30fc2a3]
class PersistenceContext--><g id="elem_PersistenceContext"><rect codeLine="13" fill="#F1F1F1" height="96.8906" id="PersistenceContext" rx="2.5" ry="2.5" style="stroke:#181818;stroke-width:0.5;" width="234" x="887" y="288"/><ellipse cx="928.55" cy="304" fill="#ADD1B2" rx="11" ry="11" style="stroke:#181818;stroke-width:1.0;"/><path d="M930.8938,299.6719 C929.9563,299.2344 929.3625,299.0938 928.4875,299.0938 C925.8625,299.0938 923.8625,301.1719 923.8625,303.8906 L923.8625,305.0156 C923.8625,307.5938 925.9719,309.4844 928.8625,309.4844 C930.0813,309.4844 931.2375,309.1875 931.9875,308.6406 C932.5656,308.2344 932.8938,307.7813 932.8938,307.3906 C932.8938,306.9375 932.5031,306.5469 932.0344,306.5469 C931.8156,306.5469 931.6125,306.625 931.425,306.8125 C930.9719,307.2969 930.9719,307.2969 930.7844,307.3906 C930.3625,307.6563 929.675,307.7813 928.9094,307.7813 C926.8625,307.7813 925.5656,306.6875 925.5656,304.9844 L925.5656,303.8906 C925.5656,302.1094 926.8156,300.7969 928.55,300.7969 C929.1281,300.7969 929.7375,300.9531 930.2063,301.2031 C930.6906,301.4844 930.8625,301.7031 930.9563,302.1094 C931.0188,302.5156 931.05,302.6406 931.1906,302.7656 C931.3313,302.9063 931.5656,303.0156 931.7844,303.0156 C932.05,303.0156 932.3156,302.875 932.4875,302.6563 C932.5969,302.5 932.6281,302.3125 932.6281,301.8906 L932.6281,300.4688 C932.6281,300.0313 932.6125,299.9063 932.5188,299.75 C932.3625,299.4844 932.0813,299.3438 931.7844,299.3438 C931.4875,299.3438 931.2844,299.4375 931.0656,299.75 L930.8938,299.6719 Z " fill="#000000"/><text fill="#000000" font-family="sans-serif" font-size="14" lengthAdjust="spacing" textLength="143" x="948.45" y="308.8467">PersistenceContext</text><line style="stroke:#181818;stroke-width:0.5;" x1="888" x2="1120" y1="320" y2="320"/><text fill="#000000" font-family="sans-serif" font-size="14" lengthAdjust="spacing" textLength="120" x="893" y="336.9951">-Logger LOGGER</text><text fill="#000000" font-family="sans-serif" font-size="14" lengthAdjust="spacing" textLength="222" x="893" y="353.292">-RepositoryFactory theFactory</text><line style="stroke:#181818;stroke-width:0.5;" x1="888" x2="1120" y1="360.5938" y2="360.5938"/><text fill="#000000" font-family="sans-serif" font-size="14" lengthAdjust="spacing" textLength="108" x="893" y="377.5889">+repositories()</text></g><!--MD5=[48590afff58a68e2fcba47824d6f8a11]
class RepositoryFactory--><g id="elem_RepositoryFactory"><rect codeLine="19" fill="#F1F1F1" height="64.2969" id="RepositoryFactory" rx="2.5" ry="2.5" style="stroke:#181818;stroke-width:0.5;" width="165" x="921.5" y="445"/><ellipse cx="936.5" cy="461" fill="#ADD1B2" rx="11" ry="11" style="stroke:#181818;stroke-width:1.0;"/><path d="M938.8438,456.6719 C937.9063,456.2344 937.3125,456.0938 936.4375,456.0938 C933.8125,456.0938 931.8125,458.1719 931.8125,460.8906 L931.8125,462.0156 C931.8125,464.5938 933.9219,466.4844 936.8125,466.4844 C938.0313,466.4844 939.1875,466.1875 939.9375,465.6406 C940.5156,465.2344 940.8438,464.7813 940.8438,464.3906 C940.8438,463.9375 940.4531,463.5469 939.9844,463.5469 C939.7656,463.5469 939.5625,463.625 939.375,463.8125 C938.9219,464.2969 938.9219,464.2969 938.7344,464.3906 C938.3125,464.6563 937.625,464.7813 936.8594,464.7813 C934.8125,464.7813 933.5156,463.6875 933.5156,461.9844 L933.5156,460.8906 C933.5156,459.1094 934.7656,457.7969 936.5,457.7969 C937.0781,457.7969 937.6875,457.9531 938.1563,458.2031 C938.6406,458.4844 938.8125,458.7031 938.9063,459.1094 C938.9688,459.5156 939,459.6406 939.1406,459.7656 C939.2813,459.9063 939.5156,460.0156 939.7344,460.0156 C940,460.0156 940.2656,459.875 940.4375,459.6563 C940.5469,459.5 940.5781,459.3125 940.5781,458.8906 L940.5781,457.4688 C940.5781,457.0313 940.5625,456.9063 940.4688,456.75 C940.3125,456.4844 940.0313,456.3438 939.7344,456.3438 C939.4375,456.3438 939.2344,456.4375 939.0156,456.75 L938.8438,456.6719 Z " fill="#000000"/><text fill="#000000" font-family="sans-serif" font-size="14" lengthAdjust="spacing" textLength="133" x="950.5" y="465.8467">RepositoryFactory</text><line style="stroke:#181818;stroke-width:0.5;" x1="922.5" x2="1085.5" y1="477" y2="477"/><line style="stroke:#181818;stroke-width:0.5;" x1="922.5" x2="1085.5" y1="485" y2="485"/><text fill="#000000" font-family="sans-serif" font-size="14" lengthAdjust="spacing" textLength="53" x="927.5" y="501.9951">+agvs()</text></g><!--MD5=[7799cb959f8bb7cb7fd993d5fbd75b00]
class AGVsRepository--><g id="elem_AGVsRepository"><rect codeLine="23" fill="#F1F1F1" height="64.2969" id="AGVsRepository" rx="2.5" ry="2.5" style="stroke:#181818;stroke-width:0.5;" width="149" x="929.5" y="569"/><ellipse cx="944.5" cy="585" fill="#ADD1B2" rx="11" ry="11" style="stroke:#181818;stroke-width:1.0;"/><path d="M946.8438,580.6719 C945.9063,580.2344 945.3125,580.0938 944.4375,580.0938 C941.8125,580.0938 939.8125,582.1719 939.8125,584.8906 L939.8125,586.0156 C939.8125,588.5938 941.9219,590.4844 944.8125,590.4844 C946.0313,590.4844 947.1875,590.1875 947.9375,589.6406 C948.5156,589.2344 948.8438,588.7813 948.8438,588.3906 C948.8438,587.9375 948.4531,587.5469 947.9844,587.5469 C947.7656,587.5469 947.5625,587.625 947.375,587.8125 C946.9219,588.2969 946.9219,588.2969 946.7344,588.3906 C946.3125,588.6563 945.625,588.7813 944.8594,588.7813 C942.8125,588.7813 941.5156,587.6875 941.5156,585.9844 L941.5156,584.8906 C941.5156,583.1094 942.7656,581.7969 944.5,581.7969 C945.0781,581.7969 945.6875,581.9531 946.1563,582.2031 C946.6406,582.4844 946.8125,582.7031 946.9063,583.1094 C946.9688,583.5156 947,583.6406 947.1406,583.7656 C947.2813,583.9063 947.5156,584.0156 947.7344,584.0156 C948,584.0156 948.2656,583.875 948.4375,583.6563 C948.5469,583.5 948.5781,583.3125 948.5781,582.8906 L948.5781,581.4688 C948.5781,581.0313 948.5625,580.9063 948.4688,580.75 C948.3125,580.4844 948.0313,580.3438 947.7344,580.3438 C947.4375,580.3438 947.2344,580.4375 947.0156,580.75 L946.8438,580.6719 Z " fill="#000000"/><text fill="#000000" font-family="sans-serif" font-size="14" lengthAdjust="spacing" textLength="117" x="958.5" y="589.8467">AGVsRepository</text><line style="stroke:#181818;stroke-width:0.5;" x1="930.5" x2="1077.5" y1="601" y2="601"/><line style="stroke:#181818;stroke-width:0.5;" x1="930.5" x2="1077.5" y1="609" y2="609"/><text fill="#000000" font-family="sans-serif" font-size="14" lengthAdjust="spacing" textLength="72" x="935.5" y="625.9951">+findAll();</text></g><!--MD5=[139f54a2b4833ac0fa1c2560b6ce5120]
class HttpsServerAjaxVoting--><g id="elem_HttpsServerAjaxVoting"><rect codeLine="27" fill="#F1F1F1" height="64.2969" id="HttpsServerAjaxVoting" rx="2.5" ry="2.5" style="stroke:#181818;stroke-width:0.5;" width="198" x="7" y="304.5"/><ellipse cx="22" cy="320.5" fill="#ADD1B2" rx="11" ry="11" style="stroke:#181818;stroke-width:1.0;"/><path d="M24.3438,316.1719 C23.4063,315.7344 22.8125,315.5938 21.9375,315.5938 C19.3125,315.5938 17.3125,317.6719 17.3125,320.3906 L17.3125,321.5156 C17.3125,324.0938 19.4219,325.9844 22.3125,325.9844 C23.5313,325.9844 24.6875,325.6875 25.4375,325.1406 C26.0156,324.7344 26.3438,324.2813 26.3438,323.8906 C26.3438,323.4375 25.9531,323.0469 25.4844,323.0469 C25.2656,323.0469 25.0625,323.125 24.875,323.3125 C24.4219,323.7969 24.4219,323.7969 24.2344,323.8906 C23.8125,324.1563 23.125,324.2813 22.3594,324.2813 C20.3125,324.2813 19.0156,323.1875 19.0156,321.4844 L19.0156,320.3906 C19.0156,318.6094 20.2656,317.2969 22,317.2969 C22.5781,317.2969 23.1875,317.4531 23.6563,317.7031 C24.1406,317.9844 24.3125,318.2031 24.4063,318.6094 C24.4688,319.0156 24.5,319.1406 24.6406,319.2656 C24.7813,319.4063 25.0156,319.5156 25.2344,319.5156 C25.5,319.5156 25.7656,319.375 25.9375,319.1563 C26.0469,319 26.0781,318.8125 26.0781,318.3906 L26.0781,316.9688 C26.0781,316.5313 26.0625,316.4063 25.9688,316.25 C25.8125,315.9844 25.5313,315.8438 25.2344,315.8438 C24.9375,315.8438 24.7344,315.9375 24.5156,316.25 L24.3438,316.1719 Z " fill="#000000"/><text fill="#000000" font-family="sans-serif" font-size="14" lengthAdjust="spacing" textLength="166" x="36" y="325.3467">HttpsServerAjaxVoting</text><line style="stroke:#181818;stroke-width:0.5;" x1="8" x2="204" y1="336.5" y2="336.5"/><line style="stroke:#181818;stroke-width:0.5;" x1="8" x2="204" y1="344.5" y2="344.5"/><text fill="#000000" font-family="sans-serif" font-size="14" lengthAdjust="spacing" textLength="61" x="13" y="361.4951">+start();</text></g><!--MD5=[87e77d02fb3e3d718169517b5a8fd9d4]
class HTTPMessage--><g id="elem_HTTPMessage"><rect codeLine="30" fill="#F1F1F1" height="64.2969" id="HTTPMessage" rx="2.5" ry="2.5" style="stroke:#181818;stroke-width:0.5;" width="136" x="481" y="304.5"/><ellipse cx="498.7" cy="320.5" fill="#ADD1B2" rx="11" ry="11" style="stroke:#181818;stroke-width:1.0;"/><path d="M501.0438,316.1719 C500.1063,315.7344 499.5125,315.5938 498.6375,315.5938 C496.0125,315.5938 494.0125,317.6719 494.0125,320.3906 L494.0125,321.5156 C494.0125,324.0938 496.1219,325.9844 499.0125,325.9844 C500.2313,325.9844 501.3875,325.6875 502.1375,325.1406 C502.7156,324.7344 503.0438,324.2813 503.0438,323.8906 C503.0438,323.4375 502.6531,323.0469 502.1844,323.0469 C501.9656,323.0469 501.7625,323.125 501.575,323.3125 C501.1219,323.7969 501.1219,323.7969 500.9344,323.8906 C500.5125,324.1563 499.825,324.2813 499.0594,324.2813 C497.0125,324.2813 495.7156,323.1875 495.7156,321.4844 L495.7156,320.3906 C495.7156,318.6094 496.9656,317.2969 498.7,317.2969 C499.2781,317.2969 499.8875,317.4531 500.3563,317.7031 C500.8406,317.9844 501.0125,318.2031 501.1063,318.6094 C501.1688,319.0156 501.2,319.1406 501.3406,319.2656 C501.4813,319.4063 501.7156,319.5156 501.9344,319.5156 C502.2,319.5156 502.4656,319.375 502.6375,319.1563 C502.7469,319 502.7781,318.8125 502.7781,318.3906 L502.7781,316.9688 C502.7781,316.5313 502.7625,316.4063 502.6688,316.25 C502.5125,315.9844 502.2313,315.8438 501.9344,315.8438 C501.6375,315.8438 501.4344,315.9375 501.2156,316.25 L501.0438,316.1719 Z " fill="#000000"/><text fill="#000000" font-family="sans-serif" font-size="14" lengthAdjust="spacing" textLength="98" x="513.3" y="325.3467">HTTPMessage</text><line style="stroke:#181818;stroke-width:0.5;" x1="482" x2="616" y1="336.5" y2="336.5"/><line style="stroke:#181818;stroke-width:0.5;" x1="482" x2="616" y1="344.5" y2="344.5"/><text fill="#000000" font-family="sans-serif" font-size="14" lengthAdjust="spacing" textLength="124" x="487" y="361.4951">+HTTPMessage();</text></g><!--MD5=[90a796b93d26134dafdf52d4b32a8b11]
class HTTPAjaxVotingRequest--><g id="elem_HTTPAjaxVotingRequest"><rect codeLine="33" fill="#F1F1F1" height="64.2969" id="HTTPAjaxVotingRequest" rx="2.5" ry="2.5" style="stroke:#181818;stroke-width:0.5;" width="206" x="240" y="304.5"/><ellipse cx="255" cy="320.5" fill="#ADD1B2" rx="11" ry="11" style="stroke:#181818;stroke-width:1.0;"/><path d="M257.3438,316.1719 C256.4063,315.7344 255.8125,315.5938 254.9375,315.5938 C252.3125,315.5938 250.3125,317.6719 250.3125,320.3906 L250.3125,321.5156 C250.3125,324.0938 252.4219,325.9844 255.3125,325.9844 C256.5313,325.9844 257.6875,325.6875 258.4375,325.1406 C259.0156,324.7344 259.3438,324.2813 259.3438,323.8906 C259.3438,323.4375 258.9531,323.0469 258.4844,323.0469 C258.2656,323.0469 258.0625,323.125 257.875,323.3125 C257.4219,323.7969 257.4219,323.7969 257.2344,323.8906 C256.8125,324.1563 256.125,324.2813 255.3594,324.2813 C253.3125,324.2813 252.0156,323.1875 252.0156,321.4844 L252.0156,320.3906 C252.0156,318.6094 253.2656,317.2969 255,317.2969 C255.5781,317.2969 256.1875,317.4531 256.6563,317.7031 C257.1406,317.9844 257.3125,318.2031 257.4063,318.6094 C257.4688,319.0156 257.5,319.1406 257.6406,319.2656 C257.7813,319.4063 258.0156,319.5156 258.2344,319.5156 C258.5,319.5156 258.7656,319.375 258.9375,319.1563 C259.0469,319 259.0781,318.8125 259.0781,318.3906 L259.0781,316.9688 C259.0781,316.5313 259.0625,316.4063 258.9688,316.25 C258.8125,315.9844 258.5313,315.8438 258.2344,315.8438 C257.9375,315.8438 257.7344,315.9375 257.5156,316.25 L257.3438,316.1719 Z " fill="#000000"/><text fill="#000000" font-family="sans-serif" font-size="14" lengthAdjust="spacing" textLength="174" x="269" y="325.3467">HTTPAjaxVotingRequest</text><line style="stroke:#181818;stroke-width:0.5;" x1="241" x2="445" y1="336.5" y2="336.5"/><line style="stroke:#181818;stroke-width:0.5;" x1="241" x2="445" y1="344.5" y2="344.5"/><text fill="#000000" font-family="sans-serif" font-size="14" lengthAdjust="spacing" textLength="49" x="246" y="361.4951">+run();</text></g><!--MD5=[ae93a5ed91bab41978f599b885d6d201]
class AGVDashboardInfoDTO--><g id="elem_AGVDashboardInfoDTO"><rect codeLine="37" fill="#F1F1F1" height="96.8906" id="AGVDashboardInfoDTO" rx="2.5" ry="2.5" style="stroke:#181818;stroke-width:0.5;" width="199" x="652.5" y="288"/><ellipse cx="667.5" cy="304" fill="#ADD1B2" rx="11" ry="11" style="stroke:#181818;stroke-width:1.0;"/><path d="M669.8438,299.6719 C668.9063,299.2344 668.3125,299.0938 667.4375,299.0938 C664.8125,299.0938 662.8125,301.1719 662.8125,303.8906 L662.8125,305.0156 C662.8125,307.5938 664.9219,309.4844 667.8125,309.4844 C669.0313,309.4844 670.1875,309.1875 670.9375,308.6406 C671.5156,308.2344 671.8438,307.7813 671.8438,307.3906 C671.8438,306.9375 671.4531,306.5469 670.9844,306.5469 C670.7656,306.5469 670.5625,306.625 670.375,306.8125 C669.9219,307.2969 669.9219,307.2969 669.7344,307.3906 C669.3125,307.6563 668.625,307.7813 667.8594,307.7813 C665.8125,307.7813 664.5156,306.6875 664.5156,304.9844 L664.5156,303.8906 C664.5156,302.1094 665.7656,300.7969 667.5,300.7969 C668.0781,300.7969 668.6875,300.9531 669.1563,301.2031 C669.6406,301.4844 669.8125,301.7031 669.9063,302.1094 C669.9688,302.5156 670,302.6406 670.1406,302.7656 C670.2813,302.9063 670.5156,303.0156 670.7344,303.0156 C671,303.0156 671.2656,302.875 671.4375,302.6563 C671.5469,302.5 671.5781,302.3125 671.5781,301.8906 L671.5781,300.4688 C671.5781,300.0313 671.5625,299.9063 671.4688,299.75 C671.3125,299.4844 671.0313,299.3438 670.7344,299.3438 C670.4375,299.3438 670.2344,299.4375 670.0156,299.75 L669.8438,299.6719 Z " fill="#000000"/><text fill="#000000" font-family="sans-serif" font-size="14" lengthAdjust="spacing" textLength="167" x="681.5" y="308.8467">AGVDashboardInfoDTO</text><line style="stroke:#181818;stroke-width:0.5;" x1="653.5" x2="850.5" y1="320" y2="320"/><text fill="#000000" font-family="sans-serif" font-size="14" lengthAdjust="spacing" textLength="138" x="658.5" y="336.9951">-String Description</text><text fill="#000000" font-family="sans-serif" font-size="14" lengthAdjust="spacing" textLength="100" x="658.5" y="353.292">-String Status</text><text fill="#000000" font-family="sans-serif" font-size="14" lengthAdjust="spacing" textLength="112" x="658.5" y="369.5889">-String Position</text><line style="stroke:#181818;stroke-width:0.5;" x1="653.5" x2="850.5" y1="376.8906" y2="376.8906"/></g><!--MD5=[8547e8cd29eb525428380b514614e50a]
class TcpClient--><g id="elem_TcpClient"><rect codeLine="43" fill="#F1F1F1" height="96.8906" id="TcpClient" rx="2.5" ry="2.5" style="stroke:#181818;stroke-width:0.5;" width="156" x="451" y="131"/><ellipse cx="490.3" cy="147" fill="#ADD1B2" rx="11" ry="11" style="stroke:#181818;stroke-width:1.0;"/><path d="M492.6438,142.6719 C491.7063,142.2344 491.1125,142.0938 490.2375,142.0938 C487.6125,142.0938 485.6125,144.1719 485.6125,146.8906 L485.6125,148.0156 C485.6125,150.5938 487.7219,152.4844 490.6125,152.4844 C491.8313,152.4844 492.9875,152.1875 493.7375,151.6406 C494.3156,151.2344 494.6438,150.7813 494.6438,150.3906 C494.6438,149.9375 494.2531,149.5469 493.7844,149.5469 C493.5656,149.5469 493.3625,149.625 493.175,149.8125 C492.7219,150.2969 492.7219,150.2969 492.5344,150.3906 C492.1125,150.6563 491.425,150.7813 490.6594,150.7813 C488.6125,150.7813 487.3156,149.6875 487.3156,147.9844 L487.3156,146.8906 C487.3156,145.1094 488.5656,143.7969 490.3,143.7969 C490.8781,143.7969 491.4875,143.9531 491.9563,144.2031 C492.4406,144.4844 492.6125,144.7031 492.7063,145.1094 C492.7688,145.5156 492.8,145.6406 492.9406,145.7656 C493.0813,145.9063 493.3156,146.0156 493.5344,146.0156 C493.8,146.0156 494.0656,145.875 494.2375,145.6563 C494.3469,145.5 494.3781,145.3125 494.3781,144.8906 L494.3781,143.4688 C494.3781,143.0313 494.3625,142.9063 494.2688,142.75 C494.1125,142.4844 493.8313,142.3438 493.5344,142.3438 C493.2375,142.3438 493.0344,142.4375 492.8156,142.75 L492.6438,142.6719 Z " fill="#000000"/><text fill="#000000" font-family="sans-serif" font-size="14" lengthAdjust="spacing" textLength="70" x="509.7" y="151.8467">TcpClient</text><line style="stroke:#181818;stroke-width:0.5;" x1="452" x2="606" y1="163" y2="163"/><line style="stroke:#181818;stroke-width:0.5;" x1="452" x2="606" y1="171" y2="171"/><text fill="#000000" font-family="sans-serif" font-size="14" lengthAdjust="spacing" textLength="144" x="457" y="187.9951">+startConnection();</text><text fill="#000000" font-family="sans-serif" font-size="14" lengthAdjust="spacing" textLength="118" x="457" y="204.292">+getAgvState();</text><text fill="#000000" font-family="sans-serif" font-size="14" lengthAdjust="spacing" textLength="142" x="457" y="220.5889">+stopConnection();</text></g><!--MD5=[ef70be79f6755a35fb39f64e7faf05f7]
class Packet--><g id="elem_Packet"><rect fill="#F1F1F1" height="48" id="Packet" rx="2.5" ry="2.5" style="stroke:#181818;stroke-width:0.5;" width="82" x="334" y="155.5"/><ellipse cx="349" cy="171.5" fill="#ADD1B2" rx="11" ry="11" style="stroke:#181818;stroke-width:1.0;"/><path d="M351.3438,167.1719 C350.4063,166.7344 349.8125,166.5938 348.9375,166.5938 C346.3125,166.5938 344.3125,168.6719 344.3125,171.3906 L344.3125,172.5156 C344.3125,175.0938 346.4219,176.9844 349.3125,176.9844 C350.5313,176.9844 351.6875,176.6875 352.4375,176.1406 C353.0156,175.7344 353.3438,175.2813 353.3438,174.8906 C353.3438,174.4375 352.9531,174.0469 352.4844,174.0469 C352.2656,174.0469 352.0625,174.125 351.875,174.3125 C351.4219,174.7969 351.4219,174.7969 351.2344,174.8906 C350.8125,175.1563 350.125,175.2813 349.3594,175.2813 C347.3125,175.2813 346.0156,174.1875 346.0156,172.4844 L346.0156,171.3906 C346.0156,169.6094 347.2656,168.2969 349,168.2969 C349.5781,168.2969 350.1875,168.4531 350.6563,168.7031 C351.1406,168.9844 351.3125,169.2031 351.4063,169.6094 C351.4688,170.0156 351.5,170.1406 351.6406,170.2656 C351.7813,170.4063 352.0156,170.5156 352.2344,170.5156 C352.5,170.5156 352.7656,170.375 352.9375,170.1563 C353.0469,170 353.0781,169.8125 353.0781,169.3906 L353.0781,167.9688 C353.0781,167.5313 353.0625,167.4063 352.9688,167.25 C352.8125,166.9844 352.5313,166.8438 352.2344,166.8438 C351.9375,166.8438 351.7344,166.9375 351.5156,167.25 L351.3438,167.1719 Z " fill="#000000"/><text fill="#000000" font-family="sans-serif" font-size="14" lengthAdjust="spacing" textLength="50" x="363" y="176.3467">Packet</text><line style="stroke:#181818;stroke-width:0.5;" x1="335" x2="415" y1="187.5" y2="187.5"/><line style="stroke:#181818;stroke-width:0.5;" x1="335" x2="415" y1="195.5" y2="195.5"/></g><!--MD5=[d7724097116ffcb6ea40e9e893263eea]
class TcpServerAGVManager--><g id="elem_TcpServerAGVManager"><rect fill="#F1F1F1" height="48" id="TcpServerAGVManager" rx="2.5" ry="2.5" style="stroke:#181818;stroke-width:0.5;" width="198" x="101" y="155.5"/><ellipse cx="116" cy="171.5" fill="#ADD1B2" rx="11" ry="11" style="stroke:#181818;stroke-width:1.0;"/><path d="M118.3438,167.1719 C117.4063,166.7344 116.8125,166.5938 115.9375,166.5938 C113.3125,166.5938 111.3125,168.6719 111.3125,171.3906 L111.3125,172.5156 C111.3125,175.0938 113.4219,176.9844 116.3125,176.9844 C117.5313,176.9844 118.6875,176.6875 119.4375,176.1406 C120.0156,175.7344 120.3438,175.2813 120.3438,174.8906 C120.3438,174.4375 119.9531,174.0469 119.4844,174.0469 C119.2656,174.0469 119.0625,174.125 118.875,174.3125 C118.4219,174.7969 118.4219,174.7969 118.2344,174.8906 C117.8125,175.1563 117.125,175.2813 116.3594,175.2813 C114.3125,175.2813 113.0156,174.1875 113.0156,172.4844 L113.0156,171.3906 C113.0156,169.6094 114.2656,168.2969 116,168.2969 C116.5781,168.2969 117.1875,168.4531 117.6563,168.7031 C118.1406,168.9844 118.3125,169.2031 118.4063,169.6094 C118.4688,170.0156 118.5,170.1406 118.6406,170.2656 C118.7813,170.4063 119.0156,170.5156 119.2344,170.5156 C119.5,170.5156 119.7656,170.375 119.9375,170.1563 C120.0469,170 120.0781,169.8125 120.0781,169.3906 L120.0781,167.9688 C120.0781,167.5313 120.0625,167.4063 119.9688,167.25 C119.8125,166.9844 119.5313,166.8438 119.2344,166.8438 C118.9375,166.8438 118.7344,166.9375 118.5156,167.25 L118.3438,167.1719 Z " fill="#000000"/><text fill="#000000" font-family="sans-serif" font-size="14" lengthAdjust="spacing" textLength="166" x="130" y="176.3467">TcpServerAGVManager</text><line style="stroke:#181818;stroke-width:0.5;" x1="102" x2="298" y1="187.5" y2="187.5"/><line style="stroke:#181818;stroke-width:0.5;" x1="102" x2="298" y1="195.5" y2="195.5"/></g><!--MD5=[8f07f51d887e64eddc161f608ee0ddb0]
class Socket--><g id="elem_Socket"><rect fill="#F1F1F1" height="48" id="Socket" rx="2.5" ry="2.5" style="stroke:#181818;stroke-width:0.5;" width="83" x="64.5" y="453"/><ellipse cx="79.5" cy="469" fill="#ADD1B2" rx="11" ry="11" style="stroke:#181818;stroke-width:1.0;"/><path d="M81.8438,464.6719 C80.9063,464.2344 80.3125,464.0938 79.4375,464.0938 C76.8125,464.0938 74.8125,466.1719 74.8125,468.8906 L74.8125,470.0156 C74.8125,472.5938 76.9219,474.4844 79.8125,474.4844 C81.0313,474.4844 82.1875,474.1875 82.9375,473.6406 C83.5156,473.2344 83.8438,472.7813 83.8438,472.3906 C83.8438,471.9375 83.4531,471.5469 82.9844,471.5469 C82.7656,471.5469 82.5625,471.625 82.375,471.8125 C81.9219,472.2969 81.9219,472.2969 81.7344,472.3906 C81.3125,472.6563 80.625,472.7813 79.8594,472.7813 C77.8125,472.7813 76.5156,471.6875 76.5156,469.9844 L76.5156,468.8906 C76.5156,467.1094 77.7656,465.7969 79.5,465.7969 C80.0781,465.7969 80.6875,465.9531 81.1563,466.2031 C81.6406,466.4844 81.8125,466.7031 81.9063,467.1094 C81.9688,467.5156 82,467.6406 82.1406,467.7656 C82.2813,467.9063 82.5156,468.0156 82.7344,468.0156 C83,468.0156 83.2656,467.875 83.4375,467.6563 C83.5469,467.5 83.5781,467.3125 83.5781,466.8906 L83.5781,465.4688 C83.5781,465.0313 83.5625,464.9063 83.4688,464.75 C83.3125,464.4844 83.0313,464.3438 82.7344,464.3438 C82.4375,464.3438 82.2344,464.4375 82.0156,464.75 L81.8438,464.6719 Z " fill="#000000"/><text fill="#000000" font-family="sans-serif" font-size="14" lengthAdjust="spacing" textLength="51" x="93.5" y="473.8467">Socket</text><line style="stroke:#181818;stroke-width:0.5;" x1="65.5" x2="146.5" y1="485" y2="485"/><line style="stroke:#181818;stroke-width:0.5;" x1="65.5" x2="146.5" y1="493" y2="493"/></g><!--MD5=[f23c2cd2d38bfa467cd8fc73fc6fe954]
class DataOutputStream--><g id="elem_DataOutputStream"><rect fill="#F1F1F1" height="48" id="DataOutputStream" rx="2.5" ry="2.5" style="stroke:#181818;stroke-width:0.5;" width="170" x="221" y="453"/><ellipse cx="236" cy="469" fill="#ADD1B2" rx="11" ry="11" style="stroke:#181818;stroke-width:1.0;"/><path d="M238.3438,464.6719 C237.4063,464.2344 236.8125,464.0938 235.9375,464.0938 C233.3125,464.0938 231.3125,466.1719 231.3125,468.8906 L231.3125,470.0156 C231.3125,472.5938 233.4219,474.4844 236.3125,474.4844 C237.5313,474.4844 238.6875,474.1875 239.4375,473.6406 C240.0156,473.2344 240.3438,472.7813 240.3438,472.3906 C240.3438,471.9375 239.9531,471.5469 239.4844,471.5469 C239.2656,471.5469 239.0625,471.625 238.875,471.8125 C238.4219,472.2969 238.4219,472.2969 238.2344,472.3906 C237.8125,472.6563 237.125,472.7813 236.3594,472.7813 C234.3125,472.7813 233.0156,471.6875 233.0156,469.9844 L233.0156,468.8906 C233.0156,467.1094 234.2656,465.7969 236,465.7969 C236.5781,465.7969 237.1875,465.9531 237.6563,466.2031 C238.1406,466.4844 238.3125,466.7031 238.4063,467.1094 C238.4688,467.5156 238.5,467.6406 238.6406,467.7656 C238.7813,467.9063 239.0156,468.0156 239.2344,468.0156 C239.5,468.0156 239.7656,467.875 239.9375,467.6563 C240.0469,467.5 240.0781,467.3125 240.0781,466.8906 L240.0781,465.4688 C240.0781,465.0313 240.0625,464.9063 239.9688,464.75 C239.8125,464.4844 239.5313,464.3438 239.2344,464.3438 C238.9375,464.3438 238.7344,464.4375 238.5156,464.75 L238.3438,464.6719 Z " fill="#000000"/><text fill="#000000" font-family="sans-serif" font-size="14" lengthAdjust="spacing" textLength="138" x="250" y="473.8467">DataOutputStream</text><line style="stroke:#181818;stroke-width:0.5;" x1="222" x2="390" y1="485" y2="485"/><line style="stroke:#181818;stroke-width:0.5;" x1="222" x2="390" y1="493" y2="493"/></g><!--MD5=[fcf904ab08c70e0d669da2cd857b8b75]
class DataInputStream--><g id="elem_DataInputStream"><rect fill="#F1F1F1" height="48" id="DataInputStream" rx="2.5" ry="2.5" style="stroke:#181818;stroke-width:0.5;" width="157" x="426.5" y="453"/><ellipse cx="441.5" cy="469" fill="#ADD1B2" rx="11" ry="11" style="stroke:#181818;stroke-width:1.0;"/><path d="M443.8438,464.6719 C442.9063,464.2344 442.3125,464.0938 441.4375,464.0938 C438.8125,464.0938 436.8125,466.1719 436.8125,468.8906 L436.8125,470.0156 C436.8125,472.5938 438.9219,474.4844 441.8125,474.4844 C443.0313,474.4844 444.1875,474.1875 444.9375,473.6406 C445.5156,473.2344 445.8438,472.7813 445.8438,472.3906 C445.8438,471.9375 445.4531,471.5469 444.9844,471.5469 C444.7656,471.5469 444.5625,471.625 444.375,471.8125 C443.9219,472.2969 443.9219,472.2969 443.7344,472.3906 C443.3125,472.6563 442.625,472.7813 441.8594,472.7813 C439.8125,472.7813 438.5156,471.6875 438.5156,469.9844 L438.5156,468.8906 C438.5156,467.1094 439.7656,465.7969 441.5,465.7969 C442.0781,465.7969 442.6875,465.9531 443.1563,466.2031 C443.6406,466.4844 443.8125,466.7031 443.9063,467.1094 C443.9688,467.5156 444,467.6406 444.1406,467.7656 C444.2813,467.9063 444.5156,468.0156 444.7344,468.0156 C445,468.0156 445.2656,467.875 445.4375,467.6563 C445.5469,467.5 445.5781,467.3125 445.5781,466.8906 L445.5781,465.4688 C445.5781,465.0313 445.5625,464.9063 445.4688,464.75 C445.3125,464.4844 445.0313,464.3438 444.7344,464.3438 C444.4375,464.3438 444.2344,464.4375 444.0156,464.75 L443.8438,464.6719 Z " fill="#000000"/><text fill="#000000" font-family="sans-serif" font-size="14" lengthAdjust="spacing" textLength="125" x="455.5" y="473.8467">DataInputStream</text><line style="stroke:#181818;stroke-width:0.5;" x1="427.5" x2="582.5" y1="485" y2="485"/><line style="stroke:#181818;stroke-width:0.5;" x1="427.5" x2="582.5" y1="493" y2="493"/></g><!--MD5=[5055edc65bfe75263670dadaf95c9b2c]
link AGVsDashboardUI to AGVsDashboardController--><g id="link_AGVsDashboardUI_AGVsDashboardController"><path codeLine="49" d="M752,71.082 C752,87.193 752,107.313 752,125.769 " fill="none" id="AGVsDashboardUI-to-AGVsDashboardController" style="stroke:#181818;stroke-width:1.0;stroke-dasharray:7.0,7.0;"/><polygon fill="#181818" points="752,130.926,756,121.926,752,125.926,748,121.926,752,130.926" style="stroke:#181818;stroke-width:1.0;"/></g><!--MD5=[2817fe2668c7de5f86a00020005d257b]
link AGVsDashboardController to AGVDashboardInfoDTO--><g id="link_AGVsDashboardController_AGVDashboardInfoDTO"><path codeLine="50" d="M752,228.27 C752,245.44 752,264.905 752,282.494 " fill="none" id="AGVsDashboardController-to-AGVDashboardInfoDTO" style="stroke:#181818;stroke-width:1.0;"/><polygon fill="#181818" points="752,287.888,756,278.888,752,282.888,748,278.888,752,287.888" style="stroke:#181818;stroke-width:1.0;"/></g><!--MD5=[31ae85f3fa2b8dff73499a55f270d4bb]
link AGVsDashboardController to PersistenceContext--><g id="link_AGVsDashboardController_PersistenceContext"><path codeLine="51" d="M829.321,228.058 C858.693,246.125 892.236,266.756 922.024,285.079 " fill="none" id="AGVsDashboardController-to-PersistenceContext" style="stroke:#181818;stroke-width:1.0;"/><polygon fill="#181818" points="926.391,287.764,920.8216,279.6411,922.1324,285.144,916.6295,286.4549,926.391,287.764" style="stroke:#181818;stroke-width:1.0;"/></g><!--MD5=[754b775031405e096442b27febffa290]
link PersistenceContext to RepositoryFactory--><g id="link_PersistenceContext_RepositoryFactory"><path codeLine="52" d="M1004,385.164 C1004,403.034 1004,423.035 1004,439.71 " fill="none" id="PersistenceContext-to-RepositoryFactory" style="stroke:#181818;stroke-width:1.0;"/><polygon fill="#181818" points="1004,444.772,1008,435.772,1004,439.772,1000,435.772,1004,444.772" style="stroke:#181818;stroke-width:1.0;"/></g><!--MD5=[2e1a90eaefeac96a2bad013bfa8d5909]
link RepositoryFactory to AGVsRepository--><g id="link_RepositoryFactory_AGVsRepository"><path codeLine="53" d="M1004,509.101 C1004,525.736 1004,546.311 1004,563.6769 " fill="none" id="RepositoryFactory-to-AGVsRepository" style="stroke:#181818;stroke-width:1.0;"/><polygon fill="#181818" points="1004,568.9554,1008,559.9554,1004,563.9554,1000,559.9554,1004,568.9554" style="stroke:#181818;stroke-width:1.0;"/></g><!--MD5=[f0bf6ed6dc6ed029545e12137d4fc6bd]
reverse link TcpClient to AGVsDashboardController--><g id="link_TcpClient_AGVsDashboardController"><path codeLine="55" d="M612.513,179.5 C622.293,179.5 632.074,179.5 641.854,179.5 " fill="none" id="TcpClient-backto-AGVsDashboardController" style="stroke:#181818;stroke-width:1.0;"/><polygon fill="#181818" points="607.398,179.5,616.398,183.5,612.398,179.5,616.398,175.5,607.398,179.5" style="stroke:#181818;stroke-width:1.0;"/></g><!--MD5=[1d54dd3e97660abe752cc68fa260a631]
reverse link Packet to TcpClient--><g id="link_Packet_TcpClient"><path codeLine="56" d="M421.308,179.5 C431.063,179.5 440.819,179.5 450.574,179.5 " fill="none" id="Packet-backto-TcpClient" style="stroke:#181818;stroke-width:1.0;"/><polygon fill="#181818" points="416.207,179.5,425.207,183.5,421.207,179.5,425.207,175.5,416.207,179.5" style="stroke:#181818;stroke-width:1.0;"/></g><!--MD5=[f6f7eb77fb114054d34422bb620dfa0b]
reverse link TcpServerAGVManager to Packet--><g id="link_TcpServerAGVManager_Packet"><path codeLine="57" d="M304.269,179.5 C314.113,179.5 323.956,179.5 333.8,179.5 " fill="none" id="TcpServerAGVManager-backto-Packet" style="stroke:#181818;stroke-width:1.0;"/><polygon fill="#181818" points="299.121,179.5,308.121,183.5,304.121,179.5,308.121,175.5,299.121,179.5" style="stroke:#181818;stroke-width:1.0;"/></g><!--MD5=[822bb430cd6b7fd856720f51f6175165]
link HttpsServerAjaxVoting to HTTPAjaxVotingRequest--><g id="link_HttpsServerAjaxVoting_HTTPAjaxVotingRequest"><path codeLine="58" d="M205.059,336.5 C214.924,336.5 224.789,336.5 234.654,336.5 " fill="none" id="HttpsServerAjaxVoting-to-HTTPAjaxVotingRequest" style="stroke:#181818;stroke-width:1.0;"/><polygon fill="#181818" points="239.813,336.5,230.813,332.5,234.813,336.5,230.813,340.5,239.813,336.5" style="stroke:#181818;stroke-width:1.0;"/></g><!--MD5=[bc357620636c8a5ffc89159518dfcdc9]
link HttpsServerAjaxVoting to Socket--><g id="link_HttpsServerAjaxVoting_Socket"><path codeLine="59" d="M106,368.582 C106,392.309 106,424.73 106,447.73 " fill="none" id="HttpsServerAjaxVoting-to-Socket" style="stroke:#181818;stroke-width:1.0;"/><polygon fill="#181818" points="106,452.779,110,443.779,106,447.779,102,443.779,106,452.779" style="stroke:#181818;stroke-width:1.0;"/></g><!--MD5=[171700a11b0ab68f6074f4d23fd24f74]
link HTTPAjaxVotingRequest to DataOutputStream--><g id="link_HTTPAjaxVotingRequest_DataOutputStream"><path codeLine="60" d="M334.696,368.582 C328.358,392.309 319.697,424.73 313.552,447.73 " fill="none" id="HTTPAjaxVotingRequest-to-DataOutputStream" style="stroke:#181818;stroke-width:1.0;"/><polygon fill="#181818" points="312.203,452.779,318.3893,445.1155,313.4928,447.9482,310.6601,443.0518,312.203,452.779" style="stroke:#181818;stroke-width:1.0;"/></g><!--MD5=[643c2aa1a3bba506357c34e43bf928e9]
link HTTPAjaxVotingRequest to DataInputStream--><g id="link_HTTPAjaxVotingRequest_DataInputStream"><path codeLine="61" d="M379.356,368.582 C407.897,392.983 447.194,426.579 474.199,449.667 " fill="none" id="HTTPAjaxVotingRequest-to-DataInputStream" style="stroke:#181818;stroke-width:1.0;"/><polygon fill="#181818" points="478.092,452.995,473.8522,444.1054,474.2922,449.7452,468.6525,450.1851,478.092,452.995" style="stroke:#181818;stroke-width:1.0;"/></g><!--MD5=[76db5136d15262031131a659faa3a5ec]
link HTTPAjaxVotingRequest to HTTPMessage--><g id="link_HTTPAjaxVotingRequest_HTTPMessage"><path codeLine="62" d="M446.402,336.5 C456.186,336.5 465.969,336.5 475.753,336.5 " fill="none" id="HTTPAjaxVotingRequest-to-HTTPMessage" style="stroke:#181818;stroke-width:1.0;"/><polygon fill="#181818" points="480.869,336.5,471.869,332.5,475.869,336.5,471.869,340.5,480.869,336.5" style="stroke:#181818;stroke-width:1.0;"/></g><!--MD5=[930ad8e94de6a6d583597ccc248a49ce]
link AGVsDashboardController to HttpsServerAjaxVoting--><g id="link_AGVsDashboardController_HttpsServerAjaxVoting"><path codeLine="63" d="M641.794,223.018 C635.811,224.817 629.854,226.494 624,228 C449.049,272.999 396.178,240.093 222,288 C207.767,291.915 192.932,297.09 178.814,302.582 " fill="none" id="AGVsDashboardController-to-HttpsServerAjaxVoting" style="stroke:#181818;stroke-width:1.0;"/><polygon fill="#181818" points="174.056,304.456,183.8957,304.8807,178.7084,302.6242,180.9648,297.4369,174.056,304.456" style="stroke:#181818;stroke-width:1.0;"/></g><!--MD5=[5680d50526fb70dd4450e646f690b157]
@startuml
skinparam classAttributeIconSize 0

Class "AGVsDashboardUI"{
+doShow()
}

Class "AGVsDashboardController"{
+showDashboard();
+agvsInfo();
+agvState();
}

class PersistenceContext {
-Logger LOGGER
-RepositoryFactory theFactory
+repositories()
}

class RepositoryFactory{
+agvs()
}

class AGVsRepository{
+findAll();
}

class HttpsServerAjaxVoting{
+start();
}
class HTTPMessage{
+HTTPMessage();
}
class HTTPAjaxVotingRequest{
+run();
}

class AGVDashboardInfoDTO {
-String Description
-String Status
-String Position
}

class TcpClient {
+startConnection();
+getAgvState();
+stopConnection();
}

AGVsDashboardUI ..> AGVsDashboardController
AGVsDashboardController -d-> AGVDashboardInfoDTO
AGVsDashboardController -d-> PersistenceContext
PersistenceContext -d-> RepositoryFactory
RepositoryFactory -d-> AGVsRepository

AGVsDashboardController -l-> TcpClient 
TcpClient -l-> Packet
Packet -l-> TcpServerAGVManager
HttpsServerAjaxVoting -> HTTPAjaxVotingRequest
HttpsServerAjaxVoting -d-> Socket
HTTPAjaxVotingRequest -d-> DataOutputStream
HTTPAjaxVotingRequest -d-> DataInputStream
HTTPAjaxVotingRequest -> HTTPMessage
AGVsDashboardController -d-> HttpsServerAjaxVoting
@enduml

PlantUML version 1.2022.6beta5(Unknown compile time)
(GPL source distribution)
Java Runtime: Java(TM) SE Runtime Environment
JVM: Java HotSpot(TM) 64-Bit Server VM
Default Encoding: UTF-8
Language: en
Country: US
--></g></svg>