<?xml version="1.0" encoding="UTF-8" standalone="no"?><svg xmlns="http://www.w3.org/2000/svg" xmlns:xlink="http://www.w3.org/1999/xlink" contentStyleType="text/css" height="1174px" preserveAspectRatio="none" style="width:2453px;height:1174px;background:#FFFFFF;" version="1.1" viewBox="0 0 2453 1174" width="2453px" zoomAndPan="magnify"><defs/><g><rect height="26.2969" style="stroke:#00000000;stroke-width:1.0;fill:none;" width="109" x="1171.25" y="10"/><text fill="#000000" font-family="sans-serif" font-size="14" font-weight="bold" lengthAdjust="spacing" textLength="99" x="1176.25" y="27.9951">DASHBOARD</text><rect fill="#FFFFFF" height="998.4531" style="stroke:#181818;stroke-width:1.0;" width="10" x="69" y="99.8906"/><rect fill="#FFFFFF" height="942.1875" style="stroke:#181818;stroke-width:1.0;" width="10" x="215" y="121.0234"/><rect fill="#FFFFFF" height="563.9922" style="stroke:#181818;stroke-width:1.0;" width="10" x="430" y="150.1563"/><rect fill="#FFFFFF" height="101.2656" style="stroke:#181818;stroke-width:1.0;" width="10" x="430" y="932.8125"/><rect fill="#FFFFFF" height="30" style="stroke:#181818;stroke-width:1.0;" width="10" x="591" y="208.4219"/><rect fill="#FFFFFF" height="328.9297" style="stroke:#181818;stroke-width:1.0;" width="10" x="926" y="275.5547"/><rect fill="#FFFFFF" height="30" style="stroke:#181818;stroke-width:1.0;" width="10" x="1319" y="367.9531"/><rect fill="#FFFFFF" height="30" style="stroke:#181818;stroke-width:1.0;" width="10" x="1479.5" y="427.0859"/><rect fill="#FFFFFF" height="30" style="stroke:#181818;stroke-width:1.0;" width="10" x="1620" y="486.2188"/><rect fill="#FFFFFF" height="30" style="stroke:#181818;stroke-width:1.0;" width="10" x="1747" y="545.3516"/><rect fill="#FFFFFF" height="219.5313" style="stroke:#181818;stroke-width:1.0;" width="10" x="1860" y="743.2813"/><rect fill="#FFFFFF" height="30" style="stroke:#181818;stroke-width:1.0;" width="10" x="2010" y="814.5469"/><rect fill="#FFFFFF" height="30" style="stroke:#181818;stroke-width:1.0;" width="10" x="2147" y="873.6797"/><line style="stroke:#181818;stroke-width:0.5;stroke-dasharray:5.0,5.0;" x1="74" x2="74" y1="89.8906" y2="1123.3438"/><line style="stroke:#181818;stroke-width:0.5;stroke-dasharray:5.0,5.0;" x1="220" x2="220" y1="89.8906" y2="1123.3438"/><line style="stroke:#181818;stroke-width:0.5;stroke-dasharray:5.0,5.0;" x1="434.5" x2="434.5" y1="89.8906" y2="1123.3438"/><line style="stroke:#181818;stroke-width:0.5;stroke-dasharray:5.0,5.0;" x1="595.5" x2="595.5" y1="89.8906" y2="1123.3438"/><line style="stroke:#181818;stroke-width:0.5;stroke-dasharray:5.0,5.0;" x1="930.5" x2="930.5" y1="89.8906" y2="1123.3438"/><line style="stroke:#181818;stroke-width:0.5;stroke-dasharray:5.0,5.0;" x1="1323.5" x2="1323.5" y1="89.8906" y2="1123.3438"/><line style="stroke:#181818;stroke-width:0.5;stroke-dasharray:5.0,5.0;" x1="1484.5" x2="1484.5" y1="89.8906" y2="1123.3438"/><line style="stroke:#181818;stroke-width:0.5;stroke-dasharray:5.0,5.0;" x1="1624.5" x2="1624.5" y1="89.8906" y2="1123.3438"/><line style="stroke:#181818;stroke-width:0.5;stroke-dasharray:5.0,5.0;" x1="1751.5" x2="1751.5" y1="89.8906" y2="1123.3438"/><line style="stroke:#181818;stroke-width:0.5;stroke-dasharray:5.0,5.0;" x1="1864.5" x2="1864.5" y1="89.8906" y2="1123.3438"/><line style="stroke:#181818;stroke-width:0.5;stroke-dasharray:5.0,5.0;" x1="2014.5" x2="2014.5" y1="89.8906" y2="1123.3438"/><line style="stroke:#181818;stroke-width:0.5;stroke-dasharray:5.0,5.0;" x1="2151.5" x2="2151.5" y1="89.8906" y2="1123.3438"/><line style="stroke:#181818;stroke-width:0.5;stroke-dasharray:5.0,5.0;" x1="2350.5" x2="2350.5" y1="89.8906" y2="1123.3438"/><rect fill="#E2E2F0" height="30.2969" rx="2.5" ry="2.5" style="stroke:#181818;stroke-width:0.5;" width="138" x="5" y="58.5938"/><text fill="#000000" font-family="sans-serif" font-size="14" lengthAdjust="spacing" textLength="124" x="12" y="78.5889">:AGVsDasboardUI</text><rect fill="#E2E2F0" height="30.2969" rx="2.5" ry="2.5" style="stroke:#181818;stroke-width:0.5;" width="138" x="5" y="1122.3438"/><text fill="#000000" font-family="sans-serif" font-size="14" lengthAdjust="spacing" textLength="124" x="12" y="1142.3389">:AGVsDasboardUI</text><rect fill="#E2E2F0" height="46.5938" rx="2.5" ry="2.5" style="stroke:#181818;stroke-width:0.5;" width="134" x="153" y="42.2969"/><text fill="#000000" font-family="sans-serif" font-size="14" lengthAdjust="spacing" textLength="120" x="160" y="62.292">:AGVsDashboard</text><text fill="#000000" font-family="sans-serif" font-size="14" lengthAdjust="spacing" textLength="73" x="183.5" y="78.5889">Controller</text><rect fill="#E2E2F0" height="46.5938" rx="2.5" ry="2.5" style="stroke:#181818;stroke-width:0.5;" width="134" x="153" y="1122.3438"/><text fill="#000000" font-family="sans-serif" font-size="14" lengthAdjust="spacing" textLength="120" x="160" y="1142.3389">:AGVsDashboard</text><text fill="#000000" font-family="sans-serif" font-size="14" lengthAdjust="spacing" textLength="73" x="183.5" y="1158.6357">Controller</text><rect fill="#E2E2F0" height="46.5938" rx="2.5" ry="2.5" style="stroke:#181818;stroke-width:0.5;" width="185" x="342.5" y="42.2969"/><text fill="#000000" font-family="sans-serif" font-size="14" lengthAdjust="spacing" textLength="45" x="412.5" y="62.292">server</text><text fill="#000000" font-family="sans-serif" font-size="14" lengthAdjust="spacing" textLength="171" x="349.5" y="78.5889">:HttpsServerAjaxVoting</text><rect fill="#E2E2F0" height="46.5938" rx="2.5" ry="2.5" style="stroke:#181818;stroke-width:0.5;" width="185" x="342.5" y="1122.3438"/><text fill="#000000" font-family="sans-serif" font-size="14" lengthAdjust="spacing" textLength="45" x="412.5" y="1142.3389">server</text><text fill="#000000" font-family="sans-serif" font-size="14" lengthAdjust="spacing" textLength="171" x="349.5" y="1158.6357">:HttpsServerAjaxVoting</text><rect fill="#E2E2F0" height="46.5938" rx="2.5" ry="2.5" style="stroke:#181818;stroke-width:0.5;" width="117" x="537.5" y="42.2969"/><text fill="#000000" font-family="sans-serif" font-size="14" lengthAdjust="spacing" textLength="38" x="577" y="62.292">sock:</text><text fill="#000000" font-family="sans-serif" font-size="14" lengthAdjust="spacing" textLength="103" x="544.5" y="78.5889">:ServerSocket</text><rect fill="#E2E2F0" height="46.5938" rx="2.5" ry="2.5" style="stroke:#181818;stroke-width:0.5;" width="117" x="537.5" y="1122.3438"/><text fill="#000000" font-family="sans-serif" font-size="14" lengthAdjust="spacing" textLength="38" x="577" y="1142.3389">sock:</text><text fill="#000000" font-family="sans-serif" font-size="14" lengthAdjust="spacing" textLength="103" x="544.5" y="1158.6357">:ServerSocket</text><rect fill="#E2E2F0" height="46.5938" rx="2.5" ry="2.5" style="stroke:#181818;stroke-width:0.5;" width="193" x="834.5" y="42.2969"/><text fill="#000000" font-family="sans-serif" font-size="14" lengthAdjust="spacing" textLength="24" x="919" y="62.292">req</text><text fill="#000000" font-family="sans-serif" font-size="14" lengthAdjust="spacing" textLength="179" x="841.5" y="78.5889">:HTTPAjaxVotingRequest</text><rect fill="#E2E2F0" height="46.5938" rx="2.5" ry="2.5" style="stroke:#181818;stroke-width:0.5;" width="193" x="834.5" y="1122.3438"/><text fill="#000000" font-family="sans-serif" font-size="14" lengthAdjust="spacing" textLength="24" x="919" y="1142.3389">req</text><text fill="#000000" font-family="sans-serif" font-size="14" lengthAdjust="spacing" textLength="179" x="841.5" y="1158.6357">:HTTPAjaxVotingRequest</text><rect fill="#E2E2F0" height="46.5938" rx="2.5" ry="2.5" style="stroke:#181818;stroke-width:0.5;" width="157" x="1245.5" y="42.2969"/><text fill="#000000" font-family="sans-serif" font-size="14" lengthAdjust="spacing" textLength="33" x="1307.5" y="62.292">outS</text><text fill="#000000" font-family="sans-serif" font-size="14" lengthAdjust="spacing" textLength="143" x="1252.5" y="78.5889">:DataOutputStream</text><rect fill="#E2E2F0" height="46.5938" rx="2.5" ry="2.5" style="stroke:#181818;stroke-width:0.5;" width="157" x="1245.5" y="1122.3438"/><text fill="#000000" font-family="sans-serif" font-size="14" lengthAdjust="spacing" textLength="33" x="1307.5" y="1142.3389">outS</text><text fill="#000000" font-family="sans-serif" font-size="14" lengthAdjust="spacing" textLength="143" x="1252.5" y="1158.6357">:DataOutputStream</text><rect fill="#E2E2F0" height="46.5938" rx="2.5" ry="2.5" style="stroke:#181818;stroke-width:0.5;" width="144" x="1412.5" y="42.2969"/><text fill="#000000" font-family="sans-serif" font-size="14" lengthAdjust="spacing" textLength="22" x="1473.5" y="62.292">inS</text><text fill="#000000" font-family="sans-serif" font-size="14" lengthAdjust="spacing" textLength="130" x="1419.5" y="78.5889">:DataInputStream</text><rect fill="#E2E2F0" height="46.5938" rx="2.5" ry="2.5" style="stroke:#181818;stroke-width:0.5;" width="144" x="1412.5" y="1122.3438"/><text fill="#000000" font-family="sans-serif" font-size="14" lengthAdjust="spacing" textLength="22" x="1473.5" y="1142.3389">inS</text><text fill="#000000" font-family="sans-serif" font-size="14" lengthAdjust="spacing" textLength="130" x="1419.5" y="1158.6357">:DataInputStream</text><rect fill="#E2E2F0" height="46.5938" rx="2.5" ry="2.5" style="stroke:#181818;stroke-width:0.5;" width="117" x="1566.5" y="42.2969"/><text fill="#000000" font-family="sans-serif" font-size="14" lengthAdjust="spacing" textLength="55" x="1597.5" y="62.292">request</text><text fill="#000000" font-family="sans-serif" font-size="14" lengthAdjust="spacing" textLength="103" x="1573.5" y="78.5889">:HTTPMessage</text><rect fill="#E2E2F0" height="46.5938" rx="2.5" ry="2.5" style="stroke:#181818;stroke-width:0.5;" width="117" x="1566.5" y="1122.3438"/><text fill="#000000" font-family="sans-serif" font-size="14" lengthAdjust="spacing" textLength="55" x="1597.5" y="1142.3389">request</text><text fill="#000000" font-family="sans-serif" font-size="14" lengthAdjust="spacing" textLength="103" x="1573.5" y="1158.6357">:HTTPMessage</text><rect fill="#E2E2F0" height="46.5938" rx="2.5" ry="2.5" style="stroke:#181818;stroke-width:0.5;" width="117" x="1693.5" y="42.2969"/><text fill="#000000" font-family="sans-serif" font-size="14" lengthAdjust="spacing" textLength="66" x="1719" y="62.292">response</text><text fill="#000000" font-family="sans-serif" font-size="14" lengthAdjust="spacing" textLength="103" x="1700.5" y="78.5889">:HTTPMessage</text><rect fill="#E2E2F0" height="46.5938" rx="2.5" ry="2.5" style="stroke:#181818;stroke-width:0.5;" width="117" x="1693.5" y="1122.3438"/><text fill="#000000" font-family="sans-serif" font-size="14" lengthAdjust="spacing" textLength="66" x="1719" y="1142.3389">response</text><text fill="#000000" font-family="sans-serif" font-size="14" lengthAdjust="spacing" textLength="103" x="1700.5" y="1158.6357">:HTTPMessage</text><rect fill="#E2E2F0" height="46.5938" rx="2.5" ry="2.5" style="stroke:#181818;stroke-width:0.5;" width="89" x="1820.5" y="42.2969"/><text fill="#000000" font-family="sans-serif" font-size="14" lengthAdjust="spacing" textLength="25" x="1852.5" y="62.292">tcp</text><text fill="#000000" font-family="sans-serif" font-size="14" lengthAdjust="spacing" textLength="75" x="1827.5" y="78.5889">:TcpClient</text><rect fill="#E2E2F0" height="46.5938" rx="2.5" ry="2.5" style="stroke:#181818;stroke-width:0.5;" width="89" x="1820.5" y="1122.3438"/><text fill="#000000" font-family="sans-serif" font-size="14" lengthAdjust="spacing" textLength="25" x="1852.5" y="1142.3389">tcp</text><text fill="#000000" font-family="sans-serif" font-size="14" lengthAdjust="spacing" textLength="75" x="1827.5" y="1158.6357">:TcpClient</text><rect fill="#E2E2F0" height="46.5938" rx="2.5" ry="2.5" style="stroke:#181818;stroke-width:0.5;" width="69" x="1980.5" y="42.2969"/><text fill="#000000" font-family="sans-serif" font-size="14" lengthAdjust="spacing" textLength="51" x="1989.5" y="62.292">packet</text><text fill="#000000" font-family="sans-serif" font-size="14" lengthAdjust="spacing" textLength="55" x="1987.5" y="78.5889">:Packet</text><rect fill="#E2E2F0" height="46.5938" rx="2.5" ry="2.5" style="stroke:#181818;stroke-width:0.5;" width="69" x="1980.5" y="1122.3438"/><text fill="#000000" font-family="sans-serif" font-size="14" lengthAdjust="spacing" textLength="51" x="1989.5" y="1142.3389">packet</text><text fill="#000000" font-family="sans-serif" font-size="14" lengthAdjust="spacing" textLength="55" x="1987.5" y="1158.6357">:Packet</text><rect fill="#E2E2F0" height="46.5938" rx="2.5" ry="2.5" style="stroke:#181818;stroke-width:0.5;" width="185" x="2059.5" y="42.2969"/><text fill="#000000" font-family="sans-serif" font-size="14" lengthAdjust="spacing" textLength="86" x="2109" y="62.292">agvManager</text><text fill="#000000" font-family="sans-serif" font-size="14" lengthAdjust="spacing" textLength="171" x="2066.5" y="78.5889">:TcpServerAGVManager</text><rect fill="#E2E2F0" height="46.5938" rx="2.5" ry="2.5" style="stroke:#181818;stroke-width:0.5;" width="185" x="2059.5" y="1122.3438"/><text fill="#000000" font-family="sans-serif" font-size="14" lengthAdjust="spacing" textLength="86" x="2109" y="1142.3389">agvManager</text><text fill="#000000" font-family="sans-serif" font-size="14" lengthAdjust="spacing" textLength="171" x="2066.5" y="1158.6357">:TcpServerAGVManager</text><rect fill="#E2E2F0" height="30.2969" rx="2.5" ry="2.5" style="stroke:#181818;stroke-width:0.5;" width="193" x="2254.5" y="58.5938"/><text fill="#000000" font-family="sans-serif" font-size="14" lengthAdjust="spacing" textLength="179" x="2261.5" y="78.5889">:AGVsDashboardInfoDTO</text><rect fill="#E2E2F0" height="30.2969" rx="2.5" ry="2.5" style="stroke:#181818;stroke-width:0.5;" width="193" x="2254.5" y="1122.3438"/><text fill="#000000" font-family="sans-serif" font-size="14" lengthAdjust="spacing" textLength="179" x="2261.5" y="1142.3389">:AGVsDashboardInfoDTO</text><rect fill="#FFFFFF" height="998.4531" style="stroke:#181818;stroke-width:1.0;" width="10" x="69" y="99.8906"/><rect fill="#FFFFFF" height="942.1875" style="stroke:#181818;stroke-width:1.0;" width="10" x="215" y="121.0234"/><rect fill="#FFFFFF" height="563.9922" style="stroke:#181818;stroke-width:1.0;" width="10" x="430" y="150.1563"/><rect fill="#FFFFFF" height="101.2656" style="stroke:#181818;stroke-width:1.0;" width="10" x="430" y="932.8125"/><rect fill="#FFFFFF" height="30" style="stroke:#181818;stroke-width:1.0;" width="10" x="591" y="208.4219"/><rect fill="#FFFFFF" height="328.9297" style="stroke:#181818;stroke-width:1.0;" width="10" x="926" y="275.5547"/><rect fill="#FFFFFF" height="30" style="stroke:#181818;stroke-width:1.0;" width="10" x="1319" y="367.9531"/><rect fill="#FFFFFF" height="30" style="stroke:#181818;stroke-width:1.0;" width="10" x="1479.5" y="427.0859"/><rect fill="#FFFFFF" height="30" style="stroke:#181818;stroke-width:1.0;" width="10" x="1620" y="486.2188"/><rect fill="#FFFFFF" height="30" style="stroke:#181818;stroke-width:1.0;" width="10" x="1747" y="545.3516"/><rect fill="#FFFFFF" height="219.5313" style="stroke:#181818;stroke-width:1.0;" width="10" x="1860" y="743.2813"/><rect fill="#FFFFFF" height="30" style="stroke:#181818;stroke-width:1.0;" width="10" x="2010" y="814.5469"/><rect fill="#FFFFFF" height="30" style="stroke:#181818;stroke-width:1.0;" width="10" x="2147" y="873.6797"/><polygon fill="#181818" points="203,117.0234,213,121.0234,203,125.0234,207,121.0234" style="stroke:#181818;stroke-width:1.0;"/><line style="stroke:#181818;stroke-width:1.0;" x1="79" x2="209" y1="121.0234" y2="121.0234"/><text fill="#000000" font-family="sans-serif" font-size="13" lengthAdjust="spacing" textLength="114" x="86" y="115.9575">showDashboard()</text><polygon fill="#181818" points="418,146.1563,428,150.1563,418,154.1563,422,150.1563" style="stroke:#181818;stroke-width:1.0;"/><line style="stroke:#181818;stroke-width:1.0;" x1="225" x2="424" y1="150.1563" y2="150.1563"/><text fill="#000000" font-family="sans-serif" font-size="13" lengthAdjust="spacing" textLength="186" x="232" y="145.0903">new HttpsServerAjaxVoting()</text><polygon fill="#181818" points="418,175.2891,428,179.2891,418,183.2891,422,179.2891" style="stroke:#181818;stroke-width:1.0;"/><line style="stroke:#181818;stroke-width:1.0;" x1="225" x2="424" y1="179.2891" y2="179.2891"/><text fill="#000000" font-family="sans-serif" font-size="13" lengthAdjust="spacing" textLength="85" x="232" y="174.2231">server.start()</text><polygon fill="#181818" points="579,204.4219,589,208.4219,579,212.4219,583,208.4219" style="stroke:#181818;stroke-width:1.0;"/><line style="stroke:#181818;stroke-width:1.0;" x1="440" x2="585" y1="208.4219" y2="208.4219"/><text fill="#000000" font-family="sans-serif" font-size="13" lengthAdjust="spacing" textLength="116" x="447" y="203.356">new Socket(8080)</text><line style="stroke:#181818;stroke-width:1.0;" x1="440" x2="487" y1="262.5547" y2="262.5547"/><line style="stroke:#181818;stroke-width:1.0;" x1="487" x2="487" y1="262.5547" y2="275.5547"/><line style="stroke:#181818;stroke-width:1.0;" x1="446" x2="487" y1="275.5547" y2="275.5547"/><polygon fill="#181818" points="456,271.5547,446,275.5547,456,279.5547,452,275.5547" style="stroke:#181818;stroke-width:1.0;"/><text fill="#000000" font-family="sans-serif" font-size="13" lengthAdjust="spacing" textLength="86" x="452" y="257.4888">sock.accept()</text><polygon fill="#181818" points="914,305.6875,924,309.6875,914,313.6875,918,309.6875" style="stroke:#181818;stroke-width:1.0;"/><line style="stroke:#181818;stroke-width:1.0;" x1="440" x2="920" y1="309.6875" y2="309.6875"/><text fill="#000000" font-family="sans-serif" font-size="13" lengthAdjust="spacing" textLength="294" x="447" y="304.6216">new HttpAjaxServerRequest(sock,baseFolder)</text><polygon fill="#181818" points="914,334.8203,924,338.8203,914,342.8203,918,338.8203" style="stroke:#181818;stroke-width:1.0;"/><line style="stroke:#181818;stroke-width:1.0;" x1="440" x2="920" y1="338.8203" y2="338.8203"/><text fill="#000000" font-family="sans-serif" font-size="13" lengthAdjust="spacing" textLength="65" x="447" y="333.7544">req.start()</text><polygon fill="#181818" points="1307,363.9531,1317,367.9531,1307,371.9531,1311,367.9531" style="stroke:#181818;stroke-width:1.0;"/><line style="stroke:#181818;stroke-width:1.0;" x1="936" x2="1313" y1="367.9531" y2="367.9531"/><text fill="#000000" font-family="sans-serif" font-size="13" lengthAdjust="spacing" textLength="364" x="943" y="362.8872">outs = new DataOutputStream(sock.getOutputStream())</text><polygon fill="#181818" points="1467.5,423.0859,1477.5,427.0859,1467.5,431.0859,1471.5,427.0859" style="stroke:#181818;stroke-width:1.0;"/><line style="stroke:#181818;stroke-width:1.0;" x1="936" x2="1473.5" y1="427.0859" y2="427.0859"/><text fill="#000000" font-family="sans-serif" font-size="13" lengthAdjust="spacing" textLength="331" x="943" y="422.02">inS = new DataInputStream(sock.getInputStream())</text><polygon fill="#181818" points="1608,482.2188,1618,486.2188,1608,490.2188,1612,486.2188" style="stroke:#181818;stroke-width:1.0;"/><line style="stroke:#181818;stroke-width:1.0;" x1="936" x2="1614" y1="486.2188" y2="486.2188"/><text fill="#000000" font-family="sans-serif" font-size="13" lengthAdjust="spacing" textLength="154" x="943" y="481.1528">new HTTPMessage(inS);</text><polygon fill="#181818" points="1735,541.3516,1745,545.3516,1735,549.3516,1739,545.3516" style="stroke:#181818;stroke-width:1.0;"/><line style="stroke:#181818;stroke-width:1.0;" x1="936" x2="1741" y1="545.3516" y2="545.3516"/><text fill="#000000" font-family="sans-serif" font-size="13" lengthAdjust="spacing" textLength="138" x="943" y="540.2856">new HTTPmessage();</text><polygon fill="#181818" points="451,600.4844,441,604.4844,451,608.4844,447,604.4844" style="stroke:#181818;stroke-width:1.0;"/><line style="stroke:#181818;stroke-width:1.0;" x1="445" x2="930" y1="604.4844" y2="604.4844"/><text fill="#000000" font-family="sans-serif" font-size="13" lengthAdjust="spacing" textLength="462" x="457" y="599.4185">response.setContentFromString(refreshAGVsDashboardInfo,"text/html")</text><polygon fill="#181818" points="236,655.3164,226,659.3164,236,663.3164,232,659.3164" style="stroke:#181818;stroke-width:1.0;"/><line style="stroke:#181818;stroke-width:1.0;" x1="230" x2="429" y1="659.3164" y2="659.3164"/><text fill="#000000" font-family="sans-serif" font-size="13" lengthAdjust="spacing" textLength="56" x="242" y="654.2505">infoAgvs</text><path d="M81,617.4844 L81,687.4844 L210,687.4844 L210,627.4844 L200,617.4844 L81,617.4844 " fill="#FEFFDD" style="stroke:#181818;stroke-width:0.5;"/><path d="M200,617.4844 L200,627.4844 L210,627.4844 L200,617.4844 " fill="#FEFFDD" style="stroke:#181818;stroke-width:0.5;"/><text fill="#000000" font-family="sans-serif" font-size="13" lengthAdjust="spacing" textLength="83" x="87" y="634.5513">from db I get</text><text fill="#000000" font-family="sans-serif" font-size="13" lengthAdjust="spacing" textLength="105" x="87" y="649.6841">Agvs Positions...</text><text fill="#000000" font-family="sans-serif" font-size="13" lengthAdjust="spacing" textLength="108" x="87" y="664.8169">(not represented</text><text fill="#000000" font-family="sans-serif" font-size="13" lengthAdjust="spacing" textLength="98" x="91" y="679.9497">in this scheme)</text><polygon fill="#181818" points="236,710.1484,226,714.1484,236,718.1484,232,714.1484" style="stroke:#181818;stroke-width:1.0;"/><line style="stroke:#181818;stroke-width:1.0;" x1="230" x2="434" y1="714.1484" y2="714.1484"/><text fill="#000000" font-family="sans-serif" font-size="13" lengthAdjust="spacing" textLength="101" x="242" y="709.0825">getAgvState(id)</text><polygon fill="#181818" points="1848,739.2813,1858,743.2813,1848,747.2813,1852,743.2813" style="stroke:#181818;stroke-width:1.0;"/><line style="stroke:#181818;stroke-width:1.0;" x1="225" x2="1854" y1="743.2813" y2="743.2813"/><text fill="#000000" font-family="sans-serif" font-size="13" lengthAdjust="spacing" textLength="162" x="232" y="738.2153">new TcpClient.main(ip,id)</text><line style="stroke:#181818;stroke-width:1.0;" x1="1870" x2="1912" y1="772.4141" y2="772.4141"/><line style="stroke:#181818;stroke-width:1.0;" x1="1912" x2="1912" y1="772.4141" y2="785.4141"/><line style="stroke:#181818;stroke-width:1.0;" x1="1871" x2="1912" y1="785.4141" y2="785.4141"/><polygon fill="#181818" points="1881,781.4141,1871,785.4141,1881,789.4141,1877,785.4141" style="stroke:#181818;stroke-width:1.0;"/><text fill="#000000" font-family="sans-serif" font-size="13" lengthAdjust="spacing" textLength="101" x="1877" y="767.3481">getAgvState(id)</text><polygon fill="#181818" points="1998,810.5469,2008,814.5469,1998,818.5469,2002,814.5469" style="stroke:#181818;stroke-width:1.0;"/><line style="stroke:#181818;stroke-width:1.0;" x1="1870" x2="2004" y1="814.5469" y2="814.5469"/><text fill="#000000" font-family="sans-serif" font-size="13" lengthAdjust="spacing" textLength="121" x="1877" y="809.481">new Packet(0,5,ID)</text><polygon fill="#181818" points="2135,869.6797,2145,873.6797,2135,877.6797,2139,873.6797" style="stroke:#181818;stroke-width:1.0;"/><line style="stroke:#181818;stroke-width:1.0;" x1="1870" x2="2141" y1="873.6797" y2="873.6797"/><text fill="#000000" font-family="sans-serif" font-size="13" lengthAdjust="spacing" textLength="12" x="1877" y="868.6138">...</text><polygon fill="#181818" points="451,928.8125,441,932.8125,451,936.8125,447,932.8125" style="stroke:#181818;stroke-width:1.0;"/><line style="stroke:#181818;stroke-width:1.0;" x1="445" x2="1859" y1="932.8125" y2="932.8125"/><text fill="#000000" font-family="sans-serif" font-size="13" lengthAdjust="spacing" textLength="33" x="457" y="927.7466">state</text><line style="stroke:#181818;stroke-width:1.0;" x1="440" x2="482" y1="991.9453" y2="991.9453"/><line style="stroke:#181818;stroke-width:1.0;" x1="482" x2="482" y1="991.9453" y2="1004.9453"/><line style="stroke:#181818;stroke-width:1.0;" x1="441" x2="482" y1="1004.9453" y2="1004.9453"/><polygon fill="#181818" points="451,1000.9453,441,1004.9453,451,1008.9453,447,1004.9453" style="stroke:#181818;stroke-width:1.0;"/><text fill="#000000" font-family="sans-serif" font-size="13" lengthAdjust="spacing" textLength="76" x="447" y="986.8794">sock.close()</text><polygon fill="#181818" points="236,1030.0781,226,1034.0781,236,1038.0781,232,1034.0781" style="stroke:#181818;stroke-width:1.0;"/><line style="stroke:#181818;stroke-width:1.0;" x1="230" x2="434" y1="1034.0781" y2="1034.0781"/><text fill="#000000" font-family="sans-serif" font-size="13" lengthAdjust="spacing" textLength="51" x="242" y="1029.0122">success</text><polygon fill="#181818" points="90,1059.2109,80,1063.2109,90,1067.2109,86,1063.2109" style="stroke:#181818;stroke-width:1.0;"/><line style="stroke:#181818;stroke-width:1.0;" x1="84" x2="219" y1="1063.2109" y2="1063.2109"/><text fill="#000000" font-family="sans-serif" font-size="13" lengthAdjust="spacing" textLength="51" x="96" y="1058.145">success</text><line style="stroke:#181818;stroke-width:1.0;" x1="79" x2="121" y1="1097.3438" y2="1097.3438"/><line style="stroke:#181818;stroke-width:1.0;" x1="121" x2="121" y1="1097.3438" y2="1110.3438"/><line style="stroke:#181818;stroke-width:1.0;" x1="74" x2="121" y1="1110.3438" y2="1110.3438"/><polygon fill="#181818" points="84,1106.3438,74,1110.3438,84,1114.3438,80,1110.3438" style="stroke:#181818;stroke-width:1.0;"/><text fill="#000000" font-family="sans-serif" font-size="13" lengthAdjust="spacing" textLength="83" x="86" y="1092.2778">open browse</text><!--MD5=[145b84a823df3bc4d5884fa911689dbf]
@startuml
title DASHBOARD

participant ":AGVsDasboardUI" as UI
participant ":AGVsDashboard\nController" as CTRL
participant "server\n:HttpsServerAjaxVoting" as VOT
participant "sock:\n:ServerSocket" as SOCKET
participant "req\n:HTTPAjaxVotingRequest" as REQ
participant "outS\n:DataOutputStream" as DOS
participant "inS\n:DataInputStream" as DIS
participant "request\n:HTTPMessage" as MES1
participant "response\n:HTTPMessage" as MES2
participant "tcp\n:TcpClient" as TCP
participant "packet\n:Packet" as PAC
participant "agvManager\n:TcpServerAGVManager" as AGVM
participant ":AGVsDashboardInfoDTO" as DTO

activate UI
UI -> CTRL : showDashboard()

activate CTRL
CTRL -> VOT : new HttpsServerAjaxVoting()
activate VOT
CTRL -> VOT :  server.start()

VOT -> SOCKET : new Socket(8080)
activate SOCKET
deactivate SOCKET
VOT -> VOT : sock.accept()
activate REQ
VOT -> REQ : new HttpAjaxServerRequest(sock,baseFolder)
VOT -> REQ : req.start()


REQ -> DOS : outs = new DataOutputStream(sock.getOutputStream())
activate DOS
deactivate DOS
REQ -> DIS : inS = new DataInputStream(sock.getInputStream())
activate DIS
deactivate DIS
REQ -> MES1 : new HTTPMessage(inS);
activate MES1
deactivate MES1
REQ -> MES2 : new HTTPmessage();
activate MES2
deactivate MES2
REQ -> VOT : response.setContentFromString(refreshAGVsDashboardInfo,"text/html")
deactivate REQ
VOT -> CTRL : infoAgvs
note bottom: from db I get\nAgvs Positions...\n(not represented\n in this scheme)
VOT -> CTRL : getAgvState(id)
deactivate VOT
CTRL -> TCP : new TcpClient.main(ip,id)
activate TCP
TCP -> TCP: getAgvState(id)
TCP -> PAC: new Packet(0,5,ID)
activate PAC
deactivate PAC
TCP -> AGVM : ...
activate AGVM
deactivate AGVM

TCP -> VOT : state
activate VOT
deactivate TCP
VOT -> VOT : sock.close()
VOT -> CTRL : success
deactivate VOT
CTRL -> UI : success

deactivate CTRL
UI -> UI : open browse
deactivate UI
@enduml

PlantUML version 1.2022.6beta5(Unknown compile time)
(GPL source distribution)
Java Runtime: Java(TM) SE Runtime Environment
JVM: Java HotSpot(TM) 64-Bit Server VM
Default Encoding: UTF-8
Language: en
Country: US
--></g></svg>