<?xml version="1.0" encoding="UTF-8" standalone="no"?><svg xmlns="http://www.w3.org/2000/svg" xmlns:xlink="http://www.w3.org/1999/xlink" contentStyleType="text/css" height="235px" preserveAspectRatio="none" style="width:613px;height:235px;background:#FFFFFF;" version="1.1" viewBox="0 0 613 235" width="613px" zoomAndPan="magnify"><defs/><g><!--MD5=[6a1f20ac98ff691683c5d53d56fd80ad]
class TcpServerAGVDigitalTwin--><g id="elem_TcpServerAGVDigitalTwin"><rect codeLine="3" fill="#F1F1F1" height="80.5938" id="TcpServerAGVDigitalTwin" rx="2.5" ry="2.5" style="stroke:#181818;stroke-width:0.5;" width="287" x="7" y="148"/><ellipse cx="53.75" cy="164" fill="#ADD1B2" rx="11" ry="11" style="stroke:#181818;stroke-width:1.0;"/><path d="M56.0938,159.6719 C55.1563,159.2344 54.5625,159.0938 53.6875,159.0938 C51.0625,159.0938 49.0625,161.1719 49.0625,163.8906 L49.0625,165.0156 C49.0625,167.5938 51.1719,169.4844 54.0625,169.4844 C55.2813,169.4844 56.4375,169.1875 57.1875,168.6406 C57.7656,168.2344 58.0938,167.7813 58.0938,167.3906 C58.0938,166.9375 57.7031,166.5469 57.2344,166.5469 C57.0156,166.5469 56.8125,166.625 56.625,166.8125 C56.1719,167.2969 56.1719,167.2969 55.9844,167.3906 C55.5625,167.6563 54.875,167.7813 54.1094,167.7813 C52.0625,167.7813 50.7656,166.6875 50.7656,164.9844 L50.7656,163.8906 C50.7656,162.1094 52.0156,160.7969 53.75,160.7969 C54.3281,160.7969 54.9375,160.9531 55.4063,161.2031 C55.8906,161.4844 56.0625,161.7031 56.1563,162.1094 C56.2188,162.5156 56.25,162.6406 56.3906,162.7656 C56.5313,162.9063 56.7656,163.0156 56.9844,163.0156 C57.25,163.0156 57.5156,162.875 57.6875,162.6563 C57.7969,162.5 57.8281,162.3125 57.8281,161.8906 L57.8281,160.4688 C57.8281,160.0313 57.8125,159.9063 57.7188,159.75 C57.5625,159.4844 57.2813,159.3438 56.9844,159.3438 C56.6875,159.3438 56.4844,159.4375 56.2656,159.75 L56.0938,159.6719 Z " fill="#000000"/><text fill="#000000" font-family="sans-serif" font-size="14" lengthAdjust="spacing" textLength="185" x="74.25" y="168.8467">TcpServerAGVDigitalTwin</text><line style="stroke:#181818;stroke-width:0.5;" x1="8" x2="293" y1="180" y2="180"/><text fill="#000000" font-family="sans-serif" font-size="14" lengthAdjust="spacing" textLength="147" x="13" y="196.9951">+parsing methods...</text><text fill="#000000" font-family="sans-serif" font-size="14" lengthAdjust="spacing" textLength="275" x="13" y="213.292">+building data transferece methods...</text><line style="stroke:#181818;stroke-width:0.5;" x1="8" x2="293" y1="220.5938" y2="220.5938"/></g><!--MD5=[4db4841249a64a15a2ac2498b728f40a]
class TcpServerAGVDigitalTwinThread--><g id="elem_TcpServerAGVDigitalTwinThread"><rect codeLine="8" fill="#F1F1F1" height="48" id="TcpServerAGVDigitalTwinThread" rx="2.5" ry="2.5" style="stroke:#181818;stroke-width:0.5;" width="267" x="17" y="23.5"/><ellipse cx="32" cy="39.5" fill="#ADD1B2" rx="11" ry="11" style="stroke:#181818;stroke-width:1.0;"/><path d="M34.3438,35.1719 C33.4063,34.7344 32.8125,34.5938 31.9375,34.5938 C29.3125,34.5938 27.3125,36.6719 27.3125,39.3906 L27.3125,40.5156 C27.3125,43.0938 29.4219,44.9844 32.3125,44.9844 C33.5313,44.9844 34.6875,44.6875 35.4375,44.1406 C36.0156,43.7344 36.3438,43.2813 36.3438,42.8906 C36.3438,42.4375 35.9531,42.0469 35.4844,42.0469 C35.2656,42.0469 35.0625,42.125 34.875,42.3125 C34.4219,42.7969 34.4219,42.7969 34.2344,42.8906 C33.8125,43.1563 33.125,43.2813 32.3594,43.2813 C30.3125,43.2813 29.0156,42.1875 29.0156,40.4844 L29.0156,39.3906 C29.0156,37.6094 30.2656,36.2969 32,36.2969 C32.5781,36.2969 33.1875,36.4531 33.6563,36.7031 C34.1406,36.9844 34.3125,37.2031 34.4063,37.6094 C34.4688,38.0156 34.5,38.1406 34.6406,38.2656 C34.7813,38.4063 35.0156,38.5156 35.2344,38.5156 C35.5,38.5156 35.7656,38.375 35.9375,38.1563 C36.0469,38 36.0781,37.8125 36.0781,37.3906 L36.0781,35.9688 C36.0781,35.5313 36.0625,35.4063 35.9688,35.25 C35.8125,34.9844 35.5313,34.8438 35.2344,34.8438 C34.9375,34.8438 34.7344,34.9375 34.5156,35.25 L34.3438,35.1719 Z " fill="#000000"/><text fill="#000000" font-family="sans-serif" font-size="14" lengthAdjust="spacing" textLength="235" x="46" y="44.3467">TcpServerAGVDigitalTwinThread</text><line style="stroke:#181818;stroke-width:0.5;" x1="18" x2="283" y1="55.5" y2="55.5"/><line style="stroke:#181818;stroke-width:0.5;" x1="18" x2="283" y1="63.5" y2="63.5"/></g><!--MD5=[d7724097116ffcb6ea40e9e893263eea]
class TcpServerAGVManager--><g id="elem_TcpServerAGVManager"><rect codeLine="12" fill="#F1F1F1" height="80.5938" id="TcpServerAGVManager" rx="2.5" ry="2.5" style="stroke:#181818;stroke-width:0.5;" width="287" x="319" y="7"/><ellipse cx="375.25" cy="23" fill="#ADD1B2" rx="11" ry="11" style="stroke:#181818;stroke-width:1.0;"/><path d="M377.5938,18.6719 C376.6563,18.2344 376.0625,18.0938 375.1875,18.0938 C372.5625,18.0938 370.5625,20.1719 370.5625,22.8906 L370.5625,24.0156 C370.5625,26.5938 372.6719,28.4844 375.5625,28.4844 C376.7813,28.4844 377.9375,28.1875 378.6875,27.6406 C379.2656,27.2344 379.5938,26.7813 379.5938,26.3906 C379.5938,25.9375 379.2031,25.5469 378.7344,25.5469 C378.5156,25.5469 378.3125,25.625 378.125,25.8125 C377.6719,26.2969 377.6719,26.2969 377.4844,26.3906 C377.0625,26.6563 376.375,26.7813 375.6094,26.7813 C373.5625,26.7813 372.2656,25.6875 372.2656,23.9844 L372.2656,22.8906 C372.2656,21.1094 373.5156,19.7969 375.25,19.7969 C375.8281,19.7969 376.4375,19.9531 376.9063,20.2031 C377.3906,20.4844 377.5625,20.7031 377.6563,21.1094 C377.7188,21.5156 377.75,21.6406 377.8906,21.7656 C378.0313,21.9063 378.2656,22.0156 378.4844,22.0156 C378.75,22.0156 379.0156,21.875 379.1875,21.6563 C379.2969,21.5 379.3281,21.3125 379.3281,20.8906 L379.3281,19.4688 C379.3281,19.0313 379.3125,18.9063 379.2188,18.75 C379.0625,18.4844 378.7813,18.3438 378.4844,18.3438 C378.1875,18.3438 377.9844,18.4375 377.7656,18.75 L377.5938,18.6719 Z " fill="#000000"/><text fill="#000000" font-family="sans-serif" font-size="14" lengthAdjust="spacing" textLength="166" x="395.75" y="27.8467">TcpServerAGVManager</text><line style="stroke:#181818;stroke-width:0.5;" x1="320" x2="605" y1="39" y2="39"/><text fill="#000000" font-family="sans-serif" font-size="14" lengthAdjust="spacing" textLength="147" x="325" y="55.9951">+parsing methods...</text><text fill="#000000" font-family="sans-serif" font-size="14" lengthAdjust="spacing" textLength="275" x="325" y="72.292">+building data transferece methods...</text><line style="stroke:#181818;stroke-width:0.5;" x1="320" x2="605" y1="79.5938" y2="79.5938"/></g><!--MD5=[245a0f4990a869e77cf31f607fa8d74f]
class TcpServerAGVManagerThread--><g id="elem_TcpServerAGVManagerThread"><rect codeLine="17" fill="#F1F1F1" height="48" id="TcpServerAGVManagerThread" rx="2.5" ry="2.5" style="stroke:#181818;stroke-width:0.5;" width="248" x="333.5" y="164.5"/><ellipse cx="348.5" cy="180.5" fill="#ADD1B2" rx="11" ry="11" style="stroke:#181818;stroke-width:1.0;"/><path d="M350.8438,176.1719 C349.9063,175.7344 349.3125,175.5938 348.4375,175.5938 C345.8125,175.5938 343.8125,177.6719 343.8125,180.3906 L343.8125,181.5156 C343.8125,184.0938 345.9219,185.9844 348.8125,185.9844 C350.0313,185.9844 351.1875,185.6875 351.9375,185.1406 C352.5156,184.7344 352.8438,184.2813 352.8438,183.8906 C352.8438,183.4375 352.4531,183.0469 351.9844,183.0469 C351.7656,183.0469 351.5625,183.125 351.375,183.3125 C350.9219,183.7969 350.9219,183.7969 350.7344,183.8906 C350.3125,184.1563 349.625,184.2813 348.8594,184.2813 C346.8125,184.2813 345.5156,183.1875 345.5156,181.4844 L345.5156,180.3906 C345.5156,178.6094 346.7656,177.2969 348.5,177.2969 C349.0781,177.2969 349.6875,177.4531 350.1563,177.7031 C350.6406,177.9844 350.8125,178.2031 350.9063,178.6094 C350.9688,179.0156 351,179.1406 351.1406,179.2656 C351.2813,179.4063 351.5156,179.5156 351.7344,179.5156 C352,179.5156 352.2656,179.375 352.4375,179.1563 C352.5469,179 352.5781,178.8125 352.5781,178.3906 L352.5781,176.9688 C352.5781,176.5313 352.5625,176.4063 352.4688,176.25 C352.3125,175.9844 352.0313,175.8438 351.7344,175.8438 C351.4375,175.8438 351.2344,175.9375 351.0156,176.25 L350.8438,176.1719 Z " fill="#000000"/><text fill="#000000" font-family="sans-serif" font-size="14" lengthAdjust="spacing" textLength="216" x="362.5" y="185.3467">TcpServerAGVManagerThread</text><line style="stroke:#181818;stroke-width:0.5;" x1="334.5" x2="580.5" y1="196.5" y2="196.5"/><line style="stroke:#181818;stroke-width:0.5;" x1="334.5" x2="580.5" y1="204.5" y2="204.5"/></g><!--MD5=[c1e27976c8191b26c569fc8ecfed9144]
link TcpServerAGVDigitalTwinThread to TcpServerAGVDigitalTwin--><g id="link_TcpServerAGVDigitalTwinThread_TcpServerAGVDigitalTwin"><path codeLine="26" d="M150.5,71.765 C150.5,91.022 150.5,118.944 150.5,142.5373 " fill="none" id="TcpServerAGVDigitalTwinThread-to-TcpServerAGVDigitalTwin" style="stroke:#181818;stroke-width:1.0;"/><polygon fill="#181818" points="150.5,147.8106,154.5,138.8106,150.5,142.8106,146.5,138.8106,150.5,147.8106" style="stroke:#181818;stroke-width:1.0;"/></g><!--MD5=[9cb19ad990d30361a685a9b3a3ddf897]
link TcpServerAGVManager to TcpServerAGVManagerThread--><g id="link_TcpServerAGVManager_TcpServerAGVManagerThread"><path codeLine="28" d="M461.067,88.332 C460.253,110.962 459.253,138.7592 458.519,159.1599 " fill="none" id="TcpServerAGVManager-to-TcpServerAGVManagerThread" style="stroke:#181818;stroke-width:1.0;"/><polygon fill="#181818" points="458.339,164.1794,462.6601,155.3291,458.5188,159.1826,454.6653,155.0413,458.339,164.1794" style="stroke:#181818;stroke-width:1.0;"/></g><!--MD5=[a33f5f1de341f9737403b931feaf3287]
link TcpServerAGVDigitalTwinThread to TcpServerAGVManagerThread--><g id="link_TcpServerAGVDigitalTwinThread_TcpServerAGVManagerThread"><path codeLine="30" d="M201.539,71.609 C256.847,96.651 344.814,136.4795 401.858,162.3071 " fill="none" id="TcpServerAGVDigitalTwinThread-to-TcpServerAGVManagerThread" style="stroke:#181818;stroke-width:1.0;"/><polygon fill="#181818" points="406.594,164.4515,400.0439,157.0965,402.0388,162.3899,396.7454,164.3848,406.594,164.4515" style="stroke:#181818;stroke-width:1.0;"/></g><!--MD5=[efbcec143e9d0d67c7df05d8c267ad81]
@startuml
skinparam classAttributeIconSize 0

Class "TcpServerAGVDigitalTwin"{
+parsing methods...
+building data transferece methods...
}

Class "TcpServerAGVDigitalTwinThread"{
       
}

Class "TcpServerAGVManager"{
+parsing methods...
+building data transferece methods...
}

Class "TcpServerAGVManagerThread"{

}






"TcpServerAGVDigitalTwinThread"  - ->  "TcpServerAGVDigitalTwin" 

"TcpServerAGVManager"  - ->  "TcpServerAGVManagerThread" 

"TcpServerAGVDigitalTwinThread" - -> "TcpServerAGVManagerThread"
@enduml

PlantUML version 1.2022.6beta4(Unknown compile time)
(GPL source distribution)
Java Runtime: Java(TM) SE Runtime Environment
JVM: Java HotSpot(TM) 64-Bit Server VM
Default Encoding: UTF-8
Language: en
Country: US
--></g></svg>