<?xml version="1.0" encoding="UTF-8" standalone="no"?><svg xmlns="http://www.w3.org/2000/svg" xmlns:xlink="http://www.w3.org/1999/xlink" contentStyleType="text/css" height="370px" preserveAspectRatio="none" style="width:824px;height:370px;background:#FFFFFF;" version="1.1" viewBox="0 0 824 370" width="824px" zoomAndPan="magnify"><defs/><g><rect fill="#FFFFFF" height="246.9297" style="stroke:#181818;stroke-width:1.0;" width="10" x="186.5" y="62.5938"/><rect fill="#FFFFFF" height="159.5313" style="stroke:#181818;stroke-width:1.0;" width="10" x="482" y="149.9922"/><rect height="117.5313" style="stroke:#000000;stroke-width:1.5;fill:none;" width="471" x="111" y="69.5938"/><line style="stroke:#181818;stroke-width:0.5;fill:none;stroke-dasharray:5.0,5.0;" x1="58" x2="58" y1="52.5938" y2="318.5234"/><line style="stroke:#181818;stroke-width:0.5;fill:none;stroke-dasharray:5.0,5.0;" x1="191" x2="191" y1="52.5938" y2="318.5234"/><line style="stroke:#181818;stroke-width:0.5;fill:none;stroke-dasharray:5.0,5.0;" x1="332" x2="332" y1="52.5938" y2="318.5234"/><line style="stroke:#181818;stroke-width:0.5;fill:none;stroke-dasharray:5.0,5.0;" x1="487" x2="487" y1="52.5938" y2="318.5234"/><line style="stroke:#181818;stroke-width:0.5;fill:none;stroke-dasharray:5.0,5.0;" x1="642" x2="642" y1="52.5938" y2="318.5234"/><line style="stroke:#181818;stroke-width:0.5;fill:none;stroke-dasharray:5.0,5.0;" x1="765" x2="765" y1="52.5938" y2="318.5234"/><rect fill="#E2E2F0" height="46.5938" rx="2.5" ry="2.5" style="stroke:#181818;stroke-width:0.5;" width="106" x="5" y="5"/><text fill="#000000" font-family="sans-serif" font-size="14" font-style="italic" lengthAdjust="spacing" textLength="65" x="25.5" y="24.9951">«Server»</text><text fill="#000000" font-family="sans-serif" font-size="14" lengthAdjust="spacing" textLength="92" x="12" y="41.292">AGVManager</text><rect fill="#E2E2F0" height="46.5938" rx="2.5" ry="2.5" style="stroke:#181818;stroke-width:0.5;" width="106" x="5" y="317.5234"/><text fill="#000000" font-family="sans-serif" font-size="14" font-style="italic" lengthAdjust="spacing" textLength="65" x="25.5" y="337.5186">«Server»</text><text fill="#000000" font-family="sans-serif" font-size="14" lengthAdjust="spacing" textLength="92" x="12" y="353.8154">AGVManager</text><rect fill="#E2E2F0" height="30.2969" rx="2.5" ry="2.5" style="stroke:#181818;stroke-width:0.5;" width="141" x="121" y="21.2969"/><text fill="#000000" font-family="sans-serif" font-size="14" lengthAdjust="spacing" textLength="127" x="128" y="41.292">DigitalTwinServer</text><rect fill="#E2E2F0" height="30.2969" rx="2.5" ry="2.5" style="stroke:#181818;stroke-width:0.5;" width="141" x="121" y="317.5234"/><text fill="#000000" font-family="sans-serif" font-size="14" lengthAdjust="spacing" textLength="127" x="128" y="337.5186">DigitalTwinServer</text><rect fill="#E2E2F0" height="30.2969" rx="2.5" ry="2.5" style="stroke:#181818;stroke-width:0.5;" width="120" x="272" y="21.2969"/><text fill="#000000" font-family="sans-serif" font-size="14" lengthAdjust="spacing" textLength="106" x="279" y="41.292">TCPAGVServer</text><rect fill="#E2E2F0" height="30.2969" rx="2.5" ry="2.5" style="stroke:#181818;stroke-width:0.5;" width="120" x="272" y="317.5234"/><text fill="#000000" font-family="sans-serif" font-size="14" lengthAdjust="spacing" textLength="106" x="279" y="337.5186">TCPAGVServer</text><rect fill="#E2E2F0" height="46.5938" rx="2.5" ry="2.5" style="stroke:#181818;stroke-width:0.5;" width="170" x="402" y="5"/><text fill="#000000" font-family="sans-serif" font-size="14" font-style="italic" lengthAdjust="spacing" textLength="65" x="454.5" y="24.9951">«thread»</text><text fill="#000000" font-family="sans-serif" font-size="14" lengthAdjust="spacing" textLength="156" x="409" y="41.292">TCPAGVServerThread</text><rect fill="#E2E2F0" height="46.5938" rx="2.5" ry="2.5" style="stroke:#181818;stroke-width:0.5;" width="170" x="402" y="317.5234"/><text fill="#000000" font-family="sans-serif" font-size="14" font-style="italic" lengthAdjust="spacing" textLength="65" x="454.5" y="337.5186">«thread»</text><text fill="#000000" font-family="sans-serif" font-size="14" lengthAdjust="spacing" textLength="156" x="409" y="353.8154">TCPAGVServerThread</text><rect fill="#E2E2F0" height="30.2969" rx="2.5" ry="2.5" style="stroke:#181818;stroke-width:0.5;" width="120" x="582" y="21.2969"/><text fill="#000000" font-family="sans-serif" font-size="14" lengthAdjust="spacing" textLength="106" x="589" y="41.292">BookingServer</text><rect fill="#E2E2F0" height="30.2969" rx="2.5" ry="2.5" style="stroke:#181818;stroke-width:0.5;" width="120" x="582" y="317.5234"/><text fill="#000000" font-family="sans-serif" font-size="14" lengthAdjust="spacing" textLength="106" x="589" y="337.5186">BookingServer</text><rect fill="#E2E2F0" height="30.2969" rx="2.5" ry="2.5" style="stroke:#181818;stroke-width:0.5;" width="106" x="712" y="21.2969"/><text fill="#000000" font-family="sans-serif" font-size="14" lengthAdjust="spacing" textLength="92" x="719" y="41.292">HandleClient</text><rect fill="#E2E2F0" height="30.2969" rx="2.5" ry="2.5" style="stroke:#181818;stroke-width:0.5;" width="106" x="712" y="317.5234"/><text fill="#000000" font-family="sans-serif" font-size="14" lengthAdjust="spacing" textLength="92" x="719" y="337.5186">HandleClient</text><rect fill="#FFFFFF" height="246.9297" style="stroke:#181818;stroke-width:1.0;" width="10" x="186.5" y="62.5938"/><rect fill="#FFFFFF" height="159.5313" style="stroke:#181818;stroke-width:1.0;" width="10" x="482" y="149.9922"/><path d="M111,69.5938 L189,69.5938 L189,76.7266 L179,86.7266 L111,86.7266 L111,69.5938 " fill="#EEEEEE" style="stroke:#000000;stroke-width:1.5;"/><rect fill="none" height="117.5313" style="stroke:#000000;stroke-width:1.5;" width="471" x="111" y="69.5938"/><text fill="#000000" font-family="sans-serif" font-size="13" font-weight="bold" lengthAdjust="spacing" textLength="33" x="126" y="82.6606">loop</text><text fill="#000000" font-family="sans-serif" font-size="11" font-weight="bold" lengthAdjust="spacing" textLength="39" x="204" y="81.8042">[true]</text><line style="stroke:#181818;stroke-width:1.0;" x1="196.5" x2="238.5" y1="107.8594" y2="107.8594"/><line style="stroke:#181818;stroke-width:1.0;" x1="238.5" x2="238.5" y1="107.8594" y2="120.8594"/><line style="stroke:#181818;stroke-width:1.0;" x1="197.5" x2="238.5" y1="120.8594" y2="120.8594"/><polygon fill="#181818" points="207.5,116.8594,197.5,120.8594,207.5,124.8594,203.5,120.8594" style="stroke:#181818;stroke-width:1.0;"/><text fill="#000000" font-family="sans-serif" font-size="13" lengthAdjust="spacing" textLength="30" x="203.5" y="102.7935">start</text><polygon fill="#181818" points="320,145.9922,330,149.9922,320,153.9922,324,149.9922" style="stroke:#181818;stroke-width:1.0;"/><line style="stroke:#181818;stroke-width:1.0;" x1="196.5" x2="326" y1="149.9922" y2="149.9922"/><text fill="#000000" font-family="sans-serif" font-size="13" lengthAdjust="spacing" textLength="43" x="203.5" y="144.9263">accept</text><polygon fill="#181818" points="470,175.125,480,179.125,470,183.125,474,179.125" style="stroke:#181818;stroke-width:1.0;"/><line style="stroke:#181818;stroke-width:1.0;" x1="332" x2="476" y1="179.125" y2="179.125"/><text fill="#000000" font-family="sans-serif" font-size="13" lengthAdjust="spacing" textLength="30" x="339" y="174.0591">start</text><polygon fill="#181818" points="343,211.2578,333,215.2578,343,219.2578,339,215.2578" style="stroke:#181818;stroke-width:1.0;"/><line style="stroke:#181818;stroke-width:1.0;" x1="337" x2="481" y1="215.2578" y2="215.2578"/><text fill="#000000" font-family="sans-serif" font-size="13" lengthAdjust="spacing" textLength="36" x="349" y="210.1919">parse</text><line style="stroke:#181818;stroke-width:1.0;" x1="492" x2="534" y1="244.3906" y2="244.3906"/><line style="stroke:#181818;stroke-width:1.0;" x1="534" x2="534" y1="244.3906" y2="257.3906"/><line style="stroke:#181818;stroke-width:1.0;" x1="493" x2="534" y1="257.3906" y2="257.3906"/><polygon fill="#181818" points="503,253.3906,493,257.3906,503,261.3906,499,257.3906" style="stroke:#181818;stroke-width:1.0;"/><text fill="#000000" font-family="sans-serif" font-size="13" lengthAdjust="spacing" textLength="52" x="499" y="239.3247">execute</text><polygon fill="#181818" points="343,282.5234,333,286.5234,343,290.5234,339,286.5234" style="stroke:#181818;stroke-width:1.0;"/><line style="stroke:#181818;stroke-width:1.0;" x1="337" x2="481" y1="286.5234" y2="286.5234"/><text fill="#000000" font-family="sans-serif" font-size="13" lengthAdjust="spacing" textLength="30" x="349" y="281.4575">build</text><polygon fill="#181818" points="69,296.5234,59,300.5234,69,304.5234,65,300.5234" style="stroke:#181818;stroke-width:1.0;"/><line style="stroke:#181818;stroke-width:1.0;stroke-dasharray:2.0,2.0;" x1="63" x2="481" y1="300.5234" y2="300.5234"/><!--MD5=[ad4331a58ff3435e8d8a237cae730691]
@startuml
participant AGVManager <<Server>>


loop true
Activate DigitalTwinServer
DigitalTwinServer -> DigitalTwinServer: start
DigitalTwinServer -> TCPAGVServer: accept



participant TCPAGVServerThread  <<thread>>
activate TCPAGVServerThread 
TCPAGVServer -> TCPAGVServerThread : start
deactivate BookingServer
end

TCPAGVServerThread -> TCPAGVServer:parse
TCPAGVServerThread  -> TCPAGVServerThread : execute
TCPAGVServerThread  -> TCPAGVServer:build

TCPAGVServerThread  - -> AGVManager
deactivate HandleClient
@enduml

PlantUML version 1.2022.6beta4(Unknown compile time)
(GPL source distribution)
Java Runtime: Java(TM) SE Runtime Environment
JVM: Java HotSpot(TM) 64-Bit Server VM
Default Encoding: UTF-8
Language: en
Country: US
--></g></svg>